<?xml version="1.0" encoding="UTF-8"?>
<!-- Created with Inkscape (http://www.inkscape.org/) -->
<svg width="100" height="64.04" version="1.1" viewBox="0 0 26.458 16.944" xmlns="http://www.w3.org/2000/svg">
 <g fill="#fff">
  <g stroke-width=".26458">
   <path d="m7.7075 7.0384a1.564 1.564 0 0 0-1.5642 1.5637 1.564 1.564 0 0 0 1.5642 1.5642h3.9573v0.52141h-8.8624v1.5637h20.853v-1.5637h-8.8624v-0.52141h3.8623a1.564 1.564 0 0 0 1.5642-1.5642 1.564 1.564 0 0 0-1.5642-1.5637z"/>
   <path d="m6.1907 12.773v4.1708h14.076v-4.1708h-3.1284zm3.1279 1.5642h7.8202v1.0423h-7.8202z"/>
   <path d="m5.2785e-5 3.3192c0.2386 1.1866 0.66362 2.3112 1.7596 3.1977h22.939c1.0959-0.88648 1.521-2.0111 1.7596-3.1977-1.2922 1.3389-1.9566 1.6244-6.4518 1.6335h-13.554c-4.4949-0.009069-5.1596-0.29458-6.4518-1.6335z"/>
  </g>
  <path d="m13.181 1.0558e-8c-2.3951 3.5118-6.9717 3.5242-8.3414 3.6494v0.78186h16.683v-0.78186c-1.3698-0.12516-5.9464-0.13756-8.3414-3.6494z" stroke-linecap="round" stroke-linejoin="round" stroke-width=".25809"/>
 </g>
</svg>
