<?xml version="1.0" encoding="UTF-8" standalone="no"?>
<!-- Created with Inkscape (http://www.inkscape.org/) -->

<svg
   width="100"
   height="100"
   viewBox="0 0 26.458333 26.458334"
   version="1.1"
   id="svg5"
   inkscape:version="1.1.1 (3bf5ae0d25, 2021-09-20)"
   sodipodi:docname="Location-pin-icon-right.svg"
   xmlns:inkscape="http://www.inkscape.org/namespaces/inkscape"
   xmlns:sodipodi="http://sodipodi.sourceforge.net/DTD/sodipodi-0.dtd"
   xmlns="http://www.w3.org/2000/svg"
   xmlns:svg="http://www.w3.org/2000/svg">
  <sodipodi:namedview
     id="namedview7"
     pagecolor="#505050"
     bordercolor="#eeeeee"
     borderopacity="1"
     inkscape:pageshadow="0"
     inkscape:pageopacity="0"
     inkscape:pagecheckerboard="0"
     inkscape:document-units="mm"
     showgrid="false"
     units="px"
     inkscape:zoom="4.4548521"
     inkscape:cx="94.166987"
     inkscape:cy="31.76312"
     inkscape:window-width="1920"
     inkscape:window-height="1017"
     inkscape:window-x="1352"
     inkscape:window-y="-8"
     inkscape:window-maximized="1"
     inkscape:current-layer="layer1" />
  <defs
     id="defs2" />
  <g
     inkscape:label="Layer 1"
     inkscape:groupmode="layer"
     id="layer1">
    <path
       id="path2214"
       style="opacity:1;fill:#ffffff;stroke-width:0.0522486;stroke-linecap:round"
       d="M 26.458321,0.31614197 A 0.31614043,0.31614043 0 0 0 26.142179,-1.3333334e-7 0.31614043,0.31614043 0 0 0 25.826037,0.31614197 12.596637,12.596637 0 0 1 13.229155,12.913025 a 0.31614043,0.31614043 0 0 0 -0.316142,0.316142 0.31614043,0.31614043 0 0 0 0.316142,0.316141 0.31614043,0.31614043 0 0 0 0.0085,0 12.596637,12.596637 0 0 1 12.588394,12.596884 0.31614043,0.31614043 0 0 0 0.316142,0.316141 0.31614043,0.31614043 0 0 0 0.316142,-0.316141 z" />
  </g>
</svg>
