<?xml version="1.0" encoding="UTF-8" standalone="no"?>
<!-- Created with Inkscape (http://www.inkscape.org/) -->

<svg
   width="1080"
   height="1080"
   viewBox="0 0 285.75 285.75"
   version="1.1"
   id="svg5"
   inkscape:version="1.2.1 (9c6d41e410, 2022-07-14)"
   sodipodi:docname="panda marker.svg"
   xml:space="preserve"
   xmlns:inkscape="http://www.inkscape.org/namespaces/inkscape"
   xmlns:sodipodi="http://sodipodi.sourceforge.net/DTD/sodipodi-0.dtd"
   xmlns="http://www.w3.org/2000/svg"
   xmlns:svg="http://www.w3.org/2000/svg"><sodipodi:namedview
     id="namedview7"
     pagecolor="#272727"
     bordercolor="#000000"
     borderopacity="0.24705882"
     inkscape:showpageshadow="2"
     inkscape:pageopacity="0"
     inkscape:pagecheckerboard="true"
     inkscape:deskcolor="#000000"
     inkscape:document-units="px"
     showgrid="false"
     inkscape:zoom="0.4204826"
     inkscape:cx="416.18845"
     inkscape:cy="500.61525"
     inkscape:window-width="1440"
     inkscape:window-height="878"
     inkscape:window-x="-6"
     inkscape:window-y="-6"
     inkscape:window-maximized="1"
     inkscape:current-layer="layer1"
     inkscape:lockguides="false"
     showguides="true" /><defs
     id="defs2" /><g
     inkscape:label="Layer 1"
     inkscape:groupmode="layer"
     id="layer1"><circle
       style="opacity:1;fill:#ffffff;stroke:none;stroke-width:2.64583;stroke-linecap:round;stroke-linejoin:round;stroke-dasharray:none;stroke-opacity:1;paint-order:stroke markers fill"
       id="path4403"
       cx="142.875"
       cy="123.95974"
       r="96.273293" /><path
       id="circle3971"
       style="opacity:1;fill:#000000;stroke:#ffffff;stroke-width:23.8125;stroke-linecap:round;stroke-linejoin:round;stroke-dasharray:none;stroke-opacity:1;paint-order:stroke markers fill"
       d="M 142.875 23.631632 A 101.89079 101.89079 0 0 0 94.944592 35.673792 A 29.888767 29.888767 0 0 0 77.711019 30.203324 A 29.888767 29.888767 0 0 0 47.821887 60.091939 A 29.888767 29.888767 0 0 0 53.23241 77.22371 A 101.89079 101.89079 0 0 0 40.984062 125.52257 A 101.89079 101.89079 0 0 0 70.877844 197.51973 L 70.827201 197.56985 L 142.875 269.61765 L 214.9228 197.56985 L 214.87216 197.51973 A 101.89079 101.89079 0 0 0 244.76594 125.52257 A 101.89079 101.89079 0 0 0 232.37806 76.849056 A 29.888767 29.888767 0 0 0 237.52142 60.091939 A 29.888767 29.888767 0 0 0 207.6328 30.203324 A 29.888767 29.888767 0 0 0 190.63229 35.517212 A 101.89079 101.89079 0 0 0 142.875 23.631632 z M 142.875 37.869523 A 87.652779 87.652779 0 0 1 230.52753 125.52257 A 87.652779 87.652779 0 0 1 142.875 213.1751 A 87.652779 87.652779 0 0 1 55.222469 125.52257 A 87.652779 87.652779 0 0 1 142.875 37.869523 z " /><path
       style="opacity:1;fill:#000000;stroke:none;stroke-width:2.64583;stroke-linecap:round;stroke-linejoin:round;stroke-dasharray:none;stroke-opacity:1;paint-order:stroke markers fill"
       d="m 142.87499,167.14116 c 8.96036,-0.41529 21.50311,-6.92593 20.40758,-17.84263 -1.07715,-10.73344 -9.27101,2.75829 -20.40758,1.92819"
       id="path4290"
       sodipodi:nodetypes="csc" /><path
       style="opacity:1;fill:#000000;stroke:none;stroke-width:2.64583;stroke-linecap:round;stroke-linejoin:round;stroke-dasharray:none;stroke-opacity:1;paint-order:stroke markers fill"
       d="m 142.87499,167.14116 c -8.96036,-0.41529 -21.50311,-6.92593 -20.40758,-17.84263 1.07715,-10.73344 9.27101,2.75829 20.40758,1.92819"
       id="path4392"
       sodipodi:nodetypes="csc" /><path
       id="path4394"
       style="opacity:1;fill:#000000;stroke:none;stroke-width:2.64583;stroke-linecap:round;stroke-linejoin:round;stroke-dasharray:none;stroke-opacity:1;paint-order:stroke markers fill"
       d="M 181.40185 98.56556 C 169.58562 98.602649 157.42266 105.36301 156.28452 115.9061 C 155.63575 121.91582 168.99752 118.60772 172.85818 135.26099 C 176.00358 148.82888 197.71558 149.18446 203.78136 137.9306 C 210.90035 124.72271 206.95794 109.8866 195.32761 102.33587 C 191.31822 99.732863 186.39092 98.5499 181.40185 98.56556 z M 175.30558 108.00891 A 6.6740694 6.6740694 0 0 1 181.97959 114.68292 A 6.6740694 6.6740694 0 0 1 175.30558 121.35693 A 6.6740694 6.6740694 0 0 1 168.63157 114.68292 A 6.6740694 6.6740694 0 0 1 175.30558 108.00891 z " /><path
       id="path4401"
       style="opacity:1;fill:#000000;stroke:none;stroke-width:2.64583;stroke-linecap:round;stroke-linejoin:round;stroke-dasharray:none;stroke-opacity:1;paint-order:stroke markers fill"
       d="m 104.33493,98.56556 c 11.81623,0.03709 23.97919,6.79745 25.11733,17.34054 0.64877,6.00972 -12.713,2.70162 -16.57366,19.35489 -3.1454,13.56789 -24.857392,13.92347 -30.923172,2.66961 -7.11899,-13.20789 -3.17658,-28.044 8.45375,-35.59473 4.009387,-2.603007 8.936687,-3.78597 13.925752,-3.77031 z m 6.09627,9.44335 a 6.6740694,6.6740694 0 0 0 -6.67401,6.67401 6.6740694,6.6740694 0 0 0 6.67401,6.67401 6.6740694,6.6740694 0 0 0 6.67401,-6.67401 6.6740694,6.6740694 0 0 0 -6.67401,-6.67401 z" /></g></svg>
