<?xml version="1.0" encoding="UTF-8" standalone="no"?>
<!-- Created with Inkscape (http://www.inkscape.org/) -->

<svg
   width="1920mm"
   height="1350mm"
   viewBox="0 0 1920 1350"
   version="1.1"
   id="svg5"
   inkscape:version="1.1.1 (3bf5ae0d25, 2021-09-20)"
   sodipodi:docname="preloader-background.svg"
   xmlns:inkscape="http://www.inkscape.org/namespaces/inkscape"
   xmlns:sodipodi="http://sodipodi.sourceforge.net/DTD/sodipodi-0.dtd"
   xmlns="http://www.w3.org/2000/svg"
   xmlns:svg="http://www.w3.org/2000/svg">
  <sodipodi:namedview
     id="namedview7"
     pagecolor="#505050"
     bordercolor="#eeeeee"
     borderopacity="1"
     inkscape:pageshadow="0"
     inkscape:pageopacity="0"
     inkscape:pagecheckerboard="0"
     inkscape:document-units="mm"
     showgrid="false"
     inkscape:zoom="0.056568543"
     inkscape:cx="6249.0562"
     inkscape:cy="733.62329"
     inkscape:window-width="1920"
     inkscape:window-height="1017"
     inkscape:window-x="1352"
     inkscape:window-y="-8"
     inkscape:window-maximized="1"
     inkscape:current-layer="layer1" />
  <defs
     id="defs2" />
  <g
     inkscape:label="Layer 1"
     inkscape:groupmode="layer"
     id="layer1"
     style="opacity:1">
    <path
       style="opacity:0.461538;fill:#030406;fill-opacity:1;stroke:none;stroke-width:0.264583px;stroke-linecap:butt;stroke-linejoin:miter;stroke-opacity:1"
       d="m 2064.4136,924.77201 -9.9218,330.72919 c 0,0 -49.6094,-56.224 -165.3646,-51.263 -115.7552,4.9609 -109.1406,69.4531 -277.8125,26.4583 -168.6719,-42.9948 -173.6328,-82.6823 -292.6953,-23.151 -119.0625,59.5312 -180.2475,69.4531 -325.76815,28.112 -145.52092,-41.3412 -211.66677,-67.7995 -307.57827,-26.4584 -95.9114,41.3412 -124.0234,41.3412 -266.2369,4.961 -142.2136,-36.3802 -181.9011,-105.8334 -343.958401,-19.8438 -162.0573,85.9896 -167.0182,109.1406 -259.622399,97.5651 -92.6041,-11.5755 -56.2239,-716.02862 -56.2239,-716.02862 L 2135.5204,560.96997 Z"
       id="path3134"
       sodipodi:nodetypes="ccssssssssccc" />
    <path
       style="opacity:0.461538;fill:#030406;fill-opacity:1;stroke:none;stroke-width:0.264583px;stroke-linecap:butt;stroke-linejoin:miter;stroke-opacity:1"
       d="m -246.6971,914.16521 9.92187,330.72919 c 0,0 49.60938,-56.224 165.364574,-51.2631 115.755209,4.961 109.140626,69.4532 277.812506,26.4584 168.67187,-42.9948 211.66666,-95.9115 330.72916,-36.3802 119.0625,59.5312 183.55469,104.1796 329.07552,62.8385 145.52087,-41.3411 170.32557,-89.2969 266.23707,-47.9557 95.9114,41.3411 133.9453,74.414 276.1588,38.0338 142.2136,-36.3802 185.2084,-119.0625 347.2657,-33.0729 162.0573,85.9896 202.5716,98.392 246.3932,77.7214 84.4059,-39.814 56.2239,-716.02867 56.2239,-716.02867 L -317.80387,550.36312 Z"
       id="path1360"
       sodipodi:nodetypes="ccssssssssccc" />
    <path
       style="fill:#030406;fill-opacity:1;stroke:none;stroke-width:0.264583px;stroke-linecap:butt;stroke-linejoin:miter;stroke-opacity:1"
       d="m -269.08651,-217.91838 116.23207,1382.37828 c 0,0 98.776014,-30.9095 149.8438859,-49.052 51.0678741,-18.1426 164.6266941,-27.5498 233.8370941,33.5973 69.21042,61.147 163.95474,97.4321 251.97963,54.4276 88.02489,-43.0046 136.40499,-96.0883 208.97511,-59.1313 72.57016,36.9571 134.38915,109.5272 256.01131,62.491 121.62221,-47.0362 177.39371,-106.8394 337.98871,-24.19 160.595,82.6493 250.6357,60.4751 334.629,9.4072 83.9932,-51.0679 155.2194,-126.3258 233.1651,-86.681 77.9457,39.6448 196.6794,255.2794 436.1486,221.0695 239.4692,-34.2098 180.5522,-1586.75224 180.5522,-1586.75224 z"
       id="path857"
       sodipodi:nodetypes="ccssssssssscc" />
    <path
       style="fill:#020406;fill-opacity:0.462745;stroke:none;stroke-width:0.264583px;stroke-linecap:butt;stroke-linejoin:miter;stroke-opacity:1"
       d="m -204.14388,930.13421 -15.00033,365.45919 c 0,0 210.2741178,-121.0746 333.05106,-97.6885 122.77694,23.386 218.65987,116.9304 363.6536,76.0047 144.99371,-40.9256 137.97788,-116.9304 306.35768,-52.6187 168.3798,64.3118 252.56967,67.8197 339.09817,29.2327 86.5285,-38.5871 112.2532,-50.2801 177.7342,-22.2168 65.4811,28.0633 159.0254,93.5443 260.7549,40.9256 101.7294,-52.6187 155.5174,-128.6234 252.5697,-93.5443 97.0522,35.0791 209.3054,81.8513 274.7864,81.8513 65.4811,0 99.3909,-722.63 99.3909,-722.63 L 34.394164,392.2543 Z"
       id="path3862"
       sodipodi:nodetypes="ccssssssssccc" />
  </g>
</svg>
