<?xml version="1.0" encoding="UTF-8" standalone="no"?>
<!-- Created with Inkscape (http://www.inkscape.org/) -->

<svg
   width="377.94"
   height="88.902"
   viewBox="0 0 99.996619 23.521988"
   version="1.1"
   id="svg5"
   inkscape:version="1.1.1 (3bf5ae0d25, 2021-09-20)"
   sodipodi:docname="North_korea_grafic.svg"
   xmlns:inkscape="http://www.inkscape.org/namespaces/inkscape"
   xmlns:sodipodi="http://sodipodi.sourceforge.net/DTD/sodipodi-0.dtd"
   xmlns="http://www.w3.org/2000/svg"
   xmlns:svg="http://www.w3.org/2000/svg">
  <sodipodi:namedview
     id="namedview7"
     pagecolor="#505050"
     bordercolor="#eeeeee"
     borderopacity="1"
     inkscape:pageshadow="0"
     inkscape:pageopacity="0"
     inkscape:pagecheckerboard="true"
     inkscape:document-units="mm"
     showgrid="false"
     inkscape:zoom="0.76435185"
     inkscape:cx="281.93822"
     inkscape:cy="-199.51545"
     inkscape:window-width="1920"
     inkscape:window-height="1017"
     inkscape:window-x="1352"
     inkscape:window-y="-8"
     inkscape:window-maximized="1"
     inkscape:current-layer="layer1"
     inkscape:snap-bbox="true"
     inkscape:snap-bbox-edge-midpoints="true"
     inkscape:snap-bbox-midpoints="true"
     inkscape:bbox-nodes="true"
     inkscape:snap-midpoints="true"
     inkscape:snap-smooth-nodes="true"
     inkscape:snap-intersection-paths="true"
     inkscape:object-paths="true"
     units="px" />
  <defs
     id="defs2">
    <rect
       x="-585.12979"
       y="-660.06341"
       width="329.33232"
       height="84.436527"
       id="rect3217" />
    <rect
       x="-585.12979"
       y="-660.06341"
       width="329.33232"
       height="84.436527"
       id="rect25619" />
  </defs>
  <g
     inkscape:label="Layer 1"
     inkscape:groupmode="layer"
     id="layer1">
    <rect
       fill="#024fa2"
       width="47.043175"
       height="23.521587"
       id="rect2307"
       x="-1.0765393e-05"
       y="0.0004353727"
       style="display:inline;stroke-width:0.653378" />
    <rect
       fill="#ffffff"
       y="3.9206777"
       width="47.043175"
       height="15.681058"
       id="rect2309"
       x="-1.0765393e-05"
       style="display:inline;stroke-width:0.653378" />
    <rect
       fill="#ed1c27"
       y="4.5740705"
       width="47.043175"
       height="14.374303"
       id="rect2311"
       x="-1.0765393e-05"
       style="display:inline;stroke-width:0.653378" />
    <ellipse
       fill="#ffffff"
       cx="15.681049"
       cy="11.761231"
       id="ellipse2313"
       rx="5.2265506"
       ry="5.2270193"
       style="display:inline;stroke-width:0.653378" />
    <path
       id="path2283"
       style="font-size:13.3333px;line-height:1.25;font-family:'Black Han Sans';-inkscape-font-specification:'Black Han Sans';letter-spacing:0px;word-spacing:0px;white-space:pre;fill:#024fa2;fill-opacity:1;stroke-width:2.26169"
       d="M 80.516258,-3.5131482e-5 V 1.8095728 h -3.950997 v 3.678557 H 90.135796 V 1.8095728 H 86.185555 V -3.5131482e-5 Z M 92.065629,0.60341484 V 16.10302 h 5.669297 v -5.276602 h 2.26163 V 6.3023898 h -2.26163 V 0.60341484 Z m -40.197946,0.210782 V 10.977092 H 72.344104 V 0.81419684 H 66.704497 V 2.1413658 H 57.507303 V 0.81419684 Z m 5.63962,5.12672296 h 9.197194 v 1.115594 h -9.197194 z m 24.425908,0.09054 c -1.527907,0 -2.753802,0.411558 -3.678583,1.235834 -0.924782,0.824224 -1.387264,1.920341 -1.387264,3.2874252 0,1.367059 0.462482,2.462394 1.387264,3.286644 0.924781,0.824276 2.150676,1.236616 3.678583,1.236616 h 2.834635 c 1.527906,0 2.754557,-0.41234 3.679338,-1.236616 0.924782,-0.82425 1.387264,-1.919585 1.387264,-3.286644 0,-1.3670842 -0.462482,-2.4632012 -1.387264,-3.2874252 -0.924781,-0.824276 -2.151432,-1.235834 -3.679338,-1.235834 z m 0.723679,3.739446 h 1.417708 c 0.221152,0 0.401853,0.07009 0.542574,0.210782 0.140734,0.1406812 0.210795,0.3213962 0.210795,0.5425862 0,0.221191 -0.07009,0.402609 -0.210795,0.54333 -0.140721,0.140669 -0.321422,0.210782 -0.542574,0.210782 H 82.65689 c -0.221139,0 -0.401853,-0.07009 -0.542574,-0.210782 -0.140721,-0.140682 -0.211563,-0.322165 -0.211563,-0.54333 0,-0.22119 0.07087,-0.401853 0.211563,-0.5425862 0.140721,-0.140669 0.321435,-0.210782 0.542574,-0.210782 z M 51.264988,12.123088 v 4.191468 h 8.021479 v 1.14605 h -7.418784 v 4.221913 h 14.836814 v 1.718274 h 5.639607 v -5.940187 h -7.38834 v -1.14605 h 7.991035 v -4.191468 z m 25.903723,3.979905 7.9e-5,7.097075 20.566216,-0.03035 V 18.947792 H 82.838087 l -7.9e-5,-2.84395 z"
       sodipodi:nodetypes="ccccccccccccccccccccccccccccccccscsssssscsssssscsssscscccccccccccccccccccccc" />
    <path
       style="font-size:13.3333px;line-height:1.25;font-family:Arial;-inkscape-font-specification:'Arial, Normal';letter-spacing:0px;word-spacing:0px;white-space:pre;fill:#ed1c27;fill-opacity:1;stroke-width:0.236004;stroke-linecap:round;stroke-linejoin:round"
       d="m 77.16879,16.103228 v 2.844537 h 5.669297 v -2.843781 z"
       id="path2285" />
    <path
       style="font-size:13.3333px;line-height:1.25;font-family:Arial;-inkscape-font-specification:'Arial, Normal';letter-spacing:0px;word-spacing:0px;white-space:pre;fill:#ed1c27;fill-opacity:1;stroke-width:0.236004;stroke-linecap:round;stroke-linejoin:round"
       d="m 51.265066,12.123298 v 4.191481 h 8.02148 v 1.146024 h -7.418785 v 1.486962 h 20.476434 v -1.486962 h -7.388352 v -1.146024 h 7.991034 v -4.191481 z"
       id="path2287" />
    <path
       id="path2291"
       style="font-size:13.3333px;line-height:1.25;font-family:Arial;-inkscape-font-specification:'Arial, Normal';letter-spacing:0px;word-spacing:0px;white-space:pre;fill:#ed1c27;fill-opacity:1;stroke-width:0.236004;stroke-linecap:round;stroke-linejoin:round"
       d="m 81.932989,6.0317208 c -1.336913,0 -2.442488,0.314883 -3.317544,0.94586 -0.06266,0.0452 -0.12415,0.09158 -0.184467,0.140018 -0.06006,0.0482 -0.118678,0.09875 -0.176376,0.150126 -0.346644,0.308956 -0.628815,0.655469 -0.845537,1.040777 -1.04e-4,1.69e-4 9.1e-5,5.08e-4 0,6.64e-4 -0.144408,0.256834 -0.260012,0.530615 -0.346708,0.821319 -6.6e-5,2.09e-4 6.5e-5,4.69e-4 0,6.65e-4 -0.01042,0.03608 -0.0211,0.07243 -0.031,0.109038 -5.3e-5,2.09e-4 5.2e-5,4.69e-4 0,6.78e-4 -0.0198,0.0736 -0.0383,0.148485 -0.05459,0.224173 -3.9e-5,2.09e-4 5.2e-5,4.56e-4 0,6.78e-4 -0.0078,0.03778 -0.01576,0.07556 -0.02293,0.113728 -3.9e-5,2.22e-4 3.9e-5,4.56e-4 0,6.77e-4 -0.0065,0.0383 -0.01394,0.07634 -0.02019,0.115162 -7.8e-5,4.43e-4 6.5e-5,9.12e-4 0,0.0013 -0.0065,0.03856 -0.01172,0.07738 -0.01746,0.116465 -5.2e-5,4.29e-4 6.5e-5,8.98e-4 0,0.0013 -0.0052,0.03908 -0.01042,0.07882 -0.01485,0.118418 -5.2e-5,4.43e-4 5.2e-5,8.99e-4 0,0.0013 -0.0039,0.0396 -0.0091,0.07973 -0.01172,0.1198512 -1.3e-5,2.22e-4 2.6e-5,4.43e-4 0,6.65e-4 -0.0039,0.04038 -0.0065,0.0809 -0.0091,0.121805 -1.3e-5,2.21e-4 1.3e-5,4.43e-4 0,6.77e-4 -0.0026,0.04091 -0.0052,0.08181 -0.0065,0.123238 -2.6e-5,4.56e-4 2.6e-5,8.99e-4 0,0.0013 -1.17e-4,0.0026 1.17e-4,0.0052 0,0.0078 -0.0039,0.07934 -0.0065,0.159688 -0.0065,0.241005 0,8.98e-4 0,0.0013 0,0.0026 0,2.22e-4 0,4.43e-4 0,6.64e-4 0,2.35e-4 0,4.56e-4 0,6.78e-4 2.6e-5,0.08494 0.0026,0.168899 0.0065,0.251778 1.3e-5,4.43e-4 -2.6e-5,8.99e-4 0,0.0013 0.0013,0.04117 0.0039,0.08246 0.0065,0.123238 1.3e-5,2.22e-4 -1.3e-5,4.56e-4 0,6.78e-4 0.0026,0.04091 0.0052,0.08142 0.0091,0.121805 2.6e-5,2.21e-4 -1.3e-5,4.56e-4 0,6.77e-4 0.0039,0.04039 0.0078,0.08064 0.01172,0.120503 2.6e-5,2.21e-4 -1.3e-5,4.56e-4 0,6.77e-4 0.0039,0.03986 0.0091,0.07921 0.01485,0.118549 6.5e-5,4.3e-4 -5.2e-5,8.99e-4 0,0.0013 0.0052,0.03908 0.01172,0.0779 0.01746,0.116464 6.5e-5,4.43e-4 -7.8e-5,9.12e-4 0,0.0013 0.0065,0.03856 0.01303,0.07699 0.02019,0.115162 3.9e-5,2.21e-4 -3.9e-5,4.55e-4 0,6.77e-4 0.0078,0.0383 0.01485,0.07608 0.02293,0.113728 0.0026,0.01446 0.0065,0.02866 0.0091,0.04312 0.01172,0.05172 0.02436,0.102785 0.03765,0.1535 0.0026,0.0091 0.0052,0.01889 0.0078,0.02827 5.2e-5,2.09e-4 -5.3e-5,4.69e-4 0,6.78e-4 0.01042,0.03674 0.02019,0.07295 0.031,0.109038 0.0039,0.01172 0.0078,0.02293 0.01042,0.03439 0.0078,0.02488 0.0155,0.05002 0.02358,0.07478 0.01172,0.03556 0.02319,0.07061 0.0357,0.105651 1.04e-4,2.74e-4 5.86e-4,4.04e-4 6.77e-4,6.78e-4 0.0052,0.01602 0.01172,0.03192 0.01746,0.04781 0.01472,0.03934 0.02996,0.07842 0.04572,0.117115 0.0052,0.01433 0.01172,0.02879 0.01746,0.04312 1.17e-4,2.73e-4 5.6e-4,4.04e-4 6.77e-4,6.77e-4 0.01433,0.034 0.02853,0.06813 0.04377,0.101613 1.17e-4,2.61e-4 5.47e-4,4.04e-4 6.77e-4,6.65e-4 0.01524,0.03348 0.03101,0.0667 0.04716,0.09966 1.31e-4,2.74e-4 5.47e-4,4.17e-4 6.78e-4,6.78e-4 0.01615,0.03296 0.03218,0.06527 0.04911,0.09757 1.43e-4,2.74e-4 5.34e-4,4.04e-4 6.77e-4,6.78e-4 0.01707,0.03244 0.03465,0.06514 0.0525,0.09692 0.01042,0.01876 0.0215,0.03739 0.03231,0.05589 0.0078,0.01329 0.01498,0.02658 0.02293,0.03973 1.56e-4,2.74e-4 5.21e-4,4.17e-4 6.77e-4,6.77e-4 0.01876,0.03127 0.03817,0.06214 0.05784,0.09288 1.7e-4,2.61e-4 5.08e-4,4.17e-4 6.78e-4,6.78e-4 0.0396,0.06188 0.08077,0.122717 0.123889,0.182434 1.83e-4,2.6e-4 4.82e-4,4.3e-4 6.78e-4,6.77e-4 0.0215,0.0297 0.04286,0.05966 0.06527,0.08885 1.95e-4,2.48e-4 4.82e-4,4.3e-4 6.77e-4,6.78e-4 0.02241,0.02918 0.04533,0.0581 0.06865,0.08689 1.95e-4,2.47e-4 4.69e-4,4.3e-4 6.64e-4,6.77e-4 0.02332,0.02866 0.04716,0.05732 0.07139,0.08546 2.08e-4,2.35e-4 4.69e-4,4.3e-4 6.77e-4,6.78e-4 0.02423,0.02814 0.04833,0.05589 0.07334,0.0835 2.08e-4,2.47e-4 4.56e-4,4.43e-4 6.64e-4,6.77e-4 0.02501,0.02762 0.05081,0.05498 0.07673,0.0822 2.09e-4,2.22e-4 4.43e-4,4.43e-4 6.64e-4,6.65e-4 0.02592,0.0271 0.05263,0.05419 0.07947,0.08077 2.21e-4,2.08e-4 4.43e-4,4.43e-4 6.77e-4,6.64e-4 0.02684,0.02658 0.05367,0.05263 0.08142,0.07882 2.35e-4,2.21e-4 4.43e-4,4.55e-4 6.77e-4,6.77e-4 0.02775,0.02605 0.05615,0.05185 0.08481,0.07738 2.48e-4,2.09e-4 4.43e-4,4.56e-4 6.78e-4,6.64e-4 0.02866,0.02553 0.05758,0.05068 0.08689,0.07543 0.0052,0.0039 0.01042,0.0091 0.01615,0.01342 0.02423,0.02032 0.04872,0.04078 0.07334,0.06058 1.43e-4,1.17e-4 5.47e-4,-1.05e-4 6.78e-4,0 0.02996,0.0241 0.05967,0.04807 0.09028,0.07139 1.3e-4,1.17e-4 5.34e-4,-1.04e-4 6.64e-4,0 0.03048,0.02319 0.0611,0.04625 0.09223,0.06865 2.48e-4,1.82e-4 4.17e-4,4.95e-4 6.78e-4,6.77e-4 0.031,0.02228 0.06266,0.04377 0.09419,0.06527 2.61e-4,1.7e-4 4.17e-4,4.95e-4 6.78e-4,6.65e-4 0.03166,0.02149 0.06344,0.0426 0.09562,0.06331 2.6e-4,1.7e-4 4.17e-4,5.08e-4 6.77e-4,6.65e-4 0.03218,0.02071 0.06488,0.0413 0.09758,0.06123 2.6e-4,1.56e-4 4.04e-4,5.08e-4 6.77e-4,6.77e-4 0.0327,0.01993 0.06566,0.03934 0.09901,0.05862 2.73e-4,1.43e-4 4.04e-4,5.21e-4 6.77e-4,6.65e-4 0.03335,0.01915 0.06709,0.03752 0.100962,0.05589 2.73e-4,1.56e-4 4.03e-4,5.34e-4 6.77e-4,6.77e-4 0.03387,0.01837 0.06852,0.03635 0.103046,0.0538 2.74e-4,1.43e-4 4.04e-4,5.34e-4 6.77e-4,6.77e-4 0.104088,0.05289 0.211043,0.101743 0.320446,0.14743 2.73e-4,1.17e-4 4.04e-4,5.6e-4 6.77e-4,6.78e-4 0.03635,0.01511 0.07282,0.03009 0.10969,0.04442 2.74e-4,1.04e-4 4.04e-4,5.73e-4 6.77e-4,6.77e-4 0.03687,0.01433 0.07426,0.02749 0.111775,0.04104 2.73e-4,1.04e-4 4.04e-4,5.73e-4 6.64e-4,6.77e-4 0.641373,0.23229 1.367814,0.348051 2.179167,0.348051 h 2.83487 c 1.384645,0 2.521746,-0.337655 3.411119,-1.014527 0.03062,-0.02332 0.06149,-0.04716 0.09158,-0.07139 0.06019,-0.04833 0.1192,-0.09862 0.177054,-0.150113 0.05784,-0.05146 0.113468,-0.103828 0.167623,-0.157526 0.02697,-0.02671 0.05406,-0.05354 0.08012,-0.08077 1.05e-4,-1.18e-4 -1.17e-4,-5.61e-4 0,-6.65e-4 0.02605,-0.02723 0.05159,-0.05432 0.07673,-0.0822 1.04e-4,-1.17e-4 -1.17e-4,-5.47e-4 0,-6.77e-4 0.02514,-0.02775 0.05042,-0.05524 0.07478,-0.08351 1.17e-4,-1.31e-4 -1.04e-4,-5.48e-4 0,-6.78e-4 0.02423,-0.02827 0.04872,-0.05667 0.07204,-0.08546 1.17e-4,-1.3e-4 -1.04e-4,-5.47e-4 0,-6.77e-4 0.02332,-0.02879 0.04625,-0.05758 0.06865,-0.08689 1.17e-4,-1.44e-4 -1.05e-4,-5.35e-4 0,-6.78e-4 0.02241,-0.02931 0.04507,-0.05901 0.0667,-0.08885 1.18e-4,-1.43e-4 -1.04e-4,-5.34e-4 0,-6.77e-4 0.04325,-0.0598 0.08494,-0.120503 0.124541,-0.182435 9.2e-5,-1.56e-4 -1.04e-4,-5.21e-4 0,-6.77e-4 0.0396,-0.06201 0.07777,-0.124411 0.113729,-0.188492 9.1e-5,-1.69e-4 -1.05e-4,-5.08e-4 0,-6.77e-4 0.03596,-0.06409 0.07061,-0.129101 0.103046,-0.195228 9.1e-5,-1.82e-4 -7.9e-5,-4.95e-4 0,-6.77e-4 0.09744,-0.198927 0.178773,-0.407429 0.243701,-0.625401 6.5e-5,-2.09e-4 -6.5e-5,-4.69e-4 0,-6.78e-4 0.129882,-0.436388 0.194563,-0.911168 0.194563,-1.423818 0,-0.500353 -0.06201,-0.9639422 -0.185808,-1.3915112 -0.0065,-0.02189 -0.01303,-0.04364 -0.01954,-0.06527 -0.0078,-0.02488 -0.0155,-0.05002 -0.02358,-0.07478 -0.01707,-0.05198 -0.03491,-0.103307 -0.0538,-0.154165 -0.01472,-0.03934 -0.02996,-0.07843 -0.04573,-0.117116 -0.02736,-0.06722 -0.05667,-0.133425 -0.08754,-0.198588 -0.0078,-0.01589 -0.01446,-0.03205 -0.02228,-0.04781 -0.02371,-0.04833 -0.04911,-0.09549 -0.07478,-0.142727 -0.01967,-0.03635 -0.03973,-0.07269 -0.06058,-0.108387 -0.01472,-0.02527 -0.0297,-0.05042 -0.04507,-0.07543 -0.01172,-0.01967 -0.02397,-0.03921 -0.03635,-0.05862 -0.0078,-0.01172 -0.01628,-0.02423 -0.02423,-0.03635 -0.0241,-0.03674 -0.04872,-0.07308 -0.07399,-0.109039 -0.0091,-0.01303 -0.0172,-0.02527 -0.02632,-0.03765 -0.02149,-0.02983 -0.04416,-0.05953 -0.0667,-0.08885 -1.05e-4,-1.43e-4 1.17e-4,-5.34e-4 0,-6.77e-4 -0.02241,-0.02931 -0.04533,-0.0581 -0.06865,-0.08689 -1.04e-4,-1.43e-4 1.17e-4,-5.47e-4 0,-6.78e-4 -0.02332,-0.02879 -0.04781,-0.05719 -0.07204,-0.08546 -1.04e-4,-1.3e-4 1.17e-4,-5.47e-4 0,-6.77e-4 -0.02423,-0.02827 -0.0495,-0.05576 -0.07478,-0.0835 -1.17e-4,-1.17e-4 1.04e-4,-5.47e-4 0,-6.64e-4 -0.02514,-0.02775 -0.05068,-0.05485 -0.07673,-0.0822 -1.17e-4,-1.17e-4 1.05e-4,-5.6e-4 0,-6.77e-4 -0.02605,-0.02723 -0.05315,-0.05406 -0.08012,-0.08077 -0.05419,-0.05367 -0.109821,-0.106042 -0.167623,-0.157526 -0.05784,-0.05146 -0.116855,-0.101874 -0.177054,-0.150127 -0.06019,-0.04833 -0.121935,-0.09497 -0.184453,-0.140017 -0.875213,-0.630977 -1.981322,-0.94586 -3.318222,-0.94586 z m 0.723692,3.7383 h 1.417774 c 0.221138,0 0.401827,0.07009 0.5426,0.210717 0.140851,0.1407732 0.210717,0.3214612 0.210717,0.5426002 0,0.221138 -0.07009,0.402504 -0.210717,0.543277 -0.140773,0.140838 -0.321462,0.210717 -0.5426,0.210717 h -1.417774 c -0.221138,0 -0.401827,-0.06996 -0.5426,-0.210717 -0.140681,-0.140773 -0.21138,-0.322139 -0.21138,-0.543277 0,-0.221139 0.07061,-0.401827 0.21138,-0.5426002 0.140786,-0.140721 0.321462,-0.210717 0.5426,-0.210717 z" />
    <path
       style="font-size:13.3333px;line-height:1.25;font-family:Arial;-inkscape-font-specification:'Arial, Normal';letter-spacing:0px;word-spacing:0px;white-space:pre;fill:#ed1c27;fill-opacity:1;stroke-width:0.236004;stroke-linecap:round;stroke-linejoin:round"
       d="M 92.06572,4.5736268 V 16.103228 h 5.669286 V 10.8266 h 2.26163 V 6.3025718 h -2.26163 v -1.728945 z"
       id="path2295" />
    <path
       style="font-size:13.3333px;line-height:1.25;font-family:Arial;-inkscape-font-specification:'Arial, Normal';letter-spacing:0px;word-spacing:0px;white-space:pre;fill:#ed1c27;fill-opacity:1;stroke-width:0.236004;stroke-linecap:round;stroke-linejoin:round"
       d="m 76.565339,4.5736268 v 0.914699 h 13.570535 v -0.914699 z"
       id="path2297" />
    <path
       id="path2299"
       style="font-size:13.3333px;line-height:1.25;font-family:Arial;-inkscape-font-specification:'Arial, Normal';letter-spacing:0px;word-spacing:0px;white-space:pre;fill:#ed1c27;fill-opacity:1;stroke-width:0.236004;stroke-linecap:round;stroke-linejoin:round"
       d="M 51.867696,4.5735618 V 10.977079 H 72.34387 V 4.5735618 Z m 5.639425,1.36728 h 9.197323 v 1.116167 h -9.197323 z" />
    <path
       id="path2301"
       style="font-size:13.3333px;line-height:1.25;font-family:Arial;-inkscape-font-specification:'Arial, Normal';letter-spacing:0px;word-spacing:0px;white-space:pre;fill:#ffffff;fill-opacity:1;stroke-width:0.130729;stroke-linecap:round;stroke-linejoin:round"
       d="m 51.867761,3.9199428 v 0.653684 h 20.476434 v -0.653684 z m 24.697578,0 v 0.653684 h 13.570535 v -0.653684 z m 15.500381,0 v 0.653684 h 5.669286 v -0.653684 z" />
    <path
       id="path2303"
       style="font-size:13.3333px;line-height:1.25;font-family:Arial;-inkscape-font-specification:'Arial, Normal';letter-spacing:0px;word-spacing:0px;white-space:pre;fill:#ffffff;fill-opacity:1;stroke-width:0.196835;stroke-linecap:round;stroke-linejoin:round"
       d="m 51.867761,18.947765 v 0.653683 h 20.476434 v -0.653683 z m 25.301029,0 v 0.653683 H 97.735006 V 18.947765 H 82.838087 v 0 z"
       sodipodi:nodetypes="cccccccccccc" />
    <path
       id="polygon2453"
       style="fill:#ed1c27;stroke-width:5.06384"
       d="M 15.68085,6.6971688 14.543815,10.196483 H 10.86475 l 2.976229,2.162336 -1.137035,3.499314 2.976906,-2.163 2.976242,2.163 -1.137048,-3.499314 2.976906,-2.162336 h -3.679051 z" />
    <g
       id="g1714"
       transform="matrix(6.9337524,-10.400629,10.400629,6.9337524,-2292.1091,877.45323)" />
    <g
       id="g1716"
       transform="matrix(6.9337524,-10.400629,10.400629,6.9337524,-2292.1091,877.45323)" />
  </g>
</svg>
