<?xml version="1.0" encoding="UTF-8" standalone="no"?>
<!-- Created with Inkscape (http://www.inkscape.org/) -->

<svg
   width="459.91101"
   height="88.902"
   viewBox="0 0 121.68478 23.521988"
   version="1.1"
   id="svg5"
   inkscape:version="1.1.1 (3bf5ae0d25, 2021-09-20)"
   sodipodi:docname="South_korea_grafic.svg"
   xmlns:inkscape="http://www.inkscape.org/namespaces/inkscape"
   xmlns:sodipodi="http://sodipodi.sourceforge.net/DTD/sodipodi-0.dtd"
   xmlns="http://www.w3.org/2000/svg"
   xmlns:svg="http://www.w3.org/2000/svg">
  <sodipodi:namedview
     id="namedview7"
     pagecolor="#505050"
     bordercolor="#eeeeee"
     borderopacity="1"
     inkscape:pageshadow="0"
     inkscape:pageopacity="0"
     inkscape:pagecheckerboard="true"
     inkscape:document-units="mm"
     showgrid="false"
     inkscape:zoom="1.5287037"
     inkscape:cx="153.39794"
     inkscape:cy="-53.313144"
     inkscape:window-width="1920"
     inkscape:window-height="1017"
     inkscape:window-x="1352"
     inkscape:window-y="-8"
     inkscape:window-maximized="1"
     inkscape:current-layer="layer1"
     inkscape:snap-bbox="true"
     inkscape:snap-bbox-edge-midpoints="true"
     inkscape:snap-bbox-midpoints="true"
     inkscape:bbox-nodes="true"
     inkscape:snap-midpoints="true"
     inkscape:snap-smooth-nodes="true"
     inkscape:snap-intersection-paths="true"
     inkscape:object-paths="true"
     units="px" />
  <defs
     id="defs2" />
  <g
     inkscape:label="Layer 1"
     inkscape:groupmode="layer"
     id="layer1">
    <g
       id="g1714"
       transform="matrix(6.9337524,-10.400629,10.400629,6.9337524,-2292.1091,877.45323)" />
    <g
       id="g1716"
       transform="matrix(6.9337524,-10.400629,10.400629,6.9337524,-2292.1091,877.45323)" />
    <g
       aria-label="대한민국"
       transform="matrix(0.56543458,0,0,0.56543458,1112.3867,-237.03021)"
       id="g1751"
       style="font-size:53.3333px;line-height:1.25;font-family:Arial;-inkscape-font-specification:'Arial, Normal';letter-spacing:0px;word-spacing:0px;white-space:pre;shape-inside:url(#rect94825);fill:#ffffff">
      <path
         d="m -1894.8267,420.26666 h 9.4933 v 40.53331 h -9.4933 v -16.53332 h -1.6533 v 15.99999 h -9.4933 v -39.99998 h 9.4933 v 15.99999 h 1.6533 z m -20,8.53333 v 21.86665 h 6.9334 v 8 h -59.4195 v -37.86665 h 58.4061 v 8 z"
         style="font-family:'Black Han Sans';-inkscape-font-specification:'Black Han Sans'"
         id="path1743"
         sodipodi:nodetypes="cccccccccccccccccccccc" />
      <path
         d="M -1861.9201,422.39999 V 419.2 h -10.0267 v 3.19999 h -6.9866 v 6.50667 h 24 v -6.50667 z m 20.4266,-2.13333 h -10.0266 v 27.41332 h 10.0266 v -9.33333 h 4 v -7.99999 h -4 z m -27.9466,9.6 q -4.0533,0 -6.5067,2.18666 -2.4533,2.18667 -2.4533,5.81333 0,3.62667 2.4533,5.81333 2.4534,2.18667 6.5067,2.18667 h 5.0133 q 4.0534,0 6.5067,-2.18667 2.4533,-2.18666 2.4533,-5.81333 0,-3.62666 -2.4533,-5.81333 -2.4533,-2.18666 -6.5067,-2.18666 z m 1.28,9.27999 q -0.5867,0 -0.96,-0.37333 -0.3733,-0.37334 -0.3733,-0.96 0,-0.58667 0.3733,-0.96 0.3733,-0.37333 0.96,-0.37333 h 2.5067 q 0.5866,0 0.96,0.37333 0.3733,0.37333 0.3733,0.96 0,0.58666 -0.3733,0.96 -0.3734,0.37333 -0.96,0.37333 z m -9.7067,8.53333 v 13.11999 l 36.3733,-0.0533 v -7.46666 h -26.3466 v -5.6 z"
         style="font-family:'Black Han Sans';-inkscape-font-specification:'Black Han Sans'"
         id="path1745" />
      <path
         d="m -1796.8535,420.26666 h -10.0266 v 27.41332 h 10.0266 z m -37.44,24.47999 h 23.7867 v -24.05332 h -23.7867 z m 10.0267,-8 v -7.99999 h 3.7333 v 7.99999 z m -8.96,10.4 v 13.65332 l 36.3733,-0.0533 v -8 h -26.3466 v -5.59999 z"
         style="font-family:'Black Han Sans';-inkscape-font-specification:'Black Han Sans'"
         id="path1747" />
      <path
         d="m -1763.1469,428.85332 v 4.90667 h 9.44 l 0.5333,-12.90666 h -36.2133 v 7.99999 z m 11.04,7.46667 h -38.3467 v 7.94666 h 14.1334 v 3.46666 h -13.0667 v 8 h 26.24 v 5.06666 h 9.9733 v -13.06666 h -13.12 v -3.46666 h 14.1867 z"
         style="font-family:'Black Han Sans';-inkscape-font-specification:'Black Han Sans'"
         id="path1749" />
    </g>
    <g
       id="g1777"
       transform="matrix(0.40660633,0,0,0.40660633,17.69599,11.610213)"
       style="display:inline">
      <path
         d="M -36,-24 H 36 V 24 H -36 Z"
         fill="#ffffff"
         id="path1753" />
      <g
         transform="rotate(-56.309933)"
         id="g1769">
        <!--arctan(-3/2)-->
        <g
           id="g1759">
          <path
             id="path1755"
             d="M -6,-26 H 6 v 2 H -6 Z m 0,3 H 6 v 2 H -6 Z m 0,3 H 6 v 2 H -6 Z" />
          <path
             id="use1757"
             d="M -6,18 H 6 v 2 H -6 Z m 0,3 H 6 v 2 H -6 Z m 0,3 H 6 v 2 H -6 Z" />
        </g>
        <path
           stroke="#ffffff"
           d="M 0,17 V 27"
           id="path1761" />
        <path
           fill="#cd2e3a"
           d="M 0,-12 A 12,12 0 0 1 0,12 Z"
           id="path1763" />
        <path
           fill="#0047a0"
           d="M 0,-12 A 12,12 0 0 0 0,12 6,6 0 0 0 0,0 Z"
           id="path1765" />
        <path
           id="circle1767"
           style="fill:#cd2e3a"
           d="m 6,-6 a 6,6 0 0 1 -6,6 6,6 0 0 1 -6,-6 6,6 0 0 1 6,-6 6,6 0 0 1 6,6 z" />
      </g>
      <g
         transform="rotate(-123.69007)"
         id="g1775">
        <g
           id="use1771">
          <path
             id="path1783"
             d="M -6,-26 H 6 v 2 H -6 Z m 0,3 H 6 v 2 H -6 Z m 0,3 H 6 v 2 H -6 Z" />
          <path
             id="use1785"
             d="M -6,18 H 6 v 2 H -6 Z m 0,3 H 6 v 2 H -6 Z m 0,3 H 6 v 2 H -6 Z" />
        </g>
        <path
           stroke="#ffffff"
           d="m 0,-23.5 v 3 M 0,17 v 3.5 m 0,3 v 3"
           id="path1773" />
      </g>
    </g>
  </g>
</svg>
