<?xml version="1.0" encoding="UTF-8"?>
<!-- Created with Inkscape (http://www.inkscape.org/) -->
<svg width="1920" height="1080" version="1.1" viewBox="0 0 508 285.75" xmlns="http://www.w3.org/2000/svg" xmlns:xlink="http://www.w3.org/1999/xlink">
 <defs>
  <clipPath id="clipPath27364">
   <path d="m1335 570c-1.8313 0.0276-3.8306 0.23702-5.9961 0.63477-8.6621 1.591-11.315 4.7742-16.795 6.3652s-6.5407 4.5954-8.6621 7.7773c-0.9952 1.4928-2.5799 2.6845-4.1582 4.0293 0.6441 0.59233 1.656 1.4089 1.959 1.5644 1.0707 0.54947 3.3245 1.4432 3.3379 2.873l-0.3321 0.42774-0.539-0.0332c-1.0869-1.1629-4.4461-1.9783-6.1426-3.2402-1.1377 1.164-2.1569 2.5148-2.7871 4.2793-0.2854 0.79917-0.6153 1.4218-0.9688 1.9297 0.2647 1.5547 1.343 1.2163 2.5938 1.8848l0.207 0.48828-0.1289 0.55078-0.4121 0.36523-0.1289 0.55079c0.263 0.24151 0.5009 0.51773 0.6894 0.82421l-0.1523 0.58204c0.1032 0.33108 0.2686 0.64377 0.4863 0.91601-0.081 0.81358-0.8411 1.4418-0.7402 2.291 0.081 0.71376 1.5053 1.6618 1.7578 3.1777-0.1092 0.10394-0.2112 0.21826-0.334 0.3086-0.6814 0.51507-3.3527-0.67653-3.8965-0.0625-0.1209 0.13984-0.2251 0.307-0.334 0.45898 0.1217 1.4844 1.4899 2.3424 2.1387 3.543 0.9597 1.7738-0.1198 2.9171 1.2246 4.1582 1.1861 1.0974 3.0716 0.48078 3.7442 1.0703 0.263 0.23207 0.3194 0.6236 0.582 0.85547 1.0196 0.88109 2.6539 0.0712 3.0547 0.21485 0.9093 0.33108 0.5257 2.2085 0.1992 2.8105-0.2559 0.48095-0.7422 0.78922-1.1211 1.1621-0.8246 0.10507-1.9506 0.35839-2.625 0.85547l-0.2285 0.64063c0.7369 1.1927 3.0402 0.35571 4.0508 0.30468 0.2309-8e-3 0.4596 0.0608 0.6875 0.0918l0.3847 0.36914 0.1289 0.54883c0.282 0.19389 0.4912 0.552 0.5547 0.88672l-0.2812 0.51953 0.3828 0.36719c0.4798-4e-3 1.2643 0.2092 1.7324 0.36718 0.3715 0.12246 0.6403 0.4682 0.9942 0.58204 1.1783 0.37568 2.3628-1.4975 3.5918-1.3145l0.3828 0.39649 0.1035 0.51953c-0.2298 0.25738-0.422 0.57419-0.5117 0.91601l0.1797 0.49024c0.742 0.29782 1.6203 1.1987 1.8066 1.9863-0.1217 0.27174-0.5313 0.62248-0.8398 0.64062-1.3239 0.0809-1.7889-1.5388-2.7247-2.0156l-0.4609 0.27343-0.2812 0.55079c-2.2558 0.85186-0.582 5.5354-3.4629 6.1113-1.5294-0.76218-0.5971-2.4811-0.6153-3.2695 0-0.18784-0.082-0.37019-0.1289-0.55078l-0.5137-0.18359c-0.4999 0.50003-1.0397 1.0318-1.7558 1.1914-0.6584-0.34393-0.6092-0.76704-1.0449-1.1914-0.2181-0.21695-2.0038-0.56674-2.6231-1.0684-1.1861 0.16592-0.9935 1.0447-1.6816 1.252-0.3772-0.12019-0.7381-0.29872-1.043-0.55078l-0.5371 0.15234-0.2559 0.55078c0.1924 0.83267 0.7518 1.1476 1.4278 1.5606 0.2181 0.60892 0 1.3219-0.1309 1.9238l0.1797 0.48828 0.5137 0.18555c0.6966-0.31068 1.272-0.54897 1.9336-0.94922 0.74 0.034 1.024 0.31917 1.25 0.94922-0.6271 1.9365-2.3105 1.2962-3.5664 2.2617-0.5323 0.40822-0.8518 1.2662-1.0957 1.873-0.1735 0.4376-0.4791 0.87428-0.3262 1.3652l0.459 0.30468c0.3269-0.15382 0.6925-0.21102 1.0195-0.36523 0.621-0.29065 1.2098-0.95714 1.9629-0.73437l0.2812 0.42968v0.60938c-1.0887 0.94768-2.8997 2.2669-0.8418 3.332l0.5821-0.12109c0.5252-0.12548 1.059-0.21709 1.5039-0.55079 0.7541-0.56757 1.0866-1.4984 1.7285-2.168 0.3772-0.39111 0.8394-0.6944 1.1992-1.1016 0.4428-0.49905 0.6069-1.2136 1.2949-1.4551 0.3402-0.11829 0.3978-0.0339 0.7247 0.0508 0.9527 0.21845 1.3807-0.60472 2.0019-1.1309l0.2578 0.18359c-0.06 0.88006-0.1887 1.5056 0.078 2.3828 0.6544 0.14249 1.3345 9e-3 1.9883 0.1543 1.6941-0.61803 1.7544-1.6856 3.7949-1.9551l0.062 0.45703-0.3339 0.45899c0 1.1658 0.5891 1.7342-0.061 2.8105-1.4661 0.66739-2.1384-0.29208-3.1055 0.0606-0.7066 0.25814-1.0307 1.1316-1.6308 1.375-1.343 0.54535-3.3461-0.7373-3.4121 1.5918 0 0.38192 0.1421 0.74431 0.1289 1.127 0 0.65938-0.3711 1.2654-0.3848 1.9277l0.4863 0.33593c0.384-0.0907 0.7778-0.12493 1.1719-0.12304l0.1289 0.55078-0.6875 0.88476c-0.8014 0.18558-1.5854 0.92618-2.3437 1.2852l-0.1016 0.57812 0.2813 0.42969c0.6341 0.26532 1.3438 0.24639 1.9863 0.48828 0.9366 0.35339 1.0969 0.89567 2.2285 0.95508 2.0182 0.10583 1.5813-2.0465 2.6856-2.6973l0.2832 0.42968c-0.2177 0.60892-0.1165 1.2633-0.1289 1.8945l0.4082 0.24414c1.2477 8e-3 1.2973-1.4091 1.6816-2.2637 0.1859-0.42364 0.3772-0.78648 0.4609-1.25 0.1867-1.0588-0.3896-3.5968 1.2989-3.5762l0.3847 0.36719c0.2102 0.83467-0.5465 1.7297-0.4629 2.5664 0.1924 1.9224 0.391 2.0314 0.918 3.7285 0.5767 0.29065 1.2906 0.28655 1.7852 0.73242 0.1031 0.37807 0.1402 0.77026 0.1289 1.1602l-0.2325 0.37109c-0.8034 0.14362-1.9687-0.88247-3.3085-0.55078l-0.2051 0.51953c0.3273 0.16555 0.6274 0.39199 0.8652 0.67383v0.60938c-0.4104 0.13001-0.8334 0.0529-1.25 0.0352-0.4104-0.0189-0.77 0.0905-1.1719 0.1211-0.627 0.0499-2.21-0.3956-2.9023-0.55079l-0.5117 0.18555c0.06 0.41125 0.276 1.1868 0.5898 1.4668 0.6896 0.61999 2.8265 2.073 3.2324 2.7812 0.3648 0.64112 0.5344 1.2216 1.1485 1.7402 0.4798 0.40611 1.7804 1.107 2.4433 1.5586 0.2053 0.85697 1.0587 1.7615 2.0118 1.5605 0.3586-0.0809 0.6138-0.36975 0.9687-0.45898 0.4164-0.10847 0.8521 0.0522 1.2734-0.0332 0.3527-0.0707 0.6443-0.31261 0.9942-0.39844 1.1804-0.29065 1.3038-0.32052 2.0351-1.3438-0.1031-0.33298-0.32-0.6095-0.4863-0.91602-0.4163-0.78327-0.6213-2.0948-0.1035-2.873 0.1988-0.29292 0.5136-0.49351 0.7656-0.73438 0.4031-0.0907 0.8126-0.12456 1.2227-0.12305 0.8226 1.135 2.364 0.12326 2.8769-0.76171l0.584-0.0918 0.459 0.30664c0.1032 1.8268-2.7602 2.7294-4.125 2.0156l-0.4609 0.27539c0.2369 0.3035 0.5687 0.44503 0.8398 0.70313 0.7239 0.6946-0.5968 2.0904 0.332 3.9414l-0.125 0.58203c-0.7863 0.47285-1.5833 0.82944-2.4492 1.1309-0.5 0.17461-1.0402 0.27185-1.5 0.55078-0.4678 0.28195-0.7791 0.77004-1.2754 1.0078-1.0426 0.49911-3.1023 0.5713-3.8125 0.84961 3.514 1.363 10.075 3.4408 15.609 3.6191 7.75 0.25002 7.625 2 9.5 4.25 1.875 2.25 0.5002 7.25 0.75 10 0.25 2.75 2.125 6 3.875 6.5s5.25 2.5 6 3.5 4.125 6.75 5.25 8 5.125 4.625 7.5 8.375c2.375 3.75 1.75 3.875 2.375 6.875s1.125 5 3.5 8.375 8.25 5.25 10.375 6.125 4.375 4.5 5.25 7c0.8749 2.5 0.7502 4.5 1 8.125 0.25 3.625 1.25 4.625 3 8.625 1.75 4 3.125 9.625 3.625 13.375s-1 6-1.75 8c-0.75 2-2 7.125-3.625 9.875-1.625 2.75-2.0001 5.875-2.375 8-0.375 2.125-3.125 6.75-4.875 9.5-1.75 2.75-5.2327 8.9754-7.2656 10.566-2.0329 1.5911-3.2712 3e-4 -6.0996 0.26562-2.8284 0.26517-6.7172 8.8391-7.6895 11.402-0.9723 2.5633 0.2658 4.4193 0.6192 6.2754 0.3535 1.8562 2.2972 5.2141 3.2695 7.4238 0.9722 2.2097 0.8851 2.9183 1.1504 4.5977 0.2649 1.6794 0.1758 3.6244 0.1758 5.127 0 1.5026 0.5299 4.1525 0.7949 6.8926 0.2652 2.74 1.7679 4.9506 2.0332 6.0996 0.2651 1.149-1.0601 5.3035-1.502 7.248-0.442 1.9445 0 6.0111 0 6.8066 0 0.26299 0.2133 1.3635 0.4688 2.6387 0.1044-0.023 0.2086-0.0426 0.3066-0.0996 0.5899-1.2199-0.1029-2.5648 0.461-3.791 0.3076-0.67241 1.1182-0.84477 1.5781-1.375l0.5644-0.0898 0.4082 0.24414c-0.1598 1.362-0.5569 2.3007-0.1289 3.6973 0.3077 0.99602 1.48 1.7369 1.3008 2.8418-0.3903 0.4506-0.5834 1.0731-0.6641 1.6524l0.3594 0.36719c0.3402 0.0907 0.6749 0.1894 1.0196 0.24609l0.3339-0.15625c0.1338 0.31672 0.1782 0.69617 0.3829 0.98047 0.1031 0.13946 0.2563 0.22432 0.3535 0.36719 0.2872 0.41038 0.2304 1.1104 0.4101 1.5879 0.384 1.0229 2.605 1.6361 1.9102 3.0566-0.3402 0.68957-1.7574 1.8455-2.0879 2.5078-0.2298 0.46571-0.5325 2.1105-0.5567 2.6582 0 0.59074 0.1323 1.1801 0.059 1.7695-0.116 0.78237-0.4987 1.7084-0.059 2.4746 0.7693 0.0907 1.3724 0.6963 1.7305 1.3477l0.4356 0.0898c1.2559-0.88822 3.1419 1.0955 3.9726 1.8027 0.2245 0.19049 0.4879 0.33614 0.6895 0.55078l0.5097-0.21484c0.1796-0.8922-0.1-1.4982-0.1523-2.3516 0-0.41034 0.082-0.81438 0.082-1.2246 0-0.48185-0.283-0.90501-0.3593-1.375l0.3593-0.18554c-0.9102-0.76615-1.0061-1.829-1.2226-2.9004l0.1797-0.48829 0.582 0.15235c0.2177-0.33033 0.4492-0.65094 0.6094-1.0098 0.3137-0.68662 0.6827-3.205 1.832-2.9336 0.3137 0.0703 0.4109 0.26356 0.6348 0.45703 0.2751 0.24151 0.6144 0.39835 0.8906 0.64258 0.5505 0.48389 1.0837 1.1098 1.8594 1.1914 0.6977 0.0707 1.316-0.33534 1.9765-0.47851 0.8659-0.1886 1.5021-0.17776 2.0215-1.0195-0.06-0.26986 0.3958-1.6416 0.3574-2.2305-0.1031-1.4833-0.299-2.0046 0.5645-3.3613 0.3076-0.47883 0.7721-0.87697 0.9414-1.4356 0.2869-0.9547 0.4477-4.0311 0.3769-5.0723l-0.5546 0.0918c-0.2495 0.2453-0.4624 0.54995-0.7657 0.73243-1.1242 0.66935-2.3243-0.68685-3.5898-0.61133-0.6089 0.034-0.9829 0.29072-1.4277 0.64062-0.276 0.21581-0.6336 0.30738-0.8907 0.55078-0.1417 0.13569-0.2305 0.30888-0.3593 0.45704-1.2074 1.4437-2.3406 1.6992-4.1504 1.2246-0.3587-0.40823-0.2539-1.0275-0.6114-1.4375-0.4798-0.55658-1.2488-0.77598-1.7324-1.3457-0.627-0.73587-0.6259-1.5628-1.1445-2.3516-0.1924-0.29518-0.5022-0.48836-0.7149-0.76562-0.218-0.27591-0.3436-0.61157-0.5547-0.88672-0.1734-0.21166-0.5571-0.557-0.6347-0.79493-0.091-0.27855 0.08-0.91503 0.059-1.2539-0.06-0.79344-1.0561-0.96784-0.6602-1.9531 0 0 1.9907-2.4263 2.0899-2.5059l0.6308-0.0351 0.4356 0.36914c0.1032 0.53635 0.1037 1.1049 0.3086 1.6191 0.1285 0.3239 0.3773 0.56407 0.5566 0.85547 0.7884 1.2617 1.6245 1.6222 3.0566 1.2441 0.2873-0.0809 0.6153-0.0929 0.8672-0.26563 0.7188-0.48699 1.1894-1.3129 2.0118-1.709 0.9727-0.46779 2.6218-0.89792 2.9785-2.0801 0.4488-1.4867-0.6162-2.0093-0.3282-4.0039l0.4551-0.30468 0.6348 0.24414c0.6148 0.8801 0.5454 1.9837 1.1973 2.873 0.9104-0.0707 1.6605-0.66593 2.5468-0.82421 0.9357-0.16593 2.2236 0.41992 3.3379 0.36523 0.9941 0.58379 0.6737 0.93627 1.2715 1.6523h0.3574l0.3106-0.51953c1.1465-0.41991 1.4863 0.25517 2.3437 0.51172-0.017 6.7e-4 -0.034 2e-3 -0.047-2e-3l0.3575 0.0898c-0.099-0.01-0.168-0.0479-0.2481-0.0762 0.7676 0.17604 1.9606 0.0157 2.6348-0.33984 0.3137-0.16139 0.5331-0.44 0.8164-0.64258 0.4798-0.34394 0.9068-0.30375 1.3457-0.79297 0.4999-0.55552 1.1074-2.2767 1.1484-3.0254 0.06-0.96677-0.5427-1.8406-0.459-2.8106l0.5118-0.15625c1.5114 1.2891 1.0392 3.327 1.9863 4.0957 1.0614-0.57264 0.8133-1.3063 2.1641-1.4961l0.4628 0.30469 0.1 0.55078 0.4589 0.36719 0.5586-0.1211c0.1796-0.27968 0.5569-0.49534 0.8926-0.51953 0.3141 0.16517 0.5947 0.39151 0.8145 0.67188l0.4609-0.0332c0.2873-0.84279 0.1923-2.7349-0.1543-3.5449-0.4798-0.28308-0.8694-0.69626-1.3496-0.97851l-0.059-0.45703c1.1017-0.67144 1.4402 0.25806 2.4668-0.6211 1.0061-0.85992 0.7737-1.1768 1.25-2.252 0.1535-0.34545 1.3247-2.3632 1.5781-2.4141 0.1531-0.034 0.3079-0.0332 0.4551-0.0332 0.1856 0.2143 0.4168 0.72171 0.3848 1.0078-0.081 0.6311-1.8092 3.5011-2.0879 4.4902 0.1859 0.29783 0.4093 0.57811 0.6601 0.82813 0.2102 1.0317-0.3696 2.0259-0.1523 3.1152 0.1032 0.51919 0.4938 0.91408 0.6621 1.4062-0.2298 1.1198-1.2059 2.6662-1.2207 2.7812-0.081 0.61901 0.3761 0.99508 0.6602 1.4356 1.4344 2.2351 3.5112 0.85688 5.373 1.6191l0.25 0.42968c-0.06 0.43771-0.1643 0.90211-0.4277 1.2539 0.091 0.70976 1.273 1.4483 1.7558 1.9531l0.5371-0.0898c0.3903-0.35716 0.7969-0.69554 1.1719-1.0684 1.2644-0.0601 1.5362 0.9158 2.9785 0.24414 0.4608 0.0601 0.9105 0.18903 1.3242 0.39649 1.0889-2.2784-0.7941-4.2654 2.0899-4.7676 0.3903-0.0707 3.0031 0.23736 3.2324 0.45703 1.051 1-0.1715 2.6793 1.6328 3.2383 3.0657-1.0946 2.1188-2.3139 3.2832-4.4004 0.1792-0.3205 0.3147-0.67503 0.6348-0.88672 0.8186 0.32164 1.9976 1.4839 2.0117 2.416-0.1924 0.31861-0.3582 0.65613-0.4863 1.0078 0.2237 0.2812 0.4989 0.5238 0.8144 0.70117l0.062 0.45899c-0.2868 0.19237-0.5658 0.42618-0.8945 0.54883-0.5383 0.20144-1.7519 0.15277-2.1387 0.45703-0.3772 0.29669-0.3889 1.1662-0.1777 1.5605 0.2559 0.47086 2.0851 1.3967 2.6211 1.4062 0.1531 0 0.3083-0.0507 0.4609-0.0351 0.4104 0.0601 0.7463 0.30494 1.2246 0.33593 0.5765 0.034 1.0837-0.34574 1.6543-0.24218 0.8177 0.1474 1.7148 0.69407 2.5743 0.60937l0.375 0.36719-0.2793 0.52148c-0.7713 0.1115-1.6398-0.28447-2.293 0.30664l-0.1035 0.42579c0.2751 0.20674 0.8631 1.179 0.9922 1.2226 0.5766 0.19881 2.2355 0.0913 2.7793-0.12109 0.3269-0.12321 0.5876-0.36953 0.9394-0.42774 0.7269-0.79449 0.557-1.2468 0.8906-2.1387 0.07-0.17537 0.2255-0.30697 0.334-0.45898 0.2298-0.34167 0.3638-0.74694 0.5098-1.1309 0.4548-1.225 0.5077-1.547-0.459-2.5059l-0.2832-0.0586c0 0.21997 0.062 0.92319-0.059 1.0996-0.4931 0.8761-1.3913 1.4294-2.1387 0.45899 0.1338-1.1153 0.7837-3.808 0.7383-4.6465 0-0.3617-0.2313-0.67845-0.2558-1.0391-0.06-0.76414 0.7295-1.7979 0.6621-2.2324-0.8953-1.0107-2.3495-0.39007-2.3418-2.1992 0.1734-0.26305 0.4919-0.46613 0.8125-0.48828 0.397-0.034 0.756 0.21617 1.1484 0.24414 0.333 0.034 3.8483-0.84847 4.2774-1.0078 0.3261-0.1217 0.6042-0.33795 0.8925-0.52149 0.06-0.80247 0.1159-1.8042-0.5312-2.4434-0.082-0.0907-0.4375-0.30576-0.4629-0.33789-0.4104-0.53019 0.8805-2.3286-1.0176-2.9941-1.9264 0.46368-1.2179 1.1135-2.0625 1.6172-1.4775 0.87821-3.972-0.35457-4.1777 2.1387-0.7883 0.68859-1.7184 1.53-2.8516 1.3477l-0.1289-0.48828c0.3141-0.1561 0.6227-0.33139 0.918-0.51953 0.2944-1.1562-0.4434-1.5029-0.3086-2.2637 0.3708-0.31937 0.7038-0.69224 1.1465-0.91406 0.4738-0.23773 1.0429-0.25252 1.5039-0.52344 0.153-0.0907 0.2697-0.22903 0.4355-0.30273 0.2812-0.12699 0.79-0.0798 1.1192-0.15234 0.7782-0.18482 1.6894-0.72959 2.3925-1.1016 0.4739-0.24869 1.028-0.2808 1.5039-0.52148 0.3205-0.16252 0.5966-0.43112 0.7891-0.73242l-0.2051-0.33789c-0.3522-0.17537-0.7004-0.37401-1.0195-0.61133l-0.1035-0.55078c0.1032-0.16933 0.1797-0.36412 0.3086-0.51953 0.2052-0.25663 0.7954-0.15475 1.0937-0.21485 0.7803-0.15458 1.3365-0.51864 2.1895-0.45703 0.621 0.0499 1.1976 0.46678 1.8086 0.36719 0.6794-0.11074 0.9166-0.54884 1.6816-0.27539 0.3903 0.83667 0.876 1.1397 1.7305 1.2539 0.3265-0.1833 0.6973-0.28774 1.0703-0.30664l0.5117 0.30664c0 0.36133-0.1343 0.72068-0.3086 1.0391l0.082 0.54687c0.3771 0.034 0.8627 0.24211 1.0957 0.55078-0.06 0.38835-0.081 0.77607-0.127 1.1621 0.116 0.12246 0.2231 0.2591 0.3516 0.36719 0.1791 0.14929 1.5707 0.23666 1.9101 0.30469 0.3844 0.0809 1.0145 0.3072 1.377 0.27734 0.1341-8e-3 0.2731-0.0345 0.4082-0.0625 0.1417-0.0431 0.6152-0.45599 0.7402-0.58008-0.6864-0.97787-1.7128-0.33972-1.9844-1.832l0.459-0.24609 0.2305-0.39649c-0.2102-0.3016-0.5644-0.44188-0.8164-0.70312-0.4608-0.48189-0.5647-1.2926-0.9942-1.832-0.4427-0.55752-1.1397-0.8637-1.5273-1.4668-0.4607-0.71577-0.1645-1.4866-0.3066-2.2617-0.06-0.34205-0.1804-0.67803-0.2832-1.0098-0.3587-1.1628-1.3717-1.4596-1.375-2.8125 0-1.0437 1.3547-2.805 1.7812-3.8496 0.2298-0.12548 0.8769-0.28564 1.1211-0.1836 1.0895 0.46084-0.102 2.3574 0.7656 3.1777-0.6613 1.1658-0.2231 1.1076 0.334 1.9551 0.3971 0.60888 0.198 1.7798-0.1289 2.3848l0.1035 0.54688 0.5117-0.21094c0.1535-0.34432 0.36-0.67 0.6094-0.94727l0.6094-0.0332c2.1335 1.3319 1.4907 2.6282 2.8262 3.7305l0.5136-0.18555 0.3321-0.42969c-0.1399-0.66228-0.3734-1.6327-0.2071-2.291l0.4571-0.24609c0.9082 0.14664 1.3449 0.43215 1.8086 1.2852-0.1089 1.1265-0.7007 2.3953-0.6875 3.3008l0.3574 0.39649c0.5192-0.26533 1.3332-1.1094 1.9609-0.82422 0.3455 0.15912 1.0305 1.8508 2.0899 0.82422 0.4292 0.0601 0.8638 0.0798 1.2968 0.0586 0.6775-0.59785 1.7774-0.21721 2.293-1.25l0.5117-0.18555 0.377 0.27539c0 1.7718 1.2943 0.80752-0.2559 2.7793v0.36719l0.5567-0.0898c0.1867-0.31371 0.4293-0.59831 0.7128-0.82618 0.7481-0.034 1.4438-0.34284 2.1387-0.54882 0.1285-0.0427 3.952-0.29284 4.127-0.27735 0.9878-0.68251 0.8041-2.1869 2.0117-2.627l-0.1797 0.18359 0.332-0.24414 0.3594 0.39649c0.06 0.99703-0.5386 2.07 0.6621 2.5976 0.1603-0.0503 0.3344-0.0802 0.4805-0.15234 0.5958-0.29518 0.9274-1.2163 1.4023-1.6797 0.9174-0.89416 1.687-1.9816 2.4434-3.0273l0.584 0.15429 0.2558 0.42969c-0.06 0.6361-0.7332 2.1507-0.584 2.627 0.2181 0.71373 0.6262 1.3259 0.5567 2.1094-0.07 0.85587-0.6935 1.5731-0.6875 2.4434 0 0.35943 0.2257 0.66104 0.2832 1.0078 0.1032 0.61081-0.2298 1.2333 0 1.834l0.5332 0.24218c0.1206-0.3911 0.3002-0.76508 0.5371-1.0996l0.5039-0.21289c0.2559 0.25134 0.5783 0.44588 0.9199 0.54883 0.1735-1.0489-0.1301-2.1605 0.2539-3.1777l0.4629-0.27539c1.3392 0.29064 0.7673 0.94352 1.2735 1.4961 0.6028-0.75307 0.4727-1.7707 0.8144-2.627 0.2427-0.609 2.138-3.3826 2.6485-3.791h0.5916l0.4609 0.36914c0.06 0.35868 0.1487 0.70756 0.2832 1.0391 0.7098 0.29065 1.7915-0.57718 2.6465 0.67188 0.4163 0.0903 0.8471 0.12197 1.2735 0.0898 0.5958-0.44364 1.1658-1.1722 0.8652-1.9531-0.8701-0.61898-1.736-1.0709-1.1719-2.293 0.9275-0.2366 1.3593-1.0029 2.0625-1.5918 1.0906 0.2914 1.8431 1.0257 3.0567 0.73438 1.7176-0.41167 2.2132-2.4166 2.9804-3.1172 0.5505-0.5051 1.2849-0.49688 1.7832-1.0703 0.5001-0.57861 0.1575-1.049 0.2286-1.6797 0.1088-1.0031 2.0616-0.99589 2.166-3.207-0.4294-0.81351-0.9612-0.7203-0.8926-1.8359 0.3658-0.28875 1.1153-0.43122 1.3516-0.82422 0.9496-1.5793 0.2804-3.4638 1.0429-4.2168 0.1659-0.16252 1.5586-1.0897 1.7598-1.1641 0.5252-0.19313 1.1024-0.13934 1.6289-0.33398 0.5504-0.69559 1.2516-2.3728 1.9375-2.8438 0.6432-0.44274 1.3924-0.31464 2.0098-0.70117 0.2056-0.1304 0.5959-0.82665 0.5898-1.0703-0.06-0.89726-1.2796-1.2212-1.3516-2.1992-0.06-0.64018 1.3051-1.5225 1.377-3.334 0.081-2.0922-2.0057-2.8243-1.3242-4.4277 1.225-0.20107 2.4063 0.21497 2.8769-1.3145 0.1531-0.48491-0.2812-3.3152-0.6328-3.8203-0.1599-0.22866-1.2261-0.63465-1.5527-0.91797-0.06-0.62097 0.3959-1.1535 0.3828-1.7734l0.459-0.27539c0.621 0.16933 1.0298 0.54597 1.5312 0.91602 1.8082 1.3318 0.7195 3.0567 1.3477 4.5859 0.1338 0.32806 0.4045 0.57125 0.5644 0.88476l0.6621 0.0586c0.4237-0.35566 1.0172-0.29582 1.5-0.51953 0-0.42664 0.2377-0.66225 0.3594-1.0391 0.2559-0.81362 0.1793-1.5592 0.5899-2.627 0.4426-1.1768 1.3392-2.1656 1.58-3.4219 0.1531-0.80851-0.062-1.6369 0.078-2.4473 0.1791-1.0872 0.9292-2.31 0.3593-3.666-0.6028-1.4308-1.1228-0.98859-0.9941-3.0273 0.1281-2.096 1.3785-3.5114 2.1387-5.377 0.3586-0.87712 0.4434-1.863 0.6347-2.7832 0.1418-0.67853 0.3923-1.3536 0.4629-2.0449 0.1161-1.209 0.1774-2.0691 0.459-3.2695 0.1531-0.65231 0.1217-1.3305 0.2559-1.9863 0.116-0.5746 0.3407-1.4433 0.664-1.9258 0.3141-0.46481 0.8229-0.82438 0.9922-1.377 0.1285-0.41851 7e-4 -0.85884 0.08-1.2832 0.1531-0.81868 0.8333-1.4666 1.1992-2.168 0.8307-1.5884-0.2633-1.967-0.4101-2.6602-0.101-0.43861 0.2367-0.77831 0.3769-1.1602 0.738-1.929-0.6343-2.1508-0.1738-3.5137 0.3005-0.89824 1.2257-1.5016 1.5801-2.4473 0.2558-0.67949 0.2544-1.4327 0.5312-2.1074 0.1735-0.41858 0.2872-0.85078 0.461-1.2539 0.2944-0.70076 1.0639-1.1191 1.3515-1.8633 0.1338-0.35717 0.1726-0.74511 0.2168-1.1211 0.333-2.419-4e-4 -3.3-0.7988-5.5312-0.1346-0.39348-0.1304-0.82608-0.3145-1.2031-0.2245-0.44788-0.5555-0.90205-0.8398-1.3125l-0.6074-0.21485-0.5371 0.15625c-0.3648 0.50608-0.5777 2.0429-1.045 2.291-0.2558 0.13569-0.5428 0.18576-0.7949 0.33203-1.0158 0.59683-1.5788 1.7304-2.3633 2.5703-0.5001 0.53322-1.0248 1.0347-1.5 1.5879-0.621 0.72284-1.0397 1.3958-1.9121 1.8672-0.6683 0.36057-2.5552-9e-3 -3.2578-0.27734-0.5504-0.20674-2.3762-1.522-2.7266-1.9844-0.3205-0.42572-0.6347-1.5136-0.6347-2.0488 0-0.27968 0.2486-1.8011 0.3574-2.0156 0.5696-1.1468 3.2699-1.3686 3.4902-3.3613 0.166-1.4654-0.9383-1.7399-1.6562-2.627-1.4386-1.7764-0.2992-4.4185-1.0684-5.9629-0.4548-0.90928-1.9324-1.3871-2.0156-2.4434-0.06-0.79442 0.9255-1.8064 0.9961-2.9648 0.116-1.9358-0.3277-4.8977-0.4356-6.9062 0-0.51927 0.06-1.0396 0-1.5586-0.06-0.38793-0.1288-0.77081-0.1035-1.1621 0.2499-3.9011 4.6064-6.005 4.9688-9.5957 0.2237-2.1982-0.3402-4.4018 0-6.6016 0.1988-1.267 1.3257-2.45 0.9922-3.8184-0.1659-0.66747-0.4918-1.3272-0.6602-2.0195-0.1735-0.70572-0.1549-1.4207-0.5137-2.0762-0.4223-0.77423-1.0228-1.3873-1.2226-2.291-0.1032-0.45381-0.2507-0.95621-0.3281-1.4082-0.081-0.46877 0.1096-0.95872 0.061-1.4355-0.1088-1.2342-0.5823-2.9138 0.1797-4.0645 0.3522-0.53635 0.6641-0.88784 0.9434-1.498 0.2626-0.56958 0.4094-1.2066 0.8398-1.6816 0.4164-0.45661 1.9994-1.3403 2.1133-1.5879 0.4354-0.9478 0.64-3.909 0.5312-4.9512-0.081-0.7945-0.2753-1.4773-0.205-2.291 0.07-0.87198 0.4808-1.7109 0.3593-2.5977-0.2101-1.5161-1.3044-2.9309-1.832-4.3418-0.5001-1.3355-0.9756-2.6805-1.4277-4.0332-0.166-0.49496-0.4549-0.95341-0.5567-1.4688-0.081-0.39428-0.1511-0.65624-0.2793-1.0371-0.3772-1.1306-0.2785-2.2389-0.3613-3.3926-0.081-1.1143-0.536-2.1429-0.6328-3.2109-0.1659-1.8249 0.1787-3.6281 0.08-5.4394-0.06-1.1422-0.4033-2.3926-0.1797-3.5137 0.3454-1.7263 1.6081-2.222 1.6054-3.209 0-0.7299-1.0227-1.7904-1.4921-2.3223-0.1924-0.21808-0.3144-0.49251-0.5196-0.69922-0.7117-0.7178-1.778-1.3639-2.1386-2.3867-0.2499-0.71573-0.1171-1.1792-0.5332-2.0449-0.4669-0.95671-1.3511-1.6326-1.836-2.5684-2.1838-4.2154 0.2198-5.376-0.459-8.1914-0.5635-2.3407-1.7575-3.4499-3.0058-5.3477-0.4799-0.7279-0.7381-1.5693-1.17-2.3223-3.3924-0.81963-2.6384-5.1993-4.5585-7.5781-0.081-0.0995-0.1911-0.16423-0.2872-0.24609-2.8993 2.0701-6.108 4.3708-7.4863 5.3105-3.8891 2.6516-9.3686 4.5948-14.318 4.0645-4.9497-0.53031-9.5461 0.35496-16.264 4.9512-6.7175 4.5962-10.254 2.1203-13.789 0.88281-3.5356-1.2374-6.1877-3.8878-12.728-3.7109-6.5407 0.17677-9.0151 6.3639-13.611 10.076-4.5962 3.7123-2.8294 8.6618-8.8399 11.49-6.0104 2.8284-5.1256-5.6e-4 -7.7773-3.7129-2.6516-3.7123-3.5359-8.6616-5.834-13.611-2.2981-4.9497-7.7768-3.8904-12.373-5.6582s-1.7685-4.9486-2.6524-10.959c-0.8839-6.0104-4.5965-10.961-6.1875-13.082-1.591-2.1213-8.6619-9.5457-10.783-11.137-2.1213-1.591-7.0713-9e-4 -16.971-0.53125-9.8995-0.53034-6.364-2.6512-8.6621-3.8887-2.2981-1.2374-5.8325-2.8288-9.8984-5.4805-4.0659-2.6517-3.1833-5.6568-6.3653-9.7226-2.3864-3.0495-6.3635-4.6063-11.857-4.5234zm-54.633 33.354c-0.3436 0.0865-1.625 0.77593-1.8848 1.0078-0.1126 0.10053-0.2364 0.30226-0.332 0.42578l0.2812 0.46094c0.7391 0.13493 2.0474-0.49602 2.5215-1.0703 0.073-0.15042 0.033-0.43407-0.027-0.58007zm4.2285 1.0078-0.5332 0.21484-0.2793 0.51953 0.3047 0.42578c0.067 0.34508 0.023 0.84116-0.1289 1.1621-0.7078 0.39066-0.6537 1.6654-0.8399 2.3516-0.055 0.20182-0.1571 0.41489-0.2304 0.61328-0.2801 0.7652-0.5167 1.4741-1.3477 1.8027l-0.2812 0.55078 0.1777 0.48828 0.6367-0.0312c0.5156-0.26192 0.518-0.82327 1.0957-1.252 0.7307-0.54164 1.6912-0.7178 2.4961-1.0996 0.3819-0.18104 1.054-0.64389 1.4746-0.67383 0.2181-0.0189 1.0295 0.14057 1.3008 0.18555l0.3301-0.42773-0.1035-0.55079 0.332-0.45898h0.6113c0.2843-0.19465 0.585-0.50046 0.7657-0.79492-0.074-0.19578-0.3131-0.86869-0.4082-1.0078-0.023-0.0302-0.3373-0.32184-0.3829-0.36719-0.4579-0.43933-0.8967-0.77055-1.5781-0.64258-0.4257 0.0801-0.4335 0.32048-1.0429 0.18555-0.6904-0.15371-1.6957-1.1874-2.3672-1.1934zm-5.1953 3.4824-0.2031 0.46094c0.2369 1.0232 0.2013 1.0957 0.8398 1.9531l0.457-0.27343c0.076-0.23849 0.3825-0.734 0.3829-0.73438 0.089-0.35565 0.1008-0.87214-0.025-1.2227-0.4741-0.0926-0.9686-0.15827-1.4512-0.18359zm-7.8457 2.5664v2e-3l-0.3301 0.45898c0 0.41549 0.3964 1.1172 0.6621 1.4356 0.1123 0.13531 0.2903 0.23339 0.4063 0.36719 0.1084 0.12586 0.175 0.29773 0.2812 0.42578 0.223 0.26797 0.5256 0.50631 0.7657 0.76562 0.7347 0.22791 1.064-0.25049 1.6796-0.18359 0.5859 0.43185 0.7403 1.1951 1.3496 1.6191l0.586 0.12305c1.173-0.69974 0.5951-2.0668-0.1035-2.873-0.2431-0.2812-0.5164-0.43719-0.6875-0.79492l-0.5352-0.42774c-0.9129-0.48253-1.4818 0.21485-2.3164 0.21485-0.7494 0-1.1466-0.79564-1.7578-1.1328zm4.2969 6.8359c-0.1505-8.7e-4 -0.2925 0.0236-0.4004 0.0742-0.5812 0.8603-0.05 1.8477 0.051 2.75 0.044 0.39504 0.026 0.76927 0.1289 1.1621l0.5859 0.1211c0.5049-0.20561 1.1319-0.21763 1.5547-0.58008 0.2158-0.26306 0.3227-0.80419 0.2539-1.1328-0.043-0.2022-0.5433-1.2334-0.6875-1.4062-0.2302-0.27742-0.5035-0.46646-0.6875-0.79297-0.1886-0.10999-0.5114-0.19343-0.7988-0.19532zm5.6289 12.65v4e-3c-0.039 7.9e-4 -0.078 4e-3 -0.1192 8e-3 -0.2464 0.034-0.5191 0.18405-0.7656 0.24414-0.1534 0.0393-0.3297 0.027-0.4844 0.0625-0.1795 0.0393-1.4024 0.47226-1.5273 0.54883-0.2449 0.15043-0.5758 0.62658-0.6875 0.88672-0.011 0.57691 0.2642 1.4799 0.2558 1.7109-0.019 0.44432-0.3157 0.76759-0.053 1.2539l0.3594 0.36524c0.3632-0.0514 0.7591-0.15464 1.0937-0.30469 0.302 0.17537 0.5975 0.3615 0.8907 0.55078l0.4843-0.0312c0.7387-0.73538 0.7785-2.8794 1.6036-3.3008 0.1364-0.29631 0.1152-0.61115 0.059-0.91797-0.1-0.54028-0.5183-1.0913-1.1094-1.0801zm6.0879 0.13672c-0.079 2e-3 -0.1619 0.0104-0.2481 0.0293-0.011 1.3245 1.9555 3.0146 1.7852 4.4023l-0.4082 0.36719-0.5606 0.0918-0.2812 0.55078c0.2642 0.2434 0.5217 0.49677 0.7656 0.76172l-0.1289 0.55078c-0.2752 0.20598-0.5535 0.50526-0.7383 0.79492l0.2031 0.48828 0.4571 0.33789c0.5156 0.14816 1.2606-0.0179 1.6054-0.45898 0.1119-0.14551 0.1455-0.39937 0.2539-0.55078 0.1792-0.24907 0.5587-0.50565 0.7872-0.73242 0.3352-0.10243 0.9326 0.0121 1.1992 0.24414l0.3808-0.21289 0.051-0.67188-0.2793-0.42969 0.074-0.39648c0.3205-0.0189 0.8017-0.18302 1.0469-0.39649l0.1367-0.42968c0.2238-0.70598-0.2327-1.1125-0.6972-1.5586-0.1127-0.10885-0.2545-0.27906-0.3809-0.36523-0.3322-0.22677-0.7687-0.32564-1.1191-0.51953-0.2518-0.13947-0.8418-0.49024-0.8418-0.49024-0.3884-0.22563-0.8028-0.3073-1.1973-0.49023-0.6532-0.30312-1.1039-0.93931-1.8672-0.91406zm-22.043 1.9434c-0.2748 8e-3 -0.5418 0.0829-0.7441 0.22461l-0.078 0.67188c0.039 0.0525 0.281 0.40413 0.3067 0.42968l0.9414 0.64063c0.1867 0.0858 0.4638 0.1235 0.664 0.18359 0.7001 0.20939 1.9178 0.68002 2.6211 0.33789 0.2332-0.11338 0.6398-0.60272 0.7657-0.82617l-0.3321-0.42773c-0.4891-0.14929-0.9391-0.11065-1.4258-0.1836-0.6041-0.0903-1.1758-0.38187-1.707-0.67187l-0.051-0.0918c-0.2453-0.20107-0.606-0.29807-0.959-0.28711zm-16.482 0.0117-0.4336 0.30469c-0.2476 0.5325-0.7496 2.774-0.6875 3.3301 0 0.0189 0.1865 0.44251 0.2031 0.48828 0.5921 0.0597 0.8407-0.49378 1.5273-0.36524 0.1512 0.3326 0.2961 0.6709 0.4336 1.0098 0.299 0.16403 0.6161 0.41392 0.8399 0.67187 0.5464 0.192 1.2656 0.17182 1.7558-0.15625 0.2695-0.17877 0.5394-0.51286 0.7911-0.73242 0.5509-1.125-0.7882-2.0584-1.6055-2.5352l-0.049-0.1836c-1.0243-0.58696-1.9412-0.1156-2.3692-1.5898zm46.172 3.2383-0.254 0.51758 0.1778 0.51953c0.3107 0.079 0.7531 0.34694 0.9414 0.61328l0.5625-0.0625 0.074-0.66992v-2e-3c-0.2362-0.32542-0.5463-0.55681-0.8125-0.85547zm-39.805 1.6191-0.5625 0.1211-0.2012 0.48828c0.5825 0.46155 0.8269 1.1071 1.0957 1.7734l0.5586 0.27539 0.3828-0.36524v-2e-3c0-1.0702-0.1412-1.8879-1.2714-2.291zm-16.225 2.7207-0.4083 0.36718-0.5351 0.0899-0.4063 0.36718-0.1289 0.58204c0.9501 0.21807 1.4475-0.10439 2.0391-0.79688l0.027-0.42578-0.1796-0.18359zm9.7265 0.94531c-0.2804 0.096-0.597 0.1458-0.8906 0.18359l-0.2793 0.51953c-0.06 0.30841 0.07 0.84902 0.3066 1.0703 0.504 0.0858 1.1579-0.11391 1.4532-0.55078l0.025-0.51954c-0.1439-0.24945-0.3709-0.53629-0.6093-0.70312zm13.881 0.49219-0.2539 0.0898-0.3301 0.46094 0.1758 0.48828 0.5859 0.24219c0.099 0.28837 0.4554 0.65439 0.7383 0.76562l0.459-0.27734c-0.011-0.0635-0.089-0.48522-0.1016-0.51953-0.099-0.23736-0.3463-0.52014-0.4922-0.74219-0.034-0.0559-0.042-0.0972-0.092-0.14258-0.026-0.0226-0.6168-0.32502-0.6894-0.36523zm31.328 0.0898-0.4336 0.36719c-0.1716 0.37417-0.2767 0.87278-0.2812 1.2832l0.4082 0.21484c0.2857-0.10431 0.6502-0.4342 0.7871-0.70507v-1.0059zm-27.227 0.55078c-0.2086 0.12246-0.75 0.0758-0.9687 0.0293l-0.1524 0.55078c0.1826 0.29253 0.3799 0.57666 0.586 0.85351l0.6875 0.0625 0.2812-0.51953c0.019-0.30576-0.1924-0.78528-0.4336-0.97656zm-20.877 6.9258c-0.1652 4e-3 -0.3226 0.0335-0.4649 0.10157l-0.3046 0.51953c0.311 0.14702 0.6585 0.42608 0.8652 0.70312l-0.1524 0.70313 0.4844 0.33593c0.6127 8e-3 1.071-0.52105 1.1446-1.0976-0.027-0.33714-0.1435-0.74305-0.3086-1.0391-0.3731-0.0831-0.8415-0.23715-1.2637-0.22657zm-7.5684 8.1406-0.5117 0.21289-0.1523 0.67383c0.1606 0.25738 0.6461 0.58669 0.9414 0.64062 0.01 0 1.2115-0.0237 1.25-0.0312 0.1602-0.0265 0.3788-0.12797 0.5351-0.18164l0.252-0.52148-0.2266-0.48633c-0.3239-0.12473-0.7482-0.20256-1.0957-0.18555-0.097 0.0884-0.3014 0.16494-0.4336 0.15625zm267.98 200.96c-0.069 1e-3 -0.133 6e-3 -0.1856 0.0176-0.2536 0.19426-0.6254 0.36881-0.9414 0.42773l-0.3554 0.45703-0.051 0.51953c0.1999 0.25739 0.3513 0.62568 0.5586 0.85547 0.116 0.12926 0.3158 0.20857 0.4336 0.33594 0.1168 0.12586 0.2016 0.32306 0.3086 0.46094 0.4884 0.63137 0.9813 1.004 1.6797 1.375 0.3632 0.192 0.7041 0.42188 1.1425 0.30664 0.2007-0.32126 0.2791-0.83177 0.1563-1.1934-0.047-0.13984-0.1874-0.29092-0.2539-0.42774-0.104-0.21543-0.1535-0.53857-0.2813-0.73242-0.1863-0.28233-0.4405-0.50894-0.5859-0.82812-0.2143-0.46753-0.2427-1.0493-0.7129-1.375-0.1965-0.13493-0.6108-0.2018-0.9102-0.19727zm-20.869 4.1426v4e-3c-0.2297 4e-3 -0.4925 0.0553-0.6757 0.0859-0.4001 0.0654-0.8269 0.24567-1.1543 0.48828-0.2094 0.25777-0.3276 0.80621-0.2539 1.1289 0.1364 0.29367 0.3733 0.60669 0.6113 0.82617 0.075 0.64645-0.2276 1.2477-0.1524 1.8945 0.1886 0.27326 0.518 0.55554 0.8145 0.70313 0.067 0.42538 0.321 0.60367 0.459 0.94726 0.063 0.16139 0.042 0.38607 0.1015 0.55078 0.088 0.24303 0.4228 0.64832 0.6133 0.82422l0.4571-0.0312c0.2528-0.90777 0.2377-1.9058 0.5351-2.7188 0.13-0.35452 0.3266-0.8365 0.5098-1.1621 0.1882-0.33411 0.4985-0.60154 0.6367-0.97851 0.1209-0.32996 0.2185-0.87646 0-1.1914l-0.4336-0.1543h0.051c-0.4805-0.28422-1.3709-1.0776-1.834-1.1914-0.081-0.0227-0.1801-0.0254-0.2852-0.0254zm-11.105 2.4531c-0.104-2e-3 -0.1914 3e-3 -0.2481 0.0195-0.023 4e-3 -0.4875 0.25007-0.5351 0.27539-0.044 0.0265-0.4123 0.22871-0.4336 0.2461-0.2551 0.2245-0.4789 0.66978-0.6133 0.97656-0.1591 0.36321-0.2324 0.6694-0.2773 1.0606-0.1834 1.6141 0.7675 1.7027 0.8125 2.6074-0.3043 0.14475-0.7626 0.20003-1.0938 0.1543-0.2347 0.29064-0.4894 0.60023-0.6875 0.91601-0.3632 0.58035-0.6252 1.5278-1.3496 1.7734-0.2211 0.0745-1.5171 0.10685-1.7832 0.0898-0.6344-0.0461-1.2442-0.23195-1.8848-0.0898-0.6304 0.72582-0.9934 1.15-0.8047 2.168 0.057 0.30123 0.1239 0.54755 0.3223 0.79492 0.1055 0.1319 0.2627 0.24171 0.3789 0.36719 0.1202 0.13001 0.227 0.31252 0.3574 0.42968 0.1293 0.1149 0.3415 0.18337 0.459 0.30469 0.2865 0.29518 0.5526 0.99158 0.8145 1.3438 0.3246 0.43586 0.845 0.62846 1.1445 1.0996l0.051 0.42969-0.457 0.27539c-0.3085 0.0533-0.9608-0.0531-1.2227-0.21484 0-3e-3 -0.6287-0.68222-0.7129-0.76563-0.4095-0.11943-0.9489-0.14784-1.3242-0.30469l-1.3496-1.0078-0.5352 0.0918c-0.3367 0.42448-0.9007 0.72686-1.4512 0.64258-0.5072-0.28876-0.6784-0.86411-1.248-1.0703l-0.6113 0.0293c-0.3515 0.19805-0.3738 0.54547-0.584 0.82617-0.019 0.0227-0.7611 0.68601-0.791 0.70313-0.5583 0.32504-1.5791 0.34679-2.0117 0.73242-0.1905 0.16932-0.3436 0.44003-0.5352 0.63086-0.039 0.0393-0.07 0.0551-0.1016 0.10351-0.2033 0.33449-0.5203 2.0928-0.5117 2.5078 0.011 0.57331 0.4219 2.0815 0.8164 2.5039 0.05 0.0552 0.093 0.0679 0.1524 0.11328 0.2725 0.19956 0.4445 0.45552 0.664 0.6211 0.3066 0.23093 0.684 0.34453 0.9922 0.61133 0.071 0.35565 0.1393 0.71299 0.2031 1.0703l0.4336 0.33594c0.7285-0.3326 0.7366-0.68772 1.1719-1.0703 0.2948-0.25965 0.9762-0.39239 1.043-0.85742 0 0 0.9007 0.12297 1.2734 0.0625 0.8736-0.14249 1.4792-0.95181 2.2168-1.3438l0.5078 0.18359 0.2559 0.45704c-0.1357 0.42107-0.2343 0.90124-0.2559 1.3438 0.1486 0.30765 0.3465 0.62056 0.5606 0.88671l-0.051 0.52149c-0.4104 0.39587-0.6436 1.1394-0.7891 1.6797-0.6185 0.80485-2.1896 0.51878-3.1074 0.88672l-0.2285 0.64062c0.019 0.5102 0.3384 1.0432 0.7129 1.377-0.058 0.31635 0.03 0.82703 0.2031 1.0996l0.5352-0.12304c0.294-0.57313 0.9044-0.73514 1.4589-0.94532l0.3223-0.12109c0.03-2e-3 0.5982 0.0815 0.6641 0.0898l0.3828 0.36719c-0.1421 0.3967-0.3165 0.78941-0.5117 1.1621-0.034 0.0673-0.296 0.51459-0.3047 0.54883-0.051 0.17235-0.06 1.005-0.051 1.2246 0.4236 0.1406 0.904 0.23866 1.3496 0.27344l0.2813 0.42968c-0.1837 0.3447-0.8584 0.84137-1.2246 0.97657-0.3334 0.12283-0.6968 0.11438-1.043 0.27539l-0.2539 0.61132 0.2812 0.45899 0.5078 0.18164c0.5091-0.2521 1.0472-0.22961 1.5801-0.36719 0.4236-0.10923 0.7185-0.37749 1.1113-0.51953l0.3418-0.12109c0.192-0.0302 0.418 0.0302 0.6094 0 0.3137-0.0518 0.7137-0.28512 0.8926-0.55078 0.011-0.37153 0.1548-0.84654 0.3555-1.1602 0.3507-0.0884 0.8124-0.13677 1.1718-0.0918 0.5557 0.0646 1.3486 0.44481 1.8594 0.0606l0.3047-0.51953c0.058-0.31143-0.023-0.83628-0.2031-1.1016-0.3557-0.44935-1.1804-0.46453-1.7051-0.42579-0.6797-0.34053-1.1227-0.99877-0.9922-1.7754 0.3617-0.60453 0.9616-1.1602 1.7051-1.1602 0.2018-0.13871 0.4072-0.42039 0.4941-0.64063l0.17-0.42773c0.099-0.52891-0.1785-1.1752-0.129-1.7422l0.4571-0.27539c0.7373 0.31068 1.2675 1.0021 2.0625 1.1621l0.4609-0.24609 0.5586 0.15429c0.075 0.30917 0.2553 0.67126 0.459 0.91602 0.395 0.0794 0.843 0.12128 1.2461 0.0918l0.1035-0.67187c-0.1882-0.33524-0.7188-1.0256-0.7402-1.377-0.039-0.55159 0.3376-1.1104-0.1016-1.7422-0.3867-0.10734-0.8005-0.27969-1.1445-0.48828-0.1867-0.20069-0.3645-0.63701-0.3301-0.91602l0.3555-0.42773c0.3681 0.39035 1.0164 0.43088 1.5019 0.27539 0.5922-0.90561-0.079-1.5393 0.3321-2.4766 0.011-0.0265 0.2976-0.38028 0.332-0.42579 0.5072-0.65635 0.9064-1.4294 0.789-2.293l-0.2812-0.42774-0.5117-0.0625c-0.3884 0.15647-0.5212 0.45624-0.7891 0.73438-0.062 0.0654-0.7505 0.65479-0.789 0.67187-0.2423 0.12095-0.8082 0.13885-1.0684 0.0625-0.095-0.86404 0.2822-1.5752 0.6367-2.3242 0.1693-0.35867 0.5991-1.4593 0.7129-1.832 0.1629-0.53507 0.3721-1.5207 0.4336-2.0801-0.2695-0.30425-0.3053-0.60218-0.4609-0.94922-0.087-0.19124-0.3097-0.5056-0.4336-0.67382-0.206-0.2778-0.5611-0.51189-0.7383-0.79297-0.1894-0.29972-0.2495-0.87301-0.3145-1.2227-0.087-0.47478-0.244-1.014-0.1699-1.498 0.059-0.38948 0.2452-0.91839 0.4609-1.2539 0.094-0.14665 0.2724-0.27468 0.3555-0.42578 0.2211-0.4018 0.5306-1.38 0.457-1.834-0.062-0.38797-0.4933-1.118-0.8398-1.3144-0.1572-0.0888-0.6096-0.16003-0.9219-0.16797zm-5.0625 3.1992c-0.5714 0.32542-1.2919 0.30454-1.9102 0.61133-0.1795 0.41469-0.2545 1.063-0.3808 1.3438-0.1565 0.34809-0.4703 0.40398-0.5586 1.0703l0.2773 0.27734c0.4808 0.034 0.921-0.0801 1.3926-0.10546 0.3209-0.0189 0.6912 0.0276 1.0019-0.0215 0.155-0.0227 0.3558-0.10623 0.5098-0.15234l0.332-0.42969 0.074-0.67383c-0.4228-0.45313-0.3805-1.2232-0.1797-1.7695zm-9.9844 3.1758-0.4062 0.36719c-0.098 0.36057-0.2122 0.8527-0.2032 1.2246 0.011 0.37961 0.1568 0.72839 0.1016 1.1289-0.03 0.22639-0.1633 0.47933-0.1758 0.70312-0.019 0.2623 0.1903 0.80077 0.3555 1.0078l0.6367 0.21485 0.3809-0.33594c0.144-0.40218 0.2159-0.88504 0.1777-1.3125-0.019-0.16743-0.1115-0.38887-0.1035-0.55078 0.011-0.17499 0.1211-0.40297 0.1562-0.58008 0.1183-0.62404 0.1618-1.2595-0.2558-1.7734zm-67.564 2.3848-0.2813 0.51953 0.027 0.61328 0.4336 0.30469c0.2385-0.1183 0.5085-0.24978 0.711-0.42969 0.053-0.28876-0.062-0.79688-0.2813-1.0078zm12.514 1.4062c-0.3703 9e-3 -1.3104 0.22277-1.5586 0.36719-0.019 8e-3 -0.3615 0.31515-0.3828 0.33593-1.4055 1.566-0.6544 2.0397-1.1211 3.4844-0.3432 0.43332-1.3497 0.7863-1.8847 0.91601-0.5506 0.37229-0.4642 1.2947-0.6602 1.8633-0.2294 0.66494-0.6091 1.0308-0.8496 1.9375l-0.1192 0.44727c0 0.0265 0.1216 0.65739 0.1348 0.73437 0.1788 0.96628 0.5052 2.0125 0.9356 2.9024 0.072 0.14853 0.1798 0.28232 0.2539 0.42969 0.079 0.1576 0.4029 0.77311 0.457 0.91601 0.2498 0.66531 0.1629 1.4445 0.4844 2.1094 0.2551 0.52849 0.7147 0.79365 1.1972 1.0996l0.076 0.54882c-1.0992 1.5208-1.0608 1.4166-0.5859 3.1777 0.086 0.32164 0.101 0.70869 0.3808 0.94922 0.019 0.0189 0.4856 0.24969 0.5352 0.27539 1.0026 0.50377 2.0277 0.79001 3.1582 0.73437 0.4014-0.2657 0.8511-0.93738 0.9414-1.4082 0.03-0.17915 0.055-1.6664 0.076-1.8633 0.074-0.64498 0.3353-1.3336 0.6621-1.8926 0.2986-0.20561 1.1538-0.55936 1.5039-0.55078 0.2925 8e-3 0.8173 0.27519 1.0176 0.48828 0.3095 0.5204 0.1468 1.638 0.2031 2.2598 0.034 0.35905 0.1374 0.74504 0.2031 1.1016 0.7742 0.43359 0.8315 1.2546 0.9414 2.0469l0.051 0.36914c0.2744 0.70182 1.3701 1.0018 1.9883 0.60938 0.2555-0.1629 0.5371-0.51635 0.7617-0.73242l0.5606-0.0918 0.3574 0.39844 0.5605-0.0937c0.1973-0.29783 0.467-0.5931 0.7383-0.82422l0.4062 0.27539c0.047 0.35792 0.1072 0.71448 0.1797 1.0684l0.4336 0.33594c0.6892 0.19918 1.0804-0.19267 1.7305-0.1836l0.3809-0.39453 0.1289-0.55078-0.1797-0.49023-0.5352-0.27539c-0.212-0.22715-0.3329-0.73912-0.2793-1.0391 0.3065-0.53692 0.7672-0.72525 0.9942-1.3457 0.1901-0.52006 0.3049-1.3693 0.2539-1.9258-0.019-0.18293-0.1289-1.3701-0.1289-1.7715 0-0.16781-0.03-0.41918 0-0.58007 0.1009-0.53734 0.7772-1.7099 1.0195-2.3223-0.2177-1.0203-1.4341-1.2917-2.293-1.498-0.4811-0.11527-0.9612-0.2611-1.4511-0.33593-0.9492-0.14514-1.6698-8e-3 -2.6485-0.33594-0.2974 0.144-0.7673 0.21972-1.0176 0.36523-0.026 0.0189-0.338 0.32864-0.3828 0.36719-0.4845 0.46541-1.4101 1.4961-2.0371 1.6211l-0.5351-0.27539c-0.1716-0.38751-0.3689-1.16-0.5606-1.4668-0.079-0.127-0.2568-0.24851-0.3555-0.36719-0.2366-0.28309-0.4153-0.61363-0.7636-0.79297-0.8666-0.44587-1.4333-0.0198-2.0625-1.1309-0.3908-0.69275-0.2747-0.95246-0.3574-1.6816-0.023-0.17272-0.087-1.2816-0.2032-1.6816l0.2793-0.51953c1.0398-0.60605 1.6687-0.82412 1.9375-2.1074 0.091-0.43627 0.214-0.86173 0.4297-1.2559-0.019-1.0294-0.9238-2.1133-1.8808-2.4414-0.049-0.0189-1.4044-0.30519-1.4532-0.30859-0.021-1e-3 -0.04-5e-4 -0.062 0zm10.645 1.9629c-0.096-1.5e-4 -0.1931 8e-3 -0.2891 0.0273-0.2056 0.10318-0.6919 0.45449-0.8125 0.64063-0.4658 0.7152-0.3688 1.7704-0.8672 2.5684-0.3213 0.51413-0.7415 0.75404-1.1211 1.1602-0.116 0.12359-0.1924 0.29664-0.3047 0.42578-0.1032 0.11944-0.2968 0.23831-0.3808 0.36719-0.2007 0.30879-0.3408 0.91888-0.3321 1.2852 0.1966 0.25171 0.3522 0.63268 0.5586 0.85351 0.072 0.076 0.7967 0.62612 0.8926 0.67578 0.553 0.28422 2.0002 0.58581 2.5977 0.36524 0.6165-0.22753 0.6067-0.62756 1.4765-0.54883 0.6957 0.0627 1.9767 0.39586 2.6231 0.67188 0.4292 0.18217 0.7001 0.41163 1.1992 0.48828l0.4336-0.2461c-0.091-0.38634-0.3172-0.56066-0.5352-0.85547-0.3042-0.40992-0.508-0.94492-0.6367-1.4355 0.1433-0.63984 0.6035-1.1566 0.5586-1.832l-0.2539-0.42969c-0.3904-0.18142-0.7921-0.34277-1.1973-0.48828-0.3042-0.54936-0.7572-0.90313-1.4277-0.91602-0.2763 0.21166-0.5448 0.45044-0.7871 0.70117-0.086 0.43144-0.1918 0.86117-0.3067 1.2852l-0.4336 0.27539-0.5605-0.30664c-0.1323-0.1886-0.1458-0.51724-0.1016-0.72266 0.3307-1.5178 1.169-1.5495 1.4258-2.2422 0.37-0.99924-0.4898-1.7645-1.4179-1.7656zm-24.785 2.6094c-0.271 3e-3 -0.5579 0.0389-0.793 0.10352-0.1716 0.0495-0.3363 0.16829-0.5078 0.21289-0.3792 0.0979-0.6939 4e-3 -0.9961 0.36719-0.3337 0.40014-0.3475 1.1844-0.074 1.6211 0.1557 0.24945 0.6186 0.54818 0.8906 0.64063 0.4621-0.21128 1.6779-1.4511 1.9102-1.8945 0.093-0.17801 0.1574-0.42034 0.2285-0.61132l-0.3047-0.42774c-0.1111-8e-3 -0.2303-0.0117-0.3535-0.0117zm41.205 3.6504c-0.6144 0.0113-1.095 0.26463-1.5821 0.73243-0.094 0.0903-0.3173 0.36431-0.3554 0.48828 0 0-0.087 0.97748 0 1.1914 0.4468 0.43197 1.1458 0.65974 1.7578 0.64258 0.1738-4e-3 0.3586-0.079 0.5332-0.0918 0.4069-0.034 0.7542 0.0391 1.1211-0.21484-0.1142 0.81071-0.7909 1.3555-0.8906 2.1387 0.1515 0.4506 0.6463 0.7123 1.0019 0.98828 0.3659 0.28422 0.7139 0.38947 1.1641 0.44922 0.4509 0.0597 0.8646-0.0845 1.1719-0.42773 0.1186-0.13153 0.1905-0.32171 0.3046-0.45899 0.2113-0.25285 0.5272-0.50288 0.7891-0.70312 0.124-0.28573 0.154-0.80904 0.027-1.0996-0.4763-0.16517-0.7441-0.56773-1.0703-0.91602-0.1995-0.2143-0.486-0.26565-0.7129-0.42968-0.6996-0.50355-1.521-1.92-2.3671-2.2012l-0.4434-0.0586c-0.1576-0.0227-0.3079-0.0293-0.4492-0.0293zm23.812 6.3848c-0.3345 0.0786-0.6895 0.2092-0.9942 0.36719l-0.2285 0.61328c0.2177 0.59875 0.5676 1.3744 0.7383 1.9551 0.093 0.31785 0.085 0.74554 0.2539 1.0391 0.019 0.0302 0.3169 0.35079 0.3555 0.39648 0.692 0.32542 1.514-0.14674 1.8594-0.76367l0.078-0.64258-0.3321-0.39453-0.027-0.24609s-0.6797-0.62883-0.8633-1.1309c-0.1326-0.36208-0.091-0.67554-0.3574-1.0098zm-15.256 4.0957v2e-3c-0.2067 0.17159-0.4721 0.31024-0.7129 0.42578-0.1054 0.31559-0.1276 0.8857 0.027 1.1934l0.4316 0.36718c0.3186 0.0605 0.8506-0.0266 1.1211-0.21484 0.049-0.41038 0.068-0.84141 0.051-1.2539zm17.336 1.1504c-0.2805 4e-3 -0.5831 0.086-0.9356 0.28711l-0.1777 0.45703 0.1777 0.48828c0.5221 0.36133 1.9636 0.68687 2.5977 0.61329 0.1319-0.3224 0.1932-0.92313 0.051-1.2539-0.654-0.28535-1.1385-0.60049-1.7128-0.5918zm-2.9219 1.3574c-0.8032 1.0291-1.1273 1.2818-1.043 2.6875l0.2539 0.42774 0.5352 0.24609c0.3004 0.034 0.8045-0.11105 1.0175-0.33593 0.1153-0.31786-0.012-0.88443-0.1796-1.1621l-0.025 0.0605c-0.2468-0.49905-0.3085-1.1429-0.1778-1.6816zm-61.478 0.85352-0.461 0.27539c-0.7631 1.9089 0.7688 1.9515 0.8438 3.0879 0.026 0.41121-0.1396 0.89271-0.1563 1.3125-0.03 0.76959 0.05 1.1592-0.2265 1.957-0.1815 0.52551-1.0106 1.2618-1.045 1.2832-0.6024 0.37152-1.1548-0.0889-1.8339 0.97656 0.039 0.58579-0.028 1.195 0.025 1.7734 0.1497 1.6178 1.5137 2.4468 2.752 3.209 0.1493 0.0918 0.8163 0.47395 0.9922 0.58008 0.6677 0.40097 1.198 1.0245 2.0371 1.0703 0.4351-0.26986 0.6726-1.1344 0.6641-1.6191-0.011-0.59357-0.3009-1.1534-0.1289-1.7734 0.048-0.17159 0.2177-0.34869 0.2812-0.51953 0.084-0.22299 0.2915-1.077 0.3047-1.2832 0-0.0476-0.1997-1.4401-0.1777-1.6797 0.026-0.27175 0.2104-0.43694 0.1269-0.94922-0.023-0.144-0.1271-0.34768-0.1777-0.48828-0.4048-0.35074-1.0821-0.53329-1.3731-0.97851-0.084-0.12662-0.3848-0.78737-0.4609-0.94532-0.1557-0.3239-0.2151-0.62781-0.457-0.91797 0.1228-0.39386 0.2993-0.8028 0.5078-1.1602 0.288-0.0839 0.6449-0.43565 0.7656-0.70313 0-0.0616-0.02-0.55206-0.027-0.58203-0.074-0.27515-0.7539-1.0506-0.9922-1.2226-0.41-0.29556-1.2881-0.64965-1.7832-0.70313zm37.953 1.9863v2e-3c-0.3545 4e-3 -0.734 0.0455-1.0781 0.1211-0.2888 0.16516-0.5579 0.65995-0.6094 0.97656 0.061 0.49251 0.2171 1.1276 0.6367 1.4375 0.7152 0.35338 1.453 0.15688 1.9356-0.45703v-1.1934c-0.1539-0.21317-0.3093-0.42516-0.459-0.64063l-0.3555-0.24609c-0.026-4e-5 -0.048-3e-4 -0.07 0zm13.732 6.4102v2e-3c-0.051 9.4e-4 -0.099 4e-3 -0.1406 8e-3l-0.3047 0.45703 0.1016 0.51953 1.0703 0.55078c0.5843-0.10091 1.1706-0.25576 1.7597-0.0898 0.051-0.31408-0.012-0.8238-0.1797-1.1016-0.3333-0.0227-1.0849-0.15433-1.375-0.30664 0 0-0.5725-0.044-0.9316-0.0391zm-9.3242 0.0898c-0.2222 4e-3 -0.442 0.0432-0.6211 0.13281-0.3693 0.44508-0.6172 0.99163-0.8906 1.498l0.1015 0.55078c0.4023 0.31937 0.5886 0.89368 0.7149 1.375 0.072 8e-3 0.6533 0.0932 0.6875 0.0898 0.043-3e-3 1.4715-0.44845 1.5293-0.45703 0.3001-0.034 0.7671 0.13399 0.9648 0.36719h0.6133l0.457-0.27734c0.011-0.24945 0.031-0.55925 0.127-0.79297l-0.457-0.30469c-0.3754 0.0393-0.8369-9e-3 -1.1973-0.12305 0.1039-1.1904-0.2108-1.7431-1.3926-1.9961-0.1882-0.0393-0.4126-0.0678-0.6348-0.0625zm-52.523 2.7617c-0.2718 0.24529-0.4799 0.80711-0.5098 1.1602l0.2051 0.49024 0.4589 0.33594h0.6114c0.1561-0.33903 0.3204-0.67385 0.4824-1.0098-0.068-0.29631-0.3204-0.69759-0.5586-0.88672zm1.5058 5.0918c-0.4587 2e-3 -0.8862 0.14774-1.3555 0.10352l-0.2011 0.48828 0.2011 0.48828c0.7995 0.38151 0.6646 1.1966 1.2754 1.6211h0.6114c0.6046-0.38193 1.2503-0.69414 1.8593-1.0703 0.1682-0.22412 0.2297-0.80718 0.2286-1.0703l-0.459-0.30664c-0.3349 0.0873-0.673 0.20372-0.9922 0.33789-0.333-0.16063-0.6703-0.36214-0.9688-0.58203-0.067-8e-3 -0.1334-8e-3 -0.1992-8e-3zm7.4649 2.3242c-0.043 1.2e-4 -0.079 3e-3 -0.1094 8e-3 -0.1886 0.0264-1.1118 0.45451-1.2735 0.58203-0.2392 0.18935-0.435 0.42754-0.6875 0.60937-0.3409-0.0752-0.7506-0.0754-1.0957-0.0293l-0.3554 0.42969c0 0.29859 0.1687 0.76261 0.3828 0.97657 0.3851 0.20787 0.9132 0.34148 1.3476 0.36718 0.2245 0.24076 0.4895 0.55976 0.6368 0.85547 0.075 0.15194 0.1037 0.33826 0.1796 0.49024 0.2068 0.41506 0.5824 0.93148 0.9161 1.252 0.5722 0.23168 1.1166-0.0846 1.6797 0.1543 0.4288 0.34091 0.5116 0.89524 0.8437 1.3125l0.4063 0.0937c1.5194-0.73765 1.4918-2.1046 0.1015-2.9648-0.2275-0.4984 0.05-0.7836 0.076-1.2207 0.043-0.68428-1.184-2.2203-1.6309-2.6602l-0.3769-0.12304c-0.2219-0.0427-0.7486-0.13004-1.0391-0.12891zm6.539 6.3047c-0.3485 0.33487-0.8563 0.69629-0.9668 1.1914l0.3047 0.42773 0.6133 0.24609 0.4844-0.21289c0.034-0.0741 0.1707-0.33928 0.2519-0.36914 0.057-0.31105-0.023-0.83432-0.2031-1.0996zm-1.3496 3.8496c-0.4133 0.23622-0.7806 1.0001-0.7891 1.4688-0.011 0.35036 0.1949 0.74615 0.2032 1.0996 0.011 0.67952-0.3321 1.328-0.3574 2.0156l0.2812 0.42969c0.3103 0.0522 0.8235-0.0113 1.0957-0.18359 0.3511-0.54611 0.159-0.75441 0.2285-1.2227 0.03-0.19842 0.1559-0.41264 0.2031-0.61133 0.068-0.28648 0.2077-1.7948 0.2032-2.0781 0-0.16403-0.071-0.38649-0.1016-0.55078l-0.3574-0.36719z" fill="#008080"/>
  </clipPath>
  <filter id="filter27368" x="-.048211" y="-.053003" width="1.0964" height="1.106" color-interpolation-filters="sRGB">
   <feGaussianBlur stdDeviation="7.5508839"/>
  </filter>
 </defs>
 <g>
  <path transform="scale(.26458)" d="m1335 570c-1.8313 0.0276-3.8306 0.23702-5.9961 0.63477-8.6621 1.591-11.315 4.7742-16.795 6.3652s-6.5407 4.5954-8.6621 7.7773c-0.9952 1.4928-2.5799 2.6845-4.1582 4.0293 0.6441 0.59233 1.656 1.4089 1.959 1.5644 1.0707 0.54947 3.3245 1.4432 3.3379 2.873l-0.3321 0.42774-0.539-0.0332c-1.0869-1.1629-4.4461-1.9783-6.1426-3.2402-1.1377 1.164-2.1569 2.5148-2.7871 4.2793-0.2854 0.79917-0.6153 1.4218-0.9688 1.9297 0.2647 1.5547 1.343 1.2163 2.5938 1.8848l0.207 0.48828-0.1289 0.55078-0.4121 0.36523-0.1289 0.55079c0.263 0.24151 0.5009 0.51773 0.6894 0.82421l-0.1523 0.58204c0.1032 0.33108 0.2686 0.64377 0.4863 0.91601-0.081 0.81358-0.8411 1.4418-0.7402 2.291 0.081 0.71376 1.5053 1.6618 1.7578 3.1777-0.1092 0.10394-0.2112 0.21826-0.334 0.3086-0.6814 0.51507-3.3527-0.67653-3.8965-0.0625-0.1209 0.13984-0.2251 0.307-0.334 0.45898 0.1217 1.4844 1.4899 2.3424 2.1387 3.543 0.9597 1.7738-0.1198 2.9171 1.2246 4.1582 1.1861 1.0974 3.0716 0.48078 3.7442 1.0703 0.263 0.23207 0.3194 0.6236 0.582 0.85547 1.0196 0.88109 2.6539 0.0712 3.0547 0.21485 0.9093 0.33108 0.5257 2.2085 0.1992 2.8105-0.2559 0.48095-0.7422 0.78922-1.1211 1.1621-0.8246 0.10507-1.9506 0.35839-2.625 0.85547l-0.2285 0.64063c0.7369 1.1927 3.0402 0.35571 4.0508 0.30468 0.2309-8e-3 0.4596 0.0608 0.6875 0.0918l0.3847 0.36914 0.1289 0.54883c0.282 0.19389 0.4912 0.552 0.5547 0.88672l-0.2812 0.51953 0.3828 0.36719c0.4798-4e-3 1.2643 0.2092 1.7324 0.36718 0.3715 0.12246 0.6403 0.4682 0.9942 0.58204 1.1783 0.37568 2.3628-1.4975 3.5918-1.3145l0.3828 0.39649 0.1035 0.51953c-0.2298 0.25738-0.422 0.57419-0.5117 0.91601l0.1797 0.49024c0.742 0.29782 1.6203 1.1987 1.8066 1.9863-0.1217 0.27174-0.5313 0.62248-0.8398 0.64062-1.3239 0.0809-1.7889-1.5388-2.7247-2.0156l-0.4609 0.27343-0.2812 0.55079c-2.2558 0.85186-0.582 5.5354-3.4629 6.1113-1.5294-0.76218-0.5971-2.4811-0.6153-3.2695 0-0.18784-0.082-0.37019-0.1289-0.55078l-0.5137-0.18359c-0.4999 0.50003-1.0397 1.0318-1.7558 1.1914-0.6584-0.34393-0.6092-0.76704-1.0449-1.1914-0.2181-0.21695-2.0038-0.56674-2.6231-1.0684-1.1861 0.16592-0.9935 1.0447-1.6816 1.252-0.3772-0.12019-0.7381-0.29872-1.043-0.55078l-0.5371 0.15234-0.2559 0.55078c0.1924 0.83267 0.7518 1.1476 1.4278 1.5606 0.2181 0.60892 0 1.3219-0.1309 1.9238l0.1797 0.48828 0.5137 0.18555c0.6966-0.31068 1.272-0.54897 1.9336-0.94922 0.74 0.034 1.024 0.31917 1.25 0.94922-0.6271 1.9365-2.3105 1.2962-3.5664 2.2617-0.5323 0.40822-0.8518 1.2662-1.0957 1.873-0.1735 0.4376-0.4791 0.87428-0.3262 1.3652l0.459 0.30468c0.3269-0.15382 0.6925-0.21102 1.0195-0.36523 0.621-0.29065 1.2098-0.95714 1.9629-0.73437l0.2812 0.42968v0.60938c-1.0887 0.94768-2.8997 2.2669-0.8418 3.332l0.5821-0.12109c0.5252-0.12548 1.059-0.21709 1.5039-0.55079 0.7541-0.56757 1.0866-1.4984 1.7285-2.168 0.3772-0.39111 0.8394-0.6944 1.1992-1.1016 0.4428-0.49905 0.6069-1.2136 1.2949-1.4551 0.3402-0.11829 0.3978-0.0339 0.7247 0.0508 0.9527 0.21845 1.3807-0.60472 2.0019-1.1309l0.2578 0.18359c-0.06 0.88006-0.1887 1.5056 0.078 2.3828 0.6544 0.14249 1.3345 9e-3 1.9883 0.1543 1.6941-0.61803 1.7544-1.6856 3.7949-1.9551l0.062 0.45703-0.3339 0.45899c0 1.1658 0.5891 1.7342-0.061 2.8105-1.4661 0.66739-2.1384-0.29208-3.1055 0.0606-0.7066 0.25814-1.0307 1.1316-1.6308 1.375-1.343 0.54535-3.3461-0.7373-3.4121 1.5918 0 0.38192 0.1421 0.74431 0.1289 1.127 0 0.65938-0.3711 1.2654-0.3848 1.9277l0.4863 0.33593c0.384-0.0907 0.7778-0.12493 1.1719-0.12304l0.1289 0.55078-0.6875 0.88476c-0.8014 0.18558-1.5854 0.92618-2.3437 1.2852l-0.1016 0.57812 0.2813 0.42969c0.6341 0.26532 1.3438 0.24639 1.9863 0.48828 0.9366 0.35339 1.0969 0.89567 2.2285 0.95508 2.0182 0.10583 1.5813-2.0465 2.6856-2.6973l0.2832 0.42968c-0.2177 0.60892-0.1165 1.2633-0.1289 1.8945l0.4082 0.24414c1.2477 8e-3 1.2973-1.4091 1.6816-2.2637 0.1859-0.42364 0.3772-0.78648 0.4609-1.25 0.1867-1.0588-0.3896-3.5968 1.2989-3.5762l0.3847 0.36719c0.2102 0.83467-0.5465 1.7297-0.4629 2.5664 0.1924 1.9224 0.391 2.0314 0.918 3.7285 0.5767 0.29065 1.2906 0.28655 1.7852 0.73242 0.1031 0.37807 0.1402 0.77026 0.1289 1.1602l-0.2325 0.37109c-0.8034 0.14362-1.9687-0.88247-3.3085-0.55078l-0.2051 0.51953c0.3273 0.16555 0.6274 0.39199 0.8652 0.67383v0.60938c-0.4104 0.13001-0.8334 0.0529-1.25 0.0352-0.4104-0.0189-0.77 0.0905-1.1719 0.1211-0.627 0.0499-2.21-0.3956-2.9023-0.55079l-0.5117 0.18555c0.06 0.41125 0.276 1.1868 0.5898 1.4668 0.6896 0.61999 2.8265 2.073 3.2324 2.7812 0.3648 0.64112 0.5344 1.2216 1.1485 1.7402 0.4798 0.40611 1.7804 1.107 2.4433 1.5586 0.2053 0.85697 1.0587 1.7615 2.0118 1.5605 0.3586-0.0809 0.6138-0.36975 0.9687-0.45898 0.4164-0.10847 0.8521 0.0522 1.2734-0.0332 0.3527-0.0707 0.6443-0.31261 0.9942-0.39844 1.1804-0.29065 1.3038-0.32052 2.0351-1.3438-0.1031-0.33298-0.32-0.6095-0.4863-0.91602-0.4163-0.78327-0.6213-2.0948-0.1035-2.873 0.1988-0.29292 0.5136-0.49351 0.7656-0.73438 0.4031-0.0907 0.8126-0.12456 1.2227-0.12305 0.8226 1.135 2.364 0.12326 2.8769-0.76171l0.584-0.0918 0.459 0.30664c0.1032 1.8268-2.7602 2.7294-4.125 2.0156l-0.4609 0.27539c0.2369 0.3035 0.5687 0.44503 0.8398 0.70313 0.7239 0.6946-0.5968 2.0904 0.332 3.9414l-0.125 0.58203c-0.7863 0.47285-1.5833 0.82944-2.4492 1.1309-0.5 0.17461-1.0402 0.27185-1.5 0.55078-0.4678 0.28195-0.7791 0.77004-1.2754 1.0078-1.0426 0.49911-3.1023 0.5713-3.8125 0.84961 3.514 1.363 10.075 3.4408 15.609 3.6191 7.75 0.25002 7.625 2 9.5 4.25 1.875 2.25 0.5002 7.25 0.75 10 0.25 2.75 2.125 6 3.875 6.5s5.25 2.5 6 3.5 4.125 6.75 5.25 8 5.125 4.625 7.5 8.375c2.375 3.75 1.75 3.875 2.375 6.875s1.125 5 3.5 8.375 8.25 5.25 10.375 6.125 4.375 4.5 5.25 7c0.8749 2.5 0.7502 4.5 1 8.125 0.25 3.625 1.25 4.625 3 8.625 1.75 4 3.125 9.625 3.625 13.375s-1 6-1.75 8c-0.75 2-2 7.125-3.625 9.875-1.625 2.75-2.0001 5.875-2.375 8-0.375 2.125-3.125 6.75-4.875 9.5-1.75 2.75-5.2327 8.9754-7.2656 10.566-2.0329 1.5911-3.2712 3e-4 -6.0996 0.26562-2.8284 0.26517-6.7172 8.8391-7.6895 11.402-0.9723 2.5633 0.2658 4.4193 0.6192 6.2754 0.3535 1.8562 2.2972 5.2141 3.2695 7.4238 0.9722 2.2097 0.8851 2.9183 1.1504 4.5977 0.2649 1.6794 0.1758 3.6244 0.1758 5.127 0 1.5026 0.5299 4.1525 0.7949 6.8926 0.2652 2.74 1.7679 4.9506 2.0332 6.0996 0.2651 1.149-1.0601 5.3035-1.502 7.248-0.442 1.9445 0 6.0111 0 6.8066 0 0.26299 0.2133 1.3635 0.4688 2.6387 0.1044-0.023 0.2086-0.0426 0.3066-0.0996 0.5899-1.2199-0.1029-2.5648 0.461-3.791 0.3076-0.67241 1.1182-0.84477 1.5781-1.375l0.5644-0.0898 0.4082 0.24414c-0.1598 1.362-0.5569 2.3007-0.1289 3.6973 0.3077 0.99602 1.48 1.7369 1.3008 2.8418-0.3903 0.4506-0.5834 1.0731-0.6641 1.6524l0.3594 0.36719c0.3402 0.0907 0.6749 0.1894 1.0196 0.24609l0.3339-0.15625c0.1338 0.31672 0.1782 0.69617 0.3829 0.98047 0.1031 0.13946 0.2563 0.22432 0.3535 0.36719 0.2872 0.41038 0.2304 1.1104 0.4101 1.5879 0.384 1.0229 2.605 1.6361 1.9102 3.0566-0.3402 0.68957-1.7574 1.8455-2.0879 2.5078-0.2298 0.46571-0.5325 2.1105-0.5567 2.6582 0 0.59074 0.1323 1.1801 0.059 1.7695-0.116 0.78237-0.4987 1.7084-0.059 2.4746 0.7693 0.0907 1.3724 0.6963 1.7305 1.3477l0.4356 0.0898c1.2559-0.88822 3.1419 1.0955 3.9726 1.8027 0.2245 0.19049 0.4879 0.33614 0.6895 0.55078l0.5097-0.21484c0.1796-0.8922-0.1-1.4982-0.1523-2.3516 0-0.41034 0.082-0.81438 0.082-1.2246 0-0.48185-0.283-0.90501-0.3593-1.375l0.3593-0.18554c-0.9102-0.76615-1.0061-1.829-1.2226-2.9004l0.1797-0.48829 0.582 0.15235c0.2177-0.33033 0.4492-0.65094 0.6094-1.0098 0.3137-0.68662 0.6827-3.205 1.832-2.9336 0.3137 0.0703 0.4109 0.26356 0.6348 0.45703 0.2751 0.24151 0.6144 0.39835 0.8906 0.64258 0.5505 0.48389 1.0837 1.1098 1.8594 1.1914 0.6977 0.0707 1.316-0.33534 1.9765-0.47851 0.8659-0.1886 1.5021-0.17776 2.0215-1.0195-0.06-0.26986 0.3958-1.6416 0.3574-2.2305-0.1031-1.4833-0.299-2.0046 0.5645-3.3613 0.3076-0.47883 0.7721-0.87697 0.9414-1.4356 0.2869-0.9547 0.4477-4.0311 0.3769-5.0723l-0.5546 0.0918c-0.2495 0.2453-0.4624 0.54995-0.7657 0.73243-1.1242 0.66935-2.3243-0.68685-3.5898-0.61133-0.6089 0.034-0.9829 0.29072-1.4277 0.64062-0.276 0.21581-0.6336 0.30738-0.8907 0.55078-0.1417 0.13569-0.2305 0.30888-0.3593 0.45704-1.2074 1.4437-2.3406 1.6992-4.1504 1.2246-0.3587-0.40823-0.2539-1.0275-0.6114-1.4375-0.4798-0.55658-1.2488-0.77598-1.7324-1.3457-0.627-0.73587-0.6259-1.5628-1.1445-2.3516-0.1924-0.29518-0.5022-0.48836-0.7149-0.76562-0.218-0.27591-0.3436-0.61157-0.5547-0.88672-0.1734-0.21166-0.5571-0.557-0.6347-0.79493-0.091-0.27855 0.08-0.91503 0.059-1.2539-0.06-0.79344-1.0561-0.96784-0.6602-1.9531 0 0 1.9907-2.4263 2.0899-2.5059l0.6308-0.0351 0.4356 0.36914c0.1032 0.53635 0.1037 1.1049 0.3086 1.6191 0.1285 0.3239 0.3773 0.56407 0.5566 0.85547 0.7884 1.2617 1.6245 1.6222 3.0566 1.2441 0.2873-0.0809 0.6153-0.0929 0.8672-0.26563 0.7188-0.48699 1.1894-1.3129 2.0118-1.709 0.9727-0.46779 2.6218-0.89792 2.9785-2.0801 0.4488-1.4867-0.6162-2.0093-0.3282-4.0039l0.4551-0.30468 0.6348 0.24414c0.6148 0.8801 0.5454 1.9837 1.1973 2.873 0.9104-0.0707 1.6605-0.66593 2.5468-0.82421 0.9357-0.16593 2.2236 0.41992 3.3379 0.36523 0.9941 0.58379 0.6737 0.93627 1.2715 1.6523h0.3574l0.3106-0.51953c1.1465-0.41991 1.4863 0.25517 2.3437 0.51172-0.017 6.7e-4 -0.034 2e-3 -0.047-2e-3l0.3575 0.0898c-0.099-0.01-0.168-0.0479-0.2481-0.0762 0.7676 0.17604 1.9606 0.0157 2.6348-0.33984 0.3137-0.16139 0.5331-0.44 0.8164-0.64258 0.4798-0.34394 0.9068-0.30375 1.3457-0.79297 0.4999-0.55552 1.1074-2.2767 1.1484-3.0254 0.06-0.96677-0.5427-1.8406-0.459-2.8106l0.5118-0.15625c1.5114 1.2891 1.0392 3.327 1.9863 4.0957 1.0614-0.57264 0.8133-1.3063 2.1641-1.4961l0.4628 0.30469 0.1 0.55078 0.4589 0.36719 0.5586-0.1211c0.1796-0.27968 0.5569-0.49534 0.8926-0.51953 0.3141 0.16517 0.5947 0.39151 0.8145 0.67188l0.4609-0.0332c0.2873-0.84279 0.1923-2.7349-0.1543-3.5449-0.4798-0.28308-0.8694-0.69626-1.3496-0.97851l-0.059-0.45703c1.1017-0.67144 1.4402 0.25806 2.4668-0.6211 1.0061-0.85992 0.7737-1.1768 1.25-2.252 0.1535-0.34545 1.3247-2.3632 1.5781-2.4141 0.1531-0.034 0.3079-0.0332 0.4551-0.0332 0.1856 0.2143 0.4168 0.72171 0.3848 1.0078-0.081 0.6311-1.8092 3.5011-2.0879 4.4902 0.1859 0.29783 0.4093 0.57811 0.6601 0.82813 0.2102 1.0317-0.3696 2.0259-0.1523 3.1152 0.1032 0.51919 0.4938 0.91408 0.6621 1.4062-0.2298 1.1198-1.2059 2.6662-1.2207 2.7812-0.081 0.61901 0.3761 0.99508 0.6602 1.4356 1.4344 2.2351 3.5112 0.85688 5.373 1.6191l0.25 0.42968c-0.06 0.43771-0.1643 0.90211-0.4277 1.2539 0.091 0.70976 1.273 1.4483 1.7558 1.9531l0.5371-0.0898c0.3903-0.35716 0.7969-0.69554 1.1719-1.0684 1.2644-0.0601 1.5362 0.9158 2.9785 0.24414 0.4608 0.0601 0.9105 0.18903 1.3242 0.39649 1.0889-2.2784-0.7941-4.2654 2.0899-4.7676 0.3903-0.0707 3.0031 0.23736 3.2324 0.45703 1.051 1-0.1715 2.6793 1.6328 3.2383 3.0657-1.0946 2.1188-2.3139 3.2832-4.4004 0.1792-0.3205 0.3147-0.67503 0.6348-0.88672 0.8186 0.32164 1.9976 1.4839 2.0117 2.416-0.1924 0.31861-0.3582 0.65613-0.4863 1.0078 0.2237 0.2812 0.4989 0.5238 0.8144 0.70117l0.062 0.45899c-0.2868 0.19237-0.5658 0.42618-0.8945 0.54883-0.5383 0.20144-1.7519 0.15277-2.1387 0.45703-0.3772 0.29669-0.3889 1.1662-0.1777 1.5605 0.2559 0.47086 2.0851 1.3967 2.6211 1.4062 0.1531 0 0.3083-0.0507 0.4609-0.0351 0.4104 0.0601 0.7463 0.30494 1.2246 0.33593 0.5765 0.034 1.0837-0.34574 1.6543-0.24218 0.8177 0.1474 1.7148 0.69407 2.5743 0.60937l0.375 0.36719-0.2793 0.52148c-0.7713 0.1115-1.6398-0.28447-2.293 0.30664l-0.1035 0.42579c0.2751 0.20674 0.8631 1.179 0.9922 1.2226 0.5766 0.19881 2.2355 0.0913 2.7793-0.12109 0.3269-0.12321 0.5876-0.36953 0.9394-0.42774 0.7269-0.79449 0.557-1.2468 0.8906-2.1387 0.07-0.17537 0.2255-0.30697 0.334-0.45898 0.2298-0.34167 0.3638-0.74694 0.5098-1.1309 0.4548-1.225 0.5077-1.547-0.459-2.5059l-0.2832-0.0586c0 0.21997 0.062 0.92319-0.059 1.0996-0.4931 0.8761-1.3913 1.4294-2.1387 0.45899 0.1338-1.1153 0.7837-3.808 0.7383-4.6465 0-0.3617-0.2313-0.67845-0.2558-1.0391-0.06-0.76414 0.7295-1.7979 0.6621-2.2324-0.8953-1.0107-2.3495-0.39007-2.3418-2.1992 0.1734-0.26305 0.4919-0.46613 0.8125-0.48828 0.397-0.034 0.756 0.21617 1.1484 0.24414 0.333 0.034 3.8483-0.84847 4.2774-1.0078 0.3261-0.1217 0.6042-0.33795 0.8925-0.52149 0.06-0.80247 0.1159-1.8042-0.5312-2.4434-0.082-0.0907-0.4375-0.30576-0.4629-0.33789-0.4104-0.53019 0.8805-2.3286-1.0176-2.9941-1.9264 0.46368-1.2179 1.1135-2.0625 1.6172-1.4775 0.87821-3.972-0.35457-4.1777 2.1387-0.7883 0.68859-1.7184 1.53-2.8516 1.3477l-0.1289-0.48828c0.3141-0.1561 0.6227-0.33139 0.918-0.51953 0.2944-1.1562-0.4434-1.5029-0.3086-2.2637 0.3708-0.31937 0.7038-0.69224 1.1465-0.91406 0.4738-0.23773 1.0429-0.25252 1.5039-0.52344 0.153-0.0907 0.2697-0.22903 0.4355-0.30273 0.2812-0.12699 0.79-0.0798 1.1192-0.15234 0.7782-0.18482 1.6894-0.72959 2.3925-1.1016 0.4739-0.24869 1.028-0.2808 1.5039-0.52148 0.3205-0.16252 0.5966-0.43112 0.7891-0.73242l-0.2051-0.33789c-0.3522-0.17537-0.7004-0.37401-1.0195-0.61133l-0.1035-0.55078c0.1032-0.16933 0.1797-0.36412 0.3086-0.51953 0.2052-0.25663 0.7954-0.15475 1.0937-0.21485 0.7803-0.15458 1.3365-0.51864 2.1895-0.45703 0.621 0.0499 1.1976 0.46678 1.8086 0.36719 0.6794-0.11074 0.9166-0.54884 1.6816-0.27539 0.3903 0.83667 0.876 1.1397 1.7305 1.2539 0.3265-0.1833 0.6973-0.28774 1.0703-0.30664l0.5117 0.30664c0 0.36133-0.1343 0.72068-0.3086 1.0391l0.082 0.54687c0.3771 0.034 0.8627 0.24211 1.0957 0.55078-0.06 0.38835-0.081 0.77607-0.127 1.1621 0.116 0.12246 0.2231 0.2591 0.3516 0.36719 0.1791 0.14929 1.5707 0.23666 1.9101 0.30469 0.3844 0.0809 1.0145 0.3072 1.377 0.27734 0.1341-8e-3 0.2731-0.0345 0.4082-0.0625 0.1417-0.0431 0.6152-0.45599 0.7402-0.58008-0.6864-0.97787-1.7128-0.33972-1.9844-1.832l0.459-0.24609 0.2305-0.39649c-0.2102-0.3016-0.5644-0.44188-0.8164-0.70312-0.4608-0.48189-0.5647-1.2926-0.9942-1.832-0.4427-0.55752-1.1397-0.8637-1.5273-1.4668-0.4607-0.71577-0.1645-1.4866-0.3066-2.2617-0.06-0.34205-0.1804-0.67803-0.2832-1.0098-0.3587-1.1628-1.3717-1.4596-1.375-2.8125 0-1.0437 1.3547-2.805 1.7812-3.8496 0.2298-0.12548 0.8769-0.28564 1.1211-0.1836 1.0895 0.46084-0.102 2.3574 0.7656 3.1777-0.6613 1.1658-0.2231 1.1076 0.334 1.9551 0.3971 0.60888 0.198 1.7798-0.1289 2.3848l0.1035 0.54688 0.5117-0.21094c0.1535-0.34432 0.36-0.67 0.6094-0.94727l0.6094-0.0332c2.1335 1.3319 1.4907 2.6282 2.8262 3.7305l0.5136-0.18555 0.3321-0.42969c-0.1399-0.66228-0.3734-1.6327-0.2071-2.291l0.4571-0.24609c0.9082 0.14664 1.3449 0.43215 1.8086 1.2852-0.1089 1.1265-0.7007 2.3953-0.6875 3.3008l0.3574 0.39649c0.5192-0.26533 1.3332-1.1094 1.9609-0.82422 0.3455 0.15912 1.0305 1.8508 2.0899 0.82422 0.4292 0.0601 0.8638 0.0798 1.2968 0.0586 0.6775-0.59785 1.7774-0.21721 2.293-1.25l0.5117-0.18555 0.377 0.27539c0 1.7718 1.2943 0.80752-0.2559 2.7793v0.36719l0.5567-0.0898c0.1867-0.31371 0.4293-0.59831 0.7128-0.82618 0.7481-0.034 1.4438-0.34284 2.1387-0.54882 0.1285-0.0427 3.952-0.29284 4.127-0.27735 0.9878-0.68251 0.8041-2.1869 2.0117-2.627l-0.1797 0.18359 0.332-0.24414 0.3594 0.39649c0.06 0.99703-0.5386 2.07 0.6621 2.5976 0.1603-0.0503 0.3344-0.0802 0.4805-0.15234 0.5958-0.29518 0.9274-1.2163 1.4023-1.6797 0.9174-0.89416 1.687-1.9816 2.4434-3.0273l0.584 0.15429 0.2558 0.42969c-0.06 0.6361-0.7332 2.1507-0.584 2.627 0.2181 0.71373 0.6262 1.3259 0.5567 2.1094-0.07 0.85587-0.6935 1.5731-0.6875 2.4434 0 0.35943 0.2257 0.66104 0.2832 1.0078 0.1032 0.61081-0.2298 1.2333 0 1.834l0.5332 0.24218c0.1206-0.3911 0.3002-0.76508 0.5371-1.0996l0.5039-0.21289c0.2559 0.25134 0.5783 0.44588 0.9199 0.54883 0.1735-1.0489-0.1301-2.1605 0.2539-3.1777l0.4629-0.27539c1.3392 0.29064 0.7673 0.94352 1.2735 1.4961 0.6028-0.75307 0.4727-1.7707 0.8144-2.627 0.2427-0.609 2.138-3.3826 2.6485-3.791h0.5916l0.4609 0.36914c0.06 0.35868 0.1487 0.70756 0.2832 1.0391 0.7098 0.29065 1.7915-0.57718 2.6465 0.67188 0.4163 0.0903 0.8471 0.12197 1.2735 0.0898 0.5958-0.44364 1.1658-1.1722 0.8652-1.9531-0.8701-0.61898-1.736-1.0709-1.1719-2.293 0.9275-0.2366 1.3593-1.0029 2.0625-1.5918 1.0906 0.2914 1.8431 1.0257 3.0567 0.73438 1.7176-0.41167 2.2132-2.4166 2.9804-3.1172 0.5505-0.5051 1.2849-0.49688 1.7832-1.0703 0.5001-0.57861 0.1575-1.049 0.2286-1.6797 0.1088-1.0031 2.0616-0.99589 2.166-3.207-0.4294-0.81351-0.9612-0.7203-0.8926-1.8359 0.3658-0.28875 1.1153-0.43122 1.3516-0.82422 0.9496-1.5793 0.2804-3.4638 1.0429-4.2168 0.1659-0.16252 1.5586-1.0897 1.7598-1.1641 0.5252-0.19313 1.1024-0.13934 1.6289-0.33398 0.5504-0.69559 1.2516-2.3728 1.9375-2.8438 0.6432-0.44274 1.3924-0.31464 2.0098-0.70117 0.2056-0.1304 0.5959-0.82665 0.5898-1.0703-0.06-0.89726-1.2796-1.2212-1.3516-2.1992-0.06-0.64018 1.3051-1.5225 1.377-3.334 0.081-2.0922-2.0057-2.8243-1.3242-4.4277 1.225-0.20107 2.4063 0.21497 2.8769-1.3145 0.1531-0.48491-0.2812-3.3152-0.6328-3.8203-0.1599-0.22866-1.2261-0.63465-1.5527-0.91797-0.06-0.62097 0.3959-1.1535 0.3828-1.7734l0.459-0.27539c0.621 0.16933 1.0298 0.54597 1.5312 0.91602 1.8082 1.3318 0.7195 3.0567 1.3477 4.5859 0.1338 0.32806 0.4045 0.57125 0.5644 0.88476l0.6621 0.0586c0.4237-0.35566 1.0172-0.29582 1.5-0.51953 0-0.42664 0.2377-0.66225 0.3594-1.0391 0.2559-0.81362 0.1793-1.5592 0.5899-2.627 0.4426-1.1768 1.3392-2.1656 1.58-3.4219 0.1531-0.80851-0.062-1.6369 0.078-2.4473 0.1791-1.0872 0.9292-2.31 0.3593-3.666-0.6028-1.4308-1.1228-0.98859-0.9941-3.0273 0.1281-2.096 1.3785-3.5114 2.1387-5.377 0.3586-0.87712 0.4434-1.863 0.6347-2.7832 0.1418-0.67853 0.3923-1.3536 0.4629-2.0449 0.1161-1.209 0.1774-2.0691 0.459-3.2695 0.1531-0.65231 0.1217-1.3305 0.2559-1.9863 0.116-0.5746 0.3407-1.4433 0.664-1.9258 0.3141-0.46481 0.8229-0.82438 0.9922-1.377 0.1285-0.41851 7e-4 -0.85884 0.08-1.2832 0.1531-0.81868 0.8333-1.4666 1.1992-2.168 0.8307-1.5884-0.2633-1.967-0.4101-2.6602-0.101-0.43861 0.2367-0.77831 0.3769-1.1602 0.738-1.929-0.6343-2.1508-0.1738-3.5137 0.3005-0.89824 1.2257-1.5016 1.5801-2.4473 0.2558-0.67949 0.2544-1.4327 0.5312-2.1074 0.1735-0.41858 0.2872-0.85078 0.461-1.2539 0.2944-0.70076 1.0639-1.1191 1.3515-1.8633 0.1338-0.35717 0.1726-0.74511 0.2168-1.1211 0.333-2.419-4e-4 -3.3-0.7988-5.5312-0.1346-0.39348-0.1304-0.82608-0.3145-1.2031-0.2245-0.44788-0.5555-0.90205-0.8398-1.3125l-0.6074-0.21485-0.5371 0.15625c-0.3648 0.50608-0.5777 2.0429-1.045 2.291-0.2558 0.13569-0.5428 0.18576-0.7949 0.33203-1.0158 0.59683-1.5788 1.7304-2.3633 2.5703-0.5001 0.53322-1.0248 1.0347-1.5 1.5879-0.621 0.72284-1.0397 1.3958-1.9121 1.8672-0.6683 0.36057-2.5552-9e-3 -3.2578-0.27734-0.5504-0.20674-2.3762-1.522-2.7266-1.9844-0.3205-0.42572-0.6347-1.5136-0.6347-2.0488 0-0.27968 0.2486-1.8011 0.3574-2.0156 0.5696-1.1468 3.2699-1.3686 3.4902-3.3613 0.166-1.4654-0.9383-1.7399-1.6562-2.627-1.4386-1.7764-0.2992-4.4185-1.0684-5.9629-0.4548-0.90928-1.9324-1.3871-2.0156-2.4434-0.06-0.79442 0.9255-1.8064 0.9961-2.9648 0.116-1.9358-0.3277-4.8977-0.4356-6.9062 0-0.51927 0.06-1.0396 0-1.5586-0.06-0.38793-0.1288-0.77081-0.1035-1.1621 0.2499-3.9011 4.6064-6.005 4.9688-9.5957 0.2237-2.1982-0.3402-4.4018 0-6.6016 0.1988-1.267 1.3257-2.45 0.9922-3.8184-0.1659-0.66747-0.4918-1.3272-0.6602-2.0195-0.1735-0.70572-0.1549-1.4207-0.5137-2.0762-0.4223-0.77423-1.0228-1.3873-1.2226-2.291-0.1032-0.45381-0.2507-0.95621-0.3281-1.4082-0.081-0.46877 0.1096-0.95872 0.061-1.4355-0.1088-1.2342-0.5823-2.9138 0.1797-4.0645 0.3522-0.53635 0.6641-0.88784 0.9434-1.498 0.2626-0.56958 0.4094-1.2066 0.8398-1.6816 0.4164-0.45661 1.9994-1.3403 2.1133-1.5879 0.4354-0.9478 0.64-3.909 0.5312-4.9512-0.081-0.7945-0.2753-1.4773-0.205-2.291 0.07-0.87198 0.4808-1.7109 0.3593-2.5977-0.2101-1.5161-1.3044-2.9309-1.832-4.3418-0.5001-1.3355-0.9756-2.6805-1.4277-4.0332-0.166-0.49496-0.4549-0.95341-0.5567-1.4688-0.081-0.39428-0.1511-0.65624-0.2793-1.0371-0.3772-1.1306-0.2785-2.2389-0.3613-3.3926-0.081-1.1143-0.536-2.1429-0.6328-3.2109-0.1659-1.8249 0.1787-3.6281 0.08-5.4394-0.06-1.1422-0.4033-2.3926-0.1797-3.5137 0.3454-1.7263 1.6081-2.222 1.6054-3.209 0-0.7299-1.0227-1.7904-1.4921-2.3223-0.1924-0.21808-0.3144-0.49251-0.5196-0.69922-0.7117-0.7178-1.778-1.3639-2.1386-2.3867-0.2499-0.71573-0.1171-1.1792-0.5332-2.0449-0.4669-0.95671-1.3511-1.6326-1.836-2.5684-2.1838-4.2154 0.2198-5.376-0.459-8.1914-0.5635-2.3407-1.7575-3.4499-3.0058-5.3477-0.4799-0.7279-0.7381-1.5693-1.17-2.3223-3.3924-0.81963-2.6384-5.1993-4.5585-7.5781-0.081-0.0995-0.1911-0.16423-0.2872-0.24609-2.8993 2.0701-6.108 4.3708-7.4863 5.3105-3.8891 2.6516-9.3686 4.5948-14.318 4.0645-4.9497-0.53031-9.5461 0.35496-16.264 4.9512-6.7175 4.5962-10.254 2.1203-13.789 0.88281-3.5356-1.2374-6.1877-3.8878-12.728-3.7109-6.5407 0.17677-9.0151 6.3639-13.611 10.076-4.5962 3.7123-2.8294 8.6618-8.8399 11.49-6.0104 2.8284-5.1256-5.6e-4 -7.7773-3.7129-2.6516-3.7123-3.5359-8.6616-5.834-13.611-2.2981-4.9497-7.7768-3.8904-12.373-5.6582s-1.7685-4.9486-2.6524-10.959c-0.8839-6.0104-4.5965-10.961-6.1875-13.082-1.591-2.1213-8.6619-9.5457-10.783-11.137-2.1213-1.591-7.0713-9e-4 -16.971-0.53125-9.8995-0.53034-6.364-2.6512-8.6621-3.8887-2.2981-1.2374-5.8325-2.8288-9.8984-5.4805-4.0659-2.6517-3.1833-5.6568-6.3653-9.7226-2.3864-3.0495-6.3635-4.6063-11.857-4.5234zm-54.633 33.354c-0.3436 0.0865-1.625 0.77593-1.8848 1.0078-0.1126 0.10053-0.2364 0.30226-0.332 0.42578l0.2812 0.46094c0.7391 0.13493 2.0474-0.49602 2.5215-1.0703 0.073-0.15042 0.033-0.43407-0.027-0.58007zm4.2285 1.0078-0.5332 0.21484-0.2793 0.51953 0.3047 0.42578c0.067 0.34508 0.023 0.84116-0.1289 1.1621-0.7078 0.39066-0.6537 1.6654-0.8399 2.3516-0.055 0.20182-0.1571 0.41489-0.2304 0.61328-0.2801 0.7652-0.5167 1.4741-1.3477 1.8027l-0.2812 0.55078 0.1777 0.48828 0.6367-0.0312c0.5156-0.26192 0.518-0.82327 1.0957-1.252 0.7307-0.54164 1.6912-0.7178 2.4961-1.0996 0.3819-0.18104 1.054-0.64389 1.4746-0.67383 0.2181-0.0189 1.0295 0.14057 1.3008 0.18555l0.3301-0.42773-0.1035-0.55079 0.332-0.45898h0.6113c0.2843-0.19465 0.585-0.50046 0.7657-0.79492-0.074-0.19578-0.3131-0.86869-0.4082-1.0078-0.023-0.0302-0.3373-0.32184-0.3829-0.36719-0.4579-0.43933-0.8967-0.77055-1.5781-0.64258-0.4257 0.0801-0.4335 0.32048-1.0429 0.18555-0.6904-0.15371-1.6957-1.1874-2.3672-1.1934zm-5.1953 3.4824-0.2031 0.46094c0.2369 1.0232 0.2013 1.0957 0.8398 1.9531l0.457-0.27343c0.076-0.23849 0.3825-0.734 0.3829-0.73438 0.089-0.35565 0.1008-0.87214-0.025-1.2227-0.4741-0.0926-0.9686-0.15827-1.4512-0.18359zm-7.8457 2.5664v2e-3l-0.3301 0.45898c0 0.41549 0.3964 1.1172 0.6621 1.4356 0.1123 0.13531 0.2903 0.23339 0.4063 0.36719 0.1084 0.12586 0.175 0.29773 0.2812 0.42578 0.223 0.26797 0.5256 0.50631 0.7657 0.76562 0.7347 0.22791 1.064-0.25049 1.6796-0.18359 0.5859 0.43185 0.7403 1.1951 1.3496 1.6191l0.586 0.12305c1.173-0.69974 0.5951-2.0668-0.1035-2.873-0.2431-0.2812-0.5164-0.43719-0.6875-0.79492l-0.5352-0.42774c-0.9129-0.48253-1.4818 0.21485-2.3164 0.21485-0.7494 0-1.1466-0.79564-1.7578-1.1328zm4.2969 6.8359c-0.1505-8.7e-4 -0.2925 0.0236-0.4004 0.0742-0.5812 0.8603-0.05 1.8477 0.051 2.75 0.044 0.39504 0.026 0.76927 0.1289 1.1621l0.5859 0.1211c0.5049-0.20561 1.1319-0.21763 1.5547-0.58008 0.2158-0.26306 0.3227-0.80419 0.2539-1.1328-0.043-0.2022-0.5433-1.2334-0.6875-1.4062-0.2302-0.27742-0.5035-0.46646-0.6875-0.79297-0.1886-0.10999-0.5114-0.19343-0.7988-0.19532zm5.6289 12.65v4e-3c-0.039 7.9e-4 -0.078 4e-3 -0.1192 8e-3 -0.2464 0.034-0.5191 0.18405-0.7656 0.24414-0.1534 0.0393-0.3297 0.027-0.4844 0.0625-0.1795 0.0393-1.4024 0.47226-1.5273 0.54883-0.2449 0.15043-0.5758 0.62658-0.6875 0.88672-0.011 0.57691 0.2642 1.4799 0.2558 1.7109-0.019 0.44432-0.3157 0.76759-0.053 1.2539l0.3594 0.36524c0.3632-0.0514 0.7591-0.15464 1.0937-0.30469 0.302 0.17537 0.5975 0.3615 0.8907 0.55078l0.4843-0.0312c0.7387-0.73538 0.7785-2.8794 1.6036-3.3008 0.1364-0.29631 0.1152-0.61115 0.059-0.91797-0.1-0.54028-0.5183-1.0913-1.1094-1.0801zm6.0879 0.13672c-0.079 2e-3 -0.1619 0.0104-0.2481 0.0293-0.011 1.3245 1.9555 3.0146 1.7852 4.4023l-0.4082 0.36719-0.5606 0.0918-0.2812 0.55078c0.2642 0.2434 0.5217 0.49677 0.7656 0.76172l-0.1289 0.55078c-0.2752 0.20598-0.5535 0.50526-0.7383 0.79492l0.2031 0.48828 0.4571 0.33789c0.5156 0.14816 1.2606-0.0179 1.6054-0.45898 0.1119-0.14551 0.1455-0.39937 0.2539-0.55078 0.1792-0.24907 0.5587-0.50565 0.7872-0.73242 0.3352-0.10243 0.9326 0.0121 1.1992 0.24414l0.3808-0.21289 0.051-0.67188-0.2793-0.42969 0.074-0.39648c0.3205-0.0189 0.8017-0.18302 1.0469-0.39649l0.1367-0.42968c0.2238-0.70598-0.2327-1.1125-0.6972-1.5586-0.1127-0.10885-0.2545-0.27906-0.3809-0.36523-0.3322-0.22677-0.7687-0.32564-1.1191-0.51953-0.2518-0.13947-0.8418-0.49024-0.8418-0.49024-0.3884-0.22563-0.8028-0.3073-1.1973-0.49023-0.6532-0.30312-1.1039-0.93931-1.8672-0.91406zm-22.043 1.9434c-0.2748 8e-3 -0.5418 0.0829-0.7441 0.22461l-0.078 0.67188c0.039 0.0525 0.281 0.40413 0.3067 0.42968l0.9414 0.64063c0.1867 0.0858 0.4638 0.1235 0.664 0.18359 0.7001 0.20939 1.9178 0.68002 2.6211 0.33789 0.2332-0.11338 0.6398-0.60272 0.7657-0.82617l-0.3321-0.42773c-0.4891-0.14929-0.9391-0.11065-1.4258-0.1836-0.6041-0.0903-1.1758-0.38187-1.707-0.67187l-0.051-0.0918c-0.2453-0.20107-0.606-0.29807-0.959-0.28711zm-16.482 0.0117-0.4336 0.30469c-0.2476 0.5325-0.7496 2.774-0.6875 3.3301 0 0.0189 0.1865 0.44251 0.2031 0.48828 0.5921 0.0597 0.8407-0.49378 1.5273-0.36524 0.1512 0.3326 0.2961 0.6709 0.4336 1.0098 0.299 0.16403 0.6161 0.41392 0.8399 0.67187 0.5464 0.192 1.2656 0.17182 1.7558-0.15625 0.2695-0.17877 0.5394-0.51286 0.7911-0.73242 0.5509-1.125-0.7882-2.0584-1.6055-2.5352l-0.049-0.1836c-1.0243-0.58696-1.9412-0.1156-2.3692-1.5898zm46.172 3.2383-0.254 0.51758 0.1778 0.51953c0.3107 0.079 0.7531 0.34694 0.9414 0.61328l0.5625-0.0625 0.074-0.66992v-2e-3c-0.2362-0.32542-0.5463-0.55681-0.8125-0.85547zm-39.805 1.6191-0.5625 0.1211-0.2012 0.48828c0.5825 0.46155 0.8269 1.1071 1.0957 1.7734l0.5586 0.27539 0.3828-0.36524v-2e-3c0-1.0702-0.1412-1.8879-1.2714-2.291zm-16.225 2.7207-0.4083 0.36718-0.5351 0.0899-0.4063 0.36718-0.1289 0.58204c0.9501 0.21807 1.4475-0.10439 2.0391-0.79688l0.027-0.42578-0.1796-0.18359zm9.7265 0.94531c-0.2804 0.096-0.597 0.1458-0.8906 0.18359l-0.2793 0.51953c-0.06 0.30841 0.07 0.84902 0.3066 1.0703 0.504 0.0858 1.1579-0.11391 1.4532-0.55078l0.025-0.51954c-0.1439-0.24945-0.3709-0.53629-0.6093-0.70312zm13.881 0.49219-0.2539 0.0898-0.3301 0.46094 0.1758 0.48828 0.5859 0.24219c0.099 0.28837 0.4554 0.65439 0.7383 0.76562l0.459-0.27734c-0.011-0.0635-0.089-0.48522-0.1016-0.51953-0.099-0.23736-0.3463-0.52014-0.4922-0.74219-0.034-0.0559-0.042-0.0972-0.092-0.14258-0.026-0.0226-0.6168-0.32502-0.6894-0.36523zm31.328 0.0898-0.4336 0.36719c-0.1716 0.37417-0.2767 0.87278-0.2812 1.2832l0.4082 0.21484c0.2857-0.10431 0.6502-0.4342 0.7871-0.70507v-1.0059zm-27.227 0.55078c-0.2086 0.12246-0.75 0.0758-0.9687 0.0293l-0.1524 0.55078c0.1826 0.29253 0.3799 0.57666 0.586 0.85351l0.6875 0.0625 0.2812-0.51953c0.019-0.30576-0.1924-0.78528-0.4336-0.97656zm-20.877 6.9258c-0.1652 4e-3 -0.3226 0.0335-0.4649 0.10157l-0.3046 0.51953c0.311 0.14702 0.6585 0.42608 0.8652 0.70312l-0.1524 0.70313 0.4844 0.33593c0.6127 8e-3 1.071-0.52105 1.1446-1.0976-0.027-0.33714-0.1435-0.74305-0.3086-1.0391-0.3731-0.0831-0.8415-0.23715-1.2637-0.22657zm-7.5684 8.1406-0.5117 0.21289-0.1523 0.67383c0.1606 0.25738 0.6461 0.58669 0.9414 0.64062 0.01 0 1.2115-0.0237 1.25-0.0312 0.1602-0.0265 0.3788-0.12797 0.5351-0.18164l0.252-0.52148-0.2266-0.48633c-0.3239-0.12473-0.7482-0.20256-1.0957-0.18555-0.097 0.0884-0.3014 0.16494-0.4336 0.15625zm267.98 200.96c-0.069 1e-3 -0.133 6e-3 -0.1856 0.0176-0.2536 0.19426-0.6254 0.36881-0.9414 0.42773l-0.3554 0.45703-0.051 0.51953c0.1999 0.25739 0.3513 0.62568 0.5586 0.85547 0.116 0.12926 0.3158 0.20857 0.4336 0.33594 0.1168 0.12586 0.2016 0.32306 0.3086 0.46094 0.4884 0.63137 0.9813 1.004 1.6797 1.375 0.3632 0.192 0.7041 0.42188 1.1425 0.30664 0.2007-0.32126 0.2791-0.83177 0.1563-1.1934-0.047-0.13984-0.1874-0.29092-0.2539-0.42774-0.104-0.21543-0.1535-0.53857-0.2813-0.73242-0.1863-0.28233-0.4405-0.50894-0.5859-0.82812-0.2143-0.46753-0.2427-1.0493-0.7129-1.375-0.1965-0.13493-0.6108-0.2018-0.9102-0.19727zm-20.869 4.1426v4e-3c-0.2297 4e-3 -0.4925 0.0553-0.6757 0.0859-0.4001 0.0654-0.8269 0.24567-1.1543 0.48828-0.2094 0.25777-0.3276 0.80621-0.2539 1.1289 0.1364 0.29367 0.3733 0.60669 0.6113 0.82617 0.075 0.64645-0.2276 1.2477-0.1524 1.8945 0.1886 0.27326 0.518 0.55554 0.8145 0.70313 0.067 0.42538 0.321 0.60367 0.459 0.94726 0.063 0.16139 0.042 0.38607 0.1015 0.55078 0.088 0.24303 0.4228 0.64832 0.6133 0.82422l0.4571-0.0312c0.2528-0.90777 0.2377-1.9058 0.5351-2.7188 0.13-0.35452 0.3266-0.8365 0.5098-1.1621 0.1882-0.33411 0.4985-0.60154 0.6367-0.97851 0.1209-0.32996 0.2185-0.87646 0-1.1914l-0.4336-0.1543h0.051c-0.4805-0.28422-1.3709-1.0776-1.834-1.1914-0.081-0.0227-0.1801-0.0254-0.2852-0.0254zm-11.105 2.4531c-0.104-2e-3 -0.1914 3e-3 -0.2481 0.0195-0.023 4e-3 -0.4875 0.25007-0.5351 0.27539-0.044 0.0265-0.4123 0.22871-0.4336 0.2461-0.2551 0.2245-0.4789 0.66978-0.6133 0.97656-0.1591 0.36321-0.2324 0.6694-0.2773 1.0606-0.1834 1.6141 0.7675 1.7027 0.8125 2.6074-0.3043 0.14475-0.7626 0.20003-1.0938 0.1543-0.2347 0.29064-0.4894 0.60023-0.6875 0.91601-0.3632 0.58035-0.6252 1.5278-1.3496 1.7734-0.2211 0.0745-1.5171 0.10685-1.7832 0.0898-0.6344-0.0461-1.2442-0.23195-1.8848-0.0898-0.6304 0.72582-0.9934 1.15-0.8047 2.168 0.057 0.30123 0.1239 0.54755 0.3223 0.79492 0.1055 0.1319 0.2627 0.24171 0.3789 0.36719 0.1202 0.13001 0.227 0.31252 0.3574 0.42968 0.1293 0.1149 0.3415 0.18337 0.459 0.30469 0.2865 0.29518 0.5526 0.99158 0.8145 1.3438 0.3246 0.43586 0.845 0.62846 1.1445 1.0996l0.051 0.42969-0.457 0.27539c-0.3085 0.0533-0.9608-0.0531-1.2227-0.21484 0-3e-3 -0.6287-0.68222-0.7129-0.76563-0.4095-0.11943-0.9489-0.14784-1.3242-0.30469l-1.3496-1.0078-0.5352 0.0918c-0.3367 0.42448-0.9007 0.72686-1.4512 0.64258-0.5072-0.28876-0.6784-0.86411-1.248-1.0703l-0.6113 0.0293c-0.3515 0.19805-0.3738 0.54547-0.584 0.82617-0.019 0.0227-0.7611 0.68601-0.791 0.70313-0.5583 0.32504-1.5791 0.34679-2.0117 0.73242-0.1905 0.16932-0.3436 0.44003-0.5352 0.63086-0.039 0.0393-0.07 0.0551-0.1016 0.10351-0.2033 0.33449-0.5203 2.0928-0.5117 2.5078 0.011 0.57331 0.4219 2.0815 0.8164 2.5039 0.05 0.0552 0.093 0.0679 0.1524 0.11328 0.2725 0.19956 0.4445 0.45552 0.664 0.6211 0.3066 0.23093 0.684 0.34453 0.9922 0.61133 0.071 0.35565 0.1393 0.71299 0.2031 1.0703l0.4336 0.33594c0.7285-0.3326 0.7366-0.68772 1.1719-1.0703 0.2948-0.25965 0.9762-0.39239 1.043-0.85742 0 0 0.9007 0.12297 1.2734 0.0625 0.8736-0.14249 1.4792-0.95181 2.2168-1.3438l0.5078 0.18359 0.2559 0.45704c-0.1357 0.42107-0.2343 0.90124-0.2559 1.3438 0.1486 0.30765 0.3465 0.62056 0.5606 0.88671l-0.051 0.52149c-0.4104 0.39587-0.6436 1.1394-0.7891 1.6797-0.6185 0.80485-2.1896 0.51878-3.1074 0.88672l-0.2285 0.64062c0.019 0.5102 0.3384 1.0432 0.7129 1.377-0.058 0.31635 0.03 0.82703 0.2031 1.0996l0.5352-0.12304c0.294-0.57313 0.9044-0.73514 1.4589-0.94532l0.3223-0.12109c0.03-2e-3 0.5982 0.0815 0.6641 0.0898l0.3828 0.36719c-0.1421 0.3967-0.3165 0.78941-0.5117 1.1621-0.034 0.0673-0.296 0.51459-0.3047 0.54883-0.051 0.17235-0.06 1.005-0.051 1.2246 0.4236 0.1406 0.904 0.23866 1.3496 0.27344l0.2813 0.42968c-0.1837 0.3447-0.8584 0.84137-1.2246 0.97657-0.3334 0.12283-0.6968 0.11438-1.043 0.27539l-0.2539 0.61132 0.2812 0.45899 0.5078 0.18164c0.5091-0.2521 1.0472-0.22961 1.5801-0.36719 0.4236-0.10923 0.7185-0.37749 1.1113-0.51953l0.3418-0.12109c0.192-0.0302 0.418 0.0302 0.6094 0 0.3137-0.0518 0.7137-0.28512 0.8926-0.55078 0.011-0.37153 0.1548-0.84654 0.3555-1.1602 0.3507-0.0884 0.8124-0.13677 1.1718-0.0918 0.5557 0.0646 1.3486 0.44481 1.8594 0.0606l0.3047-0.51953c0.058-0.31143-0.023-0.83628-0.2031-1.1016-0.3557-0.44935-1.1804-0.46453-1.7051-0.42579-0.6797-0.34053-1.1227-0.99877-0.9922-1.7754 0.3617-0.60453 0.9616-1.1602 1.7051-1.1602 0.2018-0.13871 0.4072-0.42039 0.4941-0.64063l0.17-0.42773c0.099-0.52891-0.1785-1.1752-0.129-1.7422l0.4571-0.27539c0.7373 0.31068 1.2675 1.0021 2.0625 1.1621l0.4609-0.24609 0.5586 0.15429c0.075 0.30917 0.2553 0.67126 0.459 0.91602 0.395 0.0794 0.843 0.12128 1.2461 0.0918l0.1035-0.67187c-0.1882-0.33524-0.7188-1.0256-0.7402-1.377-0.039-0.55159 0.3376-1.1104-0.1016-1.7422-0.3867-0.10734-0.8005-0.27969-1.1445-0.48828-0.1867-0.20069-0.3645-0.63701-0.3301-0.91602l0.3555-0.42773c0.3681 0.39035 1.0164 0.43088 1.5019 0.27539 0.5922-0.90561-0.079-1.5393 0.3321-2.4766 0.011-0.0265 0.2976-0.38028 0.332-0.42579 0.5072-0.65635 0.9064-1.4294 0.789-2.293l-0.2812-0.42774-0.5117-0.0625c-0.3884 0.15647-0.5212 0.45624-0.7891 0.73438-0.062 0.0654-0.7505 0.65479-0.789 0.67187-0.2423 0.12095-0.8082 0.13885-1.0684 0.0625-0.095-0.86404 0.2822-1.5752 0.6367-2.3242 0.1693-0.35867 0.5991-1.4593 0.7129-1.832 0.1629-0.53507 0.3721-1.5207 0.4336-2.0801-0.2695-0.30425-0.3053-0.60218-0.4609-0.94922-0.087-0.19124-0.3097-0.5056-0.4336-0.67382-0.206-0.2778-0.5611-0.51189-0.7383-0.79297-0.1894-0.29972-0.2495-0.87301-0.3145-1.2227-0.087-0.47478-0.244-1.014-0.1699-1.498 0.059-0.38948 0.2452-0.91839 0.4609-1.2539 0.094-0.14665 0.2724-0.27468 0.3555-0.42578 0.2211-0.4018 0.5306-1.38 0.457-1.834-0.062-0.38797-0.4933-1.118-0.8398-1.3144-0.1572-0.0888-0.6096-0.16003-0.9219-0.16797zm-5.0625 3.1992c-0.5714 0.32542-1.2919 0.30454-1.9102 0.61133-0.1795 0.41469-0.2545 1.063-0.3808 1.3438-0.1565 0.34809-0.4703 0.40398-0.5586 1.0703l0.2773 0.27734c0.4808 0.034 0.921-0.0801 1.3926-0.10546 0.3209-0.0189 0.6912 0.0276 1.0019-0.0215 0.155-0.0227 0.3558-0.10623 0.5098-0.15234l0.332-0.42969 0.074-0.67383c-0.4228-0.45313-0.3805-1.2232-0.1797-1.7695zm-9.9844 3.1758-0.4062 0.36719c-0.098 0.36057-0.2122 0.8527-0.2032 1.2246 0.011 0.37961 0.1568 0.72839 0.1016 1.1289-0.03 0.22639-0.1633 0.47933-0.1758 0.70312-0.019 0.2623 0.1903 0.80077 0.3555 1.0078l0.6367 0.21485 0.3809-0.33594c0.144-0.40218 0.2159-0.88504 0.1777-1.3125-0.019-0.16743-0.1115-0.38887-0.1035-0.55078 0.011-0.17499 0.1211-0.40297 0.1562-0.58008 0.1183-0.62404 0.1618-1.2595-0.2558-1.7734zm-67.564 2.3848-0.2813 0.51953 0.027 0.61328 0.4336 0.30469c0.2385-0.1183 0.5085-0.24978 0.711-0.42969 0.053-0.28876-0.062-0.79688-0.2813-1.0078zm12.514 1.4062c-0.3703 9e-3 -1.3104 0.22277-1.5586 0.36719-0.019 8e-3 -0.3615 0.31515-0.3828 0.33593-1.4055 1.566-0.6544 2.0397-1.1211 3.4844-0.3432 0.43332-1.3497 0.7863-1.8847 0.91601-0.5506 0.37229-0.4642 1.2947-0.6602 1.8633-0.2294 0.66494-0.6091 1.0308-0.8496 1.9375l-0.1192 0.44727c0 0.0265 0.1216 0.65739 0.1348 0.73437 0.1788 0.96628 0.5052 2.0125 0.9356 2.9024 0.072 0.14853 0.1798 0.28232 0.2539 0.42969 0.079 0.1576 0.4029 0.77311 0.457 0.91601 0.2498 0.66531 0.1629 1.4445 0.4844 2.1094 0.2551 0.52849 0.7147 0.79365 1.1972 1.0996l0.076 0.54882c-1.0992 1.5208-1.0608 1.4166-0.5859 3.1777 0.086 0.32164 0.101 0.70869 0.3808 0.94922 0.019 0.0189 0.4856 0.24969 0.5352 0.27539 1.0026 0.50377 2.0277 0.79001 3.1582 0.73437 0.4014-0.2657 0.8511-0.93738 0.9414-1.4082 0.03-0.17915 0.055-1.6664 0.076-1.8633 0.074-0.64498 0.3353-1.3336 0.6621-1.8926 0.2986-0.20561 1.1538-0.55936 1.5039-0.55078 0.2925 8e-3 0.8173 0.27519 1.0176 0.48828 0.3095 0.5204 0.1468 1.638 0.2031 2.2598 0.034 0.35905 0.1374 0.74504 0.2031 1.1016 0.7742 0.43359 0.8315 1.2546 0.9414 2.0469l0.051 0.36914c0.2744 0.70182 1.3701 1.0018 1.9883 0.60938 0.2555-0.1629 0.5371-0.51635 0.7617-0.73242l0.5606-0.0918 0.3574 0.39844 0.5605-0.0937c0.1973-0.29783 0.467-0.5931 0.7383-0.82422l0.4062 0.27539c0.047 0.35792 0.1072 0.71448 0.1797 1.0684l0.4336 0.33594c0.6892 0.19918 1.0804-0.19267 1.7305-0.1836l0.3809-0.39453 0.1289-0.55078-0.1797-0.49023-0.5352-0.27539c-0.212-0.22715-0.3329-0.73912-0.2793-1.0391 0.3065-0.53692 0.7672-0.72525 0.9942-1.3457 0.1901-0.52006 0.3049-1.3693 0.2539-1.9258-0.019-0.18293-0.1289-1.3701-0.1289-1.7715 0-0.16781-0.03-0.41918 0-0.58007 0.1009-0.53734 0.7772-1.7099 1.0195-2.3223-0.2177-1.0203-1.4341-1.2917-2.293-1.498-0.4811-0.11527-0.9612-0.2611-1.4511-0.33593-0.9492-0.14514-1.6698-8e-3 -2.6485-0.33594-0.2974 0.144-0.7673 0.21972-1.0176 0.36523-0.026 0.0189-0.338 0.32864-0.3828 0.36719-0.4845 0.46541-1.4101 1.4961-2.0371 1.6211l-0.5351-0.27539c-0.1716-0.38751-0.3689-1.16-0.5606-1.4668-0.079-0.127-0.2568-0.24851-0.3555-0.36719-0.2366-0.28309-0.4153-0.61363-0.7636-0.79297-0.8666-0.44587-1.4333-0.0198-2.0625-1.1309-0.3908-0.69275-0.2747-0.95246-0.3574-1.6816-0.023-0.17272-0.087-1.2816-0.2032-1.6816l0.2793-0.51953c1.0398-0.60605 1.6687-0.82412 1.9375-2.1074 0.091-0.43627 0.214-0.86173 0.4297-1.2559-0.019-1.0294-0.9238-2.1133-1.8808-2.4414-0.049-0.0189-1.4044-0.30519-1.4532-0.30859-0.021-1e-3 -0.04-5e-4 -0.062 0zm10.645 1.9629c-0.096-1.5e-4 -0.1931 8e-3 -0.2891 0.0273-0.2056 0.10318-0.6919 0.45449-0.8125 0.64063-0.4658 0.7152-0.3688 1.7704-0.8672 2.5684-0.3213 0.51413-0.7415 0.75404-1.1211 1.1602-0.116 0.12359-0.1924 0.29664-0.3047 0.42578-0.1032 0.11944-0.2968 0.23831-0.3808 0.36719-0.2007 0.30879-0.3408 0.91888-0.3321 1.2852 0.1966 0.25171 0.3522 0.63268 0.5586 0.85351 0.072 0.076 0.7967 0.62612 0.8926 0.67578 0.553 0.28422 2.0002 0.58581 2.5977 0.36524 0.6165-0.22753 0.6067-0.62756 1.4765-0.54883 0.6957 0.0627 1.9767 0.39586 2.6231 0.67188 0.4292 0.18217 0.7001 0.41163 1.1992 0.48828l0.4336-0.2461c-0.091-0.38634-0.3172-0.56066-0.5352-0.85547-0.3042-0.40992-0.508-0.94492-0.6367-1.4355 0.1433-0.63984 0.6035-1.1566 0.5586-1.832l-0.2539-0.42969c-0.3904-0.18142-0.7921-0.34277-1.1973-0.48828-0.3042-0.54936-0.7572-0.90313-1.4277-0.91602-0.2763 0.21166-0.5448 0.45044-0.7871 0.70117-0.086 0.43144-0.1918 0.86117-0.3067 1.2852l-0.4336 0.27539-0.5605-0.30664c-0.1323-0.1886-0.1458-0.51724-0.1016-0.72266 0.3307-1.5178 1.169-1.5495 1.4258-2.2422 0.37-0.99924-0.4898-1.7645-1.4179-1.7656zm-24.785 2.6094c-0.271 3e-3 -0.5579 0.0389-0.793 0.10352-0.1716 0.0495-0.3363 0.16829-0.5078 0.21289-0.3792 0.0979-0.6939 4e-3 -0.9961 0.36719-0.3337 0.40014-0.3475 1.1844-0.074 1.6211 0.1557 0.24945 0.6186 0.54818 0.8906 0.64063 0.4621-0.21128 1.6779-1.4511 1.9102-1.8945 0.093-0.17801 0.1574-0.42034 0.2285-0.61132l-0.3047-0.42774c-0.1111-8e-3 -0.2303-0.0117-0.3535-0.0117zm41.205 3.6504c-0.6144 0.0113-1.095 0.26463-1.5821 0.73243-0.094 0.0903-0.3173 0.36431-0.3554 0.48828 0 0-0.087 0.97748 0 1.1914 0.4468 0.43197 1.1458 0.65974 1.7578 0.64258 0.1738-4e-3 0.3586-0.079 0.5332-0.0918 0.4069-0.034 0.7542 0.0391 1.1211-0.21484-0.1142 0.81071-0.7909 1.3555-0.8906 2.1387 0.1515 0.4506 0.6463 0.7123 1.0019 0.98828 0.3659 0.28422 0.7139 0.38947 1.1641 0.44922 0.4509 0.0597 0.8646-0.0845 1.1719-0.42773 0.1186-0.13153 0.1905-0.32171 0.3046-0.45899 0.2113-0.25285 0.5272-0.50288 0.7891-0.70312 0.124-0.28573 0.154-0.80904 0.027-1.0996-0.4763-0.16517-0.7441-0.56773-1.0703-0.91602-0.1995-0.2143-0.486-0.26565-0.7129-0.42968-0.6996-0.50355-1.521-1.92-2.3671-2.2012l-0.4434-0.0586c-0.1576-0.0227-0.3079-0.0293-0.4492-0.0293zm23.812 6.3848c-0.3345 0.0786-0.6895 0.2092-0.9942 0.36719l-0.2285 0.61328c0.2177 0.59875 0.5676 1.3744 0.7383 1.9551 0.093 0.31785 0.085 0.74554 0.2539 1.0391 0.019 0.0302 0.3169 0.35079 0.3555 0.39648 0.692 0.32542 1.514-0.14674 1.8594-0.76367l0.078-0.64258-0.3321-0.39453-0.027-0.24609s-0.6797-0.62883-0.8633-1.1309c-0.1326-0.36208-0.091-0.67554-0.3574-1.0098zm-15.256 4.0957v2e-3c-0.2067 0.17159-0.4721 0.31024-0.7129 0.42578-0.1054 0.31559-0.1276 0.8857 0.027 1.1934l0.4316 0.36718c0.3186 0.0605 0.8506-0.0266 1.1211-0.21484 0.049-0.41038 0.068-0.84141 0.051-1.2539zm17.336 1.1504c-0.2805 4e-3 -0.5831 0.086-0.9356 0.28711l-0.1777 0.45703 0.1777 0.48828c0.5221 0.36133 1.9636 0.68687 2.5977 0.61329 0.1319-0.3224 0.1932-0.92313 0.051-1.2539-0.654-0.28535-1.1385-0.60049-1.7128-0.5918zm-2.9219 1.3574c-0.8032 1.0291-1.1273 1.2818-1.043 2.6875l0.2539 0.42774 0.5352 0.24609c0.3004 0.034 0.8045-0.11105 1.0175-0.33593 0.1153-0.31786-0.012-0.88443-0.1796-1.1621l-0.025 0.0605c-0.2468-0.49905-0.3085-1.1429-0.1778-1.6816zm-61.478 0.85352-0.461 0.27539c-0.7631 1.9089 0.7688 1.9515 0.8438 3.0879 0.026 0.41121-0.1396 0.89271-0.1563 1.3125-0.03 0.76959 0.05 1.1592-0.2265 1.957-0.1815 0.52551-1.0106 1.2618-1.045 1.2832-0.6024 0.37152-1.1548-0.0889-1.8339 0.97656 0.039 0.58579-0.028 1.195 0.025 1.7734 0.1497 1.6178 1.5137 2.4468 2.752 3.209 0.1493 0.0918 0.8163 0.47395 0.9922 0.58008 0.6677 0.40097 1.198 1.0245 2.0371 1.0703 0.4351-0.26986 0.6726-1.1344 0.6641-1.6191-0.011-0.59357-0.3009-1.1534-0.1289-1.7734 0.048-0.17159 0.2177-0.34869 0.2812-0.51953 0.084-0.22299 0.2915-1.077 0.3047-1.2832 0-0.0476-0.1997-1.4401-0.1777-1.6797 0.026-0.27175 0.2104-0.43694 0.1269-0.94922-0.023-0.144-0.1271-0.34768-0.1777-0.48828-0.4048-0.35074-1.0821-0.53329-1.3731-0.97851-0.084-0.12662-0.3848-0.78737-0.4609-0.94532-0.1557-0.3239-0.2151-0.62781-0.457-0.91797 0.1228-0.39386 0.2993-0.8028 0.5078-1.1602 0.288-0.0839 0.6449-0.43565 0.7656-0.70313 0-0.0616-0.02-0.55206-0.027-0.58203-0.074-0.27515-0.7539-1.0506-0.9922-1.2226-0.41-0.29556-1.2881-0.64965-1.7832-0.70313zm37.953 1.9863v2e-3c-0.3545 4e-3 -0.734 0.0455-1.0781 0.1211-0.2888 0.16516-0.5579 0.65995-0.6094 0.97656 0.061 0.49251 0.2171 1.1276 0.6367 1.4375 0.7152 0.35338 1.453 0.15688 1.9356-0.45703v-1.1934c-0.1539-0.21317-0.3093-0.42516-0.459-0.64063l-0.3555-0.24609c-0.026-4e-5 -0.048-3e-4 -0.07 0zm13.732 6.4102v2e-3c-0.051 9.4e-4 -0.099 4e-3 -0.1406 8e-3l-0.3047 0.45703 0.1016 0.51953 1.0703 0.55078c0.5843-0.10091 1.1706-0.25576 1.7597-0.0898 0.051-0.31408-0.012-0.8238-0.1797-1.1016-0.3333-0.0227-1.0849-0.15433-1.375-0.30664 0 0-0.5725-0.044-0.9316-0.0391zm-9.3242 0.0898c-0.2222 4e-3 -0.442 0.0432-0.6211 0.13281-0.3693 0.44508-0.6172 0.99163-0.8906 1.498l0.1015 0.55078c0.4023 0.31937 0.5886 0.89368 0.7149 1.375 0.072 8e-3 0.6533 0.0932 0.6875 0.0898 0.043-3e-3 1.4715-0.44845 1.5293-0.45703 0.3001-0.034 0.7671 0.13399 0.9648 0.36719h0.6133l0.457-0.27734c0.011-0.24945 0.031-0.55925 0.127-0.79297l-0.457-0.30469c-0.3754 0.0393-0.8369-9e-3 -1.1973-0.12305 0.1039-1.1904-0.2108-1.7431-1.3926-1.9961-0.1882-0.0393-0.4126-0.0678-0.6348-0.0625zm-52.523 2.7617c-0.2718 0.24529-0.4799 0.80711-0.5098 1.1602l0.2051 0.49024 0.4589 0.33594h0.6114c0.1561-0.33903 0.3204-0.67385 0.4824-1.0098-0.068-0.29631-0.3204-0.69759-0.5586-0.88672zm1.5058 5.0918c-0.4587 2e-3 -0.8862 0.14774-1.3555 0.10352l-0.2011 0.48828 0.2011 0.48828c0.7995 0.38151 0.6646 1.1966 1.2754 1.6211h0.6114c0.6046-0.38193 1.2503-0.69414 1.8593-1.0703 0.1682-0.22412 0.2297-0.80718 0.2286-1.0703l-0.459-0.30664c-0.3349 0.0873-0.673 0.20372-0.9922 0.33789-0.333-0.16063-0.6703-0.36214-0.9688-0.58203-0.067-8e-3 -0.1334-8e-3 -0.1992-8e-3zm7.4649 2.3242c-0.043 1.2e-4 -0.079 3e-3 -0.1094 8e-3 -0.1886 0.0264-1.1118 0.45451-1.2735 0.58203-0.2392 0.18935-0.435 0.42754-0.6875 0.60937-0.3409-0.0752-0.7506-0.0754-1.0957-0.0293l-0.3554 0.42969c0 0.29859 0.1687 0.76261 0.3828 0.97657 0.3851 0.20787 0.9132 0.34148 1.3476 0.36718 0.2245 0.24076 0.4895 0.55976 0.6368 0.85547 0.075 0.15194 0.1037 0.33826 0.1796 0.49024 0.2068 0.41506 0.5824 0.93148 0.9161 1.252 0.5722 0.23168 1.1166-0.0846 1.6797 0.1543 0.4288 0.34091 0.5116 0.89524 0.8437 1.3125l0.4063 0.0937c1.5194-0.73765 1.4918-2.1046 0.1015-2.9648-0.2275-0.4984 0.05-0.7836 0.076-1.2207 0.043-0.68428-1.184-2.2203-1.6309-2.6602l-0.3769-0.12304c-0.2219-0.0427-0.7486-0.13004-1.0391-0.12891zm6.539 6.3047c-0.3485 0.33487-0.8563 0.69629-0.9668 1.1914l0.3047 0.42773 0.6133 0.24609 0.4844-0.21289c0.034-0.0741 0.1707-0.33928 0.2519-0.36914 0.057-0.31105-0.023-0.83432-0.2031-1.0996zm-1.3496 3.8496c-0.4133 0.23622-0.7806 1.0001-0.7891 1.4688-0.011 0.35036 0.1949 0.74615 0.2032 1.0996 0.011 0.67952-0.3321 1.328-0.3574 2.0156l0.2812 0.42969c0.3103 0.0522 0.8235-0.0113 1.0957-0.18359 0.3511-0.54611 0.159-0.75441 0.2285-1.2227 0.03-0.19842 0.1559-0.41264 0.2031-0.61133 0.068-0.28648 0.2077-1.7948 0.2032-2.0781 0-0.16403-0.071-0.38649-0.1016-0.55078l-0.3574-0.36719z" fill="#013378"/>
  <path transform="scale(.26458)" d="m1308.9 594.1c-1.3974 0.0862-1.4375 3.7227-3.4141 6.7773-2.75 4.25-11.25 5.375-13 7.375-1.75 2-6 8.625-8 10s-5.375-1.625-6.75-2.125-3.625-0.62497-12 1l-6.75-3.875s-42.375 6.625-44.75 7.75c-2.375 1.125-1.625 26.75-1.125 29s25 20.75 25 20.75l11.375-12.875s33.125-13.25 34.625-13.125c1.5 0.12499 14.75 6.375 14.75 6.375l10.25 12.5s10.125 6.2501 13.5 6.125c3.375-0.12499 4.75 0.74999 8.25 1.5 3.5 0.74997 10 1e-5 12.375-1.625s1.2498-3.25 1-9.25c-0.25-6 0.5-5.125 1.25-10.375s3.5-5.375 6.75-8.625 1.25-4.875-0.5-12-4.875-4.875-7.75-7.75-3.125-3.875-4.125-11.125c-1-7.2501-4.125-5.25-7.25-7.625-3.125-2.375-5.5-0.99993-8.5-0.625-3 0.375-8.625-1.75-12.75-6.375-1.1602-1.3008-1.9141-1.8111-2.4609-1.7773zm129.11 110.34c-0.9753-0.0357-1.9588 0.28068-2.9531 1.0762-5.3033 4.2427-2.8282 11.49-2.8282 16.086s2.8299 9.9011 4.5977 12.199c1.7677 2.2981 5.4795 1.5899 6.3633 10.252 0.8839 8.662 0.1761 12.906-2.2989 17.148-2.4747 4.2426-8.6609 11.666-9.8984 16.439-1.2374 4.773-3.5364 7.9554-0.8848 14.496s3.5354 12.904 1.4141 17.146c-2.1213 4.2426-3.8887 2.4758-3.5351 10.254 0.3533 7.7782 1.9447 8.4849-1.7676 12.904-3.7123 4.4194-9.5459 14.142-10.076 18.385-0.5303 4.2426-0.3533 4.0668-3.8887 9.1934-3.5355 5.1265-4.7736 9.5457-4.0664 11.49 0.7071 1.9445 5.3028 2.3867 5.3028 2.3867l7.248 4.5957 5.127 10.605-2.4747 19.623s42.094 27.779 44.094 27.279c2-0.50003 121-100.5 121-100.5l-38.875-127.86c-8.1317 2.4749-15.911 6.1876-22.982 4.7734-7.071-1.4142-9.7221-3.1829-15.025-0.53125s-6.1861 4.5967-10.606 4.4199c-4.4194-0.17688-3.7125 1.0614-7.9551 1.9453s-10.431 2.1203-15.734 0.5293-6.0094-5.3028-9.8985-4.2422c-3.889 1.0607-2.6527 7.7776-8.1328 5.6562-5.4801-2.1213-3.0043-1.7672-8.4844-5.6562-4.4525-3.1599-8.5547-9.9369-12.781-10.092z" clip-path="url(#clipPath27364)" filter="url(#filter27368)" opacity=".38" style="mix-blend-mode:normal"/>
 </g>
</svg>
