<?xml version="1.0" encoding="UTF-8"?>
<!-- Created with Inkscape (http://www.inkscape.org/) -->
<svg width="1920" height="1080" version="1.1" viewBox="0 0 508 285.75" xmlns="http://www.w3.org/2000/svg" xmlns:xlink="http://www.w3.org/1999/xlink">
 <defs>
  <filter id="filter8039" x="-.018251" y="-.019277" width="1.0365" height="1.0386" color-interpolation-filters="sRGB">
   <feGaussianBlur stdDeviation="2.415775"/>
  </filter>
  <clipPath id="clipPath1466">
   <path d="m330.56 61.901v0.0026c-0.055 0.11297-0.10298 0.22992-0.0899 0.26303 0.0159 0.03623 0.0697 0.07632 0.10025 0.09818 0.0696 0.04722 0.36991 0.18395 0.38602 0.20929 0.0795 0.1259-0.17737 0.75895-0.30694 0.80253-0.16592 0.05548-0.33414-0.29466-0.47749-0.08888-0.17743 0.25393 0.31303 0.75198 0.17774 0.87643-0.0289 0.02695-0.24005 0.01651-0.28834 0.01913-0.11361 0.0024-0.19621-0.07545-0.30903-0.07545-0.0677 0-0.13211 0.05682-0.18706 0.09147-0.12348 0.07733-0.30485 0.20356-0.13539 0.34882 0.0305 0.02673 0.34729 0.31037 0.30694 0.40204-0.1288 0.29058-0.46447 0.1519-0.63664 0.31936-0.1152 0.11198 0.039 0.29442 0 0.42013-0.0375 0.12376-0.31938 0.12841-0.37258 0.25218-0.0475 0.1113 0.15941 0.3197-0.0161 0.36742-0.25472 0.07019-0.39987-0.40713-0.85058-0.30075-0.0983 0.03918-0.60786 0.48834-0.30335 0.55914 0.22622 0.05253 0.31755-0.03981 0.43717-0.01344 0.10859 0.02673 0.67659 0.28179 0.47802 0.44545-0.18565 0.15311-0.52363 0.15021-0.64751 0.17208-0.29906 0.05231-0.35457-0.20687-0.54777-0.14366-0.24058 0.07812-0.10308 0.2562-0.15245 0.35398-0.13041 0.25366-0.65664 0.28597-0.89863 0.20722-0.18248-0.05898-0.35015-0.1135-0.34676-0.3421 0-0.03918 0.24206-0.54088 0.0164-0.55966-0.10012-8e-3 -0.26159 0.2377-0.38706 0.29197-0.32419 0.14004-0.25498-0.22152-0.509-0.13643-0.14084 0.04698-0.19379 0.42066-0.31266 0.54105-0.18775 0.19036-0.46162 0.22413-0.69141 0.32866 0.77946 1.0513 0.65423 2.1085 0.74567 3.4339 0.0935 1.3564 0.88847 1.6373 1.9642 2.6195 1.0758 0.98222 1.5435 1.7773 1.7306 2.9466 0.18709 1.1693 0.42098 2.853-0.46767 3.6949-0.85897 0.81378-0.88855 2.0113-1.1224 3.5548-0.23384 1.5435-1.4032 2.4318-2.1983 3.0866-0.79512 0.65481-1.0291 2.9467-1.0759 4.0225-0.0468 1.0758 1.0756 1.7775 1.5901 2.9936 0.51449 1.2161-0.70146 1.6368-1.2159 1.8707-0.51451 0.23386-4.1162 1.8244-4.8178 2.3389-0.70159 0.5145-2.0075 2.8755-3.2737 2.9931-1.063 0.0987-1.7305 1.1697-2.853 1.4035-0.76353 0.15908-1.7565 0.77399-2.5337 1.2635 0.0856 0.0496 0.1441 0.15489 0.22064 0.35088 0.12377 0.14002 0.33393 0.0804 0.46511 0.20981 0.0696 0.12219 0.0898 0.27643 0.12039 0.41238 0.23526 0.26248 0.51829 0.0997 0.73432 0 0.13232-0.0605 0.26596-0.0988 0.38449-0.19379 0.14724-0.1185 0.27006-0.28386 0.4444-0.37207 0.0949-0.0483 0.19182-0.0457 0.2899-0.0734 0.0933-0.0266 0.18203-0.0906 0.27596-0.11369 0.0494-0.0133 0.10546-2e-3 0.15452-0.0155 0.12192-0.0305 0.30268-0.10901 0.41807-0.16226 0.13044-0.06 0.26908-0.11477 0.39687-0.17777 0.29012-0.14269 0.4299-0.27642 0.76171-0.39584l0.15658 0.0641c0.0712 0.0957 0.0724 0.22929 0.0605 0.34261-0.0814 0.7111-0.87641 0.57823-1.186 1.186-0.12192 0.23954-0.0934 0.68079-0.23566 0.8568-0.0576 0.073-0.15981 0.10544-0.22943 0.16175-0.037 0.0305-0.0627 0.0763-0.0997 0.10542-0.39825 0.30402-0.55465 0.21756-0.74983 0.83251-0.0609 0.19363-0.11851 0.34027-0.0915 0.54983l0.14211 0.0486c0.20915-0.24058 0.38891-0.21365 0.66715-0.28319l0.13538 0.0806-0.0212 0.16949c-0.0949 0.0983-0.25223 0.16264-0.33073 0.26769-0.0932 0.12537-0.13005 0.28135-0.24239 0.40359 0.0159 0.0945 0.0457 0.19728 0.0879 0.28319 0.1814 0.17977 1.0004 0.17779 1.2811 0.21859 0.19095 0.028 0.37034 0.13694 0.55912 0.14521 0.0763 2e-3 0.22902-0.0443 0.29612-0.0806l0.13592 0.0491c0 0.38699-0.33229 0.67013-0.70747 0.68678-0.15068-0.0629-0.30369-0.16203-0.47181-0.16123l-0.0677 0.13694 0.0527 0.12971c0.12189 0.0644 0.24844 0.16888 0.31678 0.29094-0.0696 0.23794-0.20039 0.40821-0.19587 0.67076 0.10507 0.0906 0.21979 0.18668 0.2899 0.30747 0.14563-0.0113 0.26144-0.12249 0.40413-0.11369l0.0527 0.12919c-0.0661 0.0769-0.14882 0.13111-0.21497 0.20258-0.0677 0.073-0.10877 0.17887-0.17571 0.25063-0.0307 0.0339-0.0832 0.0554-0.11523 0.0894-0.0677 0.071-0.10858 0.15378-0.18862 0.21807-0.0266 0.14643 0.0161 0.29499-0.0403 0.43667-0.0642 0.091-0.14597 0.11664-0.22942 0.17828-0.14915 0.11117-0.28197 0.54465-0.28321 0.72812 0.11872 0.0865 0.49332 0.2582 0.53279 0.32298l-0.0527 0.16175-0.16899 9e-3c-0.0968-0.11715-0.24802-0.20395-0.39119-0.25063-0.0713 2e-3 -0.5084 0.14149-0.56586 0.17777l-0.0677 0.0708c-0.1152 0.11899-0.27284 0.17004-0.38447 0.27802-0.0541 0.0518-0.0994 0.13664-0.15039 0.19586-0.0159 0.0159-0.0214 0.0214-0.032 0.0377-0.0437 0.0838-0.0679 0.17313-0.108 0.25993h47.892c-0.0639-0.0394-0.12895-0.0775-0.18502-0.12505-0.62307-0.52791-0.73901-1.0613-0.70794-1.8428 0-0.21177-0.0376-0.47061 0.0542-0.67179 0-0.0133 0.0812-0.10422 0.0946-0.12092 0.23392-0.30096 0.29874-0.29805 0.32401-0.70332 0.0159-0.27374-0.0273-0.30871-0.18862-0.52555-0.0159-0.0912 1.1e-4 -0.22215 0.0341-0.30696 0.27776-0.17444 0.47619 0.0736 0.60669 0.28216l0.12194 0.0243c0.0795-0.041 0.31867-0.18684 0.39069-0.19431 0.17631-0.0186 0.50932 0.0754 0.694 0.0155l0.0884-0.12041c0.0509-0.26768-0.13071-0.32084-0.26305-0.48576-0.0831-0.104-0.14703-0.23814-0.22892-0.34778l-0.12866 0.0729c-0.0458 0.0932-0.10031 0.18505-0.16174 0.26717-0.1033 9e-3 -0.20757 0.0212-0.31007 0.0403-0.28355-0.15257-0.54512-0.0265-0.84182-0.11317-0.10507-0.0965-0.19887-0.20293-0.30332-0.29921 0.1016-0.0929 0.17684-0.0595 0.27646-0.0977 0.15415-0.0587 0.41018-0.43198 0.6935-0.50953 0.0898 0.0644 0.22225 0.11393 0.3302 0.12971l0.10903-0.0894c0.0319-0.10722 0.0284-0.25952 0.0672-0.35554 0.0509-0.12828 0.29096-0.35528 0.41757-0.41237 0.0459-0.0214 0.0969-0.0212 0.14107-0.0403 0.28247-0.13043 0.44255-0.29791 0.78394-0.18345 0.0831 0.028 0.16573 0.059 0.22013 0.13487 0.0795 0.11017 0.063 0.46303 0.0615 0.60617 0.11872 0.11923 0.28072 0.0625 0.4041 0.18603 0.1016 0.10159 0.24289 0.66988 0.24289 0.81649 0 0.0533-0.0529 0.30839-0.0749 0.35605-0.0626 0.13897-0.21498 0.20592-0.27597 0.35553 0.0526 0.2882 0.0716 0.53635-0.0744 0.80874 0.0831 0.15763 0.28025 0.34854 0.45734 0.38034 0.0983-0.032 0.22743-0.0434 0.33073-0.0326 0.13387-0.083 0.20526-0.25125 0.20206-0.40411 0-0.15122-0.0914-0.26879-0.13539-0.40462-0.0375-0.11849-0.0697-0.30402-0.0817-0.4284-0.0388-0.4455-0.11475-1.2044-0.22841-1.6252-0.11359-0.42211-0.20828-0.85644-0.25633-1.2935-0.0474-0.42531-0.16812-1.1536-0.0615-1.5606 0.0307-0.11544 0.0799-0.22654 0.11059-0.3452 0.0594-0.23366 0.0981-0.42292 0.19947-0.64131 0.0627-0.13605 0.12213-0.32755 0.21601-0.44493 0.0405-0.0514 0.13015-0.10388 0.1819-0.15348 0.24326-0.23366 0.32269-0.48089 0.37724-0.80874 0.0557-0.33542-0.2-0.38632-0.24908-0.62321-0.0188-0.0893-0.0159-0.21495 0-0.30696-0.0544-0.1595-0.28405-0.23394-0.37724-0.42013-0.12192-0.0683-0.20685-0.0242-0.31729-0.0486-0.0779-0.0187-0.14091-0.0871-0.22894-0.0889l0.0889 0.0563-0.10904-0.0563c-0.14083 0.0614-0.31347 0.0967-0.45839 0.0315-0.0307-0.21872 0.0929-0.44063 0.0672-0.67127-0.0267-0.2334-0.16187-0.4614-0.16693-0.69505-0.0159-0.5119 0.1233-0.82726 0.41032-1.2366 0.0188-0.02666 0.0645-0.11991 0.0817-0.13746 0.18137-0.18859 0.63518-0.30101 0.73432-0.46922-0.0159-0.17443-0.0318-0.30837 0.0677-0.46147 0.11211-0.17072 0.30867-0.21599 0.46459-0.33176 0.11361-0.08402 0.20793-0.23231 0.31675-0.30696 0.0458-0.03152 0.12161-0.04084 0.17521-0.07286 0.37515-0.22539 0.49324-0.40163 0.97719-0.35864 0.0901 0.0091 0.18642 0.02159 0.24908 0.09974 0.0241 0.0829 0.0763 0.17859 0.13538 0.24288l0.1473 0.01654c0.30125-0.18085 0.21407-0.16263 0.43148-0.38861 0.42693-0.4438 0.41233-0.55008 1.0237-0.77566 0.16111 0.02392 0.32478 0.10892 0.48575 0.10439 0.1033-0.0021 0.21365-0.04104 0.31626-0.05685 0.45178-0.06942 0.69408-0.12665 0.76171-0.65422-0.073-0.1403-0.29734-0.28468-0.26974-0.4532 0.19552 0 0.33149 0.11612 0.5121 0.14521 0.23476 0.0379 0.42635-0.04346 0.64701-0.07235 0.0695-0.0091 0.25874-0.03144 0.32348-0.03256 0.0592-0.0011 0.13049 0.02855 0.18862 0.02429 0.14756-0.01135 0.27366-0.13747 0.42426-0.16175 0.16272-0.18324 0.29464-0.56438 0.2894-0.80822 0-0.14217-0.0572-0.30567-0.0605-0.44493 0-0.21633 0.12192-0.41851 0.22273-0.59841 0.076-0.13471 0.14171-0.26823 0.27543-0.35553 0.2994-0.19498 0.39148-0.03896 0.62683-0.09715 0.15763-0.03837 0.51781-0.49664 0.61391-0.63924 0.0557-0.08265 0.0902-0.19115 0.16796-0.2589 0.0795-0.06964 0.18129-0.07231 0.26974-0.11369 0.27794-0.12804 0.75091-0.61641 0.42376-0.91312 0.13549-0.10507 0.35824-0.01945 0.51263-0.0088 0.24725 0.01595 0.6623-0.05297 0.80822 0.21859 0.1203 0.03622 0.25982 0.08114 0.38446 0.09767 0.10859 0.01595 0.22704-0.0136 0.33692-0.0083 0.19392 8e-3 0.38833 0.06091 0.57931 0.08888 0.16428 0.024 0.38714-0.0163 0.53949 0.04031 0 0.0024 0.11996 0.08159 0.12662 0.0894 0.0998 0.09658 0.12052 0.25069 0.21601 0.35605 0.2318-0.06771 0.73128-0.41488 0.92242-0.42891 0.11358-8e-3 0.25434 0.04348 0.37102 0.04857 0.22249 0.01016 0.59727-0.0077 0.79584-0.11317l0.0403-0.14521c-0.23739-0.34216 0.23929-1.0121 0.82217-0.68781 0.073 0.11363 0.1657 0.2288 0.22894 0.34778 0.0677 0.1283 0.10488 0.26132 0.19531 0.38034 0.13044 0.06137 0.46043 0.25861 0.59325 0.20981 0.15259-0.25714 0.0156-0.5836 0.21498-0.82476 0.12538-0.07019 0.27397-0.10572 0.39118-0.18603 0.11716-0.07971 0.23458-0.17541 0.35039-0.2589 0.18992-0.13684 0.34073-0.35029 0.55912-0.44442 0.22569-0.09738 0.49654-0.1759 0.74157-0.1943 0.19074-0.01595 0.46837 0.02103 0.64646-0.05684 0.14407-0.06192 0.27869-0.44212 0.63357-0.5979 0.36206-0.15898 0.87471-0.10585 1.1798-0.31523 0.16777-0.11496 0.13708-0.27096 0.24911-0.40514 0.0319-0.03974 1.2896-0.84636 1.3472-0.86454 0.31183-0.09806 0.52408 0.12619 0.86921 0.04702-1.6679-1.0719-3.6012-2.4717-4.3651-3.4463-1.3564-1.7306-2.1043-2.6193-3.8349-3.8354-1.7306-1.2161-1.4033-0.60798-3.3678-0.56121-1.9644 0.04677-3.3208 0.32731-5.2384 0.93534-1.9176 0.60804-2.1985-0.42079-3.1807-1.4965-0.98222-1.0758-1.1223-1.0291-2.2448-1.3565-1.1225-0.32741-2.3854 0.4679-4.6772 0.70176-2.2918 0.23386-3.134 0.561-4.8178 0.14004-1.5985-0.39962-3.6015 0.56145-4.7708 0.70176-1.1693 0.14032-1.0758-0.46805-1.6371-1.7777-0.56126-1.3096-1.1716-1.7119-1.4495-2.7125-0.23384-0.8419-1.4969-0.98249-2.8065-2.2453-1.3096-1.2628-1.4032-0.74828-2.3854-0.74828-0.98224 0-1.4502 0.04677-2.8065 0-1.3564-0.04677-1.0288-0.37431-1.4966-1.1694-0.46773-0.79513-0.32732-1.2156-0.74827-1.6366-0.42095-0.42095-0.79515-1.9647-2.2918-2.0583-1.0365-0.06478-1.029-1.2629-2.3854-1.7306-1.0921-0.37658-1.59-1.1223-2.5254-2.0578-0.22815-0.22815-0.53785-0.45869-0.87022-0.67748zm47.585 29.65-0.0946 0.04082c-0.0201 0.17385-0.13411 0.28848-0.23566 0.42013l0.0476 0.12919 0.20878 0.04857c0.079-0.03328 0.19259-0.09189 0.27596-0.1049 0.11835-0.01847 0.24035 0.01839 0.35708 0.02429 0.21119 9e-3 0.40203-0.06152 0.55293-0.21032 8e-3 -0.10224 0-0.22443-0.0274-0.32349l-0.12816 0.0083c-0.0537 0.07744-0.132 0.15541-0.20879 0.20981-0.22455-0.14299-0.57782-0.06205-0.74723-0.24236zm-16.159 16.674-0.16846 8e-3 -0.0605 0.12919c0.0193 0.13127 0.0702 0.29832 0.18912 0.37259l0.1478 8e-3c0.061-0.0606 0.1193-0.15965 0.1416-0.24288l-0.0201 8e-3c-0.0185-0.0688-0.0499-0.13844-0.0811-0.20206zm-1.1591 2.3766-0.12094 0.0723-0.0201 0.13746c0.0947 0.11996 0.27704 0.16963 0.41082 0.23461 0.10326-0.0603 0.27826-0.11812 0.31678-0.24184-0.0953-0.0385-0.19592-0.097-0.27596-0.16175v-0.0171c-0.10332-6e-3 -0.20698-0.0148-0.31006-0.0238zm4.4881 2.2154-0.14158 0.0486-0.0408 0.34778 0.1085 0.0569c0.11631 3e-3 0.30438-0.0466 0.37674-0.14573-0.0527-0.0731-0.17518-0.22634-0.17518-0.22634zm-3.4701 1.003c-0.0535 0.0506-0.0549 0.18178-0.0491 0.32815h0.38653c-0.0419-0.12328-0.0243-0.18441-0.18862-0.31212z" fill="#013378"/>
  </clipPath>
 </defs>
 <g>
  <path transform="scale(.26458)" d="m1249.4 233.97c-0.2079 0.42699-0.3891 0.869-0.3399 0.99414 0.06 0.13693 0.2635 0.28847 0.3789 0.37109 0.2631 0.17847 1.3981 0.69525 1.459 0.79102 0.3005 0.47585-0.6704 2.8685-1.1601 3.0332-0.6271 0.20969-1.2629-1.1137-1.8047-0.33594-0.6705 0.95973 1.1831 2.8421 0.6718 3.3125-0.1092 0.10186-0.9073 0.06237-1.0898 0.07227-0.4294 9e-3 -0.7416-0.28516-1.168-0.28516-0.2558 0-0.4993 0.21474-0.707 0.3457-0.4667 0.29229-1.1522 0.76935-0.5117 1.3184 0.1153 0.10103 1.3126 1.1731 1.1601 1.5195-0.4868 1.0982-1.7555 0.57413-2.4062 1.207-0.4354 0.42321 0.1474 1.1128 0 1.5879-0.1417 0.46776-1.2071 0.48532-1.4082 0.95312-0.1795 0.42065 0.6026 1.2083-0.0606 1.3887-0.9627 0.26529-1.5113-1.5387-3.2148-1.1367-0.3715 0.14808-2.2974 1.8457-1.1465 2.1133 0.855 0.19854 1.2002-0.15043 1.6523-0.05078 0.4105 0.10102 2.5572 1.065 1.8067 1.6836-0.7017 0.57867-1.9791 0.56772-2.4473 0.65039-1.1303 0.19771-1.3401-0.78188-2.0703-0.54297-0.9093 0.29526-0.3896 0.9683-0.5762 1.3379-0.4929 0.95871-2.4817 1.0808-3.3964 0.7832-0.6896-0.22291-1.3234-0.42896-1.3106-1.293 0-0.14809 0.9149-2.0443 0.0625-2.1152-0.3784-0.0302-0.9887 0.89838-1.4629 1.1035-1.2253 0.52929-0.9637-0.83725-1.9238-0.51563-0.5323 0.17756-0.7323 1.5899-1.1817 2.0449-0.7096 0.71949-1.7447 0.84709-2.6132 1.2422 2.946 3.9735 2.4726 7.9691 2.8183 12.979 0.3535 5.1265 3.358 6.1881 7.4239 9.9004s5.8338 6.7173 6.541 11.137c0.7071 4.4194 1.5911 10.783-1.7676 13.965-3.2465 3.0757-3.3583 7.6019-4.2422 13.436-0.8838 5.8336-5.3034 9.1911-8.3086 11.666-3.0052 2.4749-3.8895 11.137-4.0664 15.203-0.1768 4.0659 4.0652 6.7183 6.0098 11.314 1.9445 4.5962-2.6512 6.1864-4.5957 7.0703-1.9446 0.88388-15.557 6.8953-18.209 8.8398-2.6517 1.9446-7.5875 10.868-12.373 11.312-4.0176 0.37319-6.5405 4.4208-10.783 5.3047-2.8858 0.60123-6.6388 2.9253-9.5761 4.7754 0.3234 0.18738 0.5446 0.58542 0.8339 1.3262 0.4678 0.52921 1.2622 0.30378 1.7579 0.79297 0.263 0.46182 0.3393 1.0448 0.455 1.5586 0.8892 0.99205 1.9589 0.37682 2.7754 0 0.5001-0.22866 1.0053-0.37356 1.4532-0.73242 0.5565-0.44788 1.0207-1.0729 1.6796-1.4062 0.3587-0.18255 0.725-0.17265 1.0957-0.27735 0.3527-0.10053 0.688-0.34234 1.043-0.42968 0.1867-0.0503 0.3986-7e-3 0.584-0.0586 0.4608-0.11527 1.144-0.41202 1.5801-0.61328 0.493-0.22677 1.017-0.43376 1.5-0.67187 1.0965-0.5393 1.6248-1.0448 2.8789-1.4961l0.5918 0.24219c0.2691 0.3617 0.2738 0.86663 0.2285 1.2949-0.3077 2.6876-3.3124 2.1854-4.4824 4.4824-0.4608 0.90535-0.3529 2.573-0.8907 3.2383-0.2177 0.2759-0.604 0.3985-0.8671 0.61132-0.1399 0.11528-0.2368 0.28849-0.377 0.39844-1.5052 1.149-2.0963 0.82227-2.834 3.1465-0.2302 0.73183-0.448 1.2861-0.3457 2.0781l0.5371 0.18359c0.7905-0.90927 1.4699-0.80748 2.5215-1.0703l0.5117 0.30469-0.08 0.64062c-0.3587 0.37153-0.9532 0.61468-1.25 1.0117-0.3523 0.47384-0.4916 1.0634-0.9161 1.5254 0.06 0.35717 0.1726 0.74562 0.3321 1.0703 0.6856 0.67944 3.7811 0.67196 4.8418 0.82617 0.7217 0.10582 1.3997 0.51757 2.1132 0.54883 0.2884 8e-3 0.8656-0.16749 1.1192-0.30469l0.5137 0.18555c0 1.4626-1.256 2.5328-2.6739 2.5957-0.5696-0.23773-1.1478-0.6124-1.7832-0.60938l-0.2558 0.51758 0.1992 0.49024c0.4607 0.2434 0.9391 0.63835 1.1973 1.0996-0.2631 0.8993-0.7574 1.5428-0.7403 2.5352 0.3971 0.34243 0.8307 0.70558 1.0957 1.1621 0.5504-0.0427 0.9882-0.46295 1.5274-0.42969l0.1992 0.48828c-0.2498 0.29066-0.5625 0.49554-0.8125 0.76563-0.2559 0.27591-0.4111 0.67608-0.6641 0.94727-0.116 0.12812-0.3144 0.20938-0.4355 0.33789-0.2559 0.26834-0.4104 0.58123-0.7129 0.82421-0.1006 0.55345 0.061 1.1149-0.1524 1.6504-0.2426 0.34393-0.5516 0.44085-0.8671 0.67382-0.5636 0.42017-1.0658 2.0585-1.0704 2.752 0.4487 0.32693 1.8645 0.97586 2.0137 1.2207l-0.1992 0.61133-0.6387 0.03515c-0.3658-0.44277-0.9374-0.77083-1.4785-0.94726-0.2695 8e-3 -1.9216 0.53475-2.1387 0.67187l-0.2558 0.26563c-0.4354 0.44969-1.0312 0.64267-1.4531 1.0508-0.2046 0.19578-0.3758 0.51641-0.5684 0.74023-0.06 0.0601-0.081 0.0826-0.1211 0.14454-0.1645 0.31608-0.2652 0.65312-0.416 0.98046h181c-0.2374-0.1464-0.4791-0.28796-0.6875-0.46484-2.3549-1.9952-2.793-4.0111-2.6757-6.9648 0-0.80043-0.1419-1.7787 0.205-2.5391 0-0.0503 0.3068-0.39391 0.3575-0.45703 0.8841-1.1375 1.1291-1.1265 1.2246-2.6582 0.06-1.0346-0.1033-1.1668-0.7129-1.9863-0.06-0.34469 4e-4 -0.83965 0.1289-1.1602 1.0498-0.65931 1.7998 0.27833 2.2929 1.0664l0.461 0.0918c0.3005-0.15496 1.2043-0.70614 1.4765-0.73438 0.6665-0.0703 1.9251 0.28499 2.6231 0.0586l0.334-0.45508c0.1924-1.0117-0.4941-1.2126-0.9942-1.8359-0.314-0.39307-0.5557-0.90003-0.8652-1.3144l-0.4863 0.27539c-0.1731 0.35225-0.3791 0.69938-0.6114 1.0098-0.3903 0.034-0.7844 0.0802-1.1718 0.15234-1.0717-0.57664-2.0603-0.10013-3.1817-0.42774-0.3971-0.36472-0.7517-0.76699-1.1465-1.1309 0.384-0.35111 0.6685-0.22476 1.045-0.36914 0.5826-0.22185 1.5503-1.6327 2.6211-1.9258 0.3394 0.2434 0.84 0.43063 1.248 0.49024l0.4121-0.33789c0.1206-0.40524 0.1073-0.98088 0.2539-1.3438 0.1924-0.48488 1.0996-1.3428 1.5782-1.5586 0.1734-0.0809 0.3664-0.0802 0.5332-0.15234 1.0676-0.49296 1.6725-1.126 2.9628-0.69336 0.3141 0.10583 0.6265 0.22298 0.8321 0.50977 0.3004 0.41639 0.2381 1.75 0.2324 2.291 0.4487 0.4506 1.061 0.23613 1.5273 0.70313 0.384 0.38396 0.918 2.5318 0.918 3.0859 0 0.20145-0.2 1.1656-0.2832 1.3457-0.2366 0.52524-0.8125 0.77825-1.043 1.3438 0.1988 1.0893 0.2706 2.0271-0.2812 3.0566 0.3141 0.59576 1.0592 1.3173 1.7285 1.4375 0.3715-0.12095 0.8596-0.16387 1.25-0.12305 0.506-0.3137 0.7758-0.94964 0.7637-1.5273 0-0.57158-0.3453-1.016-0.5117-1.5293-0.1418-0.44787-0.2633-1.149-0.3086-1.6191-0.1467-1.6838-0.4337-4.5523-0.8633-6.1426-0.4293-1.5954-0.7872-3.2369-0.9688-4.8887-0.1791-1.6074-0.6355-4.36-0.2324-5.8984 0.116-0.43631 0.3019-0.85621 0.418-1.3047 0.2245-0.88312 0.3706-1.5984 0.7539-2.4238 0.237-0.51421 0.4616-1.238 0.8164-1.6816 0.1531-0.19427 0.4919-0.39262 0.6875-0.58008 0.9194-0.88313 1.2196-1.8175 1.4258-3.0566 0.2105-1.2678-0.7559-1.4601-0.9414-2.3555-0.071-0.33751-0.06-0.81244 0-1.1602-0.2056-0.60287-1.0736-0.88418-1.4258-1.5879-0.4608-0.25814-0.7818-0.0914-1.1992-0.18359-0.2945-0.0707-0.5326-0.32914-0.8653-0.33594l0.336 0.21484-0.4121-0.21484c-0.5323 0.23206-1.1849 0.36752-1.7325 0.12109-0.116-0.82669 0.3511-1.6654 0.2539-2.5371-0.1009-0.8821-0.6117-1.7439-0.6308-2.627-0.06-1.9347 0.466-3.1286 1.5508-4.6758 0.071-0.10076 0.2439-0.45319 0.3086-0.51953 0.6855-0.71278 2.4006-1.1377 2.7754-1.7734-0.0601-0.65927-0.1203-1.1655 0.2558-1.7441 0.4237-0.64525 1.1667-0.81635 1.7559-1.2539 0.4294-0.31755 0.7859-0.878 1.1972-1.1602 0.1731-0.11913 0.4596-0.15238 0.6621-0.27344 1.418-0.85186 1.8643-1.518 3.6934-1.3555 0.3405 0.0344 0.7046 0.0797 0.9414 0.375 0.091 0.31332 0.2882 0.675 0.5117 0.91797l0.5567 0.0625c1.1386-0.68352 0.8091-0.61466 1.6308-1.4688 1.6135-1.6773 1.5584-2.079 3.8692-2.9316 0.6089 0.0904 1.2275 0.41165 1.8359 0.39453 0.3904-8e-3 0.8075-0.15509 1.1953-0.21484 1.7075-0.26238 2.6233-0.47869 2.8789-2.4727-0.2759-0.53026-1.1238-1.076-1.0195-1.7129 0.739 0 1.2528 0.43889 1.9355 0.54883 0.8872 0.14324 1.6114-0.16425 2.4454-0.27344 0.2626-0.0344 0.9779-0.11881 1.2226-0.12305 0.2238-4e-3 0.4932 0.1079 0.7129 0.0918 0.5577-0.0429 1.0343-0.51959 1.6035-0.61133 0.615-0.69258 1.1136-2.1331 1.0938-3.0547 0-0.53732-0.2161-1.1553-0.2285-1.6816 0-0.81763 0.4607-1.5818 0.8417-2.2617 0.2873-0.50914 0.5357-1.0138 1.0411-1.3438 1.1316-0.73692 1.4796-0.14726 2.3691-0.36719 0.5958-0.14502 1.9571-1.877 2.3203-2.416 0.2105-0.31237 0.341-0.72244 0.6348-0.97851 0.3005-0.26321 0.6852-0.27329 1.0195-0.42969 1.0505-0.48393 2.8381-2.3297 1.6016-3.4512 0.5121-0.39711 1.354-0.07175 1.9375-0.03125 0.9345 0.0603 2.5032-0.20021 3.0547 0.82617 0.4547 0.13689 0.982 0.30667 1.4531 0.36914 0.4104 0.0603 0.8581-0.05155 1.2734-0.03125 0.7329 0.0302 1.4677 0.23022 2.1895 0.33594 0.6209 0.0907 1.4632-0.0616 2.039 0.15234 0 9e-3 0.4534 0.30837 0.4786 0.33789 0.3772 0.36503 0.4555 0.94749 0.8164 1.3457 0.8761-0.25592 2.7639-1.5681 3.4863-1.6211 0.4293-0.0302 0.9613 0.16436 1.4023 0.1836 0.8409 0.0384 2.2574-0.029 3.0078-0.42774l0.1524-0.54883c-0.8972-1.2932 0.9044-3.8252 3.1074-2.5996 0.2759 0.42946 0.6262 0.86475 0.8652 1.3145 0.2559 0.48491 0.3965 0.98767 0.7383 1.4375 0.493 0.23195 1.7402 0.97744 2.2422 0.79297 0.5767-0.97185 0.059-2.2057 0.8125-3.1172 0.4739-0.26529 1.0354-0.3996 1.4785-0.70313 0.4428-0.30126 0.8866-0.66296 1.3242-0.97851 0.718-0.51719 1.2878-1.3239 2.1133-1.6797 0.853-0.36805 1.8767-0.6648 2.8028-0.73437 0.7209-0.06031 1.7702 0.0795 2.4433-0.21485 0.5445-0.23403 1.0533-1.671 2.3946-2.2598 1.3684-0.60085 3.3059-0.40006 4.4589-1.1914 0.6341-0.43451 0.518-1.0241 0.9414-1.5312 0.1206-0.1502 4.8742-3.1988 5.0918-3.2676 1.1786-0.37062 1.9808 0.47697 3.2852 0.17774-6.3038-4.0512-13.611-9.3419-16.498-13.025-5.1265-6.5408-7.9534-9.8999-14.494-14.496-6.5407-4.5962-5.3039-2.2979-12.728-2.1211-7.4246 0.17678-12.551 1.2371-19.799 3.5352-7.2478 2.2981-8.3092-1.5904-12.022-5.6562-3.7123-4.0658-4.2417-3.8895-8.4844-5.127-4.2426-1.2374-9.0157 1.7685-17.678 2.6523-8.6621 0.88387-11.845 2.1203-18.209 0.5293-6.0415-1.5104-13.612 2.122-18.031 2.6523-4.4194 0.53035-4.066-1.769-6.1875-6.7187-2.1213-4.9498-4.4279-6.4701-5.4785-10.252-0.8839-3.182-5.6577-3.7134-10.607-8.4863-4.9498-4.773-5.3033-2.8281-9.0156-2.8281-3.7124 0-5.481 0.17677-10.607 0-5.1267-0.17678-3.8885-1.4147-5.6563-4.4199-1.7678-3.0052-1.2371-4.5946-2.8281-6.1856s-3.0053-7.4258-8.6621-7.7793c-3.9175-0.24484-3.8891-4.7732-9.0157-6.541-4.1275-1.4233-6.0094-4.2418-9.5449-7.7774-0.8623-0.8623-2.0328-1.7336-3.289-2.5605zm179.85 112.05-0.3574 0.1543c-0.076 0.65707-0.5069 1.0903-0.8907 1.5879l0.1797 0.48828 0.7891 0.18359c0.2986-0.12578 0.7279-0.3473 1.043-0.39648 0.4473-0.0698 0.9084 0.0695 1.3496 0.0918 0.7982 0.034 1.5195-0.23251 2.0898-0.79493 0.03-0.38642 0-0.84823-0.1035-1.2226l-0.4844 0.03125c-0.2029 0.29268-0.4989 0.5874-0.7891 0.79297-0.8488-0.54043-2.1839-0.23451-2.8242-0.91602h-0.0019zm-61.072 63.021-0.6367 0.02929-0.2285 0.48828c0.073 0.49614 0.2655 1.1275 0.7148 1.4082l0.5586 0.02929c0.2306-0.22904 0.4509-0.60342 0.5352-0.91797l-0.0762 0.03126c-0.07-0.26005-0.1887-0.52322-0.3066-0.76368l-0.5606-0.30468zm-4.3808 8.9824-0.4571 0.27344-0.0761 0.51953c0.3579 0.45339 1.0471 0.64112 1.5527 0.88671 0.3903-0.2279 1.0517-0.44645 1.1973-0.91406-0.3603-0.14551-0.7405-0.36649-1.043-0.61133v-0.06445c-0.3905-0.0226-0.7823-0.05594-1.1719-0.08984h-0.0019zm16.963 8.373-0.5351 0.1836-0.1543 1.3144 0.4101 0.21485c0.4396 0.0113 1.1504-0.17631 1.4239-0.55079-0.1992-0.27628-0.6621-0.85545-0.6621-0.85547l-0.4825-0.30664zm-13.119 3.7988c-0.1929 0.18238-0.1618 0.71243-0.1445 1.2324h1.4179c-0.1541-0.45971-0.0936-0.69214-0.7109-1.1719l-0.5625-0.06055z" fill="#013378"/>
  <path d="m305.06 107.49c1.8521-1.5214 11.112-5.5562 12.303-6.2838 1.1906-0.72761 1.2568-2.5135 4.8286-4.101 3.5719-1.5875 5.1594-2.249 5.0271-3.0427-0.1323-0.79375-0.99219-3.9026-1.3229-4.6302s-0.79375-1.7859 0.39687-1.9182c1.1906-0.13229 2.5136 0 2.5797-0.66146 0.0661-0.66146-0.0661-2.4474 0.52917-3.5057 0.59531-1.0583 3.5719-3.7703 4.8286-3.4396 1.2568 0.33073 2.1167 1.7859 1.9844 2.5797s0 0.8599 0.99219 1.9182c0.99218 1.0583 0.39687 1.5214 1.3229 1.5214 0.92605 0 1.3229-0.99219 2.9766-2.1167 1.6536-1.1245 2.5797-0.7276 3.9688 0.06615 1.3891 0.79375 2.3812 1.9182 3.638 0.7276s2.9104-2.712 3.7703-2.5797c0.8599 0.13229 0.8599 1.2568 1.7198 1.2568 0.8599 0 3.2412-0.8599 4.0349-1.3891 0.79375-0.52917 2.3812 0.19844 3.3734 0.66146 0.99219 0.46302 3.3734 0.19844 4.4318-0.06615 1.0583-0.26458 2.249-0.46302 3.0427-0.39688 0.79375 0.06615 0.79375 1.4552 1.9844 1.0583 1.1906-0.39688 1.8521-1.6536 3.3734-1.6536 1.5214 0 3.5057 0.8599 3.7042 1.7198 0.19844 0.8599 0.92605 2.9766 1.8521 3.7703s8.2682 4.1672 8.5328 4.1672 109.47 20.356 109.47 20.356l43.03 200.56s-153.79 75.21-172.87 68.1c-19.083-7.1094-144.81-43.779-144.81-45.275 0-1.4967 21.702-208.04 23.573-208.04 1.8709 0 57.733-19.359 57.733-19.359z" clip-path="url(#clipPath1466)" filter="url(#filter8039)" opacity=".38" style="mix-blend-mode:normal"/>
 </g>
</svg>
