<?xml version="1.0" encoding="UTF-8"?>
<!-- Created with Inkscape (http://www.inkscape.org/) -->
<svg width="1920" height="1080" version="1.1" viewBox="0 0 508 285.75" xmlns="http://www.w3.org/2000/svg" xmlns:xlink="http://www.w3.org/1999/xlink">
 <g>
  <path transform="scale(.26458)" d="m1549.5 756.38c-1.1361-2.2334-1.842-1.3582-2.4668 0.10352-0.1395 0.40135-0.2493 0.88302-0.4512 0.99023-0.2558 0.13569-0.5428 0.18576-0.7949 0.33203-1.0158 0.59683-1.5788 1.7304-2.3633 2.5703-0.5001 0.53322-1.0248 1.0347-1.5 1.5879-0.621 0.72284-1.9121 1.8672-1.9121 1.8672l-0.4043 0.0801s-3.8662 4.8706-6.6972 6.7285c-9.0577 5.944-27.739 9.6234-38.354 6.793-10.614-2.8305-14.717-8.7751-26.605-6.3691-11.888 2.4059-19.531 1.5567-20.522 12.312-0.9907 10.756 1.2734 14.577 2.8301 23.068 1.5568 8.4915 3.5393 25.901 4.1054 31.703s-6.4576 19.303-10.182 24.824c-2.8687 4.253 1.9075 10.979 4.4551 14.234 1.328 1.6967 1.4267 4.8389 1.2324 7.5098 0.3125-0.0396 0.6849 0.028 0.8516-0.0371 0.3269-0.12321 0.5876-0.36953 0.9394-0.42774 0.7269-0.79449 0.557-1.2468 0.8906-2.1387 0.07-0.17537 0.2255-0.30697 0.334-0.45898 0.2298-0.34167 0.3638-0.74694 0.5098-1.1309 0.4548-1.225 0.5077-1.547-0.459-2.5059l-0.2832-0.0586c0 0.21997 0.062 0.92319-0.059 1.0996-0.4931 0.8761-1.3913 1.4294-2.1387 0.45899 0.1338-1.1153 0.7837-3.808 0.7383-4.6465 0-0.3617-0.2313-0.67845-0.2558-1.0391-0.06-0.76414 0.7295-1.7979 0.6621-2.2324-0.8953-1.0107-2.3495-0.39007-2.3418-2.1992 0.1734-0.26305 0.4919-0.46613 0.8125-0.48828 0.397-0.034 0.756 0.21617 1.1484 0.24414 0.333 0.034 3.8483-0.84847 4.2774-1.0078 0.3261-0.1217 0.6042-0.33795 0.8925-0.52149 0.06-0.80247 0.1159-1.8042-0.5312-2.4434-0.082-0.0907-0.4375-0.30576-0.4629-0.33789-0.4104-0.53019 0.8805-2.3286-1.0176-2.9941-1.9264 0.46368-1.2179 1.1135-2.0625 1.6172-1.4775 0.87821-3.972-0.35457-4.1777 2.1387-0.7883 0.68859-1.7184 1.53-2.8516 1.3477l-0.1289-0.48828c0.3141-0.1561 0.6227-0.33139 0.918-0.51953 0.2944-1.1562-0.4434-1.5029-0.3086-2.2637 0.3708-0.31937 0.7038-0.69224 1.1465-0.91406 0.4738-0.23773 1.0429-0.25252 1.5039-0.52344 0.153-0.0907 0.2697-0.22903 0.4355-0.30273 0.2812-0.12699 0.79-0.0798 1.1192-0.15234 0.7782-0.18482 1.6894-0.72959 2.3925-1.1016 0.4739-0.24869 1.028-0.2808 1.5039-0.52148 0.3205-0.16252 0.5966-0.43112 0.7891-0.73242l-0.2051-0.33789c-0.3522-0.17537-0.7004-0.37401-1.0195-0.61133l-0.1035-0.55078c0.1032-0.16933 0.1797-0.36412 0.3086-0.51953 0.2052-0.25663 0.7954-0.15475 1.0937-0.21485 0.7803-0.15458 1.3365-0.51864 2.1895-0.45703 0.621 0.0499 1.1976 0.46678 1.8086 0.36719 0.6794-0.11074 0.9166-0.54884 1.6816-0.27539 0.3903 0.83667 0.876 1.1397 1.7305 1.2539 0.3265-0.1833 0.6973-0.28774 1.0703-0.30664l0.5117 0.30664c0 0.36133-0.1343 0.72068-0.3086 1.0391l0.082 0.54687c0.3771 0.034 0.8627 0.24211 1.0957 0.55078-0.06 0.38835-0.081 0.77607-0.127 1.1621 0.116 0.12246 0.2231 0.2591 0.3516 0.36719 0.1791 0.14929 1.5707 0.23666 1.9101 0.30469 0.3844 0.0809 1.0145 0.3072 1.377 0.27734 0.1341-8e-3 0.2731-0.0345 0.4082-0.0625 0.1417-0.0431 0.6152-0.45599 0.7402-0.58008-0.6864-0.97787-1.7128-0.33972-1.9844-1.832l0.459-0.24609 0.2305-0.39649c-0.2102-0.3016-0.5644-0.44188-0.8164-0.70312-0.4608-0.48189-0.5647-1.2926-0.9942-1.832-0.4427-0.55752-1.1397-0.8637-1.5273-1.4668-0.4607-0.71577-0.1645-1.4866-0.3066-2.2617-0.06-0.34205-0.1804-0.67803-0.2832-1.0098-0.3587-1.1628-1.3717-1.4596-1.375-2.8125 0-1.0437 1.3547-2.805 1.7812-3.8496 0.2298-0.12548 0.8769-0.28564 1.1211-0.1836 1.0895 0.46084-0.102 2.3574 0.7656 3.1777-0.6613 1.1658-0.2231 1.1076 0.334 1.9551 0.3971 0.60888 0.198 1.7798-0.1289 2.3848l0.1035 0.54688 0.5117-0.21094c0.1535-0.34432 0.36-0.67 0.6094-0.94727l0.6094-0.0332c2.1335 1.3319 1.4907 2.6282 2.8262 3.7305l0.5136-0.18555 0.3321-0.42969c-0.1399-0.66228-0.3734-1.6327-0.2071-2.291l0.4571-0.24609c0.9082 0.14664 1.3449 0.43215 1.8086 1.2852-0.1089 1.1265-0.7007 2.3953-0.6875 3.3008l0.3574 0.39649c0.5192-0.26533 1.3332-1.1094 1.9609-0.82422 0.3455 0.15912 1.0305 1.8508 2.0899 0.82422 0.4292 0.0601 0.8638 0.0798 1.2968 0.0586 0.6775-0.59785 1.7774-0.21721 2.293-1.25l0.5117-0.18555 0.377 0.27539c0 1.7718 1.2943 0.80752-0.2559 2.7793v0.36719l0.5567-0.0898c0.1867-0.31371 0.4293-0.59831 0.7128-0.82618 0.7481-0.034 1.4438-0.34284 2.1387-0.54882 0.1285-0.0427 3.952-0.29284 4.127-0.27735 0.9437-0.65205 0.8819-2.0022 1.9218-2.5098l0.2422-0.17774 0.3594 0.39649c0.06 0.99703-0.5386 2.07 0.6621 2.5976 0.1603-0.0503 0.3344-0.0802 0.4805-0.15234 0.5958-0.29518 0.9274-1.2163 1.4023-1.6797 0.9174-0.89416 1.687-1.9816 2.4434-3.0273l0.584 0.15429 0.2558 0.42969c-0.06 0.6361-0.7332 2.1507-0.584 2.627 0.2181 0.71373 0.6262 1.3259 0.5567 2.1094-0.07 0.85587-0.6935 1.5731-0.6875 2.4434 0 0.35943 0.2257 0.66104 0.2832 1.0078 0.1032 0.61081-0.2298 1.2333 0 1.834l0.5332 0.24218c0.1206-0.3911 0.3002-0.76508 0.5371-1.0996l0.5039-0.21289c0.2559 0.25134 0.5783 0.44588 0.9199 0.54883 0.1735-1.0489-0.1301-2.1605 0.2539-3.1777l0.4629-0.27539c1.3392 0.29064 0.7673 0.94352 1.2735 1.4961 0.6028-0.75307 0.4727-1.7707 0.8144-2.627 0.2427-0.609 2.138-3.3826 2.6485-3.791h0.5903l0.4609 0.36914c0.06 0.35868 0.1487 0.70756 0.2832 1.0391 0.7098 0.29065 1.7915-0.57718 2.6465 0.67188 0.4163 0.0903 0.8471 0.12197 1.2735 0.0898 0.5958-0.44364 1.1658-1.1722 0.8652-1.9531-0.8701-0.61898-1.736-1.0709-1.1719-2.293 0.9275-0.2366 1.3593-1.0029 2.0625-1.5918 1.0906 0.2914 1.8431 1.0257 3.0567 0.73438 1.7176-0.41167 2.2132-2.4166 2.9804-3.1172 0.5505-0.5051 1.2849-0.49688 1.7832-1.0703 0.5001-0.57861 0.1575-1.049 0.2286-1.6797 0.1088-1.0031 2.0616-0.99589 2.166-3.207-0.4294-0.81351-0.9612-0.7203-0.8926-1.8359 0.3658-0.28875 1.1153-0.43122 1.3516-0.82422 0.9496-1.5793 0.2804-3.4638 1.0429-4.2168 0.1659-0.16252 1.5586-1.0897 1.7598-1.1641 0.5252-0.19313 1.1024-0.13934 1.6289-0.33398 0.5504-0.69559 1.2516-2.3728 1.9375-2.8438 0.6432-0.44274 1.3924-0.31464 2.0098-0.70117 0.2056-0.1304 0.5959-0.82665 0.5898-1.0703-0.06-0.89726-1.2796-1.2212-1.3516-2.1992-0.06-0.64018 1.3051-1.5225 1.377-3.334 0.081-2.0922-2.0057-2.8243-1.3242-4.4277 1.225-0.20107 2.4063 0.21497 2.8769-1.3145 0.1531-0.48491-0.2812-3.3152-0.6328-3.8203-0.1599-0.22866-1.2261-0.63465-1.5527-0.91797-0.06-0.62097 0.3959-1.1535 0.3828-1.7734l0.459-0.27539c0.621 0.16933 1.0298 0.54597 1.5312 0.91602 1.8082 1.3318 0.7195 3.0567 1.3477 4.5859 0.1338 0.32806 0.4045 0.57125 0.5644 0.88476l0.6621 0.0586c0.4237-0.35566 1.0172-0.29582 1.5-0.51953 0-0.42664 0.2377-0.66225 0.3594-1.0391 0.2559-0.81362 0.1793-1.5592 0.5899-2.627 0.4426-1.1768 1.3392-2.1656 1.58-3.4219 0.1531-0.80851-0.062-1.6369 0.078-2.4473 0.1791-1.0872 0.9292-2.31 0.3593-3.666-0.6028-1.4308-1.1228-0.98859-0.9941-3.0273 0.1281-2.096 1.3785-3.5114 2.1387-5.377 0.3586-0.87712 0.4434-1.863 0.6347-2.7832 0.1418-0.67853 0.3923-1.3536 0.4629-2.0449 0.1161-1.209 0.1774-2.0691 0.459-3.2695 0.1531-0.65231 0.1217-1.3305 0.2559-1.9863 0.116-0.5746 0.3407-1.4433 0.664-1.9258 0.3141-0.46481 0.8229-0.82438 0.9922-1.377 0.1285-0.41851 7e-4 -0.85884 0.08-1.2832 0.1531-0.81868 0.8333-1.4666 1.1992-2.168 0.8307-1.5884-0.2633-1.967-0.4101-2.6602-0.101-0.43861 0.2367-0.77831 0.3769-1.1602 0.738-1.929-0.6343-2.1508-0.1738-3.5137 0.3005-0.89824 1.2257-1.5016 1.5801-2.4473 0.2558-0.67949 0.2544-1.4327 0.5312-2.1074 0.1735-0.41858 0.2872-0.85078 0.461-1.2539 0.2944-0.70076 1.0639-1.1191 1.3515-1.8633 0.1338-0.35717 0.1726-0.74511 0.2168-1.1211 0.333-2.419-4e-4 -3.3-0.7988-5.5312-0.1346-0.39348-0.1304-0.82608-0.3145-1.2031-0.03-0.0593-0.078-0.11436-0.1113-0.17383zm-43.041 101.29c-0.069 1e-3 -0.133 6e-3 -0.1856 0.0176-0.2536 0.19426-0.6254 0.36881-0.9414 0.42773l-0.3554 0.45703-0.051 0.51953c0.1999 0.25739 0.3513 0.62568 0.5586 0.85547 0.116 0.12926 0.3158 0.20857 0.4336 0.33594 0.1168 0.12586 0.2016 0.32306 0.3086 0.46094 0.4884 0.63137 0.9813 1.004 1.6797 1.375 0.3632 0.192 0.7041 0.42188 1.1425 0.30664 0.2007-0.32126 0.2791-0.83177 0.1563-1.1934-0.047-0.13984-0.1874-0.29092-0.2539-0.42774-0.104-0.21543-0.1535-0.53857-0.2813-0.73242-0.1863-0.28233-0.4405-0.50894-0.5859-0.82812-0.2143-0.46753-0.2427-1.0493-0.7129-1.375-0.1965-0.13493-0.6108-0.2018-0.9102-0.19727zm-20.869 4.1426v4e-3c-0.2297 4e-3 -0.4925 0.0553-0.6757 0.0859-0.4001 0.0654-0.8269 0.24567-1.1543 0.48828-0.2094 0.25777-0.3276 0.80621-0.2539 1.1289 0.1364 0.29367 0.3733 0.60669 0.6113 0.82617 0.075 0.64645-0.2276 1.2477-0.1524 1.8945 0.1886 0.27326 0.518 0.55554 0.8145 0.70313 0.067 0.42538 0.321 0.60367 0.459 0.94726 0.063 0.16139 0.042 0.38607 0.1015 0.55078 0.088 0.24303 0.4228 0.64832 0.6133 0.82422l0.4571-0.0312c0.2528-0.90777 0.2377-1.9058 0.5351-2.7188 0.13-0.35452 0.3266-0.8365 0.5098-1.1621 0.1882-0.33411 0.4985-0.60154 0.6367-0.97851 0.1209-0.32996 0.2185-0.87646 0-1.1914l-0.4336-0.1543h0.051c-0.4805-0.28422-1.3709-1.0776-1.834-1.1914-0.081-0.0227-0.1801-0.0254-0.2852-0.0254zm-11.105 2.4531c-0.104-2e-3 -0.1914 3e-3 -0.2481 0.0195-0.023 4e-3 -0.4875 0.25007-0.5351 0.27539-0.044 0.0265-0.4123 0.22871-0.4336 0.2461-0.2551 0.2245-0.4789 0.66978-0.6133 0.97656-0.1591 0.36321-0.2324 0.6694-0.2773 1.0606-0.1834 1.6141 0.7675 1.7027 0.8125 2.6074-0.3043 0.14475-0.7626 0.20003-1.0938 0.1543-0.2347 0.29064-0.4894 0.60023-0.6875 0.91601-0.3632 0.58035-0.6252 1.5278-1.3496 1.7734-0.2211 0.0745-1.5171 0.10685-1.7832 0.0898-0.6344-0.0461-1.2442-0.23195-1.8848-0.0898-0.6304 0.72582-0.9934 1.15-0.8047 2.168 0.057 0.30123 0.1239 0.54755 0.3223 0.79492 0.1055 0.1319 0.2627 0.24171 0.3789 0.36719 0.1202 0.13001 0.227 0.31252 0.3574 0.42968 0.1293 0.1149 0.3415 0.18337 0.459 0.30469 0.2865 0.29518 0.5526 0.99158 0.8145 1.3438 0.3246 0.43586 0.845 0.62846 1.1445 1.0996l0.051 0.42969-0.457 0.27539c-0.3085 0.0533-0.9608-0.0531-1.2227-0.21484 0-3e-3 -0.6287-0.68222-0.7129-0.76563-0.4095-0.11943-0.9489-0.14784-1.3242-0.30469l-1.3496-1.0078-0.5352 0.0918c-0.3367 0.42448-0.9007 0.72686-1.4512 0.64258-0.5072-0.28876-0.6784-0.86411-1.248-1.0703l-0.6113 0.0293c-0.3515 0.19805-0.3738 0.54547-0.584 0.82617-0.019 0.0227-0.7611 0.68601-0.791 0.70313-0.5583 0.32504-1.5791 0.34679-2.0117 0.73242-0.1905 0.16932-0.3436 0.44003-0.5352 0.63086-0.039 0.0393-0.07 0.0551-0.1016 0.10351-0.2033 0.33449-0.5203 2.0928-0.5117 2.5078 0.011 0.57331 0.4219 2.0815 0.8164 2.5039 0.05 0.0552 0.093 0.0679 0.1524 0.11328 0.2725 0.19956 0.4445 0.45552 0.664 0.6211 0.3066 0.23093 0.684 0.34453 0.9922 0.61133 0.071 0.35565 0.1393 0.71299 0.2031 1.0703l0.4336 0.33594c0.7285-0.3326 0.7366-0.68772 1.1719-1.0703 0.2948-0.25965 0.9762-0.39239 1.043-0.85742 0 0 0.9007 0.12297 1.2734 0.0625 0.8736-0.14249 1.4792-0.95181 2.2168-1.3438l0.5078 0.18359 0.2559 0.45704c-0.1357 0.42107-0.2343 0.90124-0.2559 1.3438 0.1486 0.30765 0.3465 0.62056 0.5606 0.88671l-0.051 0.52149c-0.4104 0.39587-0.6436 1.1394-0.7891 1.6797-0.6185 0.80485-2.1896 0.51878-3.1074 0.88672l-0.2285 0.64062c0.019 0.5102 0.3384 1.0432 0.7129 1.377-0.058 0.31635 0.03 0.82703 0.2031 1.0996l0.5352-0.12304c0.294-0.57313 0.9044-0.73514 1.4589-0.94532l0.3223-0.12109c0.03-2e-3 0.5982 0.0815 0.6641 0.0898l0.3828 0.36719c-0.1421 0.3967-0.3165 0.78941-0.5117 1.1621-0.034 0.0673-0.296 0.51459-0.3047 0.54883-0.051 0.17235-0.06 1.005-0.051 1.2246 0.4236 0.1406 0.904 0.23866 1.3496 0.27344l0.2813 0.42968c-0.1837 0.3447-0.8584 0.84137-1.2246 0.97657-0.3334 0.12283-0.6968 0.11438-1.043 0.27539l-0.2539 0.61132 0.2812 0.45899 0.5078 0.18164c0.5091-0.2521 1.0472-0.22961 1.5801-0.36719 0.4236-0.10923 0.7185-0.37749 1.1113-0.51953l0.3418-0.12109c0.192-0.0302 0.418 0.0302 0.6094 0 0.3137-0.0518 0.7137-0.28512 0.8926-0.55078 0.011-0.37153 0.1548-0.84654 0.3555-1.1602 0.3507-0.0884 0.8124-0.13677 1.1718-0.0918 0.5557 0.0646 1.3486 0.44481 1.8594 0.0606l0.3047-0.51953c0.058-0.31143-0.023-0.83628-0.2031-1.1016-0.3557-0.44935-1.1804-0.46453-1.7051-0.42579-0.6797-0.34053-1.1227-0.99877-0.9922-1.7754 0.3617-0.60453 0.9616-1.1602 1.7051-1.1602 0.2018-0.13871 0.4072-0.42039 0.4941-0.64063l0.17-0.42773c0.099-0.52891-0.1785-1.1752-0.129-1.7422l0.4571-0.27539c0.7373 0.31068 1.2675 1.0021 2.0625 1.1621l0.4609-0.24609 0.5586 0.15429c0.075 0.30917 0.2553 0.67126 0.459 0.91602 0.395 0.0794 0.843 0.12128 1.2461 0.0918l0.1035-0.67187c-0.1882-0.33524-0.7188-1.0256-0.7402-1.377-0.039-0.55159 0.3376-1.1104-0.1016-1.7422-0.3867-0.10734-0.8005-0.27969-1.1445-0.48828-0.1867-0.20069-0.3645-0.63701-0.3301-0.91602l0.3555-0.42773c0.3681 0.39035 1.0164 0.43088 1.5019 0.27539 0.5922-0.90561-0.079-1.5393 0.3321-2.4766 0.011-0.0265 0.2976-0.38028 0.332-0.42579 0.5072-0.65635 0.9064-1.4294 0.789-2.293l-0.2812-0.42774-0.5117-0.0625c-0.3884 0.15647-0.5212 0.45624-0.7891 0.73438-0.062 0.0654-0.7505 0.65479-0.789 0.67187-0.2423 0.12095-0.8082 0.13885-1.0684 0.0625-0.095-0.86404 0.2822-1.5752 0.6367-2.3242 0.1693-0.35867 0.5991-1.4593 0.7129-1.832 0.1629-0.53507 0.3721-1.5207 0.4336-2.0801-0.2695-0.30425-0.3053-0.60218-0.4609-0.94922-0.087-0.19124-0.3097-0.5056-0.4336-0.67382-0.206-0.2778-0.5611-0.51189-0.7383-0.79297-0.1894-0.29972-0.2495-0.87301-0.3145-1.2227-0.087-0.47478-0.244-1.014-0.1699-1.498 0.059-0.38948 0.2452-0.91839 0.4609-1.2539 0.094-0.14665 0.2724-0.27468 0.3555-0.42578 0.2211-0.4018 0.5306-1.38 0.457-1.834-0.062-0.38797-0.4933-1.118-0.8398-1.3144-0.1572-0.0888-0.6096-0.16003-0.9219-0.16797zm-5.0625 3.1992c-0.5714 0.32542-1.2919 0.30454-1.9102 0.61133-0.1795 0.41469-0.2545 1.063-0.3808 1.3438-0.1565 0.34809-0.4703 0.40398-0.5586 1.0703l0.2773 0.27734c0.4808 0.034 0.921-0.0801 1.3926-0.10546 0.3209-0.0189 0.6912 0.0276 1.0019-0.0215 0.155-0.0227 0.3558-0.10623 0.5098-0.15234l0.332-0.42969 0.074-0.67383c-0.4228-0.45313-0.3805-1.2232-0.1797-1.7695zm-9.9844 3.1758-0.4062 0.36719c-0.098 0.36057-0.2122 0.8527-0.2032 1.2246 0.011 0.37961 0.1568 0.72839 0.1016 1.1289-0.03 0.22639-0.1633 0.47933-0.1758 0.70312-0.019 0.2623 0.1903 0.80077 0.3555 1.0078l0.6367 0.21485 0.3809-0.33594c0.144-0.40218 0.2159-0.88504 0.1777-1.3125-0.019-0.16743-0.1115-0.38887-0.1035-0.55078 0.011-0.17499 0.1211-0.40297 0.1562-0.58008 0.1183-0.62404 0.1618-1.2595-0.2558-1.7734zm-17.904 2.084c0 2e-3 0 4e-3 -0.01 6e-3 0.8186 0.32282 1.9957 1.4827 2.0098 2.4141-0.1924 0.31861-0.3582 0.65613-0.4863 1.0078 0.2237 0.2812 0.4989 0.5238 0.8144 0.70117l0.062 0.45899c0-1e-3 0-3e-3 0.01-4e-3l-0.06-0.45898c-0.3157-0.17738-0.5904-0.41998-0.8145-0.70118 0.1282-0.35168 0.2939-0.68919 0.4863-1.0078-0.014-0.93222-1.1931-2.0944-2.0117-2.416zm-0.021 0.0234c-0.2916 0.20681-0.4313 0.53066-0.5976 0.83399 0.1657-0.30371 0.304-0.62901 0.5976-0.83399zm-0.6719 1.0059c-0.4772 0.91838-0.5927 1.6695-0.8359 2.3125 0.2441-0.64224 0.3617-1.3954 0.8359-2.3125zm-7.5253 0.57032c0 0.0221 0.01 0.0506 0.01 0.0781 0.8532 0.0408 2.4642 0.19476 2.6523 0.375 0.5319 0.50612 0.4928 1.1816 0.5469 1.8027-0.054-0.62101-0.01-1.3003-0.5391-1.8066-0.1771-0.16975-1.7694-0.38988-2.6679-0.44921zm4.2851 3.6816c0.01 2e-3 0 8e-3 0.01 0.01 0-1e-3 0-3e-3 0.01-4e-3 -0.01-2e-3 -0.01-4e-3 -0.014-6e-3zm3.3008 0.31054c0 8.5e-4 0 1e-3 -0.01 2e-3 0 2e-3 4e-4 8e-3 0 0.01 0-3e-3 0-9e-3 0.01-0.0117zm-0.1797 1.5312c0 8e-3 -0.01 0.0234 0 0.0312 0 5e-3 0.024 0.0105 0.027 0.0156 0-5e-3 -0.017-0.0142-0.019-0.0195 0-7e-3 -5e-4 -0.0205 0-0.0274zm3.0859 1.3984c-0.1525-0.0147-0.3078 0.0352-0.4609 0.0352-0.01-1.7e-4 -0.039-0.0188-0.049-0.0195 0.01 6e-4 0.033 0.0233 0.041 0.0234 0.1531 0 0.3083-0.0507 0.4609-0.0351 0.4104 0.0601 0.7463 0.30494 1.2246 0.33593 0.5765 0.034 1.0837-0.34574 1.6543-0.24218 0.029 5e-3 0.061 0.0154 0.09 0.0215-0.027-6e-3 -0.056-0.0207-0.082-0.0254-0.5706-0.10394-1.0779 0.2762-1.6542 0.24219-0.4786-0.031-0.8143-0.27584-1.2247-0.33594zm5.42 0.70117c0.01-7.1e-4 0.017 7e-3 0.025 6e-3l0.375 0.36719-0.2774 0.51953v0l0.2813-0.52344-0.375-0.36718c-0.011 1e-3 -0.022-3e-3 -0.033-2e-3zm-2.1719 1.2012-0.1035 0.42579c0.2751 0.20674 0.8631 1.179 0.9922 1.2226 0 1e-3 0.014-1e-3 0.017 0 0-7.9e-4 -0.01-1e-3 -0.01-2e-3 -0.1291-0.0437-0.7171-1.0182-0.9922-1.2246l0.1015-0.42188c0 1e-3 0-1e-3 -0.01 0zm8.209 5.8906c-0.3345 0.0786-0.6895 0.2092-0.9942 0.36719l-0.2285 0.61328c0.2177 0.59875 0.5676 1.3744 0.7383 1.9551 0.093 0.31785 0.085 0.74554 0.2539 1.0391 0.019 0.0302 0.3169 0.35079 0.3555 0.39648 0.692 0.32542 1.514-0.14674 1.8594-0.76367l0.078-0.64258-0.3321-0.39453-0.027-0.24609s-0.6797-0.62883-0.8633-1.1309c-0.1326-0.36208-0.091-0.67554-0.3574-1.0098zm-15.256 4.0957v2e-3c-0.2067 0.17159-0.4721 0.31024-0.7129 0.42578-0.1054 0.31559-0.1276 0.8857 0.027 1.1934l0.4316 0.36718c0.3186 0.0605 0.8506-0.0266 1.1211-0.21484 0.049-0.41038 0.068-0.84141 0.051-1.2539zm17.336 1.1504c-0.2805 4e-3 -0.5831 0.086-0.9356 0.28711l-0.1777 0.45703 0.1777 0.48828c0.5221 0.36133 1.9636 0.68687 2.5977 0.61329 0.1319-0.3224 0.1932-0.92313 0.051-1.2539-0.654-0.28535-1.1385-0.60049-1.7128-0.5918zm-2.9219 1.3574c-0.8032 1.0291-1.1273 1.2818-1.043 2.6875l0.2539 0.42774 0.5352 0.24609c0.3004 0.034 0.8045-0.11105 1.0175-0.33593 0.1153-0.31786-0.012-0.88443-0.1796-1.1621l-0.025 0.0605c-0.2468-0.49905-0.3085-1.1429-0.1778-1.6816zm-23.525 2.8398v2e-3c-0.3545 4e-3 -0.734 0.0455-1.0781 0.1211-0.2888 0.16516-0.5579 0.65995-0.6094 0.97656 0.061 0.49251 0.2171 1.1276 0.6367 1.4375 0.7152 0.35338 1.453 0.15688 1.9356-0.45703v-1.1934c-0.1539-0.21317-0.3093-0.42516-0.459-0.64063l-0.3555-0.24609c-0.026-4e-5 -0.048-3e-4 -0.07 0zm13.732 6.4102v2e-3c-0.051 9.4e-4 -0.099 4e-3 -0.1406 8e-3l-0.3047 0.45703 0.1016 0.51953 1.0703 0.55078c0.5843-0.10091 1.1706-0.25576 1.7597-0.0898 0.051-0.31408-0.012-0.8238-0.1797-1.1016-0.3333-0.0227-1.0849-0.15433-1.375-0.30664 0 0-0.5725-0.044-0.9316-0.0391zm-9.3242 0.0898c-0.2222 4e-3 -0.442 0.0432-0.6211 0.13281-0.3693 0.44508-0.6172 0.99163-0.8906 1.498l0.1015 0.55078c0.4023 0.31937 0.5886 0.89368 0.7149 1.375 0.072 8e-3 0.6533 0.0932 0.6875 0.0898 0.043-3e-3 1.4715-0.44845 1.5293-0.45703 0.3001-0.034 0.7671 0.13399 0.9648 0.36719h0.6133l0.457-0.27734c0.011-0.24945 0.031-0.55925 0.127-0.79297l-0.457-0.30469c-0.3754 0.0393-0.8369-9e-3 -1.1973-0.12305 0.1039-1.1904-0.2108-1.7431-1.3926-1.9961-0.1882-0.0393-0.4126-0.0678-0.6348-0.0625z" fill="#013378"/>
  <path d="m332.56 243.09" fill="none" stroke="#0978ab" stroke-linejoin="round" stroke-miterlimit="3.9773" stroke-width=".19471"/>
 </g>
</svg>
