<?xml version="1.0" encoding="UTF-8"?>
<!-- Created with Inkscape (http://www.inkscape.org/) -->
<svg width="1920" height="1080" version="1.1" viewBox="0 0 508 285.75" xmlns="http://www.w3.org/2000/svg" xmlns:xlink="http://www.w3.org/1999/xlink">
 <defs>
  <clipPath id="clipPath31316">
   <path d="m1308.9 594.1c-1.3974 0.0862-1.4375 3.7227-3.4141 6.7773-1.6869 2.607-5.4434 4.009-8.5723 5.1875 0.4527 0.57377 1.0121 1.2631 1.1641 2.1758-0.1092 0.10394-0.2112 0.21826-0.334 0.3086-0.6814 0.51507-3.3527-0.67653-3.8965-0.0625-0.1209 0.13984-0.2251 0.307-0.334 0.45898 0.1217 1.4844 1.4899 2.3424 2.1387 3.543 0.9597 1.7738-0.1198 2.9171 1.2246 4.1582 1.1861 1.0974 3.0716 0.48078 3.7442 1.0703 0.263 0.23207 0.3194 0.6236 0.582 0.85547 1.0196 0.88109 2.6539 0.0712 3.0547 0.21485 0.9093 0.33108 0.5257 2.2085 0.1992 2.8105-0.2559 0.48095-0.7422 0.78922-1.1211 1.1621-0.8246 0.10507-1.9506 0.35839-2.625 0.85547l-0.2285 0.64063c0.7369 1.1927 3.0402 0.35571 4.0508 0.30468 0.2309-8e-3 0.4596 0.0608 0.6875 0.0918l0.3847 0.36914 0.1289 0.54883c0.282 0.19389 0.4912 0.552 0.5547 0.88672l-0.2812 0.51953 0.3828 0.36719c0.4798-4e-3 1.2643 0.2092 1.7324 0.36718 0.3715 0.12246 0.6403 0.4682 0.9942 0.58204 1.1783 0.37568 2.3628-1.4975 3.5918-1.3145l0.3828 0.39649 0.1035 0.51953c-0.2298 0.25738-0.422 0.57419-0.5117 0.91601l0.1797 0.49024c0.742 0.29782 1.6203 1.1987 1.8066 1.9863-0.1217 0.27174-0.5313 0.62248-0.8398 0.64062-1.3239 0.0809-1.7889-1.5388-2.7247-2.0156l-0.4609 0.27343-0.2812 0.55079c-2.2558 0.85186-0.582 5.5354-3.4629 6.1113-1.5294-0.76218-0.5971-2.4811-0.6153-3.2695 0-0.18784-0.082-0.37019-0.1289-0.55078l-0.5137-0.18359c-0.4999 0.50003-1.0397 1.0318-1.7558 1.1914-0.6584-0.34393-0.6092-0.76704-1.0449-1.1914-0.2181-0.21695-2.0038-0.56674-2.6231-1.0684-1.1861 0.16592-0.9935 1.0447-1.6816 1.252-0.3772-0.12019-0.7381-0.29872-1.043-0.55078l-0.5371 0.15234-0.2559 0.55078c0.1924 0.83267 0.7518 1.1476 1.4278 1.5606 0.2181 0.60892 0 1.3219-0.1309 1.9238l0.1797 0.48828 0.5137 0.18555c0.6966-0.31068 1.272-0.54897 1.9336-0.94922 0.74 0.034 1.024 0.31917 1.25 0.94922-0.6271 1.9365-2.3105 1.2962-3.5664 2.2617-0.5323 0.40822-0.8518 1.2662-1.0957 1.873-0.1735 0.4376-0.4791 0.87428-0.3262 1.3652l0.459 0.30468c0.3269-0.15382 0.6925-0.21102 1.0195-0.36523 0.621-0.29065 1.2098-0.95714 1.9629-0.73437l0.2812 0.42968v0.60938c-1.0887 0.94768-2.8997 2.2669-0.8418 3.332l0.5821-0.12109c0.5252-0.12548 1.059-0.21709 1.5039-0.55079 0.7541-0.56757 1.0866-1.4984 1.7285-2.168 0.3772-0.39111 0.8394-0.6944 1.1992-1.1016 0.4428-0.49905 0.6069-1.2136 1.2949-1.4551 0.3402-0.11829 0.3978-0.0339 0.7247 0.0508 0.9527 0.21845 1.3807-0.60472 2.0019-1.1309l0.2578 0.18359c-0.06 0.88006-0.1887 1.5056 0.078 2.3828 0.6544 0.14249 1.3345 9e-3 1.9883 0.1543 1.6941-0.61803 1.7544-1.6856 3.7949-1.9551l0.062 0.45703-0.3339 0.45899c0 1.1658 0.5891 1.7342-0.061 2.8105-1.4661 0.66739-2.1384-0.29208-3.1055 0.0606-0.7066 0.25814-1.0307 1.1316-1.6308 1.375-1.343 0.54535-3.3461-0.7373-3.4121 1.5918 0 0.38192 0.1421 0.74431 0.1289 1.127 0 0.65938-0.3711 1.2654-0.3848 1.9277l0.4863 0.33593c0.384-0.0907 0.7778-0.12493 1.1719-0.12304l0.1289 0.55078-0.6875 0.88476c-0.8014 0.18558-1.5854 0.92618-2.3437 1.2852l-0.1016 0.57812 0.2813 0.42969c0.6341 0.26532 1.3438 0.24639 1.9863 0.48828 0.9366 0.35339 1.0969 0.89567 2.2285 0.95508 2.0182 0.10583 1.5813-2.0465 2.6856-2.6973l0.2832 0.42968c-0.2177 0.60892-0.1165 1.2633-0.1289 1.8945l0.4082 0.24414c1.2477 8e-3 1.2973-1.4091 1.6816-2.2637 0.1859-0.42364 0.3772-0.78648 0.4609-1.25 0.1867-1.0588-0.3896-3.5968 1.2989-3.5762l0.3847 0.36719c0.2102 0.83467-0.5465 1.7297-0.4629 2.5664 0.1924 1.9224 0.391 2.0314 0.918 3.7285 0.5767 0.29065 1.2906 0.28655 1.7852 0.73242 0.1031 0.37807 0.1402 0.77026 0.1289 1.1602l-0.2325 0.37109c-0.8034 0.14362-1.9687-0.88247-3.3085-0.55078l-0.2051 0.51953c0.3273 0.16555 0.6274 0.39199 0.8652 0.67383v0.60938c-0.4104 0.13001-0.8334 0.0529-1.25 0.0352-0.4104-0.0189-0.77 0.0905-1.1719 0.1211-0.627 0.0499-2.21-0.3956-2.9023-0.55079l-0.5117 0.18555c0.06 0.41125 0.276 1.1868 0.5898 1.4668 0.6896 0.61999 2.8265 2.073 3.2324 2.7812 0.3648 0.64112 0.5344 1.2216 1.1485 1.7402 0.4798 0.40611 1.7804 1.107 2.4433 1.5586 0.2053 0.85697 1.0587 1.7615 2.0118 1.5605 0.3586-0.0809 0.6138-0.36975 0.9687-0.45898 0.4164-0.10847 0.8521 0.0522 1.2734-0.0332 0.3527-0.0707 0.6443-0.31261 0.9942-0.39844 1.1804-0.29065 1.3038-0.32052 2.0351-1.3438-0.1031-0.33298-0.32-0.6095-0.4863-0.91602-0.4163-0.78327-0.6213-2.0948-0.1035-2.873 0.1988-0.29292 0.5136-0.49351 0.7656-0.73438 0.4031-0.0907 0.8126-0.12456 1.2227-0.12305 0.8226 1.135 2.364 0.12326 2.8769-0.76171l0.584-0.0918 0.459 0.30664c0.1032 1.8268-2.7602 2.7294-4.125 2.0156l-0.4609 0.27539c0.2369 0.3035 0.5687 0.44503 0.8398 0.70313 0.7239 0.6946-0.5968 2.0904 0.332 3.9414l-0.125 0.58203c-0.7863 0.47285-1.5833 0.82944-2.4492 1.1309-0.5 0.17461-1.0402 0.27185-1.5 0.55078-0.085 0.0514-0.1516 0.12709-0.2285 0.18945 0.073 3e-3 0.1819 0.0396 0.25 0.0371 3.375-0.12499 4.75 0.74999 8.25 1.5 3.5 0.74997 10 1e-5 12.375-1.625s1.2498-3.25 1-9.25c-0.25-6 0.5-5.125 1.25-10.375s3.5-5.375 6.75-8.625 1.25-4.875-0.5-12-4.875-4.875-7.75-7.75-3.125-3.875-4.125-11.125c-1-7.2501-4.125-5.25-7.25-7.625-3.125-2.375-5.5-0.99993-8.5-0.625-3 0.375-8.625-1.75-12.75-6.375-1.1602-1.3008-1.9141-1.8111-2.4609-1.7773zm-33.059 23.148c-0.1505-8.7e-4 -0.2925 0.0236-0.4004 0.0742-0.5812 0.8603-0.05 1.8477 0.051 2.75 0.044 0.39504 0.026 0.76927 0.1289 1.1621l0.5859 0.1211c0.5049-0.20561 1.1319-0.21763 1.5547-0.58008 0.2158-0.26306 0.3227-0.80419 0.2539-1.1328-0.043-0.2022-0.5433-1.2334-0.6875-1.4062-0.2302-0.27742-0.5035-0.46646-0.6875-0.79297-0.1886-0.10999-0.5114-0.19343-0.7988-0.19532zm5.6289 12.65v4e-3c-0.039 7.9e-4 -0.078 4e-3 -0.1192 8e-3 -0.2464 0.034-0.5191 0.18405-0.7656 0.24414-0.1534 0.0393-0.3297 0.027-0.4844 0.0625-0.1795 0.0393-1.4024 0.47226-1.5273 0.54883-0.2449 0.15043-0.5758 0.62658-0.6875 0.88672-0.011 0.57691 0.2642 1.4799 0.2558 1.7109-0.019 0.44432-0.3157 0.76759-0.053 1.2539l0.3594 0.36524c0.3632-0.0514 0.7591-0.15464 1.0937-0.30469 0.302 0.17537 0.5975 0.3615 0.8907 0.55078l0.4843-0.0312c0.7387-0.73538 0.7785-2.8794 1.6036-3.3008 0.1364-0.29631 0.1152-0.61115 0.059-0.91797-0.1-0.54028-0.5183-1.0913-1.1094-1.0801zm6.0879 0.13672c-0.079 2e-3 -0.1619 0.0104-0.2481 0.0293-0.011 1.3245 1.9555 3.0146 1.7852 4.4023l-0.4082 0.36719-0.5606 0.0918-0.2812 0.55078c0.2642 0.2434 0.5217 0.49677 0.7656 0.76172l-0.1289 0.55078c-0.2752 0.20598-0.5535 0.50526-0.7383 0.79492l0.2031 0.48828 0.4571 0.33789c0.5156 0.14816 1.2606-0.0179 1.6054-0.45898 0.1119-0.14551 0.1455-0.39937 0.2539-0.55078 0.1792-0.24907 0.5587-0.50565 0.7872-0.73242 0.3352-0.10243 0.9326 0.0121 1.1992 0.24414l0.3808-0.21289 0.051-0.67188-0.2793-0.42969 0.074-0.39648c0.3205-0.0189 0.8017-0.18302 1.0469-0.39649l0.1367-0.42968c0.2238-0.70598-0.2327-1.1125-0.6972-1.5586-0.1127-0.10885-0.2545-0.27906-0.3809-0.36523-0.3322-0.22677-0.7687-0.32564-1.1191-0.51953-0.2518-0.13947-0.8418-0.49024-0.8418-0.49024-0.3884-0.22563-0.8028-0.3073-1.1973-0.49023-0.6532-0.30312-1.1039-0.93931-1.8672-0.91406zm-22.043 1.9434c-0.2748 8e-3 -0.5418 0.0829-0.7441 0.22461l-0.078 0.67188c0.039 0.0525 0.281 0.40413 0.3067 0.42968l0.9414 0.64063c0.1867 0.0858 0.4638 0.1235 0.664 0.18359 0.7001 0.20939 1.9178 0.68002 2.6211 0.33789 0.2332-0.11338 0.6398-0.60272 0.7657-0.82617l-0.3321-0.42773c-0.4891-0.14929-0.9391-0.11065-1.4258-0.1836-0.6041-0.0903-1.1758-0.38187-1.707-0.67187l-0.051-0.0918c-0.2453-0.20107-0.606-0.29807-0.959-0.28711zm-16.482 0.0117-0.4336 0.30469c-0.2476 0.5325-0.7496 2.774-0.6875 3.3301 0 0.0189 0.1865 0.44251 0.2031 0.48828 0.5921 0.0597 0.8407-0.49378 1.5273-0.36524 0.1512 0.3326 0.2961 0.6709 0.4336 1.0098 0.299 0.16403 0.6161 0.41392 0.8399 0.67187 0.5464 0.192 1.2656 0.17182 1.7558-0.15625 0.2695-0.17877 0.5394-0.51286 0.7911-0.73242 0.5509-1.125-0.7882-2.0584-1.6055-2.5352l-0.049-0.1836c-1.0243-0.58696-1.9412-0.1156-2.3692-1.5898zm46.172 3.2383-0.254 0.51758 0.1778 0.51953c0.3107 0.079 0.7531 0.34694 0.9414 0.61328l0.5625-0.0625 0.074-0.66992v-2e-3c-0.2362-0.32542-0.5463-0.55681-0.8125-0.85547zm-39.805 1.6191-0.5625 0.1211-0.2012 0.48828c0.5825 0.46155 0.8269 1.1071 1.0957 1.7734l0.5586 0.27539 0.3828-0.36524v-2e-3c0-1.0702-0.1412-1.8879-1.2714-2.291zm-16.225 2.7207-0.4083 0.36718-0.5351 0.0899-0.4063 0.36718-0.1289 0.58204c0.9501 0.21807 1.4475-0.10439 2.0391-0.79688l0.027-0.42578-0.1796-0.18359zm9.7265 0.94531c-0.2804 0.096-0.597 0.1458-0.8906 0.18359l-0.2793 0.51953c-0.06 0.30841 0.07 0.84902 0.3066 1.0703 0.504 0.0858 1.1579-0.11391 1.4532-0.55078l0.025-0.51954c-0.1439-0.24945-0.3709-0.53629-0.6093-0.70312zm13.881 0.49219-0.2539 0.0898-0.3301 0.46094 0.1758 0.48828 0.5859 0.24219c0.099 0.28837 0.4554 0.65439 0.7383 0.76562l0.459-0.27734c-0.011-0.0635-0.089-0.48522-0.1016-0.51953-0.099-0.23736-0.3463-0.52014-0.4922-0.74219-0.034-0.0559-0.042-0.0972-0.092-0.14258-0.026-0.0226-0.6168-0.32502-0.6894-0.36523zm31.328 0.0898-0.4336 0.36719c-0.1716 0.37417-0.2767 0.87278-0.2812 1.2832l0.4082 0.21484c0.2857-0.10431 0.6502-0.4342 0.7871-0.70507v-1.0059zm-27.227 0.55078c-0.2086 0.12246-0.75 0.0758-0.9687 0.0293l-0.1524 0.55078c0.1826 0.29253 0.3799 0.57666 0.586 0.85351l0.6875 0.0625 0.2812-0.51953c0.019-0.30576-0.1924-0.78528-0.4336-0.97656zm-20.877 6.9258c-0.1652 4e-3 -0.3226 0.0335-0.4649 0.10157l-0.3046 0.51953c0.311 0.14702 0.6585 0.42608 0.8652 0.70312l-0.1524 0.70313 0.4844 0.33593c0.6127 8e-3 1.071-0.52105 1.1446-1.0976-0.027-0.33714-0.1435-0.74305-0.3086-1.0391-0.3731-0.0831-0.8415-0.23715-1.2637-0.22657zm-7.5684 8.1406-0.5117 0.21289-0.1523 0.67383c0.1606 0.25738 0.6461 0.58669 0.9414 0.64062 0.01 0 1.2115-0.0237 1.25-0.0312 0.1602-0.0265 0.3788-0.12797 0.5351-0.18164l0.252-0.52148-0.2266-0.48633c-0.3239-0.12473-0.7482-0.20256-1.0957-0.18555-0.097 0.0884-0.3014 0.16494-0.4336 0.15625zm199.57 47.729c-0.9753-0.0357-1.9588 0.28068-2.9531 1.0762-5.3033 4.2427-2.8282 11.49-2.8282 16.086s2.8299 9.9011 4.5977 12.199c1.7677 2.2981 5.4795 1.5899 6.3633 10.252 0.8839 8.662 0.1762 12.906-2.2989 17.148-2.4747 4.2426-8.6609 11.666-9.8984 16.439-1.2374 4.773-3.5364 7.9554-0.8848 14.496s3.5354 12.904 1.4141 17.146c-2.1213 4.2426-3.8887 2.4758-3.5351 10.254 0.3533 7.7782 1.9447 8.4849-1.7676 12.904-3.7123 4.4194-9.5459 14.142-10.076 18.385-0.5303 4.2426-0.3533 4.0668-3.8887 9.1934-2.4763 3.5906-3.7642 6.779-4.1074 9.0684 0.112 0.31419 0.2583 0.58167 0.4922 0.77149 1.0614-0.57264 0.8133-1.3063 2.1641-1.4961l0.4628 0.30469 0.1 0.55078 0.4589 0.36719 0.5586-0.1211c0.1796-0.27968 0.5569-0.49534 0.8926-0.51953 0.3141 0.16517 0.5947 0.39151 0.8145 0.67188l0.4609-0.0332c0.2873-0.84279 0.1923-2.7349-0.1543-3.5449-0.4798-0.28308-0.8694-0.69626-1.3496-0.97851l-0.059-0.45703c1.1017-0.67144 1.4402 0.25806 2.4668-0.6211 1.0061-0.85992 0.7737-1.1768 1.25-2.252 0.1535-0.34545 1.3247-2.3632 1.5781-2.4141 0.1531-0.034 0.3079-0.0332 0.4551-0.0332 0.1856 0.2143 0.4168 0.72171 0.3848 1.0078-0.081 0.6311-1.8092 3.5011-2.0879 4.4902 0.1859 0.29783 0.4093 0.57811 0.6601 0.82813 0.2102 1.0317-0.3696 2.0259-0.1523 3.1152 0.1032 0.51919 0.4938 0.91408 0.6621 1.4062-0.2298 1.1198-1.2059 2.6662-1.2207 2.7812-0.081 0.61901 0.3761 0.99508 0.6602 1.4356 1.4344 2.2351 3.5112 0.85688 5.373 1.6191l0.25 0.42968c-0.06 0.43771-0.1643 0.90211-0.4277 1.2539 0.091 0.70976 1.273 1.4483 1.7558 1.9531l0.5371-0.0898c0.3903-0.35716 0.7969-0.69554 1.1719-1.0684 1.2644-0.0601 1.5362 0.9158 2.9785 0.24414 0.4608 0.0601 0.9105 0.18903 1.3242 0.39649 1.0889-2.2784-0.7941-4.2654 2.0899-4.7676 0.3903-0.0707 3.0031 0.23736 3.2324 0.45703 1.051 1-0.1715 2.6793 1.6328 3.2383 3.0657-1.0946 2.1188-2.3139 3.2832-4.4004 0.1792-0.3205 0.3147-0.67503 0.6348-0.88672 0.8186 0.32164 1.9976 1.4839 2.0117 2.416-0.1924 0.31861-0.3582 0.65613-0.4863 1.0078 0.2237 0.2812 0.4989 0.5238 0.8144 0.70117l0.062 0.45899c-0.2868 0.19237-0.5658 0.42618-0.8945 0.54883-0.5383 0.20144-1.7519 0.15277-2.1387 0.45703-0.3772 0.29669-0.3889 1.1662-0.1777 1.5605 0.2559 0.47086 2.0851 1.3967 2.6211 1.4062 0.1531 0 0.3083-0.0507 0.4609-0.0351 0.4104 0.0601 0.7463 0.30494 1.2246 0.33593 0.5765 0.034 1.0837-0.34574 1.6543-0.24218 0.8177 0.1474 1.7148 0.69407 2.5743 0.60937l0.375 0.36719-0.2793 0.52148c-0.7713 0.1115-1.6398-0.28447-2.293 0.30664l-0.1035 0.42579c0.2751 0.20674 0.8631 1.179 0.9922 1.2226 0.5766 0.19881 2.2355 0.0913 2.7793-0.12109 0.3269-0.12321 0.5876-0.36953 0.9394-0.42774 0.7269-0.79449 0.557-1.2468 0.8906-2.1387 0.07-0.17537 0.2255-0.30697 0.334-0.45898 0.2298-0.34167 0.3638-0.74694 0.5098-1.1309 0.4548-1.225 0.5077-1.547-0.459-2.5059l-0.2832-0.0586c0 0.21997 0.062 0.92319-0.059 1.0996-0.4931 0.8761-1.3913 1.4294-2.1387 0.45899 0.1338-1.1153 0.7837-3.808 0.7383-4.6465 0-0.3617-0.2313-0.67845-0.2558-1.0391-0.06-0.76414 0.7295-1.7979 0.6621-2.2324-0.8953-1.0107-2.3495-0.39007-2.3418-2.1992 0.1734-0.26305 0.4919-0.46613 0.8125-0.48828 0.397-0.034 0.756 0.21617 1.1484 0.24414 0.333 0.034 3.8483-0.84847 4.2774-1.0078 0.3261-0.1217 0.6042-0.33795 0.8925-0.52149 0.06-0.80247 0.1159-1.8042-0.5312-2.4434-0.082-0.0907-0.4375-0.30576-0.4629-0.33789-0.4104-0.53019 0.8805-2.3286-1.0176-2.9941-1.9264 0.46368-1.2179 1.1135-2.0625 1.6172-1.4775 0.87821-3.972-0.35457-4.1777 2.1387-0.7883 0.68859-1.7184 1.53-2.8516 1.3477l-0.1289-0.48828c0.3141-0.1561 0.6227-0.33139 0.918-0.51953 0.2944-1.1562-0.4434-1.5029-0.3086-2.2637 0.3708-0.31937 0.7038-0.69224 1.1465-0.91406 0.4738-0.23773 1.0429-0.25252 1.5039-0.52344 0.153-0.0907 0.2697-0.22903 0.4355-0.30273 0.2812-0.12699 0.79-0.0798 1.1192-0.15234 0.7782-0.18482 1.6894-0.72959 2.3925-1.1016 0.4739-0.24869 1.028-0.2808 1.5039-0.52148 0.3205-0.16252 0.5966-0.43112 0.7891-0.73242l-0.2051-0.33789c-0.3522-0.17537-0.7004-0.37401-1.0195-0.61133l-0.1035-0.55078c0.1032-0.16933 0.1797-0.36412 0.3086-0.51953 0.2052-0.25663 0.7954-0.15475 1.0937-0.21485 0.7803-0.15458 1.3365-0.51864 2.1895-0.45703 0.621 0.0499 1.1976 0.46678 1.8086 0.36719 0.6794-0.11074 0.9166-0.54884 1.6816-0.27539 0.3903 0.83667 0.876 1.1397 1.7305 1.2539 0.3265-0.1833 0.6973-0.28774 1.0703-0.30664l0.5117 0.30664c0 0.36133-0.1343 0.72068-0.3086 1.0391l0.082 0.54687c0.3771 0.034 0.8627 0.24211 1.0957 0.55078-0.06 0.38835-0.081 0.77607-0.127 1.1621 0.116 0.12246 0.2231 0.2591 0.3516 0.36719 0.1791 0.14929 1.5707 0.23666 1.9101 0.30469 0.3844 0.0809 1.0145 0.3072 1.377 0.27734 0.1341-8e-3 0.2731-0.0345 0.4082-0.0625 0.1417-0.0431 0.6152-0.45599 0.7402-0.58008-0.6864-0.97787-1.7128-0.33972-1.9844-1.832l0.459-0.24609 0.2305-0.39649c-0.2102-0.3016-0.5644-0.44188-0.8164-0.70312-0.4608-0.48189-0.5647-1.2926-0.9942-1.832-0.4427-0.55752-1.1397-0.8637-1.5273-1.4668-0.4607-0.71577-0.1645-1.4866-0.3066-2.2617-0.06-0.34205-0.1804-0.67803-0.2832-1.0098-0.3587-1.1628-1.3717-1.4596-1.375-2.8125 0-1.0437 1.3547-2.805 1.7812-3.8496 0.2298-0.12548 0.8769-0.28564 1.1211-0.1836 1.0895 0.46084-0.102 2.3574 0.7656 3.1777-0.6613 1.1658-0.2231 1.1076 0.334 1.9551 0.3971 0.60888 0.198 1.7798-0.1289 2.3848l0.1035 0.54688 0.5117-0.21094c0.1535-0.34432 0.36-0.67 0.6094-0.94727l0.6094-0.0332c2.1335 1.3319 1.4907 2.6282 2.8262 3.7305l0.5136-0.18555 0.3321-0.42969c-0.1399-0.66228-0.3734-1.6327-0.2071-2.291l0.4571-0.24609c0.9082 0.14664 1.3449 0.43215 1.8086 1.2852-0.1089 1.1265-0.7007 2.3953-0.6875 3.3008l0.3574 0.39649c0.5192-0.26533 1.3332-1.1094 1.9609-0.82422 0.3455 0.15912 1.0305 1.8508 2.0899 0.82422 0.4292 0.0601 0.8638 0.0798 1.2968 0.0586 0.6775-0.59785 1.7774-0.21721 2.293-1.25l0.5117-0.18555 0.377 0.27539c0 1.7718 1.2943 0.80752-0.2559 2.7793v0.36719l0.5567-0.0898c0.1867-0.31371 0.4293-0.59831 0.7128-0.82618 0.7481-0.034 1.4438-0.34284 2.1387-0.54882 0.1285-0.0427 3.952-0.29284 4.127-0.27735 0.9878-0.68251 0.8041-2.1869 2.0117-2.627l-0.1797 0.18359 0.332-0.24414 0.3594 0.39649c0.06 0.99703-0.5386 2.07 0.6621 2.5976 0.1603-0.0503 0.3344-0.0802 0.4805-0.15234 0.5958-0.29518 0.9274-1.2163 1.4023-1.6797 0.9174-0.89416 1.687-1.9816 2.4434-3.0273l0.584 0.15429 0.2558 0.42969c-0.06 0.6361-0.7332 2.1507-0.584 2.627 0.2181 0.71373 0.6262 1.3259 0.5567 2.1094-0.07 0.85587-0.6935 1.5731-0.6875 2.4434 0 0.35943 0.2257 0.66104 0.2832 1.0078 0.1032 0.61081-0.2298 1.2333 0 1.834l0.5332 0.24218c0.1206-0.3911 0.3002-0.76508 0.5371-1.0996l0.5039-0.21289c0.2559 0.25134 0.5783 0.44588 0.9199 0.54883 0.1735-1.0489-0.1301-2.1605 0.2539-3.1777l0.4629-0.27539c1.3392 0.29064 0.7673 0.94352 1.2735 1.4961 0.6028-0.75307 0.4727-1.7707 0.8144-2.627 0.2427-0.609 2.138-3.3826 2.6485-3.791h0.5909l0.4609 0.36914c0.06 0.35868 0.1487 0.70756 0.2832 1.0391 0.7098 0.29065 1.7915-0.57718 2.6465 0.67188 0.4163 0.0903 0.8471 0.12197 1.2735 0.0898 0.5958-0.44364 1.1658-1.1722 0.8652-1.9531-0.8701-0.61898-1.736-1.0709-1.1719-2.293 0.9275-0.2366 1.3593-1.0029 2.0625-1.5918 1.0906 0.2914 1.8431 1.0257 3.0567 0.73438 1.7176-0.41167 2.2132-2.4166 2.9804-3.1172 0.5505-0.5051 1.2849-0.49688 1.7832-1.0703 0.5001-0.57861 0.1575-1.049 0.2286-1.6797 0.1088-1.0031 2.0616-0.99589 2.166-3.207-0.4294-0.81351-0.9612-0.7203-0.8926-1.8359 0.3658-0.28875 1.1153-0.43122 1.3516-0.82422 0.9496-1.5793 0.2804-3.4638 1.0429-4.2168 0.1659-0.16252 1.5586-1.0897 1.7598-1.1641 0.5252-0.19313 1.1024-0.13934 1.6289-0.33398 0.5504-0.69559 1.2516-2.3728 1.9375-2.8438 0.6432-0.44274 1.3924-0.31464 2.0098-0.70117 0.2056-0.1304 0.5959-0.82665 0.5898-1.0703-0.06-0.89726-1.2796-1.2212-1.3516-2.1992-0.06-0.64018 1.3051-1.5225 1.377-3.334 0.081-2.0922-2.0057-2.8243-1.3242-4.4277 1.225-0.20107 2.4063 0.21497 2.8769-1.3145 0.1531-0.48491-0.2812-3.3152-0.6328-3.8203-0.1599-0.22866-1.2261-0.63465-1.5527-0.91797-0.06-0.62097 0.3959-1.1535 0.3828-1.7734l0.459-0.27539c0.621 0.16933 1.0298 0.54597 1.5312 0.91602 1.8082 1.3318 0.7195 3.0567 1.3477 4.5859 0.1338 0.32806 0.4045 0.57125 0.5644 0.88476l0.6621 0.0586c0.4237-0.35566 1.0172-0.29582 1.5-0.51953 0-0.42664 0.2377-0.66225 0.3594-1.0391 0.2559-0.81362 0.1793-1.5592 0.5899-2.627 0.4426-1.1768 1.3392-2.1656 1.58-3.4219 0.1531-0.80851-0.062-1.6369 0.078-2.4473 0.1791-1.0872 0.9292-2.31 0.3593-3.666-0.6028-1.4308-1.1228-0.98859-0.9941-3.0273 0.1281-2.096 1.3785-3.5114 2.1387-5.377 0.3586-0.87712 0.4434-1.863 0.6347-2.7832 0.1418-0.67853 0.3923-1.3536 0.4629-2.0449 0.1161-1.209 0.1774-2.0691 0.459-3.2695 0.1531-0.65231 0.1217-1.3305 0.2559-1.9863 0.116-0.5746 0.3407-1.4433 0.664-1.9258 0.3141-0.46481 0.8229-0.82438 0.9922-1.377 0.1285-0.41851 7e-4 -0.85884 0.08-1.2832 0.1531-0.81868 0.8333-1.4666 1.1992-2.168 0.8307-1.5884-0.2633-1.967-0.4101-2.6602-0.101-0.43861 0.2367-0.77831 0.3769-1.1602 0.738-1.929-0.6343-2.1508-0.1738-3.5137 0.3005-0.89824 1.2257-1.5016 1.5801-2.4473 0.2558-0.67949 0.2544-1.4327 0.5312-2.1074 0.1735-0.41858 0.2872-0.85078 0.461-1.2539 0.2944-0.70076 1.0639-1.1191 1.3515-1.8633 0.1338-0.35717 0.1726-0.74511 0.2168-1.1211 0.333-2.419-4e-4 -3.3-0.7988-5.5312-0.1346-0.39348-0.1304-0.82608-0.3145-1.2031-0.2245-0.44788-0.5555-0.90205-0.8398-1.3125l-0.6074-0.21485-0.5371 0.15625c-0.3648 0.50608-0.5777 2.0429-1.045 2.291-0.2558 0.13569-0.5428 0.18576-0.7949 0.33203-1.0158 0.59683-1.5788 1.7304-2.3633 2.5703-0.5001 0.53322-1.0248 1.0347-1.5 1.5879-0.621 0.72284-1.0397 1.3958-1.9121 1.8672-0.6683 0.36057-2.5552-9e-3 -3.2578-0.27734-0.5504-0.20674-2.3762-1.522-2.7266-1.9844-0.3205-0.42572-0.6347-1.5136-0.6347-2.0488 0-0.27968 0.2486-1.8011 0.3574-2.0156 0.5696-1.1468 3.2699-1.3686 3.4902-3.3613 0.166-1.4654-0.9383-1.7399-1.6562-2.627-1.4386-1.7764-0.2992-4.4185-1.0684-5.9629-0.4548-0.90928-1.9324-1.3871-2.0156-2.4434-0.06-0.79442 0.9255-1.8064 0.9961-2.9648 0.116-1.9358-0.3277-4.8977-0.4356-6.9062 0-0.51927 0.06-1.0396 0-1.5586-0.06-0.38793-0.1288-0.77081-0.1035-1.1621 0.2499-3.9011 4.6064-6.005 4.9688-9.5957 0.2237-2.1982-0.3402-4.4018 0-6.6016 0.168-1.0707 0.9478-2.0877 1-3.2012-4.2541 1.2629-8.3685 2.072-12.254 1.2949-7.071-1.4142-9.7221-3.1829-15.025-0.53125s-6.1861 4.5967-10.606 4.4199c-4.4194-0.17688-3.7125 1.0614-7.9551 1.9453s-10.431 2.1203-15.734 0.5293-6.0094-5.3028-9.8985-4.2422c-3.889 1.0607-2.6527 7.7776-8.1328 5.6562-5.4801-2.1213-3.0043-1.7672-8.4844-5.6562-4.4525-3.1599-8.5547-9.9369-12.781-10.092zm68.404 153.23c-0.069 1e-3 -0.133 6e-3 -0.1856 0.0176-0.2536 0.19426-0.6254 0.36881-0.9414 0.42773l-0.3554 0.45703-0.051 0.51953c0.1999 0.25739 0.3513 0.62568 0.5586 0.85547 0.116 0.12926 0.3158 0.20857 0.4336 0.33594 0.1168 0.12586 0.2016 0.32306 0.3086 0.46094 0.4884 0.63137 0.9813 1.004 1.6797 1.375 0.3632 0.192 0.7041 0.42188 1.1425 0.30664 0.2007-0.32126 0.2791-0.83177 0.1563-1.1934-0.047-0.13984-0.1874-0.29092-0.2539-0.42774-0.104-0.21543-0.1535-0.53857-0.2813-0.73242-0.1863-0.28233-0.4405-0.50894-0.5859-0.82812-0.2143-0.46753-0.2427-1.0493-0.7129-1.375-0.1965-0.13493-0.6108-0.2018-0.9102-0.19727zm-20.869 4.1426v4e-3c-0.2297 4e-3 -0.4925 0.0553-0.6757 0.0859-0.4001 0.0654-0.8269 0.24567-1.1543 0.48828-0.2094 0.25777-0.3276 0.80621-0.2539 1.1289 0.1364 0.29367 0.3733 0.60669 0.6113 0.82617 0.075 0.64645-0.2276 1.2477-0.1524 1.8945 0.1886 0.27326 0.518 0.55554 0.8145 0.70313 0.067 0.42538 0.321 0.60367 0.459 0.94726 0.063 0.16139 0.042 0.38607 0.1015 0.55078 0.088 0.24303 0.4228 0.64832 0.6133 0.82422l0.4571-0.0312c0.2528-0.90777 0.2377-1.9058 0.5351-2.7188 0.13-0.35452 0.3266-0.8365 0.5098-1.1621 0.1882-0.33411 0.4985-0.60154 0.6367-0.97851 0.1209-0.32996 0.2185-0.87646 0-1.1914l-0.4336-0.1543h0.051c-0.4805-0.28422-1.3709-1.0776-1.834-1.1914-0.081-0.0227-0.1801-0.0254-0.2852-0.0254zm-11.105 2.4531c-0.104-2e-3 -0.1914 3e-3 -0.2481 0.0195-0.023 4e-3 -0.4875 0.25007-0.5351 0.27539-0.044 0.0265-0.4123 0.22871-0.4336 0.2461-0.2551 0.2245-0.4789 0.66978-0.6133 0.97656-0.1591 0.36321-0.2324 0.6694-0.2773 1.0606-0.1834 1.6141 0.7675 1.7027 0.8125 2.6074-0.3043 0.14475-0.7626 0.20003-1.0938 0.1543-0.2347 0.29064-0.4894 0.60023-0.6875 0.91601-0.3632 0.58035-0.6252 1.5278-1.3496 1.7734-0.2211 0.0745-1.5171 0.10685-1.7832 0.0898-0.6344-0.0461-1.2442-0.23195-1.8848-0.0898-0.6304 0.72582-0.9934 1.15-0.8047 2.168 0.057 0.30123 0.1239 0.54755 0.3223 0.79492 0.1055 0.1319 0.2627 0.24171 0.3789 0.36719 0.1202 0.13001 0.227 0.31252 0.3574 0.42968 0.1293 0.1149 0.3415 0.18337 0.459 0.30469 0.2865 0.29518 0.5526 0.99158 0.8145 1.3438 0.3246 0.43586 0.845 0.62846 1.1445 1.0996l0.051 0.42969-0.457 0.27539c-0.3085 0.0533-0.9608-0.0531-1.2227-0.21484 0-3e-3 -0.6287-0.68222-0.7129-0.76563-0.4095-0.11943-0.9489-0.14784-1.3242-0.30469l-1.3496-1.0078-0.5352 0.0918c-0.3367 0.42448-0.9007 0.72686-1.4512 0.64258-0.5072-0.28876-0.6784-0.86411-1.248-1.0703l-0.6113 0.0293c-0.3515 0.19805-0.3738 0.54547-0.584 0.82617-0.019 0.0227-0.7611 0.68601-0.791 0.70313-0.5583 0.32504-1.5791 0.34679-2.0117 0.73242-0.1905 0.16932-0.3436 0.44003-0.5352 0.63086-0.039 0.0393-0.07 0.0551-0.1016 0.10351-0.2033 0.33449-0.5203 2.0928-0.5117 2.5078 0.011 0.57331 0.4219 2.0815 0.8164 2.5039 0.05 0.0552 0.093 0.0679 0.1524 0.11328 0.2725 0.19956 0.4445 0.45552 0.664 0.6211 0.3066 0.23093 0.684 0.34453 0.9922 0.61133 0.071 0.35565 0.1393 0.71299 0.2031 1.0703l0.4336 0.33594c0.7285-0.3326 0.7366-0.68772 1.1719-1.0703 0.2948-0.25965 0.9762-0.39239 1.043-0.85742 0 0 0.9007 0.12297 1.2734 0.0625 0.8736-0.14249 1.4792-0.95181 2.2168-1.3438l0.5078 0.18359 0.2559 0.45704c-0.1357 0.42107-0.2343 0.90124-0.2559 1.3438 0.1486 0.30765 0.3465 0.62056 0.5606 0.88671l-0.051 0.52149c-0.4104 0.39587-0.6436 1.1394-0.7891 1.6797-0.6185 0.80485-2.1896 0.51878-3.1074 0.88672l-0.2285 0.64062c0.019 0.5102 0.3384 1.0432 0.7129 1.377-0.058 0.31635 0.03 0.82703 0.2031 1.0996l0.5352-0.12304c0.294-0.57313 0.9044-0.73514 1.4589-0.94532l0.3223-0.12109c0.03-2e-3 0.5982 0.0815 0.6641 0.0898l0.3828 0.36719c-0.1421 0.3967-0.3165 0.78941-0.5117 1.1621-0.034 0.0673-0.296 0.51459-0.3047 0.54883-0.051 0.17235-0.06 1.005-0.051 1.2246 0.4236 0.1406 0.904 0.23866 1.3496 0.27344l0.2813 0.42968c-0.1837 0.3447-0.8584 0.84137-1.2246 0.97657-0.3334 0.12283-0.6968 0.11438-1.043 0.27539l-0.2539 0.61132 0.2812 0.45899 0.5078 0.18164c0.5091-0.2521 1.0472-0.22961 1.5801-0.36719 0.4236-0.10923 0.7185-0.37749 1.1113-0.51953l0.3418-0.12109c0.192-0.0302 0.418 0.0302 0.6094 0 0.3137-0.0518 0.7137-0.28512 0.8926-0.55078 0.011-0.37153 0.1548-0.84654 0.3555-1.1602 0.3507-0.0884 0.8124-0.13677 1.1718-0.0918 0.5557 0.0646 1.3486 0.44481 1.8594 0.0606l0.3047-0.51953c0.058-0.31143-0.023-0.83628-0.2031-1.1016-0.3557-0.44935-1.1804-0.46453-1.7051-0.42579-0.6797-0.34053-1.1227-0.99877-0.9922-1.7754 0.3617-0.60453 0.9616-1.1602 1.7051-1.1602 0.2018-0.13871 0.4072-0.42039 0.4941-0.64063l0.17-0.42773c0.099-0.52891-0.1785-1.1752-0.129-1.7422l0.4571-0.27539c0.7373 0.31068 1.2675 1.0021 2.0625 1.1621l0.4609-0.24609 0.5586 0.15429c0.075 0.30917 0.2553 0.67126 0.459 0.91602 0.395 0.0794 0.843 0.12128 1.2461 0.0918l0.1035-0.67187c-0.1882-0.33524-0.7188-1.0256-0.7402-1.377-0.039-0.55159 0.3376-1.1104-0.1016-1.7422-0.3867-0.10734-0.8005-0.27969-1.1445-0.48828-0.1867-0.20069-0.3645-0.63701-0.3301-0.91602l0.3555-0.42773c0.3681 0.39035 1.0164 0.43088 1.5019 0.27539 0.5922-0.90561-0.079-1.5393 0.3321-2.4766 0.011-0.0265 0.2976-0.38028 0.332-0.42579 0.5072-0.65635 0.9064-1.4294 0.789-2.293l-0.2812-0.42774-0.5117-0.0625c-0.3884 0.15647-0.5212 0.45624-0.7891 0.73438-0.062 0.0654-0.7505 0.65479-0.789 0.67187-0.2423 0.12095-0.8082 0.13885-1.0684 0.0625-0.095-0.86404 0.2822-1.5752 0.6367-2.3242 0.1693-0.35867 0.5991-1.4593 0.7129-1.832 0.1629-0.53507 0.3721-1.5207 0.4336-2.0801-0.2695-0.30425-0.3053-0.60218-0.4609-0.94922-0.087-0.19124-0.3097-0.5056-0.4336-0.67382-0.206-0.2778-0.5611-0.51189-0.7383-0.79297-0.1894-0.29972-0.2495-0.87301-0.3145-1.2227-0.087-0.47478-0.244-1.014-0.1699-1.498 0.059-0.38948 0.2452-0.91839 0.4609-1.2539 0.094-0.14665 0.2724-0.27468 0.3555-0.42578 0.2211-0.4018 0.5306-1.38 0.457-1.834-0.062-0.38797-0.4933-1.118-0.8398-1.3144-0.1572-0.0888-0.6096-0.16003-0.9219-0.16797zm-5.0625 3.1992c-0.5714 0.32542-1.2919 0.30454-1.9102 0.61133-0.1795 0.41469-0.2545 1.063-0.3808 1.3438-0.1565 0.34809-0.4703 0.40398-0.5586 1.0703l0.2773 0.27734c0.4808 0.034 0.921-0.0801 1.3926-0.10546 0.3209-0.0189 0.6912 0.0276 1.0019-0.0215 0.155-0.0227 0.3558-0.10623 0.5098-0.15234l0.332-0.42969 0.074-0.67383c-0.4228-0.45313-0.3805-1.2232-0.1797-1.7695zm-9.9844 3.1758-0.4062 0.36719c-0.098 0.36057-0.2122 0.8527-0.2032 1.2246 0.011 0.37961 0.1568 0.72839 0.1016 1.1289-0.03 0.22639-0.1633 0.47933-0.1758 0.70312-0.019 0.2623 0.1903 0.80077 0.3555 1.0078l0.6367 0.21485 0.3809-0.33594c0.144-0.40218 0.2159-0.88504 0.1777-1.3125-0.019-0.16743-0.1115-0.38887-0.1035-0.55078 0.011-0.17499 0.1211-0.40297 0.1562-0.58008 0.1183-0.62404 0.1618-1.2595-0.2558-1.7734zm-27.986 12.014c-0.6144 0.0113-1.095 0.26463-1.5821 0.73243-0.094 0.0903-0.3173 0.36431-0.3554 0.48828 0 0-0.087 0.97748 0 1.1914 0.4468 0.43197 1.1458 0.65974 1.7578 0.64258 0.1738-4e-3 0.3586-0.079 0.5332-0.0918 0.4069-0.034 0.7542 0.0391 1.1211-0.21484-0.1142 0.81071-0.7909 1.3555-0.8906 2.1387 0.1515 0.4506 0.6463 0.7123 1.0019 0.98828 0.3659 0.28422 0.7139 0.38947 1.1641 0.44922 0.4509 0.0597 0.8646-0.0845 1.1719-0.42773 0.1186-0.13153 0.1905-0.32171 0.3046-0.45899 0.2113-0.25285 0.5272-0.50288 0.7891-0.70312 0.124-0.28573 0.154-0.80904 0.027-1.0996-0.4763-0.16517-0.7441-0.56773-1.0703-0.91602-0.1995-0.2143-0.486-0.26565-0.7129-0.42968-0.6996-0.50355-1.521-1.92-2.3671-2.2012l-0.4434-0.0586c-0.1576-0.0227-0.3079-0.0293-0.4492-0.0293zm23.812 6.3848c-0.3345 0.0786-0.6895 0.2092-0.9942 0.36719l-0.2285 0.61328c0.2177 0.59875 0.5676 1.3744 0.7383 1.9551 0.093 0.31785 0.085 0.74554 0.2539 1.0391 0.019 0.0302 0.3169 0.35079 0.3555 0.39648 0.692 0.32542 1.514-0.14674 1.8594-0.76367l0.078-0.64258-0.3321-0.39453-0.027-0.24609s-0.6797-0.62883-0.8633-1.1309c-0.1326-0.36208-0.091-0.67554-0.3574-1.0098zm-15.256 4.0957v2e-3c-0.2067 0.17159-0.4721 0.31024-0.7129 0.42578-0.1054 0.31559-0.1276 0.8857 0.027 1.1934l0.4316 0.36718c0.3186 0.0605 0.8506-0.0266 1.1211-0.21484 0.049-0.41038 0.068-0.84141 0.051-1.2539zm17.336 1.1504c-0.2805 4e-3 -0.5831 0.086-0.9356 0.28711l-0.1777 0.45703 0.1777 0.48828c0.5221 0.36133 1.9636 0.68687 2.5977 0.61329 0.1319-0.3224 0.1932-0.92313 0.051-1.2539-0.654-0.28535-1.1385-0.60049-1.7128-0.5918zm-2.9219 1.3574c-0.8032 1.0291-1.1273 1.2818-1.043 2.6875l0.2539 0.42774 0.5352 0.24609c0.3004 0.034 0.8045-0.11105 1.0175-0.33593 0.1153-0.31786-0.012-0.88443-0.1796-1.1621l-0.025 0.0605c-0.2468-0.49905-0.3085-1.1429-0.1778-1.6816zm-23.525 2.8398v2e-3c-0.3545 4e-3 -0.734 0.0455-1.0781 0.1211-0.2888 0.16516-0.5579 0.65995-0.6094 0.97656 0.061 0.49251 0.2171 1.1276 0.6367 1.4375 0.7152 0.35338 1.453 0.15688 1.9356-0.45703v-1.1934c-0.1539-0.21317-0.3093-0.42516-0.459-0.64063l-0.3555-0.24609c-0.026-4e-5 -0.048-3e-4 -0.07 0zm13.732 6.4102v2e-3c-0.051 9.4e-4 -0.099 4e-3 -0.1406 8e-3l-0.3047 0.45703 0.1016 0.51953 1.0703 0.55078c0.5843-0.10091 1.1706-0.25576 1.7597-0.0898 0.051-0.31408-0.012-0.8238-0.1797-1.1016-0.3333-0.0227-1.0849-0.15433-1.375-0.30664 0 0-0.5725-0.044-0.9316-0.0391zm-9.3242 0.0898c-0.2222 4e-3 -0.442 0.0432-0.6211 0.13281-0.3693 0.44508-0.6172 0.99163-0.8906 1.498l0.1015 0.55078c0.4023 0.31937 0.5886 0.89368 0.7149 1.375 0.072 8e-3 0.6533 0.0932 0.6875 0.0898 0.043-3e-3 1.4715-0.44845 1.5293-0.45703 0.3001-0.034 0.7671 0.13399 0.9648 0.36719h0.6133l0.457-0.27734c0.011-0.24945 0.031-0.55925 0.127-0.79297l-0.457-0.30469c-0.3754 0.0393-0.8369-9e-3 -1.1973-0.12305 0.1039-1.1904-0.2108-1.7431-1.3926-1.9961-0.1882-0.0393-0.4126-0.0678-0.6348-0.0625z" fill="#013378"/>
  </clipPath>
  <filter id="filter31320" x="-.15707" y="-.12814" width="1.3141" height="1.2563" color-interpolation-filters="sRGB">
   <feGaussianBlur stdDeviation="8.2015003"/>
  </filter>
 </defs>
 <g>
  <path transform="scale(.26458)" d="m1308.9 594.1c-1.3974 0.0862-1.4375 3.7227-3.4141 6.7773-1.6869 2.607-5.4434 4.009-8.5723 5.1875 0.4527 0.57377 1.0121 1.2631 1.1641 2.1758-0.1092 0.10394-0.2112 0.21826-0.334 0.3086-0.6814 0.51507-3.3527-0.67653-3.8965-0.0625-0.1209 0.13984-0.2251 0.307-0.334 0.45898 0.1217 1.4844 1.4899 2.3424 2.1387 3.543 0.9597 1.7738-0.1198 2.9171 1.2246 4.1582 1.1861 1.0974 3.0716 0.48078 3.7442 1.0703 0.263 0.23207 0.3194 0.6236 0.582 0.85547 1.0196 0.88109 2.6539 0.0712 3.0547 0.21485 0.9093 0.33108 0.5257 2.2085 0.1992 2.8105-0.2559 0.48095-0.7422 0.78922-1.1211 1.1621-0.8246 0.10507-1.9506 0.35839-2.625 0.85547l-0.2285 0.64063c0.7369 1.1927 3.0402 0.35571 4.0508 0.30468 0.2309-8e-3 0.4596 0.0608 0.6875 0.0918l0.3847 0.36914 0.1289 0.54883c0.282 0.19389 0.4912 0.552 0.5547 0.88672l-0.2812 0.51953 0.3828 0.36719c0.4798-4e-3 1.2643 0.2092 1.7324 0.36718 0.3715 0.12246 0.6403 0.4682 0.9942 0.58204 1.1783 0.37568 2.3628-1.4975 3.5918-1.3145l0.3828 0.39649 0.1035 0.51953c-0.2298 0.25738-0.422 0.57419-0.5117 0.91601l0.1797 0.49024c0.742 0.29782 1.6203 1.1987 1.8066 1.9863-0.1217 0.27174-0.5313 0.62248-0.8398 0.64062-1.3239 0.0809-1.7889-1.5388-2.7247-2.0156l-0.4609 0.27343-0.2812 0.55079c-2.2558 0.85186-0.582 5.5354-3.4629 6.1113-1.5294-0.76218-0.5971-2.4811-0.6153-3.2695 0-0.18784-0.082-0.37019-0.1289-0.55078l-0.5137-0.18359c-0.4999 0.50003-1.0397 1.0318-1.7558 1.1914-0.6584-0.34393-0.6092-0.76704-1.0449-1.1914-0.2181-0.21695-2.0038-0.56674-2.6231-1.0684-1.1861 0.16592-0.9935 1.0447-1.6816 1.252-0.3772-0.12019-0.7381-0.29872-1.043-0.55078l-0.5371 0.15234-0.2559 0.55078c0.1924 0.83267 0.7518 1.1476 1.4278 1.5606 0.2181 0.60892 0 1.3219-0.1309 1.9238l0.1797 0.48828 0.5137 0.18555c0.6966-0.31068 1.272-0.54897 1.9336-0.94922 0.74 0.034 1.024 0.31917 1.25 0.94922-0.6271 1.9365-2.3105 1.2962-3.5664 2.2617-0.5323 0.40822-0.8518 1.2662-1.0957 1.873-0.1735 0.4376-0.4791 0.87428-0.3262 1.3652l0.459 0.30468c0.3269-0.15382 0.6925-0.21102 1.0195-0.36523 0.621-0.29065 1.2098-0.95714 1.9629-0.73437l0.2812 0.42968v0.60938c-1.0887 0.94768-2.8997 2.2669-0.8418 3.332l0.5821-0.12109c0.5252-0.12548 1.059-0.21709 1.5039-0.55079 0.7541-0.56757 1.0866-1.4984 1.7285-2.168 0.3772-0.39111 0.8394-0.6944 1.1992-1.1016 0.4428-0.49905 0.6069-1.2136 1.2949-1.4551 0.3402-0.11829 0.3978-0.0339 0.7247 0.0508 0.9527 0.21845 1.3807-0.60472 2.0019-1.1309l0.2578 0.18359c-0.06 0.88006-0.1887 1.5056 0.078 2.3828 0.6544 0.14249 1.3345 9e-3 1.9883 0.1543 1.6941-0.61803 1.7544-1.6856 3.7949-1.9551l0.062 0.45703-0.3339 0.45899c0 1.1658 0.5891 1.7342-0.061 2.8105-1.4661 0.66739-2.1384-0.29208-3.1055 0.0606-0.7066 0.25814-1.0307 1.1316-1.6308 1.375-1.343 0.54535-3.3461-0.7373-3.4121 1.5918 0 0.38192 0.1421 0.74431 0.1289 1.127 0 0.65938-0.3711 1.2654-0.3848 1.9277l0.4863 0.33593c0.384-0.0907 0.7778-0.12493 1.1719-0.12304l0.1289 0.55078-0.6875 0.88476c-0.8014 0.18558-1.5854 0.92618-2.3437 1.2852l-0.1016 0.57812 0.2813 0.42969c0.6341 0.26532 1.3438 0.24639 1.9863 0.48828 0.9366 0.35339 1.0969 0.89567 2.2285 0.95508 2.0182 0.10583 1.5813-2.0465 2.6856-2.6973l0.2832 0.42968c-0.2177 0.60892-0.1165 1.2633-0.1289 1.8945l0.4082 0.24414c1.2477 8e-3 1.2973-1.4091 1.6816-2.2637 0.1859-0.42364 0.3772-0.78648 0.4609-1.25 0.1867-1.0588-0.3896-3.5968 1.2989-3.5762l0.3847 0.36719c0.2102 0.83467-0.5465 1.7297-0.4629 2.5664 0.1924 1.9224 0.391 2.0314 0.918 3.7285 0.5767 0.29065 1.2906 0.28655 1.7852 0.73242 0.1031 0.37807 0.1402 0.77026 0.1289 1.1602l-0.2325 0.37109c-0.8034 0.14362-1.9687-0.88247-3.3085-0.55078l-0.2051 0.51953c0.3273 0.16555 0.6274 0.39199 0.8652 0.67383v0.60938c-0.4104 0.13001-0.8334 0.0529-1.25 0.0352-0.4104-0.0189-0.77 0.0905-1.1719 0.1211-0.627 0.0499-2.21-0.3956-2.9023-0.55079l-0.5117 0.18555c0.06 0.41125 0.276 1.1868 0.5898 1.4668 0.6896 0.61999 2.8265 2.073 3.2324 2.7812 0.3648 0.64112 0.5344 1.2216 1.1485 1.7402 0.4798 0.40611 1.7804 1.107 2.4433 1.5586 0.2053 0.85697 1.0587 1.7615 2.0118 1.5605 0.3586-0.0809 0.6138-0.36975 0.9687-0.45898 0.4164-0.10847 0.8521 0.0522 1.2734-0.0332 0.3527-0.0707 0.6443-0.31261 0.9942-0.39844 1.1804-0.29065 1.3038-0.32052 2.0351-1.3438-0.1031-0.33298-0.32-0.6095-0.4863-0.91602-0.4163-0.78327-0.6213-2.0948-0.1035-2.873 0.1988-0.29292 0.5136-0.49351 0.7656-0.73438 0.4031-0.0907 0.8126-0.12456 1.2227-0.12305 0.8226 1.135 2.364 0.12326 2.8769-0.76171l0.584-0.0918 0.459 0.30664c0.1032 1.8268-2.7602 2.7294-4.125 2.0156l-0.4609 0.27539c0.2369 0.3035 0.5687 0.44503 0.8398 0.70313 0.7239 0.6946-0.5968 2.0904 0.332 3.9414l-0.125 0.58203c-0.7863 0.47285-1.5833 0.82944-2.4492 1.1309-0.5 0.17461-1.0402 0.27185-1.5 0.55078-0.085 0.0514-0.1516 0.12709-0.2285 0.18945 0.073 3e-3 0.1819 0.0396 0.25 0.0371 3.375-0.12499 4.75 0.74999 8.25 1.5 3.5 0.74997 10 1e-5 12.375-1.625s1.2498-3.25 1-9.25c-0.25-6 0.5-5.125 1.25-10.375s3.5-5.375 6.75-8.625 1.25-4.875-0.5-12-4.875-4.875-7.75-7.75-3.125-3.875-4.125-11.125c-1-7.2501-4.125-5.25-7.25-7.625-3.125-2.375-5.5-0.99993-8.5-0.625-3 0.375-8.625-1.75-12.75-6.375-1.1602-1.3008-1.9141-1.8111-2.4609-1.7773zm-33.059 23.148c-0.1505-8.7e-4 -0.2925 0.0236-0.4004 0.0742-0.5812 0.8603-0.05 1.8477 0.051 2.75 0.044 0.39504 0.026 0.76927 0.1289 1.1621l0.5859 0.1211c0.5049-0.20561 1.1319-0.21763 1.5547-0.58008 0.2158-0.26306 0.3227-0.80419 0.2539-1.1328-0.043-0.2022-0.5433-1.2334-0.6875-1.4062-0.2302-0.27742-0.5035-0.46646-0.6875-0.79297-0.1886-0.10999-0.5114-0.19343-0.7988-0.19532zm5.6289 12.65v4e-3c-0.039 7.9e-4 -0.078 4e-3 -0.1192 8e-3 -0.2464 0.034-0.5191 0.18405-0.7656 0.24414-0.1534 0.0393-0.3297 0.027-0.4844 0.0625-0.1795 0.0393-1.4024 0.47226-1.5273 0.54883-0.2449 0.15043-0.5758 0.62658-0.6875 0.88672-0.011 0.57691 0.2642 1.4799 0.2558 1.7109-0.019 0.44432-0.3157 0.76759-0.053 1.2539l0.3594 0.36524c0.3632-0.0514 0.7591-0.15464 1.0937-0.30469 0.302 0.17537 0.5975 0.3615 0.8907 0.55078l0.4843-0.0312c0.7387-0.73538 0.7785-2.8794 1.6036-3.3008 0.1364-0.29631 0.1152-0.61115 0.059-0.91797-0.1-0.54028-0.5183-1.0913-1.1094-1.0801zm6.0879 0.13672c-0.079 2e-3 -0.1619 0.0104-0.2481 0.0293-0.011 1.3245 1.9555 3.0146 1.7852 4.4023l-0.4082 0.36719-0.5606 0.0918-0.2812 0.55078c0.2642 0.2434 0.5217 0.49677 0.7656 0.76172l-0.1289 0.55078c-0.2752 0.20598-0.5535 0.50526-0.7383 0.79492l0.2031 0.48828 0.4571 0.33789c0.5156 0.14816 1.2606-0.0179 1.6054-0.45898 0.1119-0.14551 0.1455-0.39937 0.2539-0.55078 0.1792-0.24907 0.5587-0.50565 0.7872-0.73242 0.3352-0.10243 0.9326 0.0121 1.1992 0.24414l0.3808-0.21289 0.051-0.67188-0.2793-0.42969 0.074-0.39648c0.3205-0.0189 0.8017-0.18302 1.0469-0.39649l0.1367-0.42968c0.2238-0.70598-0.2327-1.1125-0.6972-1.5586-0.1127-0.10885-0.2545-0.27906-0.3809-0.36523-0.3322-0.22677-0.7687-0.32564-1.1191-0.51953-0.2518-0.13947-0.8418-0.49024-0.8418-0.49024-0.3884-0.22563-0.8028-0.3073-1.1973-0.49023-0.6532-0.30312-1.1039-0.93931-1.8672-0.91406zm-22.043 1.9434c-0.2748 8e-3 -0.5418 0.0829-0.7441 0.22461l-0.078 0.67188c0.039 0.0525 0.281 0.40413 0.3067 0.42968l0.9414 0.64063c0.1867 0.0858 0.4638 0.1235 0.664 0.18359 0.7001 0.20939 1.9178 0.68002 2.6211 0.33789 0.2332-0.11338 0.6398-0.60272 0.7657-0.82617l-0.3321-0.42773c-0.4891-0.14929-0.9391-0.11065-1.4258-0.1836-0.6041-0.0903-1.1758-0.38187-1.707-0.67187l-0.051-0.0918c-0.2453-0.20107-0.606-0.29807-0.959-0.28711zm-16.482 0.0117-0.4336 0.30469c-0.2476 0.5325-0.7496 2.774-0.6875 3.3301 0 0.0189 0.1865 0.44251 0.2031 0.48828 0.5921 0.0597 0.8407-0.49378 1.5273-0.36524 0.1512 0.3326 0.2961 0.6709 0.4336 1.0098 0.299 0.16403 0.6161 0.41392 0.8399 0.67187 0.5464 0.192 1.2656 0.17182 1.7558-0.15625 0.2695-0.17877 0.5394-0.51286 0.7911-0.73242 0.5509-1.125-0.7882-2.0584-1.6055-2.5352l-0.049-0.1836c-1.0243-0.58696-1.9412-0.1156-2.3692-1.5898zm46.172 3.2383-0.254 0.51758 0.1778 0.51953c0.3107 0.079 0.7531 0.34694 0.9414 0.61328l0.5625-0.0625 0.074-0.66992v-2e-3c-0.2362-0.32542-0.5463-0.55681-0.8125-0.85547zm-39.805 1.6191-0.5625 0.1211-0.2012 0.48828c0.5825 0.46155 0.8269 1.1071 1.0957 1.7734l0.5586 0.27539 0.3828-0.36524v-2e-3c0-1.0702-0.1412-1.8879-1.2714-2.291zm-16.225 2.7207-0.4083 0.36718-0.5351 0.0899-0.4063 0.36718-0.1289 0.58204c0.9501 0.21807 1.4475-0.10439 2.0391-0.79688l0.027-0.42578-0.1796-0.18359zm9.7265 0.94531c-0.2804 0.096-0.597 0.1458-0.8906 0.18359l-0.2793 0.51953c-0.06 0.30841 0.07 0.84902 0.3066 1.0703 0.504 0.0858 1.1579-0.11391 1.4532-0.55078l0.025-0.51954c-0.1439-0.24945-0.3709-0.53629-0.6093-0.70312zm13.881 0.49219-0.2539 0.0898-0.3301 0.46094 0.1758 0.48828 0.5859 0.24219c0.099 0.28837 0.4554 0.65439 0.7383 0.76562l0.459-0.27734c-0.011-0.0635-0.089-0.48522-0.1016-0.51953-0.099-0.23736-0.3463-0.52014-0.4922-0.74219-0.034-0.0559-0.042-0.0972-0.092-0.14258-0.026-0.0226-0.6168-0.32502-0.6894-0.36523zm31.328 0.0898-0.4336 0.36719c-0.1716 0.37417-0.2767 0.87278-0.2812 1.2832l0.4082 0.21484c0.2857-0.10431 0.6502-0.4342 0.7871-0.70507v-1.0059zm-27.227 0.55078c-0.2086 0.12246-0.75 0.0758-0.9687 0.0293l-0.1524 0.55078c0.1826 0.29253 0.3799 0.57666 0.586 0.85351l0.6875 0.0625 0.2812-0.51953c0.019-0.30576-0.1924-0.78528-0.4336-0.97656zm-20.877 6.9258c-0.1652 4e-3 -0.3226 0.0335-0.4649 0.10157l-0.3046 0.51953c0.311 0.14702 0.6585 0.42608 0.8652 0.70312l-0.1524 0.70313 0.4844 0.33593c0.6127 8e-3 1.071-0.52105 1.1446-1.0976-0.027-0.33714-0.1435-0.74305-0.3086-1.0391-0.3731-0.0831-0.8415-0.23715-1.2637-0.22657zm-7.5684 8.1406-0.5117 0.21289-0.1523 0.67383c0.1606 0.25738 0.6461 0.58669 0.9414 0.64062 0.01 0 1.2115-0.0237 1.25-0.0312 0.1602-0.0265 0.3788-0.12797 0.5351-0.18164l0.252-0.52148-0.2266-0.48633c-0.3239-0.12473-0.7482-0.20256-1.0957-0.18555-0.097 0.0884-0.3014 0.16494-0.4336 0.15625zm199.57 47.729c-0.9753-0.0357-1.9588 0.28068-2.9531 1.0762-5.3033 4.2427-2.8282 11.49-2.8282 16.086s2.8299 9.9011 4.5977 12.199c1.7677 2.2981 5.4795 1.5899 6.3633 10.252 0.8839 8.662 0.1762 12.906-2.2989 17.148-2.4747 4.2426-8.6609 11.666-9.8984 16.439-1.2374 4.773-3.5364 7.9554-0.8848 14.496s3.5354 12.904 1.4141 17.146c-2.1213 4.2426-3.8887 2.4758-3.5351 10.254 0.3533 7.7782 1.9447 8.4849-1.7676 12.904-3.7123 4.4194-9.5459 14.142-10.076 18.385-0.5303 4.2426-0.3533 4.0668-3.8887 9.1934-2.4763 3.5906-3.7642 6.779-4.1074 9.0684 0.112 0.31419 0.2583 0.58167 0.4922 0.77149 1.0614-0.57264 0.8133-1.3063 2.1641-1.4961l0.4628 0.30469 0.1 0.55078 0.4589 0.36719 0.5586-0.1211c0.1796-0.27968 0.5569-0.49534 0.8926-0.51953 0.3141 0.16517 0.5947 0.39151 0.8145 0.67188l0.4609-0.0332c0.2873-0.84279 0.1923-2.7349-0.1543-3.5449-0.4798-0.28308-0.8694-0.69626-1.3496-0.97851l-0.059-0.45703c1.1017-0.67144 1.4402 0.25806 2.4668-0.6211 1.0061-0.85992 0.7737-1.1768 1.25-2.252 0.1535-0.34545 1.3247-2.3632 1.5781-2.4141 0.1531-0.034 0.3079-0.0332 0.4551-0.0332 0.1856 0.2143 0.4168 0.72171 0.3848 1.0078-0.081 0.6311-1.8092 3.5011-2.0879 4.4902 0.1859 0.29783 0.4093 0.57811 0.6601 0.82813 0.2102 1.0317-0.3696 2.0259-0.1523 3.1152 0.1032 0.51919 0.4938 0.91408 0.6621 1.4062-0.2298 1.1198-1.2059 2.6662-1.2207 2.7812-0.081 0.61901 0.3761 0.99508 0.6602 1.4356 1.4344 2.2351 3.5112 0.85688 5.373 1.6191l0.25 0.42968c-0.06 0.43771-0.1643 0.90211-0.4277 1.2539 0.091 0.70976 1.273 1.4483 1.7558 1.9531l0.5371-0.0898c0.3903-0.35716 0.7969-0.69554 1.1719-1.0684 1.2644-0.0601 1.5362 0.9158 2.9785 0.24414 0.4608 0.0601 0.9105 0.18903 1.3242 0.39649 1.0889-2.2784-0.7941-4.2654 2.0899-4.7676 0.3903-0.0707 3.0031 0.23736 3.2324 0.45703 1.051 1-0.1715 2.6793 1.6328 3.2383 3.0657-1.0946 2.1188-2.3139 3.2832-4.4004 0.1792-0.3205 0.3147-0.67503 0.6348-0.88672 0.8186 0.32164 1.9976 1.4839 2.0117 2.416-0.1924 0.31861-0.3582 0.65613-0.4863 1.0078 0.2237 0.2812 0.4989 0.5238 0.8144 0.70117l0.062 0.45899c-0.2868 0.19237-0.5658 0.42618-0.8945 0.54883-0.5383 0.20144-1.7519 0.15277-2.1387 0.45703-0.3772 0.29669-0.3889 1.1662-0.1777 1.5605 0.2559 0.47086 2.0851 1.3967 2.6211 1.4062 0.1531 0 0.3083-0.0507 0.4609-0.0351 0.4104 0.0601 0.7463 0.30494 1.2246 0.33593 0.5765 0.034 1.0837-0.34574 1.6543-0.24218 0.8177 0.1474 1.7148 0.69407 2.5743 0.60937l0.375 0.36719-0.2793 0.52148c-0.7713 0.1115-1.6398-0.28447-2.293 0.30664l-0.1035 0.42579c0.2751 0.20674 0.8631 1.179 0.9922 1.2226 0.5766 0.19881 2.2355 0.0913 2.7793-0.12109 0.3269-0.12321 0.5876-0.36953 0.9394-0.42774 0.7269-0.79449 0.557-1.2468 0.8906-2.1387 0.07-0.17537 0.2255-0.30697 0.334-0.45898 0.2298-0.34167 0.3638-0.74694 0.5098-1.1309 0.4548-1.225 0.5077-1.547-0.459-2.5059l-0.2832-0.0586c0 0.21997 0.062 0.92319-0.059 1.0996-0.4931 0.8761-1.3913 1.4294-2.1387 0.45899 0.1338-1.1153 0.7837-3.808 0.7383-4.6465 0-0.3617-0.2313-0.67845-0.2558-1.0391-0.06-0.76414 0.7295-1.7979 0.6621-2.2324-0.8953-1.0107-2.3495-0.39007-2.3418-2.1992 0.1734-0.26305 0.4919-0.46613 0.8125-0.48828 0.397-0.034 0.756 0.21617 1.1484 0.24414 0.333 0.034 3.8483-0.84847 4.2774-1.0078 0.3261-0.1217 0.6042-0.33795 0.8925-0.52149 0.06-0.80247 0.1159-1.8042-0.5312-2.4434-0.082-0.0907-0.4375-0.30576-0.4629-0.33789-0.4104-0.53019 0.8805-2.3286-1.0176-2.9941-1.9264 0.46368-1.2179 1.1135-2.0625 1.6172-1.4775 0.87821-3.972-0.35457-4.1777 2.1387-0.7883 0.68859-1.7184 1.53-2.8516 1.3477l-0.1289-0.48828c0.3141-0.1561 0.6227-0.33139 0.918-0.51953 0.2944-1.1562-0.4434-1.5029-0.3086-2.2637 0.3708-0.31937 0.7038-0.69224 1.1465-0.91406 0.4738-0.23773 1.0429-0.25252 1.5039-0.52344 0.153-0.0907 0.2697-0.22903 0.4355-0.30273 0.2812-0.12699 0.79-0.0798 1.1192-0.15234 0.7782-0.18482 1.6894-0.72959 2.3925-1.1016 0.4739-0.24869 1.028-0.2808 1.5039-0.52148 0.3205-0.16252 0.5966-0.43112 0.7891-0.73242l-0.2051-0.33789c-0.3522-0.17537-0.7004-0.37401-1.0195-0.61133l-0.1035-0.55078c0.1032-0.16933 0.1797-0.36412 0.3086-0.51953 0.2052-0.25663 0.7954-0.15475 1.0937-0.21485 0.7803-0.15458 1.3365-0.51864 2.1895-0.45703 0.621 0.0499 1.1976 0.46678 1.8086 0.36719 0.6794-0.11074 0.9166-0.54884 1.6816-0.27539 0.3903 0.83667 0.876 1.1397 1.7305 1.2539 0.3265-0.1833 0.6973-0.28774 1.0703-0.30664l0.5117 0.30664c0 0.36133-0.1343 0.72068-0.3086 1.0391l0.082 0.54687c0.3771 0.034 0.8627 0.24211 1.0957 0.55078-0.06 0.38835-0.081 0.77607-0.127 1.1621 0.116 0.12246 0.2231 0.2591 0.3516 0.36719 0.1791 0.14929 1.5707 0.23666 1.9101 0.30469 0.3844 0.0809 1.0145 0.3072 1.377 0.27734 0.1341-8e-3 0.2731-0.0345 0.4082-0.0625 0.1417-0.0431 0.6152-0.45599 0.7402-0.58008-0.6864-0.97787-1.7128-0.33972-1.9844-1.832l0.459-0.24609 0.2305-0.39649c-0.2102-0.3016-0.5644-0.44188-0.8164-0.70312-0.4608-0.48189-0.5647-1.2926-0.9942-1.832-0.4427-0.55752-1.1397-0.8637-1.5273-1.4668-0.4607-0.71577-0.1645-1.4866-0.3066-2.2617-0.06-0.34205-0.1804-0.67803-0.2832-1.0098-0.3587-1.1628-1.3717-1.4596-1.375-2.8125 0-1.0437 1.3547-2.805 1.7812-3.8496 0.2298-0.12548 0.8769-0.28564 1.1211-0.1836 1.0895 0.46084-0.102 2.3574 0.7656 3.1777-0.6613 1.1658-0.2231 1.1076 0.334 1.9551 0.3971 0.60888 0.198 1.7798-0.1289 2.3848l0.1035 0.54688 0.5117-0.21094c0.1535-0.34432 0.36-0.67 0.6094-0.94727l0.6094-0.0332c2.1335 1.3319 1.4907 2.6282 2.8262 3.7305l0.5136-0.18555 0.3321-0.42969c-0.1399-0.66228-0.3734-1.6327-0.2071-2.291l0.4571-0.24609c0.9082 0.14664 1.3449 0.43215 1.8086 1.2852-0.1089 1.1265-0.7007 2.3953-0.6875 3.3008l0.3574 0.39649c0.5192-0.26533 1.3332-1.1094 1.9609-0.82422 0.3455 0.15912 1.0305 1.8508 2.0899 0.82422 0.4292 0.0601 0.8638 0.0798 1.2968 0.0586 0.6775-0.59785 1.7774-0.21721 2.293-1.25l0.5117-0.18555 0.377 0.27539c0 1.7718 1.2943 0.80752-0.2559 2.7793v0.36719l0.5567-0.0898c0.1867-0.31371 0.4293-0.59831 0.7128-0.82618 0.7481-0.034 1.4438-0.34284 2.1387-0.54882 0.1285-0.0427 3.952-0.29284 4.127-0.27735 0.9878-0.68251 0.8041-2.1869 2.0117-2.627l-0.1797 0.18359 0.332-0.24414 0.3594 0.39649c0.06 0.99703-0.5386 2.07 0.6621 2.5976 0.1603-0.0503 0.3344-0.0802 0.4805-0.15234 0.5958-0.29518 0.9274-1.2163 1.4023-1.6797 0.9174-0.89416 1.687-1.9816 2.4434-3.0273l0.584 0.15429 0.2558 0.42969c-0.06 0.6361-0.7332 2.1507-0.584 2.627 0.2181 0.71373 0.6262 1.3259 0.5567 2.1094-0.07 0.85587-0.6935 1.5731-0.6875 2.4434 0 0.35943 0.2257 0.66104 0.2832 1.0078 0.1032 0.61081-0.2298 1.2333 0 1.834l0.5332 0.24218c0.1206-0.3911 0.3002-0.76508 0.5371-1.0996l0.5039-0.21289c0.2559 0.25134 0.5783 0.44588 0.9199 0.54883 0.1735-1.0489-0.1301-2.1605 0.2539-3.1777l0.4629-0.27539c1.3392 0.29064 0.7673 0.94352 1.2735 1.4961 0.6028-0.75307 0.4727-1.7707 0.8144-2.627 0.2427-0.609 2.138-3.3826 2.6485-3.791h0.5909l0.4609 0.36914c0.06 0.35868 0.1487 0.70756 0.2832 1.0391 0.7098 0.29065 1.7915-0.57718 2.6465 0.67188 0.4163 0.0903 0.8471 0.12197 1.2735 0.0898 0.5958-0.44364 1.1658-1.1722 0.8652-1.9531-0.8701-0.61898-1.736-1.0709-1.1719-2.293 0.9275-0.2366 1.3593-1.0029 2.0625-1.5918 1.0906 0.2914 1.8431 1.0257 3.0567 0.73438 1.7176-0.41167 2.2132-2.4166 2.9804-3.1172 0.5505-0.5051 1.2849-0.49688 1.7832-1.0703 0.5001-0.57861 0.1575-1.049 0.2286-1.6797 0.1088-1.0031 2.0616-0.99589 2.166-3.207-0.4294-0.81351-0.9612-0.7203-0.8926-1.8359 0.3658-0.28875 1.1153-0.43122 1.3516-0.82422 0.9496-1.5793 0.2804-3.4638 1.0429-4.2168 0.1659-0.16252 1.5586-1.0897 1.7598-1.1641 0.5252-0.19313 1.1024-0.13934 1.6289-0.33398 0.5504-0.69559 1.2516-2.3728 1.9375-2.8438 0.6432-0.44274 1.3924-0.31464 2.0098-0.70117 0.2056-0.1304 0.5959-0.82665 0.5898-1.0703-0.06-0.89726-1.2796-1.2212-1.3516-2.1992-0.06-0.64018 1.3051-1.5225 1.377-3.334 0.081-2.0922-2.0057-2.8243-1.3242-4.4277 1.225-0.20107 2.4063 0.21497 2.8769-1.3145 0.1531-0.48491-0.2812-3.3152-0.6328-3.8203-0.1599-0.22866-1.2261-0.63465-1.5527-0.91797-0.06-0.62097 0.3959-1.1535 0.3828-1.7734l0.459-0.27539c0.621 0.16933 1.0298 0.54597 1.5312 0.91602 1.8082 1.3318 0.7195 3.0567 1.3477 4.5859 0.1338 0.32806 0.4045 0.57125 0.5644 0.88476l0.6621 0.0586c0.4237-0.35566 1.0172-0.29582 1.5-0.51953 0-0.42664 0.2377-0.66225 0.3594-1.0391 0.2559-0.81362 0.1793-1.5592 0.5899-2.627 0.4426-1.1768 1.3392-2.1656 1.58-3.4219 0.1531-0.80851-0.062-1.6369 0.078-2.4473 0.1791-1.0872 0.9292-2.31 0.3593-3.666-0.6028-1.4308-1.1228-0.98859-0.9941-3.0273 0.1281-2.096 1.3785-3.5114 2.1387-5.377 0.3586-0.87712 0.4434-1.863 0.6347-2.7832 0.1418-0.67853 0.3923-1.3536 0.4629-2.0449 0.1161-1.209 0.1774-2.0691 0.459-3.2695 0.1531-0.65231 0.1217-1.3305 0.2559-1.9863 0.116-0.5746 0.3407-1.4433 0.664-1.9258 0.3141-0.46481 0.8229-0.82438 0.9922-1.377 0.1285-0.41851 7e-4 -0.85884 0.08-1.2832 0.1531-0.81868 0.8333-1.4666 1.1992-2.168 0.8307-1.5884-0.2633-1.967-0.4101-2.6602-0.101-0.43861 0.2367-0.77831 0.3769-1.1602 0.738-1.929-0.6343-2.1508-0.1738-3.5137 0.3005-0.89824 1.2257-1.5016 1.5801-2.4473 0.2558-0.67949 0.2544-1.4327 0.5312-2.1074 0.1735-0.41858 0.2872-0.85078 0.461-1.2539 0.2944-0.70076 1.0639-1.1191 1.3515-1.8633 0.1338-0.35717 0.1726-0.74511 0.2168-1.1211 0.333-2.419-4e-4 -3.3-0.7988-5.5312-0.1346-0.39348-0.1304-0.82608-0.3145-1.2031-0.2245-0.44788-0.5555-0.90205-0.8398-1.3125l-0.6074-0.21485-0.5371 0.15625c-0.3648 0.50608-0.5777 2.0429-1.045 2.291-0.2558 0.13569-0.5428 0.18576-0.7949 0.33203-1.0158 0.59683-1.5788 1.7304-2.3633 2.5703-0.5001 0.53322-1.0248 1.0347-1.5 1.5879-0.621 0.72284-1.0397 1.3958-1.9121 1.8672-0.6683 0.36057-2.5552-9e-3 -3.2578-0.27734-0.5504-0.20674-2.3762-1.522-2.7266-1.9844-0.3205-0.42572-0.6347-1.5136-0.6347-2.0488 0-0.27968 0.2486-1.8011 0.3574-2.0156 0.5696-1.1468 3.2699-1.3686 3.4902-3.3613 0.166-1.4654-0.9383-1.7399-1.6562-2.627-1.4386-1.7764-0.2992-4.4185-1.0684-5.9629-0.4548-0.90928-1.9324-1.3871-2.0156-2.4434-0.06-0.79442 0.9255-1.8064 0.9961-2.9648 0.116-1.9358-0.3277-4.8977-0.4356-6.9062 0-0.51927 0.06-1.0396 0-1.5586-0.06-0.38793-0.1288-0.77081-0.1035-1.1621 0.2499-3.9011 4.6064-6.005 4.9688-9.5957 0.2237-2.1982-0.3402-4.4018 0-6.6016 0.168-1.0707 0.9478-2.0877 1-3.2012-4.2541 1.2629-8.3685 2.072-12.254 1.2949-7.071-1.4142-9.7221-3.1829-15.025-0.53125s-6.1861 4.5967-10.606 4.4199c-4.4194-0.17688-3.7125 1.0614-7.9551 1.9453s-10.431 2.1203-15.734 0.5293-6.0094-5.3028-9.8985-4.2422c-3.889 1.0607-2.6527 7.7776-8.1328 5.6562-5.4801-2.1213-3.0043-1.7672-8.4844-5.6562-4.4525-3.1599-8.5547-9.9369-12.781-10.092zm68.404 153.23c-0.069 1e-3 -0.133 6e-3 -0.1856 0.0176-0.2536 0.19426-0.6254 0.36881-0.9414 0.42773l-0.3554 0.45703-0.051 0.51953c0.1999 0.25739 0.3513 0.62568 0.5586 0.85547 0.116 0.12926 0.3158 0.20857 0.4336 0.33594 0.1168 0.12586 0.2016 0.32306 0.3086 0.46094 0.4884 0.63137 0.9813 1.004 1.6797 1.375 0.3632 0.192 0.7041 0.42188 1.1425 0.30664 0.2007-0.32126 0.2791-0.83177 0.1563-1.1934-0.047-0.13984-0.1874-0.29092-0.2539-0.42774-0.104-0.21543-0.1535-0.53857-0.2813-0.73242-0.1863-0.28233-0.4405-0.50894-0.5859-0.82812-0.2143-0.46753-0.2427-1.0493-0.7129-1.375-0.1965-0.13493-0.6108-0.2018-0.9102-0.19727zm-20.869 4.1426v4e-3c-0.2297 4e-3 -0.4925 0.0553-0.6757 0.0859-0.4001 0.0654-0.8269 0.24567-1.1543 0.48828-0.2094 0.25777-0.3276 0.80621-0.2539 1.1289 0.1364 0.29367 0.3733 0.60669 0.6113 0.82617 0.075 0.64645-0.2276 1.2477-0.1524 1.8945 0.1886 0.27326 0.518 0.55554 0.8145 0.70313 0.067 0.42538 0.321 0.60367 0.459 0.94726 0.063 0.16139 0.042 0.38607 0.1015 0.55078 0.088 0.24303 0.4228 0.64832 0.6133 0.82422l0.4571-0.0312c0.2528-0.90777 0.2377-1.9058 0.5351-2.7188 0.13-0.35452 0.3266-0.8365 0.5098-1.1621 0.1882-0.33411 0.4985-0.60154 0.6367-0.97851 0.1209-0.32996 0.2185-0.87646 0-1.1914l-0.4336-0.1543h0.051c-0.4805-0.28422-1.3709-1.0776-1.834-1.1914-0.081-0.0227-0.1801-0.0254-0.2852-0.0254zm-11.105 2.4531c-0.104-2e-3 -0.1914 3e-3 -0.2481 0.0195-0.023 4e-3 -0.4875 0.25007-0.5351 0.27539-0.044 0.0265-0.4123 0.22871-0.4336 0.2461-0.2551 0.2245-0.4789 0.66978-0.6133 0.97656-0.1591 0.36321-0.2324 0.6694-0.2773 1.0606-0.1834 1.6141 0.7675 1.7027 0.8125 2.6074-0.3043 0.14475-0.7626 0.20003-1.0938 0.1543-0.2347 0.29064-0.4894 0.60023-0.6875 0.91601-0.3632 0.58035-0.6252 1.5278-1.3496 1.7734-0.2211 0.0745-1.5171 0.10685-1.7832 0.0898-0.6344-0.0461-1.2442-0.23195-1.8848-0.0898-0.6304 0.72582-0.9934 1.15-0.8047 2.168 0.057 0.30123 0.1239 0.54755 0.3223 0.79492 0.1055 0.1319 0.2627 0.24171 0.3789 0.36719 0.1202 0.13001 0.227 0.31252 0.3574 0.42968 0.1293 0.1149 0.3415 0.18337 0.459 0.30469 0.2865 0.29518 0.5526 0.99158 0.8145 1.3438 0.3246 0.43586 0.845 0.62846 1.1445 1.0996l0.051 0.42969-0.457 0.27539c-0.3085 0.0533-0.9608-0.0531-1.2227-0.21484 0-3e-3 -0.6287-0.68222-0.7129-0.76563-0.4095-0.11943-0.9489-0.14784-1.3242-0.30469l-1.3496-1.0078-0.5352 0.0918c-0.3367 0.42448-0.9007 0.72686-1.4512 0.64258-0.5072-0.28876-0.6784-0.86411-1.248-1.0703l-0.6113 0.0293c-0.3515 0.19805-0.3738 0.54547-0.584 0.82617-0.019 0.0227-0.7611 0.68601-0.791 0.70313-0.5583 0.32504-1.5791 0.34679-2.0117 0.73242-0.1905 0.16932-0.3436 0.44003-0.5352 0.63086-0.039 0.0393-0.07 0.0551-0.1016 0.10351-0.2033 0.33449-0.5203 2.0928-0.5117 2.5078 0.011 0.57331 0.4219 2.0815 0.8164 2.5039 0.05 0.0552 0.093 0.0679 0.1524 0.11328 0.2725 0.19956 0.4445 0.45552 0.664 0.6211 0.3066 0.23093 0.684 0.34453 0.9922 0.61133 0.071 0.35565 0.1393 0.71299 0.2031 1.0703l0.4336 0.33594c0.7285-0.3326 0.7366-0.68772 1.1719-1.0703 0.2948-0.25965 0.9762-0.39239 1.043-0.85742 0 0 0.9007 0.12297 1.2734 0.0625 0.8736-0.14249 1.4792-0.95181 2.2168-1.3438l0.5078 0.18359 0.2559 0.45704c-0.1357 0.42107-0.2343 0.90124-0.2559 1.3438 0.1486 0.30765 0.3465 0.62056 0.5606 0.88671l-0.051 0.52149c-0.4104 0.39587-0.6436 1.1394-0.7891 1.6797-0.6185 0.80485-2.1896 0.51878-3.1074 0.88672l-0.2285 0.64062c0.019 0.5102 0.3384 1.0432 0.7129 1.377-0.058 0.31635 0.03 0.82703 0.2031 1.0996l0.5352-0.12304c0.294-0.57313 0.9044-0.73514 1.4589-0.94532l0.3223-0.12109c0.03-2e-3 0.5982 0.0815 0.6641 0.0898l0.3828 0.36719c-0.1421 0.3967-0.3165 0.78941-0.5117 1.1621-0.034 0.0673-0.296 0.51459-0.3047 0.54883-0.051 0.17235-0.06 1.005-0.051 1.2246 0.4236 0.1406 0.904 0.23866 1.3496 0.27344l0.2813 0.42968c-0.1837 0.3447-0.8584 0.84137-1.2246 0.97657-0.3334 0.12283-0.6968 0.11438-1.043 0.27539l-0.2539 0.61132 0.2812 0.45899 0.5078 0.18164c0.5091-0.2521 1.0472-0.22961 1.5801-0.36719 0.4236-0.10923 0.7185-0.37749 1.1113-0.51953l0.3418-0.12109c0.192-0.0302 0.418 0.0302 0.6094 0 0.3137-0.0518 0.7137-0.28512 0.8926-0.55078 0.011-0.37153 0.1548-0.84654 0.3555-1.1602 0.3507-0.0884 0.8124-0.13677 1.1718-0.0918 0.5557 0.0646 1.3486 0.44481 1.8594 0.0606l0.3047-0.51953c0.058-0.31143-0.023-0.83628-0.2031-1.1016-0.3557-0.44935-1.1804-0.46453-1.7051-0.42579-0.6797-0.34053-1.1227-0.99877-0.9922-1.7754 0.3617-0.60453 0.9616-1.1602 1.7051-1.1602 0.2018-0.13871 0.4072-0.42039 0.4941-0.64063l0.17-0.42773c0.099-0.52891-0.1785-1.1752-0.129-1.7422l0.4571-0.27539c0.7373 0.31068 1.2675 1.0021 2.0625 1.1621l0.4609-0.24609 0.5586 0.15429c0.075 0.30917 0.2553 0.67126 0.459 0.91602 0.395 0.0794 0.843 0.12128 1.2461 0.0918l0.1035-0.67187c-0.1882-0.33524-0.7188-1.0256-0.7402-1.377-0.039-0.55159 0.3376-1.1104-0.1016-1.7422-0.3867-0.10734-0.8005-0.27969-1.1445-0.48828-0.1867-0.20069-0.3645-0.63701-0.3301-0.91602l0.3555-0.42773c0.3681 0.39035 1.0164 0.43088 1.5019 0.27539 0.5922-0.90561-0.079-1.5393 0.3321-2.4766 0.011-0.0265 0.2976-0.38028 0.332-0.42579 0.5072-0.65635 0.9064-1.4294 0.789-2.293l-0.2812-0.42774-0.5117-0.0625c-0.3884 0.15647-0.5212 0.45624-0.7891 0.73438-0.062 0.0654-0.7505 0.65479-0.789 0.67187-0.2423 0.12095-0.8082 0.13885-1.0684 0.0625-0.095-0.86404 0.2822-1.5752 0.6367-2.3242 0.1693-0.35867 0.5991-1.4593 0.7129-1.832 0.1629-0.53507 0.3721-1.5207 0.4336-2.0801-0.2695-0.30425-0.3053-0.60218-0.4609-0.94922-0.087-0.19124-0.3097-0.5056-0.4336-0.67382-0.206-0.2778-0.5611-0.51189-0.7383-0.79297-0.1894-0.29972-0.2495-0.87301-0.3145-1.2227-0.087-0.47478-0.244-1.014-0.1699-1.498 0.059-0.38948 0.2452-0.91839 0.4609-1.2539 0.094-0.14665 0.2724-0.27468 0.3555-0.42578 0.2211-0.4018 0.5306-1.38 0.457-1.834-0.062-0.38797-0.4933-1.118-0.8398-1.3144-0.1572-0.0888-0.6096-0.16003-0.9219-0.16797zm-5.0625 3.1992c-0.5714 0.32542-1.2919 0.30454-1.9102 0.61133-0.1795 0.41469-0.2545 1.063-0.3808 1.3438-0.1565 0.34809-0.4703 0.40398-0.5586 1.0703l0.2773 0.27734c0.4808 0.034 0.921-0.0801 1.3926-0.10546 0.3209-0.0189 0.6912 0.0276 1.0019-0.0215 0.155-0.0227 0.3558-0.10623 0.5098-0.15234l0.332-0.42969 0.074-0.67383c-0.4228-0.45313-0.3805-1.2232-0.1797-1.7695zm-9.9844 3.1758-0.4062 0.36719c-0.098 0.36057-0.2122 0.8527-0.2032 1.2246 0.011 0.37961 0.1568 0.72839 0.1016 1.1289-0.03 0.22639-0.1633 0.47933-0.1758 0.70312-0.019 0.2623 0.1903 0.80077 0.3555 1.0078l0.6367 0.21485 0.3809-0.33594c0.144-0.40218 0.2159-0.88504 0.1777-1.3125-0.019-0.16743-0.1115-0.38887-0.1035-0.55078 0.011-0.17499 0.1211-0.40297 0.1562-0.58008 0.1183-0.62404 0.1618-1.2595-0.2558-1.7734zm-27.986 12.014c-0.6144 0.0113-1.095 0.26463-1.5821 0.73243-0.094 0.0903-0.3173 0.36431-0.3554 0.48828 0 0-0.087 0.97748 0 1.1914 0.4468 0.43197 1.1458 0.65974 1.7578 0.64258 0.1738-4e-3 0.3586-0.079 0.5332-0.0918 0.4069-0.034 0.7542 0.0391 1.1211-0.21484-0.1142 0.81071-0.7909 1.3555-0.8906 2.1387 0.1515 0.4506 0.6463 0.7123 1.0019 0.98828 0.3659 0.28422 0.7139 0.38947 1.1641 0.44922 0.4509 0.0597 0.8646-0.0845 1.1719-0.42773 0.1186-0.13153 0.1905-0.32171 0.3046-0.45899 0.2113-0.25285 0.5272-0.50288 0.7891-0.70312 0.124-0.28573 0.154-0.80904 0.027-1.0996-0.4763-0.16517-0.7441-0.56773-1.0703-0.91602-0.1995-0.2143-0.486-0.26565-0.7129-0.42968-0.6996-0.50355-1.521-1.92-2.3671-2.2012l-0.4434-0.0586c-0.1576-0.0227-0.3079-0.0293-0.4492-0.0293zm23.812 6.3848c-0.3345 0.0786-0.6895 0.2092-0.9942 0.36719l-0.2285 0.61328c0.2177 0.59875 0.5676 1.3744 0.7383 1.9551 0.093 0.31785 0.085 0.74554 0.2539 1.0391 0.019 0.0302 0.3169 0.35079 0.3555 0.39648 0.692 0.32542 1.514-0.14674 1.8594-0.76367l0.078-0.64258-0.3321-0.39453-0.027-0.24609s-0.6797-0.62883-0.8633-1.1309c-0.1326-0.36208-0.091-0.67554-0.3574-1.0098zm-15.256 4.0957v2e-3c-0.2067 0.17159-0.4721 0.31024-0.7129 0.42578-0.1054 0.31559-0.1276 0.8857 0.027 1.1934l0.4316 0.36718c0.3186 0.0605 0.8506-0.0266 1.1211-0.21484 0.049-0.41038 0.068-0.84141 0.051-1.2539zm17.336 1.1504c-0.2805 4e-3 -0.5831 0.086-0.9356 0.28711l-0.1777 0.45703 0.1777 0.48828c0.5221 0.36133 1.9636 0.68687 2.5977 0.61329 0.1319-0.3224 0.1932-0.92313 0.051-1.2539-0.654-0.28535-1.1385-0.60049-1.7128-0.5918zm-2.9219 1.3574c-0.8032 1.0291-1.1273 1.2818-1.043 2.6875l0.2539 0.42774 0.5352 0.24609c0.3004 0.034 0.8045-0.11105 1.0175-0.33593 0.1153-0.31786-0.012-0.88443-0.1796-1.1621l-0.025 0.0605c-0.2468-0.49905-0.3085-1.1429-0.1778-1.6816zm-23.525 2.8398v2e-3c-0.3545 4e-3 -0.734 0.0455-1.0781 0.1211-0.2888 0.16516-0.5579 0.65995-0.6094 0.97656 0.061 0.49251 0.2171 1.1276 0.6367 1.4375 0.7152 0.35338 1.453 0.15688 1.9356-0.45703v-1.1934c-0.1539-0.21317-0.3093-0.42516-0.459-0.64063l-0.3555-0.24609c-0.026-4e-5 -0.048-3e-4 -0.07 0zm13.732 6.4102v2e-3c-0.051 9.4e-4 -0.099 4e-3 -0.1406 8e-3l-0.3047 0.45703 0.1016 0.51953 1.0703 0.55078c0.5843-0.10091 1.1706-0.25576 1.7597-0.0898 0.051-0.31408-0.012-0.8238-0.1797-1.1016-0.3333-0.0227-1.0849-0.15433-1.375-0.30664 0 0-0.5725-0.044-0.9316-0.0391zm-9.3242 0.0898c-0.2222 4e-3 -0.442 0.0432-0.6211 0.13281-0.3693 0.44508-0.6172 0.99163-0.8906 1.498l0.1015 0.55078c0.4023 0.31937 0.5886 0.89368 0.7149 1.375 0.072 8e-3 0.6533 0.0932 0.6875 0.0898 0.043-3e-3 1.4715-0.44845 1.5293-0.45703 0.3001-0.034 0.7671 0.13399 0.9648 0.36719h0.6133l0.457-0.27734c0.011-0.24945 0.031-0.55925 0.127-0.79297l-0.457-0.30469c-0.3754 0.0393-0.8369-9e-3 -1.1973-0.12305 0.1039-1.1904-0.2108-1.7431-1.3926-1.9961-0.1882-0.0393-0.4126-0.0678-0.6348-0.0625z" fill="#013378"/>
  <path transform="scale(.26458)" d="m1548 755.04c-0.3966 0.12233-0.7286 0.70664-1.041 1.4375-0.1395 0.40135-0.2493 0.88302-0.4512 0.99023-0.2558 0.13569-0.5428 0.18576-0.7949 0.33203-1.0158 0.59683-1.5788 1.7304-2.3633 2.5703-0.5001 0.53322-1.0248 1.0347-1.5 1.5879-0.621 0.72284-1.9121 1.8672-1.9121 1.8672l-0.4043 0.0801s-3.8662 4.8706-6.6972 6.7285c-9.0577 5.944-27.739 9.6234-38.354 6.793-10.614-2.8305-14.717-8.7751-26.605-6.3691-11.888 2.4059-19.531 1.5567-20.522 12.312-0.9907 10.756 1.2734 14.577 2.8301 23.068 1.5568 8.4915 3.5393 25.901 4.1054 31.703s-6.4576 19.303-10.182 24.824c-2.8687 4.253 1.9075 10.979 4.4551 14.234 1.328 1.6967 1.4267 4.8389 1.2324 7.5098 0.3125-0.0396 0.6849 0.028 0.8516-0.0371 0.3269-0.12321 0.5876-0.36953 0.9394-0.42774 0.7269-0.79449 0.557-1.2468 0.8906-2.1387 0.07-0.17537 0.2255-0.30697 0.334-0.45898 0.2298-0.34167 0.3638-0.74694 0.5098-1.1309 0.4548-1.225 0.5077-1.547-0.459-2.5059l-0.2832-0.0586c0 0.21998 0.062 0.92319-0.059 1.0996-0.4931 0.8761-1.3913 1.4294-2.1387 0.45899 0.1338-1.1153 0.7837-3.808 0.7383-4.6465 0-0.3617-0.2313-0.67845-0.2558-1.0391-0.06-0.76414 0.7295-1.7979 0.6621-2.2324-0.8953-1.0107-2.3495-0.39007-2.3418-2.1992 0.1734-0.26305 0.4919-0.46613 0.8125-0.48828 0.397-0.034 0.756 0.21617 1.1484 0.24414 0.333 0.034 3.8482-0.84847 4.2774-1.0078 0.3261-0.1217 0.6042-0.33795 0.8925-0.52149 0.06-0.80247 0.1159-1.8042-0.5312-2.4434-0.082-0.0907-0.4375-0.30576-0.4629-0.33789-0.4104-0.53019 0.8805-2.3286-1.0176-2.9941-1.9264 0.46368-1.2179 1.1135-2.0625 1.6172-1.4775 0.87821-3.972-0.35457-4.1777 2.1387-0.7883 0.68859-1.7184 1.53-2.8516 1.3477l-0.1289-0.48828c0.3141-0.1561 0.6227-0.33139 0.918-0.51953 0.2944-1.1562-0.4434-1.5029-0.3086-2.2637 0.3708-0.31937 0.7038-0.69224 1.1465-0.91406 0.4738-0.23773 1.0429-0.25252 1.5039-0.52344 0.153-0.0907 0.2697-0.22903 0.4355-0.30273 0.2812-0.12699 0.79-0.0798 1.1192-0.15234 0.7782-0.18482 1.6894-0.72959 2.3925-1.1016 0.4739-0.24869 1.028-0.2808 1.5039-0.52148 0.3205-0.16252 0.5966-0.43112 0.7891-0.73242l-0.2051-0.33789c-0.3522-0.17537-0.7004-0.37401-1.0195-0.61133l-0.1035-0.55078c0.1032-0.16933 0.1797-0.36412 0.3086-0.51953 0.2052-0.25663 0.7954-0.15475 1.0937-0.21485 0.7803-0.15458 1.3365-0.51864 2.1895-0.45703 0.621 0.0499 1.1976 0.46678 1.8086 0.36719 0.6794-0.11074 0.9166-0.54884 1.6816-0.27539 0.3903 0.83667 0.876 1.1397 1.7305 1.2539 0.3265-0.1833 0.6973-0.28774 1.0703-0.30664l0.5117 0.30664c0 0.36133-0.1343 0.72068-0.3086 1.0391l0.082 0.54687c0.3771 0.034 0.8627 0.24211 1.0957 0.55078-0.06 0.38835-0.081 0.77607-0.127 1.1621 0.116 0.12246 0.2231 0.2591 0.3516 0.36719 0.1791 0.14929 1.5707 0.23666 1.9101 0.30469 0.3844 0.0809 1.0145 0.3072 1.377 0.27734 0.1341-8e-3 0.2731-0.0345 0.4082-0.0625 0.1417-0.0431 0.6152-0.45599 0.7402-0.58008-0.6864-0.97787-1.7128-0.33972-1.9844-1.832l0.459-0.24609 0.2305-0.39649c-0.2102-0.3016-0.5644-0.44188-0.8164-0.70312-0.4608-0.48189-0.5647-1.2926-0.9942-1.832-0.4427-0.55752-1.1397-0.8637-1.5273-1.4668-0.4607-0.71577-0.1645-1.4866-0.3066-2.2617-0.06-0.34205-0.1804-0.67803-0.2832-1.0098-0.3587-1.1628-1.3717-1.4596-1.375-2.8125 0-1.0437 1.3547-2.805 1.7812-3.8496 0.2298-0.12548 0.8769-0.28564 1.1211-0.1836 1.0895 0.46084-0.102 2.3574 0.7656 3.1777-0.6613 1.1658-0.2231 1.1076 0.334 1.9551 0.3971 0.60888 0.198 1.7798-0.1289 2.3848l0.1035 0.54688 0.5117-0.21094c0.1535-0.34432 0.36-0.67 0.6094-0.94727l0.6094-0.0332c2.1335 1.3319 1.4907 2.6282 2.8262 3.7305l0.5136-0.18555 0.3321-0.42969c-0.1399-0.66228-0.3734-1.6327-0.2071-2.291l0.4571-0.24609c0.9082 0.14664 1.3449 0.43215 1.8086 1.2852-0.1089 1.1265-0.7007 2.3953-0.6875 3.3008l0.3574 0.39649c0.5192-0.26533 1.3332-1.1094 1.9609-0.82422 0.3455 0.15912 1.0305 1.8508 2.0899 0.82422 0.4292 0.0601 0.8638 0.0798 1.2968 0.0586 0.6775-0.59785 1.7774-0.21721 2.293-1.25l0.5117-0.18555 0.377 0.27539c0 1.7718 1.2943 0.80752-0.2559 2.7793v0.36719l0.5567-0.0898c0.1867-0.31372 0.4293-0.59831 0.7128-0.82618 0.7481-0.034 1.4438-0.34284 2.1387-0.54882 0.1285-0.0427 3.952-0.29284 4.127-0.27735 0.9437-0.65205 0.8819-2.0022 1.9218-2.5098l0.2422-0.17774 0.3594 0.39649c0.06 0.99703-0.5386 2.07 0.6621 2.5976 0.1603-0.0503 0.3344-0.0802 0.4805-0.15234 0.5958-0.29518 0.9274-1.2163 1.4023-1.6797 0.9174-0.89416 1.687-1.9816 2.4434-3.0273l0.584 0.15429 0.2558 0.42969c-0.06 0.6361-0.7332 2.1507-0.584 2.627 0.2181 0.71373 0.6262 1.3259 0.5567 2.1094-0.07 0.85587-0.6935 1.5731-0.6875 2.4434 0 0.35943 0.2257 0.66104 0.2832 1.0078 0.1032 0.61081-0.2298 1.2333 0 1.834l0.5332 0.24218c0.1206-0.3911 0.3002-0.76508 0.5371-1.0996l0.5039-0.21289c0.2559 0.25134 0.5783 0.44588 0.9199 0.54883 0.1735-1.0489-0.1301-2.1605 0.2539-3.1777l0.4629-0.27539c1.3392 0.29064 0.7673 0.94352 1.2735 1.4961 0.6028-0.75307 0.4727-1.7707 0.8144-2.627 0.2427-0.609 2.138-3.3826 2.6485-3.791h0.5903l0.4609 0.36914c0.06 0.35868 0.1487 0.70756 0.2832 1.0391 0.7098 0.29065 1.7915-0.57718 2.6465 0.67188 0.4163 0.0903 0.8471 0.12201 1.2735 0.0898 0.5958-0.44364 1.1658-1.1722 0.8652-1.9531-0.8701-0.61898-1.736-1.0709-1.1719-2.293 0.9275-0.2366 1.3593-1.0029 2.0625-1.5918 1.0906 0.2914 1.8431 1.0257 3.0567 0.73438 1.7176-0.41167 2.2132-2.4166 2.9804-3.1172 0.5505-0.5051 1.2849-0.49688 1.7832-1.0703 0.5001-0.57861 0.1574-1.049 0.2286-1.6797 0.1088-1.0031 2.0616-0.99589 2.166-3.207-0.4294-0.81351-0.9612-0.7203-0.8926-1.8359 0.3658-0.28875 1.1152-0.43122 1.3516-0.82422 0.9496-1.5793 0.2804-3.4638 1.0429-4.2168 0.1659-0.16252 1.5586-1.0897 1.7598-1.1641 0.5252-0.19313 1.1024-0.13934 1.6289-0.33398 0.5504-0.69559 1.2516-2.3728 1.9375-2.8438 0.6432-0.44274 1.3924-0.31464 2.0098-0.70117 0.2056-0.1304 0.5959-0.82665 0.5898-1.0703-0.06-0.89726-1.2796-1.2212-1.3516-2.1992-0.06-0.64018 1.3051-1.5225 1.377-3.334 0.081-2.0922-2.0057-2.8243-1.3242-4.4277 1.225-0.20107 2.4063 0.21497 2.8769-1.3145 0.1531-0.48491-0.2812-3.3152-0.6328-3.8203-0.1599-0.22866-1.2261-0.63465-1.5527-0.91797-0.06-0.62097 0.3959-1.1535 0.3828-1.7734l0.459-0.27539c0.621 0.16933 1.0298 0.54597 1.5312 0.91602 1.8082 1.3318 0.7195 3.0567 1.3477 4.5859 0.1338 0.32806 0.4045 0.57125 0.5644 0.88476l0.6621 0.0586c0.4237-0.35566 1.0172-0.29582 1.5-0.51953 0-0.42664 0.2377-0.66225 0.3594-1.0391 0.2559-0.81362 0.1793-1.5592 0.5899-2.627 0.4426-1.1768 1.3392-2.1656 1.58-3.4219 0.1531-0.80851-0.062-1.6369 0.078-2.4473 0.1791-1.0872 0.9292-2.31 0.3593-3.666-0.6028-1.4308-1.1228-0.98859-0.9941-3.0273 0.1281-2.096 1.3785-3.5114 2.1387-5.377 0.3586-0.87712 0.4434-1.863 0.6347-2.7832 0.1418-0.67853 0.3923-1.3536 0.4629-2.0449 0.1161-1.209 0.1774-2.0691 0.459-3.2695 0.1531-0.65231 0.1217-1.3305 0.2559-1.9863 0.116-0.5746 0.3407-1.4433 0.664-1.9258 0.3141-0.46481 0.8229-0.82438 0.9922-1.377 0.1285-0.41851 8e-4 -0.85883 0.08-1.2832 0.1531-0.81868 0.8333-1.4666 1.1992-2.168 0.8307-1.5884-0.2633-1.967-0.4101-2.6602-0.101-0.43861 0.2367-0.77831 0.3769-1.1602 0.738-1.929-0.6343-2.1508-0.1738-3.5137 0.3005-0.89824 1.2257-1.5016 1.5801-2.4473 0.2558-0.67949 0.2544-1.4327 0.5312-2.1074 0.1735-0.41858 0.2872-0.85078 0.461-1.2539 0.2944-0.70076 1.0639-1.1191 1.3515-1.8633 0.1338-0.35717 0.1726-0.74511 0.2168-1.1211 0.333-2.419-4e-4 -3.3-0.7988-5.5312-0.1346-0.39348-0.1304-0.82608-0.3145-1.2031-0.03-0.0593-0.078-0.11436-0.1113-0.17383-0.568-1.1167-1.0292-1.4563-1.4258-1.334zm-4.2949 100.71v4.25h10.75v-4.25zm-37.32 1.918c-0.069 1e-3 -0.133 6e-3 -0.1856 0.0176-0.2536 0.19426-0.6254 0.36881-0.9414 0.42773l-0.3554 0.45703-0.051 0.51953c0.1999 0.25739 0.3513 0.62568 0.5586 0.85547 0.116 0.12926 0.3158 0.20857 0.4336 0.33594 0.1168 0.12586 0.2016 0.32306 0.3086 0.46094 0.4884 0.63137 0.9813 1.004 1.6797 1.375 0.3632 0.192 0.7041 0.42188 1.1425 0.30664 0.2007-0.32126 0.2791-0.83177 0.1563-1.1934-0.047-0.13984-0.1874-0.29092-0.2539-0.42774-0.104-0.21543-0.1535-0.53857-0.2813-0.73242-0.1863-0.28233-0.4405-0.50894-0.5859-0.82812-0.2143-0.46753-0.2427-1.0493-0.7129-1.375-0.1965-0.13493-0.6108-0.2018-0.9102-0.19727zm-20.869 4.1426v4e-3c-0.2297 4e-3 -0.4925 0.0553-0.6757 0.0859-0.4001 0.0654-0.8269 0.24567-1.1543 0.48828-0.2094 0.25777-0.3276 0.80621-0.2539 1.1289 0.1364 0.29367 0.3733 0.60669 0.6113 0.82617 0.075 0.64645-0.2276 1.2477-0.1524 1.8945 0.1886 0.27326 0.518 0.55554 0.8145 0.70313 0.067 0.42538 0.321 0.60367 0.459 0.94726 0.063 0.16139 0.042 0.38607 0.1015 0.55078 0.088 0.24303 0.4228 0.64832 0.6133 0.82422l0.4571-0.0312c0.2528-0.90777 0.2377-1.9058 0.5351-2.7188 0.13-0.35452 0.3266-0.8365 0.5098-1.1621 0.1882-0.33411 0.4985-0.60154 0.6367-0.97851 0.1209-0.32996 0.2185-0.87646 0-1.1914l-0.4336-0.1543h0.051c-0.4805-0.28422-1.3709-1.0776-1.834-1.1914-0.081-0.0227-0.1801-0.0254-0.2852-0.0254zm-11.105 2.4531c-0.104-2e-3 -0.1914 3e-3 -0.2481 0.0195-0.023 4e-3 -0.4875 0.25007-0.5351 0.27539-0.044 0.0265-0.4123 0.22871-0.4336 0.2461-0.2551 0.2245-0.4789 0.66978-0.6133 0.97656-0.1591 0.36321-0.2324 0.6694-0.2773 1.0606-0.1834 1.6141 0.7675 1.7027 0.8125 2.6074-0.3043 0.14475-0.7626 0.20003-1.0938 0.1543-0.2347 0.29064-0.4894 0.60023-0.6875 0.91601-0.3632 0.58035-0.6252 1.5278-1.3496 1.7734-0.2211 0.0745-1.5171 0.10689-1.7832 0.0898-0.6344-0.0461-1.2442-0.23199-1.8848-0.0898-0.6304 0.72582-0.9934 1.15-0.8047 2.168 0.057 0.30123 0.1239 0.54755 0.3223 0.79492 0.1055 0.1319 0.2627 0.24171 0.3789 0.36719 0.1202 0.13001 0.227 0.31252 0.3574 0.42968 0.1293 0.1149 0.3415 0.18337 0.459 0.30469 0.2865 0.29518 0.5526 0.99158 0.8145 1.3438 0.3246 0.43586 0.845 0.62846 1.1445 1.0996l0.051 0.42969-0.457 0.27539c-0.3085 0.0533-0.9608-0.0531-1.2227-0.21484 0-3e-3 -0.6287-0.68222-0.7129-0.76563-0.4095-0.11943-0.9489-0.14784-1.3242-0.30469l-1.3496-1.0078-0.5352 0.0918c-0.3367 0.42448-0.9006 0.72686-1.4512 0.64258-0.5072-0.28876-0.6784-0.86411-1.248-1.0703l-0.6113 0.0293c-0.3515 0.19805-0.3738 0.54547-0.584 0.82617-0.019 0.0227-0.7611 0.68601-0.791 0.70313-0.5583 0.32504-1.5791 0.34679-2.0117 0.73242-0.1905 0.16932-0.3436 0.44003-0.5352 0.63086-0.039 0.0393-0.07 0.0551-0.1016 0.10351-0.2033 0.33449-0.5203 2.0928-0.5117 2.5078 0.011 0.57331 0.4219 2.0815 0.8164 2.5039 0.05 0.0552 0.093 0.0679 0.1524 0.11328 0.2725 0.19956 0.4445 0.45552 0.664 0.6211 0.3066 0.23093 0.684 0.34453 0.9922 0.61133 0.071 0.35565 0.1393 0.71299 0.2031 1.0703l0.4336 0.33594c0.7285-0.3326 0.7366-0.68772 1.1719-1.0703 0.2948-0.25965 0.9762-0.39239 1.043-0.85742 0 0 0.9007 0.12297 1.2734 0.0625 0.8736-0.14249 1.4792-0.95181 2.2168-1.3438l0.5078 0.18359 0.2559 0.45704c-0.1357 0.42107-0.2343 0.90124-0.2559 1.3438 0.1486 0.30765 0.3465 0.62056 0.5606 0.88671l-0.051 0.52149c-0.4104 0.39587-0.6436 1.1394-0.7891 1.6797-0.6185 0.80485-2.1896 0.51878-3.1074 0.88672l-0.2285 0.64062c0.019 0.5102 0.3384 1.0432 0.7129 1.377-0.058 0.31635 0.03 0.82703 0.2031 1.0996l0.5352-0.12304c0.294-0.57313 0.9044-0.73514 1.4589-0.94532l0.3223-0.12109c0.03-2e-3 0.5982 0.0815 0.6641 0.0898l0.3828 0.36719c-0.1421 0.3967-0.3165 0.78941-0.5117 1.1621-0.034 0.0673-0.296 0.51459-0.3047 0.54883-0.051 0.17235-0.06 1.005-0.051 1.2246 0.4236 0.1406 0.904 0.23866 1.3496 0.27344l0.2813 0.42968c-0.1837 0.3447-0.8584 0.84137-1.2246 0.97657-0.3334 0.12283-0.6968 0.11438-1.043 0.27539l-0.2539 0.61132 0.2812 0.45899 0.5078 0.18164c0.5091-0.2521 1.0472-0.22961 1.5801-0.36719 0.4236-0.10923 0.7185-0.37749 1.1113-0.51953l0.3418-0.12109c0.192-0.0302 0.418 0.0302 0.6094 0 0.3137-0.0518 0.7137-0.28512 0.8926-0.55078 0.011-0.37153 0.1548-0.84654 0.3555-1.1602 0.3507-0.0884 0.8124-0.13677 1.1718-0.0918 0.5557 0.0646 1.3486 0.44476 1.8594 0.0606l0.3047-0.51953c0.058-0.31143-0.023-0.83628-0.2031-1.1016-0.3557-0.44935-1.1804-0.46453-1.7051-0.42579-0.6797-0.34053-1.1227-0.99877-0.9922-1.7754 0.3617-0.60453 0.9616-1.1602 1.7051-1.1602 0.2018-0.13871 0.4072-0.42039 0.4941-0.64063l0.17-0.42773c0.099-0.52891-0.1785-1.1752-0.129-1.7422l0.4571-0.27539c0.7373 0.31068 1.2675 1.0021 2.0625 1.1621l0.4609-0.24609 0.5586 0.15429c0.075 0.30917 0.2553 0.67126 0.459 0.91602 0.395 0.0794 0.843 0.12128 1.2461 0.0918l0.1035-0.67187c-0.1882-0.33524-0.7188-1.0256-0.7402-1.377-0.039-0.55159 0.3376-1.1104-0.1016-1.7422-0.3867-0.10734-0.8005-0.27969-1.1445-0.48828-0.1867-0.20069-0.3645-0.63701-0.3301-0.91602l0.3555-0.42773c0.3681 0.39035 1.0164 0.43088 1.5019 0.27539 0.5922-0.90561-0.079-1.5393 0.3321-2.4766 0.011-0.0265 0.2976-0.38027 0.332-0.42579 0.5072-0.65635 0.9064-1.4294 0.789-2.293l-0.2812-0.42774-0.5117-0.0625c-0.3884 0.15647-0.5212 0.45624-0.7891 0.73438-0.062 0.0654-0.7505 0.65479-0.789 0.67187-0.2424 0.12095-0.8082 0.13885-1.0684 0.0625-0.095-0.86404 0.2822-1.5752 0.6367-2.3242 0.1693-0.35867 0.5991-1.4593 0.7129-1.832 0.1629-0.53507 0.3721-1.5207 0.4336-2.0801-0.2695-0.30425-0.3053-0.60217-0.4609-0.94922-0.087-0.19124-0.3097-0.5056-0.4336-0.67382-0.206-0.2778-0.5611-0.51189-0.7383-0.79297-0.1894-0.29972-0.2495-0.87301-0.3145-1.2227-0.087-0.47478-0.244-1.014-0.1699-1.498 0.059-0.38948 0.2452-0.91839 0.4609-1.2539 0.094-0.14665 0.2724-0.27468 0.3555-0.42578 0.2211-0.4018 0.5306-1.38 0.457-1.834-0.062-0.38797-0.4933-1.118-0.8398-1.3144-0.1572-0.0888-0.6096-0.16003-0.9219-0.16797zm-5.0625 3.1992c-0.5714 0.32542-1.2919 0.30454-1.9102 0.61133-0.1795 0.41469-0.2545 1.063-0.3808 1.3438-0.1565 0.34809-0.4703 0.40398-0.5586 1.0703l0.2773 0.27734c0.4808 0.034 0.921-0.0801 1.3926-0.10546 0.3209-0.0189 0.6912 0.0276 1.0019-0.0215 0.155-0.0227 0.3558-0.10623 0.5098-0.15234l0.332-0.42969 0.074-0.67383c-0.4228-0.45313-0.3805-1.2232-0.1797-1.7695zm-9.9844 3.1758-0.4062 0.36719c-0.098 0.36057-0.2122 0.8527-0.2032 1.2246 0.011 0.37961 0.1568 0.72838 0.1016 1.1289-0.03 0.22639-0.1633 0.47933-0.1758 0.70312-0.019 0.2623 0.1903 0.80077 0.3555 1.0078l0.6367 0.21485 0.3809-0.33594c0.144-0.40218 0.2159-0.88504 0.1777-1.3125-0.019-0.16743-0.1115-0.38887-0.1035-0.55078 0.011-0.17499 0.1211-0.40297 0.1562-0.58008 0.1183-0.62404 0.1618-1.2595-0.2558-1.7734zm-17.904 2.084c0 2e-3 2e-4 4e-3 -0.01 6e-3 0.8186 0.32282 1.9957 1.4827 2.0098 2.4141-0.1924 0.31861-0.3582 0.65613-0.4863 1.0078 0.2237 0.2812 0.4989 0.5238 0.8144 0.70117l0.062 0.45899c0-1e-3 -2e-4 -3e-3 0.01-4e-3l-0.06-0.45898c-0.3158-0.17738-0.5904-0.41998-0.8145-0.70118 0.1282-0.35168 0.2939-0.68919 0.4863-1.0078-0.014-0.93222-1.1931-2.0944-2.0117-2.416zm-0.6934 1.0293c-0.4772 0.91838-0.5927 1.6695-0.8359 2.3125 0.2441-0.64224 0.3617-1.3954 0.8359-2.3125zm-7.5253 0.57032c0 0.0221 0.01 0.0506 0.01 0.0781 0.5416 0.0259 1.3606 0.10045 1.9551 0.19531-0.5907-0.12024-1.3625-0.23379-1.9629-0.27343zm1.9648 0.27343c0.2648 0.0539 0.557 0.10646 0.6367 0.15821-0.097-0.0578-0.3327-0.1097-0.6367-0.15821zm0.6367 0.15821c0.012 7e-3 0.053 0.0141 0.061 0.0215 0.5319 0.50612 0.4927 1.1816 0.5468 1.8027-0.054-0.62101-0.01-1.3003-0.539-1.8066-0.01-5e-3 -0.06-0.012-0.068-0.0176zm1.6836 3.25c0.01 2e-3 -2e-4 8e-3 0.01 0.01 0-1e-3 -3e-4 -3e-3 0.01-4e-3 -0.01-2e-3 -0.01-4e-3 -0.014-6e-3zm3.3008 0.31054c0 8.5e-4 2e-4 9.6e-4 -0.01 2e-3 0 2e-3 4e-4 8e-3 0 0.01 0-3e-3 -2e-4 -9e-3 0.01-0.0117zm-0.1797 1.5312c0 8e-3 -0.01 0.0235 0 0.0312 0 5e-3 0.024 0.0105 0.027 0.0156 0-5e-3 -0.018-0.0142-0.02-0.0195 0-7e-3 -5e-4 -0.0204 0-0.0274zm3.0859 1.3984c-0.1525-0.0147-0.3078 0.0352-0.4609 0.0352-0.01-1.7e-4 -0.039-0.0188-0.049-0.0195 0.01 6e-4 0.033 0.0233 0.041 0.0234 0.1531 0 0.3083-0.0507 0.4609-0.0351 0.4104 0.0601 0.7463 0.30494 1.2246 0.33593 0.5765 0.034 1.0837-0.34574 1.6543-0.24218 0.029 5e-3 0.061 0.0154 0.09 0.0215-0.027-6e-3 -0.056-0.0207-0.082-0.0254-0.5706-0.10394-1.0779 0.2762-1.6542 0.24219-0.4786-0.031-0.8143-0.27584-1.2247-0.33594zm5.4219 0.70117c0.01 4e-4 0.016 7e-3 0.024 6e-3l0.375 0.36719-0.2774 0.51953 0.2813-0.52344-0.375-0.36718c-0.01 8.2e-4 -0.018-2e-3 -0.027-2e-3zm-2.1738 1.2012-0.1035 0.42579c0.2751 0.20674 0.8631 1.179 0.9922 1.2226 0 1e-3 0.014-1e-3 0.017 0 0-7.9e-4 -0.01-9.5e-4 -0.01-2e-3 -0.1291-0.0437-0.7171-1.0182-0.9922-1.2246l0.1015-0.42188c0 6e-4 0 2.7e-4 -0.01 0zm8.209 5.8906c-0.3345 0.0786-0.6895 0.2092-0.9942 0.36719l-0.2285 0.61328c0.2177 0.59875 0.5676 1.3744 0.7383 1.9551 0.093 0.31785 0.085 0.74554 0.2539 1.0391 0.019 0.0302 0.3169 0.35079 0.3555 0.39648 0.692 0.32542 1.5139-0.14674 1.8594-0.76367l0.078-0.64258-0.3321-0.39453-0.027-0.24609s-0.6797-0.62883-0.8633-1.1309c-0.1326-0.36208-0.091-0.67554-0.3574-1.0098zm-15.256 4.0957v2e-3c-0.2067 0.17159-0.4721 0.31024-0.7129 0.42578-0.1054 0.31559-0.1272 0.8857 0.027 1.1934l0.4316 0.36718c0.3186 0.0605 0.8506-0.0266 1.1211-0.21484 0.049-0.41038 0.068-0.84141 0.051-1.2539zm17.336 1.1504c-0.2805 4e-3 -0.5831 0.086-0.9356 0.28711l-0.1777 0.45703 0.1777 0.48828c0.5221 0.36134 1.9636 0.68687 2.5977 0.61329 0.1319-0.3224 0.1929-0.92313 0.051-1.2539-0.654-0.28535-1.1385-0.60049-1.7128-0.5918zm-2.9219 1.3574c-0.8032 1.0291-1.1273 1.2818-1.043 2.6875l0.2539 0.42774 0.5352 0.24609c0.3004 0.034 0.8045-0.11105 1.0175-0.33593 0.1154-0.31786-0.012-0.88443-0.1796-1.1621l-0.025 0.0605c-0.2468-0.49905-0.3085-1.1429-0.1778-1.6816zm-23.525 2.8398v2e-3c-0.3545 4e-3 -0.734 0.0455-1.0781 0.1211-0.2888 0.16516-0.5579 0.65995-0.6094 0.97656 0.061 0.49251 0.2171 1.1276 0.6367 1.4375 0.7152 0.35338 1.453 0.15688 1.9356-0.45703v-1.1934c-0.1539-0.21317-0.3093-0.42516-0.459-0.64063l-0.3555-0.24609c-0.026-4e-5 -0.048-3e-4 -0.07 0zm13.732 6.4102v2e-3c-0.051 9.4e-4 -0.099 4e-3 -0.1406 8e-3l-0.3047 0.45703 0.1016 0.51953 1.0703 0.55078c0.5843-0.10091 1.1706-0.2558 1.7597-0.0898 0.051-0.31408-0.012-0.8238-0.1797-1.1016-0.3333-0.0227-1.0848-0.15433-1.375-0.30664 0 0-0.5725-0.044-0.9316-0.0391zm-9.3242 0.0898c-0.2222 4e-3 -0.442 0.0432-0.6211 0.13281-0.3693 0.44508-0.6172 0.99163-0.8906 1.498l0.1015 0.55078c0.4023 0.31937 0.5886 0.89368 0.7149 1.375 0.072 8e-3 0.6533 0.0932 0.6875 0.0898 0.043-3e-3 1.4715-0.44845 1.5293-0.45703 0.3001-0.034 0.7671 0.13399 0.9648 0.36719h0.6133l0.457-0.27734c0.011-0.24945 0.031-0.55925 0.127-0.79297l-0.457-0.30469c-0.3754 0.0393-0.8369-9e-3 -1.1973-0.12305 0.1039-1.1904-0.2108-1.7431-1.3926-1.9961-0.1882-0.0393-0.4126-0.0678-0.6348-0.0625z" clip-path="url(#clipPath31316)" filter="url(#filter31320)" opacity=".43" style="mix-blend-mode:normal"/>
 </g>
</svg>
