<?xml version="1.0" encoding="UTF-8"?>
<svg width="1920" height="1080" fill="none" version="1.1" viewBox="0 0 1920 1080" xmlns="http://www.w3.org/2000/svg">
 <path d="m891.77 220.69c5.4845-3.9488 23.693-35.539 51.554-21.28s46.947 24.132 71.298 10.75c24.351-13.382 35.978-26.545 56.38-14.04 20.402 12.505 37.075 30.055 66.033 13.382 28.958-16.673 42.34-27.642 73.711-10.969 31.371 16.673 63.4 16.453 79.854 3.0713 16.453-13.382 34.223-18.208 50.457-4.607s30.713 10.53 52.212-2.1938c21.499-12.724 31.371-13.382 50.457-0.43875 19.086 12.943 23.912 24.351 53.528 8.117s51.115-26.325 70.859-12.066c19.744 14.26 22.596 14.698 41.243 5.0457 18.647-9.6526 28.3-24.57 46.07-10.091 17.77 14.479 465.43 893.05 449.29 901.73s-1922.3 62.439-1922.3 62.439z" fill="#fff"/>
</svg>
