<?xml version="1.0" encoding="UTF-8"?>
<!-- Created with Inkscape (http://www.inkscape.org/) -->
<svg width="50" height="130" version="1.1" viewBox="0 0 13.229 34.396" xmlns="http://www.w3.org/2000/svg">
 <path d="m6.575 0.90703c-1.5815 9.6e-6 -2.8636 1.2821-2.8636 2.8636 1.92e-5 1.5815 1.2821 2.8636 2.8636 2.8636 1.5816 1.152e-4 2.8638-1.282 2.8639-2.8636-1.92e-5 -1.5816-1.2822-2.8637-2.8639-2.8636zm4.8164 0.2574v3.9641h-0.34712v2.0368c-0.0769-0.010464-0.1542-0.016992-0.23172-0.019488l-7.7707 11.284v13.398c-3.84e-5 0.9174 0.7436 1.6611 1.661 1.6612 0.91749 4.8e-5 1.6613-0.74373 1.6612-1.6612v-12.05h0.50105v12.05c-4.8e-5 0.9174 0.7436 1.6611 1.661 1.6612 0.91749 4.8e-5 1.6613-0.74374 1.6612-1.6612v-20.52h0.50104v5.2916c1.35e-4 0.31257 0.12881 0.61131 0.35583 0.82614v2.6982h1.5644v-2.698c0.22708-0.2149 0.35577-0.51373 0.35583-0.82638v-7.1877c-2.59e-4 -0.43237-0.12371-0.85573-0.35583-1.2205v-3.0623h-0.34711v-3.9641zm-8.8506 5.9709c-1.257 4.8e-5 -2.276 1.0191-2.2761 2.2761h-2.2944e-4v9.5739h2.2944e-4c-4.128e-5 0.62851 0.50941 1.1381 1.1379 1.1382 0.6286 3.9e-5 1.1382-0.50956 1.1382-1.1382v-7.6778h0.50105v6.2388l7.1694-10.411z" fill="#fff" stroke-linecap="round" stroke-linejoin="round" stroke-miterlimit="3.9773" stroke-width=".1119"/>
</svg>
