<?xml version="1.0" encoding="UTF-8"?>
<!-- Created with Inkscape (http://www.inkscape.org/) -->
<svg width="1920" height="1080" version="1.1" viewBox="0 0 508 285.75" xmlns="http://www.w3.org/2000/svg" xmlns:xlink="http://www.w3.org/1999/xlink">
 <defs>
  <clipPath id="clipPath18052">
   <path d="m370.76 62.856c-0.92252 0.01487-1.8744 0.43022-2.4334 0.66042-0.79513 0.3274-1.2631 0.74819-2.1518 1.4966-0.88866 0.74836-1.2159 0.3744-2.1513 0.32763-0.93543-0.04677-2.9 0.23384-3.929 0.18707-1.029-0.04677-1.6368 0.32758-1.8707 0.7953-0.23386 0.46772-0.65518 2.3382-1.1229 3.4608s-0.7012 0.88901-1.2625 1.6841c-0.56132 0.79513-0.18735 2.198-0.0471 2.9931 0.12851 0.72818-0.12218 1.4698-0.61804 2.0707-0.29244 0.3544-0.44029 0.92914-0.91725 1.2888-0.26181 0.19743-0.53235 0.42141-0.79219 0.64596 0.2567-0.07598 0.53398-0.17893 0.83664-0.3235 0.25151-0.07992 0.43603-0.11264 0.694-0.12196 0.90471 0.03377 1.411 0.15017 2.282 0.15606 0.83862 0.02519 1.7794-0.02519 2.6391-0.04909 0.62434-0.01736 1.0226-0.11562 1.5353-0.25218 0.3385-0.09016 0.77036-0.14649 1.2552-0.19224 1.8113-0.14313 2.7502-0.23973 4.0897-0.31522 0.77097 0.0064 1.3074 0.15827 1.8578 0.6475 0.84191 0.74835 0.42101 1.45 1.8242 1.7306 0.44768 0.08953 0.78121 0.18816 1.1416 0.28732 1.9541 0.80105 3.6347-0.34544 5.0219-0.92811 0.37447-0.14204 0.73208-0.26833 1.0397-0.34158 0.98219-0.23386 2.2917-7.2e-5 3.4143 0.65474 1.1225 0.65481 1.59 0.28069 2.3383 1.8242 0.7484 1.5435 0.79547 1.9644 1.6842 2.8531 0.88869 0.88867 2.1982 1.7774 2.9466 2.1048 0.0332 0.0145 0.65913 0.37635 0.78547 0.44545 0.0386-0.05351 0.0749-0.1091 0.123-0.15554 0.0557-0.05446 0.13013-0.10195 0.19016-0.15348 0.0214-0.01595 0.13745-0.1161 0.14573-0.12971 0.0677-0.10428 0.0506-0.20963 0.0605-0.3235 0-0.05208 0.0279-0.10979 0.0279-0.16123 0-0.26327-0.32737-0.66607-0.51882-0.83302-0.0661-0.05808-0.17907-0.10176-0.22945-0.17828-0.0273-0.04268-0.044-0.12967-0.0646-0.18035-0.13226-0.316-0.19063-0.70628 0.11216-0.95963 0.10327-0.08639 0.5362-0.08257 0.74155-0.20257 0.1643-0.09624 0.30006-0.27868 0.47852-0.35553 0.18352-0.07891 0.50388-0.22422 0.69401-0.2589 0.15419-0.02831 0.3534 0.0083 0.5054-0.02379 0.0831-0.01868 0.27374-0.12065 0.37672-0.154 0.15261-0.04937 0.30593-0.05164 0.45836-0.08888 0.4341-0.10642 0.78338-0.39685 1.186-0.56586 0.23042-0.09738 0.66323-0.18885 0.83507-0.30696 0.19336-0.13283 0.39931-0.27783 0.56637-0.44493 0.11176-0.11254 0.16777-0.25892 0.2558-0.38809 0.1206-0.17658 0.2586-0.29826 0.40516-0.44493 0.10506-0.10427 0.18049-0.2486 0.28318-0.35553 0.13549-0.14163 0.33488-0.18109 0.4713-0.3235 0.11716-0.1227 0.25281-0.3701 0.41754-0.42064 0.19206-0.05865 0.44741-0.0577 0.64699-0.07286 0.18457-0.01336 0.41632-0.0927 0.59944-0.13746 0.0848-0.0213 0.19105-0.08709 0.27699-0.08888 0.12351-0.0024 0.26961 0.04783 0.39687 0.05633 0.26086 0.01868 0.76748-0.19844 0.9498-0.38809 0.0509-0.05333 0.0949-0.13173 0.14211-0.1912l0.0269-0.03514c-0.0185-0.07711 0.0745-0.27477 0.10491-0.35036 0.11517-0.27604 0.17225-0.54073 0.4408-0.72502 0.1121-0.07687 0.27686-0.11912 0.3633-0.22634 0.15065-0.18671 0.16817-0.43495 0.28368-0.63097 0.0556-0.09386 0.1388-0.15358 0.15402-0.27492 0.0159-0.13363-0.0848-0.30435-0.0744-0.43615 0.0159-0.11152 0.0744-0.25902 0.0997-0.37259 0.0577-0.03679 0.27831-0.25436 0.31676-0.30748 0.0159-0.01868 0.0159-0.03112 0.0212-0.05116 0.0899-0.20486 0.09-0.44162 0.17312-0.65216 0.0795-0.20138 0.29678-0.3127 0.33692-0.52607 0.0406-0.21525-0.11028-0.39435-0.0527-0.60617 0.0143-0.04374 0.0952-0.21672 0.13332-0.27854-0.38137-0.55964-0.76679-1.1274-1.1121-1.6149-0.79513-1.1225-1.3096-1.1689-2.7595-1.0754-1.4499 0.09354-2.6661-0.23409-3.929-0.23409-1.2629 0-1.4967-0.46762-2.5725-0.93534-1.0758-0.46772-1.777-0.42091-3.3672-0.37414-1.5903 0.04677-2.7596-2.43e-4 -4.0225-0.14056-1.2629-0.14032-1.7305-0.93524-2.7595-1.8707-1.029-0.93544-1.7304-0.98237-3.6949-0.88883-1.9644 0.09355-2.0116-0.56113-2.9471-1.3095-0.93546-0.74836-1.4967-0.79498-2.666-1.403-0.29234-0.15201-0.61095-0.22258-0.93689-0.2372-0.0611-0.0028-0.12248-0.0036-0.18397-0.0026z" fill="#013378"/>
  </clipPath>
  <filter id="filter1172" x="-.084886" y="-.12802" width="1.1698" height="1.256" color-interpolation-filters="sRGB">
   <feGaussianBlur stdDeviation="2.6719119"/>
  </filter>
 </defs>
 <g>
  <path transform="scale(.26458)" d="m1401.3 237.57c-3.4867 0.0562-7.0843 1.626-9.1973 2.4961-3.0052 1.2374-4.774 2.8278-8.1328 5.6562-3.3587 2.8284-4.5954 1.415-8.1309 1.2383-3.5355-0.17678-10.96 0.8838-14.85 0.70703-3.889-0.17677-6.1864 1.2381-7.0703 3.0059-0.8839 1.7678-2.4763 8.8374-4.2441 13.08s-2.6502 3.36-4.7715 6.3652c-2.1215 3.0052-0.7081 8.3073-0.1778 11.312 0.4857 2.7522-0.4618 5.5552-2.3359 7.8262-1.1053 1.3395-1.6641 3.5117-3.4668 4.8711-0.9895 0.7462-2.012 1.5927-2.9941 2.4414 0.9702-0.28718 2.0182-0.67628 3.1621-1.2227 0.9506-0.30206 1.648-0.42572 2.623-0.46094 3.4194 0.12764 5.3329 0.56756 8.625 0.58985 3.1696 0.0952 6.7253-0.0952 9.9746-0.18555 2.3597-0.0656 3.865-0.43698 5.8028-0.95313 1.2794-0.34078 2.9116-0.55365 4.7441-0.72656 6.846-0.54096 10.394-0.90606 15.457-1.1914 2.9139 0.0241 4.9413 0.5982 7.0215 2.4473 3.182 2.8284 1.5912 5.4804 6.8945 6.541 1.692 0.33839 2.9526 0.71114 4.3145 1.0859 7.3856 3.0276 13.738-1.3056 18.98-3.5078 1.4153-0.53684 2.7669-1.0142 3.9297-1.291 3.7122-0.88388 8.6616-2.7e-4 12.904 2.4746 4.2425 2.4749 6.0095 1.0609 8.8378 6.8945 2.8286 5.8336 3.0065 7.4244 6.3653 10.783 3.3588 3.3588 8.3083 6.7176 11.137 7.9551 0.1254 0.0548 2.4912 1.4224 2.9687 1.6836 0.1461-0.20223 0.283-0.41236 0.4649-0.58789 0.2105-0.20583 0.4918-0.38532 0.7187-0.58008 0.081-0.0603 0.5195-0.4388 0.5508-0.49023 0.2559-0.39411 0.1911-0.7923 0.2285-1.2227 0-0.19684 0.1055-0.41497 0.1055-0.60937 0-0.99504-1.2373-2.5174-1.9609-3.1484-0.2499-0.21951-0.6768-0.38459-0.8672-0.67383-0.1032-0.16131-0.1663-0.4901-0.2442-0.68164-0.4999-1.1943-0.7205-2.6694 0.4239-3.627 0.3903-0.32652 2.0266-0.31206 2.8027-0.76563 0.621-0.36374 1.1341-1.0533 1.8086-1.3438 0.6936-0.29824 1.9044-0.84744 2.623-0.97851 0.5828-0.107 1.3357 0.0312 1.9102-0.0899 0.3141-0.0706 1.0346-0.456 1.4238-0.58203 0.5768-0.18659 1.1563-0.19516 1.7324-0.33594 1.6407-0.40223 2.9608-1.4999 4.4825-2.1387 0.8709-0.36805 2.5067-0.71375 3.1562-1.1602 0.7308-0.50203 1.5092-1.0501 2.1406-1.6816 0.4224-0.42535 0.6341-0.97859 0.9668-1.4668 0.4558-0.66738 0.9774-1.1273 1.5313-1.6816 0.3971-0.3941 0.6822-0.93959 1.0703-1.3438 0.5121-0.53528 1.2657-0.68442 1.7813-1.2227 0.4428-0.46373 0.9555-1.3988 1.5781-1.5898 0.7259-0.22167 1.691-0.21809 2.4453-0.27539 0.6976-0.0505 1.5735-0.35038 2.2656-0.51953 0.3205-0.0805 0.7221-0.32914 1.0469-0.33594 0.4668-9e-3 1.019 0.18076 1.5 0.21289 0.9859 0.0706 2.9007-0.75003 3.5898-1.4668 0.1924-0.20156 0.3585-0.49787 0.5371-0.72265l0.1016-0.13282c-0.07-0.29143 0.2814-1.0385 0.3965-1.3242 0.4353-1.0433 0.651-2.0437 1.666-2.7402 0.4237-0.29053 1.0464-0.45023 1.3731-0.85547 0.5694-0.70567 0.6356-1.6439 1.0722-2.3848 0.2102-0.35475 0.5246-0.58047 0.5821-1.0391 0.06-0.50507-0.3206-1.1503-0.2813-1.6484 0.06-0.42151 0.2812-0.97896 0.377-1.4082 0.218-0.13905 1.0519-0.96137 1.1972-1.1621 0.06-0.0706 0.06-0.11761 0.08-0.19335 0.3398-0.77427 0.3403-1.6691 0.6543-2.4648 0.3005-0.76114 1.1217-1.1819 1.2734-1.9883 0.1535-0.81355-0.4168-1.4905-0.1992-2.291 0.054-0.16532 0.36-0.81911 0.5039-1.0527-1.4414-2.1152-2.8981-4.2611-4.2031-6.1035-3.0052-4.2426-4.9496-4.418-10.43-4.0644-5.48 0.35355-10.077-0.88476-14.85-0.88476s-5.6569-1.7674-9.7227-3.5352c-4.0659-1.7678-6.7161-1.5908-12.726-1.4141-6.0105 0.17678-10.43-9.2e-4 -15.203-0.53125-4.773-0.53034-6.5406-3.5348-10.43-7.0703-3.8892-3.5355-6.5403-3.7129-13.965-3.3594-7.4246 0.35356-7.6031-2.1208-11.139-4.9492-3.5356-2.8284-5.6568-3.0046-10.076-5.3027-1.1049-0.57453-2.3091-0.84124-3.541-0.89649-0.231-0.0104-0.4629-0.0135-0.6953-0.01z" fill="#013378"/>
  <path d="m330.63 61.731c-0.0537 0.11122-0.12337 0.21608-0.11059 0.24856 0.0159 0.03623 0.0697 0.07632 0.10025 0.09818 0.0696 0.04722 0.36991 0.18395 0.38602 0.20929 0.0795 0.1259-0.17737 0.75896-0.30694 0.80254-0.16592 0.05548-0.33414-0.29466-0.47749-0.08888-0.17741 0.25393 0.31302 0.75198 0.17774 0.87643-0.0289 0.02695-0.24005 0.01651-0.28834 0.01913-0.11361 0.0024-0.19621-0.07545-0.30903-0.07545-0.0677 0-0.13211 0.05682-0.18706 0.09147-0.12348 0.07733-0.30486 0.20356-0.13539 0.34882 0.0305 0.02673 0.34729 0.31037 0.30694 0.40204-0.1288 0.29058-0.46447 0.1519-0.63664 0.31936-0.1152 0.11197 0.039 0.29442 0 0.42013-0.0375 0.12376-0.31938 0.12841-0.37258 0.25218-0.0475 0.1113 0.15933 0.3197-0.0161 0.36742-0.25472 0.07019-0.39987-0.40712-0.85059-0.30076-0.0983 0.03918-0.60785 0.48834-0.30334 0.55914 0.22622 0.05253 0.31755-0.03981 0.43717-0.01344 0.10858 0.02673 0.67659 0.28179 0.47802 0.44545-0.18566 0.15311-0.52363 0.15021-0.64751 0.17208-0.29906 0.05231-0.35457-0.20687-0.54777-0.14366-0.24058 0.07812-0.10308 0.2562-0.15245 0.35398-0.13042 0.25366-0.65662 0.28597-0.89863 0.20722-0.18246-0.05898-0.35015-0.1135-0.34677-0.3421 0-0.03918 0.24194-0.54088 0.0164-0.55966-0.10012-8e-3 -0.2616 0.2377-0.38706 0.29197-0.32419 0.14004-0.25498-0.22152-0.50901-0.13643-0.14083 0.04698-0.19378 0.42066-0.31265 0.54105-0.18921 0.19186-0.4662 0.22422-0.6971 0.33073 0.77785 1.0507 0.65997 2.1072 0.75136 3.4318 0.0935 1.3564 0.88847 1.6373 1.9642 2.6195 1.0758 0.98222 1.5435 1.7773 1.7306 2.9466 0.18709 1.1693 0.42098 2.853-0.46768 3.6949-0.85897 0.81378-0.88855 2.0113-1.1224 3.5548-0.23384 1.5435-1.4032 2.4318-2.1983 3.0866-33.136 31.465 14.475 31.331 39.482 10.531 0.11361-0.08402 0.20793-0.2323 0.31676-0.30696 0.0458-0.03152 0.1216-0.04032 0.17518-0.07235 0.37518-0.22539 0.49326-0.40163 0.97721-0.35863 0.0901 0.0091 0.18642 0.02109 0.24908 0.09922 0.0241 0.0829 0.0763 0.17859 0.13538 0.24288l0.1473 0.01654c0.30125-0.18085 0.21407-0.16263 0.43148-0.38861 0.42691-0.4438 0.41233-0.55008 1.0237-0.77566 0.1611 0.02392 0.32477 0.10892 0.48575 0.10439 0.10329-0.0021 0.21365-0.04103 0.31625-0.05684 0.45178-0.06942 0.69408-0.12665 0.76171-0.65422-0.073-0.1403-0.29734-0.28468-0.26974-0.4532 0.19552 0 0.33147 0.11612 0.5121 0.14521 0.23474 0.0379 0.42635-0.04346 0.64701-0.07235 0.0695-0.0091 0.25874-0.03143 0.32348-0.03256 0.0592-0.0011 0.13049 0.02855 0.18862 0.02429 0.14756-0.01135 0.27366-0.13748 0.42426-0.16175 0.16272-0.18324 0.29464-0.56438 0.2894-0.80822 0-0.14217-0.0572-0.30567-0.0605-0.44493 0-0.21633 0.12189-0.41851 0.2227-0.59841 0.076-0.13471 0.14173-0.26823 0.27545-0.35553 0.29941-0.19498 0.39148-0.03896 0.62683-0.09715 0.15764-0.03837 0.51781-0.49664 0.61391-0.63924 0.0557-0.08265 0.0902-0.19115 0.16796-0.2589 0.0795-0.06964 0.18129-0.07231 0.26974-0.11369 0.27794-0.12804 0.75091-0.61641 0.42376-0.91312 0.13549-0.10507 0.35824-0.01897 0.51263-0.0083 0.24725 0.01595 0.6623-0.05297 0.80822 0.21859 0.12031 0.03622 0.25982 0.08114 0.38447 0.09767 0.10858 0.01595 0.22703-0.01363 0.33692-0.0083 0.19391 8e-3 0.38833 0.06091 0.5793 0.08889 0.16428 0.024 0.38714-0.0163 0.53949 0.04031 0 0.0024 0.11996 0.08159 0.12663 0.0894 0.0998 0.09658 0.12051 0.25069 0.216 0.35605 0.2318-0.06771 0.73128-0.41489 0.92242-0.42892 0.11358-8e-3 0.25434 0.04349 0.37102 0.04858 0.22249 0.01016 0.59727-0.0077 0.79582-0.11317l0.0403-0.14521c-0.23738-0.34216 0.23929-1.0121 0.82217-0.68781 0.073 0.11363 0.16568 0.2288 0.22891 0.34778 0.0677 0.1283 0.10491 0.26132 0.19535 0.38034 0.13044 0.06137 0.46042 0.25862 0.59325 0.20981 0.15258-0.25714 0.0156-0.5836 0.21497-0.82476 0.12539-0.07019 0.27395-0.10573 0.39119-0.18604 0.11715-0.07971 0.23458-0.17541 0.35036-0.2589 0.18994-0.13684 0.34073-0.35029 0.55914-0.44442 0.22569-0.09738 0.49654-0.1759 0.74157-0.1943 0.19074-0.01595 0.46837 0.02103 0.64646-0.05684 0.14407-0.06192 0.27869-0.44212 0.63357-0.5979 0.36206-0.15898 0.87469-0.10585 1.1798-0.31523 0.16778-0.11496 0.13706-0.27097 0.24908-0.40514 0.0319-0.03974 1.2896-0.84636 1.3472-0.86455 0.34708-0.10914 0.56134 0.20244 0.98443 0.02429 0.12803-0.05381 0.20421-0.1591 0.28112-0.26562-0.12634-0.0691-0.75229-0.43095-0.78547-0.44545-0.74834-0.32741-2.0579-1.2161-2.9466-2.1048-0.88868-0.88867-0.93575-1.3096-1.6842-2.8531-0.74832-1.5435-1.2158-1.1694-2.3383-1.8242-1.1226-0.65481-2.4321-0.8886-3.4143-0.65474-0.30766 0.07325-0.66527 0.19954-1.0397 0.34158-1.3872 0.58266-3.0678 1.7292-5.0219 0.92811-0.36033-0.09916-0.69387-0.19779-1.1415-0.28732-1.4032-0.28063-0.98227-0.98229-1.8242-1.7306-0.55039-0.48923-1.0868-0.64113-1.8578-0.6475-1.3395 0.0755-2.2783 0.1721-4.0897 0.31522-0.48485 0.04575-0.9167 0.10207-1.2552 0.19224-0.51271 0.13656-0.91099 0.23483-1.5353 0.25218-0.85971 0.02392-1.8005 0.07428-2.6391 0.04909-0.87103-0.0059-1.3773-0.12229-2.282-0.15606-0.25797 0.0093-0.44249 0.04204-0.694 0.12196-1.0069 0.48095-1.7358 0.50836-2.3446 0.57464-1.1708 0.12747-1.0758-0.46804-1.6371-1.7777-0.56126-1.3096-1.1716-1.7119-1.4495-2.7125-0.23386-0.8419-1.4969-0.98249-2.8065-2.2453-1.3096-1.2628-1.4032-0.74827-2.3854-0.74827-0.98224 0-1.4502 0.04677-2.8065 0-1.3564-0.04677-1.0288-0.37431-1.4966-1.1694-0.46773-0.79513-0.32732-1.2156-0.74827-1.6366-0.42095-0.42095-0.79515-1.9647-2.2918-2.0583-1.0365-0.06478-1.029-1.2629-2.3854-1.7306-1.0921-0.37658-1.59-1.1223-2.5254-2.0578-0.2232-0.22319-0.52539-0.44848-0.84955-0.66301zm47.566 29.633-0.0946 0.04082c-0.0201 0.17385-0.13411 0.28848-0.23566 0.42013l0.0476 0.12919 0.20878 0.04857c0.079-0.03328 0.19262-0.09189 0.27596-0.1049 0.11835-0.01847 0.24035 0.01839 0.35708 0.02429 0.21119 9e-3 0.40204-0.06152 0.55293-0.21033 8e-3 -0.10224 0-0.22443-0.0274-0.32349l-0.12816 0.0083c-0.0537 0.07744-0.13203 0.15542-0.20878 0.20981-0.22458-0.14299-0.57783-0.06207-0.74724-0.24236z" clip-path="url(#clipPath18052)" filter="url(#filter1172)" opacity=".37" style="mix-blend-mode:normal"/>
 </g>
</svg>
