<?xml version="1.0" encoding="UTF-8"?>
<!-- Created with Inkscape (http://www.inkscape.org/) -->
<svg width="1920" height="1080" version="1.1" viewBox="0 0 508 285.75" xmlns="http://www.w3.org/2000/svg" xmlns:xlink="http://www.w3.org/1999/xlink">
 <defs>
  <clipPath id="clipPath2685">
   <path d="m408.17 47.195c-1.0895-0.01241-1.9521 0.49265-3.1182 0.23254-1.6564-0.36947-3.274 0.4676-4.7708 1.0289-0.74835 0.28064-1.4552 0.10133-2.0485 0.58498-0.62576 0.51014-1.9966 0.34698-3.1796 0.64699-2.4007 0.60881-2.1619-0.01593-4.3134-0.7643-2.1515-0.74836-1.9645-0.1871-4.116 0.09354-2.1515 0.28063-1.4969 0.74818-2.4324 1.5901-0.93544 0.8419-1.9641 1.31-2.806 1.4971-0.64299 0.14289-1.7201 0.07049-2.6944 0.15193-0.0199 0.05288-0.0412 0.11284-0.0476 0.13022-0.0577 0.1547 0.0811 0.34437-0.11059 0.48059-0.0795 0.05706-0.2879-0.13536-0.49041-0.02119-0.0509 0.02932-0.38071 0.23148-0.39997 0.25735-0.0643 0.08616-0.0798 0.41648-0.3266 0.51573-0.14568 0.05853-0.24749 0.04629-0.3669 0.05529-0.18108 0.71217-0.41722 1.5903-0.98909 2.5461-0.88535 1.4797-1.1936 1.3963-2.4097 1.6769s-2.1288-0.30231-4.6989 0.7891c-2.1526 0.9141-1.9013 0.85943-3.6985 1.3343-1.1633 0.30737-1.6607 0.34128-2.7781 0.2496-1.4315-0.11746-1.6624 1.1884-1.943 3.0592-0.28064 1.8709-0.65524 2.4322-0.84233 4.5837-0.18708 2.1515-1.4965 3.5547-1.7772 5.0514-0.20164 1.0754-1.226 3.537-2.341 5.0886 0.61523 0.04733 1.1222 0.11933 1.8149 0.12402 0.83862 0.02519 1.7794-0.02519 2.6391-0.04909 0.62434-0.01736 1.0226-0.11562 1.5353-0.25218 0.3385-0.09016 0.77036-0.14649 1.2552-0.19224 1.8113-0.14313 2.7502-0.23973 4.0897-0.31522 0.77097 0.0064 1.3074 0.15827 1.8578 0.6475 0.84191 0.74835 0.42101 1.45 1.8242 1.7306 0.44768 0.08953 0.78121 0.18816 1.1416 0.28732 1.9541 0.80105 3.6347-0.34544 5.0219-0.92811 0.37447-0.14204 0.73208-0.26833 1.0397-0.34158 0.98219-0.23386 2.2917-7.1e-5 3.4143 0.65474 1.1225 0.65481 1.59 0.28069 2.3383 1.8242 0.7484 1.5435 0.79547 1.9644 1.6842 2.8531 0.88869 0.88867 2.1982 1.7774 2.9466 2.1048 0.0332 0.0145 0.65913 0.37635 0.78547 0.44545 0.0386-0.05351 0.0749-0.1091 0.123-0.15555 0.0557-0.05446 0.13013-0.10195 0.19016-0.15348 0.0214-0.01596 0.13745-0.1161 0.14573-0.12971 0.0677-0.10428 0.0506-0.20963 0.0605-0.3235 0-0.05208 0.0279-0.1098 0.0279-0.16123 0-0.26327-0.32737-0.66607-0.51882-0.83302-0.0661-0.05808-0.17907-0.10176-0.22945-0.17828-0.0273-0.04268-0.044-0.12967-0.0646-0.18035-0.13226-0.316-0.19063-0.70628 0.11216-0.95963 0.10327-0.08639 0.5362-0.08257 0.74155-0.20257 0.1643-0.09624 0.30006-0.27868 0.47852-0.35553 0.18352-0.07891 0.50388-0.22422 0.69401-0.2589 0.15419-0.02831 0.3534 0.0083 0.5054-0.02379 0.0831-0.01868 0.27374-0.12065 0.37672-0.154 0.15261-0.04937 0.30593-0.05164 0.45836-0.08888 0.43408-0.10642 0.78338-0.39685 1.186-0.56586 0.23042-0.09738 0.66323-0.18885 0.83507-0.30696 0.19336-0.13283 0.39931-0.27783 0.56637-0.44493 0.11176-0.11254 0.16777-0.25892 0.2558-0.38809 0.1206-0.17658 0.2586-0.29826 0.40516-0.44493 0.10506-0.10427 0.18049-0.2486 0.28318-0.35553 0.13549-0.14163 0.33488-0.18109 0.4713-0.3235 0.11716-0.1227 0.25281-0.3701 0.41754-0.42065 0.19206-0.05865 0.44741-0.0577 0.64699-0.07286 0.18457-0.01336 0.41632-0.0927 0.59944-0.13746 0.0848-0.0213 0.19105-0.08709 0.27699-0.08888 0.12351-0.0024 0.26961 0.04783 0.39687 0.05633 0.26086 0.01868 0.76748-0.19845 0.9498-0.38809 0.0509-0.05333 0.0949-0.13173 0.14211-0.1912l0.0269-0.03514c-0.0185-0.07711 0.0745-0.27477 0.10491-0.35036 0.11517-0.27604 0.17225-0.54073 0.4408-0.72502 0.1121-0.07687 0.27686-0.11912 0.3633-0.22634 0.15065-0.18671 0.16817-0.43495 0.28368-0.63097 0.0556-0.09386 0.1388-0.15358 0.15402-0.27492 0.0159-0.13363-0.0848-0.30435-0.0744-0.43615 0.0159-0.11152 0.0744-0.25902 0.0997-0.37259 0.0577-0.03679 0.27831-0.25436 0.31676-0.30748 0.0159-0.01868 0.0159-0.03112 0.0212-0.05116 0.0899-0.20486 0.09-0.44162 0.17312-0.65216 0.0795-0.20138 0.29678-0.3127 0.33692-0.52606 0.0406-0.21525-0.11028-0.39435-0.0527-0.60617 0.0159-0.04823 0.11721-0.27013 0.14729-0.30696 0.0159-0.01868 0.32118-0.23543 0.34983-0.25063 0.0795-0.04246 0.64881-0.21004 0.72813-0.20257 0.50038 0.048 0.49083 0.68894 0.93017 0.71985 0.09-8e-3 0.19857-0.08466 0.24289-0.16226 0.0592-0.10427 0.0678-0.24564 0.11369-0.35553 0.0881-0.21152 0.39495-0.87513 0.53846-1.0185 0.20592-0.20592 0.48596-0.33469 0.74826-0.44493 0.17979-0.07552 0.39262-0.1034 0.57312-0.17777 0.26704-0.10937 0.49032-0.31666 0.74827-0.44493 0.18674-0.09307 0.36914-0.14711 0.55861-0.22686 0.13391-0.05605 0.26511-0.13189 0.39741-0.18603 0.0459-0.01868 0.10329-0.02127 0.14726-0.04031 0.0459-0.0213 0.0828-0.05956 0.12867-0.08061 0.0541-0.02673 0.239-0.0646 0.29662-0.06459 0.32944 0 0.66406 0.09249 0.96378-0.11317 0.35059-0.24059 0.18391-0.77083 0.66714-0.83251 0.0544-8e-3 0.11372 8e-3 0.16796 0 0.25871-0.02673 0.49498-0.15082 0.76171-0.17002 0.22029-0.01595 0.44016 0.02151 0.6599-0.03204 0.0509-0.01336 0.0962-0.04518 0.14726-0.05684 0.26035-0.06114 0.55669-0.06408 0.8227-0.06408 0.0509 0 0.12716-8e-3 0.17518 0 0.17073 0.03147 0.33615 0.18546 0.51885 0.1049 0.0848-0.15097 0.13197-0.31514 0.20825-0.46871 0.073-0.14723 0.18201-0.27928 0.23564-0.43718 0.0712-0.21018 0.08-0.5169 0.18912-0.70332 0.0526-0.09045 0.13904-0.15623 0.18862-0.25838 0-0.15204-0.0196-0.33879 0.0206-0.48576 0.0439-0.16297 0.1864-0.30133 0.22323-0.46096 0.0712-0.31107-0.54068-0.90546-0.69453-1.1968-0.0459-0.08832-0.0628-0.17436-0.12713-0.25838 0.0159-0.23979-0.027-0.51298-0.0476-0.75189-0.034-0.36372 0.0156-0.7782 0.0403-1.1405 0-0.10406-0.0274-0.19441-0.0274-0.29094 0-0.14004 0.0779-0.40429 0.14727-0.52555-0.0354-0.047-0.1374-0.1786-0.15605-0.22634-0.0459-0.11843-0.11991-0.63705-0.0791-0.75189 0.0273-0.08344 0.12158-0.19365 0.16746-0.27492-0.0405-0.12084-0.13211-0.26878-0.15402-0.38861-0.0423-0.22299 0.12198-0.43861 0.12198-0.66301 0-0.09284-0.0529-0.20344-0.0476-0.29145 0.0159-0.20166 0.19005-0.30328 0.20256-0.50126 0.0831-0.04858 0.15748-0.14714 0.19535-0.2341 0.0865-0.20219 0.0267-0.30862 0.0543-0.49299 0.0526-0.33216 0.27549-0.66832 0.40463-0.97824-0.0273-0.31884-0.17939-0.28595-0.10028-0.72812 0.18466-0.2749 0.53671-0.38184 0.47183-0.80047l0.0951-0.11317c0.0901-8e-3 0.19809-0.08443 0.24236-0.16227 0.1121-0.19525 0-0.42518 0.0951-0.64699 0.10678-0.25767 0.30729-0.45634 0.3974-0.71985l-0.0543-0.12919c-0.16939-0.19818-0.53899-0.02151-0.82114-0.25063-0.22833-0.18538-0.2472-0.5125-0.49249-0.67851-0.17812-0.12083-0.5243-0.26484-0.74102-0.38861-0.0933-0.05366-0.21677-0.08333-0.30335-0.14521-0.30133-0.21498-0.84957-1.0669-0.84957-1.4392 0-0.05117 0.022-0.10996 0.0279-0.16175 0.0159-0.14723 0.0159-0.32909 0-0.47698-0.0159-0.18698-0.12589-0.35798-0.15658-0.54208-0.0159-0.11039 0.0529-0.55625 0.0817-0.67903 0.0968-0.42301 0.32996-0.73656 0.4713-1.1322 0.0145-0.04073 8e-3 -0.09106 0.0156-0.13539-1.0576 0.03746-2.0233 0.17998-3.2107-0.27647-0.43323-0.16654-0.82177-0.22841-1.1849-0.23254z" fill="#013378"/>
  </clipPath>
  <filter id="filter2689" x="-.037131" y="-.038724" width="1.0743" height="1.0774" color-interpolation-filters="sRGB">
   <feGaussianBlur stdDeviation="3.6743974"/>
  </filter>
 </defs>
 <g>
  <path transform="scale(.26458)" d="m1542.7 178.37c-4.1179-0.0469-7.3779 1.862-11.785 0.8789-6.2604-1.3964-12.374 1.7673-18.031 3.8887-2.8284 1.0607-5.4999 0.38299-7.7422 2.2109-2.3651 1.9281-7.5464 1.3114-12.018 2.4453-9.0735 2.301-8.171-0.0602-16.303-2.8887-8.1318-2.8284-7.4249-0.70714-15.557 0.35352-8.1317 1.0607-5.6577 2.8278-9.1933 6.0098-3.5355 3.182-7.4235 4.9511-10.606 5.6582-2.4302 0.54006-6.5013 0.26643-10.184 0.57422-0.075 0.19984-0.1557 0.42648-0.1797 0.49218-0.2181 0.58471 0.3065 1.3015-0.418 1.8164-0.3004 0.21566-1.0881-0.5116-1.8535-0.0801-0.1923 0.11082-1.4389 0.87488-1.5117 0.97266-0.243 0.32564-0.3016 1.5741-1.2344 1.9492-0.5506 0.22122-0.9354 0.17494-1.3867 0.20898-0.6844 2.6917-1.5769 6.0106-3.7383 9.623-3.3462 5.5925-4.5112 5.2772-9.1074 6.3379s-8.0459-1.1426-17.76 2.9824c-8.1357 3.4549-7.1861 3.2482-13.979 5.043-4.3967 1.1617-6.2768 1.2899-10.5 0.94336-5.4105-0.44395-6.2831 4.4914-7.3437 11.562-1.0607 7.0711-2.4765 9.1925-3.1836 17.324-0.7071 8.1317-5.6562 13.435-6.7168 19.092-0.7621 4.0647-4.6336 13.368-8.8477 19.232 2.3253 0.17887 4.2413 0.45102 6.8594 0.46875 3.1696 0.0952 6.7253-0.0952 9.9746-0.18555 2.3597-0.0656 3.865-0.43698 5.8028-0.95313 1.2794-0.34078 2.9116-0.55365 4.7441-0.72656 6.846-0.54096 10.394-0.90606 15.457-1.1914 2.9139 0.0241 4.9413 0.5982 7.0215 2.4473 3.182 2.8284 1.5912 5.4804 6.8945 6.541 1.692 0.33839 2.9526 0.71114 4.3145 1.0859 7.3856 3.0276 13.738-1.3056 18.98-3.5078 1.4153-0.53684 2.7669-1.0142 3.9297-1.291 3.7122-0.88388 8.6616-2.7e-4 12.904 2.4746 4.2425 2.4749 6.0095 1.0609 8.8378 6.8945 2.8286 5.8336 3.0065 7.4244 6.3653 10.783 3.3588 3.3588 8.3083 6.7176 11.137 7.9551 0.1254 0.0548 2.4912 1.4224 2.9687 1.6836 0.1461-0.20223 0.283-0.41236 0.4649-0.58789 0.2105-0.20583 0.4918-0.38532 0.7187-0.58008 0.081-0.0603 0.5195-0.4388 0.5508-0.49023 0.2559-0.39411 0.1911-0.7923 0.2285-1.2227 0-0.19684 0.1055-0.41497 0.1055-0.60937 0-0.99504-1.2373-2.5174-1.9609-3.1484-0.2499-0.21951-0.6768-0.38459-0.8672-0.67383-0.1032-0.16131-0.1663-0.4901-0.2442-0.68164-0.4999-1.1943-0.7205-2.6694 0.4239-3.627 0.3903-0.32652 2.0266-0.31206 2.8027-0.76563 0.621-0.36374 1.1341-1.0533 1.8086-1.3438 0.6936-0.29824 1.9044-0.84744 2.623-0.97851 0.5828-0.107 1.3357 0.0312 1.9102-0.0899 0.3141-0.0706 1.0346-0.456 1.4238-0.58203 0.5768-0.18659 1.1563-0.19517 1.7324-0.33594 1.6406-0.40223 2.9608-1.4999 4.4825-2.1387 0.8709-0.36805 2.5067-0.71375 3.1562-1.1602 0.7308-0.50203 1.5092-1.0501 2.1406-1.6816 0.4224-0.42535 0.6341-0.97859 0.9668-1.4668 0.4558-0.66738 0.9774-1.1273 1.5313-1.6816 0.3971-0.3941 0.6822-0.93959 1.0703-1.3438 0.5121-0.53528 1.2657-0.68442 1.7813-1.2227 0.4428-0.46373 0.9555-1.3988 1.5781-1.5898 0.7259-0.22167 1.691-0.21809 2.4453-0.27539 0.6976-0.0505 1.5735-0.35038 2.2656-0.51953 0.3205-0.0805 0.7221-0.32914 1.0469-0.33594 0.4668-9e-3 1.019 0.18076 1.5 0.21289 0.9859 0.0706 2.9007-0.75003 3.5898-1.4668 0.1924-0.20156 0.3585-0.49787 0.5371-0.72265l0.1016-0.13282c-0.07-0.29143 0.2814-1.0385 0.3965-1.3242 0.4353-1.0433 0.651-2.0437 1.666-2.7402 0.4237-0.29053 1.0464-0.45023 1.3731-0.85547 0.5694-0.70567 0.6356-1.6439 1.0722-2.3848 0.2102-0.35475 0.5246-0.58047 0.5821-1.0391 0.06-0.50507-0.3206-1.1503-0.2813-1.6484 0.06-0.42151 0.2812-0.97896 0.377-1.4082 0.218-0.13905 1.0519-0.96137 1.1972-1.1621 0.06-0.0706 0.06-0.11761 0.08-0.19335 0.3398-0.77426 0.3403-1.6691 0.6543-2.4648 0.3005-0.76114 1.1217-1.1819 1.2734-1.9883 0.1535-0.81355-0.4168-1.4905-0.1992-2.291 0.06-0.18228 0.443-1.021 0.5567-1.1602 0.06-0.0706 1.2139-0.8898 1.3222-0.94727 0.3005-0.16048 2.4522-0.79387 2.752-0.76562 1.8912 0.18141 1.8551 2.6039 3.5156 2.7207 0.3402-0.0302 0.7505-0.31997 0.918-0.61328 0.2237-0.3941 0.2561-0.92841 0.4297-1.3438 0.3329-0.79943 1.4927-3.3076 2.0351-3.8496 0.7783-0.7783 1.8367-1.265 2.8281-1.6816 0.6795-0.28543 1.4839-0.39079 2.1661-0.67188 1.0093-0.41336 1.8532-1.1968 2.8281-1.6816 0.7058-0.35176 1.3952-0.55599 2.1113-0.85742 0.5061-0.21184 1.002-0.49849 1.502-0.70312 0.1734-0.0706 0.3904-0.0804 0.5566-0.15235 0.1735-0.0805 0.3128-0.22509 0.4863-0.30468 0.2045-0.10103 0.9033-0.24416 1.1211-0.24414 1.2451 0 2.5098 0.34957 3.6426-0.42774 1.3251-0.90933 0.6951-2.9134 2.5215-3.1465 0.2056-0.0302 0.4298 0.0302 0.6348 0 0.9778-0.10103 1.8708-0.57001 2.8789-0.64258 0.8326-0.0603 1.6636 0.0813 2.4941-0.1211 0.1924-0.0505 0.3637-0.17077 0.5566-0.21484 0.984-0.23108 2.104-0.24219 3.1094-0.24219 0.1924 0 0.4806-0.0302 0.6621 0 0.6453 0.11894 1.2705 0.70097 1.961 0.39649 0.3205-0.57059 0.4988-1.1911 0.7871-1.7715 0.2759-0.55646 0.6879-1.0555 0.8906-1.6523 0.2691-0.79439 0.3023-1.9536 0.7148-2.6582 0.1988-0.34186 0.5255-0.59046 0.7129-0.97657 0-0.57465-0.074-1.2804 0.078-1.8359 0.1659-0.61595 0.7045-1.1389 0.8437-1.7422 0.2691-1.1757-2.0435-3.4222-2.625-4.5234-0.1735-0.33381-0.2372-0.659-0.4805-0.97656 0.06-0.90629-0.1022-1.9388-0.1797-2.8418-0.1285-1.3747 0.059-2.9412 0.1524-4.3105 0-0.3933-0.1035-0.73477-0.1035-1.0996 0-0.5293 0.2943-1.528 0.5566-1.9863-0.1338-0.17764-0.5193-0.67502-0.5898-0.85547-0.1735-0.4476-0.4532-2.4078-0.2989-2.8418 0.1032-0.31536 0.4595-0.7319 0.6329-1.0391-0.1531-0.45672-0.4993-1.0159-0.5821-1.4688-0.1598-0.84279 0.461-1.6577 0.461-2.5059 0-0.35089-0.1998-0.7689-0.1797-1.1016 0.06-0.76217 0.7183-1.1463 0.7656-1.8945 0.3141-0.18361 0.5952-0.55613 0.7383-0.88477 0.3269-0.76418 0.1011-1.1664 0.2051-1.8633 0.1988-1.2554 1.0412-2.5259 1.5293-3.6973-0.1032-1.205-0.678-1.0808-0.379-2.752 0.6979-1.039 2.0285-1.4432 1.7833-3.0254l0.3593-0.42773c0.3406-0.0302 0.7487-0.31911 0.916-0.61329 0.4237-0.73794 0-1.607 0.3594-2.4453 0.4036-0.97386 1.1614-1.7248 1.502-2.7207l-0.2051-0.48828c-0.6402-0.74903-2.0371-0.0813-3.1035-0.94727-0.863-0.70063-0.9343-1.937-1.8614-2.5644-0.6732-0.45667-1.9816-1.001-2.8007-1.4688-0.3527-0.20281-0.8193-0.31494-1.1465-0.54883-1.1389-0.81253-3.211-4.0322-3.211-5.4394 0-0.1934 0.083-0.41559 0.1055-0.61133 0.06-0.55646 0.06-1.2438 0-1.8027-0.06-0.7067-0.4758-1.353-0.5918-2.0488-0.06-0.41723 0.1998-2.1024 0.3086-2.5664 0.3659-1.5988 1.2471-2.7838 1.7813-4.2793 0.055-0.15395 0.032-0.34418 0.059-0.51171-3.9973 0.14158-7.647 0.68024-12.135-1.0449-1.6374-0.62944-3.1059-0.86329-4.4785-0.8789z" fill="#013378"/>
  <path d="m347.52 79.934c0.23386-0.79513 3.3692-0.15863 4.9594-0.39249 1.5903-0.23386 1.9577-2.05 2.5242-2.8816 0.49684-0.72935 0.93544-1.4032 0.79513-2.1983-0.14031-0.79513-0.51451-2.1983 0.0468-2.9934 0.56126-0.79513 0.79512-0.56127 1.2628-1.6838 0.46773-1.1225 0.88868-2.9934 1.1226-3.4611 0.23386-0.46772 0.8419-0.8419 1.8709-0.79513 1.029 0.04677 2.9934-0.23386 3.9289-0.18709 0.93544 0.04677 1.2629 0.42095 2.1515-0.32741 0.88869-0.74836 1.3564-1.1693 2.1515-1.4967 0.79512-0.32741 2.3854-1.029 3.5547-0.42095 1.1693 0.60804 1.7306 0.65481 2.666 1.4032 0.93546 0.74835 0.98223 1.4032 2.9467 1.3096 1.9644-0.09354 2.666-0.04677 3.695 0.88867 1.029 0.93544 1.4967 1.7306 2.7596 1.8709 1.2628 0.14032 2.4321 0.18709 4.0224 0.14032 1.5902-0.04677 2.2918-0.09354 3.3676 0.37418 1.0757 0.46772 1.3096 0.93544 2.5725 0.93544 1.2628 0 2.4789 0.3274 3.9288 0.23386 1.4499-0.09354 1.9644-0.04677 2.7596 1.0758 0.79513 1.1225 1.7773 2.6192 2.5257 3.6482 0.74835 1.029 4.0224 5.8933 4.0224 5.8933l91.627 79.279-52.385 130.59s-141.06 3.3676-146.3 3.3676c-5.2385 0-43.03-158.28-43.03-158.28s81.384-27.876 81.851-28.437c0.46773-0.56127 8.6061-27.455 8.6061-27.455z" clip-path="url(#clipPath2685)" filter="url(#filter2689)" opacity=".39" stroke="#000" stroke-width=".26458px" style="mix-blend-mode:normal"/>
 </g>
</svg>
