<?xml version="1.0" encoding="UTF-8"?>
<!-- Created with Inkscape (http://www.inkscape.org/) -->
<svg width="1920" height="1080" version="1.1" viewBox="0 0 508 285.75" xmlns="http://www.w3.org/2000/svg" xmlns:xlink="http://www.w3.org/1999/xlink">
 <g>
  <path transform="scale(.26458)" d="m1582.6 32.787c0.011 0.0017 0.024 0.02588 0.035 0.03125 0.019-9.1e-5 0.1456-0.01951 0.1543-0.01758zm0.035 0.03125c-0.3934 2e-3 -2.8257 0.29741-3.6211 0.42578-3.1069 0.50275-3.4146 2.4328-1.0918 2.502 0.3455 0.01262 1.4442 0.40825 1.4942 0.45117 0.2819 0.24657-0.332 1.1256-0.5821 1.2227-0.3903 0.15364-1.6256 0.16266-2.1054 0.11719-0.3972-0.03919-1.515-0.32062-1.6797-0.33789-0.3326-0.03254-0.8702 0.4204-1.0137 0.69531-0.7419 1.4238 0.06 1.9925 0.6543 3.1523 0.091 0.17356 0.8744 1.0823 0.8281 1.3789-0.06 0.39062-0.6423 0.49882-0.9297 0.31055-0.2944-0.194-0.9704-0.59809-1.4453-0.14258-0.1005 0.0988-0.2545 0.78025-0.2617 1.0371-0.06 0.90419 0.5003 1.0907 0.25 2.1309-0.1217 0.50658-0.3955 2.3266-0.5488 2.5078-0.1739 0.21264-0.665 0.06435-0.9141 0.20117-0.2498 0.1389-1.0198 1.0201-1.1543 1.3516-0.1398 0.3586 0.3774 0.8151 0.25 1.4727-0.1531 0.74753-1.043 1.0844-1.043 1.8613 0 0.53541 0.3521 0.6926 0.5059 1.1133 0.1017 0.25493 0.1209 1.2857 0 1.5801-0.1032 0.27931-0.4415 0.37158-0.6934 0.48438-0.6341 0.28562-1.4668 1.6777-1.4668 1.6777-0.06 0.19332-0.7478 2.1333-0.8183 2.332-0.07 0.19982 0.1843 0.26206 0.1582 0.43359 0 0.10386-1.2684 1.5177-1.4297 1.8379-0.082 0.1697-0.1206 1.5173 0 1.7754 0.3903 0.73753 0.7855 1.3041 1.5 1.7676 0.2498 0.16078 0.5693 0.09739 0.8223 0.23633 0.082 0.04441 1.4589 0.48253 1.4218 1.125 0 0.31192-2.3951 0.32141-2.5097 0.64453-0.081 0.22485 1.3972 2.4114 0.8808 3.0273-0.1338 0.16078-1.5374-0.57501-2.4629-1.0742-0.2819-0.1525-0.5693 0.30075-0.7539 0.57617-0.5061 0.76982 0.1875 1.9467 0.5137 3.0742 0.06 0.13005 2.2493 0.0207 2.291 0.68359 0.1013 1.4911-1.2723 0.85735-1.9531 1.4961-0.5443 0.51112-0.4353 1.3186-0.5 1.4297-0.1735 0.29038-0.6278 0.06229-0.8809 0.16211-0.2309 0.1008-0.4414 0.84828-0.4785 1.084-0.3205 2.036 0.8569 2.3171 0.8789 3.1562 0 0.41436-0.7013 1.7348-0.7949 2.2012-0.081 0.39117 0.371 0.7443 0.25 1.0762-0.1338 0.35085-0.6733 0.92449-0.6914 1.2402 0 0.49801 0.535 0.4567 0.6953 0.8418 0.1467 0.34878 0.4342 1.9678 0.3125 2.4434-0.06 0.15526-0.8592 0.83569-1.0722 1.1777-0.1419 0.2208-0.265 1.1806-0.9649 1.5957-0.2691 0.15829-1.1359 1.4451-1.8769 1.4609-0.3527 0.0102-1.8618-0.97504-2.3262-0.86719-0.5121 0.11992-1.9922 1.1455-2.3477 0.86914-0.2309-0.17745-0.1929-0.57325-0.3652-0.82226-0.333-0.50105-2.162-2.9702-2.2363-2.9824-0.9034-0.1482-2.1169 1.0749-2.3223 1.1914-1.0453 0.59379 0.3199 1.4043 0.5762 1.1875 0.06-0.05038 1.0265-0.02966 1.0547 0.18555 0.1152 0.8821-0.8941 1.3984-0.9102 1.541 0 0.29034 0.1741 1.5007-0.4863 1.4492-0.3455-0.03099-0.8294-0.55204-1.0879-0.51172-0.3077 0.05034-0.709 0.59992-1.0977 1.7441-0.3772 1.111 0.9449 0.64636 0.5508 1.5547-0.3587 0.83069-1.7669 1.1962-1.7266 1.3027 0.1531 0.41534 0.059 1.1617-0.5644 1.0293-0.5322-0.11698-0.7448 0.11973-1.1113-0.21094-0.101-0.0906-0.7623-2.9854-0.8106-3.0332-0.06-0.05034-1.328-0.07036-1.5937-0.31641-0.4479-0.41534-0.7439-0.76382-0.8184-1.3984 0-0.13508-0.7352-0.77254-0.9883-0.98828-0.5635-0.47988-1.7651-0.35714-2.0468-0.55469-0.7764-0.54742-0.3982-2.0223-1.6817-2.127-0.8005-0.07068-0.1408 1.4059-1.6211 0.94531-0.1735-0.05038-0.5066-0.12008-0.6348-0.24609-0.1205-0.118-1.1784-2.4112-1.9316-1.1914-0.2751 0.44561-0.1332 0.76807-0.1 1.1484 0.1791 1.547 0.1338 1.2352-1.0566 0.91797-0.4929-0.13107-0.6572-0.16634-1.0586-0.7793-0.3459-0.52726 1.0609-0.98647-0.3399-2.0859-0.5445-0.42844-2.4584 0.76118-2.3789 1.6953 0.06 0.79339 1.3008 1.6322 1.3418 1.7227 0.4488 0.98797 0.133 1.0568-0.1426 1.3594-0.3261 0.35686-1.2229 0.61662-1.5586-0.20898-0.2812-0.69964-1.8614-1.7114-2.1914-1.123-0.06 0.11392-0.3535 2.2441-0.3535 2.2441 0.06 0.07056 1.7307 1.1391 1.4278 1.6621-0.2945 0.51213-1.9973 0.625-2.461 0.625-0.6965 0-1.2929-0.99182-1.7265-0.91016-0.7128 0.13308 0.06 1.8312-1.1758 1.584-0.5696-0.11494-0.555-1.378-1.6055-0.38086-0.1285 0.11992-0.4873 0.3941-0.5195 0.5332-0.06 0.18747 0.4461 0.78238 0.3125 0.9336-0.2873 0.3236-1.4766 0.49624-0.8633 1.3242 0 0 0.8192 0.5945 0.9785 0.63282 0.6139 0.15122 1.1271 0.68522 1.4531 1.1914 0.08 0.12601-0.1459 0.65366-0.2812 0.79883-0.746 0.84179-1.5448 1.0368-1.7246 0.98828-0.5445-0.14819-1.4731-0.95931-2.4063-0.60547-1.3398 0.50912-1.0084 0.66212-0.1074 1.2266 0.1988 0.12302 0.4341 0.48695 0.5684 0.52929 0.8578 0.27221 1.4831 0.672 1.4003 0.73047-0.512 0.3659-2.2195 0.30978-2.2617 1.252-0.06 0.75912 1.7966 1.0563 1.7754 1.125-0.06 0.16429-1e-4 0.32105-0.07 0.51757-0.4608 1.4851-2.322 0.10958-3.1738 0.47852-0.2056 0.0907-0.4215 0.28504-0.4785 0.50586-0.1285 0.48591-0.1781 2.001-0.1524 2.1856 0 0.16837 0.2411 0.345 0.3887 0.40039 0.4293 0.16236 1.6399-0.84194 1.8672-0.83789 0.3522 0.48892-0.1429 1.9144 0.1269 2.3652 0.081 0.13308 1.0938 0.1681 1.4903 0.35156 0.081 0.031 0.3553 1.044 0.1054 1.2344-0.737 0.56656-1.2021 0.28377-1.7343 0.39062-0.5061 0.10182-0.7636-0.41779-0.9864-0.29883-0.7218 0.38714 0.3571 1.2696-0.062 1.4883-0.2872 0.1573-2.6376 0.35342-2.6875 0.48242-0.2366 0.61394 0.8157 1.9928 0.5918 2.1523-0.3971 0.28124-1.5192-0.0418-2.0195-0.0117-0.1988 0.0102-1.0903 0.22488-1.3262 0.40235-0.1735 0.12601 0.4549 0.79127 0.1856 1.0703-0.3971 0.41533-1.4731 1.2057-1.5391 1.2168-0.1988 0.031-1.2271 0.23544-1.9238-0.29883-0.308-0.23687-0.8331-2.2757-1.8555-1.5274-0.081 0.0604-0.3648 0.38095-0.3769 0.47266 0 0.16131 0.179 1.2053-0.061 1.4219-0.1791 0.16028-0.9075 0.40565-1.0781 0.54882-0.4798 0.40524-0.3699-0.47476-0.8652-0.12695-0.6553 0.46174-1.0551 1.2639-1.1973 1.5664-0.1792 0.39117 0.5836 0.56758 0.4746 0.71679-0.243 0.34375-0.2436 1.245-0.9102 1.4531-0.263 0.0806-0.5956-0.48794-1.2343 0-0.3772 0.28222-0.09 1.0984-0.5762 0.8457-0.081-0.0705-1.3502-0.32204-1.4316-0.26758-0.1924 0.13308-1.3567-0.29648-1.7032-0.21484-0.081 0.0208-0.6433 0.79977-0.8086 0.95703-0.1791 0.16838-0.3195 0.0805-0.4726 0.19336-0.4799 0.34583-0.4169 1.9545-0.3086 2.1328 0.3137 0.5222 0.7413 0.27114 0.7656 0.28516 0.06 0.031 0.3516 0.55109 0.3516 0.57226 0 0.0402-0.4869 1.3463-0.5 1.4375 0 0.11086-0.1987 1.4086-0.5 1.7129-0.1867 0.19339-1.5087 0.57456-1.5215 0.5957-0.06 0.0808-1.0955 0.77505-1.1582 0.8789 0 0.0384-0.6849 0.11952-0.7656 0.10157-0.166-0.0505-1.0828-0.65223-1.2852-0.8418-0.1602-0.14929 0.062-0.72754-0.6426-0.85156-0.755-0.1369-2.6049-0.2025-2.6816-0.3086-0.1338-0.18444-1.38 0.52094-1.6035 0.47657-0.1792-0.0302-1.1669-0.76337-1.3789-0.96094-0.231-0.21566 0.092-0.734-1.1368-0.90234-0.1923-0.0302-1.5833-0.0506-2.291 0.2832-0.1598 0.0805-0.6076 0.91613-0.8828 0.81836-0.116-0.0505-1.2405-0.69303-1.2578-0.70313-0.06-0.0505-0.44-0.98561-0.5801-1.1055-0.4428-0.3801-1.5622-0.10423-1.705-0.0312-0.1736 0.0907-1.0644 1.117-1.2969 1.2871-0.288 0.21264-0.9353 1.3769-1.0293 1.4316-0.1924 0.11082-0.776 0.91708-0.8516 0.94532-0.1531 0.0603-1.1909 0.15223-1.2871 0.1582-0.116 9e-3 -0.8884-0.48453-1.3418-0.57422-0.082-9e-3 -1.0101 0.31784-1.1211 0.18945-0.3772-0.43451-0.3158-1.4624-0.539-1.6289-1.6224-1.2216-1.3244 0.0309-2.6348 0.16406-0.8266 0.0805-0.4865-0.35847-1.041-0.082-0.3527 0.17544-0.6734 0.49756-0.8789 0.66992-0.5061 0.42236 0.2633 0.74795 0.1601 1.1602-0.2309 0.92345-1.2562 1.3526-1.4394 1.375-0.2559 0.0302-1.0055 0.25921-1.1172 0.25195-0.2309-9e-3 -1.5403-0.82014-1.9278-0.73242-0.1855 0.0505-0.1409 0.27389-0.4101 0.32226-0.5001 0.0907-1.0892 0.20116-1.5957 0.14258 0 0-2.4107 0.3028-2.5606 0.26172-0.3269-0.0907-0.4738-0.43462-0.7168-0.61914-0.1734-0.12794-1.2488-0.27308-1.5-0.47852-0.1466-0.11977-0.3198-0.61405-0.416-0.74414-0.3522-0.47884-0.7414-1.3093-1.3867-1.4766-0.2298-0.0603-1.2534-0.26172-1.6953-0.26172-0.282 0.0215-2.8458-0.10068-3.4512-0.13281-1.2437-0.0706-2.5242-0.33011-3.7617-0.49023-0.9205-0.11982-1.6633 0.10355-2.5644 0.15234-2.3262 0.12794-4.5796-0.15859-6.7969 0.79492-1.3391 0.57666-2.5016 1.6025-3.9024 2.0762-0.4475 0.15103-0.9409 0.32034-1.4043 0.41407-0.2872 0.0603-1.5936 0.1124-1.666 0.14453-0.1988 0.0907-2.1099 1.5028-2.1738 1.584-0.1988 0.26404-0.6318 0.93304-0.8809 1.125-0.07 0.0603-0.4106 0.0787-0.5 0.0586-0.1417-0.37014-0.6564-1.4832-1.0898-1.5469 0-0.11683-0.6579-0.1785-0.793-0.1875-0.8519-0.0603-1.4526 0.97929-1.541 1.2012-0.2245 0.55749-0.4293 1.9816-0.416 2.0977 0.07 0.63006 0.6212 0.43799 0.7109 0.73437 0.2631 0.84783-5e-4 1.4078 0.061 2.0684 0.07 0.69362 0.545 0.46788 0.6093 0.6836 0.109 0.36801 0.2373 0.77764 0.3008 1.1602 0.1206 0.72785-0.5509 1.3948 0.4864 1.8965 0.1731 0.0805 0.6139 0.20552 0.6211 0.21875 0.06 0.0805 0.3393 1.3253 0.371 1.4473 0.06 0.27001-0.06 3.6273-0.1738 3.9316-0.1338 0.35687-0.1017 2.0102-0.07 2.4336 0 0.12412 0.457 0.98158 0.584 1.3613 0.06 0.13092-0.3403 1.2284-0.25 1.4023 0.06 0.11599 0.1725 0.54209 0.332 0.63281 0.1659 0.10099 1.3486 0.63033 1.4102 0.70899 0.081 0.10102 0.7053-0.24033 0.916-0.17188 0.1739 0.0603 0.5559 0.63731 0.582 0.68164 0.1089 0.19771 0.1721 1.5539 0.1778 1.6348 0 0.17847-0.2674 1.0714-0.2735 1.2676 0 0.0707 1.8605 3.8806 1.9258 3.9238 0.5192 0.34186 0.8051 0.0804 1.1426 0.22852 0.1209 0.0603 0.5429 0.0909 0.6992 0.15039 0.1791 0.0706 0.8148 0.74936 1.0195 0.95703 0.2313 0.24095-0.1739 0.30097-0.1425 0.45703 0 0.12794 0.7167 1.0449 0.7167 1.0449 0.199 0.15534 0.5585-0.3993 0.9024-0.25 0.2045 0.0907 0.4868 0.84543 0.5957 0.85352 0.4667 0.0302 1.8306-8e-3 2.0234 0.0801 0.3903 0.17242 2.4664 2.1723 2.6133 2.3086 0.1867 0.17545-0.5011 0.67483-0.373 1.0977 0.06 0.18141 0.7306 1.1402 0.6972 1.2715-0.1009 0.38213 0.806 0.83821 0.9844 0.76563 0.1009-0.0505 0.8536-0.091 0.8828-0.0391 0.1006 0.14635 0.3592 0.98359 0.1797 1.2324-0.07 0.10185-1.0118 0.5665-0.9394 0.75 0.2872 0.7218 1.9469 1.068 1.5293 1.1738-0.5565 0.14121 0.5064 2.2415 0.455 2.5274-0.081 0.44966-1.8453 1.1606-1.9062 1.3359-0.1032 0.29143-0.3594 1.4551-0.3145 1.541 0.1735 0.32175 0.8386 0.49621 0.8457 0.61719 0 0.36884-1.4819 1.3782-1.5312 1.5664-0.06 0.13825-1.802 1.7956-1.9531 1.9941-0.1735 0.21993-0.8942 0.33972-1.0332 0.4082-0.8924 0.43754-1.1886 0.95304-1.1817 0.98633 0.06 0.16218 0.6267 0.27041 0.7305 0.45898 0.06 0.12197-0.8112 2.4722-0.8848 2.6856-0.081 0.22677 1.5637 0.68098 0.9512 1.4004-0.06 0.0805-0.8133 0.67448-0.9473 0.71484-0.2872 0.0907-0.5763-0.18897-0.8554-0.0605-0.7802 0.36884-0.9838 1.3599-1.0528 1.5488-0.2181 0.58471 0.3064 1.3015-0.418 1.8164-0.3004 0.21566-1.0881-0.51162-1.8535-0.0801-0.1923 0.11082-1.4389 0.87488-1.5117 0.97266-0.243 0.32564-0.3016 1.5741-1.2344 1.9492-0.7328 0.29442-1.1148 0.10193-1.8457 0.27734-0.1867 0.0384-0.2587 0.71591-0.3554 1.0527-0.1599 0.54842-1.5654 1.3196-1.8496 0.37109-0.06-0.0302-1.3739-0.3768-1.4961-0.70117 0-0.0706 1.8683-0.73638 1.5937-1.8008-0.1088-0.43148-0.1032-0.44842-0.4765-0.69336-0.602-0.39498-1.2209 0.17025-1.502 0.4082-0.9366 0.78934-1.0301 0.44022-1.043 0.29687-0.06-0.40951-0.9718-0.62981-1.3047-0.59961-0.4868 0.0384-1.2794 0.56952-1.289 0.59571-0.1988-0.10103-0.526-0.13438-0.6348-0.33594-0.06-0.0907 1.0052-2.0991 0.7129-2.4023-0.1345-0.14121-0.3348-0.259-0.5137-0.33985-0.622-0.28112-1.3591 1.199-1.8242 0.8086-0.3398-0.28415 0.1293-1.2896 0.082-1.5059 0-0.0384-0.1033-1.6916-0.2265-1.8984-0.082-0.13308-0.2551-0.15761-0.4024-0.17383-0.7702-0.0805-1.1562 1.0488-1.1562 1.0488l-0.061 0.0684c-0.3261 0.47585-0.2175 1.4505-0.6425 1.7871-0.1531 0.11811-0.5368 0.47237-0.7051 0.20312-0.5061-0.80752-0.1991-1.7972-0.6777-2.002-0.8388-0.36208-1.2829 0.19343-1.8223-0.30078-0.3715-0.33982-0.059-0.68606-0.2285-1.0684-0.1735-0.32648-0.7855-0.92578-1.1211-0.92578-0.08 0-0.4946 0.4152-0.5078 0.4707 0 0.0706-1.6012 2.6567-1.7754 2.6641-0.493 0.0215-1.9075-1.4601-1.8282-1.5527 0.1733-0.20368-0.7819-0.429-0.9179-0.36328-0.9951 0.48992-0.3389 1.5578-0.3965 2.3476 0 0.27516 0.8739 1.7953-0.4219 2.2168-0.1659 0.0505-0.3077-0.0379-0.4551-0.10351-1.1131-0.51518-0.4747-2.2558-1.8339-1.8457-0.2499 0.0706-0.5457 1.4222-0.9239 1.5703-1.005 0.39497-0.8177-2.0617-2.1718-1.877-0.5001 0.0706-1.0511 0.27951-1.1504 0.83203-0.06 0.30169 0.2129 0.96426-0.078 1.0234-0.9627 0.19771-1.66-1.543-2.0546-1.5176-0.4549 0.0302-0.8432-0.63817-1.543-0.56054-0.6794 0.0706-2.836 0.85545-2.836 0.85547-0.3269 9e-3 -0.7184 0.0292-1.041-0.01-0.3329-0.0505-4.1648-1.6021-4.4394-1.0059-0.3141 0.68248 1.076 1.6027 0.6211 2.1113-0.7198 0.80551-2.379-0.22896-2.9024-0.83985-0.3076-0.35686-0.7095-1.4843-1.0683-1.6406-0.2313-0.10186-1.741 0.5677-2.0645 0.61914-0.09 9e-3 -1.9227-0.32012-2.123-0.38086-0.282-0.0907-0.9444-0.44182-1.1348-0.67773-0.1032-0.12579-1.1615-1.5912-1.1953-2.1973 0-0.53229 0.4279-1.7887 0.293-1.9336-0.081-0.0805-0.2849-0.0805-0.3887-0.0703-1.2713 0.14423-0.4428 1.2732-1.9727 0.93164-0.5766-0.12793-1.5438-1.1797-1.8593-1.0234-0.1988 0.10102-1.6052 0.0491-1.6973-0.36719-0.081-0.33891-0.778-0.19468-0.9746-0.0371-0.4548 0.37187-0.5833 0.85449-0.3086 1.2754 0 0.0505-1e-3 0.65633-0.082 0.7168-1.3406 0.88112-1.8193-0.24778-2.8887-0.20117-0.6271 0.0302-0.8603 1.0011-1.5527 0.56054-0.6997-0.44461-0.6543-0.8253-0.6543-1.5547 0-0.73496-0.9298-0.94348-1.5215-0.81446-0.3081 0.0706-1.8142 0.0424-2.2285 0.25586-0.3141 0.16437 0.5765 1.6308-0.2754 1.6758l-0.4746 0.0293c-0.8257 0.0302-3.6766-1.9955-4.4668-1.8164-0.9821 0.2208-1.1743 0.50586-2.3457 0.50586-0.276 0-0.7629-0.27597-1.0274-0.36328-0.2494-0.0805-0.7356-0.50035-0.4414-0.83203 0.4488-0.5061 1.4006-0.49368 1.8809-0.72656 0.07-0.0302 0.5053-0.47745 0.6464-0.63672 0.6462-0.73089-0.6105-1.963-1.7109-1.3887-0.3454 0.1793-0.7643 0.41294-1.0937 0.63867-0.071 0.0505-0.6197 0.99437-1.2227 0.33008-0.1285-0.13905 0.2944-1.4812 0-1.8027-0.7592-0.76319-1.3227 0.60202-2.0176 0.36914-0.8004-0.2683-0.059-1.2355-0.1523-1.4766-0.1867-0.50909-2.1522 0.63425-2.3711 0.65039-1.5378 0.10783-0.8903-1.3408-1.291-1.6289-0.7098-0.51214-0.9732 0.31735-1.2051 0.50976-0.2944 0.24095-1.3847 0.84698-1.4258 0.86914-0.116-9e-3 -0.1338-1.6014-0.2558-1.6328-0.6342-0.16218-0.9609 0.36139-1.1524 0.39258-0.7954 0.13307-1.0084 0.3349-1.6738-0.29492-0.1285-0.12579-0.3845-0.95135-0.3086-1.0703 0.4738-0.77119 1.2164-0.49225 1.3515-0.83398 0.1094-0.10481 1.5419-2.0007 2.9317-2.4648 0.4488-0.14932 2.9187 0.297 2.7773-0.82617-0.1988-1.5543-3.0983-0.96523-4.4765-0.82812-0.1285 9e-3 -0.4927-0.10755-0.6016-0.19531-0.2872-0.22768 0-1.6625 0-2.0684-0.621-0.80954-2.2948-0.10008-2.6777-0.1211-0.1418-0.14422 1.5587-2.086 0.7597-2.4043-0.6402-0.25505-1.9528 0.21125-2.291 0.082-0.2237-0.42843-0.2-1.0851-0.6152-1.418-0.6341-0.50508-2.6109-0.68523-2.9004-1.4629-0.1285-0.34492 0.5685-0.85464 0.7832-1.0879 0.116-0.13009 2.295-0.46867 2.7481-0.84571 0.2313-0.19468 0.4873-0.95407 0.4492-1.1113-0.1796-0.68758-2.25-0.49219-2.25-0.49219-0.2102-0.38298-0.695-1.9293-0.4883-2.5274 0.1032-0.28414 0.4746-0.75344 0.2441-1.168-0.2819-0.5091-1.4149 0.0225-1.5508 0.0312-0.8367 0.0384-1.9845 0.18693-2.6269-0.54493-0.1009-0.1121 0.398-0.93637 0.3281-1.4863-0.1009-0.14208-1.6774-0.18742-2.0488-0.40821-0.3971-0.23576-0.1971-1.0986-0.7734-1.1582-0.7602-0.0805-2.6003 0.7054-3.0352 0.57031-0.2366-0.0706-0.36-0.27408-0.5781-0.36914 0-0.0603-0.1089-1.1334 0.1035-1.2988 0.4869-0.39196 1.2499 0.12756 1.4004-0.82617 0-0.13096 0.062-0.6665-0.059-0.93164-0.3844-1.1177-1.8934-0.53986-2.6172-0.17187-0.4353 0.22166-0.7522 0.67487-1.2051 0.89062-0.8136 0.38813-1.4475 0.33176-2.1679 0.95899-1.1088 0.96576-1.8032 2.1924-2.379 3.5195-0.1217 0.28414-0.5561 2.9262-0.8203 3.1523-0.4163 0.16947-0.8578 0.42233-1.2988 0.12109-0.1398-0.4446-0.7158-2.052-0.9023-2.334-0.614-0.92648-0.9703-0.39408-1.3496 0.24609-0.1011 0.16948-0.3786 0.5834-0.3985 0.75782-0.06 0.43249 0.2946 3.8193 0.25 4.0273-0.06 0.25504-0.7207 0.40222-0.9375 0.4082-0.1867 9e-3 -0.3525-0.0303-0.5254-0.11523-1.7209-0.84078-0.5426-1.9772-1.0722-2.5469-0.5636-0.60388-1.191-0.58718-1.834-0.98437-0.4036-0.24903-1.7362-1.5654-2.125-1.8398-0.6523-0.45967-2.0262-0.63117-2.1953-0.68359-0.6665-0.20156-1.2571 0.65964-1.4063 1.207-0.6543 2.4096 4.0973 1.1074 3.9531 2.8984 0 0.13992-0.3718 0.60895-0.4746 0.68555-0.6936 0.50609-3.1137 3.1672-3.1035 3.2559 0.07 0.61595-1.9956 1.1423-2.5215 1.4609-0.3647 0.2199-0.6612 0.46917-1.1152 0.48633-1.2053 0.0384-1.6429-2.3732-2.9649-1.6973-0.1659 0.0907-0.2826 0.32175-0.3593 0.48828-0.621 1.3955 1.4099 2.2343-0.6719 3.4258-0.2752 0.51115-0.6823 1.4634-0.6914 1.6406-0.6028 0.89623-2.3993-0.43752-2.7344 0.4668 0 0.0706 0.8289 2.4056 1.2012 2.9902 0.4104 0.64218 1.0252 1.1493 1.2109 1.9395 0 0.11599-0.3575 1.6971-0.4414 1.7695-0.3708 0.3205-1.401 0.0488-2.2734 1.6289-0.5443 0.98288 0.1275 2.327-0.8457 3.125-0.06 0.1836-0.2374 0.83434-0.1289 0.97851 0.2056 0.27942 0.8966 0.34277 0.6113 0.7793-0.1988 0.3064-1.1759 0.60665-1.5801 1.0059-0.8015 0.79541-0.6152 1.4537-1.1035 2.3125-0.2423 0.43253-1.5714 1.9634-1.5996 2.2695 0 0.29828 0.3571 0.9374 0.3887 1.3711 0.081 1.1512-0.65 2.0804 0.061 3.2344 0.1988 0.33891 1.9839 1.4935 2.1426 1.6055 0.2241 0.15915 0.3398 0.95678 0.2559 1.2012-0.7148 2.0817-2.3456 1.6544-3.9532 1.8164-0.2626 0.0302-0.647-0.12524-0.9101-0.14062-0.3141-0.0215 1.9958-1.5582 2.291-1.7676 0.2872-0.20281-0.2813-0.77056-0.6016-0.89453-0.2177-0.0908-1.3053-0.0374-1.541 0.0312-1.0072 0.31238-1.3288 1.1572-2.3945 1.4707-0.4294 0.12412-1.6483 0.27183-1.9141 0.63867-0.5252 0.7279 0.3773 1.9114 0.166 2.1348-0.3902 0.40524-1.7427-0.54719-2.2871 0.0527-0.9668 1.0725 0.1653 2.1811-1.9219 3.4707-0.5252 0.32568-1.8359 1.256-1.996 1.8398-0.081 0.2722-0.3995 1.5069-0.4571 1.8887-0.081 0.45972 0.1598 1.3676-0.166 1.7402-0.9375 1.0868-2.9538-0.26665-3.9434 3.4062-0.1217 0.44362-0.1717 1.962-0.248 2.1406-0.1531 0.36802-1.5436 0.0697-1.8242 0.37305-0.2298 0.25504 0.8639 1.4393 0.5625 1.9277-1.3763 2.2334-3.2287 1.389-4.7656 2.4395-0.9123 0.623-0.3899 1.4223-1.2247 1.9023-0.8115 0.46472-1.5903 0.27373-2.4902 0.98828-1.2662 1.0071-0.8307 1.8781-3.0039 2.8613-1.4 0.6331-3.1282-0.21837-3.5117 0.11328-0.071 0.0593-0.2732 0.42244-0.4531 0.79102 1.2562 0.82691 2.4267 1.6982 3.289 2.5605 3.5355 3.5355 5.4174 6.354 9.5449 7.7774 5.1266 1.7678 5.0982 6.2962 9.0157 6.541 5.6568 0.35354 7.0711 6.1883 8.6621 7.7793s1.0603 3.1803 2.8281 6.1856c1.7678 3.0052 0.5296 4.2431 5.6563 4.4199 5.1264 0.17677 6.895 0 10.607 0 3.7123 0 4.0658-1.9448 9.0156 2.8281 4.9497 4.773 9.7235 5.3044 10.607 8.4863 1.0506 3.7819 3.3572 5.3022 5.4785 10.252 2.1215 4.9498 1.7625 7.2005 6.1875 6.7187 2.3008-0.2505 5.0558-0.35411 8.8614-2.1719 0.9506-0.30206 1.648-0.42572 2.623-0.46094 3.4194 0.12764 5.333 0.56759 8.6251 0.58988 3.1696 0.0952 6.7253-0.0952 9.9746-0.18555 2.3597-0.0656 3.8649-0.43698 5.8027-0.95313 1.2794-0.34078 2.9116-0.55365 4.7441-0.72656 6.846-0.54096 10.394-0.90606 15.457-1.1914 2.9139 0.0241 4.9413 0.5982 7.0215 2.4473 3.182 2.8284 1.5912 5.4804 6.8945 6.541 1.692 0.33839 2.9526 0.71114 4.3145 1.0859 7.3856 3.0276 13.738-1.3056 18.98-3.5078 1.4153-0.53684 2.7669-1.0142 3.9297-1.291 3.7122-0.88388 8.6616-2.7e-4 12.904 2.4746 4.2425 2.4749 6.0095 1.0609 8.8378 6.8945 2.8286 5.8336 3.0065 7.4244 6.3653 10.783 3.3588 3.3588 8.3083 6.7176 11.137 7.9551 0.1254 0.0548 2.4912 1.4224 2.9687 1.6836 0.1461-0.20223 0.283-0.41236 0.4649-0.58789 0.2105-0.20583 0.4918-0.38532 0.7187-0.58008 0.081-0.0603 0.5195-0.4388 0.5508-0.49023 0.2559-0.39411 0.1911-0.7923 0.2285-1.2227 0-0.19684 0.1055-0.41497 0.1055-0.60937 0-0.99504-1.2373-2.5174-1.9609-3.1484-0.2499-0.21951-0.6768-0.38459-0.8672-0.67383-0.1032-0.16131-0.1663-0.4901-0.2442-0.68164-0.4999-1.1943-0.7205-2.6694 0.4239-3.627 0.3903-0.32652 2.0266-0.31206 2.8027-0.76563 0.621-0.36374 1.1341-1.0533 1.8086-1.3438 0.6936-0.29824 1.9044-0.84744 2.623-0.97851 0.5828-0.107 1.3357 0.0311 1.9102-0.0899 0.3141-0.0706 1.0346-0.456 1.4238-0.58203 0.5768-0.18659 1.1563-0.19518 1.7324-0.33594 1.6405-0.40223 2.9608-1.4999 4.4825-2.1387 0.8709-0.36805 2.5067-0.71375 3.1562-1.1602 0.7308-0.50203 1.5092-1.0501 2.1406-1.6816 0.4224-0.42535 0.6341-0.97859 0.9668-1.4668 0.4558-0.66738 0.9774-1.1273 1.5313-1.6816 0.3971-0.3941 0.6822-0.93959 1.0703-1.3438 0.5121-0.53528 1.2657-0.68442 1.7813-1.2227 0.4428-0.46373 0.9555-1.3988 1.5781-1.5898 0.7259-0.22167 1.691-0.21809 2.4453-0.27539 0.6976-0.0505 1.5735-0.35038 2.2656-0.51953 0.3205-0.0805 0.7221-0.32914 1.0469-0.33594 0.4668-9e-3 1.019 0.18076 1.5 0.21289 0.9859 0.0706 2.9007-0.75003 3.5898-1.4668 0.1924-0.20156 0.3585-0.49787 0.5371-0.72265l0.1016-0.13282c-0.07-0.29143 0.2814-1.0385 0.3965-1.3242 0.4353-1.0433 0.651-2.0437 1.666-2.7402 0.4237-0.29053 1.0464-0.45023 1.3731-0.85547 0.5694-0.70567 0.6356-1.6439 1.0722-2.3848 0.2102-0.35475 0.5246-0.58047 0.5821-1.0391 0.06-0.50507-0.3206-1.1503-0.2813-1.6484 0.06-0.42151 0.2812-0.97896 0.377-1.4082 0.218-0.13905 1.0519-0.96137 1.1972-1.1621 0.06-0.0706 0.06-0.11761 0.08-0.19335 0.3398-0.77425 0.3403-1.6691 0.6543-2.4648 0.3005-0.76114 1.1217-1.1819 1.2734-1.9883 0.1535-0.81355-0.4168-1.4905-0.1992-2.291 0.06-0.18228 0.443-1.021 0.5567-1.1602 0.06-0.0706 1.2139-0.8898 1.3222-0.94727 0.3005-0.16048 2.4522-0.79387 2.752-0.76562 1.8912 0.18141 1.8551 2.6039 3.5156 2.7207 0.3402-0.0302 0.7505-0.31997 0.918-0.61328 0.2237-0.3941 0.2561-0.92841 0.4297-1.3438 0.3329-0.79943 1.4927-3.3076 2.0351-3.8496 0.7783-0.7783 1.8367-1.265 2.8281-1.6816 0.6795-0.28543 1.4839-0.39079 2.1661-0.67188 1.0093-0.41336 1.8532-1.1968 2.8281-1.6816 0.7058-0.35176 1.3952-0.55599 2.1113-0.85742 0.5061-0.21184 1.002-0.49849 1.502-0.70312 0.1734-0.0706 0.3904-0.0804 0.5566-0.15235 0.1735-0.0805 0.3128-0.22509 0.4863-0.30468 0.2045-0.10103 0.9033-0.24415 1.1211-0.24414 1.2451 0 2.5098 0.34957 3.6426-0.42774 1.3251-0.90933 0.6951-2.9134 2.5215-3.1465 0.2056-0.0302 0.4299 0.0302 0.6348 0 0.9778-0.10103 1.8708-0.57001 2.8789-0.64258 0.8326-0.0603 1.6636 0.0813 2.4941-0.1211 0.1924-0.0505 0.3637-0.17077 0.5566-0.21484 0.984-0.23108 2.104-0.24219 3.1094-0.24219 0.1924 0 0.4806-0.0302 0.6621 0 0.6453 0.11894 1.2705 0.70097 1.961 0.39649 0.3205-0.57059 0.4988-1.1911 0.7871-1.7715 0.2759-0.55646 0.6879-1.0555 0.8906-1.6523 0.2691-0.79439 0.3023-1.9536 0.7148-2.6582 0.1988-0.34186 0.5255-0.59046 0.7129-0.97657 0-0.57465-0.074-1.2804 0.078-1.8359 0.1659-0.61595 0.7045-1.1389 0.8437-1.7422 0.2691-1.1757-2.0435-3.4222-2.625-4.5234-0.1735-0.33381-0.2372-0.659-0.4805-0.97656 0.06-0.90629-0.1022-1.9388-0.1797-2.8418-0.1285-1.3747 0.059-2.9412 0.1524-4.3105 0-0.39329-0.1035-0.73477-0.1035-1.0996 0-0.5293 0.2943-1.528 0.5566-1.9863-0.1338-0.17764-0.5193-0.67502-0.5898-0.85547-0.1735-0.4476-0.4532-2.4078-0.2989-2.8418 0.1032-0.31536 0.4595-0.7319 0.6329-1.0391-0.1531-0.45672-0.4993-1.0159-0.5821-1.4688-0.1598-0.84279 0.461-1.6577 0.461-2.5059 0-0.35089-0.1998-0.7689-0.1797-1.1016 0.06-0.76217 0.7183-1.1463 0.7656-1.8945 0.3141-0.18361 0.5952-0.55613 0.7383-0.88477 0.3269-0.76418 0.1011-1.1664 0.2051-1.8633 0.1988-1.2554 1.0412-2.5259 1.5293-3.6973-0.1032-1.205-0.678-1.0808-0.379-2.752 0.6978-1.039 2.0285-1.4432 1.7833-3.0254l0.3593-0.42773c0.3406-0.0302 0.7487-0.31911 0.916-0.61329 0.4237-0.73794 0-1.607 0.3594-2.4453 0.4036-0.97386 1.1614-1.7248 1.502-2.7207l-0.2051-0.48828c-0.6402-0.74903-2.0371-0.0813-3.1035-0.94727-0.863-0.70063-0.9344-1.937-1.8614-2.5644-0.6732-0.45667-1.9816-1.001-2.8007-1.4688-0.3527-0.20281-0.8193-0.31494-1.1465-0.54883-1.1389-0.81253-3.211-4.0322-3.211-5.4394 0-0.1934 0.083-0.41559 0.1055-0.61133 0.06-0.55646 0.06-1.2438 0-1.8027-0.06-0.7067-0.4758-1.353-0.5918-2.0488-0.06-0.41723 0.1998-2.1024 0.3086-2.5664 0.3659-1.5988 1.2471-2.7838 1.7813-4.2793 0.3205-0.90025 0.071-2.072 0.1992-3.0566 0.1338-0.97081 0.6786-2.0699 1.0703-2.9648 0.874-0.623 1.9523-1.1685 2.7246-1.8926 0.5898-0.54944 0.8122-1.6434 1.0703-2.3828 0.282-0.80753 0.8595-1.4636 1.1445-2.2637 0.2298-0.63914 0.1747-1.3725 0.3848-1.9844 0.06-0.10102 1.5668-2.4408 1.6309-2.5059 0.3903-0.39026 0.7434-0.1868 1.1718-0.27539 0.3266-0.0706 0.6599-0.40329 1.0196-0.42969 0.9406-0.0706 2.7346 0.92602 3.541 0.73243 0.7308-0.17545 1.1897-1.4082 1.5273-2.0156 0.4294-0.77829 1.2603-1.4876 1.6036-2.291 0.3903-0.90933 0.1804-2.1492 0.2832-3.1172 0.06-0.63208 0.2855-1.2117 0.2285-1.8652-0.091-1.0001-0.6908-1.5086-0.5821-2.6894l0.8653-0.67383c0.07-0.21785 0.3978-1.0724 0.5136-1.2226 0.493-0.6563 2.267-0.71922 2.9786-0.51758 0.5897 0.16732 1.0707 0.66602 1.6562 0.88476 1.5498-0.10102 1.3678-2.6462 1.7559-3.7598 0.2309-0.65527 0.6259-0.97064 0.9414-1.5586l-0.3848-0.39843c0-0.39711 1e-3 -0.82873 0.082-1.2207l0.4356-0.33789c0.5695 0.0908 1.2546-0.0798 1.6543-0.51953v-0.48828c-0.1867-0.50508-1.0252-0.77913-1.4766-1.0078l-0.1992-0.49024 0.4102-0.42773c0.9365 0.0805 1.1796-0.84996 1.7324-1.373l0.4609-0.125c0.5061 0.26699 1.2842 0.68375 1.8574 0.42969 0.06-0.0706 0.3459-0.3683 0.3848-0.42969l0.1543-0.40625c0.1856-0.50002 0.3142-1.044 0.5566-1.5195 0.1342-0.25803 0.3002-0.44252 0.4102-0.7207l0.1543-0.40625c0.1009-0.74201-0.526-1.4186-0.1289-2.2012l0.8125 0.18359c0.2181 0.28112 0.5578 0.55896 0.8652 0.73438l0.5137-0.0293c1.1405-1.043 0.679-1.8373 0.918-2.3848l-0.2813-0.45703c0.2245-0.29038 0.52-0.57817 0.8164-0.79492 0.5696 0 1.3282-0.0383 1.8828-0.12109 0.4355-0.0707 0.7171-0.25812 1.1973-0.18555 0.6865 0.36797 1.1107 1.0425 1.7813 1.4375 0.3261 0.0707 0.8861-0.0311 1.1484-0.24414 0.1988-0.29635 0.3242-0.86992 0.2539-1.2227-0.333-0.39822-0.5426-0.9768-0.459-1.4961 1.2189-1.3 2.3452-0.13834 3.6914-0.39844l0.2305-0.73437c-0.06-0.0707-0.2184-0.4096-0.2305-0.45899-0.081-0.35482 0.062-0.78724-0.059-1.1602-0.081-0.34981-0.2708-0.62593-0.3086-1.0078 0.1731-0.38113 0.5436-0.64778 0.711-0.98047 0.627-1.2371-0.4169-1.919-0.1797-2.8418 0.2056-0.29235 0.5026-0.58831 0.7929-0.79297 0.5768-0.0102 1.2253-0.30088 1.7051-0.61133 1.0842-0.70267 0.8509-0.96683 1.5547-1.6484 0.4104-0.39822 0.9686-0.52466 1.4258-0.82812 0.5634-0.37402 2.6565-2.0402 2.9531-2.5352h0.6094c0.1739 0.2863 0.2752 0.70859 0.2812 1.0391-0.2872 0.64419-0.8836 1.8071-0.8925 2.4766l0.209 0.48828c0.493 0.36797 1.2816 0.36105 1.8574 0.21289l0.3086-0.51953c-0.1032-0.34791-0.08-0.84854 0-1.1914 0.6452-0.63008 1.6867-1.1449 2.1894-1.834 0.6585-0.9033 0.5693-2.8776 2.0625-2.9356 0.3141 0.1643 0.6163 0.38543 0.8926 0.61328l0.7109 0.0605c0.3141-0.0806 0.7293-0.39661 0.8926-0.67383v-0.62109c-0.2812-0.7178-0.885-0.69724-1.4512-0.97852-0.2494-0.12098-0.6848-0.53073-0.8906-0.73438l0.1016-0.67187c0.3273-0.52222 0.913-0.59361 1.2988-1.0098 0.3269-0.35081 0.7762-1.3987 0.8145-1.8633 0.06-0.53633-0.2685-1.0738-0.1778-1.6816l0.4356-0.30468c1.1567 0.11179 0.687 1.4124 2.4843 1.8437 0.1793 0.0504 0.7339 0.0911 0.9024 0.0508 1.231-0.28827 1.167-1.7388 1.9355-2.1074 0.5133-0.11595 2.9304 9e-3 3.3614 0.27344 0.4546 0.27421 0.7291 0.90412 1.2734 1.1309 2.0276 0.8448 4.2872-0.97997 5.9082 1.4961 0.2559 0.39216 0.6037 0.96987 0.6895 1.4355 0.1209 0.64721-0.4618 1.841-0.5332 2.6309l0.3847 0.39649h0.6621c0.4295-0.47886 1.0339-0.43094 1.5547-0.70313 0.327-0.1714 0.5674-0.47127 0.9395-0.60937 0.3587-0.13206 0.7802-0.1261 1.1465-0.21485 1.0796-0.25908 1.9332-0.48605 2.7011-0.93164l-0.5058-1.3106-0.8262-0.59961c-0.1338-0.30047 0.08-0.955 0.2227-1.2129-0.7037-1.1041-1.7899-2.9543-1.7286-4.2852 0.4294-0.6714 0.8654-1.3394 1.3028-2.0059 0-0.60084-0.1598-1.4186-0.3907-1.9688l-0.4492-0.80078c-0.5898-1.0632-1.1046-1.8035-2.0351-2.6055-0.1161-0.10182-0.1742-0.18106-0.3008-0.26172l-0.5117-0.1582-0.2559-0.08008-0.1738-0.57227c-0.6563-0.13308-2.955-0.21697-3.2735-0.33398-0.7924-0.2914-0.7763-0.64611-1.0371-1.3379-0.1734-0.46576-0.2078-0.84338-0.1035-1.332 0.06-0.26619 0.084-0.54705 0.2266-0.79102 0.2944-0.51314 0.1319-0.65918 0.059-1.2578-0.1735-1.0827-0.6063-0.55881-1.3008-1.6875-0.1209-0.20062-0.2636-0.98312-0.25-1.1387 0.06-0.77324 0-1.5924-0.6504-2.2734-0.4163-0.42441-0.7951-0.96927-1.0684-1.5391-0.733-1.5242 0.062-1.2704-0.2539-2.3965-0.2044-0.78431-1.1761-1.1927-1.1523-2.0254 0-0.71275 0.7091-1.0661 0.6758-1.7695 0-0.16528-0.1189-0.9767-0.2735-1.3184-0.2944-0.63814-2.8025-0.73042-3.3828-0.48242-0.1292 0.05038-1.2589 1.3663-1.4824 2.2539 0 0.09071 0.6529 1.3732 0.7266 1.5137 0.4031 0.7793 1.3874 2.0195 0.5664 2.8711-0.2873 0.29741-1.6886 0.86948-2.4317 0.79688-0.3076-0.03099-1.7923-0.91387-1.9824-1.1289-0.2494-0.28638-0.4741-0.66068-0.5508-1.0371-0.081-0.35085 0.1031-1.9404 0.3008-2.0918 0.1603-0.12302 0.4025-0.17608 0.5762-0.29102 1.3334-0.87104 0.9941-1.5045-0.2188-2.1719-0.3004-0.1643-0.3781-0.29307-0.7539-0.31836-0.8276-0.05034-1.8367 2.3157-3.039 1.5742-0.7923-0.48895-0.2276-0.82125-0.4141-1.459 0-0.06043-1.2809-1.6131-1.4121-1.7656-0.5122-0.59178-2.1675-1.2901-2.959-1.9277-0.3903-0.31453-1.0264-0.59804-1.3262-0.94727-0.06-0.05749-1.1265-2.3279-1.1855-2.4805-0.1867-0.48874-0.2151-1.0606-0.5801-1.459-1.0371-1.1393-2.0604-0.44561-3.039-1-0.7209-0.40858-0.378-1.4539-0.8165-2-0.314-0.38884-1.0547-0.8503-1.0019-1.4453 0.092-0.9919 0.969-1.74 0.7441-2.7129-0.2691-1.1613-1.471-1.9241-1.334-2.5566 0.1476-0.67172 0.6521-1.0152 0.7227-1.2676 0.2052-0.73281-0.4275-1.3145 0.4121-2.5195 0.3708-0.53612 1.2613-0.99367 1.2774-1.6699 0-0.62836-0.716-0.98589-0.4922-1.7012 0.116-0.37519 0.5969-0.52601 0.8379-0.78711 0-0.0064 0.7248-1.2227 0.8125-1.6699 0.153-0.80851-0.1705-0.95149-0.3614-1.5781-0.5635-1.8017-1.1836-0.97234-2.459-0.77344-0.4223 0.06648-0.8743 0.06445-1.3046 0.06445-0.8237 0-1.4927-0.33921-2.2754-0.54297-0.863-0.22481-1.9924-0.7968-2.8789-0.53711-0.5636 0.1652-1.4704 1.3739-2.1661 1.1523-0.4547-0.14408-0.6935-0.57242-1.0781-0.79492-0.5695-0.33048-1.3654-0.04828-1.6562-0.26953-0.1338-0.10088-0.2827-0.51438-0.3594-0.67578-0.5697-1.2245 1.4378-1.1133 2.0527-1.1016 0.1285-0.07457 0.2772-0.11786 0.3985-0.19726 0.1988-0.12616 0.5881-0.77312 0.2226-0.89258-0.2181-0.07159-1.5457-0.76731-1.5097-1.1543 0.1031-1.0901 2.5822-1.4553 2.7148-2.1543 0.2313-1.201-1.8018-1.2461-2.0293-1.4141-0.3454-0.25362-1.2406-0.24273-1.6582-0.19922-1.5507 0.16073-3.1249 2.2173-4.2598 2.0508-0.2626-0.03919-2.589 9.6e-4 -2.8222 0.0078-0.6967 0.01916-0.9213-0.69246-1.2969-0.74609-0.4294-0.06355-0.6745 0.34267-1.0684 0.43555-0.4737 0.11143-2.4788-0.41576-2.9687-0.60156-1.9956-0.75751-0.1741-3.0124-0.334-3.4023-0.052-0.08492-0.1358-0.17504-0.2266-0.21094zm28.541 88.209c-0.7896 0.48183-1.4225 1.6483-1.0703 2.5664 0.2445 0.26423 0.4993 0.52001 0.7637 0.76367l0.5859 0.0605 0.3574-0.42578c-0.057-0.5219 0.2246-1.2646 0.1524-1.6211-0.043-0.20027-0.1915-0.45314-0.2637-0.65234-0.1024-0.27821-0.2474-0.54146-0.5254-0.69141zm-391.09 132.7c-2.2808-0.37915-1.5709 1.94-2.1914 2.3652-0.4929 0.33982-2.4996-0.57982-3.5332-0.0312-0.9426 0.50204-1.5126 2.0472-2.3105 2.9062-0.5565 0.60285-1.1221 0.79813-1.7676 1.2441-0.3455 0.23796-1.7797 1.2276-2.1543 1.6094-0.3455 0.35475-0.6131 0.70758-0.7109 1.2051-0.3459 1.684 4.4408 0.36895 4.7597 2.6484 0.06 0.3094 0.06 0.63821-0.07 0.9336-0.06 0.13523-0.6601 0.60156-0.6601 0.60156-0.8216 0.17764-1.8732-0.35588-2.7813-0.2832-1.2336 0.10102-2.2916 0.85742-3.543 0.85742-0.4929 0-0.5905-0.1017-0.8808-0.47266-0.282-0.35773-0.5245-1.0803-0.8028-1.3379-0.2759-0.25289-0.8394-0.24247-1.1796-0.17187-0.4294 0.0907-0.7756 0.32195-1.1133 0.58398-1.8509 1.4404-0.3976 2.9211-1.5586 4.5801-0.1659 0.2349-0.309 0.47789-0.5645 0.62305-1.9169 1.089-3.8075-1.7979-6.0683 1.0762-0.2181 0.27428-0.5187 0.5556-0.67 0.86914-0.06 0.1211-0.4612 2.2218-0.4804 2.4863 0 0.26101 0.2689 0.59752 0.1 0.78906-0.091 0.10099-0.3144 0.17428-0.4356 0.22266-0.8499 0.33891-0.7025-0.11586-1.2734-0.3418-0.403-0.16048-1.448-0.26798-1.7266 0.14062-0.06 0.10103-0.3605 0.64252-0.3476 0.73829 0.1338 1.0558 1.8373 2.8442 0.4121 3.7226-0.3904 0.24012-0.831 0.26098-1.2481 0.0899-1.2751-0.5394-1.6842-2.097-2.666-2.4434-1.1636-0.41038-2.5041 1.4664-3.7363 1.2305-1.4864-0.28416-2.0024-2.9278-4.1211-1.6035-1.9797 1.2377 0.1 2.84-2.0254 4.123-1.2131 0.7329-4.2273 0.21562-6.0058 0.99414-1.5 0.6563-2.6719 1.5157-3.9629 2.4922-0.333 0.25425-0.6291 0.56659-1 0.7793-2.28 1.3058-4.5867 2.2566-7.0352 3.1914-1.0427 0.39711-3.0334 1.1545-3.6777 2.1113-0.2105 0.31664-0.1948 0.56286-0.2129 0.92578-0.06 0.68552 0.3141 1.1762 0.8047 1.6309 0.5373 0.496 2.2135 0.75216 2.4883 1.2383 0.7489 1.3266 0.421 3.0414-1.3985 2.9375-0.9285-0.0505-2.1373-1.2419-3.0019-1.3008-1.3399-0.0908-3.4375 1.7383-4.4512 1.7012-0.6745-0.0302-2.7006-0.31795-2.8223-1.168-0.06-0.39839 0.7904-1.3522 0-1.7773-0.9808-0.53028-1.837 1.6954-2.1738 2.2617-0.1867 0.30554-1.4574 2.2567-1.8398 3.0098-0.4547 0.89221-0.6525 0.3363-1.2696 0.81641-0.4667 0.36585-3.854 2.8255-3.9551 2.8711-0.6028 0.27424-2.6841 0.77766-2.9609 0.83008-0.869 0.16645-1.9953 1.2943-2.4238 2.0469-0.4228 0.74197-0.1468 1.5289-0.2363 2.3047-0.06 0.35176-0.8828 2.3823-1.2422 2.666-0.5122 0.40224-5.7804 2.6497-6.5567 2.8906-0.7077 0.21993-1.4486 0.0725-2.1621 0.41016-1.0761 0.50203-1.77 1.6456-2.7793 2.2344-1.2975 0.75707-1.0292 1.3312-1.4883 1.6328-0.4164 0.27514-5.155 2.7636-5.4394 4.0117-0.1092 0.47585-1.9767 3.835-2.1035 3.9356-0.3904 0.30939-1.3021-0.57157-2.3203 0.0898-1.1485 0.74098-1.6133 1.9926-2.5137 2.9688-0.4668 0.50508-1.3584 0.60572-1.9238 1.0664-0.4739 0.38599-2.1064 2.1886-2.3965 2.502-1.1805 1.2752-3.6768 3.8898-3.6953 5.7363 0 0.28842 0.1921 0.83568 0.416 1.0215 0.333 0.27428 0.576 0.33218 1.0234 0.70507 1.159 0.96976 1.193 1.8723 0.8399 3.4238 0.1217-0.27987 0.2381-0.58082 0.291-0.81836 0.6796-3.1273-1.8694-4.439-0.3067-8.0469 0.2056-0.13009 0.5128-0.37374 0.6348-0.59766l0.3887 0.23047c0.8044 2.166 0.1816 3.5778 0.6113 5.2246 1.2867 0.74402 2.7157 1.056 4.1836 1.1816 0.6139 0.0505 1.3723-0.0296 1.9531 0.19531 0.5192 0.2007 1.074 0.74156 1.6563 0.85547 0.2555 0.0505 1.6555 0.0594 2.0859 0.0899l0.3086 0.39843-0.332 0.45703c-0.614 0.26321-1.6268 0.64156-2.293 0.54883-1.8175-0.25205-1.6797-1.8189-4.9063-1.6699-0.3903 0.0215-1.2346 0.11848-1.5644 0.32813-0.071 0.0505-0.6969 0.7456-0.7383 0.82421-0.3398 0.65228-0.8501 3.2256-0.8652 4.0059 0 1.1537 0.4419 2.5503-0.1289 3.6348-1.0299 1.9658-4.4593 0.29948-4.3535 3.0566 0.9083 1.0334 1.9104 1.8133 2.955 2.7227 0.333 1.3864-0.06 2.3993 1.8594 2.5644 0.4678 0.0429 0.8604 6.7e-4 1.3223 0.1543 0.6724 0.62307 0.6909 2.9993 1.7578 3.7285l0.7148 0.0606c0.282-0.15972 0.6257-0.47018 0.916-0.58008 1.5076-0.57362 2.4266 0.67188 3.6915 0.67188 0.1859 0 0.3986-0.11651 0.5839-0.12305 0.2431-8e-3 1.2828 0.13668 1.502 0.21484 0.6926 0.24862 1.2124 1.127 1.9355 1.2539 1.0997 0.19268 2.7172-0.85706 3.6407-0.1543l0.1289 0.54883c-0.6483 1.0946-0.8328 2.4523 0 3.4863 0.6825 0.0808 1.4231 0.23939 2.039 0.54883 0.9255 1.5371-1.0388 3.0335-0.7109 4.7676 0.4427 0.10073 0.9484 0.11848 1.375 0.24414 2.1737 0.64021 1.5725 2.0148 2.3418 2.873 0.5826-0.0809 1.0992-0.34763 1.6797-0.42969 0.891 0.66943 1.0689 1.6549 0.6347 2.6895-0.2052 0.50199-1.3802 1.3477-1.707 2.293-0.1602 0.46367-0.061 0.84878-0.1289 1.2832-0.09 0.54142-0.8109 1.5134-1.043 2.2617 0.2884 0.11527 0.6641 0.45019 0.7891 0.73437 0 0.38593 0 0.77741-0.082 1.1602 0.3707 0.0707 0.8312 0.0907 1.1992 0 0.5564-0.13077 0.5238-0.23389 0.916-0.54688 0.9154-0.73175 2.0189-0.78076 2.9297-1.4688 0.506-0.38075 1.1129-1.1597 1.6797-1.375 1.2515-0.47588 2.7796 0.96691 3.6699-0.30664 0.621-0.89321-0.1216-1.731-0.334-2.627l0.1524-0.58008c0.2241-0.22753 0.7339-0.38025 1.0429-0.36914 1.0402-2.3074-1.4016-2.5448-1.6797-3.7891 0.3844-1.0298 1.6871-1.4442 1.5782-3.1777-0.081-1.3157-2.2857-3.3422-1.2481-4.5234l0.5332-0.1875 0.6641 0.1875c0.6029 0.69861 1.2025 2.8912 1.6797 3.2676 0.7208 0.56752 1.7612-0.0694 2.4453 0.61328 0.2045 0.244 0.3004 0.76598 0.2558 1.0703l0.3067 0.42773c0.4353 0.11146 1.0257 0.23745 1.4785 0.21485 0.1867-8e-3 0.3717-0.11579 0.5566-0.12305 0.4427-0.0344 0.9758 0.0817 1.4258 0.12305 0.3772 0.3727 0.5054 0.91239 0.7383 1.375 0.5192 0.35777 1.4212 0.47794 2.0391 0.45703 1.9375 0.89717 1.4332 4.462 2.6738 5.7461l0.5117 0.18555c0.3205-0.17084 0.7605-0.28806 1.1211-0.30469 0.2873 0.0809 0.7194 0.28486 0.916 0.51953 0.3903-0.51318 0.4018-1.2421 0.6328-1.834l0.4883-0.30469c0.3708 0.1886 0.5269 0.44733 0.791 0.73242 0.7279 0.77832 0.6113 0.91831 0.8633 1.9258l0.457 0.3379c0.5958-0.12701 1.2776-0.34385 1.8829-0.1836 0.7661 0.20183 1.4042 1.3412 1.9101 1.9258 0.308 0.35339 0.7145 0.66411 1.0625 0.97656 1.612 1.4509 2.9979 2.1365 4.9492 0.73243 0.3398-3.1e-4 0.8608 0.20868 1.0938 0.45703 0.6804 1.0865 0.1488 2.2436 1.1211 3.6074 0.2241 0.31332 0.4279 0.5932 0.789 0.76562 1.1988-0.45565 3.2874 0.54708 4.2032-0.61328-0.4228-0.78534-1.2722-1.3962-1.1465-2.3809l0.2539-0.39843c0.6865 0.0601 1.1904 0.44582 1.9101 0.42968 0.9971-0.034 1.8783-0.58191 2.9043-0.55273l0.4805 0.30664c0.07 0.85693-1.2821 1.4781-0.6875 2.75l0.4356 0.24414c0.8375-0.19694 1.3114-0.24491 1.6621-0.043 2.9373-1.8501 6.6907-4.1723 9.5761-4.7734 4.2427-0.88389 6.7656-4.9315 10.783-5.3047 4.7856-0.44451 9.7214-9.368 12.373-11.312 2.6516-1.9445 16.264-7.956 18.209-8.8398 1.9445-0.88389 6.5402-2.4741 4.5957-7.0703-1.9446-4.5962-6.1866-7.2486-6.0098-11.314 0.1769-4.0659 1.0612-12.728 4.0664-15.203 3.0052-2.4749 7.4248-5.8324 8.3086-11.666 0.8839-5.8336 0.9957-10.36 4.2422-13.436 3.3587-3.182 2.4747-9.5454 1.7676-13.965-0.7072-4.4194-2.4751-7.4244-6.541-11.137s-7.0704-4.7739-7.4239-9.9004c-0.3454-5.0063 0.1001-8.9996-2.8398-12.971-0.01 4e-3 -0.017 6e-3 -0.025 0.01-0.4557 0.21351-1.1143 1.8781-2.4414 0.90039-0.5323-0.39026 0.3838-0.91897-0.25-1.6699-0.4164-0.496-1.0466-0.95463-1.6934-1.0625zm-122.82 92.152c-0.026 0.062-0.038 0.12178-0.064 0.18164 0-0.0573 0.058-0.10031 0.058-0.15039 0-0.0129 0-0.0206 0.01-0.0293zm-0.01 0.16797c-0.06 0.12794-0.1227 0.27648-0.1934 0.36719l0.061 8e-3c0.081-0.0805 0.1165-0.23005 0.1543-0.36914zm-6.0254 8.9531c-0.4522 8e-3 -0.6003 0.24397-0.9766 0.39843-0.5473 0.22443-1.2048 0.0316-1.7304 0.33594-0.3247 0.18962-0.5037 0.5567-0.7383 0.82813-0.11 0.12824-0.2809 0.22986-0.3809 0.36328-0.2347 0.31309-0.3615 0.67903-0.6367 0.98047l0.074 0.45703c0.5195 0.36657 0.5367 0.9157 0.918 1.2852 0.2559 0.24745 0.6405 0.41642 0.916 0.67188l0.5117-0.1836c0.2657-0.31218 0.7657-1.1772 0.8907-1.5605 0.3583-1.096-0.2259-1.2078 0.9414-2.1699 0.093-0.47047 0.1962-0.93791 0.3066-1.4043-0.034-1e-3 -0.066-2e-3 -0.096-2e-3zm3.875 4.2734v2e-3c-0.1096 1e-3 -0.2105 0.0101-0.291 0.0332-0.4994 0.28615-0.7554 1.0111-0.7383 1.5606l0.3047 0.42773c0.8501 0.25625 1.644-0.25749 1.9102-1.0703-0.1433-0.2394-0.2801-0.48447-0.4063-0.73438-0.1655-0.15397-0.4993-0.22219-0.7793-0.21875zm-8.9238 2.8789c-0.155 0.0621-0.3984 0.12634-0.5352 0.21289-0.1867 0.11796-1.3028 1.2166-1.5801 1.4688-0.081 8e-3 -1.6539 0.44572-1.6796 0.45899-0.039 0.0193-1.0931 0.9827-1.2227 1.0996-0.1516 0.3883-0.2414 0.8671-0.2539 1.2832l0.2031 0.45703c0.5602 0.12026 1.3325 0.0628 1.7813-0.33594 0.1224-0.10915 0.2194-0.30059 0.332-0.42578 0.124-0.13943 0.2893-0.25594 0.4082-0.39844 0.06-0.0728 0.2608-0.41696 0.3047-0.45703 0.03-0.023 0.4212-0.23518 0.4844-0.27539 0.3152-0.19419 1.3445-0.77213 1.5547-0.94726 0.2823-0.23559 0.5321-0.5209 0.8125-0.76368l0.1015-0.58203-0.2031-0.45703zm-0.1797 3.9414c-0.7674 0.15284-1.1529 0.94097-1.6035 1.5l0.027 0.58007c0.3742 0.41761 1.455 0.58362 1.9883 0.51954 0.2725-0.0344 0.7846-0.30645 0.9922-0.48829 0.1285-0.4392 0.2115-1.3289-0.027-1.7441-0.4406-0.15284-0.9133-0.2913-1.375-0.36523zm59.146 20.686v2e-3c-0.3844 3e-3 -0.7314 0.16881-1.1035 0.31054-0.1466 0.0567-0.3768 0.10536-0.5078 0.1836-0.2812 0.16856-0.9542 1.0386-1.0449 1.3438l-0.033 0.44922c-0.054 0.7251-0.07 0.98978-0.3809 1.6602l-0.1699 0.36719c-0.6623 0.94738-2.8089 0.9481-3.1328 1.9238l0.2812 0.42968c0.77-0.22979 1.5759 0.39772 1.9336 1.0391 0.1319 0.5557-0.1474 1.2838-0.457 1.7422-1.0588 0.76146-1.5211 0.34383-2.2246 1.8633-0.1357 0.29556-0.244 0.61262-0.1446 0.94726 0.7186 0.20447 1.093-0.0974 1.6817-0.39453 0.1629-0.0824 0.3477-0.12867 0.5078-0.21484 1.2048-0.64683 1.9783-1.4753 2.9805-2.3242 0.4322-0.36624 0.9239-0.66561 1.2988-1.0996 0.356-0.4125 0.6636-0.90608 0.9922-1.3438 0.043-0.0575 0.3424-0.42677 0.3594-0.46094 0.1292-0.2691 0.1457-0.87389 0.076-1.1602-0.034-0.14175-0.201-0.82553-0.2304-1.0078-0.097-0.61266-0.4789-1.0168-0.2539-1.6816 0.4696-0.56564 1.3962-0.72065 1.5781-1.4961l-0.125-0.51953c-0.4108-0.38559-1.0784-0.42588-1.6055-0.53125-0.093-0.0151-0.1839-0.0273-0.2734-0.0273zm-20.297 3.7969c-0.6731 0.031-1.4383 0.53821-2.0723 0.73242-0.4236 0.13191-0.828 0.0885-1.25 0.1543-1.1323 0.17688-2.5995 1.409-2.7754 2.5644l0.3047 0.42969c0.045-0.0265 0.4395-0.2689 0.461-0.27344 0.083-0.0189 1.3003-0.20255 1.8574-0.18555l0.2031-0.24414c0.3549 0.0953 0.9375 0.16518 1.3008 0.0586 0.3318 0.15156 0.5041 0.80672 0.7891 1.1016l0.5078 0.18359c0.3148-0.0503 0.6176-0.13863 0.9179-0.24218 1.0166-0.34811 1.0882-0.52374 1.627-1.4473 0.1406-0.24265 0.1363-0.42798 0.1699-0.70313 0.1448-1.1029-0.3704-1.8082-1.4668-2.0273l-0.5097-0.10156c-0.022 0-0.042-8.4e-4 -0.062 0zm40.713 2.9316c-0.1656 0.3326-0.2464 0.80714-0.4317 1.1016-0.1731 0.27326-0.8052 0.66449-1.121 1.1934l0.125 0.54883c0.4181 0.0828 1.3047-0.0624 1.6543-0.30469 0.023-0.0113 0.4944-0.59253 0.5625-0.67383-0.054-0.53253 0.022-1.2189-0.2812-1.6816zm-38.553 2.5078c-0.7378 0.0495-1.743 1.162-1.7637 1.8652l0.2031 0.48828 0.6113 0.27539c0.6065-0.20788 1.4834-0.82673 1.8086-1.377l0.025-0.67187-0.2793-0.39649-0.5351-0.18359c-0.023-6.4e-4 -0.047-1e-3 -0.07 0zm7.3535 6.4785-0.4571 0.27539c-0.2464 0.32012-0.4036 0.85845-0.4336 1.2539l0.2286 0.45704 0.5859 0.12109c0.316-0.15647 0.5143-0.53901 0.6133-0.93359 0.054-0.15498 0.077-0.34408 0.076-0.53126 1e-4 -4e-3 -2e-4 -8e-3 0-0.0195-2e-4 -0.0113 3e-4 -0.0262 0-0.0391 2e-4 -0.034-3e-4 -0.0667 0-0.0996v0.0117c0-0.0907-0.012-0.17762-0.023-0.25586zm-15.994 1.3457c-0.6785 0.21883-1.1233 1.2251-0.789 1.8652 0.1882 0.27251 0.6533 0.53579 0.9687 0.60938l0.586-0.0898 0.4062-0.39844c0.1497-0.5274 0-0.99462-0.1523-1.498l-0.4063-0.36719z" fill="#c60c31"/>
 </g>
</svg>
