<?xml version="1.0" encoding="UTF-8"?>
<!-- Created with Inkscape (http://www.inkscape.org/) -->
<svg width="1920" height="1080" version="1.1" viewBox="0 0 508 285.75" xmlns="http://www.w3.org/2000/svg" xmlns:xlink="http://www.w3.org/1999/xlink">
 <path d="m446.09-21.696c5.2917 4.7625 11.112 15.875 3.7042 33.867-7.4083 17.992-10.054 22.754-4.7625 33.867 5.2917 11.113 14.817 24.342 8.9958 38.629-5.8208 14.288-14.288 22.754-3.175 38.1s12.171 32.279 5.2917 49.742-9.525 25.4-4.7625 42.333c4.7625 16.933 10.054 24.342 2.6458 38.629-7.4083 14.288-11.642 21.696-3.7042 35.983 7.9375 14.288 8.4667 30.692 8.4667 30.692l-264.05 6.35s12.171-359.83 14.817-359.83c2.6458 0 236.54 11.642 236.54 11.642z" fill="#fff"/>
</svg>
