<?xml version="1.0" encoding="UTF-8"?>
<!-- Created with Inkscape (http://www.inkscape.org/) -->
<svg width="1920" height="1080" version="1.1" viewBox="0 0 508 285.75" xmlns="http://www.w3.org/2000/svg">
 <defs>
  <clipPath id="clipPath21289">
   <path d="m843 171.02c-3.6639-0.0308-7.5525 1.2676-11.112 2.7435-4.068 1.6867-6.5154 2.2159-8.3344 2.4805-1.819 0.26455-5.3247-0.0331-6.8461-0.0331-1.5214 0-3.1089 0.59533-4.3656 0.56223s-3.4727-0.13228-4.9609 0.0661c-1.3029 0.17374-4.2432 0.18731-5.4715 0.0791 4e-3 5e-3 5e-3 0.0123 9e-3 0.0176-0.019 0.19013-0.19669 0.33691-0.17312 0.53537 0.0188 0.1668 0.35182 0.38833 0.41082 0.74259-0.0254 0.0243-0.0494 0.0503-0.078 0.0713-0.15926 0.12038-0.78349-0.15794-0.91054-0.0145-0.0283 0.0327-0.0526 0.0714-0.078 0.10697 0.0285 0.3469 0.34809 0.54782 0.49969 0.82838 0.22429 0.4145-0.0279 0.68147 0.28631 0.97151 0.27715 0.25644 0.71771 0.11234 0.87487 0.25012 0.0615 0.0542 0.0746 0.1458 0.13592 0.19998 0.23828 0.20591 0.6205 0.0166 0.71416 0.0501 0.21249 0.0773 0.12285 0.51612 0.0465 0.65681-0.0598 0.11239-0.17347 0.18416-0.26202 0.2713-0.1927 0.0245-0.4558 0.0838-0.61339 0.19999l-0.0537 0.14986c0.17219 0.27871 0.71054 0.0833 0.9467 0.0713 0.054-2e-3 0.10748 0.014 0.16071 0.0212l0.0899 0.0863 0.03 0.12816c0.0659 0.0454 0.11486 0.12901 0.12973 0.20722l-0.0656 0.12144 0.0894 0.0858c0.11213-1e-3 0.29522 0.049 0.40463 0.0858 0.0869 0.0287 0.14986 0.1093 0.23254 0.13591 0.27538 0.0878 0.55203-0.34971 0.83923-0.30696l0.0894 0.0925 0.0243 0.12144c-0.0538 0.0601-0.0984 0.13407-0.11938 0.21394l0.0419 0.11472c0.17341 0.0697 0.37865 0.28 0.4222 0.46406-0.0285 0.0635-0.12428 0.14562-0.19638 0.14986-0.30937 0.0189-0.41798-0.35985-0.63664-0.47129l-0.1075 0.0641-0.0661 0.12867c-0.52713 0.19908-0.136 1.2938-0.80926 1.4283-0.3574-0.17811-0.13941-0.58005-0.14364-0.76429 0-0.0438-0.019-0.0865-0.03-0.12868l-0.11991-0.0429c-0.11684 0.11685-0.24294 0.24126-0.41029 0.27854-0.15385-0.0804-0.14261-0.17937-0.24444-0.27854-0.0509-0.0507-0.46816-0.13237-0.61288-0.2496-0.27718 0.0388-0.23191 0.24406-0.39273 0.29249-0.0881-0.0281-0.17266-0.0697-0.24392-0.12867l-0.12557 0.0362-0.06 0.12867c0.045 0.19458 0.17587 0.2678 0.33382 0.36432 0.051 0.1423-2.3e-4 0.30894-0.0305 0.44959l0.0419 0.1142 0.11988 0.0434c0.1628-0.0726 0.29758-0.12815 0.45218-0.22169 0.17293 8e-3 0.23915 0.0745 0.29196 0.22169-0.14652 0.45254-0.54004 0.30304-0.83354 0.52865-0.12438 0.0954-0.19878 0.29589-0.2558 0.4377-0.0405 0.10228-0.11218 0.20411-0.0765 0.31884l0.10747 0.0713c0.0764-0.036 0.16179-0.0498 0.23823-0.0858 0.14513-0.0679 0.28239-0.22363 0.45837-0.17156l0.0656 0.10025v0.14263c-0.25442 0.22146-0.67731 0.52986-0.19637 0.77876l0.13591-0.0279c0.12274-0.0293 0.24744-0.0512 0.35139-0.12919 0.17624-0.13263 0.25411-0.34995 0.4041-0.50643 0.0881-0.0914 0.19601-0.1622 0.28009-0.25735 0.10348-0.11662 0.14206-0.28359 0.30284-0.34003 0.0794-0.0276 0.0926-8e-3 0.16897 0.0119 0.22264 0.0509 0.32303-0.14112 0.4682-0.26407l0.0599 0.0429c-0.014 0.20567-0.0437 0.35209 0.0185 0.55707 0.15293 0.0333 0.31179 2e-3 0.46458 0.0357 0.39587-0.14442 0.40992-0.39384 0.88678-0.45682l0.0146 0.10697-0.078 0.10697c0 0.27243 0.13792 0.40528-0.014 0.65681-0.3426 0.15596-0.50008-0.0679-0.72604 0.0145-0.16518 0.0603-0.24064 0.26455-0.38087 0.32143-0.31385 0.12745-0.78195-0.17274-0.79737 0.37155 0 0.0893 0.0332 0.17413 0.03 0.26355 0 0.15408-0.0868 0.29584-0.0899 0.45062l0.11369 0.0785c0.0897-0.0212 0.18177-0.0292 0.27387-0.0289l0.03 0.12867-0.16071 0.20671c-0.1873 0.0434-0.37057 0.21635-0.54777 0.30024l-0.0238 0.13539 0.0657 0.10026c0.14816 0.0621 0.31443 0.0577 0.46455 0.1142 0.21889 0.0826 0.25593 0.20935 0.52038 0.22324 0.47162 0.0247 0.36984-0.47836 0.62789-0.63045l0.0661 0.10025c-0.0509 0.1423-0.0272 0.29535-0.03 0.44287l0.0956 0.0568c0.29157 2e-3 0.30292-0.32894 0.39275-0.52865 0.0434-0.099 0.0884-0.18417 0.108-0.29248 0.0436-0.24743-0.0912-0.84044 0.30334-0.83561l0.0899 0.0858c0.0492 0.19506-0.12753 0.40444-0.108 0.59996 0.045 0.44924 0.0913 0.47466 0.21447 0.87127 0.13475 0.0679 0.30144 0.0669 0.41701 0.17105 0.0241 0.0883 0.0328 0.18018 0.03 0.2713l-0.0543 0.0863c-0.18775 0.0336-0.45998-0.20619-0.77306-0.12868l-0.0481 0.12144c0.0764 0.0386 0.14648 0.0918 0.20207 0.15762v0.14262c-0.0959 0.0304-0.19463 0.0119-0.29197 8e-3 -0.0959-4e-3 -0.18 0.0212-0.2739 0.0284-0.14652 0.0117-0.5162-0.0924-0.67799-0.12867l-0.11989 0.0434c0.014 0.0961 0.0647 0.27719 0.13798 0.34262 0.16114 0.14489 0.66062 0.48459 0.7555 0.65009 0.0852 0.14983 0.12469 0.28549 0.2682 0.40669 0.11216 0.0949 0.41614 0.25878 0.57103 0.36432 0.048 0.20025 0.24754 0.41128 0.47027 0.36432 0.0838-0.0189 0.1434-0.0861 0.22632-0.10697 0.0973-0.0253 0.19921 0.0122 0.29766-8e-3 0.0824-0.0165 0.15028-0.073 0.23204-0.093 0.27585-0.0679 0.30504-0.0751 0.47593-0.3142-0.0241-0.0778-0.0748-0.1423-0.11369-0.21394-0.0973-0.18304-0.14528-0.4894-0.0243-0.67127 0.0464-0.0685 0.11991-0.11528 0.1788-0.17157 0.0942-0.0212 0.18995-0.0292 0.28578-0.0289 0.19222 0.26523 0.55245 0.0286 0.67231-0.17828l0.13642-0.0212 0.1075 0.0713c0.0241 0.4269-0.64535 0.63809-0.9643 0.47129l-0.10748 0.0641c0.0554 0.0709 0.13298 0.10402 0.19638 0.16433 0.16914 0.16232-0.13955 0.48882 0.0775 0.92139l-0.0295 0.13591c-0.18375 0.11049-0.3697 0.19362-0.57205 0.26406-0.11684 0.0408-0.24342 0.0634-0.35089 0.12868-0.0565 0.0341-0.10605 0.0768-0.15399 0.12196 0.11393-0.0234 0.21683-0.0353 0.3452-0.0744 1.9017-0.57877 2.0671-1.0914 2.5797-0.82682s0.9095 0.85989 1.7032 0.28112c0.79375-0.57878 0.66146-0.678 1.8686-0.74414 1.2072-0.0661 3.7868-0.76068 4.5475-1.4718 0.76068-0.71106 1.6536-1.3229 1.7694-1.8355 0.11576-0.51263 0.87643-0.79375 1.9513-1.108 1.0749-0.31419 10.903-3.8829 12.657-4.7248 1.7539-0.8419 7.3901-2.0115 9.7053-2.4324 1.4624-0.2659 4.8064-1.0745 7.4776-1.7529-0.0755-0.0895-0.14497-0.18566-0.19947-0.29817-0.1152-0.23962-0.0668-0.51225-0.1297-0.7643-0.0212-0.0815-0.0571-0.15838-0.0661-0.24236-0.014-0.13334 5e-5 -0.2619-0.0656-0.3855-0.12864-0.24942-0.8495-0.86993-1.0888-1.1927-0.0374-0.0506-0.13618-0.14067-0.15502-0.19275l-0.12557-0.34313c-0.0388-0.11002 0.0938-0.53792 0.0594-0.73536 0-8e-3 -0.23812-0.38558-0.26148-0.41393-0.10766-0.1317-0.27504-0.20679-0.36949-0.35036-0.20355-0.31047-0.45842-0.5815-0.678-0.8785-0.17457-0.23575-0.41494-0.40038-0.58393-0.64285-0.0525-0.0755-0.14343-0.16209-0.22686-0.2465-1.3052 0.0311-2.6356-0.0111-3.8897-0.16278-0.51263-0.062-1.0315-0.0933-1.555-0.0977zm-44.092 4.5356c-0.11256 0.0185-0.19598 0.0283-0.32092 0.0506l0.0108 2e-3c0.0989 0.0198 0.21876-6e-3 0.30956-0.0522v-5.3e-4zm-3.7915 1.0785-0.11885 0.0496c-0.0143 0.11156 0.047 0.26642 0.10128 0.36432 0.0103 0.0187 0.0663 0.0874 0.0713 0.10026 0.0328 0.0838-4e-3 0.14724 0.0894 0.23564 0.21362 0.0919 0.34261 0.0214 0.54726 0 0.0464-5e-3 0.0964 4e-3 0.14314 0 0.0872-7e-3 0.1827-0.0283 0.26768-0.0496l0.0594-0.0863-0.0718-0.10697c-0.15478-0.0651-0.30525-0.0161-0.45786-0.0563-0.1429-0.0378-0.33793-0.19252-0.39894-0.32866l-0.077-0.0646zm2.898 0.43563c-0.0803 0.0203-0.37959 0.18196-0.44029 0.23616-0.0265 0.0235-0.0552 0.0703-0.0775 0.0992l0.0656 0.10748c0.17269 0.0315 0.47832-0.11592 0.5891-0.25011 0.0172-0.0352 8e-3 -0.10129-6e-3 -0.13539zm0.98857 0.23616-0.12507 0.0496-0.0651 0.12144 0.0713 0.0997c0.0156 0.0807 5e-3 0.19631-0.03 0.2713-0.16542 0.0913-0.15288 0.3895-0.19637 0.54984-0.0127 0.0472-0.0367 0.0968-0.0537 0.14315-0.0654 0.17882-0.12105 0.34436-0.31523 0.42116l-0.0656 0.12867 0.0419 0.11421 0.14883-7e-3c0.12049-0.0612 0.12078-0.19231 0.25579-0.29249 0.17074-0.12658 0.39535-0.16815 0.58344-0.25735 0.0893-0.0423 0.24638-0.1501 0.34467-0.1571 0.051-4e-3 0.24045 0.0324 0.30387 0.0429l0.077-0.0997-0.0238-0.12867 0.0775-0.10749h0.14264c0.0664-0.0455 0.1366-0.11672 0.1788-0.18552-0.0172-0.0458-0.0729-0.20314-0.0951-0.23565-5e-3 -7e-3 -0.0787-0.0753-0.0894-0.0858-0.10703-0.10267-0.20974-0.17976-0.36896-0.14986-0.0995 0.0187-0.10153 0.0745-0.24392 0.0429-0.16148-0.036-0.39654-0.27753-0.55346-0.27853zm-1.2144 0.81339-0.0475 0.108c0.0554 0.23911 0.0472 0.25645 0.19634 0.45682l0.10698-0.0646c0.0177-0.0558 0.0893-0.17146 0.0894-0.17156 0.0209-0.0831 0.023-0.20387-6e-3 -0.28577-0.11078-0.0216-0.22622-0.0369-0.33901-0.0429zm-1.8335 0.59996-0.077 0.10749c0 0.0971 0.0924 0.26098 0.15452 0.33538 0.0262 0.0316 0.068 0.0551 0.0951 0.0863 0.0254 0.0293 0.0408 0.0694 0.0656 0.0992 0.0521 0.0625 0.12272 0.1182 0.17881 0.17881 0.17171 0.0533 0.24887-0.0585 0.39275-0.0429 0.13689 0.10092 0.17282 0.27918 0.31522 0.37828l0.13695 0.0289c0.27413-0.16352 0.13936-0.48285-0.0238-0.67127-0.0568-0.0656-0.12071-0.10244-0.16071-0.18604l-0.12504-0.0997c-0.21336-0.11276-0.34655 0.0501-0.54158 0.0501-0.17513 0-0.268-0.18578-0.41082-0.26458zm1.0041 1.5973c-0.0352-2e-4 -0.0684 5e-3 -0.0935 0.0176-0.13584 0.20105-0.0119 0.432 0.0119 0.64285 0.0103 0.0923 6e-3 0.1795 0.03 0.2713l0.13692 0.0284c0.11801-0.0481 0.26451-0.0507 0.3633-0.13539 0.0504-0.0615 0.0755-0.18778 0.0594-0.26458-0.0101-0.0473-0.12703-0.28826-0.16071-0.32866-0.0539-0.0648-0.11771-0.10922-0.16071-0.18552-0.044-0.0257-0.11941-0.0456-0.18656-0.046zm1.3157 2.9569v5.3e-4c-9e-3 1.7e-4 -0.0183 2.7e-4 -0.0279 2e-3 -0.0576 8e-3 -0.12121 0.0434-0.17881 0.0574-0.0359 9e-3 -0.077 6e-3 -0.11319 0.015-0.042 9e-3 -0.32787 0.10975-0.35708 0.12764-0.0571 0.0352-0.13459 0.14694-0.16071 0.20774-3e-3 0.13482 0.0619 0.34546 0.06 0.39946-4e-3 0.10384-0.0738 0.17988-0.0124 0.29352l0.0837 0.0853c0.0848-0.012 0.17758-0.0364 0.2558-0.0713 0.0705 0.041 0.13975 0.0844 0.20825 0.12867l0.11319-7e-3c0.17261-0.17185 0.18182-0.67304 0.37465-0.77153 0.0318-0.0693 0.0271-0.14275 0.014-0.21446-0.0233-0.12626-0.12128-0.25481-0.25942-0.25218zm1.4227 0.031c-0.0185 5.3e-4 -0.0377 3e-3 -0.0579 7e-3 -3e-3 0.30953 0.45683 0.70458 0.41703 1.0289l-0.0956 0.0858-0.13076 0.0212-0.0656 0.12867c0.0618 0.0569 0.12178 0.11638 0.1788 0.17829l-0.03 0.12867c-0.0643 0.0482-0.1294 0.11782-0.17261 0.18552l0.0476 0.1142 0.10697 0.0791c0.12051 0.0347 0.29458-4e-3 0.37518-0.10749 0.0262-0.034 0.034-0.0933 0.0594-0.12867 0.0419-0.0582 0.13057-0.11805 0.18397-0.17105 0.0784-0.0238 0.2178 3e-3 0.28008 0.0568l0.0894-0.0496 0.0119-0.15709-0.0656-0.10026 0.0175-0.0925c0.0749-4e-3 0.18711-0.0431 0.24442-0.093l0.032-0.10026c0.0523-0.16499-0.0542-0.26007-0.16277-0.36432-0.0265-0.0254-0.0598-0.0651-0.0894-0.0853-0.0776-0.053-0.1796-0.0761-0.26149-0.12144-0.0588-0.0326-0.19637-0.11473-0.19637-0.11473-0.0907-0.0527-0.18788-0.0714-0.28009-0.1142-0.15261-0.0708-0.25779-0.21984-0.43614-0.21394zm-5.1511 0.45423c-0.0642 2e-3 -0.12684 0.0196-0.17415 0.0527l-0.018 0.1571c9e-3 0.0123 0.0653 0.0943 0.0713 0.10025l0.22014 0.14986c0.0436 0.0201 0.10824 0.0289 0.15504 0.0429 0.16359 0.049 0.4485 0.15901 0.61288 0.0791 0.0545-0.0265 0.14939-0.14054 0.17881-0.19275l-0.0775-0.10025c-0.1143-0.0349-0.21961-0.0258-0.33333-0.0429-0.14118-0.0211-0.27482-0.0894-0.39894-0.15709l-0.0119-0.0212c-0.0573-0.047-0.14179-0.0699-0.22429-0.0672zm-3.852 3e-3 -0.10129 0.0713c-0.0578 0.12445-0.1752 0.6483-0.16071 0.77825 0 4e-3 0.0436 0.10351 0.0476 0.11421 0.13838 0.014 0.19664-0.11534 0.35708-0.0853 0.0353 0.0777 0.0692 0.15644 0.10128 0.23564 0.07 0.0383 0.14407 0.0968 0.19638 0.1571 0.12769 0.0448 0.29575 0.0403 0.41031-0.0362 0.0629-0.0418 0.12565-0.11975 0.1845-0.17105 0.12874-0.2629-0.18418-0.48134-0.37518-0.59273l-0.0114-0.0429c-0.23937-0.13716-0.45344-0.027-0.55345-0.37155zm10.79 0.75706-0.0594 0.12092 0.0413 0.12144c0.0726 0.0184 0.17616 0.081 0.22016 0.14315l0.13126-0.0145 0.0175-0.15657v-5.3e-4c-0.0552-0.076-0.12798-0.13018-0.19018-0.19999zm-9.3023 0.37827-0.13126 0.0284-0.047 0.11421c0.13613 0.10787 0.19298 0.25872 0.2558 0.41444l0.13073 0.0641 0.0894-0.0853v-5.3e-4c0-0.2501-0.033-0.44117-0.29713-0.53537zm-3.7915 0.63562-0.0951 0.0858-0.12505 0.0212-0.0951 0.0858-0.03 0.13591c0.22203 0.051 0.33819-0.0242 0.47646-0.18604l6e-3 -0.0997-0.0419-0.0429zm2.2732 0.22118c-0.0655 0.0225-0.13965 0.0339-0.20826 0.0429l-0.0651 0.12144c-0.014 0.0721 0.0161 0.1984 0.0713 0.25011 0.11777 0.0201 0.27054-0.0266 0.33952-0.12867l6e-3 -0.12144c-0.0337-0.0583-0.087-0.12533-0.14264-0.16433zm3.2437 0.11472-0.0594 0.0212-0.077 0.10749 0.0413 0.1142 0.13695 0.0568c0.023 0.0674 0.1065 0.1528 0.17259 0.1788l0.10697-0.0646c-3e-3 -0.0149-0.0209-0.11344-0.0238-0.12144-0.023-0.0555-0.0807-0.12173-0.11473-0.17363-8e-3 -0.013-0.01-0.0226-0.0217-0.0331-6e-3 -5e-3 -0.14502-0.0768-0.16121-0.0858zm7.321 0.0212-0.10128 0.0858c-0.0401 0.0874-0.0646 0.20383-0.0657 0.29973l0.0951 0.0501c0.0668-0.0244 0.15198-0.10103 0.18397-0.16433v-0.23513zm-6.3624 0.12868c-0.0487 0.0287-0.17523 0.0182-0.22633 7e-3l-0.0357 0.12867c0.0428 0.0684 0.0888 0.13477 0.13695 0.19948l0.16071 0.0145 0.0656-0.12144c4e-3 -0.0714-0.0449-0.18371-0.10128-0.22841zm-4.8788 1.6185c-0.0386 1e-3 -0.0753 8e-3 -0.10853 0.0238l-0.0713 0.12144c0.0727 0.0345 0.15373 0.0996 0.20207 0.16433l-0.0357 0.16433 0.11316 0.0791c0.1432 2e-3 0.25048-0.12259 0.26768-0.25735-6e-3 -0.0787-0.0333-0.17317-0.0718-0.24236-0.0872-0.0194-0.19693-0.0552-0.29559-0.0527zm-1.7689 1.9022-0.11938 0.0501-0.0356 0.15709c0.0375 0.0601 0.15113 0.13727 0.22014 0.14987 3e-3 0 0.28297-5e-3 0.29196-7e-3 0.0374-6e-3 0.0885-0.0303 0.12507-0.0429l0.0589-0.12144-0.0532-0.11368c-0.0757-0.0292-0.1746-0.0474-0.2558-0.0434-0.0227 0.0207-0.0704 0.0382-0.10128 0.0362z" fill="#c60c31"/>
  </clipPath>
  <filter id="filter21293" x="-.023383" y="-.03194" width="1.0468" height="1.0639" color-interpolation-filters="sRGB">
   <feGaussianBlur stdDeviation="2.3915217"/>
  </filter>
 </defs>
 <g>
  <g>
   <path d="m389.7 152.79c-4.1483-0.0348-8.5509 1.4352-12.581 3.1062-4.6058 1.9097-7.3767 2.5088-9.4362 2.8084-2.0595 0.29953-6.0287-0.0375-7.7511-0.0375-1.7225 0-3.5198 0.67404-4.9428 0.63657-1.4229-0.0375-3.9317-0.14978-5.6168 0.0748-1.4751 0.19672-4.8042 0.21208-6.1948 0.0896 5e-3 6e-3 6e-3 0.014 0.0104 0.02-0.0214 0.21525-0.2227 0.38144-0.196 0.60614 0.0214 0.18885 0.39832 0.43967 0.46512 0.84077-0.0289 0.0275-0.0559 0.057-0.0884 0.0808-0.1803 0.1363-0.88705-0.17881-1.0309-0.0164-0.032 0.037-0.0596 0.0809-0.0884 0.12112 0.0322 0.39275 0.3941 0.62023 0.56575 0.93788 0.25395 0.46931-0.0316 0.77157 0.32416 1.1 0.31379 0.29035 0.81258 0.12719 0.99052 0.28318 0.0696 0.0614 0.0844 0.16509 0.15389 0.22642 0.26978 0.23314 0.70254 0.0187 0.80858 0.0568 0.24058 0.0876 0.13909 0.58436 0.0527 0.74366-0.0677 0.12724-0.19638 0.20849-0.29665 0.30717-0.21817 0.0278-0.51605 0.0949-0.69447 0.2264l-0.0607 0.16969c0.19495 0.31555 0.80445 0.0942 1.0718 0.0808 0.0612-2e-3 0.12168 0.0158 0.18195 0.024l0.10181 0.0977 0.034 0.1451c0.0746 0.0514 0.13003 0.14607 0.14687 0.23461l-0.0744 0.13749 0.10115 0.0972c0.12695-1e-3 0.33425 0.0555 0.45812 0.0972 0.0983 0.0324 0.16966 0.12375 0.26328 0.15388 0.31178 0.0994 0.62501-0.39595 0.95018-0.34755l0.10124 0.10474 0.0275 0.13748c-0.0609 0.0681-0.1114 0.15179-0.13516 0.24223l0.0474 0.12989c0.19631 0.079 0.42869 0.317 0.47799 0.52539-0.0322 0.0719-0.1407 0.16487-0.22233 0.16968-0.35028 0.0214-0.47324-0.40743-0.7208-0.5336l-0.12171 0.0726-0.0748 0.1457c-0.59682 0.2254-0.15397 1.4648-0.91624 1.6172-0.40464-0.20166-0.15784-0.65674-0.16261-0.86534 0-0.0496-0.0216-0.0979-0.0341-0.14569l-0.13575-0.0484c-0.13229 0.1323-0.27505 0.27315-0.46454 0.31535-0.17419-0.091-0.16145-0.20308-0.27677-0.31535-0.0576-0.0574-0.53003-0.14987-0.69389-0.2826-0.31383 0.0439-0.26258 0.27631-0.44464 0.33115-0.0998-0.0317-0.1955-0.0789-0.27617-0.14568l-0.14217 0.041-0.0679 0.14568c0.0509 0.2203 0.19911 0.3032 0.37795 0.41248 0.0577 0.16111-2.6e-4 0.34976-0.0345 0.50901l0.0474 0.12931 0.13574 0.0492c0.18432-0.0822 0.33691-0.1451 0.51193-0.251 0.1958 9e-3 0.27078 0.0843 0.33058 0.251-0.1659 0.51236-0.61144 0.3431-0.94374 0.59852-0.14083 0.10803-0.22506 0.33503-0.28961 0.49558-0.0459 0.1158-0.12703 0.23108-0.0867 0.36099l0.12169 0.0808c0.0865-0.0407 0.18318-0.0563 0.26972-0.0972 0.16431-0.0769 0.31973-0.25321 0.51895-0.19425l0.0744 0.1135v0.16149c-0.28806 0.25074-0.76685 0.59991-0.22233 0.88171l0.15389-0.0316c0.13897-0.0331 0.28014-0.0579 0.39784-0.14625 0.19954-0.15017 0.2877-0.39622 0.45751-0.57339 0.0998-0.10348 0.22192-0.18364 0.31713-0.29137 0.11714-0.13204 0.16083-0.32109 0.34286-0.38499 0.09-0.0313 0.10486-9e-3 0.19131 0.0134 0.25209 0.0577 0.36574-0.15978 0.53011-0.29899l0.0678 0.0485c-0.0159 0.23287-0.0495 0.39862 0.0211 0.63071 0.17314 0.0377 0.35301 2e-3 0.526 0.0404 0.4482-0.16352 0.46411-0.4459 1.004-0.5172l0.0164 0.1211-0.0884 0.12111c0 0.30844 0.15616 0.45887-0.0158 0.74365-0.38789 0.17658-0.5662-0.0769-0.82202 0.0164-0.18701 0.0683-0.27245 0.2995-0.43122 0.3639-0.35533 0.1443-0.88533-0.19555-0.90278 0.42068 0 0.10104 0.0376 0.19714 0.034 0.2984 0 0.17443-0.0982 0.33495-0.10179 0.51018l0.12871 0.0888c0.10159-0.024 0.20581-0.0331 0.31008-0.0326l0.034 0.14567-0.18196 0.23404c-0.21205 0.0491-0.41956 0.24495-0.62018 0.33993l-0.0271 0.15329 0.0743 0.1135c0.16776 0.0702 0.356 0.0653 0.52597 0.12931 0.24783 0.0935 0.28978 0.23703 0.5892 0.25275 0.53395 0.028 0.41871-0.54159 0.71088-0.7138l0.0748 0.11352c-0.0577 0.1611-0.0308 0.33437-0.034 0.50141l0.10823 0.0643c0.33011 2e-3 0.34297-0.37243 0.44467-0.59854 0.0491-0.11208 0.10013-0.20852 0.12228-0.33115 0.0494-0.28014-0.10326-0.95156 0.34345-0.94609l0.1018 0.0972c0.0557 0.22084-0.14438 0.4579-0.12228 0.67927 0.0509 0.50864 0.10338 0.53741 0.24283 0.98645 0.15256 0.0769 0.34129 0.0757 0.47214 0.19365 0.0273 0.10003 0.0371 0.20401 0.034 0.30716l-0.0615 0.0977c-0.21257 0.038-0.52079-0.23344-0.87526-0.14568l-0.0544 0.1375c0.0865 0.0437 0.16585 0.10389 0.22877 0.17845v0.16149c-0.10858 0.0343-0.22035 0.0134-0.33057 9e-3 -0.10856-5e-3 -0.20378 0.024-0.31008 0.0321-0.16591 0.0132-0.58446-0.10464-0.76764-0.14568l-0.13573 0.0491c0.0159 0.1088 0.0732 0.31382 0.15622 0.38789 0.18243 0.16405 0.74795 0.54866 0.85536 0.73604 0.0965 0.16963 0.1412 0.32323 0.30367 0.46046 0.127 0.10745 0.47115 0.29299 0.64651 0.41248 0.0543 0.22672 0.28028 0.46565 0.53244 0.41248 0.0949-0.0214 0.16237-0.0975 0.25625-0.12111 0.11018-0.0287 0.22553 0.0138 0.337-9e-3 0.0933-0.0187 0.17017-0.0826 0.26272-0.1053 0.31233-0.0768 0.34536-0.085 0.53885-0.35572-0.0273-0.0881-0.0847-0.16113-0.12872-0.24223-0.11016-0.20723-0.16449-0.5541-0.0275-0.76002 0.0526-0.0775 0.13575-0.13051 0.20244-0.19425 0.10666-0.024 0.21506-0.033 0.32356-0.0326 0.21764 0.3003 0.62549 0.0323 0.76118-0.20187l0.15446-0.024 0.1217 0.0808c0.0273 0.48334-0.73064 0.72244-1.0918 0.5336l-0.12168 0.0726c0.0627 0.0803 0.15055 0.11776 0.22233 0.18606 0.19151 0.18377-0.15799 0.55344 0.0878 1.0432l-0.0334 0.15388c-0.20805 0.1251-0.41857 0.21922-0.64769 0.29897-0.13229 0.0462-0.27559 0.0718-0.39727 0.14569-0.064 0.0386-0.12007 0.087-0.17435 0.13808 0.12899-0.0265 0.24549-0.04 0.39084-0.0842 2.1531-0.65528 2.3403-1.2357 2.9207-0.93613 0.58039 0.29956 1.0297 0.97357 1.9284 0.31828 0.89868-0.65528 0.7489-0.76763 2.1156-0.84251 1.3667-0.0748 4.2875-0.86124 5.1487-1.6663 0.86124-0.80507 1.8723-1.4978 2.0033-2.0782 0.13106-0.58041 0.9923-0.89868 2.2093-1.2544 1.217-0.35572 12.345-4.3962 14.33-5.3494 1.9858-0.9532 8.3671-2.2774 10.988-2.754 1.6558-0.30105 5.4419-1.2166 8.4661-1.9846-0.0854-0.10125-0.16415-0.2102-0.22584-0.33759-0.13043-0.2713-0.0756-0.57997-0.14685-0.86533-0.024-0.0922-0.0648-0.17932-0.0748-0.27441-0.0158-0.15098 7e-5 -0.29652-0.0743-0.43645-0.14565-0.2824-0.96181-0.98494-1.2328-1.3504-0.0423-0.0573-0.1542-0.15927-0.17553-0.21822l-0.14216-0.3885c-0.0439-0.12456 0.1062-0.60903 0.0672-0.83257 0-9e-3 -0.2696-0.43656-0.29605-0.46865-0.12189-0.14912-0.31139-0.23414-0.41835-0.39668-0.23043-0.35152-0.519-0.65838-0.7676-0.99466-0.19766-0.26691-0.46982-0.45329-0.66115-0.72782-0.0595-0.0854-0.16239-0.18351-0.25684-0.27909-1.4777 0.0352-2.9841-0.0126-4.4039-0.1843-0.58041-0.0701-1.1679-0.10563-1.7605-0.11061zm-49.921 5.1352c-0.12744 0.021-0.2219 0.032-0.36334 0.0573l0.0124 2e-3c0.11198 0.0224 0.24767-7e-3 0.35049-0.0591l5.8e-4 -5.8e-4zm-4.2928 1.2211-0.13455 0.0562c-0.0162 0.12631 0.0532 0.30165 0.11467 0.4125 0.0118 0.0212 0.075 0.099 0.0808 0.1135 0.0371 0.0949-5e-3 0.1667 0.10115 0.26678 0.24187 0.10411 0.3879 0.0243 0.61962 0 0.0526-6e-3 0.10914 5e-3 0.16205 0 0.0987-8e-3 0.20685-0.032 0.30308-0.0562l0.0672-0.0977-0.0814-0.12111c-0.17524-0.0738-0.3456-0.0182-0.51839-0.0637-0.16178-0.0429-0.38259-0.21798-0.45168-0.37211l-0.0872-0.0731zm3.2812 0.49321c-0.0909 0.0229-0.42978 0.20602-0.49848 0.26739-0.0299 0.0267-0.0625 0.0796-0.0878 0.11232l0.0744 0.12169c0.19551 0.0357 0.54154-0.13125 0.66697-0.28318 0.0193-0.0398 9e-3 -0.11469-7e-3 -0.15329zm1.1192 0.26739-0.14161 0.0562-0.0737 0.13749 0.0808 0.11288c0.0177 0.0913 6e-3 0.22226-0.0341 0.30717-0.18727 0.10338-0.17307 0.44098-0.22232 0.62252-0.0145 0.0534-0.0415 0.1096-0.0607 0.16207-0.0741 0.20246-0.13704 0.38989-0.35689 0.47684l-0.0743 0.1457 0.0473 0.12928 0.16851-8e-3c0.13641-0.0693 0.13674-0.21773 0.28961-0.33115 0.19331-0.14331 0.44761-0.19037 0.66056-0.29136 0.10104-0.0478 0.27895-0.16995 0.39024-0.17786 0.0577-5e-3 0.27224 0.0367 0.34404 0.0484l0.0872-0.11288-0.0271-0.14569 0.0878-0.1217h0.1615c0.0752-0.0515 0.15466-0.13215 0.20242-0.21003-0.0196-0.0519-0.0825-0.23003-0.10766-0.26681-6e-3 -8e-3 -0.0891-0.0852-0.10125-0.0972-0.12117-0.11625-0.23745-0.20353-0.41773-0.16968-0.11266 0.0212-0.11494 0.0843-0.27616 0.0485-0.18284-0.0407-0.44896-0.31422-0.62663-0.31537zm-1.375 0.92093-0.0537 0.12227c0.0626 0.27071 0.0534 0.29035 0.22231 0.51721l0.12111-0.0731c0.0199-0.0631 0.10105-0.19415 0.10115-0.19425 0.0237-0.094 0.0262-0.23082-7e-3 -0.32355-0.12542-0.0245-0.25612-0.0418-0.38382-0.0485zm-2.0759 0.67926-0.0872 0.1217c-6e-4 0.10993 0.10464 0.29548 0.17495 0.37972 0.0296 0.0358 0.077 0.0624 0.10767 0.0977 0.0287 0.0332 0.0462 0.0786 0.0743 0.11231 0.059 0.0708 0.13893 0.13384 0.20243 0.20245 0.19442 0.0603 0.28178-0.0662 0.44466-0.0484 0.15502 0.11428 0.19569 0.31608 0.35692 0.42829l0.15504 0.0327c0.31039-0.18515 0.15778-0.5467-0.027-0.76002-0.0643-0.0744-0.13666-0.11598-0.18195-0.21064l-0.14159-0.11288c-0.24155-0.12766-0.39235 0.0568-0.61317 0.0568-0.19829 0-0.30343-0.21036-0.46514-0.29959zm1.1368 1.8085c-0.0398-2.4e-4 -0.0773 6e-3 -0.10587 0.02-0.15378 0.22762-0.0133 0.48912 0.0134 0.72784 0.0117 0.10453 7e-3 0.20322 0.034 0.30717l0.15502 0.0321c0.13361-0.0544 0.29946-0.0575 0.41133-0.1533 0.0571-0.0696 0.0855-0.21262 0.0672-0.29956-0.0114-0.0535-0.14381-0.32638-0.18195-0.37212-0.0609-0.0734-0.13328-0.12365-0.18195-0.21005-0.0499-0.0291-0.1352-0.0516-0.21122-0.0521zm1.4896 3.3478v5.8e-4c-0.0104 1.9e-4 -0.0208 3.9e-4 -0.0316 2e-3 -0.0652 9e-3 -0.13723 0.0491-0.20245 0.065-0.0406 0.0104-0.0872 7e-3 -0.12813 0.0169-0.0475 0.0104-0.37123 0.12425-0.4043 0.14451-0.0648 0.0398-0.1524 0.16636-0.18196 0.2352-3e-3 0.15264 0.07 0.39114 0.0679 0.45227-5e-3 0.11757-0.0836 0.20365-0.014 0.33233l0.0948 0.0966c0.096-0.0136 0.20107-0.0412 0.28963-0.0808 0.0798 0.0464 0.1582 0.0956 0.23575 0.14569l0.12817-8e-3c0.19544-0.19457 0.20586-0.762 0.42418-0.87352 0.0361-0.0784 0.0307-0.16162 0.0157-0.24279-0.0263-0.14297-0.13731-0.2885-0.2937-0.28553zm1.6107 0.0351c-0.0209 6.1e-4 -0.0428 3e-3 -0.0656 8e-3 -3e-3 0.35046 0.51721 0.79771 0.47217 1.1649l-0.10824 0.0972-0.14804 0.024-0.0744 0.1457c0.0699 0.0644 0.1379 0.13175 0.20246 0.20184l-0.034 0.1457c-0.0728 0.0545-0.14653 0.13339-0.19545 0.21004l0.0538 0.12929 0.12111 0.0896c0.13647 0.0392 0.33355-5e-3 0.4248-0.12169 0.0297-0.0385 0.0385-0.10564 0.0672-0.14569 0.0474-0.0659 0.14783-0.13365 0.20828-0.19367 0.0887-0.0271 0.24659 3e-3 0.31711 0.0644l0.10115-0.0562 0.0134-0.17787-0.0744-0.11351 0.02-0.10473c0.0848-5e-3 0.21185-0.0489 0.27674-0.1053l0.0364-0.1135c0.0592-0.1868-0.0614-0.29445-0.1843-0.41248-0.0298-0.0288-0.0677-0.0738-0.10115-0.0966-0.0879-0.06-0.20334-0.086-0.29606-0.13749-0.0666-0.0369-0.22233-0.12989-0.22233-0.12989-0.10275-0.0597-0.21272-0.0809-0.31712-0.12929-0.17278-0.0802-0.29185-0.2489-0.49379-0.24223zm-5.8321 0.5143c-0.0727 2e-3 -0.14363 0.0222-0.19718 0.0597l-0.0205 0.17786c0.0104 0.0139 0.074 0.10677 0.0808 0.11351l0.24924 0.16968c0.0494 0.0227 0.12254 0.0326 0.17555 0.0485 0.18521 0.0554 0.50777 0.18003 0.6939 0.0896 0.0617-0.03 0.16912-0.15913 0.20244-0.21823l-0.0878-0.11349c-0.12941-0.0395-0.24863-0.0292-0.37738-0.0485-0.15985-0.0239-0.31115-0.10125-0.4517-0.17786l-0.0134-0.024c-0.0649-0.0532-0.16054-0.0791-0.25395-0.0761zm-4.3612 3e-3 -0.11465 0.0808c-0.0655 0.14091-0.19838 0.73401-0.18196 0.88114 5.9e-4 5e-3 0.0492 0.11719 0.0537 0.12931 0.15667 0.0158 0.22263-0.13059 0.40429-0.0966 0.04 0.088 0.0783 0.17712 0.11467 0.26679 0.0791 0.0435 0.1631 0.1096 0.22233 0.17787 0.14457 0.0507 0.33485 0.0457 0.46456-0.041 0.0712-0.0473 0.14226-0.13556 0.20888-0.19364 0.14578-0.29766-0.20851-0.54498-0.42477-0.6711l-0.0129-0.0484c-0.27103-0.15531-0.51341-0.0306-0.62664-0.42069zm12.217 0.85714-0.0672 0.1369 0.0467 0.1375c0.0822 0.0209 0.19944 0.0917 0.24926 0.16206l0.14862-0.0164 0.0199-0.17727v-5.9e-4c-0.0624-0.086-0.14491-0.14739-0.21533-0.22643zm-10.532 0.42827-0.14862 0.0321-0.0532 0.1293c0.15412 0.12214 0.2185 0.29292 0.28962 0.46923l0.14802 0.0726 0.10115-0.0966-5.7e-4 -5.6e-4c-1e-3 -0.28318-0.0374-0.4995-0.33642-0.60615zm-4.2928 0.71966-0.10768 0.0972-0.14157 0.024-0.10767 0.0972-0.034 0.15388c0.25137 0.0577 0.38289-0.0274 0.53944-0.21063l7e-3 -0.11287-0.0474-0.0486zm2.5738 0.25041c-0.0743 0.0254-0.15813 0.0384-0.23579 0.0485l-0.0737 0.13749c-0.0159 0.0816 0.0182 0.22464 0.0808 0.28318 0.13334 0.0227 0.30629-0.0301 0.3844-0.14568l7e-3 -0.1375c-0.0381-0.066-0.0984-0.1419-0.1615-0.18605zm3.6726 0.12989-0.0672 0.024-0.0872 0.12171 0.0468 0.12932 0.15506 0.0643c0.0262 0.0763 0.12057 0.17298 0.19541 0.20242l0.1211-0.0731c-3e-3 -0.0168-0.0235-0.12844-0.0271-0.13749-0.0262-0.0628-0.0913-0.13784-0.12988-0.19659-9e-3 -0.0148-0.0113-0.0255-0.0246-0.0375-7e-3 -6e-3 -0.16418-0.087-0.18252-0.0972zm8.2888 0.024-0.11468 0.0972c-0.0454 0.099-0.0731 0.23076-0.0744 0.33935l0.10768 0.0567c0.0756-0.0276 0.17206-0.11439 0.20827-0.18606l6.1e-4 -0.10474v-0.16147zm-7.2035 0.1457c-0.0552 0.0324-0.1984 0.0206-0.25625 8e-3l-0.0404 0.1457c0.0484 0.0774 0.10054 0.15259 0.15507 0.22583l0.18195 0.0164 0.0743-0.1375c5e-3 -0.0809-0.0508-0.208-0.11467-0.2586zm-5.5237 1.8325c-0.0437 1e-3 -0.0852 9e-3 -0.12288 0.0271l-0.0808 0.13749c0.0823 0.039 0.17405 0.11277 0.22879 0.18605l-0.0404 0.18606 0.12813 0.0896c0.16211 2e-3 0.28359-0.1388 0.30306-0.29138-7e-3 -0.0891-0.0377-0.19606-0.0814-0.27439-0.0987-0.022-0.22296-0.0625-0.33466-0.0597zm-2.0028 2.1537-0.13516 0.0567-0.0403 0.17787c0.0425 0.0681 0.17112 0.15541 0.24923 0.16967 2e-3 0 0.32038-6e-3 0.33058-8e-3 0.0423-7e-3 0.10023-0.0342 0.14159-0.0484l0.0667-0.1375-0.0602-0.12872c-0.0857-0.0331-0.19768-0.0536-0.28961-0.0491-0.0256 0.0235-0.0797 0.0433-0.11469 0.0411z" fill="#c60c31" stroke="#c60c31" stroke-miterlimit="3.9773" stroke-width=".19471"/>
   <path transform="matrix(1.1322 0 0 1.1322 -564.74 -40.844)" d="m792.72 177.4s6.6807-1.5875 7.243-1.4221 0.69453 1.2568 1.4221 1.4221c0.72761 0.16536 4.4979 0.16536 5.9862-0.0331 1.4883-0.19843 3.7042-0.0992 4.9609-0.0661s2.8443-0.56224 4.3656-0.56224c1.5214 0 5.0271 0.29765 6.8461 0.0331 1.819-0.26458 4.2664-0.79375 8.3344-2.4805s8.5659-3.1419 12.667-2.6458c4.101 0.49609 9.062-0.0661 11.046-1.1576 1.9844-1.0914 24.312-5.0202 24.312-5.0202l55.752-160.52-245.46-0.37418s67.82 179.65 68.054 179.7c0.23386 0.0468 31.805-4.4434 32.132-4.4901 0.3274-0.0468 2.3383-2.3799 2.3383-2.3799z" clip-path="url(#clipPath21289)" filter="url(#filter21293)" opacity=".356"/>
  </g>
 </g>
</svg>
