<?xml version="1.0" encoding="UTF-8"?>
<!-- Created with Inkscape (http://www.inkscape.org/) -->
<svg width="1920" height="1080" version="1.1" viewBox="0 0 508 285.75" xmlns="http://www.w3.org/2000/svg">
 <defs>
  <clipPath id="clipPath27177">
   <path d="m852.33 177.97c-2.6711 0.67833-6.0151 1.487-7.4776 1.7529-2.3152 0.42094-7.9514 1.5905-9.7053 2.4324-1.754 0.84189-11.582 4.4106-12.657 4.7248-1.0749 0.3142-1.8356 0.59531-1.9513 1.1079-0.11575 0.51263-1.0087 1.1245-1.7694 1.8356-0.76067 0.71107-3.3404 1.4056-4.5475 1.4718-1.2072 0.0661-1.0749 0.16536-1.8686 0.74414-0.79375 0.57877-1.1906-0.0165-1.7033-0.28112-0.51263-0.26458-0.67799 0.24805-2.5797 0.82682-0.12472 0.038-0.22431 0.0492-0.33538 0.0724-0.0469 0.0444-0.0947 0.0876-0.15349 0.11575-0.24603 0.1178-0.73797 0.13332-0.89916 0.19999-0.21299 0.0881-0.30101 0.26-0.57671 0.24288-0.10932 0.2368-0.31099 0.3275-0.18447 0.62115 0.0867 0.0521 0.19103 0.059 0.27956 0.10697 0.0419 0.0235 0.0719 0.061 0.11213 0.0858 0.0405 0.0245 0.0882 0.035 0.13179 0.0574 0.15171 0.0799 0.26818 0.21389 0.39272 0.32866v0.14263l-0.13745 8e-3c-0.14983-0.0919-0.55287-0.27733-0.72035-0.19275l-0.0362 0.078c0.0254 0.12157 0.12298 0.20772 0.17881 0.31471 0.12134 0.23204 0.093 0.59666-0.10748 0.77825-0.22405 0.20308-0.35247 0.074-0.30956 0.47129l-0.0775 0.10697-0.16124-0.014c-0.0928-0.0813-0.16508-0.18867-0.20206-0.30696l0.0538-0.14262c0.20897-0.1025 0.38251-0.28886 0.35708-0.53589-0.0285-0.27572-0.39187-0.61759-0.4341-1.0144-0.0671-0.63754 0.32485-0.67649 0.014-1.5493-0.0583-0.16021-0.0193-0.33834-0.17933-0.45011-0.045 8e-3 -0.0909 0.0118-0.13589 0.0212-0.13618 0.0349-0.17584 0.54922-0.58963 0.69246l-0.0899-0.0925c0.0419-0.25098 0.45696-0.72815 0.44649-0.83561-0.0236-0.23807-0.12976-0.26521-0.20773-0.4501-0.0688-0.16492-0.11525-0.45039-0.28578-0.54984-0.12557-0.0733-0.4382-0.0683-0.57155-0.0139-0.25834 0.10531-0.24738 0.64542-0.4346 0.68574-0.0374 8e-3 -0.0763 0.0117-0.11367 0.014-0.20357-0.2935 0.2753-0.573-0.45839-0.99994-0.014-0.0836-0.0296-0.16639-0.0656-0.24288l-0.10181 0.0362c-0.0598 0.11992-0.17208 0.27754-0.17208 0.41393 0 0.09 0.0539 0.17321 0.0357 0.26458-0.0331 0.16775-0.24238 0.2631-0.37518 0.3421l-0.15451-0.0139c-0.0645 0.11568-0.16164 0.26271-0.18447 0.39274-0.0374 0.2045-0.0596 0.37554-0.20206 0.54312l-0.11835-8e-3c-0.10464-0.29535 0.24416-0.73808-0.13642-0.91415-0.12131-0.18753 1.3e-4 -0.44436-0.12401-0.63562-0.0973-0.14488-0.37933-0.15212-0.5235-0.3142-0.15264-0.17152-0.29213-0.3634-0.3674-0.58342-0.0271-0.0787-0.0417-0.21919-0.091-0.28112-0.0254-0.0321-0.0542-0.0649-0.0842-0.0925-0.1482-0.14064-0.38765-0.23543-0.55346-0.37104-0.10036-0.0814-0.18629-0.18471-0.30334-0.24288-0.12441-0.0619-0.32142-0.0639-0.45837-0.0574l-0.0718 0.0713 0.0837 0.093c0.26567 0.0457 0.51779 0.2401 0.51779 0.53537 0 0.053-0.0243 0.10342-0.019 0.15709 0.014 0.16114 0.0259 0.17541-0.0238 0.3359 0.21039 0.64343 0.62312 0.0624 1.0232 0.74983l-0.0243 0.12867-0.12403 0.0429c-0.0778-0.0269-0.61058-0.16921-0.61339-0.17156-0.0388-0.0349-0.0628-0.086-0.0972-0.12506-0.0749-0.0841-0.1641-0.15286-0.23667-0.23926-0.176-0.20945-0.32002-0.441-0.63045-0.32143l-0.03 0.13591c0.0733 0.18612 0.31681 0.20577 0.44596 0.33796 0.13475 0.13734 0.17118 0.34206 0.31006 0.47594 0.0671 0.065 0.15886 0.0893 0.2377 0.13591 0.15833 0.0928 0.3365 0.30252 0.42273 0.46406 0.15407 0.28897 0.16661 0.6423 0.36896 0.90743v0.14263l-0.10747 0.0646c-0.0464-0.0118-0.0962-0.0216-0.14264-0.0362-0.10348-0.0352-0.30681-0.50803-0.39844-0.62115-0.0509-0.0629-0.11374-0.1146-0.15449-0.18552-0.0554-0.0957-0.16303-0.37559-0.26821-0.40669-0.0464-0.0141-0.0957-0.019-0.1421-0.0284-0.36386 0.14914-0.0693 0.41276-0.10697 0.55707-0.014 0.0372-0.0283 0.0717-0.0419 0.10697-0.46755 0.21322-0.25532 0.73349-0.28525 1.1214 0 0.10979-0.0644 0.21239-0.10181 0.31419-0.0615 0.16727-0.12409 0.35332-0.27956 0.45682l-0.13023-8e-3 -0.0837-0.0863c-0.0313-0.16586-0.0795-0.34178-0.10181-0.50695-0.0188-0.1331-0.014-0.2834-0.0357-0.41393-0.0299-0.15196-0.14377-0.34602-0.10178-0.50746 0.0764-0.29343 0.557-0.45841 0.43457-0.77825-0.0285-0.0749-0.0914-0.13095-0.1302-0.19998-0.12438-0.21462-0.0522-0.27932-0.29765-0.38551-0.20402 0.14205-0.21035 0.39862-0.52351 0.23564-0.22262-0.39152 0.28557-0.65364 0.33901-0.78548 0.0188-0.0469 0.0373-0.0951 0.0537-0.14314 0.0236-0.0653-0.0631-0.17659-0.0961-0.22841-0.0236-0.0335-0.0385-0.0703-0.0656-0.10025-0.0942-0.10347-0.27178-0.13511-0.40516-0.12144-0.17904 0.0189-0.60219-0.026-0.71416 0.0357 0.0598 0.10746 0.15446 0.18983 0.22066 0.29301l-0.0599 0.0925c-0.34602 0.0829-0.63413-0.57461-1.2201 0.0429l0.12558 0.0574c0.13475-0.0212 0.29352-0.0728 0.42841-0.0284 0.0881 0.0287 0.3333 0.27027 0.3333 0.36432 0 0.053-0.0138 0.10481-0.0185 0.1571-0.19767 0.1649-0.31914 0.0575-0.54157-0.0139l-0.11367 0.0429c0 0.0189-0.0169 0.10872-0.0145 0.12144 0.0568 0.17479 0.47133 0.34615 0.63717 0.46406 0.014 0.0771 0.0642 0.15946 0.1297 0.19998 0.17153-0.0287 0.33033-0.10267 0.49403-0.15709 0.41251 0.13569 0.24244 0.38809 0.0543 0.62115 0.0271 0.0657 0.10329 0.12278 0.16639 0.14986l0.0419 0.1142c-0.0405 0.0768-0.10917 0.12916-0.1664 0.19276-0.21722 0.24237-0.23085 0.47556-0.63098 0.39274l-0.10181 0.0641v0.13591c0.14349 0.16326 0.32018 0.0266 0.50591 0.23564v0.13591c-0.0959 0.0645-0.41751 1.1e-4 -0.66609 0.13591-0.0405 0.095-0.0633 0.19679-0.0661 0.29972-0.29022 0.0733-0.41455-0.077-0.38656-0.35708l-0.10747-0.0791-0.13179 0.0289c-0.37597 0.35588-0.033 0.72013 0.22016 0.99994 0.0388 0.0443 0.25011 0.37927 0.25011 0.42116 0 0.0504-0.0143 0.10015-0.0191 0.14987l-0.13592-0.0284c-0.14983-0.15313-0.31313-0.30246-0.50591-0.39997-0.0928 0.0285-0.1965 0.0264-0.29143 8e-3 -0.10348 0.14371-0.22352 0.26206-0.32764 0.39997l-0.10181 0.0357c-0.0898-0.13052-0.0882-0.20966-0.13176-0.34985-0.0436-0.14206-0.1183-0.20538-0.0481-0.37103 0.27528 0.0353 0.45363 0.0337 0.57156-0.26459-0.0299-0.0726-0.24025-0.37773-0.23204-0.42116l0.0357-0.17157c0.0236-0.10838 0.43712-0.41436 0.45837-0.82113 0-0.0426-0.11809-0.29044-0.14211-0.34986-0.19153-0.45775-0.0387-0.70526-0.11369-1.0573-0.1828-0.13925-0.19011-0.29552-0.0961-0.493-0.0688-0.0317-0.14935-0.0265-0.22166-0.01-0.38 0.0914-0.17987 0.47333-0.20672 0.73794-0.0188 0.16987-0.0793 0.27499-0.0537 0.45733 0.0188 0.12603 0.0929 0.23627 0.10179 0.36432 0.014 0.13406-0.0867 0.64923-0.14211 0.77101l-0.10801 0.0713c-0.0733-0.0474-0.17105-0.10838-0.25579-0.12816-0.24273-0.0568-0.56113 0.27978-0.73174-0.0289 0.0241-0.26304 0.24612-0.41737 0.19069-0.69246-0.0236-4e-3 -0.4966 0.0678-0.54777 0.0785-0.10033 0.21157-0.35044 0.23906-0.45836 0.42168 0.0869 0.55295 0.34123 0.18516 0.49403 0.55656-0.0328 0.15714-0.1242 0.1993-0.1845 0.32866-0.051 0.11095-0.15269 0.44028-0.1607 0.55707l0.0661 0.10026c0.10766 0.01 0.21588 8e-3 0.32142 0.0284 0.14372 0.0311 0.27715 0.10627 0.41031 0l0.11369 0.0786 0.03 0.12867c-0.24577 0.27345-0.37999 0.11081-0.62529 0.0434-0.0388-0.0118-0.2382 2e-3 -0.29146 8e-3l-0.0537 0.0646c0.0764 0.23817 0.31059 0.23161 0.36896 0.62839l-0.0842 0.0501c-0.15222-0.0679-0.20204-0.29462-0.38656-0.30024l-0.0765 0.10025-0.10181-0.0212c-0.15666-0.23681 0.0508-0.52995-0.22635-0.69298-0.23275 0.23849-0.0188 0.57194-0.42219 0.83561-0.0702 0.046-0.15426 0.0645-0.22633 0.10697-0.0719 0.0426-0.13594 0.0957-0.20825 0.13591-0.045 0.35093 0.19068 0.29595 0.19068 0.59273 0 0.27488-0.12157 0.52835-0.1788 0.79271l0.0884 0.0925 0.13589 0.0289c0.10909-0.0486 0.18669-0.13424 0.24238-0.23823 0.0299-0.0552 0.0686-0.1082 0.0852-0.16898 0.0794-0.29039-0.28345-0.62855 0.0661-0.87126 0.0212 0.0697 0.064 0.14312 0.12507 0.18552 0.0898-0.0189 0.18478-4e-3 0.27387-0.0289 0.15412-0.0426 0.24558-0.11615 0.41084-0.0207 0 0.0914-0.0273 0.20975-0.0899 0.27802 0.0988 0.13829 0.302 0.12396 0.37518 0.2005 0.0615 0.065 0.0314 0.25362 0.0465 0.34262 0.0749 0.029 0.14931 0.0957 0.17828 0.17105-0.18164 0.50949-0.75988-0.20012-1.1482 0.14314-0.30372 0.26841-0.033 0.94856 0.61288 0.80719 0.20119-0.0442 0.29922-0.17064 0.44649-0.21446 0.18587-0.0552 0.34935 0.0397 0.51159-0.12144 0.1496-0.14866 0.12288-0.55302 0.32761-0.63562 0.12134-0.0488 0.22307-0.0742 0.33332-0.14986 0.0987 0.12746-1.3e-4 0.27375 0.0185 0.41393 0.0164 0.12887 0.13634 0.20468 0.13798 0.34985-0.0824 0.0952-0.21121 0.14359-0.27389 0.25683 0.099 0.35332 0.65476 0.43331 0.65476 1.0692 0 0.19131-0.0494 0.33875-0.1788 0.48111v0.0569c0.0643 0.0787 0.019 0.49472-0.014 0.59996l0.0775 0.0713c0.0719-0.0469 0.1257-0.13271 0.14832-0.21445l0.1664 0.0212c0.0598-0.0683 0.10673-0.14965 0.13642-0.23565 0.18706-0.10953 0.43973-0.11991 0.58343-0.24339l-0.03-0.12144c-0.11215-0.0771-0.21854-0.17206-0.35139-0.21446-0.18214-0.27255 0.15759-0.38711 0.23201-0.5426-0.10766-0.29945-0.66365-0.71009-0.6723-1.1498l0.0775-0.10697c0.13615 0.0305 0.30483 0.097 0.44027 0.0357 0.13171-0.25585 0.0463-0.93006 0.36898-1.078 0.16489-0.0757 0.38069 0.0854 0.45268 0.22841-0.0188 0.0987-0.0241 0.2001-0.014 0.29973l0.0837 0.0997c0.12131 0.0141 0.28112 0.11796 0.29144 0.25063 0.014 0.12676-0.16134 0.44573-0.20825 0.58498 0.0327 0.0757 0.0792 0.1474 0.0956 0.22893 0.0419 0.21956-0.27745 0.74192-0.20207 0.86403 0.0236 0.0358 0.0525 0.067 0.078 0.10025 0.19743-0.16326 0.20156-0.42561 0.52348-0.32143 0.0509-0.0189 0.1851-0.0721 0.22066-0.10697 0.16518-0.16327 0.58349-1.0586 0.601-1.2857-0.12441-0.19247-0.19402-0.2395-0.14832-0.48524l0.10593-0.0646c0.0733 0.0376 0.15129 0.0696 0.23255 0.0863 0.29368-0.17385 0.11956-0.42598 0.3633-0.5643l0.11832 0.0362c0.0702 0.10228 0.10882 0.22203 0.18399 0.32091 0.0928 0.0118 0.19418 0.0555 0.26199 0.12144v0.14263c-0.23323 0.0864-0.517 0.56731-0.29147 0.77153 0.099 0.0895 0.32375 0.082 0.45218 0.0925 0.0583 0.13783 0.22423 0.25576 0.3271 0.36432-0.0824 0.3592-0.51683 0.16788-0.59478 0.54312 0.16632 0.11874 0.36142 0.13898 0.52967 0.24236 0 0.10087-0.0214 0.1999-0.019 0.30024 0 0.28617 0.30945 0.60598 0.14211 0.8785l-0.11938 0.0424c-0.13616-0.0452-0.22043-0.16381-0.37465-0.16381-0.18376 0-0.34052 0.11203-0.52967 0.0925-0.0973 0.0773-0.19262 0.19115-0.19638 0.32143 0 0.13099 0.0821 0.24347 0.0956 0.37155 0.0188 0.17176-1.1e-4 0.3766 0.0418 0.5426 0.014 0.0596 0.0689 0.1799 0.12454 0.20723 0.22098 0.10932 0.44032-0.25063 0.74983 0.0496-0.0299 0.2741-0.073 0.2776-0.27958 0.43563-0.0659 0.051-0.33184 0.29179-0.35087 0.3576-0.10488 0.36054-0.03 0.34622 0.10025 0.64957 0.0164 0.036 0.0449 0.0681 0.0537 0.10697 0.014 0.0472 0 0.0953 0 0.14263 0 0.08 0.17172 0.37798 0.23204 0.43563 0.3125 0.29854 0.52377-0.13899 0.69607-0.32866 0.14655-0.16067 0.38877-0.38094 0.56586-0.48524 0.13002-0.0771 0.45429 0.0213 0.60669 0.0284 0.10173 8e-3 0.20328-8e-3 0.30332 0.0139l0.0661 0.0997c-0.12721 0.20731-0.27889 0.17149-0.48781 0.15761-0.0838 0.29723-0.17592 0.37314-0.49403 0.3638-0.17645 0.15243-0.39021 0.45976-0.52401 0.54312-0.11072 0.0693-0.57933 0.14002-0.61288 0.185-0.13922 0.18777 0.0836 0.30538 0.14211 0.44287l-0.11988 0.0501-0.15452-0.0212-0.11832 0.0501c0.0388 0.20472 0.15925 0.15968 0.27956 0.2713 0.17597 0.1635 0.1152 0.3302 0.39275 0.42168 0.27059 0.089 0.39862-0.0773 0.73792 0 0.0405 0.01 0.29779 0.21083 0.32144 0.2496 0.042 0.0673 0.0534 0.17234 0.046 0.25011-0.25144 0.19201-1.1494 0.28238-1.3332 0.4284l-0.0538 0.14986c0.0299 0.0723 0.0453 0.15543 0.0884 0.22118 0.11684 0.17362 0.36184 0.13565 0.54157 0.15709 0.11687 0.0141 0.22739 0.059 0.34521 0.0646 0.0959 4e-3 0.19095-0.0165 0.28575 0l0.0894 0.0858-0.014 0.1571c-0.10766 0.0645-0.22601 0.11051-0.34521 0.14986l-0.0475 0.11472c0.23693 0.37145-0.0825 0.45401-0.23823 0.65681-0.13169 0.17104-0.22797 0.56758-0.25787 0.78341-0.0419 0.30835 0.161 0.40244 0.14523 0.57361 0.16278 0.15007 0.45739-0.0881 0.64852 0 0.12558 0.0575 0.11412 0.20847 0.185 0.30696 0.0973 0.13429 0.22088 0.23239 0.26149 0.40721l-0.10179 0.0713c-0.13925-0.0271-0.23553-0.13622-0.32713-0.23564-0.32207-0.0283-0.30548 0.18964-0.50591 0.34985-0.27014 0.0211-0.42103 0.22407-0.57774 0.24288-0.0959 0.0118-0.1905-0.0212-0.28525 8e-3 -0.0778 0.16184-0.26061 0.50042-0.29816 0.66456l0.0661 0.10697 0.1297-0.0284c0.0236-0.0719 0.12274-0.34178 0.20825-0.34985 0.23675-0.0235 0.51544-0.033 0.73845 0.0496 0.14089 0.33879 0.43294-0.0313 0.77359 0.16381 0.11076 0.0636 0.28771 0.5583 0.46408 0.70694 0.20566 0.1734 0.44582 0.0734 0.63664 0.293l0.0243 0.12816c-0.0615 0.11237-0.1865 0.16299-0.27389 0.25012 0.0436 0.10312 0.1035 0.39773 0.18449 0.45681 0.13475 0.0992 0.33793 0.13778 0.41082 0.31471 0.14655 0.35585-0.13621 0.64244 0.38656 0.89969 0.0671 0.0337 0.13962 0.0867 0.22066 0.0641l-0.11991-0.0357c0.11827 0.0165 0.33377 0.0393 0.44648 8e-3 0.13618-0.0396 0.2321-0.0872 0.38087-0.0997 0.0897-8e-3 0.18854 0.0142 0.27387-0.0212 0.23418-0.0975 0.37118-0.34105 0.55914-0.493 0.13619-0.10954 0.33367-0.0898 0.49456-0.12816 0.0852-0.0211 0.38317-0.15455 0.45784-0.2005 0.13171-0.0808 0.24902-0.22393 0.40516-0.27854 0.0912-0.0316 0.18634-0.014 0.27955-0.0284 0.1482-0.0235 0.32589-0.1278 0.42842-0.23564 0.0254 0.0591 0.054 0.11685 0.0899 0.17105-0.0235 0.0966-0.0508 0.19177-0.0837 0.28577-0.11073 0.0521-0.20616 0.13111-0.31575 0.18551-0.11214 0.0558-0.23839 0.0806-0.3514 0.13592-0.0733 0.036-0.13475 0.0927-0.20825 0.12867-0.31086 0.15171-0.81722 0.16339-1.0712 0.37827-0.16068 0.13571-0.24445 0.37433-0.38034 0.54312-0.13475 0.0331-0.2786 0.0628-0.41703 0.0362-0.0568-0.0118-0.11369-0.044-0.17259-0.0434-0.28784 4e-3 -0.97718 0.21112-1.2682 0.30696-0.13311 0.0438-0.27651 0.0258-0.41031 0.0646-0.0794 0.0235-0.14968 0.0658-0.22014 0.10697l-0.0661 0.12816c0 0.0824 0.0282 0.16504 0.0718 0.23616-0.014 0.22192-0.19034 0.32828-0.29146 0.49971-0.0285 0.0476-0.0763 0.24553-0.0718 0.29972 0 0.0422 0.0236 0.0804 0.03 0.12196 0.0313 0.19132-0.0733 0.38911 0 0.57826 0.30321 0.16304 0.4754-0.23806 0.76171-0.2713 0.21791-0.0255 0.49255 0.16652 0.6904 0.25011 0.23667 0.0997 0.53647 0.19501 0.79169 0.22118 0.3134 0.0325 0.44828-0.14894 0.70228-0.26407 0.13616-0.0619 0.30353 0.023 0.44649 8e-3 0.18894-0.0212 0.38735-0.19702 0.53536-0.29972 0.11684-0.0808 0.396-0.0849 0.48834 0.0356 0.0374 0.048 0.0668 0.18101 0.0775 0.24288-0.23635 0.30706-0.45101 0.0269-0.62476 0.38551 0.0331 0.10132-8e-5 0.34543-0.10181 0.40049-0.0436 0.0235-0.62961 0.0616-0.70848 0.0568-0.1093-8e-3 -0.21304-0.0451-0.32144-0.0568-0.25501-0.0279-0.97877 0.13743-1.0475 0.42116-0.014 0.0504-0.0137 0.1055-0.0185 0.1571 0.12134 0.10932 0.40206 0.16111 0.55965 0.22118 0.21606 0.0829 0.40119 0.22275 0.601 0.33537 0.19577 0.11026 0.43138 0.17454 0.58343 0.34986 0.0188 0.0235 0.11692 0.32652 0.11835 0.36431 0 0.10228-0.0362 0.19943-0.0424 0.30024 0 0.0975 1.8e-4 0.19567-0.014 0.29249l-0.1075 0.0646c-0.1093-0.18917-0.37496-0.45164-0.601-0.47853-0.16253-0.0189-0.35764 0.0899-0.5121 0.13591-0.21696 0.0641-0.61293-2e-3 -0.70797 0.26407-0.0733 0.20402 0.17132 0.75411-0.22633 0.90744-0.18896-0.0952-0.2531-0.38607-0.38705-0.46406-0.14232-0.0834-0.36182 0.0243-0.48784 0.0997-0.0778 0.0472-0.33893 0.25556-0.38084 0.32143-0.048 0.0752-0.0735 0.16364-0.13799 0.22841-0.11072 0.11333-0.27453 0.15385-0.39843 0.25011-0.0942 0.0735-0.16198 0.19381-0.26768 0.25012-0.19492 0.10391-0.38505 0.18829-0.56946 0.2992 0.0513 0.0287 0.11647 0.0542 0.16483 0.0832 0.99219 0.59531 3.2742 1.3891 4.8948 0.99219 1.6206-0.39687 4.6302-2.4805 5.9201-4.2333 1.2898-1.7529 6.5154-8.7312 7.8052-10.087 1.2898-1.356 4.1672-8.0036 4.7956-9.0289 0.62838-1.0253 8.5659-7.9044 11.774-9.1612 3.2081-1.2568 4.5641-2.6789 9.9219-1.4552 4.2946 0.98086 11.283 5.5034 13.983 7.3215-0.0185-0.12037-0.0444-0.2376-0.0331-0.36845 0.0164-0.20379 0.11258-0.39997 0.0842-0.6072-0.0492-0.3543-0.30509-0.6847-0.42839-1.0144-0.11687-0.3121-0.22818-0.62647-0.33383-0.94258-0.0388-0.11567-0.10593-0.2227-0.12972-0.34313-0.0188-0.0921-0.0357-0.15336-0.0656-0.24236-0.0881-0.26421-0.0648-0.52311-0.0842-0.79272-0.0188-0.2604-0.12517-0.50076-0.1478-0.75034-0.0388-0.42646 0.0417-0.84793 0.0185-1.2712-0.014-0.26692-0.0941-0.55915-0.0418-0.82114 0.0808-0.40342 0.37578-0.51917 0.37518-0.74983 0-0.17057-0.23911-0.4183-0.34883-0.5426-0.045-0.0509-0.0734-0.11551-0.12142-0.16381-0.16634-0.16775-0.41545-0.31856-0.49972-0.55759-0.0584-0.16726-0.0273-0.27568-0.12454-0.47801-0.10908-0.22357-0.31562-0.38128-0.42891-0.59996-0.51036-0.9851 0.0512-1.2562-0.1075-1.9141-0.13169-0.54699-0.41056-0.80656-0.70229-1.25-0.11213-0.1701-0.17245-0.36664-0.27336-0.5426-0.79277-0.19154-0.61685-1.215-1.0656-1.771-0.054-0.0662-0.12732-0.10991-0.19068-0.16433-0.29097-0.24733-0.58764-0.62381-0.76171-0.96429-0.15103-0.29552-0.12282-0.64852-0.32145-0.92862-0.22693-0.32087-0.55438-0.52439-0.80047-0.81597zm-55.112 10.716-0.0894 0.0785c-0.0338 0.0781-0.0461 0.19524-0.03 0.27854 0.045 0.12258 0.2254 0.195 0.34573 0.1571l0.077-0.10026c0.0393-0.12128-0.0537-0.31402-0.0537-0.31419l-0.0889-0.0858zm-5.3506 5.3061-0.11938 0.0501-0.0651 0.12144 0.0238 0.12867 0.0894 0.0858c0.0693-0.01 0.16886-0.0704 0.20825-0.12867-9e-3 -0.0595-0.0177-0.119-0.0238-0.1788zm-1.5772 3.9853c-0.37111 0.34006-0.57394 0.13011-0.72605 0.25011l0.0119 0.0997c0.1515 4e-3 0.3016-0.0159 0.45217 7e-3 0.0663-0.0434 0.13735-0.0937 0.20826-0.12867 0.0454-0.0225 0.0971-0.0337 0.14314-0.0568l0.0119-0.14986zm5.4054 2.0288c-0.0201 7.9e-4 -0.0404 3e-3 -0.061 7e-3 -0.0716 0.0135-0.16283 0.0622-0.22014 0.10697-0.1144 0.0899-0.32228 0.41648-0.3452 0.55707-0.0138 0.0848 0.0561 0.42912 0.0832 0.52142 0.0114 0.0386 0.0362 0.0755 0.0476 0.1142 0.0445 0.15116 0.0802 0.3645 0.0832 0.52142 3e-3 0.0879-0.0106 0.1847 0 0.2713 5e-3 0.0427 0.0479 0.51455 0.0419 0.54984-0.014 0.0856-0.0644 0.1991-0.11316 0.2713l6e-3 0.14314 0.13073 0.0568c0.0926-0.0779 0.17475-0.18654 0.29818-0.21394l0.13073 0.0713c-4e-3 0.12866-0.0991 0.23999-0.19637 0.31419-0.0323 0.0247-0.0777 0.0442-0.10697 0.0713-0.093 0.0865-0.16701 0.27026-0.185 0.39274l0.0537 0.11421c0.11131 0.0943 0.25998 0.0493 0.39275 0.0646 0.11509-0.0688 0.15269-0.2024 0.26767-0.2713l0.13126 0.0646c0.0346 0.1223 0.0138 0.29418-0.0594 0.39946-0.0445 0.0642-0.11779 0.11177-0.1664 0.19327l-0.0124 0.12144c0.0861 0.0948 0.20399 0.19375 0.33901 0.19275 0.0885-0.0828 0.15269-0.21025 0.26768-0.25735h0.14882l0.0185 0.12144c0.13028 0.12999 0.30466 0.25473 0.49971 0.20722 0.0612-0.0543 0.10716-0.1936 0.11317-0.2713-0.10547-0.13837-0.30158-0.16276-0.41082-0.30747-9e-3 -0.21507 0.0106-0.46061-0.17262-0.61392-0.0752-0.0629-0.17499-0.11702-0.2558-0.17621-0.0559-0.041-0.10932-0.0857-0.13692-0.15245l0.047-0.14263c0.0634-0.0469 0.14983-0.0875 0.22635-0.10697l0.0299-0.13591-0.0894-0.0858c-0.0821 0.0223-0.22137-3e-3 -0.29146-0.0501l0.0362-0.10697c0.0975-0.0198 0.2726-0.0428 0.35139-0.10025l-0.048-0.1142c-0.25106-0.13112-0.64762 0.0541-0.8754-0.17157l-6e-3 -0.14263c0.16052-0.0873 0.36671-0.0293 0.54157-0.0713v-5.3e-4c4e-3 -0.0137 0.0355-0.11443 0.0357-0.12144 0-0.0201-0.0891-0.46214-0.10131-0.50694-0.0193-0.072-0.10671-0.36376-0.14261-0.44236-0.22461-0.0726-0.34589-0.0677-0.46405-0.293-3e-3 -0.0869 0.0279-0.20614 0.077-0.27853 0.13226-0.0508 0.28964 0.0563 0.41651 0.093l0.0894-0.093c0.0246-0.0708 0.0175-0.19957-0.0238-0.26407-0.14552 9e-3 -0.27967-0.0543-0.42117-0.0496zm1.5694 5.3914c-0.12181 0.0188-0.2032 0.11444-0.33332 0.12144-0.0688-0.0525-0.16729-0.0908-0.24961-0.11421-0.10051-4e-3 -0.19436 0.15578-0.19637 0.24288 0.0132 0.0683 0.078 0.16309 0.13695 0.19999 0.13957 0.0432 0.18444-7e-3 0.29146-7e-3 5e-3 0 0.16111 0.0326 0.17259 0.0357 0.18717 0.0499 0.37042 0.19863 0.57155 0.16433l0.10697-0.0713-0.03-0.12867c-0.0415-0.0636-0.14346-0.12816-0.21445-0.14986-0.018-0.0969-0.0834-0.17665-0.13644-0.25735zm-1.2196 0.85007-0.11319 0.0139-0.0718 0.10749c-0.0769 0.0338-0.17201 0.0581-0.2558 0.0641-0.0637 0.0405-0.12973 0.14286-0.14883 0.21446 0.10141 0.0783 0.24868 0.1666 0.38137 0.1354l0.10128-0.0708c0.0167-0.0488 0.0665-0.12591 0.077-0.15761 0.0291-0.0921 0.0475-0.21086 0.03-0.30696zm-2.22 0.90693-0.10131 0.0641c-0.0289 0.0892-0.0468 0.21388-0.0294 0.30748l0.11266 0.0429 0.11938-0.0429c0.0306-0.0342 0.0942-0.11161 0.10697-0.15761l0.0119 0.0217c-0.0151-0.0789-0.0396-0.16184-0.0713-0.23564zm-3.5538 1.8195c-0.16264 7e-3 -0.30554 0.10199-0.35605 0.26614l0.0294 0.12144 0.12507 0.0145 0.0775-0.10749c0.0637-0.0399 0.18319-0.0552 0.2558-0.0429l0.077-0.0786-0.0295-0.12764c-0.0385-3e-3 -0.0878-0.0205-0.11885-0.0434-0.0204-2e-3 -0.0405-3e-3 -0.0605-2e-3zm-2.1239 2.6727c-0.0691 0.0282-0.14862 0.12356-0.17262 0.19275l0.0476 0.1142c0.0782-0.0183 0.21288 0.0111 0.27389 0.0646 0.074-2e-3 0.1846-0.048 0.23771-0.10025l0.0119-0.11421c-0.0643-0.0597-0.19436-0.1052-0.27956-0.1142zm11.955 3.6282c-0.059 2e-3 -0.12496 0.0189-0.16536 0.0434l-0.0832 0.10645 0.0243 0.12868c0.0851 0.0487 0.20045 0.0814 0.29715 0.093l0.11936-0.0429 0.0357-0.13591c-0.0338-0.0673-0.0954-0.13971-0.15502-0.18552-0.0209-6e-3 -0.046-8e-3 -0.0729-7e-3zm-2.3136 3.2706c-0.13581 0.17633-0.0736 0.38693-0.11316 0.58601l0.0656 0.0997 0.13126 0.0574 0.0594-0.0858 0.0119-0.1571 0.0951-0.0858c0.0521 0.0646 0.12567 0.12846 0.19637 0.17156l0.11885-0.0501c0.023-0.0582 3e-3 -0.16284-0.0294-0.21394l-0.0537-0.0858c-0.13353-0.0157-0.25558-0.10485-0.33901-0.20722zm3.5466 0.99994-0.10644 0.0858-0.03 0.13591c0.01 0.0694 0.0795 0.1628 0.13695 0.19999 0.0704-4e-3 0.17404-0.045 0.22632-0.093l0.0175-0.14986c-0.0308-0.0612-0.0863-0.13177-0.14264-0.17156z" fill="#c60c31"/>
  </clipPath>
  <filter id="filter27185" x="-.025155" y="-.029137" width="1.0503" height="1.0583" color-interpolation-filters="sRGB">
   <feGaussianBlur stdDeviation="2.4668352"/>
  </filter>
 </defs>
 <g>
  <g>
   <path d="m400.27 160.65c-3.0242 0.76801-6.8104 1.6836-8.4661 1.9846-2.6213 0.47661-9.0026 1.8008-10.988 2.754-1.9858 0.95318-13.113 4.9936-14.33 5.3494-1.217 0.35574-2.0782 0.67403-2.2093 1.2544-0.13106 0.58041-1.1421 1.2731-2.0033 2.0782-0.86123 0.80508-3.782 1.5915-5.1487 1.6663-1.3667 0.0748-1.217 0.18723-2.1157 0.84252-0.89868 0.65528-1.348-0.0187-1.9284-0.31829-0.58041-0.29955-0.76764 0.28084-2.9207 0.93614-0.14123 0.0431-0.25397 0.0556-0.37974 0.0819-0.0531 0.0503-0.10722 0.0992-0.17378 0.13107-0.27856 0.13337-0.83553 0.15094-1.018 0.22642-0.24115 0.0998-0.3408 0.29437-0.65295 0.27498-0.12378 0.26812-0.35212 0.3708-0.20886 0.70327 0.0981 0.059 0.21628 0.0668 0.31652 0.12111 0.0474 0.0266 0.0815 0.0691 0.12696 0.0972 0.0458 0.0278 0.0999 0.0396 0.14921 0.0649 0.17176 0.0905 0.30364 0.24216 0.44463 0.37212v0.16147l-0.15561 9e-3c-0.16966-0.1041-0.62597-0.314-0.8156-0.21823l-0.041 0.0884c0.0289 0.13763 0.13925 0.23517 0.20244 0.3563 0.13739 0.26272 0.10529 0.67556-0.12168 0.88115-0.25366 0.22992-0.39907 0.0838-0.35048 0.53359l-0.0878 0.12111-0.18257-0.0157c-0.10506-0.092-0.18689-0.21363-0.22876-0.34754l0.0608-0.16149c0.23661-0.11605 0.43308-0.32704 0.4043-0.60673-0.0322-0.31216-0.44369-0.69924-0.4915-1.1485-0.076-0.72181 0.36781-0.76592 0.0158-1.7541-0.066-0.1814-0.0218-0.38307-0.20304-0.50959-0.0509 9e-3 -0.10296 0.0133-0.15385 0.024-0.15419 0.0395-0.19909 0.62183-0.66758 0.78401l-0.1018-0.10473c0.0474-0.28418 0.51736-0.82443 0.5055-0.9461-0.0265-0.26954-0.14689-0.30025-0.23519-0.50959-0.0779-0.18673-0.13048-0.50993-0.32354-0.62254-0.14218-0.083-0.49615-0.0773-0.64712-0.0157-0.29249 0.11923-0.28009 0.73076-0.49205 0.77642-0.0424 9e-3 -0.0864 0.0132-0.1287 0.0157-0.23048-0.33229 0.31169-0.64874-0.51898-1.1321-0.0159-0.0947-0.0335-0.18838-0.0744-0.27498l-0.11527 0.0411c-0.0677 0.13577-0.19484 0.31423-0.19484 0.46866 0 0.1019 0.061 0.19611 0.0404 0.29954-0.0375 0.18994-0.27443 0.29788-0.42478 0.38733l-0.17494-0.0157c-0.073 0.13096-0.183 0.29744-0.20886 0.44466-0.0423 0.23153-0.0674 0.42518-0.22877 0.61491l-0.134-9e-3c-0.11847-0.33439 0.27645-0.83565-0.15446-1.035-0.13734-0.21232 1.6e-4 -0.5031-0.1404-0.71964-0.11016-0.16405-0.42948-0.17224-0.5927-0.35573-0.17282-0.19421-0.33076-0.41146-0.41597-0.66056-0.0307-0.0891-0.0471-0.24818-0.10306-0.31828-0.0289-0.0364-0.0614-0.0736-0.0954-0.10474-0.16779-0.15923-0.43889-0.26655-0.62662-0.42009-0.11362-0.0921-0.21093-0.20913-0.34345-0.27498-0.14086-0.07-0.3639-0.0723-0.51897-0.0651l-0.0814 0.0808 0.0948 0.10529c0.30078 0.0518 0.58624 0.27185 0.58624 0.60615 0 0.06-0.0275 0.1171-0.0217 0.17787 0.0159 0.18242 0.0292 0.19859-0.0271 0.38029 0.23823 0.7285 0.70551 0.0707 1.1585 0.84897l-0.0275 0.14567-0.14043 0.0485c-0.0882-0.0305-0.69129-0.19158-0.69448-0.19424-0.0439-0.0395-0.0711-0.0974-0.10993-0.14159-0.0848-0.0953-0.1858-0.17307-0.26798-0.2709-0.19925-0.23713-0.36231-0.49929-0.71378-0.36393l-0.0341 0.15389c0.0831 0.21072 0.35871 0.23297 0.50492 0.38266 0.15256 0.15548 0.19382 0.38727 0.35105 0.53885 0.076 0.0737 0.17988 0.10105 0.26914 0.15387 0.17925 0.10506 0.38099 0.34251 0.47862 0.5254 0.17442 0.32718 0.18862 0.72721 0.41772 1.0274v0.16147l-0.12168 0.0731c-0.0526-0.0133-0.10891-0.0245-0.16149-0.041-0.11715-0.0398-0.34738-0.57518-0.45112-0.70327-0.0576-0.0712-0.12876-0.12973-0.17491-0.21004-0.0626-0.10836-0.18459-0.42523-0.30366-0.46045-0.0526-0.0159-0.10835-0.0216-0.16089-0.0321-0.41196 0.16886-0.0784 0.46733-0.12112 0.63072-0.0159 0.0422-0.0319 0.0813-0.0474 0.12112-0.52935 0.2414-0.28909 0.83044-0.32296 1.2696 0 0.12431-0.0729 0.24047-0.11526 0.35573-0.0696 0.18938-0.14049 0.40002-0.31652 0.51721l-0.14745-9e-3 -0.0948-0.0976c-0.0354-0.18778-0.0901-0.38697-0.11527-0.57396-0.0214-0.1507-0.0158-0.32086-0.0404-0.46865-0.034-0.17205-0.16277-0.39177-0.11524-0.57454 0.0866-0.33223 0.63065-0.51901 0.49203-0.88114-0.0322-0.0848-0.10347-0.14827-0.14741-0.22643-0.14081-0.24299-0.0591-0.31625-0.33701-0.43648-0.23099 0.16083-0.23815 0.45133-0.5927 0.26681-0.25206-0.4433 0.32332-0.74005 0.38383-0.88932 0.0214-0.053 0.0422-0.10767 0.0607-0.16207 0.0267-0.074-0.0714-0.19994-0.1088-0.25861-0.0266-0.0379-0.0437-0.0796-0.0743-0.1135-0.10666-0.11715-0.30772-0.15298-0.45873-0.13749-0.20271 0.0214-0.6818-0.0294-0.80857 0.0404 0.0677 0.12167 0.17488 0.21491 0.24984 0.33174l-0.0678 0.10473c-0.39177 0.0939-0.71796-0.65055-1.3814 0.0485l0.14216 0.065c0.15258-0.024 0.33234-0.0824 0.48507-0.0321 0.0998 0.0324 0.37735 0.30601 0.37735 0.4125 0 0.0599-0.0156 0.11865-0.0211 0.17786-0.2238 0.18671-0.36134 0.0651-0.61317-0.0158l-0.12869 0.0486c0 0.0214-0.0192 0.1231-0.0164 0.1375 0.0643 0.1979 0.53363 0.39189 0.7214 0.52539 0.0159 0.0873 0.0727 0.18056 0.14684 0.22643 0.19422-0.0324 0.37401-0.11624 0.55935-0.17787 0.46704 0.15363 0.27449 0.4394 0.0615 0.70327 0.0307 0.0745 0.11695 0.13902 0.18839 0.16967l0.0474 0.12931c-0.0458 0.087-0.1236 0.14623-0.1884 0.21825-0.24593 0.27439-0.26136 0.53841-0.71439 0.44465l-0.11528 0.0726v0.15388c0.16247 0.18485 0.36251 0.0301 0.5728 0.2668v0.15389c-0.10857 0.073-0.4727 1.1e-4 -0.75415 0.15387-0.0458 0.10756-0.0718 0.22281-0.0748 0.33934-0.32859 0.0831-0.46936-0.0872-0.43766-0.4043l-0.12168-0.0895-0.14921 0.0326c-0.42569 0.40291-0.0374 0.81532 0.24926 1.1321 0.0439 0.0502 0.28317 0.42942 0.28317 0.47683 0 0.0571-0.0162 0.11339-0.0217 0.16969l-0.15388-0.0321c-0.16963-0.17338-0.35453-0.34246-0.57279-0.45286-0.10507 0.0322-0.22247 0.0298-0.32996 9e-3 -0.11716 0.16272-0.25308 0.29669-0.37096 0.45285l-0.11526 0.0404c-0.10169-0.14778-0.0999-0.23737-0.14919-0.39609-0.0494-0.16085-0.13393-0.23256-0.0544-0.4201 0.31167 0.04 0.51361 0.0381 0.6471-0.29956-0.034-0.0822-0.27199-0.42766-0.2627-0.47685l0.0404-0.19424c0.0267-0.1227 0.49492-0.46916 0.51897-0.92969 0-0.0482-0.1337-0.32884-0.1609-0.39611-0.21685-0.51826-0.0438-0.7985-0.12871-1.1971-0.20698-0.15766-0.21526-0.33456-0.1088-0.55816-0.0779-0.036-0.1691-0.03-0.25099-0.0113-0.43023 0.10348-0.20363 0.53592-0.23404 0.83549-0.0214 0.19234-0.0898 0.31136-0.0607 0.5178 0.0214 0.1427 0.10519 0.2675 0.11524 0.41248 0.0159 0.15178-0.0981 0.73507-0.16089 0.87295l-0.12229 0.0808c-0.083-0.0536-0.19366-0.12271-0.28961-0.14511-0.27481-0.0642-0.6353 0.31678-0.82847-0.0326 0.0273-0.29779 0.27865-0.47254 0.21589-0.78399-0.0267-5e-3 -0.56225 0.0767-0.62018 0.0889-0.11359 0.23954-0.39677 0.27065-0.51896 0.47743 0.0983 0.62605 0.38634 0.20962 0.55935 0.63012-0.0371 0.17792-0.14062 0.22566-0.20889 0.37212-0.0577 0.12561-0.17287 0.49849-0.18195 0.63073l0.0748 0.1135c0.1219 0.0113 0.24442 9e-3 0.36392 0.0321 0.16272 0.0352 0.3138 0.12033 0.46455 0l0.12872 0.089 0.034 0.14569c-0.27826 0.3096-0.43022 0.12545-0.70795 0.0491-0.0439-0.0133-0.2697 2e-3 -0.32999 9e-3l-0.0607 0.0731c0.0866 0.26965 0.35165 0.26222 0.41773 0.71144l-0.0953 0.0568c-0.17234-0.0769-0.22875-0.33357-0.43765-0.33993l-0.0867 0.11351-0.11528-0.024c-0.17738-0.26812 0.0576-0.60001-0.25627-0.78459-0.26353 0.27001-0.0212 0.64755-0.47801 0.94607-0.0795 0.0521-0.17465 0.073-0.25624 0.12113-0.0815 0.0481-0.15391 0.10834-0.23579 0.15387-0.0509 0.39732 0.21588 0.33507 0.21588 0.67109 0 0.31122-0.13764 0.5982-0.20242 0.8975l0.10013 0.10473 0.15387 0.0326c0.1235-0.055 0.21136-0.15196 0.27442-0.26971 0.034-0.0625 0.0776-0.12251 0.0965-0.19133 0.0899-0.32877-0.32092-0.71164 0.0748-0.98643 0.024 0.0789 0.0725 0.16204 0.1416 0.21004 0.10169-0.0214 0.20921-5e-3 0.31008-0.0326 0.17449-0.0483 0.27805-0.13151 0.46515-0.0234 0 0.10348-0.0309 0.23748-0.10179 0.31477 0.11185 0.15657 0.3419 0.14033 0.42476 0.227 0.0696 0.0736 0.0356 0.28715 0.0527 0.38793 0.0848 0.0327 0.16903 0.10834 0.20184 0.19364-0.20565 0.57685-0.86034-0.22657-1.3 0.16207-0.34387 0.30391-0.0374 1.074 0.6939 0.9139 0.22778-0.0501 0.33877-0.19319 0.5055-0.24281 0.21044-0.0624 0.39555 0.0449 0.57923-0.1375 0.16939-0.16831 0.13912-0.62612 0.37093-0.71963 0.13738-0.0553 0.25256-0.084 0.37739-0.16967 0.11176 0.14431-1.5e-4 0.30991 0.0211 0.46863 0.0186 0.14592 0.15437 0.23175 0.15624 0.39611-0.0932 0.10778-0.23914 0.16257-0.31012 0.29079 0.1121 0.40002 0.74134 0.4906 0.74134 1.2105 0 0.21658-0.0559 0.38352-0.20247 0.5447v0.0642c0.0728 0.0892 0.0215 0.56015-0.0158 0.67929l0.0878 0.0808c0.0815-0.0531 0.14232-0.15027 0.16792-0.24281l0.1884 0.024c0.0677-0.0773 0.12083-0.16941 0.15447-0.26678 0.21178-0.12401 0.49786-0.13577 0.66055-0.27557l-0.034-0.1375c-0.12699-0.0874-0.24745-0.19482-0.39786-0.24281-0.20622-0.30858 0.17844-0.4383 0.26269-0.61434-0.1219-0.33904-0.75139-0.80397-0.76118-1.3018l0.0878-0.12111c0.15416 0.0345 0.34514 0.10982 0.49848 0.0404 0.14912-0.28968 0.0525-1.053 0.41776-1.2205 0.18668-0.0857 0.43101 0.0967 0.51252 0.2586-0.0214 0.11176-0.0271 0.22655-0.0157 0.33936l0.0948 0.11288c0.13735 0.0159 0.31829 0.13357 0.32996 0.28377 0.0159 0.14351-0.18266 0.50464-0.23577 0.6623 0.037 0.0857 0.0897 0.16689 0.10824 0.25921 0.0474 0.24858-0.31412 0.83999-0.22878 0.97825 0.0267 0.0405 0.0595 0.0758 0.0884 0.11351 0.22353-0.18485 0.2282-0.48189 0.59268-0.36393 0.0576-0.0214 0.20958-0.0816 0.24983-0.12112 0.18702-0.18486 0.66063-1.1986 0.68045-1.4557-0.14085-0.21792-0.21966-0.27117-0.16792-0.54938l0.11995-0.0731c0.0831 0.0427 0.17127 0.0787 0.26327 0.0976 0.33253-0.19683 0.13536-0.48229 0.41134-0.6389l0.13396 0.0411c0.0795 0.1158 0.1232 0.25137 0.2083 0.36332 0.10508 0.0133 0.21986 0.0628 0.29663 0.1375v0.16149c-0.26407 0.0979-0.58535 0.6423-0.32998 0.87354 0.11208 0.10125 0.36653 0.0929 0.51194 0.10473 0.066 0.15605 0.25387 0.28958 0.37034 0.41249-0.0932 0.40667-0.58516 0.19006-0.6734 0.61492 0.1883 0.13443 0.40919 0.15736 0.59969 0.27441 0 0.1142-0.0243 0.22631-0.0217 0.33992 0 0.324 0.35036 0.68609 0.16089 0.99464l-0.13516 0.048c-0.15415-0.0511-0.24957-0.18548-0.42418-0.18548-0.20804 0-0.38553 0.12684-0.5997 0.10473-0.11016 0.0876-0.21807 0.21642-0.22233 0.36392 0 0.14831 0.093 0.27567 0.10824 0.42066 0.0214 0.19448-1.2e-4 0.42641 0.0474 0.61435 0.0159 0.0675 0.078 0.20367 0.141 0.23462 0.25019 0.12377 0.49853-0.28375 0.84896 0.0562-0.034 0.31034-0.0826 0.31429-0.31655 0.49322-0.0746 0.0577-0.37571 0.33035-0.39725 0.40487-0.11874 0.40821-0.0341 0.39199 0.1135 0.73545 0.0186 0.0407 0.0508 0.0771 0.0607 0.12111 0.0159 0.0534 0 0.1079 0 0.16148 0 0.0906 0.19441 0.42795 0.26273 0.49323 0.35381 0.338 0.593-0.15737 0.78808-0.37212 0.16593-0.18191 0.44016-0.43129 0.64067-0.54939 0.14719-0.0873 0.51435 0.0242 0.68689 0.0321 0.11518 9e-3 0.23016-9e-3 0.34343 0.0157l0.0748 0.11287c-0.14403 0.23472-0.31577 0.19417-0.55229 0.17845-0.0949 0.33652-0.19919 0.42247-0.55934 0.41189-0.19978 0.17258-0.44179 0.52055-0.59329 0.61493-0.12537 0.0785-0.65591 0.15851-0.69389 0.20946-0.15764 0.21259 0.0947 0.34574 0.16089 0.50141l-0.13574 0.0568-0.17495-0.024-0.13396 0.0568c0.0439 0.2318 0.18031 0.1808 0.31652 0.30717 0.19923 0.18511 0.13043 0.37386 0.44466 0.47744 0.30637 0.10074 0.45134-0.0876 0.83549 0 0.0459 0.0113 0.33716 0.23869 0.36394 0.28259 0.0475 0.0762 0.0604 0.19512 0.0521 0.28317-0.28467 0.21741-1.3013 0.31972-1.5095 0.48505l-0.0608 0.16967c0.034 0.0818 0.0512 0.17595 0.10013 0.25041 0.13226 0.19657 0.40966 0.15358 0.61316 0.17786 0.13231 0.0159 0.25744 0.0668 0.39083 0.0731 0.10858 5e-3 0.2162-0.0187 0.32353 0l0.10114 0.0972-0.0158 0.17786c-0.12189 0.073-0.25587 0.12514-0.39084 0.16968l-0.0537 0.1299c0.26825 0.42054-0.0933 0.51402-0.26973 0.74363-0.1491 0.19365-0.25811 0.64262-0.29195 0.88698-0.0474 0.34912 0.18228 0.45565 0.16442 0.64945 0.18429 0.1699 0.51786-0.0998 0.73426 0 0.14216 0.0651 0.1292 0.23602 0.20946 0.34753 0.11015 0.15204 0.25006 0.26311 0.29605 0.46105l-0.11524 0.0808c-0.15765-0.0307-0.26667-0.15423-0.37038-0.26679-0.36466-0.0319-0.34588 0.21471-0.5728 0.3961-0.30585 0.0239-0.47668 0.25369-0.6541 0.27498-0.10859 0.0133-0.21569-0.024-0.32297 9e-3 -0.0881 0.18324-0.29508 0.56657-0.33757 0.75241l0.0748 0.12112 0.14683-0.0321c0.0267-0.0815 0.13897-0.38697 0.23579-0.3961 0.26805-0.0267 0.58359-0.0374 0.83609 0.0561 0.15951 0.38358 0.49016-0.0354 0.87585 0.18546 0.12539 0.072 0.32574 0.63211 0.52543 0.8004 0.23286 0.19633 0.50476 0.0832 0.72081 0.33174l0.0275 0.1451c-0.0696 0.12723-0.21116 0.18453-0.3101 0.28319 0.0494 0.11676 0.11718 0.45031 0.20888 0.5172 0.15257 0.11232 0.38261 0.15599 0.46512 0.35631 0.16595 0.4029-0.1542 0.72738 0.43768 1.0186 0.076 0.0381 0.15807 0.0981 0.24982 0.0726l-0.13575-0.0404c0.1339 0.0187 0.37788 0.0445 0.50551 9e-3 0.15418-0.0448 0.26277-0.0988 0.4312-0.11288 0.10159-9e-3 0.21348 0.016 0.31008-0.024 0.26515-0.11039 0.42025-0.38613 0.63307-0.55816 0.1542-0.12402 0.37777-0.1017 0.55994-0.14511 0.0965-0.0239 0.43383-0.17497 0.51836-0.227 0.14913-0.0914 0.28195-0.25354 0.45872-0.31537 0.10327-0.0358 0.21099-0.0158 0.31652-0.0321 0.16778-0.0265 0.36898-0.1447 0.48505-0.26681 0.0289 0.0669 0.0612 0.1323 0.10179 0.19366-0.0266 0.10938-0.0576 0.21713-0.0948 0.32355-0.12538 0.059-0.23342 0.14845-0.3575 0.21004-0.12695 0.0631-0.2699 0.0912-0.39784 0.15389-0.0831 0.0407-0.15258 0.10496-0.23579 0.14568-0.35195 0.17177-0.92526 0.18499-1.2129 0.42828-0.18191 0.15365-0.27676 0.42382-0.43062 0.61492-0.15256 0.0375-0.31545 0.0711-0.47217 0.041-0.0643-0.0133-0.12872-0.0499-0.19542-0.0492-0.32588 5e-3 -1.1064 0.23902-1.4358 0.34754-0.1507 0.0497-0.31306 0.0292-0.46456 0.0731-0.09 0.0267-0.16944 0.0745-0.24923 0.12112l-0.0748 0.14508c0 0.0933 0.0318 0.18687 0.0813 0.26739-0.0159 0.25125-0.2155 0.37169-0.33 0.56577-0.0322 0.0539-0.0863 0.278-0.0814 0.33936 0 0.0478 0.0267 0.091 0.034 0.13807 0.0354 0.21661-0.0831 0.44055 0 0.65471 0.34331 0.1846 0.53825-0.26954 0.86241-0.30716 0.24671-0.0289 0.55766 0.18854 0.78168 0.28317 0.26796 0.11289 0.60738 0.2208 0.89634 0.25042 0.35483 0.0368 0.50755-0.16862 0.79513-0.29899 0.15416-0.07 0.34367 0.0262 0.5055 9e-3 0.21393-0.024 0.43857-0.22308 0.60614-0.33935 0.13229-0.0914 0.44835-0.096 0.5529 0.0404 0.0423 0.0543 0.0756 0.20493 0.0878 0.27499-0.26759 0.34764-0.51062 0.0305-0.70734 0.43647 0.0375 0.1147-1e-4 0.39109-0.11528 0.45343-0.0494 0.0267-0.71282 0.0696-0.80212 0.0644-0.12375-9e-3 -0.24121-0.0509-0.36395-0.0644-0.28872-0.0316-1.1082 0.15559-1.186 0.47684-0.0159 0.0571-0.0156 0.11945-0.0211 0.17787 0.13738 0.12377 0.45521 0.1824 0.63362 0.25041 0.24462 0.0939 0.45423 0.25219 0.68046 0.37972 0.22164 0.12482 0.48839 0.19761 0.66055 0.39609 0.0214 0.0266 0.13239 0.3697 0.13401 0.4125 0 0.11579-0.041 0.22578-0.048 0.33993 0 0.11037 2.1e-4 0.22152-0.0157 0.33115l-0.1217 0.0731c-0.12376-0.21418-0.42455-0.51134-0.68046-0.54178-0.18403-0.0214-0.40491 0.10181-0.57981 0.15388-0.24564 0.0726-0.69397-2e-3 -0.80156 0.29898-0.0831 0.231 0.19397 0.8538-0.25624 1.0274-0.21396-0.10778-0.28657-0.43709-0.43824-0.5254-0.16114-0.0944-0.40965 0.0275-0.55233 0.11288-0.0881 0.0534-0.38373 0.28934-0.43118 0.36392-0.0543 0.0851-0.0833 0.18527-0.15623 0.25861-0.12536 0.12832-0.31082 0.17418-0.45111 0.28319-0.10666 0.0833-0.18339 0.21943-0.30306 0.28317-0.22069 0.11765-0.43594 0.21317-0.64474 0.33877 0.0581 0.0324 0.13185 0.0614 0.18662 0.0941 1.1234 0.674 3.7071 1.5727 5.5419 1.1234 1.8348-0.44935 5.2423-2.8084 6.7027-4.793 1.4604-1.9846 7.3767-9.8855 8.8371-11.421 1.4604-1.5353 4.7181-9.0617 5.4296-10.223 0.71147-1.1608 9.6983-8.9494 13.33-10.372 3.6322-1.4229 5.1674-3.0331 11.234-1.6476 4.8624 1.1105 12.775 6.231 15.831 8.2894-0.021-0.13627-0.0503-0.269-0.0375-0.41717 0.0185-0.2307 0.12745-0.45284 0.0954-0.68747-0.0556-0.40114-0.34542-0.77521-0.48503-1.1485-0.13231-0.35335-0.25833-0.70928-0.37795-1.0672-0.0439-0.13094-0.11995-0.25215-0.14688-0.38849-0.0213-0.10431-0.0404-0.17364-0.0743-0.27441-0.0998-0.29913-0.0734-0.59224-0.0953-0.8975-0.0213-0.29483-0.14172-0.56697-0.16732-0.84954-0.0439-0.48285 0.0472-0.96003 0.0211-1.4393-0.0158-0.30221-0.10654-0.63307-0.0474-0.92969 0.0914-0.45675 0.42546-0.58781 0.42478-0.84896 0-0.19313-0.27072-0.47359-0.39495-0.61433-0.0509-0.0577-0.0832-0.1308-0.13747-0.18548-0.18833-0.18993-0.47037-0.36066-0.56578-0.6313-0.0661-0.18937-0.0309-0.31212-0.14101-0.54119-0.12351-0.25314-0.35734-0.43169-0.48562-0.67928-0.57782-1.1153 0.0579-1.4223-0.1217-2.1671-0.14909-0.61931-0.46484-0.9132-0.79513-1.4153-0.12695-0.1926-0.19526-0.41512-0.30951-0.61435-0.89758-0.21686-0.6984-1.3757-1.2064-2.0051-0.0611-0.0749-0.14414-0.12444-0.21588-0.18606-0.32943-0.28003-0.66533-0.70626-0.86242-1.0918-0.17098-0.33459-0.13905-0.73427-0.36392-1.0514-0.25695-0.36328-0.62766-0.59371-0.9063-0.92384zm-62.398 12.132-0.10125 0.0888c-0.0383 0.0885-0.0523 0.22104-0.0339 0.31535 0.0509 0.1388 0.25518 0.22078 0.39143 0.17787l0.0872-0.11351c0.0445-0.13731-0.0607-0.35553-0.0607-0.35572l-0.10064-0.0972zm-6.0579 6.0076-0.13516 0.0567-0.0737 0.1375 0.0271 0.14569 0.10115 0.0972c0.0784-0.0114 0.19118-0.0798 0.23578-0.1457-0.0104-0.0674-0.0201-0.13475-0.0271-0.20245zm-1.7857 4.5121c-0.42016 0.38501-0.6498 0.14733-0.82203 0.28318l0.0134 0.11288c0.17153 5e-3 0.34148-0.0179 0.51195 8e-3 0.075-0.0492 0.15549-0.10608 0.23577-0.14569 0.0514-0.0254 0.10994-0.038 0.16207-0.0644l0.0134-0.16967zm6.12 2.297c-0.0228 9e-4 -0.0458 3e-3 -0.0691 8e-3 -0.0811 0.0153-0.18434 0.0703-0.24924 0.12112-0.12953 0.1018-0.36489 0.47152-0.39084 0.63071-0.0156 0.096 0.0634 0.48584 0.0942 0.59034 0.013 0.0438 0.0409 0.0855 0.0537 0.12931 0.0504 0.17115 0.0908 0.41268 0.0942 0.59035 2e-3 0.0995-0.012 0.20912 0 0.30716 6e-3 0.0484 0.0542 0.58258 0.0474 0.62253-0.0157 0.097-0.0729 0.22542-0.12814 0.30717l7e-3 0.16206 0.14801 0.0643c0.10485-0.0882 0.19787-0.21119 0.33763-0.2422l0.14801 0.0808c-5e-3 0.14568-0.11221 0.27173-0.22234 0.35573-0.0367 0.028-0.088 0.0501-0.12111 0.0808-0.10531 0.0979-0.18908 0.30599-0.20945 0.44468l0.0607 0.12929c0.12602 0.10676 0.29433 0.0558 0.44465 0.0731 0.13031-0.0779 0.17288-0.22916 0.30306-0.30717l0.14862 0.0731c0.0392 0.13845 0.0157 0.33306-0.0672 0.45227-0.0505 0.0727-0.13336 0.12654-0.1884 0.21881l-0.014 0.13749c0.0975 0.10735 0.23096 0.21938 0.38383 0.21824 0.10023-0.0937 0.17289-0.23805 0.30307-0.29137h0.1685l0.0211 0.13749c0.14752 0.14718 0.34495 0.28841 0.56578 0.23463 0.0693-0.0615 0.12133-0.21919 0.12814-0.30717-0.11941-0.15667-0.34145-0.18428-0.46514-0.34812-0.0104-0.24352 0.0122-0.52149-0.19543-0.69509-0.0851-0.0712-0.19814-0.13249-0.28963-0.19951-0.0632-0.0464-0.12379-0.0971-0.15501-0.1726l0.0532-0.16148c0.0718-0.0531 0.16965-0.0991 0.25627-0.12111l0.0341-0.15388-0.10125-0.0972c-0.0929 0.0252-0.25064-3e-3 -0.32999-0.0568l0.041-0.12111c0.11039-0.0225 0.30864-0.0484 0.39784-0.11351l-0.0543-0.1293c-0.28425-0.14846-0.73323 0.0613-0.99113-0.19425l-7e-3 -0.16148c0.18174-0.0989 0.41519-0.0332 0.61318-0.0808v-5.6e-4c5e-3 -0.0155 0.0402-0.12957 0.0404-0.13751 1e-3 -0.0227-0.10084-0.52326-0.1147-0.57396-0.0219-0.0816-0.12082-0.41184-0.16146-0.50084-0.25431-0.0822-0.39162-0.0765-0.5254-0.33174-3e-3 -0.0983 0.0316-0.23339 0.0872-0.31535 0.14976-0.0576 0.32793 0.0637 0.47157 0.10528l0.10115-0.10528c0.028-0.0802 0.0199-0.22596-0.0271-0.29899-0.16475 0.0104-0.31664-0.0615-0.47684-0.0562zm1.7769 6.1042c-0.13793 0.0213-0.23006 0.12956-0.37738 0.1375-0.0779-0.0595-0.18942-0.10285-0.28261-0.12932-0.11382-5e-3 -0.22005 0.17638-0.22234 0.275 0.015 0.0773 0.0884 0.18463 0.15505 0.22642 0.15802 0.049 0.20882-8e-3 0.32999-8e-3 6e-3 0 0.18241 0.037 0.19542 0.0404 0.21189 0.0565 0.41937 0.22488 0.64711 0.18605l0.12112-0.0808-0.0341-0.14569c-0.047-0.072-0.16241-0.14511-0.24278-0.16967-0.0205-0.10971-0.0944-0.20001-0.15449-0.29137zm-1.3808 0.96246-0.12815 0.0157-0.0814 0.1217c-0.087 0.0383-0.19474 0.0658-0.2896 0.0726-0.0721 0.0459-0.14687 0.16174-0.16852 0.24281 0.11483 0.0886 0.28156 0.18862 0.43179 0.1533l0.11468-0.0802c0.0189-0.0553 0.0753-0.14255 0.0872-0.17845 0.033-0.10432 0.0537-0.23874 0.034-0.34753zm-2.5135 1.0268-0.1147 0.0726c-0.0326 0.10094-0.053 0.24214-0.0333 0.34811l0.12756 0.0486 0.13516-0.0486c0.0346-0.0387 0.10665-0.12636 0.12111-0.17844l0.0134 0.0246c-0.0169-0.0893-0.0448-0.18325-0.0808-0.2668zm-4.0236 2.0601c-0.18414 8e-3 -0.34594 0.11547-0.40311 0.30131l0.0333 0.13749 0.14162 0.0164 0.0878-0.12169c0.0721-0.0453 0.20741-0.0625 0.28961-0.0486l0.0872-0.0889-0.0334-0.14451c-0.0437-3e-3 -0.0994-0.0232-0.13455-0.0492-0.023-2e-3 -0.0459-3e-3 -0.0685-2e-3zm-2.4047 3.026c-0.0782 0.0319-0.16826 0.13989-0.19543 0.21824l0.0537 0.1293c0.0886-0.0208 0.24104 0.0126 0.31012 0.0731 0.0838-2e-3 0.209-0.0543 0.26912-0.11352l0.0134-0.12929c-0.0728-0.0676-0.22004-0.11912-0.31651-0.12931zm13.535 4.1078c-0.0668 2e-3 -0.14149 0.0214-0.18725 0.0492l-0.0942 0.12053 0.0275 0.14568c0.0964 0.0552 0.22695 0.0921 0.33643 0.1053l0.13514-0.0484 0.0404-0.15388c-0.0383-0.0762-0.10802-0.15819-0.1755-0.21005-0.0237-7e-3 -0.0521-9e-3 -0.0825-8e-3zm-2.6194 3.703c-0.15376 0.19963-0.0834 0.43808-0.12812 0.66347l0.0744 0.1129 0.14861 0.065 0.0673-0.0972 0.0134-0.17786 0.10767-0.0972c0.059 0.0731 0.14231 0.14545 0.22233 0.19426l0.13456-0.0567c0.0259-0.0659 3e-3 -0.18436-0.0333-0.24223l-0.0607-0.0972c-0.15119-0.0178-0.28938-0.11871-0.38383-0.23462zm4.0154 1.1321-0.1205 0.0972-0.034 0.15388c0.0113 0.0786 0.0901 0.18431 0.15505 0.22642 0.0797-5e-3 0.19706-0.0509 0.25626-0.1053l0.0199-0.16967c-0.0348-0.0693-0.0977-0.14919-0.16149-0.19426z" fill="#c60c31" stroke="#c60c31" stroke-miterlimit="3.9773" stroke-width=".19471"/>
   <path transform="matrix(1.1322 0 0 1.1322 -564.74 -40.844)" d="m785.81 192.98c1.6536-0.0661 4.3987-0.56224 5.7878-1.5875s4.068-3.3073 5.6555-3.6711c1.5875-0.36381 3.7042 0.95911 4.4318 1.3229s3.9191 3.2742 4.068 3.3404c0.14883 0.0661 0.41341 1.3064 2.3151 0.7276 1.9017-0.57877 2.0671-1.0914 2.5797-0.82682s0.90951 0.85989 1.7033 0.28112c0.79375-0.57878 0.66145-0.678 1.8686-0.74414 1.2072-0.0661 3.7868-0.76068 4.5475-1.4718 0.76068-0.71106 1.6536-1.3229 1.7694-1.8355 0.11576-0.51263 0.87643-0.79375 1.9513-1.108 1.0749-0.31419 10.903-3.8829 12.657-4.7248s7.39-2.0112 9.7052-2.4322c2.3152-0.42095 9.5649-2.2451 10.921-2.666 1.3564-0.42095 20.206-5.8465 20.206-5.8465l61.552-122.26-98.409-56.875-136.95 89.428 55.394 113.76z" clip-path="url(#clipPath27177)" filter="url(#filter27185)" opacity=".33"/>
  </g>
 </g>
</svg>
