<?xml version="1.0" encoding="UTF-8"?>
<!-- Created with Inkscape (http://www.inkscape.org/) -->
<svg width="1920" height="1080" version="1.1" viewBox="0 0 508 285.75" xmlns="http://www.w3.org/2000/svg">
 <g>
  <g>
   <path d="m418.74 8.6751c3e-3 4.5e-4 6e-3 0.00679 9e-3 0.00821-0.10411 5.402e-4 -0.74676 0.078373-0.9572 0.11234-0.82203 0.13302-0.90418 0.64401-0.2896 0.66231 0.0914 0.00334 0.38229 0.108 0.3955 0.11936 0.0746 0.065238-0.0884 0.29786-0.15446 0.32355-0.10326 0.040651-0.43003 0.043043-0.55699 0.031013-0.10507-0.010368-0.39992-0.084961-0.44351-0.089532-0.088-0.00861-0.23118 0.11098-0.26912 0.18372-0.1963 0.37672 0.0167 0.52744 0.17378 0.83433 0.024 0.04592 0.23164 0.28603 0.21939 0.36451-0.0158 0.10335-0.17086 0.13231-0.2469 0.08249-0.0779-0.05133-0.25643-0.15855-0.38206-0.03803-0.0267 0.02614-0.0677 0.20645-0.0695 0.2744-0.0158 0.23923 0.13229 0.28882 0.0661 0.56402-0.0322 0.13403-0.10452 0.61554-0.1451 0.66348-0.0459 0.05626-0.17573 0.01705-0.24165 0.05325-0.0661 0.03675-0.26922 0.26977-0.3048 0.35749-0.037 0.09488 0.0998 0.21568 0.0661 0.38966-0.0405 0.19778-0.27616 0.28707-0.27616 0.49264 0 0.14166 0.0933 0.18299 0.134 0.2943 0.0267 0.06745 0.0319 0.34044 0 0.41833-0.0273 0.0739-0.11711 0.09829-0.18372 0.12813-0.16778 0.07556-0.38791 0.44408-0.38791 0.44408-0.0158 0.05115-0.19782 0.5641-0.21648 0.61668-0.0186 0.05287 0.0489 0.06929 0.0421 0.11468 0 0.02748-0.33586 0.40149-0.37853 0.4862-0.0217 0.0449-0.032 0.40155 0 0.46982 0.10328 0.19514 0.20762 0.34543 0.39668 0.46806 0.0661 0.04254 0.15014 0.02526 0.21707 0.06203 0.0216 0.01174 0.38657 0.12782 0.37678 0.29781 0 0.08253-0.63375 0.08535-0.66407 0.17084-0.0213 0.05949 0.37009 0.63801 0.23345 0.80098-0.0354 0.04254-0.40749-0.15226-0.65235-0.28435-0.0746-0.04035-0.1501 0.07925-0.19894 0.15212-0.1339 0.20368 0.0489 0.51552 0.13516 0.81385 0.0158 0.03441 0.59568 0.0054 0.60674 0.18079 0.0268 0.39453-0.33708 0.22651-0.51723 0.39551-0.14399 0.13523-0.1151 0.34915-0.13222 0.37855-0.0459 0.07683-0.16534 0.0163-0.23229 0.04271-0.0612 0.02666-0.11713 0.22433-0.12696 0.28669-0.0848 0.5387 0.22645 0.61346 0.23229 0.8355 0 0.10963-0.18528 0.45877-0.21005 0.58216-0.0213 0.1035 0.0981 0.19713 0.0661 0.28493-0.0354 0.09283-0.17777 0.24469-0.18257 0.32823 0 0.13176 0.14131 0.12044 0.18372 0.22233 0.0388 0.09229 0.11467 0.5207 0.0825 0.64652-0.0158 0.04108-0.22741 0.22135-0.28377 0.31185-0.0375 0.05842-0.0699 0.31203-0.25508 0.42184-0.0713 0.04188-0.30067 0.38255-0.49673 0.38674-0.0933 0.0027-0.49265-0.25789-0.6155-0.22935-0.13553 0.03173-0.52675 0.30305-0.62079 0.22994-0.0612-0.04695-0.051-0.15176-0.0966-0.21765-0.0881-0.13257-0.57244-0.78605-0.5921-0.78927-0.23901-0.03921-0.55995 0.28452-0.61434 0.31536-0.27655 0.15711 0.0849 0.37156 0.15273 0.31419 0.0158-0.01333 0.2716-0.0079 0.27907 0.04915 0.0305 0.23339-0.23677 0.37006-0.24107 0.4078 0 0.07682 0.046 0.39686-0.12871 0.38323-0.0914-0.0082-0.21943-0.14582-0.28785-0.13516-0.0814 0.01332-0.18738 0.15889-0.29022 0.46163-0.0998 0.29397 0.24999 0.17099 0.14572 0.41131-0.0949 0.21979-0.46762 0.31642-0.45696 0.34461 0.0405 0.10989 0.0158 0.30708-0.1492 0.27206-0.14084-0.03095-0.19729 0.03192-0.2943-0.05557-0.0267-0.02398-0.20137-0.79009-0.21414-0.80273-0.0158-0.01332-0.35152-0.01857-0.42182-0.08367-0.11851-0.10989-0.19679-0.20186-0.2165-0.36977 0-0.03572-0.19456-0.20445-0.26152-0.26153-0.14909-0.12696-0.46725-0.09459-0.54178-0.14686-0.20539-0.14484-0.10507-0.53516-0.44467-0.56285-0.21179-0.0187-0.0372 0.37229-0.42886 0.25041-0.0459-0.01332-0.13404-0.03219-0.16791-0.06553-0.0319-0.03122-0.31212-0.63752-0.51137-0.31477-0.0728 0.1179-0.0358 0.20302-0.0271 0.30366 0.0474 0.4093 0.0353 0.32675-0.27967 0.24281-0.13043-0.03468-0.17345-0.04377-0.27966-0.20595-0.0915-0.1395 0.28043-0.26141-0.0902-0.55232-0.14406-0.11336-0.65059 0.2016-0.62956 0.44876 0.0158 0.20992 0.34428 0.43185 0.35512 0.45578 0.11876 0.2614 0.0354 0.27978-0.0375 0.35983-0.0865 0.09443-0.32364 0.16287-0.41246-0.05557-0.0744-0.18512-0.49254-0.45289-0.57981-0.29722-0.0158 0.03013-0.0936 0.59386-0.0936 0.59386 0.0158 0.01867 0.45817 0.3016 0.378 0.43998-0.0779 0.1355-0.52851 0.16499-0.65121 0.16499-0.18431 0-0.34223-0.26208-0.45697-0.24047-0.18857 0.03521 0.0158 0.48432-0.31123 0.41892-0.15071-0.03039-0.14685-0.36446-0.42478-0.10063-0.034 0.03173-0.12896 0.1042-0.1375 0.141-0.0158 0.0496 0.11843 0.2069 0.0832 0.24691-0.076 0.08562-0.39105 0.1314-0.22877 0.35046 0 0 0.21703 0.1572 0.25918 0.16734 0.16241 0.04001 0.29812 0.18143 0.3844 0.31536 0.0213 0.03334-0.0385 0.1728-0.0743 0.21122-0.19739 0.22272-0.40879 0.27436-0.45636 0.26153-0.14405-0.03921-0.38965-0.25393-0.63656-0.16031-0.35455 0.1347-0.26712 0.17538-0.0287 0.32472 0.0526 0.03255 0.11482 0.12863 0.15034 0.13984 0.22698 0.07202 0.39282 0.17819 0.37094 0.19366-0.13549 0.09681-0.58737 0.08187-0.59856 0.33115-0.0158 0.20085 0.47546 0.27965 0.46985 0.29781-0.0158 0.04347-1.9e-4 0.08491-0.0187 0.13691-0.12193 0.39293-0.61422 0.02876-0.83959 0.12638-0.0544 0.024-0.11186 0.07556-0.12697 0.13398-0.034 0.12856-0.0471 0.52922-0.0403 0.57806 0 0.04455 0.0639 0.09124 0.10295 0.1059 0.1136 0.04296 0.43365-0.22282 0.49383-0.22174 0.0933 0.12936-0.0375 0.50675 0.034 0.62604 0.0213 0.03521 0.28945 0.04449 0.39435 0.09303 0.0213 0.0082 0.0935 0.27609 0.0275 0.32647-0.19497 0.1499-0.31787 0.07529-0.45868 0.10356-0.1339 0.02694-0.20203-0.11046-0.26094-0.07898-0.191 0.10243 0.0946 0.3359-0.0164 0.39376-0.0759 0.04162-0.69766 0.09342-0.71085 0.12755-0.0626 0.16244 0.21544 0.52708 0.15618 0.56928-0.10506 0.07441-0.4018-0.01087-0.53418-0.0029-0.0526 0.0027-0.28861 0.05952-0.35101 0.10648-0.0459 0.03334 0.12035 0.20935 0.0491 0.28318-0.10508 0.10989-0.38978 0.31886-0.40721 0.3218-0.0526 0.0082-0.32469 0.06238-0.50904-0.07898-0.0814-0.06267-0.22037-0.60229-0.49086-0.40429-0.0213 0.01599-0.0963 0.10094-0.0995 0.12521 0 0.04268 0.047 0.31891-0.0164 0.37621-0.0474 0.0424-0.23981 0.10722-0.28493 0.1451-0.12695 0.10722-0.0983-0.12537-0.22934-0.03335-0.17338 0.12217-0.27893 0.33419-0.31655 0.41424-0.0474 0.1035 0.15465 0.15009 0.1258 0.18957-0.0644 0.09095-0.0647 0.32934-0.24106 0.3844-0.0696 0.02133-0.15746-0.1291-0.32645 0-0.0998 0.07467-0.024 0.29096-0.15274 0.22409-0.0213-0.01867-0.35698-0.0852-0.37853-0.0708-0.0509 0.03521-0.35886-0.07836-0.4505-0.05675-0.0213 0.0055-0.17043 0.21114-0.21415 0.25275-0.0474 0.04455-0.0847 0.02164-0.12522 0.05149-0.12697 0.0915-0.11005 0.51683-0.0814 0.56402 0.083 0.13817 0.196 0.07176 0.2024 0.07547 0.0158 0.0082 0.0931 0.14593 0.0931 0.15154 0 0.01064-0.12875 0.35617-0.13223 0.38031 0 0.02933-0.0525 0.3729-0.13221 0.45343-0.0494 0.05117-0.39917 0.15178-0.40255 0.15739-0.0158 0.02139-0.28998 0.20538-0.30658 0.23286 0 0.01015-0.1811 0.03113-0.20245 0.02627-0.0439-0.01335-0.28637-0.17218-0.33993-0.22233-0.0424-0.0395 0.0161-0.19245-0.17025-0.22525-0.19977-0.03623-0.6894-0.05389-0.7097-0.08196-0.0354-0.0488-0.36506 0.13812-0.42419 0.12638-0.0474-8e-3 -0.3084-0.20223-0.36452-0.25451-0.0611-0.05707 0.0243-0.19417-0.30072-0.23871-0.0509-8e-3 -0.41888-0.01336-0.60614 0.07495-0.0423 0.02129-0.16126 0.24235-0.23403 0.21648-0.0307-0.01336-0.32777-0.18338-0.33231-0.18605-0.0158-0.01336-0.11684-0.26082-0.15388-0.29254-0.11716-0.10057-0.41334-0.02755-0.45113-0.0082-0.0459 0.02398-0.2813 0.29549-0.34283 0.34051-0.0762 0.05626-0.2478 0.36465-0.27266 0.37913-0.0509 0.02933-0.20527 0.24237-0.22525 0.24983-0.0405 0.01596-0.31507 0.04053-0.34051 0.04211-0.0307 0.0023-0.23518-0.12839-0.35516-0.15212-0.0215-0.0023-0.26727 0.08424-0.29662 0.05027-0.0998-0.11496-0.0831-0.38714-0.14218-0.43121-0.42923-0.32322-0.35069 9e-3 -0.69742 0.04324-0.2187 0.02139-0.12883-0.09476-0.27559-0.02162-0.0932 0.04642-0.17787 0.13166-0.23227 0.17727-0.13391 0.11175 0.0694 0.1981 0.0421 0.30716-0.0611 0.24434-0.33242 0.358-0.38089 0.36392-0.0677 8e-3 -0.26591 0.06861-0.29546 0.06669-0.0611-0.0023-0.4077-0.21745-0.51022-0.19424-0.0491 0.01336-0.037 0.07257-0.10823 0.08548-0.13233 0.02401-0.28843 0.05343-0.42244 0.03805 0 0-0.63788 0.07993-0.67753 0.06906-0.0863-0.02401-0.12526-0.11501-0.18955-0.16382-0.0459-0.03385-0.33025-0.07202-0.39668-0.12638-0.0388-0.0317-0.0845-0.16277-0.11005-0.19717-0.0933-0.12669-0.19612-0.34658-0.36686-0.39084-0.0608-0.01596-0.33183-0.06906-0.44876-0.06906-0.0746 0.0057-0.75316-0.0266-0.9133-0.0351-0.32907-0.01869-0.66777-0.08751-0.9952-0.1299-0.24358-0.03169-0.4397 0.02752-0.67811 0.04043-0.61548 0.03385-1.2119-0.04166-1.7986 0.21063-0.35433 0.15258-0.66206 0.42346-1.0327 0.5488-0.11839 0.03996-0.24895 0.08513-0.37152 0.10994-0.076 0.01596-0.42143 0.02955-0.44057 0.03805-0.0526 0.024-0.55819 0.39743-0.57512 0.41893-0.0526 0.06986-0.16754 0.24701-0.23345 0.2978-0.0186 0.01596-0.10858 0.02116-0.13223 0.01573-0.0375-0.09793-0.17377-0.39273-0.28845-0.40955 0-0.03091-0.17373-0.04732-0.20949-0.0497-0.22537-0.01596-0.38442 0.25958-0.40779 0.31828-0.0594 0.1475-0.1135 0.52396-0.10993 0.55465 0.0186 0.16672 0.16409 0.11584 0.18782 0.19425 0.0696 0.22432 2.1e-4 0.37287 0.0164 0.54764 0.0186 0.18352 0.14383 0.1237 0.16089 0.18079 0.0288 0.09738 0.0628 0.20539 0.0796 0.30659 0.0319 0.19258-0.14574 0.36924 0.12871 0.502 0.0459 0.02129 0.1625 0.05447 0.16439 0.05797 0.0158 0.02129 0.0898 0.35037 0.0982 0.38264 0.0158 0.07144-0.0161 0.95976-0.0462 1.0403-0.0354 0.09442-0.0263 0.53214-0.0181 0.64418 0 0.03284 0.12083 0.25934 0.15446 0.35983 0.0158 0.03465-0.0899 0.32551-0.0661 0.37152 0.0158 0.03069 0.0457 0.14332 0.0878 0.16734 0.0439 0.02673 0.35699 0.16642 0.37328 0.18722 0.0213 0.02672 0.18648-0.06317 0.24224-0.04507 0.046 0.01596 0.14691 0.16847 0.15384 0.18021 0.0288 0.05231 0.0459 0.41098 0.0474 0.43238 0 0.04722-0.0711 0.28333-0.0726 0.33524 0 0.01869 0.49229 1.0271 0.50957 1.0385 0.13738 0.09046 0.2132 0.02106 0.30251 0.06023 0.0319 0.01596 0.14355 0.02401 0.1849 0.03975 0.0474 0.01869 0.21555 0.1984 0.26971 0.25334 0.0611 0.06375-0.0458 0.07982-0.0375 0.12111 0 0.03385 0.18955 0.27616 0.18955 0.27616 0.0526 0.0411 0.14775-0.10564 0.23872-0.06612 0.0541 0.02401 0.12857 0.22371 0.15738 0.22584 0.12349 8e-3 0.48435-0.0023 0.53536 0.02106 0.10326 0.04563 0.65268 0.57476 0.69157 0.61082 0.0494 0.04642-0.13287 0.17891-0.0989 0.29078 0.0158 0.048 0.1937 0.3017 0.18491 0.33642-0.0269 0.1011 0.21312 0.22164 0.26033 0.20244 0.0267-0.01336 0.22572-0.02389 0.23345-0.01016 0.0267 0.03873 0.0949 0.26006 0.0474 0.32589-0.0186 0.02695-0.26779 0.14979-0.24867 0.19834 0.0759 0.19098 0.51536 0.28266 0.40489 0.31068-0.14725 0.03737 0.1341 0.5931 0.1205 0.66875-0.0213 0.11897-0.48819 0.30701-0.50434 0.35339-0.0273 0.07711-0.095 0.38507-0.0831 0.4078 0.0459 0.08514 0.2216 0.13123 0.2235 0.16324 0 0.09759-0.39182 0.36444-0.40489 0.41424-0.0158 0.03658-0.47719 0.47522-0.51718 0.52774-0.0458 0.05819-0.23646 0.09012-0.27325 0.10824-0.23608 0.11577-0.31425 0.25214-0.31243 0.26095 0.0158 0.04291 0.1656 0.07122 0.19306 0.12111 0.0158 0.03227-0.21454 0.65443-0.23401 0.71088-0.0215 0.06 0.41363 0.18001 0.25156 0.37035-0.0158 0.02129-0.21493 0.17831-0.25039 0.18898-0.076 0.02401-0.15257-0.0497-0.22643-0.01586-0.20644 0.09759-0.26024 0.35958-0.27852 0.40956-0.0577 0.1547 0.0811 0.34471-0.11061 0.48094-0.0795 0.05706-0.28778-0.1358-0.49029-0.02163-0.0509 0.02933-0.38092 0.23156-0.40022 0.25743-0.0643 0.08616-0.0797 0.4168-0.32647 0.51605-0.19389 0.0779-0.29519 0.02672-0.48853 0.07314-0.0494 0.01016-0.0681 0.18937-0.0936 0.2785-0.0424 0.14509-0.4145 0.34923-0.48969 0.09827-0.0158-8e-3 -0.3632-0.09964-0.39552-0.18546 0-0.01869 0.4939-0.19464 0.42125-0.47626-0.0288-0.11416-0.0271-0.11889-0.12579-0.18371-0.15924-0.1045-0.3229 0.04529-0.39727 0.10824-0.24781 0.20885-0.27276 0.11628-0.27618 0.07835-0.0158-0.10835-0.2571-0.16654-0.34518-0.15855-0.1288 0.01016-0.33856 0.15046-0.34111 0.15739-0.0526-0.02673-0.13914-0.03554-0.16789-0.08887-0.0158-0.02401 0.26572-0.55516 0.18838-0.63539-0.0355-0.03736-0.0884-0.06872-0.13574-0.09012-0.16457-0.07438-0.35968 0.31741-0.48271 0.21413-0.09-0.07518 0.0337-0.34122 0.0211-0.39844 0-0.01015-0.0271-0.44784-0.0597-0.50258-0.0215-0.03521-0.0675-0.04133-0.10644-0.04562-0.20382-0.02129-0.30601 0.27732-0.30601 0.27732l-0.0158 0.01812c-0.0862 0.1259-0.0579 0.38369-0.17024 0.47275-0.0405 0.03125-0.14212 0.12504-0.18666 0.05378-0.13391-0.21366-0.0524-0.47533-0.17901-0.5295-0.22196-0.09579-0.33941 0.05117-0.48212-0.07959-0.0983-0.08991-0.0158-0.18145-0.0607-0.2826-0.0459-0.0864-0.20784-0.24514-0.29667-0.24514-0.0213 0-0.13047 0.10994-0.13396 0.12462 0 0.01869-0.42376 0.70307-0.46983 0.70502-0.13046 0.0057-0.50486-0.3868-0.48385-0.41132 0.0459-0.05389-0.20682-0.11329-0.24282-0.0959-0.26329 0.12964-0.0896 0.41237-0.10474 0.62136 0 0.0728 0.23109 0.47473-0.11174 0.58624-0.0439 0.01336-0.0814-0.01015-0.12054-0.02752-0.2945-0.1363-0.1254-0.59647-0.48502-0.48796-0.0661 0.01869-0.14452 0.37622-0.24457 0.4154-0.26591 0.1045-0.21628-0.54563-0.57454-0.49673-0.13233 0.01868-0.27797 0.07381-0.30425 0.21999-0.0158 0.07982 0.0559 0.25523-0.0211 0.27089-0.25472 0.05231-0.43913-0.40809-0.54357-0.40136-0.12032 8e-3 -0.22323-0.16915-0.40837-0.14861-0.17975 0.01869-0.75008 0.22643-0.75008 0.22643-0.0865 0.0023-0.19024 8e-3 -0.27557-0.0023-0.0881-0.01336-1.1022-0.42396-1.1748-0.26621-0.0831 0.18059 0.28478 0.42419 0.16443 0.55875-0.19047 0.21313-0.62916-0.0607-0.76763-0.22233-0.0815-0.09443-0.18767-0.39278-0.28261-0.43413-0.0611-0.02695-0.46087 0.15022-0.54645 0.16383-0.0239 0.0023-0.50865-0.08458-0.56168-0.10065-0.0746-0.02401-0.24977-0.11721-0.30017-0.17961-0.0273-0.03328-0.30755-0.42062-0.31652-0.58099 0-0.14084 0.11355-0.47362 0.0778-0.51195-0.0214-0.02129-0.0756-0.02139-0.10306-0.01869-0.33633 0.03816-0.11712 0.33728-0.52189 0.24691-0.15257-0.03385-0.40855-0.31224-0.49206-0.27089-0.0526 0.02673-0.42436 0.01301-0.44876-0.09714-0.0214-0.08967-0.206-0.05185-0.25799-0.01016-0.12034 0.09839-0.15413 0.22624-0.0814 0.3376 0 0.01336-2.8e-4 0.17356-0.0217 0.18956-0.35467 0.23312-0.48172-0.06555-0.76469-0.05322-0.16593 8e-3 -0.22753 0.26517-0.41072 0.14861-0.18511-0.11764-0.17319-0.21833-0.17319-0.41132 0-0.19444-0.24599-0.25004-0.40254-0.21589-0.0815 0.01869-0.48012 0.01132-0.58975 0.06781-0.0831 0.04348 0.15283 0.43159-0.0726 0.4435l-0.12577 8e-3c-0.21848 8e-3 -0.9728-0.52833-1.1819-0.48093-0.25981 0.05842-0.31023 0.13397-0.62019 0.13397-0.073 0-0.20208-0.0728-0.27207-0.0959-0.066-0.02129-0.19482-0.13282-0.11699-0.22058 0.11875-0.13389 0.37086-0.13028 0.4979-0.1919 0.0187-8e-3 0.13352-0.12637 0.17083-0.16851 0.171-0.19339-0.1611-0.5194-0.45225-0.36743-0.0914 0.04744-0.20247 0.10937-0.28961 0.16909-0.0186 0.01336-0.164 0.26294-0.32355 0.08718-0.034-0.03679 0.0779-0.39175 0-0.47684-0.20087-0.20192-0.34975 0.15932-0.53362 0.09772-0.21175-0.07099-0.0157-0.32706-0.0403-0.39084-0.0494-0.1347-0.56927 0.16775-0.62721 0.17202-0.40687 0.02853-0.23568-0.35498-0.34168-0.43121-0.1878-0.1355-0.2575 0.08424-0.31888 0.13516-0.0779 0.06375-0.36652 0.22406-0.37736 0.22994-0.0307-0.0023-0.0357-0.4235-0.0679-0.4318-0.16779-0.04291-0.25414 0.09534-0.30482 0.10359-0.21046 0.03521-0.26686 0.08887-0.44292-0.07778-0.034-0.03328-0.10148-0.2517-0.0814-0.28317 0.12537-0.20406 0.32173-0.13075 0.3575-0.22117 0.0289-0.02773 0.40809-0.52898 0.7758-0.65178 0.11874-0.03951 0.77226 0.07835 0.73488-0.21882-0.0526-0.41125-0.82012-0.25508-1.1848-0.21882-0.0339 0.0023-0.13032-0.02887-0.15914-0.05208-0.076-0.06023 0-0.43967 0-0.54705-0.16431-0.21419-0.60722-0.0266-0.70853-0.03217-0.0375-0.03816 0.41266-0.55177 0.20128-0.63598-0.16939-0.06748-0.51665 0.05581-0.60616 0.02162-0.0593-0.11336-0.0528-0.28696-0.16263-0.37503-0.16779-0.13363-0.69103-0.18157-0.76762-0.38732-0.034-0.09125 0.15028-0.22614 0.20711-0.28786 0.0307-0.03442 0.60742-0.12374 0.72724-0.2235 0.0612-0.05151 0.12888-0.2527 0.11878-0.29429-0.0475-0.18192-0.59503-0.1299-0.59503-0.1299-0.0557-0.10133-0.18398-0.51052-0.12931-0.66874 0.0273-0.07518 0.12546-0.19925 0.0645-0.30892-0.0746-0.1347-0.37421 0.0057-0.41016 8e-3 -0.22141 0.01015-0.5251 0.0497-0.69508-0.14393-0.0266-0.02966 0.10519-0.24767 0.0867-0.39318-0.0267-0.03759-0.44349-0.04982-0.54179-0.10824-0.10505-0.06238-0.0523-0.29082-0.20477-0.30658-0.20112-0.02129-0.68825 0.1867-0.80331 0.15096-0.0626-0.01869-0.095-0.07258-0.15272-0.09772 0-0.01596-0.0287-0.29967 0.0275-0.34344 0.12882-0.10371 0.33052 0.03352 0.37034-0.21882 0-0.03464 0.0161-0.17617-0.0157-0.24631-0.1017-0.29573-0.50066-0.143-0.69217-0.04562-0.11518 0.05864-0.19903 0.17871-0.31886 0.23578-0.21526 0.10269-0.38335 0.08798-0.57394 0.25393-0.29338 0.25554-0.47664 0.57973-0.62896 0.93086-0.0322 0.07518-0.14722 0.77449-0.21711 0.83433-0.11016 0.04484-0.22734 0.11186-0.34401 0.03217-0.037-0.11764-0.18936-0.54324-0.23872-0.61784-0.16244-0.24513-0.25651-0.10439-0.3569 0.06499-0.0266 0.04484-0.10003 0.15453-0.1053 0.20068-0.0159 0.11443 0.0779 1.0104 0.0661 1.0654-0.0159 0.06748-0.19074 0.10665-0.24811 0.10824-0.0494 0.0023-0.0935-8e-3 -0.13924-0.03046-0.4553-0.22246-0.14365-0.52328-0.28377-0.67401-0.14909-0.15978-0.31486-0.15527-0.48503-0.26036-0.10676-0.06589-0.4594-0.41418-0.56227-0.48679-0.17257-0.12162-0.53624-0.16692-0.58096-0.18078-0.17633-0.05333-0.33264 0.17461-0.37214 0.31945-0.1731 0.63752 1.0843 0.29257 1.0462 0.76646 0 0.03712-0.0985 0.1611-0.1258 0.18138-0.1835 0.13389-0.82358 0.83837-0.82088 0.86182 0.0187 0.16298-0.52786 0.30183-0.66697 0.38615-0.0965 0.05818-0.17536 0.12419-0.29549 0.12872-0.31887 0.01016-0.43425-0.6276-0.78401-0.44876-0.0439 0.02401-0.0745 0.08525-0.0948 0.12931-0.16426 0.36923 0.37301 0.59103-0.17784 0.90629-0.0728 0.13523-0.18015 0.38724-0.18255 0.43413-0.15949 0.23713-0.63506-0.11581-0.72374 0.12344 0 0.01869 0.21922 0.63635 0.31768 0.79103 0.10858 0.16991 0.27149 0.30405 0.32065 0.51311 0 0.03069-0.0948 0.44891-0.11703 0.46806-0.0981 0.0848-0.37063 0.01313-0.60146 0.43121-0.14403 0.26007 0.034 0.61557-0.22351 0.82672-0.0159 0.04858-0.0633 0.22104-0.0344 0.25918 0.0544 0.07393 0.23698 0.09046 0.1615 0.20595-0.0526 0.08107-0.31082 0.16059-0.41776 0.26621-0.21208 0.21045-0.16276 0.38477-0.29196 0.612-0.0641 0.11443-0.41614 0.51931-0.42358 0.60029 0 0.07892 0.0953 0.248 0.10358 0.36275 0.0214 0.30458-0.17227 0.55064 0.0158 0.85598 0.0526 0.08967 0.52493 0.39513 0.56696 0.42477 0.0592 0.04211 0.0899 0.25303 0.0678 0.3177-0.18913 0.55078-0.62079 0.43748-1.0461 0.48036-0.0696 8e-3 -0.17084-0.03284-0.24046-0.03691-0.0831-0.0057 0.52805-0.41266 0.60612-0.46806 0.076-0.05366-0.0744-0.20357-0.15911-0.23637-0.0577-0.02401-0.34546-0.01016-0.4078 8e-3 -0.26649 0.08265-0.35164 0.30612-0.63367 0.38908-0.11358 0.03284-0.43633 0.07202-0.50668 0.16908-0.13896 0.19259 0.0997 0.5061 0.0439 0.56519-0.10327 0.10722-0.46094-0.14525-0.60497 0.01348-0.25579 0.28375 0.0438 0.57738-0.50844 0.91858-0.13897 0.08616-0.48595 0.33232-0.52834 0.48679-0.0214 0.07202-0.10529 0.39865-0.12052 0.49966-0.0214 0.12162 0.0423 0.36187-0.0439 0.46045-0.24805 0.28757-0.78195-0.07077-1.0438 0.90103-0.0322 0.11736-0.0454 0.51909-0.0656 0.56635-0.0405 0.09737-0.40846 0.01857-0.48269 0.09885-0.0608 0.06748 0.22894 0.38095 0.14919 0.51019-0.36415 0.59092-0.85416 0.3674-1.2608 0.64534-0.24139 0.16484-0.10327 0.37618-0.32413 0.50317-0.21473 0.12296-0.42072 0.07246-0.6588 0.26153-0.33499 0.26646-0.22015 0.49694-0.79513 0.75709-0.37043 0.16751-0.82762-0.05786-0.92911 0.02989-0.0406 0.03385-0.23371 0.41102-0.20945 0.47274 0.0159 0.03623 0.0697 0.07586 0.10013 0.09771 0.0695 0.04722 0.37001 0.18412 0.38614 0.20946 0.0795 0.1259-0.17759 0.75915-0.30715 0.80273-0.16593 0.05548-0.33407-0.29464-0.47744-0.08887-0.17736 0.25393 0.31313 0.75199 0.17788 0.87645-0.0289 0.02695-0.24016 0.01607-0.28844 0.01869-0.11364 0.0023-0.19614-0.07485-0.30894-0.07485-0.0677 0-0.1323 0.0566-0.18723 0.09125-0.12352 0.07733-0.30463 0.20344-0.13517 0.34871 0.0305 0.02673 0.34692 0.31027 0.30661 0.40194-0.12885 0.29059-0.46442 0.152-0.63657 0.31946-0.11522 0.11198 0.0389 0.29437 0 0.42008-0.0375 0.12377-0.31952 0.12842-0.37272 0.25218-0.0475 0.11118 0.15961 0.31971-0.0157 0.36743-0.25474 0.07019-0.39997-0.4071-0.85068-0.30074-0.0983 0.03918-0.60817 0.48855-0.30366 0.55934 0.2262 0.05253 0.318-0.03985 0.43763-0.01348 0.10857 0.02673 0.67659 0.28158 0.478 0.44525-0.18563 0.15311-0.52381 0.15014-0.64767 0.17201-0.29906 0.05231-0.35445-0.20656-0.54763-0.14335-0.24062 0.07812-0.10338 0.25619-0.15273 0.35397-0.13042 0.25367-0.65666 0.28587-0.89867 0.20712-0.18245-0.05899-0.34978-0.11368-0.34635-0.34228 0-0.03918 0.24173-0.54056 0.0164-0.55934-0.10014-8e-3 -0.26188 0.23767-0.38733 0.29196-0.32419 0.14003-0.25498-0.22141-0.50902-0.13633-0.14085 0.047-0.19361 0.42024-0.31244 0.54062-0.19099 0.19365-0.47168 0.22459-0.70386 0.3335-0.12053 0.05649-0.29479 0.49681-0.64591 0.23812-0.14084-0.10326 0.1016-0.24304-0.0661-0.44174-0.11016-0.13122-0.27701-0.2523-0.44815-0.28083-0.60346-0.10031-0.41568 0.51294-0.57984 0.62545-0.13041 0.08991-0.66148-0.15319-0.93496-8e-3 -0.24939 0.13283-0.40028 0.54151-0.61139 0.76879-0.14725 0.15952-0.29669 0.2114-0.46748 0.3294-0.0914 0.06296-0.47075 0.32434-0.56988 0.42536-0.0914 0.09386-0.16251 0.18723-0.18839 0.31887-0.0915 0.44554 1.1753 0.09782 1.2597 0.70092 0.0159 0.08186 0.0158 0.16874-0.0186 0.2469-0.0159 0.03578-0.17495 0.15914-0.17495 0.15914-0.2174 0.047-0.49518-0.09408-0.73546-0.07485-0.32637 0.02672-0.60678 0.22701-0.93787 0.22701-0.13042 0-0.15604-0.02705-0.23287-0.1252-0.0746-0.09466-0.13876-0.28582-0.21239-0.35398-0.073-0.06691-0.22183-0.0643-0.31184-0.04563-0.11359 0.02401-0.20553 0.08514-0.29489 0.15446-0.48969 0.38111-0.10529 0.77335-0.41247 1.2123-0.0439 0.06215-0.0815 0.12599-0.14921 0.16441-0.50719 0.28812-1.0072-0.4755-1.6054 0.28493-0.0577 0.07257-0.13729 0.14698-0.17728 0.22994-0.0159 0.03204-0.12191 0.58764-0.12697 0.65763 0 0.06906 0.0709 0.1582 0.0263 0.20888-0.0241 0.02672-0.0832 0.04632-0.11525 0.05911-0.22487 0.08967-0.18596-0.03091-0.33701-0.09069-0.10665-0.04246-0.38326-0.07064-0.45694 0.03747-0.0159 0.02672-0.0952 0.17008-0.0919 0.1954 0.0354 0.27936 0.48591 0.75227 0.1088 0.9847-0.10327 0.0635-0.21964 0.06929-0.33 0.02401-0.33734-0.14271-0.44581-0.55489-0.70558-0.64652-0.30789-0.10858-0.66218 0.38772-0.9882 0.3253-0.39332-0.07518-0.53003-0.77456-1.0906-0.42418-0.52379 0.32747 0.0265 0.75169-0.53591 1.0912-0.32098 0.19391-1.1186 0.05671-1.5891 0.26269-0.39685 0.17365-0.70687 0.40102-1.0485 0.65938-0.0881 0.06727-0.16631 0.15026-0.26446 0.20654-0.60326 0.34548-1.2139 0.59693-1.8617 0.84427-0.27586 0.10507-0.80253 0.30559-0.97298 0.55875-0.0557 0.08379-0.0514 0.14855-0.0561 0.24457-0.0159 0.18138 0.0831 0.31149 0.21296 0.43179 0.14217 0.13123 0.58551 0.19903 0.65823 0.32765 0.19816 0.351 0.11164 0.8045-0.36979 0.77698-0.24563-0.01336-0.56575-0.32844-0.79453-0.34402-0.3545-0.02401-0.90954 0.45974-1.1778 0.44992-0.17844-8e-3 -0.71437-0.08402-0.74658-0.30892-0.0159-0.10541 0.20914-0.35792 0-0.47041-0.25951-0.1403-0.48601 0.44869-0.57512 0.59854-0.0494 0.08084-0.3856 0.59704-0.4868 0.79629-0.12028 0.23608-0.17257 0.08887-0.33583 0.2159-0.12351 0.0968-1.02 0.74797-1.0467 0.76002-0.15952 0.07257-0.7102 0.20553-0.78345 0.2194-0.2299 0.04404-0.52786 0.34267-0.64124 0.54179-0.11186 0.19631-0.0388 0.4044-0.0625 0.60966-0.0159 0.09307-0.23312 0.63054-0.32824 0.7056-0.13548 0.10643-1.5293 0.70096-1.7348 0.7647-0.18722 0.05819-0.38343 0.01891-0.57219 0.10824-0.2847 0.13283-0.4684 0.43573-0.73545 0.59152-0.34333 0.2003-0.27228 0.35198-0.39377 0.43179-0.11017 0.0728-1.364 0.73112-1.4393 1.0613-0.0289 0.1259-0.52284 1.0148-0.55639 1.0414-0.10327 0.08186-0.34432-0.151-0.61374 0.02401-0.30385 0.19606-0.42699 0.5269-0.66523 0.78518-0.12353 0.13363-0.35938 0.16012-0.50903 0.28201-0.12536 0.10213-0.55748 0.57942-0.63424 0.66232-0.31231 0.3374-0.97275 1.0291-0.97768 1.5177 0 0.07631 0.0508 0.22114 0.11007 0.2703 0.0881 0.07258 0.15251 0.08798 0.27088 0.18664 0.30666 0.25658 0.31573 0.49519 0.22232 0.9057 0.0322-0.07405 0.0632-0.15363 0.0772-0.21648 0.17979-0.82744-0.49495-1.1745-0.0813-2.1291 0.0544-0.03442 0.13563-0.09872 0.16792-0.15796l0.10295 0.0608c0.21286 0.57307 0.0477 0.94685 0.1615 1.3825 0.34042 0.19686 0.71855 0.27919 1.107 0.31244 0.16243 0.01336 0.36295-8e-3 0.51663 0.05151 0.13739 0.0531 0.28419 0.19629 0.43823 0.22643 0.0677 0.01336 0.43844 0.01596 0.5523 0.02401l0.0813 0.1053-0.0878 0.12111c-0.16243 0.06964-0.43044 0.16963-0.6067 0.14509-0.48092-0.06669-0.44462-0.48115-1.2983-0.44173-0.10326 0.0057-0.32639 0.03113-0.41365 0.08661-0.0187 0.01336-0.18449 0.19743-0.1954 0.21823-0.09 0.17258-0.22481 0.85314-0.22879 1.0596 0 0.30525 0.11707 0.67494-0.034 0.96187-0.27248 0.52012-1.18 0.07907-1.152 0.80858 0.24031 0.27343 0.5053 0.47964 0.78168 0.72025 0.0881 0.36683-0.0158 0.63498 0.49206 0.67867 0.12374 0.01135 0.22766 2.73e-4 0.34985 0.04094 0.17791 0.16486 0.1829 0.79353 0.46516 0.98646l0.18897 0.01571c0.0746-0.04236 0.16542-0.12421 0.24222-0.15329 0.39887-0.15177 0.64241 0.17788 0.97709 0.17788 0.0491 0 0.10541-0.03091 0.15447-0.03273 0.0644-2e-3 0.33926 0.03608 0.39726 0.05675 0.18327 0.06578 0.32065 0.29815 0.51195 0.33174 0.29097 0.05088 0.71932-0.22684 0.96362-0.04094l0.034 0.14567c-0.17153 0.2896-0.22033 0.6485 0 0.92208 0.18057 0.02138 0.37648 0.06324 0.53944 0.1451 0.24486 0.40669-0.27514 0.80262-0.1884 1.2614 0.11713 0.02665 0.25107 0.03172 0.36392 0.06496 0.57511 0.16938 0.41607 0.53296 0.6196 0.76003 0.15416-0.0214 0.29109-0.0918 0.44464-0.11351 0.23581 0.17713 0.28282 0.43774 0.16794 0.71147-0.0543 0.13282-0.36523 0.35664-0.45169 0.60673-0.0424 0.12269-0.016 0.22439-0.034 0.33934-0.0239 0.14324-0.21476 0.40054-0.27617 0.59853 0.0763 0.0305 0.17582 0.11905 0.20889 0.19425 0 0.10212-2.7e-4 0.2059-0.0217 0.30718 0.0981 0.0186 0.21976 0.024 0.31711 0 0.14724-0.0346 0.13848-0.0623 0.24222-0.14511 0.24219-0.19363 0.53427-0.20647 0.77524-0.38849 0.13388-0.10074 0.2947-0.30695 0.44466-0.36392 0.33111-0.1259 0.7351 0.25615 0.97063-0.0808 0.16432-0.23633-0.0322-0.45804-0.0884-0.69508l0.0404-0.15387c0.0593-0.0602 0.19439-0.10064 0.27615-0.0977 0.2752-0.61048-0.37107-0.67302-0.44464-1.0022 0.1017-0.27246 0.44656-0.3821 0.41774-0.84076-0.0214-0.34811-0.60452-0.88456-0.33-1.1971l0.141-0.04915 0.17554 0.04915c0.15949 0.18484 0.3184 0.76516 0.44464 0.86475 0.19074 0.15015 0.46556-0.01855 0.6465 0.16208 0.0541 0.06446 0.0797 0.20265 0.0679 0.28317l0.0814 0.1135c0.11519 0.02949 0.27107 0.06263 0.39084 0.05676 0.0494-2e-3 0.0985-0.03071 0.14746-0.03274 0.11712-0.0091 0.25827 0.02159 0.37736 0.03274 0.0998 0.09861 0.13381 0.24152 0.19542 0.36392 0.13736 0.09466 0.37595 0.12666 0.53945 0.12111 0.51261 0.23738 0.37913 1.1803 0.70735 1.5201l0.13516 0.0491c0.0848-0.0452 0.20122-0.0764 0.29663-0.0808 0.076 0.0214 0.1908 0.0754 0.24281 0.13749 0.10326-0.13578 0.10618-0.32845 0.16732-0.48505l0.12933-0.0808c0.0981 0.0499 0.13897 0.11881 0.20885 0.19424 0.19258 0.20593 0.16209 0.24249 0.22878 0.50903l0.12054 0.0896c0.15763-0.0336 0.33835-0.091 0.49847-0.0486 0.20271 0.0534 0.37167 0.35493 0.50551 0.50961 0.0814 0.0935 0.18879 0.17593 0.28084 0.25861 0.42652 0.38388 0.79311 0.56514 1.3094 0.19366 0.09-9e-5 0.22801 0.0554 0.28962 0.1211 0.18004 0.28748 0.0394 0.59344 0.29662 0.95427 0.0592 0.0829 0.11335 0.15683 0.20889 0.20244 0.31717-0.12056 0.86934 0.14495 1.1116-0.16207-0.11186-0.20778-0.33628-0.36962-0.30307-0.63012l0.0673-0.10531c0.18167 0.0159 0.31507 0.11779 0.50552 0.11352 0.26382-9e-3 0.49676-0.154 0.76821-0.14628l0.12696 0.0813c0.0186 0.22673-0.33927 0.39131-0.18196 0.72784l0.11528 0.0644c0.42667-0.10033 0.50091-0.0687 0.66054 0.33994 0.12377 0.14002 0.334 0.0806 0.46516 0.21003 0.0695 0.12219 0.09 0.27654 0.12051 0.41248 0.23524 0.26249 0.51824 0.0997 0.73428 0 0.13231-0.0605 0.26589-0.0993 0.3844-0.19424 0.14723-0.11849 0.27033-0.2839 0.44468-0.37211 0.0949-0.0482 0.19149-0.0454 0.2896-0.0731 0.0933-0.0266 0.18222-0.0904 0.27615-0.11349 0.0494-0.0132 0.1054-2e-3 0.15447-0.0157 0.12188-0.0305 0.30236-0.10881 0.41774-0.16207 0.13044-0.06 0.26949-0.11486 0.39728-0.17786 0.2901-0.1427 0.42995-0.27668 0.76177-0.39609l0.15622 0.0644c0.0712 0.0956 0.0727 0.22895 0.0607 0.34228-0.0814 0.71111-0.87637 0.57821-1.1859 1.186-0.12191 0.23954-0.0935 0.68113-0.23578 0.85715-0.0576 0.073-0.15974 0.10518-0.22937 0.16149-0.037 0.0305-0.0624 0.0761-0.0994 0.10529-0.39824 0.30401-0.55492 0.21763-0.75008 0.83258-0.0609 0.19364-0.11831 0.34041-0.0912 0.54997l0.14217 0.0485c0.20915-0.2406 0.38877-0.21366 0.667-0.28319l0.13513 0.0808-0.0211 0.16967c-0.0949 0.0983-0.25203 0.16233-0.33055 0.26739-0.0933 0.12536-0.12993 0.28147-0.24225 0.40371 0.0159 0.0945 0.0456 0.19725 0.0878 0.28317 0.18139 0.17976 1.0001 0.17801 1.2808 0.21882 0.19097 0.028 0.37056 0.13682 0.55934 0.14509 0.0763 2e-3 0.22896-0.0445 0.29604-0.0808l0.13576 0.0491c0 0.387-0.33223 0.67025-0.70737 0.6869-0.15073-0.0629-0.30346-0.16228-0.47159-0.16149l-0.0678 0.13692 0.0527 0.12989c0.12188 0.0644 0.2482 0.16872 0.3165 0.29079-0.0695 0.23791-0.19995 0.40853-0.19543 0.67108 0.10507 0.0906 0.21952 0.18636 0.28962 0.30716 0.14564-0.0114 0.26163-0.12231 0.40431-0.11351l0.0527 0.12931c-0.0661 0.0769-0.14915 0.13098-0.21529 0.20244-0.0677 0.073-0.10858 0.17866-0.17553 0.25042-0.0307 0.034-0.0832 0.0556-0.11525 0.0896-0.0677 0.071-0.10835 0.15395-0.1884 0.21825-0.0267 0.14642 0.016 0.29479-0.0404 0.43647-0.0643 0.091-0.14586 0.11681-0.22934 0.17844-0.1491 0.11119-0.28201 0.54437-0.28318 0.72785 0.11871 0.0866 0.49294 0.25819 0.53242 0.32296l-0.0527 0.16205-0.16908 9e-3c-0.0968-0.11714-0.24768-0.20373-0.39083-0.2504-0.0712 2e-3 -0.50832 0.14158-0.56578 0.17786l-0.0678 0.0695c-0.11517 0.11898-0.27275 0.16996-0.38439 0.27792-0.0541 0.0518-0.0994 0.13677-0.15037 0.196-0.0159 0.0159-0.0215 0.0221-0.0321 0.0386-0.0556 0.107-0.0696 0.2243-0.141 0.33175 0.12375 0.10677 0.32503 0.0967 0.41775 0.23404-0.0159 0.14138-0.12055 0.27803-0.22936 0.36392-0.0594 0.0186-0.26777 0.0511-0.32296 0.0404-0.0459-9e-3 -0.10688-0.0598-0.15622-0.0726-0.13231-0.0352-0.44934 0.0773-0.5254 0.19367l-0.0158 0.13808c0.18512 0.31067-0.0158 0.64147-0.12872 0.95367l0.16208 0.0321 0.14219-0.0562 0.10013 0.10473c-0.0273 0.15043-0.1171 0.30712-0.0814 0.46107l0.20185 0.0484c0.0949 0.21128 0.3674 0.23161 0.5599 0.29957l-0.0163 0.17787c-0.24942 0.0324-0.55015 0.1323-0.80158 0.0972-0.18169-0.0267-0.34009-0.14042-0.53245-0.16148-0.0795 0.043-0.1625 0.12031-0.21588 0.19366-0.0375 0.17658-0.0353 0.38086-0.0948 0.54998-0.0932 0.27235-0.4692 0.80583-0.66697 1.0268-0.10326 0.11605-0.35767 0.26161-0.37037 0.42069 0.14912 0.0787 0.34799 0.0631 0.50494 0.0164l0.1018 0.0972v0.15386c-0.1016 0.11603-0.23761 0.15519-0.34343 0.25042-0.14215 0.12748-0.15983 0.26465-0.23637 0.41249-0.0406 0.0789-0.13207 0.15485-0.18194 0.23461-0.0556 0.0901-0.0935 0.19223-0.14744 0.28259-0.0746 0.12378-0.17924 0.23623-0.26273 0.35573l0.0275 0.14568c0.0611 0.0713 0.13204 0.13878 0.20888 0.19425l0.0275 0.14511c-0.19633 0.15631-0.1777 0.26698-0.29432 0.46689-0.11174 0.32692-0.64543 0.37155-0.83081 0.66523-0.21495 0.34069-0.0589 0.7672-0.10125 1.1321-0.0339 0.29347-0.21444 0.61362-0.20244 0.90571 0 0.12992 0.0662 0.29177 0.11527 0.41248l0.12697 0.0889 0.17553-9e-3 0.10181-0.0977 0.10824 0.0977c0.2906 0.0986 0.41983-0.0956 0.61318-0.0404 0.32451 0.42454-3.1e-4 0.81731 0.25566 1.3094 0.0815 0.0359 0.22823 0.0359 0.31011 0-0.0643-0.52067 0.21548-0.4772 0.2627-0.71088 0.0509-0.25074-0.0999-0.55635-0.034-0.80098 0.076-0.0317 0.22057-0.0239 0.28962 0.024 0.0965 0.28313 0.42876 0.48945 0.47858 0.67927-0.0355 0.10432-0.0778 0.20878-0.12872 0.30717 0.0239 0.0661 0.1268 0.1438 0.18839 0.16967-0.0848 0.25847-0.41052 0.33333-0.56575 0.67109l0.0338 0.1457c0.0998 0.13364 0.96478 0.71444 1.1052 0.67108l0.0878-0.1211c0.09-0.0381 0.18318-0.0739 0.27614-0.10531l-0.0157-0.1211c-0.1219-0.11581-0.20777-0.37589-0.13573-0.5336l0.13573-0.0568c0.2078 0.20433 0.52252 0.56296 0.80858 0.61435l0.12171-0.0726c0.10506-0.17364 0.1337-0.46166 0.27613-0.59036l0.15449-0.0326c0.0159 0.10881-0.0275 0.20479-0.0275 0.30716 0 0.28463 0.15628 0.5011 0.45168 0.51781 0 0 0.14745-0.0826 0.25627-0.1053 0.0439-9e-3 0.0895-0.0436 0.13339-0.0562 0.15254-0.0436 0.26962-0.0546 0.4043-0.15446 0.0375-0.0278 0.0698-0.0726 0.1088-0.0972 0.12695-0.0809 0.28206-0.0777 0.34985-0.24223l0.0164-0.17845c-0.0439-0.0755-0.11015-0.15135-0.17551-0.21004-0.10859-0.0186-0.23665-0.0624-0.33057-0.12112l-0.0608-0.1293c0.0815-0.0482 0.23296-0.0599 0.32298-0.0404l0.12168-0.065c0.0795-0.18245 0.0866-0.57075 0.16794-0.66289l0.24279 0.0486c0.2614 0.59665-0.12332 0.52112 0.53241 0.97062 0.0405 0.18086 0.0844 0.35352 0.15389 0.52542 0.2566 0.15951 0.6005 0.019 0.87588 0.10529 0 0 0.51121 0.33184 0.51896 0.33934 0.0932 0.0901 0.16265 0.23934 0.27615 0.31537 0.13045 0.0865 0.31772 0.10619 0.43823 0.21822 0.21634 0.20085 0.23179 0.64691 0.55232 0.79221 0.36317 0.16457 0.51252-0.0239 0.8355 9e-3 0.11715 0.11152 0.0445 0.27881 0.13631 0.4043 0.13044 0.18272 0.22105 0.0858 0.37038 0.42008l-0.0275 0.11352c-0.24752 0.18298-1.2051-0.24157-1.4352-0.42009-0.0998-0.0773-0.21811-0.19699-0.30305-0.29137-0.18588-0.20726-0.24764-0.50229-0.47214-0.67929-0.0914-0.072-0.20359-0.12207-0.32357-0.10473l-0.0814 0.12111c0.0339 0.26733-0.0981 0.73262-0.43764 0.71966l-0.14919-0.0731-0.0607-0.12929c0.0159-0.13204 0.0624-0.38588 0.034-0.50903-0.0932-0.38996-0.98328-0.53145-1.2333-0.86533l-0.16677-0.0485c-0.10159 0.12007-0.11411 0.31822-0.0955 0.46864-0.18111 0.3966-0.75041 0.14101-1.0239 0.0169-0.0439-0.0186-0.0848-0.0645-0.12697-0.0808-0.0998-0.0377-0.2758-0.0542-0.38438-0.0568l-0.12171 0.0726c-0.0322 0.15735-0.12338 0.30397-0.22235 0.42827-0.0509 0.0293-0.3678 0.12401-0.42475 0.12988-0.11186 0.0114-0.2316-0.0246-0.34988-9e-3 -0.16084 0.14484-0.13025 0.45051-0.31011 0.54997-0.5993-0.0214-0.78201-0.39721-1.0982-0.42828-0.40961-0.0398-0.71641 0.53156-1.2532 0.38793-0.1355-0.15071-0.29329-0.28555-0.48563-0.35575-0.0831 0.0368-0.17191 0.10825-0.22874 0.17787-0.0696 0.24967 0.19798 0.60678 0.11524 0.89751l-0.0955 0.12111-0.14686 0.024c-0.34705-0.0803-0.35622-0.41446-0.49908-0.66289-0.0159-0.0186-0.42821-0.52097-0.44463-0.5336-0.0831-0.0348-0.23276-0.0364-0.31654 0 0 0.045-0.0274 0.32187-0.0341 0.33934-0.0289 0.0857-0.12169 0.18356-0.1609 0.27499 0.0592 0.13845 0.22752 0.17082 0.31012 0.2908 0.0439 0.0649 0.0756 0.18368 0.10822 0.25918-0.0267 0.1571-0.10295 0.34453-0.0878 0.50141 0.0267 0.26941 0.25526 0.44303 0.13577 0.73545-0.28205 0.0909-0.71973-0.12428-0.91685 0.17845-0.0949 0.14565-0.0455 0.33733-0.14685 0.48503-0.22352 0.18457-0.7074 0.1018-0.79572-0.19424 0.0914-0.13445 0.22138-0.26062 0.20246-0.43649-0.26543-0.36676-0.59315-0.0218-0.8829-0.0731-0.26707-0.0468-0.39855-0.40201-0.71438-0.2744-0.0676 0.0702-0.12498 0.18859-0.14688 0.28318 0.0577 0.13178 0.15248 0.26138 0.19544 0.39611 0.12696 0.398-0.1475 0.54638-0.10879 0.73544l0.0813 0.12111c0.20055 0.0441 0.54409 0.42126 0.55289 0.63072 0 0.10801-0.0276 0.23716-0.0345 0.34754-0.0475 0.0568-0.49584 0.70571-0.51197 0.74423-0.0949 0.22698-0.12056 0.52477-0.20243 0.71145-0.0289 0.066-0.14056 0.16126-0.20828 0.18605l-0.10881-0.0568c-0.0643-0.19604-0.0218-0.40677-0.0748-0.60614l-0.10114-0.0889-0.14218 0.0404c-0.12351 0.24457-0.21679 0.50198-0.34344 0.74363-0.11837 0.22592-0.30017 0.44386-0.38441 0.68748-0.0186 0.0568-0.0184 0.13135-0.0404 0.18603-0.0424 0.10115-0.44268 0.53826-0.54585 0.70327-0.1016 0.16326-0.21893 0.38742-0.28961 0.56637-0.0214 0.0526-0.0292 0.11977-0.0544 0.16909-0.10859 0.21365-0.3365 0.36023-0.478 0.54998 0.0627 0.0771 0.095 0.16133 0.13399 0.2504 0.24512 0.55408-3.3e-4 0.78531-0.0749 1.3182-0.024 0.15976 0 0.32459 0 0.48504 0 0.0974-3e-5 0.19944 0.0607 0.28317 0.0866 0.0743 0.18136 0.10054 0.27675 0.15387 0.09 0.0501 0.15225 0.13345 0.2352 0.18546 0.0439 0.0287 0.10337 0.0367 0.1492 0.065 0.0779 0.0497 0.24368 0.22795 0.29605 0.30718 0.26408 0.12669 0.67507 0.04 0.93027-0.0889 0.0914-0.0466 0.1506-0.0994 0.25567-0.12931 0.17155-0.0492 0.33768-0.0159 0.51257 0l0.10823 0.0972-0.0211 0.11288-0.1088 0.10529c-0.11186-2e-3 -0.18828 0.0419-0.28962 0.0726-0.46822 0.1435-0.51893 0.21372-0.77464 0.62311-0.0556 0.0897-0.12054 0.15671-0.16266 0.2586l-0.11527 0.0731c-0.33212-0.1208-0.30591-0.58686-0.51195-0.82497-0.10507-0.12142-0.26556-0.20047-0.40019-0.28553-0.20698-0.13044-0.309-0.20766-0.57044-0.2071-0.0746 0.0339-0.28186 0.2019-0.33001 0.2662-0.0608 0.0822-0.0902 0.18609-0.16262 0.26739-0.15071 0.16724-0.34894 0.36964-0.45112 0.57397-0.0491 0.0998-0.0832 0.23161-0.11524 0.33934-0.19444 0.0886-0.48459 0.0413-0.674-0.0404l-0.15449 0.0326c-0.20937 0.15124-0.28264 0.41041-0.44463 0.59796-0.15953 0.18377-0.36824 0.29409-0.56579 0.42887-0.17126-5e-3 -0.34903 0.0214-0.51896 0-0.18913-0.0239-0.38692-0.10678-0.57924-0.0977-0.16936 9e-3 -0.56296 0.1661-0.62723 0.33173 0.0159 0.19312 0.12909 0.36257 0.29022 0.46926 0.20511 0.13603 0.6366 0.13132 0.87586 0.16146 0.43145 0.0546 0.83326 0.26887 1.2603 0.31536 0.43925 0.048 0.56067 0.0159 0.97651-0.024 0.11016-0.0113 0.22631 9e-3 0.33757-9e-3 0.10327-0.0133 0.20577-0.0517 0.30953-0.065 0.16113-0.0214 0.3406 9e-3 0.49908-0.024 0.10859-0.0214 0.30549-0.10983 0.37736-0.19425 0.0914-0.20647 0.0215-0.43617 0.24283-0.58216 0.0265 2e-3 0.14348 0.0192 0.16028 0.0245 0.0439 0.0187 0.58068 0.38873 0.61378 0.42829 0.21392 0.25687 0.38631 0.51912 0.65353 0.73603 0.25899 0.21019 0.60816 0.12288 0.84894 0.2826 0.039 0.0265 0.0714 0.076 0.10881 0.1053 0.28518 0.22485 0.5366 0.28722 0.89516 0.2504 0.10664-0.0113 0.19075-0.0611 0.2896-0.0888 0.18806-0.0528 0.39299-0.0683 0.57398-0.15389 0.0391-0.0186 0.0755-0.0589 0.11468-0.0808 0.22431-0.12377 0.55629-0.26977 0.80214-0.33994 0.37621-0.10756 0.79261-0.1333 1.1725-0.0404 0.17923 0.0439 0.32998 0.14475 0.5254 0.16208 0.0524 5e-3 0.1131-9e-3 0.16733-9e-3 0.18162 5e-3 0.36304 0.0404 0.54586 0.0404 0.21234 0 0.46705-0.0407 0.67462-0.0158 0.22886 0.0278 0.72413 0.22097 0.78106 0.47685l-0.0275 0.1135c-0.32708 0.0411-0.69239 0.36511-0.62662 0.71965 0.024 0.13124 0.10994 0.26142 0.15389 0.38849l-0.0157 0.16769 7.3414 1e-5c2.7e-4 -0.11882 0.0397-0.12535 0.041-0.12761 0.1136-0.0841 0.24678-0.13734 0.3575-0.22644l0.12169 0.0246c0.0831 0.0317 0.16957-9e-3 0.24983 9e-3 0.11362 0.0214 0.19969 0.0872 0.32999 0.089l0.21589-0.19365 0.12873 0.041c0.0214 0.0798 0.0947 0.18468 0.1609 0.23403 0.0499-1.3e-4 0.92919-0.0406 0.91859 0.15942l70.176 6e-3c-2e-3 -0.0301-0.0593-0.14958-0.0667-0.15852-0.0307-0.0375-0.0508-0.0825-0.0814-0.12112-0.14086-0.18911-0.36269-0.31965-0.49907-0.50142-0.13902-0.18644-0.26626-0.37734-0.41777-0.55816-0.15415-0.18431-0.13546-0.46146-0.27615-0.63833-0.31282-0.39488-0.81297-0.62757-1.0578-1.1-0.27976-0.53953-0.17972-0.88028-0.28318-1.4311-0.22058-0.14032-0.45904-0.41415-0.45111-0.69508 0-0.18644 0.0475-0.25499-0.0474-0.44525-0.0612-0.12483-0.16989-0.22107-0.22933-0.34753-0.18542-0.39538-0.50907-0.81236-0.60614-1.2451-0.0474-0.21285-0.13068-0.64112-0.22938-0.82496-0.0439-0.0803-0.11164-0.14099-0.16734-0.21005-0.09-0.10937-0.13885-0.24633-0.22873-0.35573-0.13896-0.16909-0.29672-0.36625-0.3774-0.57454-0.0862-0.2238-0.0624-0.46627-0.18195-0.69508-0.0185-0.035-0.42343-0.70192-0.42478-0.70327-0.18085-0.22113-0.34129-0.41975-0.47158-0.67928-0.13733-0.27273-0.12408-0.55078-0.20887-0.83257-0.0405-0.13364-0.16953-0.22374-0.22875-0.34811-0.12032-0.25047-0.25402-0.49319-0.37738-0.74366-0.12349-0.25206-0.1192-0.55362-0.25628-0.80037-0.0458-0.083-0.12855-0.13582-0.17495-0.21825-0.0459-0.0813-0.0793-0.16013-0.12869-0.24282-0.09-0.15416-0.0914-0.36732-0.17554-0.53359-0.10507-0.2083-0.28977-0.36755-0.3838-0.58215-0.0526-0.12324-0.43439-0.92039-0.49032-0.98469-0.024-0.0657-0.0341-0.0724-0.0543-0.13107-0.024-0.0694-0.0322-0.1275-0.0661-0.20887-0.0459-0.10914-0.0609-0.32709-0.0543-0.44464 0-0.10891 0.0158-0.2414 0.0403-0.34754 0.0269-0.12218 0.0867-0.24593 0.0936-0.37212 0.0158-0.27703-0.27713-0.51242-0.45169-0.68688-0.14402-0.1443-0.14424-0.17214-0.32355-0.29137-0.0406-0.0267-0.0861-0.0682-0.12869-0.0889-0.10676-0.0514-0.21394-0.064-0.31655-0.13749-0.076-0.0544-0.13546-0.13531-0.20828-0.19425-0.0405-0.0322-0.0903-0.0564-0.12929-0.0895-0.28691-0.24301-0.18375-0.58488-0.47801-0.84078-0.14725 0.1158-0.076 0.30569-0.23581 0.42069-0.19095 0.13764-0.45178-9e-3 -0.66053 0.0321-0.0268 5e-3 -0.23411 0.10359-0.25569 0.12111-0.034 0.028-0.0648 0.0806-0.0936 0.11351-0.11017 0.11812-0.23317 0.20701-0.40432 0.16967l-0.12696-0.0808-0.0474-0.1293 0.0948-0.12931c0-0.33334-0.34703-0.43952-0.52598-0.6629-0.0273-0.0345-0.14565-0.17566-0.17553-0.21061-0.0307-0.0367-0.0493-0.0842-0.0814-0.12112-0.0474-0.0577-0.13861-0.15336-0.1954-0.20243-0.11017-0.0968-0.2732-0.14782-0.35689-0.27499-0.0713-0.10915-0.0936-0.26976-0.15622-0.38792-0.0661-0.12429-0.16417-0.22267-0.24924-0.33173-0.0273-0.0352-0.0508-0.0902-0.0814-0.12112-0.0998-0.10074-0.28178-0.17104-0.40428-0.2428-0.0881-0.0518-0.16229-0.12586-0.24927-0.17787-0.0439-0.0266-0.2253-0.12827-0.26972-0.15388-0.0899-0.0514-0.20636-0.107-0.30307-0.14567-0.12537-0.0502-0.2375-0.0522-0.36392-0.0808-0.11518-0.0266-0.22844-0.0831-0.34344-0.11351-0.0965-0.0266-0.19867-0.0407-0.29662-0.0643-0.0795-0.0186-0.18858-0.0274-0.26272-0.0567-0.0712-0.0287-0.28028-0.22609-0.33057-0.29136-0.0273-0.0364-0.0436-0.0848-0.0743-0.12052-0.0273-0.0352-0.0713-0.0624-0.1018-0.0977-0.0576-0.0691-0.0965-0.15655-0.15388-0.22642-0.0866-0.1041-0.39086-0.36113-0.4353-0.44759-0.0474-0.17125-0.0775-0.32465-0.15034-0.4903-0.1678-0.0543-0.35198-0.0979-0.50551-0.18547-0.30181-0.1723-0.59423-0.50715-0.43122-0.86592l-0.0744-0.12111c-0.23319-0.0459-0.64613 0.13014-0.80861-0.0726 0.0406-0.0728 0.0459-0.21678 0-0.29138-0.14402-0.21339-0.50066-0.18978-0.6067-0.44465-0.0509-0.1227-0.0523-0.2961-0.10125-0.42067-0.12538-0.32261-0.56944-0.7041-0.76821-0.99464-0.18003-0.26275-0.31739-0.56032-0.46514-0.84075-0.12698-0.24248-0.30106-0.46095-0.43122-0.70329-0.0661-0.12402-0.0917-0.27722-0.16262-0.39667-0.0509-0.0861-0.15753-0.19981-0.24692-0.24223l-0.0527-0.024-0.0509-0.024c-0.14908-0.0214-0.38744 0.15046-0.58624 0.16968-0.15257 0.0159-0.28284-0.0526-0.42651-0.0457-0.42401 0.0214-0.58683 0.2169-1.1164 0.0457-0.5597-0.18083-0.4956-0.83795-1.1924-0.9139-0.19098-0.0214-0.38486 0.11387-0.5728 0.10531-0.12188-9e-3 -0.23242-0.0728-0.36391-0.0485-0.3745 0.07-0.38024 0.35181-0.94313 0.0966l-0.12231-0.0808c-0.0779-0.0757-0.65256-0.92711-0.70032-1.035-0.073-0.16486-0.0162-0.21086-0.20244-0.35573l-0.14921-0.0164c-0.12696 0.12007 0.0245 0.66062-0.0743 0.9063l-0.10881 0.0966c-0.0814 0.0327-0.25642 0.0376-0.33701 9e-3 -0.0814-0.0295-0.61923-0.46483-0.72785-0.54939-0.12029-0.094-0.2676-0.16052-0.38379-0.2592-0.62309-0.5279-0.73895-1.0615-0.70796-1.843 0-0.21177-0.0375-0.47048 0.0543-0.67167 0-0.0133 0.0814-0.10442 0.0948-0.1211 0.23393-0.30098 0.2983-0.298 0.32355-0.70327 0.0159-0.27373-0.0272-0.30857-0.18839-0.5254-0.0159-0.0912 7e-5 -0.22239 0.0341-0.30718 0.27776-0.17444 0.47624 0.0741 0.60673 0.2826l0.12167 0.024c0.0795-0.041 0.31881-0.18678 0.39084-0.19424 0.17633-0.0187 0.50923 0.075 0.69391 0.0152l0.0884-0.12053c0.0509-0.26771-0.1304-0.32071-0.26269-0.48562-0.0831-0.1041-0.14748-0.23848-0.22935-0.34814l-0.12873 0.0731c-0.0458 0.0933-0.10003 0.18527-0.16149 0.26738-0.10327 9e-3 -0.20758 0.0213-0.31007 0.0404-0.28353-0.15258-0.54526-0.0262-0.84195-0.11288-0.10508-0.0965-0.1986-0.20329-0.30306-0.29957 0.10159-0.093 0.17652-0.059 0.27616-0.0972 0.15416-0.0587 0.41061-0.43208 0.69391-0.50963 0.0898 0.0644 0.22203 0.11356 0.32995 0.12931l0.10882-0.0888c0.032-0.10721 0.0284-0.25971 0.0672-0.35572 0.0509-0.1283 0.29118-0.35541 0.41777-0.41249 0.0459-0.0214 0.0969-0.0219 0.14101-0.041 0.28247-0.13042 0.44258-0.2976 0.78397-0.18312 0.0831 0.028 0.16561 0.0587 0.22001 0.13456 0.0795 0.11016 0.063 0.46301 0.0615 0.60613 0.11876 0.11922 0.28091 0.0626 0.40429 0.18607 0.10159 0.10159 0.24282 0.67017 0.24282 0.81677 0 0.0533-0.0528 0.30806-0.0748 0.35572-0.0627 0.13897-0.21521 0.20611-0.27615 0.35573 0.0526 0.28821 0.0715 0.53621-0.0744 0.80859 0.0831 0.15764 0.28046 0.34851 0.45756 0.3803 0.0983-0.0319 0.22729-0.0429 0.33055-0.0321 0.1339-0.0831 0.2051-0.25087 0.20186-0.40372 0-0.15121-0.0911-0.26905-0.13514-0.40487-0.0375-0.11849-0.0694-0.30392-0.0814-0.42828-0.0388-0.4455-0.11509-1.2046-0.22877-1.6254-0.1136-0.4221-0.20823-0.85659-0.25628-1.2936-0.0474-0.4253-0.16754-1.1534-0.0607-1.5604 0.0307-0.11545 0.0799-0.22654 0.11062-0.34521 0.0594-0.23367 0.0981-0.42286 0.19954-0.64125 0.0627-0.13605 0.12201-0.32786 0.21588-0.44524 0.0405-0.0514 0.13024-0.10369 0.18197-0.1533 0.24327-0.23367 0.32283-0.48074 0.37736-0.80858 0.0556-0.33542-0.20014-0.38622-0.24925-0.62311-0.0186-0.0893-0.0159-0.21517 0-0.30717-0.0544-0.15951-0.28416-0.23389-0.37737-0.42009-0.12189-0.0683-0.20667-0.0242-0.31709-0.0487-0.0779-0.0186-0.14078-0.0878-0.22878-0.0896l0.0884 0.0568-0.10882-0.0568c-0.14082 0.0614-0.31323 0.0973-0.45812 0.0321-0.0307-0.21873 0.0929-0.44044 0.0672-0.67109-0.0267-0.2334-0.16228-0.46143-0.16734-0.69508-0.0159-0.51189 0.12373-0.8281 0.41073-1.2375 0.0187-0.02665 0.0636-0.11994 0.0808-0.13749 0.18135-0.18859 0.63511-0.30104 0.73425-0.46924-0.0159-0.17443-0.0318-0.30794 0.0678-0.46104 0.11208-0.17071 0.30866-0.21596 0.46455-0.33174 0.11359-0.08402 0.20768-0.23251 0.31652-0.30717 0.0458-0.03152 0.12192-0.04054 0.17555-0.07256 0.37514-0.2254 0.49313-0.40165 0.97707-0.35866 0.0901 0.0091 0.18656 0.02138 0.24924 0.09952 0.0242 0.08301 0.076 0.17853 0.13517 0.24281l0.14743 0.01642c0.30126-0.18085 0.21376-0.16194 0.43118-0.38791 0.42691-0.4438 0.41251-0.55024 1.0239-0.77582 0.16109 0.02392 0.32464 0.1087 0.48563 0.10422 0.10326-2e-3 0.21391-0.04044 0.3165-0.05615 0.45177-0.06942 0.69416-0.12715 0.7618-0.6547-0.073-0.14031-0.29733-0.28433-0.26973-0.45287 0.19551 0 0.33131 0.11601 0.51194 0.1451 0.23474 0.0379 0.42646-0.04368 0.64708-0.07257 0.0696-0.0091 0.25883-0.03101 0.32357-0.03213 0.0592-1e-3 0.13024 0.02828 0.1884 0.02402 0.14752-0.01135 0.27358-0.1372 0.42416-0.16148 0.16272-0.18323 0.29487-0.56474 0.28963-0.80859 0-0.14217-0.0574-0.3054-0.0607-0.44466 0-0.21633 0.12211-0.41863 0.22295-0.59854 0.076-0.13471 0.14186-0.26842 0.27556-0.35572 0.29942-0.19498 0.39125-0.03895 0.62662-0.09714 0.15764-0.03837 0.51764-0.49631 0.61374-0.63891 0.0556-0.08265 0.0902-0.19144 0.16795-0.2592 0.0795-0.06964 0.18123-0.07212 0.26969-0.1135 0.27792-0.12804 0.75136-0.6166 0.4242-0.91331 0.1355-0.10507 0.35813-0.01891 0.51252-8e-3 0.24725 0.01596 0.6621-0.05333 0.80802 0.21823 0.12029 0.03623 0.25971 0.08118 0.38439 0.09771 0.10858 0.01596 0.2271-0.01358 0.337-8e-3 0.19392 8e-3 0.38826 0.06091 0.57924 0.08887 0.16428 0.02401 0.38706-0.01619 0.53941 0.04043 0 0.0023 0.12035 0.08175 0.12699 0.08956 0.0998 0.09658 0.1204 0.25095 0.2159 0.35632 0.23178-0.06771 0.73153-0.41483 0.92267-0.42887 0.11358-8e-3 0.25421 0.04349 0.37091 0.04858 0.22249 0.01016 0.59715-8e-3 0.79573-0.11351l0.0403-0.14509c-0.23736-0.34216 0.23916-1.0117 0.82206-0.68747 0.073 0.11363 0.16553 0.22856 0.22877 0.34754 0.0677 0.1283 0.10495 0.26128 0.1954 0.3803 0.13043 0.06137 0.46046 0.25886 0.5933 0.21004 0.15255-0.25713 0.0158-0.58381 0.21527-0.82497 0.12538-0.07019 0.27361-0.10575 0.39085-0.18605 0.11715-0.0797 0.23464-0.17512 0.35045-0.25861 0.18993-0.13684 0.34094-0.35053 0.55934-0.44466 0.2257-0.09736 0.49629-0.17583 0.74131-0.19424 0.19072-0.01596 0.46842 0.02117 0.64651-0.05671 0.14405-0.06193 0.27878-0.44217 0.63367-0.59795 0.36207-0.15897 0.87444-0.10597 1.1795-0.31536 0.16775-0.11496 0.1372-0.2707 0.24923-0.40487 0.032-0.03974 1.2898-0.84657 1.3474-0.86475 0.34711-0.10914 0.56101 0.20216 0.9841 0.02401 0.19232-0.08084 0.26039-0.28178 0.40431-0.42067 0.0556-0.05446 0.13013-0.10236 0.19015-0.15388 0.0213-0.01596 0.1374-0.1157 0.14568-0.12931 0.0677-0.10427 0.0509-0.20968 0.0607-0.32355 0-0.05208 0.0281-0.11005 0.0281-0.16148 0-0.26327-0.3275-0.66621-0.51896-0.83316-0.0661-0.05808-0.17899-0.10133-0.22937-0.17786-0.0273-0.04268-0.0445-0.13011-0.065-0.18079-0.13228-0.316-0.19042-0.70619 0.11233-0.95954 0.10326-0.0864 0.53598-0.08242 0.74129-0.20244 0.16434-0.09624 0.30017-0.27887 0.47861-0.35573 0.18353-0.07892 0.50378-0.22393 0.69392-0.25861 0.15418-0.02831 0.3535 8e-3 0.5055-0.02401 0.083-0.01869 0.2738-0.12053 0.37679-0.15388 0.15259-0.04938 0.30567-0.05163 0.45812-0.08898 0.43401-0.10643 0.78336-0.39677 1.186-0.56577 0.23044-0.09737 0.66364-0.18906 0.83551-0.30717 0.19335-0.13283 0.39924-0.27756 0.56634-0.44466 0.11174-0.11254 0.16763-0.25932 0.25568-0.38849 0.12057-0.17658 0.25831-0.29798 0.40489-0.44466 0.10506-0.10427 0.18047-0.24879 0.28317-0.35573 0.13549-0.14163 0.33515-0.18115 0.47156-0.32355 0.11716-0.1227 0.25302-0.37014 0.41774-0.42068 0.19207-0.05864 0.44695-0.0574 0.64652-0.07257 0.18459-0.01336 0.41657-0.09273 0.59973-0.1375 0.0848-0.02129 0.19078-0.08707 0.27672-0.08887 0.12352-0.0023 0.27004 0.04766 0.39728 0.05616 0.26086 0.01869 0.76723-0.19826 0.9496-0.3879 0.0509-0.05333 0.0949-0.13185 0.14216-0.19132l0.0271-0.0351c-0.0186-0.07711 0.0743-0.27486 0.10473-0.35046 0.11519-0.27604 0.17202-0.54063 0.44058-0.72492 0.11208-0.07687 0.27689-0.11921 0.36333-0.22643 0.15066-0.18671 0.16821-0.4347 0.28374-0.63072 0.0556-0.09386 0.13868-0.15365 0.1539-0.27499 0.0158-0.13363-0.0847-0.30468-0.0743-0.43648 0.0158-0.11152 0.0748-0.25854 0.0999-0.37211 0.0577-0.03679 0.2781-0.25463 0.31657-0.30774 0.0158-0.01869 0.0157-0.03091 0.0211-0.05095 0.0899-0.20485 0.0901-0.44184 0.17319-0.65237 0.0795-0.20138 0.29685-0.31262 0.33699-0.52599 0.0406-0.21525-0.11028-0.39432-0.0527-0.60615 0.0158-0.04823 0.11736-0.27034 0.14744-0.30717 0.0158-0.01869 0.32126-0.2352 0.34989-0.25041 0.0795-0.04245 0.64855-0.20991 0.72784-0.20244 0.50039 0.048 0.49095 0.68874 0.93025 0.71965 0.0899-8e-3 0.19853-0.08446 0.24285-0.16207 0.0592-0.10427 0.0675-0.24583 0.1135-0.35573 0.0881-0.21152 0.39533-0.8752 0.53884-1.0186 0.20591-0.20591 0.48601-0.33442 0.74833-0.44466 0.17977-0.07552 0.3923-0.10348 0.5728-0.17786 0.26707-0.10937 0.49041-0.31697 0.74829-0.44525 0.18676-0.09307 0.3693-0.14668 0.55878-0.22643 0.13391-0.05605 0.26497-0.1319 0.39725-0.18606 0.0458-0.01869 0.10348-0.02139 0.14745-0.04043 0.0459-0.02129 0.0828-0.05966 0.12871-0.08073 0.0541-0.02673 0.23904-0.06431 0.29663-0.06431 0.32946 0 0.66392 0.09217 0.96364-0.11351 0.3506-0.24059 0.18378-0.77089 0.667-0.83256 0.0544-8e-3 0.11375 8e-3 0.16792 0 0.25872-0.02673 0.49506-0.15047 0.76176-0.16967 0.22033-0.01596 0.44024 0.02139 0.65997-0.03215 0.0509-0.01336 0.0964-0.04507 0.14744-0.05673 0.26034-0.06114 0.55661-0.06431 0.82263-0.06431 0.0509 0 0.12691-8e-3 0.17494 0 0.17071 0.03148 0.33628 0.18528 0.51897 0.10473 0.0848-0.15098 0.13205-0.3151 0.20828-0.46865 0.073-0.14724 0.18219-0.27916 0.23581-0.43706 0.0712-0.21018 0.0798-0.51685 0.18896-0.70327 0.0526-0.09046 0.13878-0.15645 0.18841-0.25861 0-0.15203-0.019-0.33864 0.0211-0.48561 0.0439-0.16297 0.18611-0.3014 0.22294-0.46104 0.0713-0.31107-0.54066-0.90514-0.6945-1.1965-0.0459-0.08832-0.0626-0.17459-0.12696-0.25861 0.0158-0.2398-0.0267-0.51292-0.0474-0.75184-0.034-0.36371 0.0158-0.77802 0.0404-1.1403 0-0.10405-0.0275-0.19484-0.0275-0.29137 0-0.14003 0.078-0.40415 0.1474-0.5254-0.0354-0.047-0.13751-0.17868-0.15618-0.22643-0.0459-0.11843-0.11979-0.637-0.079-0.75182 0.0273-0.08344 0.12145-0.19372 0.16734-0.27499-0.0405-0.12084-0.13203-0.26868-0.15388-0.38849-0.0424-0.223 0.12171-0.43849 0.12171-0.6629 0-0.09284-0.0527-0.20334-0.0474-0.29137 0.0158-0.20164 0.18988-0.30344 0.2024-0.5014 0.0831-0.04858 0.15758-0.14708 0.19543-0.23404 0.0865-0.20219 0.027-0.30886 0.0543-0.49322 0.0526-0.33216 0.27515-0.66834 0.4043-0.97826-0.0273-0.31883-0.17923-0.28568-0.10014-0.72785 0.1846-0.27489 0.53648-0.38174 0.47161-0.80039l0.0953-0.1135c0.0901-8e-3 0.19794-0.08424 0.24223-0.16206 0.11207-0.19526 2e-5 -0.42529 0.0953-0.64711 0.10676-0.25767 0.30714-0.45614 0.39724-0.71965l-0.0543-0.1293c-0.16936-0.19818-0.53929-0.02129-0.82145-0.25042-0.22832-0.18538-0.24683-0.51267-0.49206-0.67869-0.17811-0.12084-0.52455-0.26473-0.74128-0.38849-0.0933-0.05366-0.21651-0.08322-0.30308-0.1451-0.30132-0.21498-0.84952-1.067-0.84952-1.4393 0-0.05117 0.0216-0.11028 0.0275-0.16208 0.0158-0.14723 0.0158-0.32896 0-0.47684-0.0158-0.18698-0.12555-0.35769-0.15623-0.54178-0.0158-0.11039 0.0525-0.55651 0.0814-0.67929 0.0968-0.42301 0.33024-0.73645 0.47157-1.1321 0.0848-0.2382 0.0188-0.54806 0.0527-0.80858 0.0354-0.25688 0.17955-0.54782 0.28318-0.78459 0.23125-0.16485 0.51648-0.30927 0.72079-0.50084 0.15608-0.14536 0.21493-0.43506 0.2832-0.63072 0.0746-0.21365 0.22766-0.38685 0.30309-0.59854 0.0608-0.1691 0.0461-0.36352 0.1018-0.5254 0.0158-0.02672 0.41427-0.64569 0.43121-0.6629 0.10328-0.10326 0.19673-0.04914 0.31008-0.07257 0.0865-0.01869 0.17456-0.10711 0.26972-0.11409 0.24889-0.01869 0.72335 0.24546 0.93674 0.19424 0.19335-0.04642 0.31497-0.37286 0.40428-0.5336 0.11361-0.20591 0.33337-0.39355 0.42418-0.60614 0.10327-0.2406 0.0476-0.56885 0.0748-0.82497 0.0158-0.16725 0.0758-0.3203 0.0607-0.49322-0.024-0.26461-0.18263-0.39904-0.15386-0.71146l0.22877-0.17845c0.0186-0.05764 0.10506-0.28379 0.13573-0.32355 0.13042-0.17365 0.59983-0.19026 0.78812-0.13692 0.15602 0.04427 0.28332 0.17616 0.43822 0.23404 0.41006-0.02672 0.36188-0.70001 0.46456-0.99464 0.0611-0.17337 0.16575-0.25692 0.24924-0.41248l-0.10125-0.10522c0-0.10507 2.5e-4 -0.21925 0.0217-0.32296l0.11527-0.08956c0.15069 0.024 0.33189-0.02116 0.43763-0.13751v-0.1293c-0.0494-0.13363-0.2714-0.2063-0.39084-0.26679l-0.0527-0.12931 0.1088-0.1135c0.24784 0.02129 0.31187-0.22492 0.45812-0.36334l0.12229-0.03272c0.1339 0.07064 0.33981 0.18072 0.49149 0.1135 0.0158-0.01868 0.0915-0.09726 0.1018-0.1135l0.0404-0.10767c0.0491-0.1323 0.0833-0.27613 0.14745-0.40194 0.0355-0.06827 0.0797-0.11713 0.10881-0.19074l0.0404-0.10767c0.0267-0.19631-0.13902-0.37512-0.0341-0.58215l0.21533 0.04858c0.0578 0.07438 0.14741 0.14783 0.22874 0.19424l0.13575-8e-3c0.30179-0.27596 0.17959-0.48585 0.24281-0.63072l-0.0743-0.12111c0.0594-0.07683 0.13746-0.1527 0.21589-0.21004 0.15071 0 0.35171-0.01027 0.49847-0.03218 0.11522-0.0187 0.18951-0.06835 0.31656-0.04915 0.18164 0.09737 0.29413 0.27579 0.47156 0.3803 0.0863 0.0187 0.23423-8e-3 0.30366-0.06436 0.0526-0.07841 0.0861-0.23022 0.0672-0.32355-0.0881-0.10536-0.14387-0.2587-0.12172-0.3961 0.3225-0.34396 0.62091-0.03649 0.97708-0.10532l0.0608-0.19424c-0.0158-0.0187-0.0576-0.10805-0.0608-0.12111-0.0213-0.09388 0.0163-0.2085-0.0158-0.30717-0.0213-0.09255-0.0718-0.16576-0.0818-0.2668 0.0459-0.10084 0.14411-0.17117 0.18838-0.25919 0.1659-0.32731-0.11017-0.50766-0.0473-0.75183 0.0544-0.07735 0.13263-0.1559 0.20945-0.21004 0.15258-0.0027 0.32416-0.07934 0.45112-0.16148 0.28683-0.18591 0.22506-0.25613 0.41129-0.43647 0.10857-0.10536 0.25644-0.13853 0.37738-0.21882 0.14911-0.09895 0.7032-0.54012 0.78165-0.67109h0.16094c0.046 0.07575 0.0727 0.18755 0.0743 0.27499-0.076 0.17044-0.2334 0.47815-0.23578 0.65529l0.055 0.1293c0.13044 0.09736 0.33915 0.09537 0.49146 0.05617l0.0814-0.13749c-0.0273-0.09203-0.0213-0.22464 0-0.31536 0.17071-0.1667 0.44623-0.30272 0.57923-0.48503 0.17419-0.239 0.15081-0.76107 0.5459-0.7764 0.083 0.04347 0.16268 0.10178 0.23577 0.16206l0.1884 0.01579c0.0831-0.02132 0.19259-0.10452 0.23578-0.17786v-0.1655c-0.0744-0.18992-0.23401-0.18419-0.38383-0.25861-0.066-0.03201-0.18135-0.14036-0.23578-0.19424l0.0275-0.17787c0.0866-0.13817 0.24137-0.15727 0.34346-0.26738 0.0862-0.09282 0.20575-0.36973 0.21589-0.49264 0.0158-0.1419-0.0713-0.28443-0.0474-0.44525l0.11527-0.08072c0.30603 0.02958 0.18207 0.37382 0.65763 0.48796 0.0474 0.01333 0.19415 0.02413 0.23872 0.01346 0.3257-0.07627 0.30858-0.46006 0.51192-0.55758 0.13582-0.03068 0.7753 0.0027 0.88935 0.07255 0.1203 0.07254 0.19296 0.23898 0.337 0.29898 0.53648 0.22352 1.1344-0.25902 1.5633 0.3961 0.0677 0.10376 0.15931 0.25651 0.18198 0.37972 0.032 0.17124-0.12212 0.48726-0.141 0.69624l0.1018 0.10472h0.17553c0.11365-0.1267 0.27352-0.11404 0.41132-0.18606 0.0865-0.04535 0.15024-0.12494 0.24867-0.16148 0.0949-0.03493 0.20615-0.03328 0.30306-0.05675 0.28567-0.06855 0.51178-0.12842 0.71497-0.24632l-0.134-0.34695-0.21881-0.15856c-0.0354-0.0795 0.0213-0.25239 0.0591-0.32062-0.18619-0.29213-0.47377-0.78177-0.45753-1.1339 0.11359-0.17764 0.2289-0.35433 0.34463-0.53067 0-0.15897-0.042-0.37575-0.10306-0.52131l-0.11877-0.2118c-0.15606-0.2813-0.29265-0.47704-0.53886-0.68922-0.0307-0.02694-0.0461-0.0477-0.0796-0.06904l-0.13515-0.04212-0.0678-0.02106-0.0457-0.15154c-0.17367-0.03521-0.78228-0.05739-0.86652-0.08835-0.20963-0.0771-0.2054-0.17094-0.2744-0.35397-0.0459-0.12323-0.0547-0.22293-0.0271-0.35222 0.0158-0.07043 0.0219-0.14491 0.0597-0.20946 0.0779-0.13577 0.0352-0.17452 0.0158-0.33291-0.046-0.28647-0.16086-0.14778-0.34462-0.44642-0.0319-0.05308-0.0696-0.26016-0.0661-0.30132 0.0158-0.20458-2.4e-4 -0.42128-0.17201-0.60146-0.11017-0.11229-0.21032-0.25646-0.28257-0.40722-0.19393-0.40328 0.0164-0.33628-0.0674-0.63423-0.0541-0.20752-0.31109-0.31561-0.30479-0.53594 0-0.18858 0.18782-0.28196 0.17901-0.46806 0-0.04372-0.0317-0.25831-0.0726-0.34871-0.0779-0.16884-0.74163-0.19316-0.89515-0.12755-0.0341 0.01333-0.33287 0.36134-0.392 0.5962 0 0.02399 0.17243 0.36363 0.1919 0.40078 0.10665 0.20619 0.36756 0.53413 0.15034 0.75944-0.076 0.07869-0.44697 0.22984-0.64358 0.21063-0.0814-0.0082-0.47452-0.2415-0.52479-0.29839-0.066-0.07576-0.12543-0.17481-0.14571-0.2744-0.0213-0.09283 0.0273-0.51342 0.0796-0.55348 0.0424-0.03255 0.10676-0.04681 0.15271-0.07722 0.35279-0.23046 0.26304-0.39797-0.0579-0.57455-0.0795-0.04347-0.10013-0.07756-0.19952-0.08425-0.21898-0.01332-0.4858 0.61275-0.80391 0.41658-0.20959-0.12937-0.0606-0.21742-0.10995-0.38615 0-0.01599-0.33859-0.42653-0.37327-0.46689-0.13553-0.15658-0.57344-0.34148-0.78285-0.51019-0.10327-0.08322-0.27178-0.15802-0.35107-0.25042-0.0158-0.0152-0.29796-0.6161-0.3136-0.65646-0.0494-0.12932-0.0573-0.28076-0.15385-0.38615-0.27441-0.30145-0.545-0.11778-0.80391-0.26446-0.19073-0.1081-0.0999-0.38442-0.2159-0.52891-0.083-0.10288-0.27901-0.22521-0.26505-0.38264 0.0243-0.26244 0.25607-0.46049 0.19658-0.71789-0.0713-0.30726-0.38905-0.509-0.35281-0.67635 0.039-0.17773 0.17268-0.26847 0.19134-0.33525 0.0543-0.19389-0.11336-0.34816 0.10881-0.66699 0.0981-0.14185 0.33392-0.26281 0.33817-0.44174 0-0.16625-0.18968-0.26068-0.13049-0.44993 0.0307-0.09927 0.158-0.13921 0.22176-0.20829 0-0.0017 0.19212-0.32341 0.21531-0.44174 0.0405-0.21392-0.0454-0.25195-0.0959-0.41775-0.14907-0.4767-0.31322-0.2574-0.65061-0.20478-0.11174 0.01759-0.23128 0.01755-0.34519 0.01755-0.21792 0-0.39496-0.09002-0.60205-0.14393-0.22832-0.05948-0.52722-0.21089-0.76177-0.14217-0.14907 0.04371-0.38874 0.36345-0.5728 0.30483-0.12027-0.03812-0.18376-0.15118-0.28551-0.21004-0.15071-0.08744-0.36127-0.01285-0.43824-0.07139-0.0354-0.02669-0.0745-0.13633-0.0948-0.17903-0.15068-0.32398 0.38027-0.29449 0.54297-0.29137 0.034-0.01973 0.0733-0.03106 0.1053-0.05207 0.0526-0.0334 0.1558-0.20476 0.0591-0.23637-0.0578-0.01894-0.40912-0.20302-0.39959-0.30541 0.0273-0.28841 0.68339-0.38492 0.71847-0.56987 0.0612-0.31778-0.47694-0.32944-0.53712-0.37387-0.0914-0.067103-0.32829-0.064174-0.43879-0.052661-0.41027 0.042526-0.82661 0.58643-1.1268 0.54237-0.0695-0.010368-0.68486-5.06e-5 -0.74658 0.00172-0.18432 0.00507-0.24408-0.18298-0.34344-0.19717-0.11359-0.016814-0.17838 0.090687-0.28261 0.11526-0.12537 0.029482-0.65556-0.10998-0.78517-0.15914-0.52802-0.20042-0.0461-0.79727-0.0884-0.90044-0.0138-0.022469-0.0362-0.046083-0.0602-0.05558 6e-3 -1.551e-4 0.0387-0.00507 0.041-0.00456zm-128.41 82.84c-7e-3 0.01641-0.0104 0.03217-0.0176 0.048 0-0.01517 0.0157-0.02649 0.0157-0.03974 6e-4 -0.0034 1e-3 -0.0057 2e-3 -8e-3zm135.97-59.493c-0.20894 0.12748-0.37636 0.43637-0.28317 0.67928 0.0646 0.06991 0.13246 0.13738 0.20242 0.20185l0.15505 0.01639 0.0942-0.11292c-0.015-0.13809 0.0594-0.33455 0.0403-0.42887-0.0113-0.05298-0.0504-0.11989-0.0696-0.1726-0.0271-0.07361-0.0657-0.14346-0.13924-0.18313zm-48.152 59.53-0.0948 0.04043c-0.02 0.17385-0.13424 0.28844-0.23579 0.42008l0.0474 0.12931 0.20886 0.04858c0.0791-0.03328 0.19282-0.09171 0.27615-0.10474 0.11836-0.01846 0.24018 0.01811 0.3569 0.02401 0.21121 9e-3 0.40201-0.06124 0.5529-0.21005 8e-3 -0.10224 3e-5 -0.22448-0.0271-0.32355l-0.12815 8e-3c-0.0537 0.07745-0.13211 0.15565-0.20885 0.21005-0.22473-0.14308-0.57845-0.06148-0.74774-0.24222zm-87.822 8e-3c-0.0159 0.03385-0.0322 0.07314-0.0509 0.09714l0.0158 0.0023c0.0214-0.02129 0.0311-0.06091 0.0411-0.09772zm-1.5944 2.3684v5.97e-4c-0.11964 0.0021-0.15847 0.06441-0.25801 0.10529-0.14481 0.05949-0.31907 0.0084-0.45813 0.0883-0.0858 0.05017-0.13338 0.14702-0.19543 0.21882-0.0291 0.03393-0.0742 0.06128-0.10064 0.09656-0.0621 0.08284-0.0955 0.17944-0.1685 0.2592l0.02 0.12112c0.13744 0.09699 0.14193 0.24217 0.24279 0.33992 0.0677 0.06547 0.16932 0.11028 0.24223 0.17786l0.13515-0.04865c0.0703-0.0826 0.20275-0.31163 0.23579-0.41306 0.0948-0.28999-0.0596-0.31941 0.24927-0.57397 0.0247-0.12448 0.0516-0.24812 0.0808-0.37152-9e-3 -3.04e-4 -0.0172-5.87e-4 -0.0251-5.87e-4zm1.0256 1.131v5.88e-4c-0.029 3.04e-4 -0.0559 3e-3 -0.0772 0.0091-0.13217 0.07571-0.19992 0.26712-0.1954 0.41248l0.0808 0.1135c0.2249 0.0678 0.43507-0.06811 0.50549-0.28317-0.0379-0.06334-0.0743-0.12814-0.10768-0.19424-0.0438-0.04074-0.13186-0.05878-0.20593-0.05807zm-2.3614 0.76177c-0.041 0.01642-0.10541 0.03324-0.14157 0.05615-0.0494 0.03122-0.34442 0.32178-0.41778 0.38849-0.0213 2e-3 -0.43786 0.1176-0.44464 0.12112-0.0104 0.0051-0.28925 0.26044-0.32356 0.29137-0.0401 0.10275-0.0639 0.22925-0.0672 0.33935l0.0537 0.1211c0.14821 0.03182 0.35283 0.01713 0.47157-0.08827 0.0324-0.02888 0.0581-0.07976 0.0878-0.11288 0.0329-0.03689 0.0762-0.0676 0.10766-0.10529 0.0159-0.01926 0.0692-0.1105 0.0808-0.12111 8e-3 -0.0071 0.1114-0.06192 0.12815-0.07256 0.0834-0.05138 0.35572-0.20464 0.4113-0.25099 0.0747-0.06233 0.14116-0.13763 0.21532-0.20187l0.0271-0.15387-0.0538-0.1211zm-0.0474 1.0432c-0.20301 0.04044-0.30496 0.24879-0.42418 0.39669l7e-3 0.15328c0.099 0.11051 0.38492 0.15446 0.52602 0.1375 0.0721-0.0091 0.20778-0.08118 0.26269-0.12929 0.0341-0.11622 0.056-0.35119-7e-3 -0.46106-0.11658-0.04044-0.24178-0.07753-0.3639-0.09709zm15.649 5.4729v5.7e-4c-0.10169 9.2e-4 -0.19349 0.0444-0.29196 0.082-0.0389 0.015-0.0999 0.0279-0.13456 0.0486-0.0744 0.0446-0.25216 0.275-0.27617 0.35573l-9e-3 0.11878c-0.0144 0.19185-0.0186 0.26202-0.10064 0.43938l-0.045 0.0971c-0.17522 0.25066-0.74337 0.25084-0.82907 0.50902l0.0744 0.1135c0.20368-0.0608 0.41726 0.1053 0.51193 0.27498 0.0349 0.14704-0.0392 0.33978-0.1211 0.46106-0.28015 0.20147-0.40248 0.0906-0.58861 0.49262-0.036 0.0782-0.0643 0.16247-0.038 0.251 0.19011 0.0541 0.2889-0.0261 0.44465-0.10474 0.0431-0.0218 0.0922-0.034 0.13459-0.0567 0.31876-0.17114 0.52353-0.39032 0.78868-0.61493 0.11435-0.0969 0.24427-0.17596 0.34346-0.29078 0.0942-0.10914 0.17572-0.23993 0.26268-0.35573 0.0114-0.0152 0.0903-0.11265 0.0948-0.1217 0.0341-0.0712 0.0384-0.23142 0.0199-0.30717-9e-3 -0.0375-0.0529-0.21856-0.0607-0.26678-0.0256-0.1621-0.12686-0.26877-0.0672-0.44467 0.12426-0.14965 0.36963-0.19094 0.41773-0.3961l-0.0326-0.13749c-0.1087-0.10202-0.28534-0.11254-0.42478-0.14042-0.0247-4e-3 -0.0491-6e-3 -0.0726-6e-3zm-5.3693 1.004v5.9e-4c-0.17821 8e-3 -0.38096 0.14223-0.54882 0.19365-0.11209 0.0349-0.21892 0.0235-0.33057 0.041-0.2996 0.0469-0.68773 0.37298-0.7343 0.6787l0.0808 0.11351c0.012-6e-3 0.11603-0.0714 0.12169-0.0726 0.022-5e-3 0.34407-0.0531 0.49149-0.0487l0.0537-0.0656c0.0938 0.0252 0.24792 0.0439 0.34403 0.0157 0.0878 0.0401 0.13345 0.21335 0.20886 0.29137l0.13461 0.0486c0.0833-0.0134 0.16331-0.0372 0.24278-0.0643 0.26898-0.0921 0.28806-0.13827 0.43062-0.38263 0.0372-0.0641 0.0361-0.11326 0.045-0.18605 0.0383-0.29181-0.0984-0.47855-0.3885-0.53652l-0.13456-0.027c-6e-3 0-0.0113-2.7e-4 -0.0169 0zm10.771 0.7764c-0.0438 0.088-0.0651 0.21348-0.11411 0.29138-0.0458 0.0723-0.21308 0.17543-0.29662 0.31536l0.0333 0.14567h6e-4c0.11062 0.0219 0.34514-0.0167 0.43764-0.0808 6e-3 -3e-3 0.1306-0.15694 0.1486-0.17845-0.0144-0.1409 6e-3 -0.32223-0.0743-0.44466zm-10.2 0.66349c-0.19519 0.0131-0.46081 0.30717-0.46629 0.49322l0.0537 0.12931 0.16147 0.0726c0.16048-0.055 0.39255-0.21834 0.47862-0.36391l7e-3 -0.17787-0.0737-0.10474-0.14162-0.0486c-6e-3 -1.9e-4 -0.0125-3e-4 -0.0186 0zm1.946 1.7137-0.1211 0.0731c-0.0652 0.0847-0.10676 0.22712-0.1147 0.33174l0.0602 0.12111 0.15504 0.0321c0.0836-0.0412 0.13644-0.14309 0.16263-0.24748 0.0144-0.0411 0.02-0.0909 0.0199-0.14041 6e-5 -1e-3 -2e-5 -2e-3 0-5e-3 -2e-5 -3e-3 9e-5 -7e-3 0-0.0104 6e-5 -9e-3 -1.5e-4 -0.0178-5.8e-4 -0.0263l-6e-4 3e-3c-9.9e-4 -0.024-3e-3 -0.0471-6e-3 -0.0678zm-4.2319 0.35632c-0.17957 0.0578-0.29731 0.32384-0.20889 0.49321 0.0498 0.0721 0.17283 0.14201 0.25628 0.16149l0.15502-0.024 0.10767-0.10529c0.0396-0.13954-5.4e-4 -0.26289-0.0404-0.3961l-0.10769-0.0972zm66.077 1.3749-0.16851 8e-3 -0.0607 0.12931c0.0194 0.13125 0.0701 0.29782 0.18897 0.3721l0.14804 8e-3c0.061-0.0606 0.11929-0.15959 0.14157-0.2428l-0.02 8e-3c-0.0186-0.0689-0.0501-0.13823-0.0814-0.20185zm-1.1591 2.3766-0.12111 0.0726-0.0205 0.13748c0.0947 0.11997 0.27753 0.16963 0.41129 0.23464 0.10327-0.0603 0.27807-0.11852 0.31656-0.24223-0.0954-0.0385-0.19613-0.0967-0.27616-0.16149v-0.0169c-0.10348-6e-3 -0.20686-0.015-0.31012-0.024zm4.4876 2.2157-0.14156 0.0484-0.0404 0.34753 0.10824 0.0567c0.1163 3e-3 0.30444-0.0466 0.3768-0.1457-0.0527-0.0731-0.17495-0.22641-0.17495-0.22641zm-60.329 15.768-0.14161 0.0561c-0.0438 0.0982-0.0719 0.23237-0.0672 0.33993 0.0531 0.14401 0.22079 0.16665 0.28317 0.30718-0.049 0.0649-0.16231 0.13356-0.2428 0.14568l-0.0537 0.16966 0.0678 0.0562c0.0909-0.0796 0.17698-0.078 0.26269-0.12931 0.0355-0.0214 0.18575-0.14231 0.22233-0.17026 0.0742-0.0566 0.14709-0.14726 0.19542-0.22642 0.0196-0.0918 0.0165-0.21762-0.0134-0.30716-0.10285-0.10432-0.28993-0.14224-0.43119-0.1615zm-3.8598 3.0641v5.7e-4c-0.0684 3e-3 -0.13642 0.0298-0.20302 0.0808-0.12971 0.0991-0.20323 0.245-0.3411 0.34226-0.0582 0.0412-0.13005 0.0946-0.19775 0.1182-0.1019 0.0358-0.1847 0.0202-0.26973 0.11348-0.0677 0.0773-0.0315 0.30364-0.0271 0.40429l0.22936 0.17788c0.15343 8e-3 0.31412-0.0976 0.34988-0.25042 0.20711-0.12069 0.53972 0.0875 0.70094 0.21823 0.0354 0.029 0.0651 0.0691 0.10125 0.0972 0.0664 0.0515 0.20399 0.12841 0.28258 0.15331 0.18827 0.0601 0.37713 0.0144 0.56635 0.065 0.0564 0.0712 0.15167 0.14345 0.23579 0.17788l0.13458-0.0403h5.7e-4c0.0316-0.11531 3e-3 -0.3502-0.0474-0.46103-0.0181-0.0395-0.10619-0.20977-0.12811-0.25042-0.0404-0.0753-0.11803-0.13826-0.1615-0.21356-0.0867-0.15016-0.10358-0.24754-0.25627-0.36919-0.16812-0.0412-0.37116-0.0234-0.52539-0.10473-0.0754-0.0397-0.13596-0.13896-0.20886-0.18606-0.0791-0.0512-0.15767-0.077-0.23522-0.0731zm8.1882 13.875c-0.28046 0.0201-0.59515 0.15067-0.84019 0.16267-0.24191 0.0132-0.47944-0.11061-0.72841-0.0643-0.23348 0.0434-0.43828 0.55248-0.39542 0.78959l2.7364 9e-3c-0.13281-0.18104-0.0645-0.59179-0.38039-0.79133-0.0186-0.0133-0.11359-0.0758-0.12695-0.0808-0.0821-0.0263-0.17156-0.0319-0.26505-0.0251z" fill="#c60c31" stroke="#c60c31" stroke-miterlimit="3.9773" stroke-width=".19471"/>
  </g>
 </g>
</svg>
