<?xml version="1.0" encoding="UTF-8"?>
<!-- Created with Inkscape (http://www.inkscape.org/) -->
<svg width="1920" height="1080" version="1.1" viewBox="0 0 508 285.75" xmlns="http://www.w3.org/2000/svg">
 <g>
  <path d="m284.96 271.46c3.5719-3.9688 9.2604-5.0271 14.023-0.79375 4.7625 4.2333 8.7312 8.7312 12.171 8.2021 3.4396-0.52917 3.7042-3.9688 8.599-0.79375 4.8948 3.175 4.3656 3.5719 8.599 4.3656 4.2333 0.79375 7.9375 2.249 12.171 0.39687s4.4979-5.2917 9.9219-2.9104c5.424 2.3812 6.35-3.5719 8.7312-4.2333s5.424-0.13229 5.9531-0.92604 1.5875-5.424 2.1167-6.7469c0.52916-1.3229 3.0427-2.249 5.5562-2.249 2.5135 0 7.6729-2.3813 8.3344-5.6886s1.3229-10.186 2.3812-12.171c1.0583-1.9844 5.5562-9.6573 5.6885-13.758 0.13229-4.101-0.26458-11.112 3.4396-12.435 3.7042-1.3229 9.9219-2.6458 12.832-7.276s3.4396-9.2604 11.642-8.4667c8.2021 0.79375 26.458-2.7781 26.988-4.2333 0.52916-1.4552-4.101-49.477-4.101-49.477l-116.55 11.774s-38.894 64.558-39.158 65.484 0.66146 41.936 0.66146 41.936z" fill="#fff"/>
 </g>
</svg>
