<?xml version="1.0" encoding="UTF-8"?>
<!-- Created with Inkscape (http://www.inkscape.org/) -->
<svg width="1920" height="1080" version="1.1" viewBox="0 0 508 285.75" xmlns="http://www.w3.org/2000/svg">
 <g>
  <path d="m285.31 165.85c4.303-2.3386 8.6061-4.4901 11.319-2.2451 2.7128 2.2451 9.0738 6.8287 11.974 5.2385 2.8999-1.5902 8.8867-6.5481 12.441-6.0804 3.5547 0.46772 6.4546 1.9644 8.8867 2.7128 2.4322 0.74836 10.009 0 12.161-1.1225 2.1515-1.1225 6.6416-2.5257 10.851-1.4032 4.2095 1.1225 11.132 1.9644 15.809 2.2451 4.6772 0.28063 6.1739-2.4322 6.9223-3.6482 0.74838-1.2161 2.9934-4.116 7.7642-3.9289 4.7708 0.18709 9.5415 1.1225 13.564 1.8709 4.0224 0.74835 6.5481 0.65481 9.2609 0.65481 2.7128 0 2.1515-36.202 2.1515-36.202l-120.58-3.087z" fill="#fff"/>
 </g>
</svg>
