<?xml version="1.0" encoding="UTF-8"?>
<!-- Created with Inkscape (http://www.inkscape.org/) -->
<svg width="1920" height="1080" version="1.1" viewBox="0 0 508 285.75" xmlns="http://www.w3.org/2000/svg">
 <defs>
  <clipPath id="clipPath26706">
   <path d="m728.03 245.76c-0.29937-7e-3 -0.61449-5.3e-4 -0.94773 0.0227-2.666 0.18709-5.0982-0.37406-6.6885 1.3565-1.5903 1.7306-3.1336 3.414-3.3207 5.7526s-0.0933 6.782 0.047 9.448c0.14031 2.666 0.65474 7.3899 0.93536 10.383 0.0217 0.23125 0.052 0.31919 0.0765 0.51057 0.0378-0.0119 0.0695-0.0262 0.11837-0.0346 0.0912-0.0164 0.70194 0.0551 0.75552 0.10644 0.24561 0.23373-0.0402 0.62645 0.38137 0.75708 0.71641-0.2558 0.49525-0.54078 0.7674-1.0284 0.0419-0.0749 0.0734-0.15777 0.14832-0.20725 0.19127 0.0752 0.46694 0.3465 0.47025 0.56431-0.045 0.0745-0.0837 0.15348-0.11369 0.23566 0.0523 0.0657 0.11641 0.12237 0.19015 0.16383l0.0145 0.1075c-0.0671 0.045-0.13194 0.0995-0.20878 0.12811-0.12581 0.0471-0.40931 0.0359-0.49969 0.107-0.0881 0.0693-0.0912 0.27215-0.0419 0.36433 0.0598 0.10999 0.48763 0.32642 0.61288 0.32864 0.0358 0 0.0717-0.0114 0.10747-8e-3 0.0959 0.014 0.1745 0.0712 0.28631 0.0786 0.1347 8e-3 0.25318-0.0811 0.38653-0.0568 0.19108 0.0344 0.40068 0.1624 0.6015 0.14261l0.0879 0.0858-0.0656 0.12195c-0.18024 0.0262-0.38325-0.0668-0.53589 0.0713l-0.0238 0.0997c0.0643 0.0483 0.20185 0.27556 0.23201 0.28577 0.0925 0.0319 0.28289 0.0236 0.44752 3e-3 0.0475-0.62857 0.027-1.3757-0.28679-1.7766-0.59533-0.76067-1.7117-2.3325-1.0413-3.3264 0.87027-1.2902 2.5115-4.4452 2.3792-5.8012-0.13229-1.356-0.59532-5.424-0.95912-7.4083-0.3638-1.9844-0.89297-2.8773-0.66146-5.3909 0.23151-2.5135 2.0174-2.3151 4.7956-2.8774 2.7781-0.56224 3.7372 0.82682 6.2177 1.4883 2.4805 0.66146 6.8461-0.19844 8.9628-1.5875 0.66159-0.43416 1.1637-0.9964 1.5648-1.5725-0.19466 0.0321-0.52541-0.0315-0.66508-0.0848-0.10811-0.0406-0.39349-0.24838-0.54105-0.38292-0.18981 0.0606-0.3841 0.11991-0.62116 0.16174-2.3854 0.42095-6.7818 0.23389-8.4656-0.18706-1.4733-0.36834-2.8034-1.0947-4.8989-1.1452z" fill="#c60c31"/>
  </clipPath>
  <filter id="filter26718" x="-.018248" y="-.015409" width="1.0365" height="1.0308" color-interpolation-filters="sRGB">
   <feGaussianBlur stdDeviation="2.3901251"/>
  </filter>
 </defs>
 <g>
  <g>
   <path d="m390.15 200.26c-0.33896-8e-3 -0.69573-7.1e-4 -1.073 0.0256-3.0185 0.21182-5.7722-0.42351-7.5727 1.5358-1.8005 1.9593-3.5479 3.8653-3.7597 6.5131-0.21183 2.6478-0.10564 7.6786 0.0532 10.697 0.15887 3.0184 0.74131 8.3669 1.059 11.756 0.0246 0.26182 0.0589 0.36139 0.0866 0.57806 0.0429-0.0136 0.0788-0.0295 0.13398-0.0392 0.10328-0.0187 0.79475 0.0624 0.85541 0.12052 0.27808 0.26459-0.0456 0.70925 0.43178 0.85715 0.81113-0.2896 0.56076-0.61228 0.86885-1.1643 0.0474-0.0848 0.0831-0.17862 0.1679-0.23462 0.21658 0.0851 0.5287 0.39227 0.53245 0.63892-0.0509 0.0843-0.0948 0.17374-0.12871 0.26679 0.0593 0.0744 0.1318 0.13852 0.21528 0.18545l0.0164 0.12171c-0.076 0.0509-0.14941 0.11265-0.23639 0.14509-0.14243 0.0533-0.46343 0.0406-0.56576 0.12113-0.0998 0.0784-0.10327 0.30814-0.0473 0.41248 0.0677 0.12458 0.55207 0.36959 0.69391 0.37211 0.0405 0 0.0813-0.0129 0.12167-9e-3 0.10857 0.0159 0.19755 0.0806 0.32416 0.0888 0.1525 9e-3 0.28665-0.0918 0.43763-0.0643 0.21634 0.0388 0.45364 0.1839 0.68101 0.16149l0.0995 0.0972-0.0744 0.13809c-0.20405 0.0295-0.4339-0.0756-0.60673 0.0808l-0.0271 0.11288c0.0728 0.0546 0.22853 0.312 0.26269 0.32356 0.10473 0.0361 0.32029 0.0266 0.50667 3e-3 0.0537-0.71165 0.0306-1.5576-0.32469-2.0115-0.67404-0.86125-1.938-2.6409-1.179-3.7662 0.98532-1.4608 2.8435-5.0329 2.6937-6.5681s-0.67401-6.141-1.0859-8.3877c-0.41188-2.2467-1.011-3.2577-0.74889-6.1036 0.26213-2.8458 2.2842-2.6212 5.4296-3.2577 3.1454-0.63658 4.2313 0.93612 7.0397 1.685 2.8084 0.7489 7.7511-0.22468 10.148-1.7974 0.74904-0.49157 1.3175-1.1281 1.7716-1.7804-0.22039 0.0364-0.59488-0.0357-0.75302-0.0958-0.12239-0.0459-0.4455-0.28121-0.61258-0.43354-0.2149 0.0686-0.43488 0.13576-0.70327 0.18312-2.7007 0.4766-7.6784 0.2648-9.5848-0.21178-1.6681-0.41705-3.174-1.2394-5.5466-1.2966z" fill="#c60c31"/>
   <path transform="matrix(1.1322 0 0 1.1322 -434.13 -77.989)" d="m743.98 245.71s0.14032 1.4967-2.2453 1.9177c-2.3856 0.42095-6.7825 0.23386-8.4665-0.18709-1.6839-0.42095-3.1808-1.3096-5.847-1.1225-2.6663 0.18709-5.0986-0.37418-6.689 1.3564-1.5904 1.7306-3.134 3.4144-3.3211 5.753s-0.0935 6.782 0.0468 9.448c0.14031 2.666 0.65486 7.39 0.93554 10.383 0.28066 2.9934 0.83105 2.4906 0.83105 2.4906l1.1411 1.0914-1.2238 1.4552-2.7783-0.11576-0.62848 3.7372 0.8269 40.084-51.73 4.7625-119.47-133.09 140.77-239.18 173.58 184.15-68.136 105.04z" clip-path="url(#clipPath26706)" filter="url(#filter26718)" opacity=".28"/>
  </g>
 </g>
</svg>
