<?xml version="1.0" encoding="UTF-8"?>
<!-- Created with Inkscape (http://www.inkscape.org/) -->
<svg width="1920" height="1080" version="1.1" viewBox="0 0 508 285.75" xmlns="http://www.w3.org/2000/svg">
 <g>
  <path d="m320.01 215.5c4.3656-1.7198 5.424-3.5719 8.8635-1.3229s6.8792 3.9688 8.4667 4.101 6.8792-2.249 10.319-3.8365c3.4396-1.5875 6.2177-5.9531 9.7896-6.35 3.5719-0.39687 5.9531-0.26458 7.276-2.9104 1.3229-2.6458 2.7781-7.1438 3.5719-8.7312s2.5135-7.0115 3.0427-7.9375c0.52916-0.92605 2.1167-2.6458 4.101-3.5719 1.9844-0.92604 4.101-1.3229 6.35-0.26458 2.249 1.0583 4.101 2.7781 7.9375 1.9844s5.424-3.7042 8.2021-3.7042c2.7781 0 4.6302-0.66146 7.9375 0.66145 3.3073 1.3229 4.6302 1.4552 8.8635 2.1167 4.2333 0.66146 12.039 1.1906 12.965 1.1906s0.79375-46.038 0.79375-46.038l-114.3 5.2917z" fill="#fff"/>
 </g>
</svg>
