<?xml version="1.0" encoding="UTF-8"?>
<!-- Created with Inkscape (http://www.inkscape.org/) -->
<svg width="1920" height="1080" version="1.1" viewBox="0 0 508 285.75" xmlns="http://www.w3.org/2000/svg">
 <g>
  <path d="m367.44 237.32c3.6482-0.93545 8.6996-0.46773 10.383 0.46772 1.6838 0.93544 4.116 1.9644 7.0158 1.2161 2.8999-0.74835 6.0804 0.28064 5.2385-4.3966-0.8419-4.6772-1.8709-6.1739-1.5902-8.7932 0.28065-2.6192 0.46773-4.2095 1.4967-5.1449 1.029-0.93545 2.058-5.7998 3.7418-8.5125 1.6838-2.7128 3.8353-4.0224 5.332-3.274 1.4967 0.74835 3.8353 1.4967 6.8287 2.058 2.9934 0.56127 10.103-0.93544 11.88-0.93544s-0.0936-11.506 0-13.003c0.0935-1.4967 1.1225-18.615 0.18708-18.615-0.93543 0-71.094 1.029-71 1.4967 0.0935 0.46773 20.486 57.436 20.486 57.436z" fill="#fff"/>
 </g>
</svg>
