<?xml version="1.0" encoding="UTF-8"?>
<!-- Created with Inkscape (http://www.inkscape.org/) -->
<svg width="1920" height="1080" version="1.1" viewBox="0 0 508 285.75" xmlns="http://www.w3.org/2000/svg">
 <path d="m320.86 180.54c1.9644-0.8419 3.1805-2.6192 4.5837-1.6838 1.4032 0.93545 1.5903 1.6838 3.5547 1.029s5.1449-3.1805 7.9513-1.8709 4.0224 2.2451 7.0158 2.5257c2.9934 0.28063 4.116 0.28063 5.8933-0.46772 1.7773-0.74836 3.8353-2.2451 6.6416-1.6838 2.8063 0.56127 5.7062 0.93544 7.39-0.28063 1.6838-1.2161 3.087-3.9289 4.303-4.7708 1.2161-0.8419 2.7128-2.7128 5.0514-2.1515 2.3386 0.56126 3.8353 0.65481 6.1739 0.65481 2.3386 0 4.7708-0.74836 6.361-1.7774 1.5902-1.029 4.4901-3.1805 6.1739-3.7418 1.6838-0.56126 4.3966-1.3096 7.8577-0.8419s10.477-0.56126 10.477-0.56126l-0.46773-22.638-89.709 1.4032z" fill="#fff" stroke="#fff" stroke-width=".26458px"/>
</svg>
