<?xml version="1.0" encoding="UTF-8"?>
<!-- Created with Inkscape (http://www.inkscape.org/) -->
<svg width="1920" height="1080" version="1.1" viewBox="0 0 508 285.75" xmlns="http://www.w3.org/2000/svg">
 <defs>
  <clipPath id="clipPath18041">
   <path d="m770.18 165.29v6e-3c0.0254 0.11873 0.1542 0.2127 0.16693 0.32866 0 0.0412-0.0361 0.26427-0.048 0.31471l0.0718 0.0713 0.12454-0.0501c0.13031 0.0281 0.33131 0.0402 0.42841 0.1354l0.0419 0.1142 0.11419 0.0791c0.21299 0.0287 0.4926-0.0442 0.70229-0.093l0.0481 0.10749c-0.0236 0.15407-0.18087 0.34813-0.32713 0.40669-0.0883 0.0353-1.2338 0.0642-1.3394 0.0357-0.23739-0.0641-0.29782-0.42211-0.72605-0.37827-0.12274 0.0141-0.50368 0.29834-0.64854 0.37155-0.20143 0.10195-0.3937-0.0282-0.59531 0.0284-0.29785 0.0834-0.45509 0.5395-0.42839 0.8139l0.0775 0.0713c0.14817-0.0843 0.24739-0.2272 0.39272-0.31419l0.1075 0.0289c0.0777 0.14112-0.063 0.44062-0.0899 0.59997 0.0164 0.0583 0.0751 0.17322 0.11991 0.21445 0.0928 0.0852 0.43497 0.19888 0.55965 0.19276 0.17459-8e-3 0.24138-0.0406 0.44029-0.0139 0.12438 0.0862 0.29964 0.29496 0.38703 0.33538 0.0388 0.0189 0.10589 0.0328 0.1478 0.0434 0.16446 0.0393 0.34173 0.0253 0.50025 0.0641 0.13782 0.0336 0.29644 0.14676 0.44026 0.15761 0.0388 2e-3 0.21368-0.053 0.2558-0.0718 0.13478 0.044 0.22487 0.17472 0.35761 0.20723 0.20307 0.0495 0.34846-0.0354 0.51729-0.12093 0.19648-0.0995 0.47236-0.25569 0.60719-0.43615 0.27705-0.37085 0.0389-0.87867 0.51779-1.1281l0.1845 0.0357 0.0661 0.10026c-0.0554 0.12769-0.1302 0.24821-0.12454 0.39274l0.0543 0.10697c0.396 0.27586 0.44463 0.0818 0.71416 0.16433 0.0436 0.0141 0.40238 0.26177 0.42839 0.29972 0.0359 0.0535 0.0541 0.19421 0.0481 0.25735-0.14512 0.20215-0.26283 0.39316-0.46458 0.54984-0.0629 0.0488-0.14324 0.08-0.20825 0.12867-0.10348 0.0796-0.18386 0.17269-0.29766 0.24288-0.10649 0.0653-0.23963 0.0921-0.33901 0.1571-0.0645 0.0417-0.132 0.13772-0.16121 0.20722v0.0713l0.15502 0.0501c0.12274-0.0275 0.27368-0.0755 0.39894-0.0785 0.25474-8e-3 0.5244 0.059 0.77928 0.0284l0.11369 0.0786-0.0894 0.22118 0.11213 0.0785c0.18333 8e-3 0.3636-0.27584 0.50594-0.37827 0.0778-0.0552 0.15073-0.053 0.23201-0.0858 0.1727-0.069 0.25109-0.21325 0.38653-0.32143 0.0659-0.0521 0.13658-0.0886 0.19691-0.14986l-0.11213-0.0791c-0.21016 0.0983-0.4707-0.0867-0.40516-0.32092 0.0405-0.07 0.10787-0.14568 0.17312-0.19326 0.29472-0.0992 0.5267 0.17986 0.78549 0.25734 0.16984 0.0509 0.31967-0.0215 0.48162 0.0429 0.12438 0.11519 0.23141 0.25085 0.38137 0.33589l0.11936-0.0434 0.0661-0.12143c0-0.13148-0.11964-0.36143-0.23201-0.43564-0.23183-0.1536-0.9692-0.36066-1.0712-0.62115l0.0419-0.11472c0.17529-0.0855 0.57857 0.10695 0.79735 0.10749l0.0718-0.12868c-0.0405-0.0679-0.0718-0.15772-0.0837-0.23564 0.0567-0.049 0.372-0.30298 0.38656-0.32143l0.14364-8e-3 0.11369 0.0713c-0.0344 0.0683-0.0463 0.17497-0.0357 0.25011 0.1541 0.32815 0.54846 0.1685 0.80307 0.26407 0.0568 0.0212 0.17052 0.11193 0.22635 0.14986 0.0702 0.0486 0.1411 0.0888 0.1788 0.17105l-0.019 0.15761c-0.0659 0.0396-0.14303 0.10032-0.21394 0.12816-0.21558 0.0862-0.41537 0.0771-0.5116 0.34313 0.14984 0.18423 0.0835 0.39899 0.23771 0.57155 0.34856 0.13191 0.40084-0.17065 0.69662-0.0863 0.11684 0.14393-0.0525 0.5219-0.17262 0.62838-0.054 0.048-0.15203 0.0829-0.21444 0.12867l-0.15452-0.0139c-0.0629-0.0733-0.15547-0.25275-0.23204-0.293-0.11213-0.0589-0.18306-0.0244-0.29197-0.0212-0.13311 2e-3 -0.27892-0.0602-0.40462-0.0568-0.24818 8e-3 -0.46048 0.24581-0.66043 0.34985l-0.14211-0.0284c-0.11827 0.0771-0.12279 0.23902-0.21444 0.34261-0.0987-0.0141-0.21032-0.019-0.30956-8e-3 -0.1152 0.0679-0.18868 0.23419-0.17878 0.36381 0.13922 0.0454 0.25569 0.15765 0.40462 0.17156 0.27073 0.0255 0.52621-0.17037 0.82733-0.12867l0.0723 0.10697c-0.1423 0.24777-0.74412 0.49299-1.018 0.49299-0.18849 0-0.32023-0.20125-0.51213-0.17156l-0.10748 0.0646c-0.014 0.0386-0.0897 0.27518-0.10025 0.29301-0.014 0.0165-0.0796 0.0669-0.0961 0.0858-0.11827 0.13193-0.36346 0.54695-0.41032 0.71417 0.0164 0.13028 0.10123 0.22897 0.12507 0.34985 0.0254 0.13475 0 0.31476-0.0238 0.4501 0.0313 0.074 0.069 0.14778 0.11369 0.21446 0.0764-0.0165 0.16754-0.0184 0.24392-8e-3 0.0358-0.0879 0.0955-0.16582 0.13126-0.25064 0.0419-0.0987 0.0511-0.21759 0.10181-0.31367 0.0733-0.13899 0.40175-0.4585 0.55965-0.49299 0.13782-0.0299 0.30536-2e-3 0.44648-0.0145 0.0881-8e-3 0.18095-0.0459 0.26768-0.0501 0.27673-0.0141 0.65053 0.17574 0.88056 0 0.20238-0.1548 0.26395-0.42913 0.3452-0.65681 0.0568-0.16115 0.204-0.32522 0.22636-0.47852l-0.048-0.10697 0.0356-0.17105c0.16491-0.13593 0.23823-0.37822 0.46405-0.42892l0.0362 0.10025c-0.0524 0.0645-0.0958 0.17397-0.10179 0.25735 0.0331 0.12439 0.14656 0.18459 0.20826 0.29249 0.0733 0.0283 0.19952 0.0343 0.27387 8e-3 -0.014-0.28243 0.13925-0.28344 0.2558-0.47129l0.11938 8e-3c0.0615 0.061 0.13025 0.11698 0.20256 0.16433l0.1664 8e-3c0 0.074-0.0598 0.1893-0.12557 0.22841 0.0987 0.11685 0.5557 0.33931 0.7085 0.32866 0.17552-0.0495 0.16512-0.22139 0.20825-0.35709 0.0331-0.1013 0.0897-0.15956 0.0837-0.27853-0.13311-0.12722-0.2346-0.21503-0.30334-0.39274l0.0599-0.14314c0.20215-0.01 0.3429-0.01 0.52967-0.0997 0.0629-0.0573 0.11224-0.18887 0.11835-0.2713-0.12438-0.0472-0.29226-0.10376-0.35708-0.22841-0.014-0.0805 5e-5 -0.19671 0.03-0.27182l0.0894-0.0853 0.13798-0.0284c0.014-0.0165 0.057-0.10873 0.06-0.12144v-0.0956c0-0.0613-2.4e-4 -0.0323-0.0146-0.0858-0.0629-0.17316-0.0449-0.30818-0.0687-0.48369-0.014-0.0771-0.0418-0.16351-0.0718-0.23513-0.0478-0.11284-0.13774-0.2144-0.17261-0.32918-0.0374-0.12321-0.014-0.32404 0.03-0.44235l0.0878-0.0858c0.13616 0.0653 0.44141 0.4086 0.48215 0.55655 0.15997 0.11637 0.33809 0.22609 0.54777 0.18604 0.10345-0.0212 0.79351-0.41009 0.87487-0.48576 0.0599-0.0554 0.21318-0.24599 0.23204-0.32143l-0.0718-0.0641c-0.24577 0.048-0.33568 0.26011-0.66093 0.14935l-0.047-0.11421c0.0524-0.14654 0.16695-0.18855 0.25011-0.29972 0.051-0.0683 0.0929-0.17245 0.13179-0.25011l-0.0249-0.12816c-0.31564-0.049-0.40155 0.0285-0.6723 0.12816l-0.0718-0.0997c0.0283-0.17127 0.19773-0.42206 0.11835-0.58601l-0.12454-0.0357c-0.14512 0.0747-0.2681 0.21855-0.42272 0.25735-0.1828 0.0457-0.28281-8e-3 -0.44596-0.0713-0.32059-0.12818-0.44354-0.20669-0.70847-0.42168-0.0688-0.0552-0.14483-0.085-0.20206-0.1571-0.0254-0.0321-0.0392-0.0754-0.0661-0.10697-0.0778-0.0926-0.18949-0.17298-0.2739-0.26406-0.0321-0.0621-0.0301-0.17738-3e-3 -0.24288h-6.518l-0.0222 0.0703c-0.0615 0.0645-0.17248 0.0775-0.25579 0.0718-0.18688-0.0122-0.27612-0.0677-0.33073-0.14211zm11.125 0c0.17224 0.0273 0.34708-4e-3 0.5054 0.0439 0.0188 8e-3 0.37881 0.28761 0.39272 0.30747 0.0509 0.0733 0.0437 0.13245 0.13645 0.19276h0.1478c0.21037-0.14795 0.70326-0.2359 0.94051-0.12816 0.0405 0.0189 0.0732 0.059 0.11367 0.0785 0.0749 0.0368 0.20536 0.0904 0.28527 0.11369 0.22804 0.0671 0.58639 0.0251 0.71466 0.27181-0.0214 0.10979-0.0721 0.20915-0.0961 0.3142-0.0585 0.26386-0.014 0.53847 0.24183 0.66404 0.0869 0.0429 0.23823 0.0499 0.3235-8e-3l0.1483 0.0284c0.019 0.0867 1.9e-4 0.18142 0.0243 0.26458 0.0583 0.28273 0.33441 0.48038 0.5116 0.68523 0.0988 0.11474 0.20656 0.39656 0.2739 0.54312 0.0794 0.0544 0.17441 0.0884 0.25011 0.14263 0.25307 0.18069 0.3307 0.59234 0.44027 0.86403 0.38825 0.22852 0.45392-0.0237 0.85111 0.0574 0.35787 0.0731 0.35758 0.2659 0.59481 0.34313 0.0598-0.0683 0.0766-0.17814 0.0599-0.26458-0.014-0.0798-0.0687-0.15278-0.0956-0.22841-0.0568-0.16656-0.0188-0.36588-0.0837-0.52142 0-0.0118-0.0571-0.0898-0.0661-0.0997-0.17174-0.21415-0.56674-0.25437-0.64905-0.46457v-0.1354c0.0869-0.19082 0.49073-0.36912 0.69041-0.30747l0.0899 0.0863-0.0899 0.0786 0.0146 0.1142c0.12721 0.0924 0.27688 0.15195 0.39272 0.26407 0.23722 0.22946 0.27376 0.87141 0.53538 0.96428 0.32838-0.0855 0.2543-0.43169 0.52967-0.55707l0.11835 0.0434c0.0212 0.12769 0.0687 0.25883 0.0837 0.3855 0.042 0.37069-0.0448 0.77939-0.03 1.1565l0.0656 0.10077 0.13642 0.0641c0.42852-0.16255 0.44368 0.27066 0.74361 0.42168 0.10176 0.28168-0.18994 0.56312-0.0294 0.84956 0.10907 0.0617 0.6435 0.19877 0.79169 0.22893 0.0764 0.0165 0.1819 8e-3 0.2558-0.0145 0.0852-0.0662 0.0984-0.17454 0.11938-0.27131 0.0299-0.14136 0.0511-0.31182 0.048-0.45682 0-0.085-0.0433-0.1735-0.0537-0.25734 0-0.0426 0.014-0.0945 0-0.13591-0.0554-0.28765-0.44304-0.78087-0.30956-1.0707 0.12867-0.0683 0.2594-0.0549 0.39275-0.093 0.16303-0.0466 0.28411-0.19013 0.43407-0.24288 0.0406-0.0141 0.0975-8e-3 0.13645-0.0212 0.0583-0.0235 0.12528-0.0804 0.18603-0.10955 0.19391-0.0928 0.33662-0.0911 0.54001-0.12558 0.0598 0.0386 0.12422 0.13143 0.14211 0.19999 0.0719 0.0516 0.20471 0.0876 0.29197 0.0858 0.27511-8e-3 1.225-0.54616 1.464-0.72863 0.0299-0.0235 0.0585-0.0668 0.0899-0.0858 0.0629-0.0376 0.6323-0.29102 0.69607-0.30695 0.0867-0.0213 0.18221-0.0187 0.2677-0.0429 0.21696-0.0619 0.34422-0.11447 0.57775-0.0434 0.17221 0.1079 0.21486 0.60728 0.52347 0.82165 0.22453 0.15595 0.51613 0.23113 0.73226 0.40669 0.12438 0.10034 0.1991 0.2729 0.3333 0.36432 0.24741 0.16845 0.6019 0.22397 0.88056 0.32867 0.18023 0.0679 0.42053 0.23426 0.57155 0.35708 0.22993 0.18659 0.43191 0.48761 0.74414 0.52142 0.2902-0.15385 0.53076-0.4651 0.88263-0.47336 0.10176-2e-3 0.22394 0.0641 0.30956 8e-3 0.10485-0.0707 0.15306-0.19984 0.19428-0.31936 0.0358-0.10249 0.0404-0.23177 0.0837-0.32866 0.0615-0.13781 0.22312-0.28969 0.35711-0.35709l0.0145-4e-3c0.0973-0.0438 0.22571-0.0797 0.33385-0.0672 0.0763 0.18023-0.10647 0.55113-0.17312 0.72813 0.10906 0.42137-0.0877 0.63548-0.0594 0.89297 0.014 0.10129 0.19021 0.34004 0.2739 0.39997 0.21791 0.48717-0.47054 1.3568-0.27956 1.7353 0.0405 0.0792 0.5008 0.44472 0.59478 0.49299 0.25024 0.1284 0.77666 0.33713 0.77981 0.67128l-0.0775 0.10025-0.1261-8e-3c-0.31593-0.33805-1.4645-0.54726-1.6485-0.9927-0.13168-0.32027 0-0.55482 0.0894-0.85008 0.0285-0.0866 0.0865-0.53645 0.0837-0.62838 0-0.12793-0.0656-0.24159-0.0956-0.36432-0.051-0.21297-0.1274-0.42034-0.36327-0.49248-0.0942 0.20661-0.64458 0.3136-0.85111 0.29249-0.13619-0.0141-0.26472-0.0679-0.39222-0.11421-0.16209 0.0761-0.42164-0.073-0.58344-0.1142-0.14816-0.0382-0.30286-0.0286-0.45267-8e-3 0.0405 0.15809 0.0512 0.67949 0.0243 0.84233-0.0164 0.0995-0.0571 0.19825-0.0362 0.30024 0.0164 0.0836 0.0673 0.15582 0.0961 0.23564 0.0702 0.20097 0.14936 0.60838 0.0656 0.80719 0.19294 0.20002 0.0737 0.51224 0.19688 0.74259 0.0584 0.10908 0.16589 0.1778 0.24392 0.2713 0.0733 0.0886 0.12139 0.19953 0.21444 0.2713l0.0243 0.12816 0.0579 0.0506c0.12274-0.0405 0.2291-0.11633 0.35139-0.15709l0.11988 0.0496c0 0.0852-0.0328 0.19756-0.0956 0.25735 0.15361 0.11827 0.36234 0.0795 0.53536 0.0357l0.0899 0.0925c0.0464 0.42177 0.31353 0.31552 0.61857 0.47853l0.048 0.1142-0.03 0.12868-0.0961 0.0858-0.03 0.12867c0.0615 0.0564 0.11719 0.12114 0.16121 0.19276l-0.0356 0.13591c0.0222 0.071 0.0595 0.13702 0.10438 0.19688 1.2282 0.10825 4.1686 0.0947 5.4715-0.0791 1.4883-0.19843 3.7042-0.0993 4.9609-0.0661 1.2568 0.0331 2.8443-0.56224 4.3656-0.56224s5.0271 0.29762 6.8461 0.0331c1.819-0.26458 4.2664-0.79375 8.3344-2.4805s8.5659-3.1419 12.667-2.6458c1.2487 0.15106 2.5733 0.19355 3.8732 0.1633-0.16483-0.16624-0.33533-0.33989-0.47027-0.4749-0.15997-0.1602-0.36322-0.4905-0.52398-0.68575-0.0794-0.0961-0.18553-0.16494-0.26149-0.26407-0.0987-0.12816-0.15769-0.28312-0.26201-0.40721-0.14087-0.16658-0.3618-0.13156-0.50591-0.27854-0.099-0.10173-0.3999-0.805-0.48162-0.97874-0.12722-0.27085-0.41265-0.42489-0.59582-0.64234-0.20921-0.2483-0.29406-0.58448-0.4346-0.87179-0.15595-0.31909-0.39884-0.63306-0.63667-0.89245-0.13002-0.14181-0.15695-0.28884-0.24389-0.4284-0.0159-0.0254-0.0401-0.0435-0.062-0.0636zm-19.031 0.84129c-0.0385 2.6e-4 -0.0765 3e-3 -0.1142 8e-3 -0.0435 6e-3 -0.0879 0.025-0.13126 0.0289-0.0504 5e-3 -0.10411-5e-3 -0.15451 0-0.0777 8e-3 -0.18709 0.0333-0.262 0.0568-0.11975 0.0376-0.22521 0.13884-0.3452 0.16433-0.0448 9e-3 -0.10234 2e-3 -0.14883 7e-3 -0.25294 0.0258-0.30088 0.0357-0.55964-0.0217-0.0362 0.0328-0.16209 0.1157-0.1783 0.13591-0.0251 0.0312-0.0991 0.23313-0.11317 0.27853 8e-3 0.0503 0.0495 0.19635 0.0775 0.23565 0.0754 0.10563 0.27868 0.21244 0.33898 0.35708 0.0456 0.10951 0.0267 0.26735 0.13126 0.34985l0.091 0.0429c0.24263 0.1139 0.39476-0.0172 0.6232-0.0284 0.20167-0.01 0.40982 0.11974 0.601-7e-3l0.0594-0.12144c-0.0243-0.0776-0.0574-0.15631-0.0951-0.2284-0.10888-0.1053-0.29028-0.0921-0.4227-0.16433-0.0477-0.0412-0.0936-0.14313-0.0832-0.20723l0.11885-0.0501 0.15505 0.0501c0.0703-0.0102 0.16867-0.0842 0.19637-0.14986l0.12454 7e-3c0.10829 0.0606 0.14055 0.20544 0.21444 0.30025 0.16404 0.0191 0.23527-0.18771 0.50022-0.11421 0.0631-0.0476 0.12513-0.13946 0.14886-0.21446-0.0267-0.33273-0.22236-0.32307-0.30335-0.53382l0.0114-0.0589c-0.14303-0.0818-0.31379-0.12325-0.48059-0.12195zm0.21912 3.4644c-0.12268 4e-3 -0.27209 0.0519-0.35142 0.14986-0.013 0.0667-0.0565 0.29798-0.0894 0.35708-0.0756 0.13602-0.30049 0.23909-0.45215 0.22169l0.018 0.10697c0.12128 0.0773 0.22402 0.28729 0.23204 0.4284l0.14261 0.0217c0.0871-0.0837 0.17703-0.18798 0.28577-0.24288 0.0732-0.037 0.16193-0.0587 0.23823-0.093 0.0269-0.084 0.0453-0.19798 0.0413-0.28577-4e-3 -0.0991-0.0411-0.1481 6e-3 -0.25683 0.0565-0.0484 0.16444-0.089 0.23823-0.093 0.0183-0.0639 0-0.1754-0.0419-0.22841-0.0711-0.046-0.18013-0.083-0.26665-0.0858zm6.5526 0.32091c-0.137 0.1089-0.20339 0.27951-0.3452 0.38602-0.10967-3e-3 -0.22744-0.022-0.33333-0.0501-0.18071 0.026-0.27278 0.25883-0.19687 0.41393 0.10477 0.0652 0.2405 0.0403 0.35346 0.0165 0.0724-0.015 0.25857-0.038 0.31369-0.0589 0.0593-0.0226 0.24765-0.18908 0.28524-0.24288 0.0532-0.0762 0.0908-0.19407 0.10128-0.28577l-0.0594-0.14987v0.0135zm27.955 0.16588c-0.0249 7.9e-4 -0.38084 0.0643-0.39894 0.0713-5e-3 2e-3 -0.0633 0.0514-0.0713 0.0574-0.0305 0.10932-0.17531 0.38936-0.25579 0.46406-0.0674 0.0625-0.24382 0.15838-0.33333 0.17828-7e-3 0.0409-0.0227 0.095-0.0238 0.13591-3e-3 0.0841 0.036 0.1681 0.047 0.2496 0.0119 0.0904 4e-3 0.18743 6e-3 0.27853 3e-3 0.13861 0.023 0.28375 0.018 0.42168-0.0127 0.31168-0.16875 0.50443-0.10337 0.83768 3e-3 0.0157 3e-3 0.0258 8e-3 0.0408 0.0495 0.12641 0.25392 0.30422 0.38137 0.34262 0.0868 0.18149 0.23685 0.15822 0.20825 0.44286 0.0501 0.0652 0.0862 0.14462 0.13642 0.20722 0.0251 0.0312 0.0637 0.0549 0.0894 0.0858 0.0281 0.0337 0.1589 0.28411 0.16692 0.32091 0.0169 0.0789-0.0154 0.22361-0.0538 0.293-0.0634 0.0382-0.14685 0.10428-0.21445 0.12868-0.13073 0.047-0.35848 0.0394-0.51779 0.1142l-0.0651 0.0786c3e-3 0.38701 0.59724 0.81931 0.95186 0.83561 0.0842 4e-3 0.18111-0.0521 0.26202-0.0501 0.0961 2e-3 0.23318 0.0484 0.33951 0.0574 0.0659-0.038 0.14537-0.0936 0.19638-0.15038 0.0287-0.032 0.0477-0.0755 0.077-0.10697 0.0521-0.0561 0.13687-0.11067 0.20257-0.14987 0.18748 0.0611 0.27387 0.257 0.4165 0.3142l0.10801 0.0217c0.12472-0.0222 0.20801-0.0322 0.32041-0.0506 0.11464-0.13536 0.0593-0.30142 0.11935-0.44958 0.0668-0.16491 0.29332-0.169 0.40463-0.29301l-0.0243-0.12816c-0.33341-0.30068-0.0991-0.35697-0.15452-0.62167-0.27199-0.22587-0.10065-0.65509-0.14261-0.95704l-0.0119-0.0853c-6e-3 -0.0143-0.0665-0.081-0.077-0.10025-0.0327-0.0611-0.11017-0.28969-0.11316-0.35709-6e-3 -0.13844 0.0415-0.17706 0.0713-0.29248 0.0439-0.17007 0.0119-0.66438-0.0713-0.82166-0.0262-0.0497-0.0578-0.0943-0.10335-0.12609-0.0908-0.0629-0.17232-0.16409-0.27183-0.20929-0.0958-0.0434-0.21053-0.0606-0.30953-0.10025-0.13449-0.0539-0.57971-0.34001-0.66612-0.44907-0.0201-0.0255-0.023-0.0667-0.048-0.0935-0.0265-0.0286-0.0743-0.0615-0.0951-0.093-0.0201-0.0307-0.0217-0.0835-0.0419-0.11421-0.0228-0.0351-0.16383-0.14419-0.20206-0.15709zm-3.329 0.185v5.3e-4c-0.1466 2e-3 -0.2962 0.0518-0.40875 0.13539 3e-3 0.0996-0.0615 0.14751-0.0894 0.22841-0.0477 0.1394-0.0257 0.31118-0.0418 0.45734-0.0925 0.17538-0.24498 0.15575-0.2739 0.44286l0.0894 0.0925c0.22358 0.0706 0.35923 0.0227 0.56534-0.0579 0.0374-0.0145 0.0812-0.0406 0.11938-0.0496 0.0316-8e-3 0.24606-0.0232 0.27956-0.0212 0.21947 0.0147 0.26432 0.1003 0.44029 0.1571 0.0685 0.0221 0.15859 0.0338 0.23048 0.0398l0.10284 9e-3c0.16328-0.0168 0.62098-0.39252 0.69607-0.53588 0.0648-0.12374 0.0554-0.28423 0.0119-0.41393-0.0796-0.0937-0.30202-0.0975-0.41653-0.0858-0.0955 0.01-0.17965 0.0406-0.27956 0.0357-0.10795-5e-3 -0.22836-0.032-0.33332-0.0574v1e-3c-0.046-0.0523-0.0862-0.10054-0.15089-0.12764l-0.0868-0.0367c-0.0709-0.0477-0.10467-0.11903-0.20257-0.16433-0.0769-0.0357-0.16372-0.051-0.25167-0.0496zm-21.662 0.0351c-0.06 0.021-0.15248 0.0583-0.20206 0.0992-0.0323 0.0267-0.16259 0.14226-0.19069 0.17156-0.0293 0.0305-0.0496 0.0748-0.0775 0.10698-0.0516 0.0598-0.13287 0.10876-0.17828 0.17156-0.0251 0.0346-0.0458 0.09-0.0656 0.12867 0.0536 0.0203 0.12181 0.0562 0.16073 0.0997 0.11216-0.0614 0.18627-0.15965 0.28575-0.23564 0.0323-0.0247 0.078-0.0441 0.10698-0.0713 0.0541-0.0507 0.0882-0.13005 0.14832-0.17725 0.068-0.0533 0.13848-0.0815 0.19688-0.15141l-0.0476-0.11421zm11.879 0.0858c-0.11594 0.0571-0.17344 0.25217-0.14264 0.37104l0.13076 0.0646 0.13692-0.0289 0.0775-0.10698c3e-3 -0.12145-0.0177-0.15709-0.0175-0.15709l-0.0718-0.0997zm-20.758 0.79944v5.2e-4c0 3e-3 -0.0936 0.0952-0.0956 0.0992-0.0666 0.1102-0.0488 0.25577-0.20206 0.35709l6e-3 0.14262 0.10131 0.0501c0.10049-0.0657 0.20878-0.13865 0.31573-0.19275 0.11509-0.058 0.25839-0.058 0.35708-0.14263l0.0238-0.10025-0.0713-0.12144c-0.12988-0.073-0.29236-0.0556-0.43458-0.0925zm11.855 0.35708c-0.16248 0.13056-0.28376 0.13862-0.46405 0.20722-0.0358 0.0138-0.0721 0.047-0.10697 0.0646-0.11414 0.0577-0.24482 0.0751-0.35708 0.13539-0.25773 0.13847-0.15925 0.29124-0.31573 0.4284l-0.0889-0.0925c-0.0169 7e-3 -0.21968 0.19915-0.26818 0.25735-0.18809 0.22578-0.40069 0.43861-0.61288 0.64234l-0.0175 0.15037 0.0775 0.0713v-5.3e-4c0.13031 0.0235 0.33967 0.0818 0.45786 7e-3 0.15158-0.0959 0.29972-0.3244 0.45268-0.43564 0.065-0.0474 0.14237-0.0774 0.20825-0.12867 0.11803-0.0916 0.20968-0.21036 0.32091-0.30696 0.0611-0.0531 0.13169-0.061 0.19691-0.10025 0.28254-0.16944 0.53694-0.46791 0.6723-0.76378l-0.0238-0.12867zm-2.035 0.31471-0.12504 0.0429c-0.0368 0.0673-0.051 0.1998-0.018 0.2713l0.11319 0.078c0.0696-0.0282 0.1492-0.12521 0.17259-0.19482l-0.0119-0.14107zm22.076 0.18655c-0.15156-3e-3 -0.27943 0.14906-0.53123 0.0915l-0.0775 0.10025c4e-3 0.0937 0 0.19287 0.0119 0.28577 4e-3 0.0388 0.0233 0.083 0.0243 0.12144 3e-3 0.0903-0.0287 0.21039-0.0656 0.29249-0.0692 0.0483-0.14107 0.0942-0.21447 0.13591 0.0639 0.10202 0.13195 0.20917 0.22635 0.28577 0.0767 0.0622 0.15981 0.0948 0.24392 0.14263 0.0373 0.0213 0.0703 0.0502 0.10748 0.0713 0.0852 0.0486 0.18338 0.0746 0.26768 0.12144 0.0368 0.0205 0.0718 0.0551 0.10697 0.0791 0.14258 0.0971 0.1702 0.12151 0.2677 0.26407 0.0474 0.0692 0.0947 0.12939 0.11317 0.21394 0.0846 0.017 0.22053 0.0224 0.30334-7e-3 7e-3 -3e-3 0.089-0.0571 0.10128-0.0641 0.0653-0.0403 0.15666-0.0866 0.20257-0.14986l0.0393-0.0858c0.0736-0.1589 0.0885-0.29959-0.0336-0.43564-0.25379-0.28282-0.57608-0.2318-0.74983-0.39997-0.0249-0.024-0.0507-0.0714-0.0713-0.10025-0.0695-0.0978-0.14189-0.19868-0.1788-0.3142-0.0439-0.13724-0.0262-0.12918-0.10697-0.25011 0.0201-0.0835 0.0705-0.1873 0.13073-0.2496l-0.0294-0.12867c-0.0306-0.0135-0.0597-0.0196-0.0878-0.0202zm-3.8225 1.3203-0.0656 0.12143 0.0656 0.0992 0.13126 0.0646 0.0956-0.0853c-0.0312-0.0565-0.0621-0.11378-0.0899-0.17208zm0.96481 0.40049c-0.056 2e-3 -0.10494 0.0122-0.13746 0.0362l-0.0295 0.12868 0.0713 0.10025c0.11189 0.056 0.30845 0.0843 0.37465 0.19275h0.14883l0.10747-0.0646c0.0316-0.0645 0.0332-0.18717 0-0.25167l-0.0956-0.0625s-0.25699-0.085-0.43976-0.0791zm-9.8397 0.0124c-0.0349 1.4e-4 -0.0685 3e-3 -0.0997 8e-3 -6e-3 0.012-0.0584 0.11544-0.0594 0.12144-0.0148 0.0727 0.0467 0.45251 0.0832 0.52141 0.0575-0.0714 0.12507-0.0959 0.19638-0.1452 0.0538-0.0372 0.21711-0.22192 0.24391-0.26872l-6e-3 -0.14315c-0.0949-0.0631-0.23426-0.0941-0.35864-0.0935zm11.089 0.50953c-0.0725 9e-3 -0.17415 0.0748-0.21447 0.13487-0.0241 0.11672-0.0143 0.29131 0.0775 0.37931 0.0361 0.0347 0.11137 0.0703 0.15659 0.0925 0.079 0.0389 0.16303 0.0654 0.25373 0.0574l0.0419-0.11421c-7e-3 -0.118-0.0616-0.14281-0.0951-0.22841-0.023-0.0593-0.0326-0.19848-0.0357-0.26458-0.0319-0.0277-0.14449-0.0498-0.18447-0.0568z" fill="#c60c31"/>
  </clipPath>
  <filter id="filter18197" x="-.029641" y="-.28505" width="1.0593" height="1.5701" color-interpolation-filters="sRGB">
   <feGaussianBlur stdDeviation="2.0749404"/>
  </filter>
 </defs>
 <g>
  <g>
   <path d="m307.26 146.3c3.6e-4 2e-3 -1e-3 5e-3 -6.1e-4 7e-3 0.0289 0.13443 0.17459 0.24081 0.189 0.37211 0 0.0466-0.041 0.2992-0.0543 0.35631l0.0814 0.0808 0.14101-0.0568c0.14753 0.0317 0.3751 0.0456 0.48505 0.15329l0.0474 0.1293 0.12929 0.0895c0.24117 0.0324 0.55774-0.0501 0.79514-0.10529l0.0544 0.12171c-0.0267 0.17443-0.20478 0.39415-0.37038 0.46044-0.10003 0.04-1.3969 0.0727-1.5165 0.0404-0.26876-0.0726-0.33718-0.47791-0.82202-0.42828-0.13897 0.0159-0.57027 0.33777-0.73429 0.42067-0.22805 0.11543-0.44575-0.0318-0.674 0.0321-0.33723 0.0945-0.51525 0.61082-0.48504 0.92151l0.0878 0.0808c0.16775-0.0954 0.28009-0.25722 0.44464-0.35573l0.12172 0.0326c0.088 0.15977-0.0713 0.49886-0.10181 0.67927 0.0187 0.066 0.085 0.19613 0.13576 0.24281 0.10508 0.0965 0.49247 0.22517 0.63363 0.21823 0.19768-9e-3 0.27329-0.0459 0.49849-0.0157 0.14085 0.0976 0.33927 0.33396 0.43822 0.37971 0.0439 0.0214 0.11987 0.0371 0.16731 0.0492 0.18623 0.0445 0.38692 0.0287 0.5664 0.0726 0.15604 0.038 0.33563 0.16617 0.49848 0.17846 0.0439 2e-3 0.24192-0.06 0.28961-0.0814 0.15259 0.0499 0.2546 0.19781 0.40489 0.23461 0.22991 0.056 0.39452-0.0401 0.58565-0.13689 0.22246-0.11267 0.53482-0.28951 0.68748-0.49383 0.31367-0.41986 0.044-0.99484 0.58624-1.2772l0.20888 0.0404 0.0748 0.1135c-0.0627 0.14458-0.14741 0.28102-0.14099 0.44466l0.0615 0.12111c0.44835 0.31233 0.50341 0.0926 0.80858 0.18606 0.0494 0.0159 0.45557 0.29637 0.48501 0.33936 0.0406 0.0605 0.0613 0.21989 0.0544 0.29137-0.16431 0.22888-0.29758 0.44512-0.52598 0.62252-0.0712 0.0553-0.1622 0.0906-0.2358 0.1457-0.11716 0.0902-0.20816 0.19551-0.337 0.27498-0.12058 0.074-0.27133 0.10431-0.38382 0.17786-0.073 0.0472-0.14945 0.15592-0.18252 0.23461v0.0808l0.17549 0.0568c0.13897-0.0311 0.30988-0.0854 0.45168-0.0888 0.28843-9e-3 0.59374 0.0668 0.88231 0.0321l0.12871 0.0889-0.10114 0.25039 0.12695 0.0888c0.20757 9e-3 0.41165-0.31232 0.57282-0.42827 0.0881-0.0625 0.17066-0.06 0.26268-0.0972 0.19552-0.0781 0.28428-0.24143 0.43763-0.36392 0.0746-0.059 0.15464-0.10033 0.22293-0.16966l-0.12695-0.0896c-0.23795 0.1113-0.53292-0.0981-0.45873-0.36334 0.0459-0.0792 0.12215-0.16495 0.19601-0.21881 0.33368-0.11232 0.59634 0.20364 0.88936 0.29136 0.19227 0.0577 0.36191-0.0244 0.54528 0.0486 0.14082 0.13041 0.26198 0.28402 0.43178 0.3803l0.13514-0.0492 0.0748-0.13751c0-0.14884-0.13547-0.4092-0.2627-0.49323-0.26246-0.17389-1.0973-0.40834-1.2128-0.70326l0.0474-0.12989c0.19846-0.0968 0.65505 0.12109 0.90276 0.12169l0.0813-0.14566c-0.0459-0.0769-0.0813-0.17859-0.0948-0.26682 0.0643-0.0555 0.42118-0.34301 0.43766-0.36391l0.16261-9e-3 0.12874 0.0808c-0.0388 0.0773-0.0524 0.1981-0.0404 0.28318 0.17445 0.37152 0.62095 0.19078 0.90922 0.29898 0.0643 0.024 0.19307 0.12672 0.25627 0.16967 0.0795 0.0551 0.15976 0.10054 0.20245 0.19367l-0.0217 0.17844c-0.0746 0.0448-0.16194 0.11359-0.24223 0.1451-0.24408 0.0976-0.47029 0.0874-0.57923 0.38849 0.16964 0.20859 0.0946 0.45175 0.26912 0.64711 0.39465 0.14936 0.45383-0.1932 0.78871-0.0977 0.13229 0.16298-0.0595 0.59092-0.19543 0.71147-0.0612 0.0543-0.17213 0.0938-0.24279 0.14567l-0.17494-0.0157c-0.0713-0.0831-0.17603-0.28617-0.26272-0.33174-0.12696-0.0667-0.20726-0.0276-0.33057-0.024-0.1507 2e-3 -0.31579-0.0683-0.45811-0.0645-0.281 9e-3 -0.52136 0.27831-0.74773 0.3961l-0.16089-0.0321c-0.13391 0.0873-0.13905 0.27063-0.24282 0.38792-0.11173-0.0159-0.23811-0.0215-0.35048-9e-3 -0.13042 0.0769-0.21361 0.26515-0.20241 0.41189 0.15763 0.0514 0.2895 0.17852 0.45812 0.19426 0.30651 0.0289 0.59576-0.1929 0.93669-0.14569l0.0818 0.1211c-0.16111 0.28053-0.84249 0.55818-1.1526 0.55818-0.21339 0-0.36255-0.22787-0.57983-0.19425l-0.12168 0.0731c-0.0159 0.0438-0.10159 0.31157-0.11349 0.33175-0.0159 0.0186-0.0902 0.0757-0.10882 0.0972-0.1339 0.14937-0.41149 0.61925-0.46456 0.80858 0.0186 0.1475 0.11463 0.25924 0.1416 0.39611 0.0289 0.15257 3.4e-4 0.35637-0.0269 0.5096 0.0354 0.0838 0.0781 0.16731 0.12872 0.24281 0.0864-0.0186 0.18968-0.021 0.27615-9e-3 0.0405-0.0996 0.10813-0.18774 0.14862-0.28377 0.0474-0.11174 0.0579-0.24637 0.11528-0.35515 0.0831-0.15736 0.45485-0.5191 0.63363-0.55816 0.15605-0.034 0.34572-2e-3 0.50551-0.0164 0.0998-9e-3 0.20485-0.052 0.30308-0.0568 0.3133-0.0159 0.73652 0.19897 0.99695 0 0.22914-0.17526 0.29884-0.48585 0.39085-0.74366 0.0643-0.18244 0.23095-0.36821 0.25627-0.54177l-0.0543-0.12111 0.0403-0.19366c0.18672-0.1539 0.26974-0.42822 0.52542-0.48562l0.041 0.1135c-0.0594 0.073-0.10846 0.19697-0.11526 0.29138 0.0375 0.14084 0.16596 0.20899 0.23581 0.33117 0.083 0.0319 0.22589 0.0388 0.31006 9e-3 -0.0159-0.31977 0.15766-0.32091 0.28962-0.53359l0.13517 9e-3c0.0695 0.0691 0.14747 0.13246 0.22934 0.18606l0.18839 9e-3c0 0.0838-0.0676 0.21432-0.14217 0.2586 0.11175 0.1323 0.62917 0.38416 0.80216 0.3721 0.19873-0.056 0.18697-0.25064 0.23579-0.40428 0.0375-0.11471 0.10159-0.18065 0.0948-0.31537-0.15072-0.14404-0.26563-0.24346-0.34346-0.44465l0.0679-0.16206c0.22887-0.0113 0.38824-0.0113 0.59969-0.11288 0.0713-0.0649 0.12707-0.21384 0.134-0.30717-0.14083-0.0534-0.33091-0.11747-0.40429-0.25861-0.0159-0.0911 7e-5 -0.22272 0.034-0.30776l0.10115-0.0966 0.1562-0.0321c0.0159-0.0186 0.0647-0.12309 0.068-0.13747v-0.10824c0-0.0694-2.7e-4 -0.0367-0.0164-0.0972-0.0712-0.19605-0.0508-0.34892-0.0778-0.54763-0.0159-0.0874-0.0473-0.18513-0.0813-0.26622-0.0541-0.12776-0.15595-0.24274-0.19543-0.3727-0.0423-0.13948-0.0158-0.36687 0.0341-0.50082l0.0995-0.0972c0.15415 0.074 0.49976 0.46263 0.5459 0.63013 0.18111 0.13176 0.38276 0.25598 0.62016 0.21063 0.11715-0.024 0.89844-0.4643 0.99053-0.54998 0.0678-0.0626 0.24137-0.27849 0.26272-0.36392l-0.0814-0.0726c-0.27827 0.0543-0.38005 0.29451-0.74831 0.16911l-0.0532-0.12933c0.0594-0.1659 0.18901-0.21347 0.28318-0.33933 0.0577-0.0773 0.10518-0.19524 0.1492-0.28317l-0.0281-0.1451c-0.35738-0.0555-0.45464 0.0322-0.76119 0.1451l-0.0814-0.11288c0.0319-0.19391 0.22386-0.47786 0.13401-0.66348l-0.14102-0.0403c-0.16432 0.0845-0.30354 0.24743-0.47861 0.29136-0.20696 0.0518-0.3202-9e-3 -0.5049-0.0808-0.36298-0.14512-0.50219-0.234-0.80214-0.47743-0.0779-0.0625-0.16399-0.0963-0.22878-0.17786-0.0289-0.0364-0.0444-0.0853-0.0748-0.12112-0.0881-0.10485-0.21454-0.19585-0.31009-0.29896-0.0364-0.0702-0.0342-0.20082-2e-3 -0.275h-7.3796l-0.0251 0.0796c-0.0696 0.073-0.19527 0.0878-0.28961 0.0814-0.21158-0.014-0.31263-0.0766-0.37446-0.1609zm12.596 0c0.19502 0.0309 0.39298-5e-3 0.57223 0.0498 0.0214 9e-3 0.42887 0.32564 0.44463 0.34813 0.0578 0.083 0.0495 0.14994 0.15449 0.21822h0.16734c0.23819-0.16751 0.79622-0.26707 1.0648-0.1451 0.0459 0.0214 0.0829 0.0669 0.12869 0.089 0.0848 0.0416 0.23254 0.10232 0.323 0.12871 0.2582 0.076 0.66392 0.0284 0.80915 0.30776-0.0241 0.12429-0.0816 0.23679-0.10882 0.35571-0.0662 0.29875-0.0159 0.60965 0.2738 0.75184 0.0983 0.0484 0.26974 0.0564 0.36629-9e-3l0.1679 0.0321c0.0214 0.0981 2.1e-4 0.20542 0.0275 0.29957 0.066 0.32011 0.3786 0.54389 0.57922 0.7758 0.11187 0.12992 0.23386 0.44899 0.31011 0.61493 0.09 0.0616 0.19746 0.10013 0.28316 0.16148 0.28655 0.20459 0.37443 0.67065 0.49849 0.97826 0.43957 0.25872 0.51393-0.027 0.96361 0.065 0.40521 0.0827 0.40486 0.30108 0.67346 0.3885 0.0677-0.0773 0.0867-0.20169 0.0678-0.29956-0.0159-0.0904-0.0778-0.17298-0.10823-0.25861-0.0643-0.18857-0.0213-0.41423-0.0948-0.59034 0-0.0133-0.0647-0.1017-0.0748-0.11288-0.19445-0.24246-0.64165-0.28799-0.73484-0.52599v-0.15329c0.0983-0.21603 0.5556-0.41793 0.78167-0.34812l0.1018 0.0977-0.1018 0.0889 0.0164 0.12931c0.14403 0.10464 0.3135 0.17203 0.44465 0.29898 0.26858 0.2598 0.30997 0.98661 0.60616 1.0918 0.37178-0.0968 0.28791-0.48875 0.5997-0.63071l0.13397 0.0491c0.0239 0.14458 0.0778 0.29306 0.0948 0.43648 0.0475 0.41971-0.0507 0.88242-0.0341 1.3094l0.0743 0.11409 0.15444 0.0726c0.48519-0.18404 0.50235 0.30644 0.84194 0.47742 0.1152 0.31892-0.21505 0.63757-0.0333 0.96188 0.12349 0.0698 0.72857 0.22504 0.89635 0.2592 0.0866 0.0186 0.20595 9e-3 0.28962-0.0164 0.0965-0.0749 0.11141-0.19759 0.13517-0.30716 0.0339-0.16005 0.0579-0.35304 0.0543-0.51721 0-0.0963-0.049-0.19644-0.0607-0.29137 0-0.0482 0.0159-0.107 0-0.15388-0.0626-0.32568-0.5016-0.88411-0.35048-1.2123 0.14568-0.0773 0.29369-0.0622 0.44467-0.1053 0.18458-0.0528 0.32167-0.21528 0.49146-0.27499 0.0459-0.0159 0.11038-9e-3 0.15447-0.024 0.066-0.0267 0.14185-0.091 0.21064-0.12402 0.21955-0.10508 0.38112-0.10317 0.61139-0.1422 0.0677 0.0437 0.14064 0.1488 0.1609 0.22643 0.0814 0.0585 0.23178 0.0992 0.33057 0.0972 0.31148-9e-3 1.3869-0.61836 1.6575-0.82496 0.034-0.0266 0.0663-0.0756 0.1018-0.0972 0.0712-0.0427 0.7159-0.32949 0.78809-0.34753 0.0981-0.0241 0.2063-0.0212 0.30308-0.0484 0.24565-0.07 0.38975-0.12961 0.65414-0.0492 0.19498 0.12217 0.24327 0.68756 0.59268 0.93029 0.25421 0.17655 0.58435 0.26169 0.82907 0.46044 0.14082 0.1136 0.22542 0.30898 0.37735 0.41249 0.28012 0.19071 0.68146 0.25357 0.99697 0.3721 0.20406 0.0769 0.47612 0.26523 0.6471 0.4043 0.26033 0.21126 0.48902 0.55209 0.84253 0.59035 0.32855-0.17419 0.60092-0.52659 0.9993-0.53594 0.11522-2e-3 0.25356 0.0727 0.35049 9e-3 0.11873-0.08 0.17329-0.22625 0.21997-0.36158 0.0405-0.11604 0.0458-0.26241 0.0948-0.3721 0.0696-0.15603 0.25264-0.328 0.40433-0.40429l0.0163-5e-3c0.11016-0.0497 0.25556-0.0903 0.37798-0.0761 0.0865 0.20404-0.12053 0.62398-0.196 0.82438 0.12349 0.47707-0.0993 0.71948-0.0672 1.011 0.0159 0.1147 0.21535 0.38501 0.3101 0.45286 0.2467 0.55158-0.53273 1.5362-0.31652 1.9647 0.0459 0.0896 0.567 0.5035 0.67342 0.55816 0.28332 0.14537 0.87933 0.3817 0.8829 0.76002l-0.0878 0.11351-0.14278-9e-3c-0.35769-0.38273-1.6581-0.61962-1.8664-1.1239-0.1491-0.36261-3e-4 -0.62817 0.10115-0.96248 0.0322-0.098 0.0979-0.60736 0.0948-0.71146 0-0.14483-0.0744-0.27351-0.10824-0.41247-0.0577-0.24111-0.14424-0.4759-0.41131-0.55758-0.10665 0.23393-0.72979 0.35506-0.96362 0.33116-0.15418-0.0159-0.29971-0.0769-0.44408-0.12931-0.1835 0.0861-0.47737-0.0826-0.66055-0.12929-0.16776-0.0433-0.34292-0.0323-0.51252-9e-3 0.0459 0.17898 0.0579 0.7693 0.0275 0.95366-0.0186 0.11267-0.0647 0.22447-0.041 0.33994 0.0186 0.0947 0.0762 0.17642 0.1088 0.26679 0.0795 0.22754 0.1691 0.68882 0.0744 0.91391 0.21843 0.22646 0.0835 0.57997 0.22291 0.84076 0.0661 0.12351 0.18782 0.20132 0.27615 0.30716 0.0831 0.10034 0.13745 0.22592 0.24281 0.30717l0.0275 0.14511 0.0656 0.0573c0.13898-0.0459 0.25939-0.13174 0.39784-0.17788l0.13573 0.0562c0 0.0965-0.0371 0.22369-0.10823 0.29137 0.17392 0.13392 0.41024 0.0901 0.60613 0.0404l0.10181 0.10475c0.0526 0.47751 0.35497 0.35721 0.70033 0.54176l0.0544 0.12932-0.0341 0.14568-0.1088 0.0972-0.034 0.1457c0.0696 0.0639 0.13267 0.13713 0.18252 0.21822l-0.0403 0.15388c0.0249 0.0805 0.0674 0.15515 0.11817 0.22293 1.3906 0.12256 4.7197 0.10721 6.1948-0.0896 1.685-0.22466 4.1938-0.11232 5.6168-0.0748 1.4229 0.0375 3.2203-0.63658 4.9428-0.63658s5.6916 0.33697 7.7512 0.0375c2.0595-0.29955 4.8304-0.89868 9.4362-2.8084 4.6058-1.9097 9.6983-3.5573 14.341-2.9956 1.4138 0.17103 2.9135 0.21914 4.3852 0.1849-0.18663-0.18821-0.37967-0.38483-0.53245-0.53769-0.18112-0.18138-0.41124-0.55534-0.59324-0.7764-0.09-0.10881-0.21005-0.18674-0.29606-0.29898-0.11176-0.14511-0.17855-0.32054-0.29665-0.46104-0.15949-0.1886-0.40962-0.14897-0.57279-0.31537-0.11209-0.11518-0.45276-0.91142-0.54529-1.1081-0.14405-0.30665-0.4672-0.48106-0.6746-0.72727-0.23685-0.28111-0.33293-0.66174-0.49205-0.98703-0.17656-0.36128-0.45157-0.71676-0.72084-1.0104-0.14721-0.16055-0.17771-0.32703-0.27614-0.48503-0.0179-0.0288-0.0454-0.0493-0.0701-0.0721zm-21.547 0.95252c-0.0437 2.9e-4 -0.0867 3e-3 -0.12929 9e-3 -0.0492 7e-3 -0.0995 0.0282-0.14861 0.0327-0.0571 6e-3 -0.11787-6e-3 -0.17494 0-0.088 9e-3 -0.21182 0.0377-0.29664 0.0643-0.13556 0.0426-0.25497 0.15719-0.39083 0.18606-0.0507 0.0104-0.11586 2e-3 -0.16849 8e-3 -0.28639 0.0292-0.34068 0.0404-0.63365-0.0246-0.041 0.0371-0.18351 0.13099-0.20187 0.15388-0.0284 0.0353-0.1122 0.26396-0.12812 0.31536 9e-3 0.057 0.0561 0.2223 0.0878 0.2668 0.0853 0.11959 0.31554 0.24053 0.3838 0.40429 0.0517 0.12398 0.0302 0.30269 0.14861 0.39611l0.10306 0.0484c0.27469 0.12896 0.44694-0.0195 0.70559-0.0321 0.22831-0.0113 0.46398 0.13557 0.68044-8e-3l0.0672-0.13749c-0.0276-0.0879-0.065-0.17698-0.10768-0.25861-0.12326-0.11921-0.32864-0.10431-0.47857-0.18605-0.054-0.0466-0.10598-0.16206-0.0942-0.23462l0.13457-0.0568 0.17555 0.0568c0.0796-0.0116 0.19097-0.0954 0.22233-0.16967l0.141 8e-3c0.12263 0.0686 0.15913 0.23258 0.24281 0.33993 0.18572 0.0217 0.26636-0.21254 0.56633-0.12932 0.0714-0.0538 0.14167-0.15789 0.16854-0.2428-0.0302-0.37673-0.25174-0.36578-0.34345-0.6044l0.0129-0.0667c-0.16195-0.0927-0.35529-0.13957-0.54413-0.13809zm0.24811 3.9224c-0.13892 5e-3 -0.30807 0.0588-0.39789 0.16967-0.0148 0.0755-0.0639 0.33738-0.10114 0.40429-0.0856 0.15401-0.34022 0.27071-0.51193 0.25101l0.0205 0.12111c0.13732 0.0876 0.25364 0.32526 0.26271 0.48502l0.16146 0.0246c0.0985-0.0948 0.20044-0.21284 0.32357-0.27498 0.0829-0.0419 0.18332-0.0665 0.26973-0.10531 0.0305-0.0951 0.0512-0.22415 0.0467-0.32354-5e-3 -0.1122-0.0465-0.16768 7e-3 -0.29079 0.064-0.0548 0.18618-0.10074 0.26972-0.10529 0.0208-0.0723-9.9e-4 -0.1986-0.0474-0.2586-0.0806-0.0521-0.20394-0.094-0.30191-0.0972zm7.4188 0.36335c-0.15511 0.1233-0.23026 0.31645-0.39083 0.43704-0.12416-3e-3 -0.2575-0.0249-0.37738-0.0568-0.20461 0.0294-0.30886 0.29304-0.22291 0.46863 0.11862 0.0739 0.27231 0.0457 0.40018 0.0186 0.0819-0.0169 0.29276-0.0431 0.35516-0.0667 0.0672-0.0255 0.28038-0.21407 0.32296-0.27498 0.0602-0.0862 0.10285-0.21974 0.11468-0.32356l-0.0674-0.16967v0.0152zm31.651 0.1878c-0.0281 9.1e-4 -0.43118 0.0728-0.45168 0.0808-6e-3 2e-3 -0.0718 0.0582-0.0808 0.065-0.0345 0.12377-0.19848 0.44082-0.28962 0.5254-0.0763 0.0708-0.27604 0.17933-0.37739 0.20185-8e-3 0.0463-0.0257 0.10756-0.0271 0.15387-2e-3 0.0953 0.0408 0.19034 0.0532 0.2826 0.0136 0.10233 5e-3 0.21221 7e-3 0.31537 3e-3 0.15693 0.0261 0.32126 0.0205 0.47743-0.0144 0.35287-0.19106 0.5711-0.11704 0.9484 3e-3 0.0177 2e-3 0.0292 9e-3 0.0462 0.0561 0.14312 0.28749 0.34444 0.43179 0.38791 0.0982 0.20548 0.26817 0.17915 0.23578 0.50142 0.0568 0.0738 0.0976 0.16374 0.15446 0.23462 0.0283 0.0353 0.0721 0.0622 0.10115 0.0972 0.0317 0.0381 0.17991 0.32168 0.18899 0.36334 0.0191 0.0893-0.0174 0.25317-0.061 0.33174-0.0718 0.0433-0.16626 0.11807-0.24279 0.14569-0.14801 0.0532-0.40587 0.0446-0.58624 0.1293l-0.0737 0.0889c2e-3 0.43815 0.67618 0.9276 1.0777 0.94607 0.0953 5e-3 0.20506-0.059 0.29667-0.0568 0.1088 2e-3 0.264 0.0546 0.38438 0.065 0.0746-0.0431 0.1646-0.10597 0.22234-0.17027 0.0324-0.0363 0.054-0.0854 0.0872-0.1211 0.059-0.0634 0.15497-0.1253 0.22936-0.16967 0.21227 0.0692 0.31008 0.29095 0.47156 0.35572l0.12229 0.0246c0.14121-0.0252 0.23551-0.0365 0.36277-0.0573 0.1298-0.15324 0.0671-0.34125 0.13513-0.50899 0.0756-0.18673 0.3321-0.19136 0.45812-0.33177l-0.0275-0.1451c-0.37747-0.34042-0.1122-0.40415-0.17495-0.70385-0.30794-0.25572-0.11393-0.7417-0.16146-1.0836l-0.0134-0.0966c-7e-3 -0.0161-0.0753-0.0917-0.0872-0.1135-0.037-0.0692-0.12474-0.32799-0.12813-0.40429-7e-3 -0.15674 0.047-0.20048 0.0808-0.33116 0.0498-0.19255 0.0133-0.75221-0.0808-0.93027-0.0296-0.0562-0.0655-0.10677-0.117-0.14277-0.10285-0.0712-0.19512-0.18578-0.30778-0.23697-0.10846-0.0491-0.23835-0.0686-0.35045-0.1135-0.15226-0.0609-0.65635-0.38495-0.75418-0.50842-0.0227-0.0289-0.026-0.0755-0.0543-0.10587-0.03-0.0323-0.0841-0.0696-0.10768-0.1053-0.0228-0.0348-0.0245-0.0946-0.0474-0.1293-0.0258-0.0397-0.18549-0.16326-0.22878-0.17786zm-3.7691 0.20946v5.8e-4c-0.16599 2e-3 -0.33538 0.0587-0.4628 0.1533 2e-3 0.11276-0.0696 0.167-0.10125 0.25859-0.0539 0.15783-0.0291 0.35232-0.0474 0.51781-0.10474 0.19857-0.27737 0.17633-0.31011 0.5014l0.10115 0.10473c0.25314 0.0799 0.40671 0.0256 0.64008-0.0656 0.0423-0.0164 0.0919-0.046 0.13515-0.0562 0.0358-9e-3 0.27858-0.0263 0.31652-0.024 0.24848 0.0166 0.29926 0.11358 0.49849 0.17789 0.0775 0.0249 0.17957 0.0383 0.26096 0.045l0.11644 0.0104c0.18485-0.0191 0.70307-0.44441 0.78808-0.60673 0.0735-0.1401 0.0626-0.3218 0.0134-0.46864-0.0902-0.10609-0.34194-0.11039-0.47161-0.0972-0.10813 0.0114-0.2034 0.0459-0.3165 0.0404-0.12222-6e-3 -0.25856-0.0363-0.37739-0.065v1e-3c-0.0521-0.0593-0.0976-0.11384-0.17085-0.14452l-0.0982-0.0415c-0.0803-0.054-0.11852-0.13476-0.22935-0.18604-0.0871-0.0404-0.18537-0.0578-0.28494-0.0562zm-24.526 0.0397c-0.0679 0.0238-0.17265 0.066-0.22878 0.11233-0.0367 0.0302-0.18408 0.16106-0.21588 0.19424-0.0332 0.0345-0.0562 0.0847-0.0878 0.12111-0.0585 0.0677-0.15044 0.12314-0.20184 0.19424-0.0284 0.0391-0.0518 0.10191-0.0744 0.1457 0.0606 0.0229 0.13792 0.0636 0.18199 0.11288 0.12698-0.0694 0.21088-0.18075 0.32351-0.26679 0.0367-0.028 0.0884-0.05 0.12112-0.0808 0.0613-0.0575 0.0999-0.14724 0.16793-0.20067 0.0769-0.0603 0.1568-0.0922 0.22291-0.17145l-0.0537-0.1293zm13.45 0.0972c-0.13127 0.0648-0.19637 0.2855-0.16148 0.42008l0.14803 0.0731 0.15501-0.0326 0.0878-0.12113c2e-3 -0.13751-0.02-0.17785-0.0199-0.17785l-0.0814-0.11289zm-23.503 0.90511-6e-4 5.9e-4c-1e-3 3e-3 -0.10597 0.1078-0.10824 0.11232-0.0754 0.12475-0.0553 0.28957-0.22878 0.4043l7e-3 0.16148 0.11468 0.0567c0.11379-0.0744 0.23639-0.15698 0.35748-0.21823 0.13031-0.0657 0.29255-0.0657 0.40429-0.16148l0.0271-0.11351-0.0808-0.1375c-0.14706-0.0826-0.33102-0.0629-0.49203-0.10474zm13.422 0.4043c-0.18397 0.14781-0.32128 0.15695-0.52538 0.23462-0.0405 0.0156-0.0816 0.0532-0.12114 0.0731-0.12922 0.0653-0.27717 0.085-0.40428 0.15329-0.29181 0.15677-0.1803 0.32974-0.35745 0.48502l-0.10064-0.10473c-0.0192 8e-3 -0.24874 0.22547-0.30365 0.29137-0.21295 0.25562-0.45364 0.4966-0.6939 0.72726l-0.02 0.17025 0.0878 0.0808v-5.9e-4c0.14754 0.0266 0.38458 0.0927 0.5184 8e-3 0.17161-0.10858 0.33933-0.36728 0.51252-0.49322 0.0737-0.0536 0.16118-0.0877 0.23577-0.1457 0.13363-0.10368 0.23739-0.23815 0.36334-0.34752 0.0692-0.06 0.14911-0.0691 0.22294-0.11352 0.3199-0.19183 0.60793-0.52974 0.76119-0.86472l-0.0271-0.1457zm-2.304 0.35631-0.14158 0.0484c-0.0417 0.0762-0.0577 0.22621-0.0205 0.30716l0.12816 0.0884c0.0788-0.0318 0.16893-0.14176 0.1954-0.22056l-0.0134-0.15973zm24.994 0.21122c-0.17158-3e-3 -0.31636 0.16875-0.60145 0.10358l-0.0878 0.1135c5e-3 0.10608 1e-3 0.21836 0.0134 0.32355 5e-3 0.0439 0.0265 0.094 0.0275 0.13749 2e-3 0.10222-0.0324 0.2382-0.0743 0.33117-0.0783 0.0546-0.15972 0.10664-0.24281 0.15387 0.0723 0.1155 0.14939 0.23682 0.25627 0.32354 0.0868 0.0703 0.18094 0.10734 0.27616 0.16148 0.0423 0.0242 0.0796 0.0569 0.12168 0.0808 0.0965 0.055 0.20764 0.0844 0.30308 0.1375 0.0415 0.0231 0.0814 0.0623 0.1211 0.0896 0.16145 0.10994 0.19272 0.13756 0.30311 0.29898 0.0536 0.0783 0.10722 0.14649 0.12811 0.24222 0.0958 0.0193 0.24969 0.0253 0.34346-8e-3 8e-3 -3e-3 0.10074-0.0648 0.11466-0.0726 0.074-0.0457 0.17737-0.098 0.22935-0.16967l0.0445-0.0972c0.0834-0.17991 0.10023-0.33919-0.038-0.49325-0.28735-0.32019-0.65225-0.26242-0.84896-0.45283-0.0282-0.0272-0.0574-0.0809-0.0808-0.11351-0.0788-0.11073-0.16065-0.22494-0.20245-0.35572-0.0498-0.1554-0.0296-0.14628-0.12111-0.28319 0.0226-0.0946 0.0799-0.21206 0.14802-0.2826l-0.0333-0.14567c-0.0346-0.0153-0.0675-0.0222-0.0994-0.0228zm-4.3278 1.4949-0.0744 0.1375 0.0744 0.11231 0.1486 0.0731 0.10824-0.0966c-0.0353-0.064-0.0702-0.12884-0.1018-0.19484zm1.0923 0.45343c-0.0634 2e-3 -0.1188 0.0139-0.15561 0.041l-0.0335 0.1457 0.0808 0.1135c0.12667 0.0633 0.34921 0.0954 0.42417 0.21824h0.16848l0.12169-0.0731c0.0358-0.073 0.0376-0.21191 0-0.28494l-0.10823-0.0708s-0.29096-0.0963-0.49789-0.0895zm-11.141 0.014c-0.0394 1.7e-4 -0.0775 3e-3 -0.11287 9e-3 -7e-3 0.0135-0.0661 0.1307-0.0672 0.13749-0.0167 0.0823 0.0529 0.51234 0.0942 0.59035 0.0651-0.0809 0.14159-0.10858 0.22233-0.16441 0.0608-0.0421 0.24582-0.25124 0.27616-0.30423l-7e-3 -0.16207c-0.10744-0.0714-0.26523-0.10655-0.40607-0.10586zm12.555 0.57689c-0.0821 0.0104-0.19718 0.0847-0.24282 0.15271-0.0272 0.13215-0.016 0.32981 0.0878 0.42945 0.041 0.0393 0.12608 0.0796 0.17728 0.10473 0.0894 0.044 0.1846 0.0741 0.28727 0.065l0.0474-0.12928c-8e-3 -0.13362-0.0697-0.1617-0.10768-0.25862-0.0262-0.0671-0.0369-0.22472-0.0404-0.29956-0.0362-0.0314-0.16358-0.0563-0.20885-0.0643z" fill="#c60c31" stroke="#c60c31" stroke-miterlimit="3.9773" stroke-width=".19471"/>
   <rect transform="matrix(1.1322 0 0 1.1322 -564.74 -40.844)" x="730.68" y="148.35" width="168.01" height="17.47" clip-path="url(#clipPath18041)" filter="url(#filter18197)" opacity=".35256" style="mix-blend-mode:normal"/>
  </g>
 </g>
</svg>
