<?xml version="1.0" encoding="UTF-8"?>
<!-- Created with Inkscape (http://www.inkscape.org/) -->
<svg width="1920" height="1080" version="1.1" viewBox="0 0 508 285.75" xmlns="http://www.w3.org/2000/svg">
 <g transform="matrix(.99078 0 0 .99078 2.3069 -5.8808)">
  <g transform="matrix(1.4418,0,0,1.4418,-109.89,-52.678)" fill="#fff" stroke-width=".36703" aria-label="전 쟁">
   <path d="m260 129.36v-12.34h-4.3552v-9.8981h4.3552v-10.426h12.34v32.664zm-19.664-9.7662q-2.6395 2.6395-6.0708 4.0912-3.3654 1.3857-7.0607 1.3857l-1.9796-9.8981q3.3654 0 5.6089-1.8477 2.3096-1.9136 3.0354-6.2028h-7.6546v-9.8981h28.111v9.8981h-7.5886q0.72586 4.2892 2.9694 6.2028 2.3096 1.8477 5.6749 1.8477l-1.9796 9.8981q-3.6953 0-7.1266-1.3857-3.3654-1.4517-5.9389-4.0912zm-0.39593 17.355h32.466v9.8981h-44.872v-18.806h12.406z"/>
   <path d="m263.53 152.99h11.086v28.375h-11.086v-9.2382h-1.9796v9.2382h-11.02v-28.375h11.02v9.2382h1.9796zm-26.065 23.162q-1.9136 2.3096-4.4212 3.4973-2.4415 1.1878-5.411 1.7157l-2.6395-8.5784q2.2436-0.79185 3.5633-1.7817 1.3198-1.0558 2.0456-2.9034 0.72586-1.9136 1.0558-5.213h-6.0049l0.13197-9.2382h22.766l-0.13198 9.2382h-5.213q0.32994 3.2994 1.0558 5.213 0.72586 1.8476 2.0456 2.9034 1.3198 0.98981 3.5633 1.7817l-2.6395 8.5784q-2.9694-0.5279-5.411-1.7157-2.4415-1.1878-4.3552-3.4973zm26.791 6.6647q4.4872 0 7.3906 2.9034 2.9694 2.8375 2.9694 7.2586 0 4.4212-2.9694 7.3246-2.9035 2.8375-7.3906 2.8375h-24.151q-4.4872 0-7.4566-2.8375-2.9034-2.9034-2.9034-7.3246t2.9034-7.2586q2.9694-2.9034 7.4566-2.9034zm-3.2994 11.416q0.52789 0 0.85784-0.32994 0.39592-0.39593 0.39592-0.92383t-0.39592-0.85783q-0.32995-0.39593-0.85784-0.39593h-17.553q-0.5279 0-0.92382 0.39593-0.32994 0.32993-0.32994 0.85783t0.32994 0.92383q0.39592 0.32994 0.92382 0.32994z"/>
  </g>
  <text transform="scale(.26458)" fill="#ffffff" font-family="Arial" font-size="13.333px" letter-spacing="33.13px" word-spacing="0px" style="font-variant-caps:normal;font-variant-ligatures:normal;font-variant-numeric:normal;line-height:1.25;shape-inside:url(#rect102998);white-space:pre" xml:space="preserve"/>
 </g>
</svg>
