<?xml version="1.0" encoding="UTF-8"?>
<!-- Created with Inkscape (http://www.inkscape.org/) -->
<svg width="1920" height="1080" version="1.1" viewBox="0 0 508 285.75" xmlns="http://www.w3.org/2000/svg">
 <path d="m256.36 175.04s10.68-10.68 21.592-4.6435c10.912 6.0366 27.165 3.947 34.362 0 7.1974-3.947 16.484-7.4296 26.468-2.0896 9.9836 5.34 16.02 5.34 27.165-0.69653 11.144-6.0366 11.609-9.5192 23.682-3.7148 12.073 5.8044 17.878 8.3583 29.022 2.3218 11.144-6.0366 16.252-11.377 25.539-6.2687 9.287 5.1079 35.755 3.2504 37.612 1.8574s-15.324-216.39-15.324-216.39-226.6 13.931-227.07 20.431c-0.46435 6.5009 16.949 209.19 16.949 209.19z" fill="#fff"/>
</svg>
