<?xml version="1.0" encoding="UTF-8"?>
<!-- Created with Inkscape (http://www.inkscape.org/) -->
<svg width="1920" height="1080" version="1.1" viewBox="0 0 508 285.75" xmlns="http://www.w3.org/2000/svg" xmlns:xlink="http://www.w3.org/1999/xlink">
 <g>
  <path d="m271.84 181.29c7.1094-3.5547 12.535-7.2965 20.954-4.303s12.535 5.2385 20.58 1.1225c8.0448-4.116 14.032-5.0514 23.76-1.1225 9.7286 3.9289 16.09 2.2451 24.134-1.3096 8.0448-3.5547 10.664-5.0514 20.393-0.93544 9.7286 4.116 16.838 2.058 26.192-2.6192 9.3544-4.6772 17.399-5.0514 23.947-0.74836 6.5481 4.303 24.322 2.6192 31.805-2.6192 7.4836-5.2385 3.3676-176.24 1.8709-176.24-1.4967 0-221.14-6.7352-221.51-4.4901s27.876 193.26 27.876 193.26z" fill="#fff"/>
 </g>
</svg>
