<?xml version="1.0" encoding="UTF-8"?>
<!-- Created with Inkscape (http://www.inkscape.org/) -->
<svg width="1920" height="1080" version="1.1" viewBox="0 0 508 285.75" xmlns="http://www.w3.org/2000/svg">
 <path d="m261.2 125.59c1.1492-0.49252 10.343-5.9102 20.357-1.3134 10.015 4.5968 14.776 4.4327 21.178 0.49252 6.4028-3.9402 11.82-5.5819 19.537-1.4776 7.7162 4.1043 14.283 2.9551 18.387 0.65669s11.82-10.507 21.178-7.0594c9.3578 3.4476 18.059 2.7909 23.148-2.4626 5.0893-5.2535 10.015-8.0445 19.208-3.776 9.1937 4.2685 19.865 3.4476 23.477-1.3134 3.6118-4.761 8.3728-11.492 19.865-5.746s20.85 1.6417 24.954-2.4626c4.1043-4.1043 7.8803-115.25 2.2984-115.25-5.5819 0-217.36-0.32835-216.38 3.2835 0.98504 3.6118 2.7909 136.43 2.7909 136.43z" fill="#fff"/>
</svg>
