<?xml version="1.0" encoding="UTF-8"?>
<!-- Created with Inkscape (http://www.inkscape.org/) -->
<svg width="1920" height="1080" version="1.1" viewBox="0 0 508 285.75" xmlns="http://www.w3.org/2000/svg">
 <path d="m235.66 173.9c7.1974-0.69653 22.289-15.091 32.737-9.7514 10.448 5.34 13.931 11.377 26.004 6.7331 12.073-4.6435 17.645-12.77 28.79-7.4296 11.144 5.34 16.717 9.287 25.771 5.1079 9.0548-4.1792 20.431-14.859 32.737-9.287 12.305 5.5722 19.271 7.6618 28.325 2.7861 9.0548-4.8757 17.181-9.287 29.486-2.7861 12.305 6.5009 69.42 1.8574 69.42 1.8574s-17.645-190.38-20.431-190.38c-2.7861 0-265.14 0.9287-264.68 8.3583 0.46435 7.4296 11.841 194.8 11.841 194.8z" fill="#fff"/>
</svg>
