<?xml version="1.0" encoding="UTF-8"?>
<!-- Created with Inkscape (http://www.inkscape.org/) -->
<svg width="1920" height="1080" version="1.1" viewBox="0 0 508 285.75" xmlns="http://www.w3.org/2000/svg">
 <path d="m428.62 37.847c-2.5603 1.0234-5.0493 2.3362-7.4222 3.6423-7.217 3.9726-13.152 11.06-14.022 19.593-0.53347 5.2368-0.0769 10.52 0.68295 15.699-0.26957 3.634-3.7327 5.6326-6.5393 7.265-2.9049 2.5548-5.2302 6.07-9.1313 7.2003-4.5083 2.2993-8.8599 5.8399-14.372 5.2359-6.164-0.67552-12.115-3.0956-18.294-3.2437-3.7341-0.0894-7.6093 1.2872-11.227-0.51999-3.557-1.7766-7.6424-2.1194-11.511-1.1151-3.3754 0.87637-6.4463 2.8788-9.9332 3.2702-5.0052-0.22048-9.6684-2.7173-14.735-2.4093-6.7108-0.45361-13.804 0.33589-19.623 3.9509-4.6245 1.1927-8.2349-2.6026-12.559-3.5464-5.5547-1.2126-11.213 0.28643-16.478 1.9957-6.8086 0.72442-13.723-3.1789-20.362-0.52925-3.3733 1.3462-6.5864 3.4567-10.471 3.1986-4.9669-0.33011-9.6105 1.8232-13.738 4.4015-3.9691 2.4792-7.5787 5.4709-11.345 8.2357 2.2016-1.393-1.7138 1.1083-2.362 1.545-3.9516 2.6626-7.942 5.6979-10.127 10.053-3.3101 1.711-5.6107 5.1222-5.9824 8.8227-2.1751 7.3378-8.7019 11.926-13.963 16.975-3.8294 3.6752-6.56 8.4466-7.7608 13.611-2.3149 5.112-7.8014 5.2596-11.994 9.9899-3.0262 3.4145-8.3703 6.1515-12.303 8.4414-4.1892 2.4392-2.0237 7.8212-2.1228 12.936-0.0827 4.2687-4.0228 7.4435-4.4813 11.972-0.52167 5.1526-6.5799 7.9706-9.4768 12.15 1.1172 0.33435 2.1693 0.80654 3.1732 1.1833 1.4767 0.55332 3.4397 1.9183 4.6754 2.9224 1.8816 1.5268 3.5339 3.9882 6.0887 4.2652 2.3747-1.2589 4.426-3.6128 7.3066-3.6816 0.83284-0.0157 1.6853 0.0769 2.5307 0.0578 0.51456-0.89838 1.1738-1.8254 1.5092-2.8057 0.29327-0.83858 0.33153-1.8949 0.68641-2.6878 1.1232-2.0653 2.0803-2.4835 3.0611-2.9617 0.80971-0.35883 1.8499-0.65557 2.734-0.55119 0.62466 1.4748-0.86959 4.5132-1.4133 5.9616 0.89454 3.4482-0.72038 5.1974-0.4888 7.3043 0.11591 0.829 1.5553 2.7832 2.2406 3.2737 0.95056 5.4926-5.8407 12.028-1.2327 14.943 4.2665-11.137 7.5172-11.082 9.1442-13.785 3.6471-6.0602 6.4446-7.3728 9.2267-12.765 1.3575-2.6314 1.9523-5.5319 2.0996-8.4437 0.9049-3.1154 4.2493-4.201 6.8641-5.5918 3.5895-1.9092 5.8039-5.4471 8.1779-8.5847 3.5083-3.2532 6.9626-6.5779 9.5588-10.686 2.0805-3.2916 3.1228-7.1424 5.0995-10.459 2.8836-2.9892 7.4842-3.681 9.7102-7.6267 4.5063-7.9877 7.6997-17.255 15.323-22.976 3.0991-2.3258 6.8953-3.5857 10.729-3.8896 3.5048-1.0853 7.1302-3.3257 10.889-1.9333 4.2999 0.533 8.7427 0.51866 12.96-0.39866 3.5755-0.77783 7.3152-1.0789 10.924 0.15942 5.9862 2.0543 12.109 4.9318 18.702 3.6851 3.338-0.63125 6.5616-2.0993 9.0504-4.4385 5.8121-1.1654 11.685 0.85644 17.502 0.62631 3.4399-0.1362 6.9093-3.1837 10.239-1.3578 3.1191 1.7102 6.0327 3.8105 9.6929 4.516 4.829 0.93076 9.8802-0.0789 14.253-2.2302 3.261-0.49985 6.7442-1.6622 9.9413-0.25077 5.8447 0.21959 11.558 1.8685 17.413 1.7553 5.2318-0.10107 10.586-1.3526 14.913-4.4004 8.904-2.6504 16.543-8.2291 23.571-14.061 4.3415-3.6022 8.4321-7.4591 12.529-11.353 5.3185-5.0559 8.814-11.854 10.633-18.848 0.6749-2.5945 1.2907-5.222 1.7438-7.8717-0.26583-0.51631-0.5306-1.0301-0.78813-1.5531-0.8945-1.8218-0.85795-4.0009-1.8489-5.7848-0.33144-0.59958-0.93109-0.98279-1.2665-1.5785-0.33146-0.58603-0.57474-1.1564-0.93139-1.7542-0.6497-1.1143-0.66116-2.6566-1.2665-3.8584-0.7596-1.5056-2.0959-2.6562-2.7757-4.2074-3.291-4.9047-2.9674-5.5804-3.7406-7.8567-0.31161-0.75001-0.54491-1.1061-0.58815-1.6941-0.33144-0.78849-0.43912-2.365-0.39291-3.2148 0-0.78663 0.11591-1.7466 0.29351-2.5133 0.19275-0.88298 0.62467-1.7752 0.68643-2.6878 0.11567-2.0022-2.0019-3.7069-3.2634-4.9678-1.041-1.043-1.0418-1.2416-2.3377-2.1043-0.29327-0.19276-0.62489-0.49544-0.93143-0.64365-0.32235-0.15548-0.63574-0.306-0.95675-0.416z" fill="#1a1a1a" opacity=".53205"/>
 <g fill="none" stroke-linejoin="round">
  <path d="m157.3 212.49c-0.20128-1.7643 0.0942-3.4601 0.54645-4.9888 0 0 0.30149-2.509 0.30492-3.0994 8e-3 -1.3832-0.35717-3.4044-0.16531-4.7096 0.0771-0.4865 0.97402-2.1492 0.86096-2.6173-0.5593-2.3137-1.1056-4.59-2.0607-6.7842l0.48307-1.4007s1.4309-0.32119 1.79-0.26038c0.50791 0.0865 1.1168 0.35203 1.6144 0.50963 2.0901-0.16874 3.8219-1.7908 5.8474-2.2694 0.0599-0.0171 2.1162-0.24925 2.1724-0.24925 1.3142 0.0171 2.5814 0.56787 3.8921 0.0428 1.1913-0.71775 1.7163-2.1927 2.5224-3.2484 0.64837-0.84879 1.4738-1.7522 2.209-2.5294 3.0086-3.176 6.8517-5.4854 8.8449-9.4873 0.16274-0.32547 0.48221-0.83681 0.60041-1.199 0.24925-0.76829 0.74002-3.6181 0.93051-4.212 0.2758-0.8565 0.50534-1.9004 0.87158-2.7108 0.61583-1.3621 1.8012-2.7382 2.9841-3.6413 0.36316-0.27665 3.3834-2.079 4.3449-2.8176 1.1005-0.84708 2.1042-1.9251 3.2371-2.7171 0 0 4.0988-1.8519 4.8094-2.3847 0.24924-0.18672 0.73317-1.4836 0.73317-1.4836-0.50448-0.7443-1.7844-2.2617-1.6607-3.1205 0.36144-2.4999 0.56272-5.5199 2.372-7.4927l1.2201-0.45994c0.87852-1.7163 4.3884-4.1558 4.7883-5.1242l0.7974-1.9363c1.3894-0.66807 2.5407-1.5848 3.7059-2.5737l0.96426-0.81882c0.63039-0.39742 1.5152-0.58842 2.112-1.0184 1.0331-0.74687 2.0481-1.8238 3.0067-2.6784 0.0514-0.0428 2.2328-0.78713 2.6018-1.0908 0.56187-0.4608 0.91997-1.348 1.4759-1.8216 0.49849-0.42226 5.1832-3.6476 6.5298-3.9112 0.84023-0.16445 1.9398 0.72631 2.7114 0.92348 0 0 1.7592 0.20214 2.0206 0.16702 0.78628-0.10963 5.2739-1.6263 6.5116-2.1239 1.4661-0.59099 2.9251-1.6952 4.257-2.5343 0.27579-0.17301 0.6852-0.29292 0.98669-0.42054 1.0078 0.191 2.0529 0.45481 3.0671 0.57386 1.0268 0.12077 2.7698 0.2047 2.9286 0.29978 0.92913 0.55758 1.6277 1.8477 2.8134 1.9798 0.84966 0.0959 1.9503-0.77599 2.637-0.67493 1.0437 0.15503 1.8209 0.75287 2.9708 0.48307 0.4274-0.48307 1.3515-1.3754 2.0016-1.5666 0.72032 0.24839 3.6279 0.19957 4.4045-0.23725 0.8034-0.45223 1.7304-1.1055 2.573-1.4499 0.22098-0.0899 1.802-0.33661 1.802-0.33661 1.4191-0.16616 4.1206 0.77942 5.2437 1.5328 0.77429 0.51905 2.0382 2.0107 2.9982 2.0368 0.64581-0.11735 1.3431-0.26723 1.9546-0.51476 1.2314 0.38799 2.7677 0.79569 3.8971 1.3944 0.73917 0.39228 3.3342 2.0649 3.902 2.3523 1.2434 0.23982 2.6953-1.5462 3.5745-2.1415 0.25866-0.17472 7.289-3.9786 9.6574-4.5781l1.2398-0.31348c0.71947 8e-3 1.8113 0.37087 2.5366 0.5199l2.0339 1.8645c2.1815 0.36658 4.5528-0.0257 6.65-0.68007 0.0428 0.0257 2.4887 0.61069 3.5338 0.84966 1.7395 0.39742 1.5975 0.35373 3.06-0.72032 0.51819-0.38029 1.0373-0.77514 1.5216-1.1976 0.65951 0.15074 1.5336 0.45823 2.1949 0.50448 0.14389 8e-3 1.2228-0.23982 1.4632-0.25438 0.95167-0.06 5.5473 0.39142 6.5123 0.23211 1.3909-0.22869 2.2413-1.0437 3.1346-2.008l1.3234-0.31006 1.0788 0.59784 1.2594 2.9779c1.0402 0.54045 2.003 1.506 2.7318 2.407 0.43082 0.53446 0.70062 1.3403 1.3636 1.6552l0.67407 0.0771c0.77086-0.40085 2.3053-1.3634 3.0714-1.5988 0.93616-0.28779 2.1892-0.0882 3.1591-0.31605l1.4337-0.75801c0.46251-0.78285 0.92777-1.7831 1.4759-2.4958 0.0171-0.0257 1.5589-0.4471 1.6138-0.43168 1.0634 0.30748 6.4468 1.6832 7.246 2.0198 0.43768 0.18586 0.8715 0.59441 1.315 0.74345 0.0428 0.0171 1.6234 0.25866 1.674 0.25866 0.91158 0 2.5491-0.74173 3.131-0.7246 1.277 0.0343 2.5829 0.91654 3.6617 1.0795 0.64581 0.0976 1.5103-0.1516 2.1815-0.12848 0.59356 0.0257 1.2749 0.18501 1.8667 0.27151 0.0428 7e-3 1.6812 0.81968 2.315 1.0177 0.0343 8e-3 1.2496 0.15161 1.2974 0.14989 0.71775-0.0257 4.5977-0.53703 5.2057-0.764 0.06-0.0257 1.8632-0.9467 1.885-0.96288 1.1569-0.89531 2.2679-2.0901 3.3496-3.0881 0.0171-0.0171 0.94816-0.32975 1.0331-0.35887 1.18 0.5139 2.4753 0.0771 3.5977 0.53189 1.3003-0.31691 1.5209-1.2741 2.3685-1.9868 0.55244-0.46423 1.3445-0.72803 1.9004-1.19 0.47022-0.39142 1.7964-1.7753 2.1078-2.3692 1.9236-0.48307 2.4451-0.98884 3.7039-2.3896 0.0171-0.0257 2.5343-1.2524 2.6348-1.329 0.0514-0.0428 0.78284-1.0577 0.98541-1.3719 0.50534-0.78028 1.1266-1.7767 1.7303-2.4746 0.63039-0.72803 2.4205-1.3571 3.098-1.9088 0.6972-0.56958 6.3106-5.6472 6.6191-6.1208l0.76058-1.5785c0.87929-1.8224 1.7458-3.6504 2.618-5.477 0.0865-0.18072 0.29893-0.41027 0.42141-0.57472l-0.26895-1.5969c-0.35202-2.0943 0.81368-3.2062 1.5455-5.0103 0.35203-0.86661-0.0599-3.5872-0.11134-4.2113-0.0343-0.45309-0.60213-3.9751-0.68093-5.2409-0.13704-2.1823 0.21841-4.361 0.0171-6.5742 0.41541-1.3522 2.4872-1.9755 3.5352-2.6615 0.43596-0.28522 0.79655-0.74088 1.2236-1.0395 0.80683-0.56358 2.9919-1.8892 3.8571-2.3727" stroke="#fff" stroke-width="4.2825"/>
  <path d="m76.551 875.21" stroke="#0978ab" stroke-miterlimit="3.8637" stroke-width=".99609"/>
  <path transform="matrix(8.5651 0 0 8.5651 -1014.7 -1157.8)" d="m137 159.97c0.0727 0.17216-0.1011 0.52688-0.16502 0.69592 0.10438 0.40264-0.0842 0.60697-0.0568 0.85297 0.0108 0.0968 0.18175 0.32486 0.26159 0.38213 0.20834 0.46543-0.44958 1.2965-0.26725 1.6581 0.038 0.0754 0.4787 0.42472 0.56856 0.47074 0.23912 0.12268 0.74195 0.32208 0.74491 0.64136l-0.0738 0.0955-0.1194-7e-3c-0.30196-0.32314-1.3995-0.52295-1.5751-0.94849-0.12628-0.30598-6e-3 -0.52992 0.0852-0.81202 0.0267-0.0827 0.0833-0.51261 0.0796-0.60049-5e-3 -0.12235-0.0632-0.23066-0.091-0.34792-0.0484-0.2035-0.12154-0.40191-0.34694-0.47084-0.0903 0.19743-0.61583 0.29992-0.81309 0.27974-0.13039-0.0133-0.25323-0.0647-0.37516-0.10922-0.15484 0.0726-0.40274-0.0696-0.55724-0.10914-0.14147-0.0363-0.28901-0.0272-0.43227-7e-3 0.0384 0.15107 0.0495 0.64964 0.0228 0.80514-0.0164 0.095-0.0538 0.18914-0.0342 0.28662 0.0162 0.08 0.0645 0.14884 0.091 0.22516 0.0665 0.19185 0.1422 0.58104 0.0626 0.771 0.18422 0.19094 0.0695 0.48946 0.18766 0.70954 0.0559 0.10429 0.15862 0.17002 0.23313 0.25929 0.0706 0.0846 0.11569 0.19062 0.20473 0.2593l0.0227 0.12284 0.0568 0.0478c0.11668-0.039 0.21876-0.11118 0.33552-0.15008l0.11373 0.0478c3e-3 0.0814-0.0311 0.1884-0.091 0.2456 0.14655 0.1129 0.34635 0.0758 0.51178 0.0341l0.0851 0.0887c0.0445 0.40289 0.3 0.30139 0.59138 0.45713l0.0456 0.10923-0.0286 0.12283-0.091 0.0819-0.0285 0.12283c0.0595 0.0538 0.11177 0.11571 0.15353 0.18422l-0.0341 0.12966c0.0232 0.0738 0.0598 0.14408 0.10806 0.20472-0.0189 0.18168-0.18725 0.32215-0.16493 0.51171 0.0188 0.15951 0.33594 0.37113 0.39223 0.70961-0.0243 0.0229-0.0472 0.0482-0.0738 0.0683-0.15221 0.11495-0.74868-0.1505-0.87004-0.0137-0.0278 0.0313-0.0495 0.0684-0.0738 0.10233 0.0267 0.33142 0.33258 0.52343 0.47766 0.7915 0.21416 0.39609-0.0267 0.65096 0.27284 0.92806 0.26495 0.24502 0.68582 0.10733 0.8359 0.23887 0.0591 0.0519 0.071 0.1394 0.13079 0.19102 0.22772 0.19669 0.59278 0.0151 0.6823 0.0478 9.9246 17.825 67.713-4.3991 42.424-9.4288-0.15278-0.15287-0.34701-0.46854-0.50037-0.65505-0.0756-0.0919-0.17765-0.15779-0.25019-0.25241-0.0941-0.12259-0.15049-0.27045-0.25019-0.38894-0.13391-0.15911-0.34579-0.12563-0.48339-0.26611-0.0952-0.0972-0.3823-0.76878-0.4605-0.93478-0.12202-0.25881-0.3937-0.40634-0.56873-0.61411-0.19981-0.23722-0.28088-0.55797-0.41512-0.83254-0.14901-0.30476-0.38124-0.60524-0.60845-0.85297-0.12423-0.13547-0.14999-0.27603-0.23321-0.40938-0.0204-0.0328-0.0553-0.0525-0.0797-0.0819-0.0262-0.0316-0.0437-0.0694-0.0683-0.10232-0.1189-0.1596-0.30574-0.26972-0.42078-0.423-0.11808-0.15747-0.22467-0.31821-0.35252-0.47084-0.13013-0.15558-0.11488-0.38985-0.23311-0.53911-0.26389-0.33322-0.68608-0.52934-0.89269-0.92797-0.23599-0.45525-0.15148-0.74302-0.23878-1.2078-0.18619-0.11857-0.38772-0.34972-0.38099-0.58679 5e-3 -0.15729 0.0396-0.21482-0.0398-0.37524-0.0522-0.10544-0.14328-0.18667-0.19325-0.29343-0.15673-0.33364-0.42981-0.68566-0.5117-1.0508-0.0404-0.1797-0.11078-0.54075-0.19333-0.69599-0.036-0.0678-0.0937-0.11874-0.14203-0.17733-0.0764-0.0923-0.11735-0.20793-0.19333-0.30024-0.11783-0.14286-0.25019-0.30877-0.31838-0.48446-0.0733-0.18881-0.0524-0.3937-0.15352-0.58678-0.0155-0.0295-0.35727-0.59245-0.35826-0.5936-0.15254-0.18643-0.28818-0.35415-0.39806-0.57316-0.11536-0.23017-0.10461-0.46492-0.17624-0.70272-0.034-0.11283-0.14328-0.18857-0.19325-0.29344-0.10085-0.21137-0.2145-0.41635-0.31846-0.62773-0.10454-0.21268-0.10076-0.46723-0.21605-0.67539-0.0387-0.0699-0.1093-0.11473-0.14787-0.18422-0.0379-0.0685-0.0673-0.13499-0.10799-0.20473-0.076-0.13015-0.0771-0.31009-0.14794-0.45041-0.0888-0.17585-0.24461-0.31017-0.32404-0.49127-0.0469-0.10684-0.38517-0.83032-0.42825-0.87431l-0.0325-0.0468" stroke="#fff" stroke-width=".19998"/>
 </g>
 <g transform="matrix(8.5651 0 0 8.5651 -1014.7 -1157.8)" clip-rule="evenodd" fill="none" fill-rule="evenodd" stroke="#fff" stroke-linejoin="round" stroke-width=".19998">
  <path d="m169.42 141.77-0.0325-0.0467c0.0189-0.0875-0.0396-0.12915-0.0683-0.19791-0.0383-0.092-0.0516-0.27604-0.0454-0.37525 6e-3 -0.0918 0.0155-0.20382 0.0341-0.29343 0.0215-0.10306 0.0732-0.20727 0.0796-0.31386 0.0143-0.23378-0.23378-0.43276-0.38099-0.57998-0.12185-0.12185-0.12136-0.14507-0.27292-0.24567-0.0337-0.0223-0.0724-0.058-0.10807-0.0751-0.0908-0.0436-0.1806-0.0542-0.26726-0.11602"/>
  <path d="m133.19 160.42c0.23624 0.16092 0.2135 0.0894 0.47978 0.18936 0.17231 0.0646 0.40141 0.22393 0.54583 0.34119 0.21975 0.17839 0.41258 0.46575 0.71077 0.49808 0.27726-0.14704 0.51679-0.42185 0.85298-0.42989 0.0978-2e-3 0.19701 9e-3 0.29564 7e-3 0.0599-0.10495 0.13678-0.21327 0.17625-0.32757 0.0339-0.0977 0.0378-0.22122 0.0796-0.31386 0.0593-0.1317 0.35643-0.41956 0.69279-0.4415"/>
 </g>
</svg>
