<?xml version="1.0" encoding="UTF-8"?>
<!-- Created with Inkscape (http://www.inkscape.org/) -->
<svg width="1920" height="1080" version="1.1" viewBox="0 0 508 285.75" xmlns="http://www.w3.org/2000/svg">
 <path transform="scale(.26458)" d="m-36-36v705.61c3.0897 2.4015 6.2376 4.7301 6.4668 5.0566 1.5739 2.266 1.3469 4.1013 4.2109 5.9668h4.584c6.5066-4.5759 21.747-7.3058 29.084-3.9707 1.2526 0.58235 2.2664 1.837 3.5195 2.4336 2.3172 1.1363 6.368 2.8044 8.832 3.5332 7.0606 2.0762 18.123 0.76714 22.09 8.3945-0.65584 3.3954-2.2237 6.4698-2.9668 9.7188-1.7573 8.1617-0.43581 16.657 7.4863 20.541 2.6814 1.3259 7.3596 1.5382 9.998-0.2168l4.584 0.88867c0.58231 2.6813-7.05e-4 5.6021 0.74219 8.1719 1.8068 8.7451 10.349 14.871 15.83 21.207 3.0604 3.5483 6.3826 12.253 8.4668 16.787 2.4553 1.684 5.3931 2.7396 7.7363 4.4082 7.8279 5.5887 10.228 18.324 13.617 26.727 12.008 7.0679 14.04-0.73401 26.32 1.7715 11.072 2.2586 11.074 8.2131 18.41 10.602 1.85-2.113 2.3606-5.5014 1.8496-8.1738-0.43698-2.4702-2.1274-4.7366-2.9648-7.0684-1.7572-5.1515-0.58405-11.311-2.5957-16.121 0-0.36321-1.7566-2.7914-2.0391-3.0976-5.3118-6.6233-17.512-7.8558-20.062-14.357v-4.1973c2.6886-5.902 15.178-11.404 21.354-9.498l2.7774 2.6602-2.7774 2.4316 0.4375 3.5352c3.9346 2.8565 8.5684 4.7077 12.15 8.1738 7.333 7.1042 8.4777 26.947 16.568 29.818 10.157-2.6377 7.864-13.349 16.381-17.227l3.6582 1.332c0.65584 3.9493 2.1279 8.008 2.5938 11.926 1.298 11.465-1.3892 24.12-0.93164 35.783l2.0391 3.0977 4.2109 1.9961c13.248-5.0275 13.736 8.3608 23.012 13.031 3.1477 8.7117-5.8953 17.428-0.92579 26.287 3.3806 1.9169 19.901 6.1357 24.482 7.0684 2.3607 0.51137 5.6236 0.21717 7.9102-0.43945 2.6378-2.0481 3.0532-5.398 3.709-8.3926 0.92528-4.3792 1.5753-9.6526 1.4805-14.137 0-2.6304-1.3422-5.3555-1.6699-7.9531 0-1.3196 0.43697-2.9222 0-4.1973-1.712-8.8959-13.701-24.167-9.5723-33.133 3.9783-2.1129 8.0223-1.6887 12.146-2.8691 5.0422-1.4359 8.8056-5.8805 13.443-7.5098 1.2527-0.43853 3.0087-0.21805 4.2109-0.65625 1.8069-0.72846 3.8838-2.4776 5.7637-3.3887 5.9894-2.8708 10.395-2.8346 16.686-3.8984 1.8499 1.2031 3.8852 4.0672 4.4023 6.1875 2.2223 1.5955 6.3159 2.7178 9.0156 2.6524 8.5083-0.2177 37.893-16.888 45.285-22.531 0.92519-0.72851 1.808-2.0763 2.7774-2.6524 1.9447-1.1664 19.562-9.0051 21.533-9.5 2.6886-0.65578 5.6546-0.58183 8.2871-1.332 6.7108-1.9166 10.632-3.5336 17.85-1.332 5.3337 3.3371 6.6596 18.773 16.201 25.402 6.944 4.831 15.956 7.1634 22.641 12.592 3.8474 3.104 6.1556 8.4358 10.307 11.264 7.6478 5.2098 18.624 6.9296 27.242 10.164 5.5814 2.0913 12.999 7.25 17.67 11.045 7.1117 5.7707 13.356 15.078 23.012 16.125 8.9754-4.7581 16.728-13.658 27.615-13.918 3.1477-0.0586 6.3693 0.29169 9.5644 0.21875 1.9448-3.3954 4.4374-6.9002 5.7051-10.605 1.1084-3.1694 1.2525-7.1632 2.5938-10.16 1.9016-4.2625 6.9072-8.9596 11.049-11.045 2.1279-5.654 5.6759-15.056 7.3926-20.834 0 0 1.1582-9.4839 1.1582-11.713 0-5.2242-1.3474-12.871-0.58203-17.801 0.43718-1.85 3.7007-8.1216 3.2344-9.8906-2.128-8.7453-4.1682-17.35-7.791-25.643l1.8066-5.2891s5.4141-1.2173 6.7695-0.98437c1.9015 0.36321 4.211 1.3332 6.1055 1.9238 7.8969-0.65586 14.443-6.7689 22.1-8.5781 0-0.059 7.9982-0.93945 8.2109-0.93945 4.9693 0.0593 9.7541 2.1401 14.711 0.21679 4.4958-2.7104 6.4769-8.2883 9.5312-12.275 2.4555-3.2061 5.5687-6.6237 8.3477-9.5586 11.373-12.003 25.898-20.732 33.43-35.857 0.58318-1.2246 1.8063-3.1634 2.2656-4.5332 0.96862-2.9001 2.82-13.678 3.5195-15.92 1.0128-3.2424 1.9012-7.183 3.293-10.246 2.3172-5.1442 6.8072-10.351 11.277-13.762 1.3908-1.0418 12.788-7.8589 16.422-10.65 4.1676-3.1987 7.9496-7.2794 12.236-10.27 0 0 15.488-6.9941 18.178-9.0117 0.92519-0.72847 2.7754-5.6113 2.7754-5.6113-1.9016-2.8125-6.747-8.5487-6.2734-11.797 1.3476-9.4462 2.1275-20.862 8.9609-28.318l4.627-1.7422c3.33-6.4848 16.591-15.707 18.096-19.369l3.0098-7.3184c5.2461-2.5285 9.5997-5.9894 14.006-9.7266l3.6582-3.0957c2.4048-1.5007 5.7203-2.2224 7.9805-3.8398 3.8837-2.8199 7.7409-6.8931 11.365-10.123 0-0.21808 8.4378-2.9736 9.8359-4.125 2.1281-1.7421 3.4691-5.0936 5.582-6.8789 1.9016-1.5956 19.589-13.788 24.676-14.787 3.1988-0.65583 7.3326 2.7397 10.244 3.4902 0 0 6.6589 0.76529 7.6426 0.65625 2.9657-0.4385 19.934-6.1508 24.613-8.0312 5.5376-2.2298 11.053-6.4042 16.086-9.5781 1.0196-0.65583 2.5934-1.108 3.752-1.5801 3.7962 0.72854 7.7637 1.7191 11.596 2.1699 3.8836 0.4385 10.467 0.77251 11.072 1.1211 3.5194 2.1066 6.1494 6.9808 10.633 7.4844 3.1987 0.36321 7.3704-2.9354 9.9629-2.5566 3.9346 0.58235 6.8776 2.8401 11.225 1.8203 1.6171-1.8219 5.1079-5.1951 7.5683-5.9238 2.7254 0.93309 13.712 0.75631 16.646-0.89648 3.0094-1.7056 6.5426-4.1816 9.7246-5.4785 0.7869-0.36321 6.8067-1.2832 6.8067-1.2832 5.3628-0.65582 15.572 2.9438 19.816 5.793 2.9146 1.9662 7.702 7.6014 11.336 7.6953 2.4555-0.4385 5.0708-1.0057 7.3828-1.9453 4.656 1.4725 10.463 3.009 14.73 5.2676 2.7761 1.4791 12.604 7.8013 14.742 8.8906 4.6997 0.90308 10.195-5.8431 13.514-8.0938 1.0195-0.6559 27.552-15.037 36.504-17.303l4.6835-1.1875c2.7251 0.0506 6.8351 1.3977 9.5879 1.9668l7.6836 7.0469c8.2491 1.3842 17.207-0.0589 25.133-2.5723 0 0.0593 9.4045 2.3096 13.358 3.2129 6.5723 1.5006 6.0412 1.3415 11.568-2.7246 1.9449-1.451 3.9356-2.9224 5.75-4.5254 2.4992 0.58232 5.7925 1.7268 8.2989 1.9102 0.5823 0.0507 4.6257-0.91109 5.5293-0.96094 3.6141-0.2177 20.968 1.479 24.611 0.87305 5.261-0.85973 8.4764-3.9506 11.852-7.5938l5.0059-1.1719 4.0723 2.2578 4.7597 11.254c3.9346 2.0483 7.5672 5.6897 10.322 9.0977 1.617 2.0182 2.6368 5.0642 5.1504 6.252l2.5508 0.29102c2.9145-1.5157 8.7119-5.1525 11.605-6.0488 3.563-1.0851 8.2769-0.2896 11.943-1.1934l5.4199-2.8633c1.7551-2.9581 3.5201-6.7407 5.5821-9.4336 0-0.0593 5.8935-1.6897 6.0976-1.625 4.0294 1.1664 24.372 6.3527 27.387 7.6328 1.6688 0.72858 3.2861 2.2437 4.9766 2.8047 0 0.0593 6.1349 0.97656 6.3242 0.97656 3.4247 0 9.6389-2.8039 11.838-2.7383 4.8307 0.15042 9.7617 3.4608 13.84 4.0801 2.4556 0.36321 5.7133-0.58274 8.2403-0.51172 2.266 0.0593 4.8235 0.72847 7.0605 1.0195 0 0.0265 6.3464 3.097 8.7539 3.8476 0 0.0507 4.7202 0.58203 4.9024 0.58204 2.7249-0.0593 17.377-2.0325 19.674-2.8848 0-0.0593 7.0393-3.5782 7.127-3.6367 4.3571-3.3881 8.5682-7.9004 12.66-11.672 0-0.0593 3.5628-1.2514 3.8906-1.3613 4.4375 1.9447 9.3507 0.29082 13.596 2.0117 4.9184-1.1944 5.7475-4.8162 8.9512-7.5078 2.0764-1.7572 5.0792-2.7482 7.1777-4.5039 1.8069-1.4791 6.7839-6.7188 7.9707-8.9551 7.2719-1.8284 9.2458-3.7449 14.004-9.0332 0-0.0593 9.5766-4.7359 9.9511-5.0274 0-0.21808 2.9669-3.9926 3.7539-5.1875 1.9017-2.951 4.2622-6.7177 6.543-9.3496 2.4118-2.7468 9.1475-5.1237 11.707-7.2148 2.6378-2.1431 23.853-21.343 25.02-23.133l2.8711-5.9668c3.33-6.8854 6.6088-13.798 9.8964-20.699 0.4372-0.72846 1.1581-1.5442 1.5743-2.1719l-0.9688-6.041c-1.3476-7.916 3.0602-12.115 5.8438-18.936 1.3475-3.2788-0.4375-13.557-0.4375-15.918 0-1.7054-2.2667-15.025-2.5508-19.807-0.5114-8.2513 0.8384-16.483 0-24.85 1.5739-5.1078 9.4004-7.4658 13.367-10.061 1.6169-1.0783 3.0095-2.7984 4.6269-3.9277 3.0604-2.128 11.314-7.1415 14.582-8.9668l-1.0196-1.5723c0.5823-2.8347-1.2981-4.184-2.2226-6.4062-1.2527-2.9801-1.659-8.9349-1.4844-12.146 0-2.9731 0.4362-6.6021 1.1074-9.5 0.7286-3.3372 2.3605-6.7106 2.5938-10.16 0.4372-7.5675-7.5684-14.01-12.336-18.775-3.9347-3.942-3.9342-4.6926-8.832-7.9531-1.1084-0.72854-2.3612-1.8734-3.5195-2.4336-2.9147-1.4058-5.8424-1.7487-8.6504-3.7598-2.0764-1.4856-3.7028-3.6946-5.6992-5.3047-1.1085-0.88202-2.4557-1.522-3.5196-2.4336-7.8372-6.6379-5.0271-15.979-13.062-22.971-4.022 3.1622-2.0767 8.3436-6.4414 11.486-5.2171 3.7598-12.341-0.21845-18.039 0.88086-0.7286 0.15042-6.4041 2.8357-6.9942 3.3164-0.9253 0.76572-1.7576 2.1921-2.5508 3.0957-3.0092 3.2278-6.3747 5.6621-11.049 4.6348l-3.5195-2.207-1.2989-3.5352 2.5938-3.5332c0-9.1056-9.4698-12.012-14.357-18.113-0.743-0.93973-3.9784-4.7877-4.7871-5.7422-0.8384-0.99847-1.3413-2.3103-2.2227-3.3086-1.2979-1.5739-3.7972-4.1828-5.3418-5.5234-3.0094-2.6377-7.4631-4.0356-9.7539-7.5078-1.9448-2.9801-2.5496-7.3776-4.2109-10.605-1.8068-3.3956-4.4878-6.0758-6.8047-9.0566-0.7429-0.95526-1.3908-2.4707-2.2227-3.3086-2.725-2.7544-7.6931-4.671-11.045-6.6309-2.4044-1.4143-4.4382-3.4387-6.7988-4.8594-1.2032-0.72895-6.1572-3.4979-7.3653-4.1973-2.4556-1.4058-5.6321-2.9142-8.2851-3.9707-3.381-1.3691-6.477-1.4285-9.9336-2.209-3.1479-0.72895-6.2366-2.2649-9.3906-3.0957-2.6453-0.72895-5.4289-1.1205-8.1016-1.7695-2.1715-0.51149-5.1522-0.74453-7.1777-1.5449-1.9449-0.7811-7.6426-6.1709-9.0176-7.9531-0.7428-0.99185-1.2522-2.3324-2.0391-3.3086-0.7429-0.9619-1.9459-1.6898-2.7773-2.6445-1.574-1.8866-2.6371-4.2763-4.211-6.1855-2.361-2.8417-10.666-9.8683-11.879-12.23-1.3475-4.6778-2.1265-8.8696-4.1152-13.395-4.5833-1.4791-9.6166-2.6808-13.81-5.0781-6.6433-3.7928-13-10.472-12.934-18.045zm0 731.6v12.904c1.6695-4.3512 3.4285-8.9162 1.7344-12.404zm14.906 17.283c-5.2589 0.18125-8.3273 2.112-14.607 4.4238l-0.29883-0.41602v43.244c3.2641-0.69955 24.493-12.658 27.002-14.994 1.8499-1.7119 6.6095-7.6078 7.1777-9.9394l-2.2227-1.9961c-7.6004 1.4791-10.373 8.061-20.432 4.6406l-1.4863-3.5332c1.617-4.5321 5.1589-5.8374 7.7266-9.2773 1.574-2.113 2.8701-5.3256 4.0723-7.7285l-0.74219-3.9707c-2.4394-0.37894-4.4365-0.51354-6.1895-0.45313z" fill="#c60c31" stroke-width="2.6563"/>
 <g stroke="#fff" stroke-linejoin="round">
  <g transform="matrix(8.5651 0 0 8.5651 -1014.7 -1157.8)" clip-rule="evenodd" fill="none" fill-rule="evenodd" stroke-width=".19998">
   <path d="m169.42 141.77-0.0325-0.0467c0.0189-0.0875-0.0396-0.12915-0.0683-0.19791-0.0383-0.092-0.0516-0.27604-0.0454-0.37525 6e-3 -0.0918 0.0155-0.20382 0.0341-0.29343 0.0215-0.10306 0.0732-0.20727 0.0796-0.31386 0.0143-0.23378-0.23378-0.43276-0.38099-0.57998-0.12185-0.12185-0.12136-0.14507-0.27292-0.24567-0.0337-0.0223-0.0724-0.058-0.10807-0.0751-0.0908-0.0436-0.1806-0.0542-0.26726-0.11602-0.0643-0.0459-0.11512-0.11415-0.17624-0.16379-0.0336-0.0273-0.0752-0.0472-0.10807-0.0751-0.24215-0.20505-0.15534-0.49365-0.40372-0.70962-0.12505 0.0975-0.0641 0.25775-0.19898 0.35481-0.16101 0.11595-0.38116-6e-3 -0.55725 0.0273-0.0216 4e-3 -0.19791 0.0874-0.21614 0.10241-0.0285 0.0236-0.0538 0.0677-0.0796 0.0956-0.0923 0.0997-0.19685 0.17478-0.34119 0.14327l-0.10799-0.0683-0.0398-0.10921 0.0796-0.10922c-5e-3 -0.28129-0.29252-0.37106-0.44351-0.55954-0.0233-0.0291-0.12316-0.14778-0.14786-0.17741-0.0257-0.0308-0.0425-0.0715-0.0683-0.1024-0.0406-0.0487-0.11743-0.12915-0.16493-0.1706-0.0936-0.0817-0.2305-0.1248-0.3014-0.23197-0.0608-0.092-0.0781-0.22787-0.1308-0.32756-0.0554-0.10504-0.139-0.18758-0.21038-0.27981-0.023-0.0297-0.0423-0.0764-0.0683-0.10233-0.0849-0.085-0.23779-0.14425-0.34119-0.20474-0.0744-0.0436-0.13768-0.10642-0.21031-0.15007-0.0367-0.0221-0.18995-0.10815-0.22746-0.12965-0.0763-0.0436-0.1742-0.0902-0.25585-0.12284-0.1052-0.0421-0.20029-0.0441-0.30705-0.0683-0.0974-0.0221-0.19275-0.0699-0.28999-0.0956-0.0817-0.0216-0.16763-0.0347-0.25018-0.0546-0.0673-0.0162-0.15936-0.0228-0.22172-0.0478-0.06-0.0239-0.23607-0.19062-0.27867-0.24568-0.0238-0.0307-0.0381-0.0721-0.0626-0.10232-0.0239-0.0299-0.0607-0.0524-0.0852-0.0819-0.0485-0.0581-0.0817-0.13211-0.13079-0.19103-0.0734-0.088-0.32954-0.30483-0.36695-0.37778-0.0406-0.14458-0.0659-0.27398-0.12785-0.41372-0.1413-0.0457-0.29696-0.083-0.42644-0.15698-0.25471-0.14548-0.50145-0.42735-0.36392-0.73013l-0.0627-0.10233c-0.19694-0.0388-0.54501 0.10938-0.6823-0.0615 0.035-0.0614 0.0382-0.18283 6e-3 -0.24569-0.12104-0.18011-0.42226-0.16041-0.5117-0.37531-0.0432-0.10356-0.0443-0.2497-0.0853-0.35481"/>
   <path d="m117.7 156.2h0.14212c0.20104-0.14147 0.6718-0.22566 0.89844-0.12284 0.0376 0.017 0.0706 0.0567 0.10807 0.0751 0.0716 0.0352 0.19676 0.0868 0.27291 0.10921 0.21795 0.0641 0.55971 0.0234 0.68229 0.25929-0.0194 0.10496-0.0691 0.19998-0.091 0.30026-0.055 0.25207-0.0132 0.51456 0.23123 0.63453 0.0834 0.041 0.22747 0.0477 0.30894-7e-3l0.14212 0.0273c0.017 0.083 6e-3 0.17305 0.0228 0.25248 0.0563 0.27013 0.3197 0.45935 0.48897 0.65505 0.0949 0.10963 0.19727 0.37853 0.2616 0.5186 0.0751 0.0521 0.16665 0.0849 0.23886 0.13645 0.24182 0.17257 0.316 0.56603 0.42078 0.82565 0.37098 0.21844 0.43359-0.0228 0.8131 0.0547 0.34193 0.0697 0.34193 0.25372 0.56856 0.32748 0.0574-0.0653 0.0726-0.16978 0.0568-0.25248-0.0145-0.0763-0.0663-0.14623-0.091-0.21836-0.0546-0.1591-0.0176-0.34948-0.0796-0.49807-4e-3 -0.01-0.0551-0.0862-0.0626-0.0956-0.16412-0.20457-0.54101-0.24272-0.61978-0.44352l-6e-3 -0.12964c0.0834-0.18233 0.46886-0.35235 0.65965-0.29343l0.0852 0.0819-0.0852 0.0751 0.0113 0.10921c0.12194 0.0883 0.26471 0.14549 0.37533 0.25249 0.22663 0.21933 0.26184 0.83245 0.51178 0.92116 0.31378-0.0817 0.24296-0.41241 0.50604-0.53221l0.11373 0.041c0.0198 0.12218 0.066 0.2474 0.0796 0.36844 0.0399 0.35414-0.0427 0.74506-0.0284 1.1054l0.0626 0.0955 0.1308 0.0615c0.40929-0.15525 0.42422 0.25831 0.71076 0.40257 0.0968 0.26914-0.18191 0.53836-0.0284 0.81203 0.10511 0.0589 0.61467 0.18946 0.75622 0.21834 0.0724 0.0148 0.17372 6e-3 0.24453-0.0137 0.081-0.0631 0.094-0.16674 0.11373-0.2593 0.0287-0.13506 0.0485-0.29819 0.0454-0.4367-2e-3 -0.081-0.0422-0.16551-0.0512-0.24567-5e-3 -0.0406 8e-3 -0.0903 0-0.12965-0.0523-0.27481-0.42324-0.74655-0.29565-1.0235 0.12301-0.0654 0.24782-0.0522 0.37525-0.0888 0.15558-0.0445 0.27185-0.18167 0.41512-0.23197 0.0388-0.0136 0.0925-6e-3 0.1308-0.0205 0.0558-0.0212 0.11972-0.0766 0.17814-0.10462 0.18504-0.0888 0.32117-0.0876 0.51556-0.12054 0.0567 0.0371 0.1194 0.12572 0.13646 0.19111 0.0682 0.0494 0.1953 0.0839 0.27866 0.0819 0.26275-7e-3 1.1704-0.52163 1.3988-0.696 0.0286-0.0219 0.0553-0.0638 0.0853-0.0819 0.06-0.036 0.60434-0.27816 0.66522-0.29343 0.0823-0.0207 0.17446-0.0176 0.25585-0.041 0.20729-0.0592 0.32848-0.10929 0.5515-0.041 0.16469 0.10315 0.20555 0.5799 0.50046 0.78471 0.21458 0.1491 0.49291 0.2213 0.69937 0.38894 0.11816 0.0958 0.19021 0.26062 0.31846 0.348 0.23624 0.16092 0.57529 0.21401 0.84157 0.31395 0.17231 0.0646 0.40141 0.22393 0.54583 0.34119 0.21975 0.17839 0.41258 0.46575 0.71077 0.49808 0.27726-0.14704 0.51679-0.42185 0.85298-0.42989 0.0978-2e-3 0.19701 9e-3 0.29564 7e-3 0.0599-0.10495 0.13678-0.21327 0.17625-0.32757 0.0339-0.0977 0.0378-0.22122 0.0796-0.31386 0.0593-0.1317 0.35643-0.41956 0.69279-0.4415"/>
  </g>
  <path d="m157.3 212.49c-0.20128-1.7643 0.0942-3.4601 0.54645-4.9888 0 0 0.30149-2.509 0.30492-3.0994 8e-3 -1.3832-0.35717-3.4044-0.16531-4.7096 0.0771-0.4865 0.97402-2.1492 0.86096-2.6173-0.5593-2.3137-1.1056-4.59-2.0607-6.7842l0.48307-1.4007s1.4309-0.32119 1.79-0.26038c0.50791 0.0865 1.1168 0.35203 1.6144 0.50963 2.0901-0.16874 3.8219-1.7908 5.8474-2.2694 0.0599-0.0171 2.1162-0.24925 2.1724-0.24925 1.3142 0.0171 2.5814 0.56787 3.8921 0.0428 1.1913-0.71775 1.7163-2.1927 2.5224-3.2484 0.64837-0.84879 1.4738-1.7522 2.209-2.5294 3.0086-3.176 6.8517-5.4854 8.8449-9.4873 0.16274-0.32547 0.48221-0.83681 0.60041-1.199 0.24925-0.76829 0.74002-3.6181 0.93051-4.212 0.2758-0.8565 0.50534-1.9004 0.87158-2.7108 0.61583-1.3621 1.8012-2.7382 2.9841-3.6413 0.36316-0.27665 3.3834-2.079 4.3449-2.8176 1.1005-0.84708 2.1042-1.9251 3.2371-2.7171 0 0 4.0988-1.8519 4.8094-2.3847 0.24924-0.18672 0.73317-1.4836 0.73317-1.4836-0.50448-0.7443-1.7844-2.2617-1.6607-3.1205 0.36144-2.4999 0.56272-5.5199 2.372-7.4927l1.2201-0.45994c0.87852-1.7163 4.3884-4.1558 4.7883-5.1242l0.7974-1.9363c1.3894-0.66807 2.5407-1.5848 3.7059-2.5737l0.96426-0.81882c0.63039-0.39742 1.5152-0.58842 2.112-1.0184 1.0331-0.74687 2.0481-1.8238 3.0067-2.6784 0.0514-0.0428 2.2328-0.78713 2.6018-1.0908 0.56187-0.4608 0.91997-1.348 1.4759-1.8216 0.49849-0.42226 5.1832-3.6476 6.5298-3.9112 0.84023-0.16445 1.9398 0.72631 2.7114 0.92348 0 0 1.7592 0.20214 2.0206 0.16702 0.78628-0.10963 5.2739-1.6263 6.5116-2.1239 1.4661-0.59099 2.9251-1.6952 4.257-2.5343 0.27579-0.17301 0.6852-0.29292 0.98669-0.42054 1.0078 0.191 2.0529 0.45481 3.0671 0.57386 1.0268 0.12077 2.7698 0.2047 2.9286 0.29978 0.92913 0.55758 1.6277 1.8477 2.8134 1.9798 0.84966 0.0959 1.9503-0.77599 2.637-0.67493 1.0437 0.15503 1.8209 0.75287 2.9708 0.48307 0.4274-0.48307 1.3515-1.3754 2.0016-1.5666 0.72032 0.24839 3.6279 0.19957 4.4045-0.23725 0.8034-0.45223 1.7304-1.1055 2.573-1.4499 0.22098-0.0899 1.802-0.33661 1.802-0.33661 1.4191-0.16616 4.1206 0.77942 5.2437 1.5328 0.77429 0.51905 2.0382 2.0107 2.9982 2.0368 0.64581-0.11735 1.3431-0.26723 1.9546-0.51476 1.2314 0.38799 2.7677 0.79569 3.8971 1.3944 0.73917 0.39228 3.3342 2.0649 3.902 2.3523 1.2434 0.23982 2.6953-1.5462 3.5745-2.1415 0.25866-0.17472 7.289-3.9786 9.6574-4.5781l1.2398-0.31348c0.71947 8e-3 1.8113 0.37087 2.5366 0.5199l2.0339 1.8645c2.1815 0.36658 4.5528-0.0257 6.65-0.68007 0.0428 0.0257 2.4887 0.61069 3.5338 0.84966 1.7395 0.39742 1.5975 0.35373 3.06-0.72032 0.51819-0.38029 1.0373-0.77514 1.5216-1.1976 0.65951 0.15074 1.5336 0.45823 2.1949 0.50448 0.14389 8e-3 1.2228-0.23982 1.4632-0.25438 0.95167-0.06 5.5473 0.39142 6.5123 0.23211 1.3909-0.22869 2.2413-1.0437 3.1346-2.008l1.3234-0.31006 1.0788 0.59784 1.2594 2.9779c1.0402 0.54045 2.003 1.506 2.7318 2.407 0.43082 0.53446 0.70062 1.3403 1.3636 1.6552l0.67407 0.0771c0.77086-0.40085 2.3053-1.3634 3.0714-1.5988 0.93616-0.28779 2.1892-0.0882 3.1591-0.31605l1.4337-0.75801c0.46251-0.78285 0.92777-1.7831 1.4759-2.4958 0.0171-0.0257 1.5589-0.4471 1.6138-0.43168 1.0634 0.30748 6.4468 1.6832 7.246 2.0198 0.43768 0.18586 0.8715 0.59441 1.315 0.74345 0.0428 0.0171 1.6234 0.25866 1.674 0.25866 0.91158 0 2.5491-0.74173 3.131-0.7246 1.277 0.0343 2.5829 0.91654 3.6617 1.0795 0.64581 0.0976 1.5103-0.1516 2.1815-0.12848 0.59356 0.0257 1.2749 0.18501 1.8667 0.27151 0.0428 7e-3 1.6812 0.81968 2.315 1.0177 0.0343 8e-3 1.2496 0.15161 1.2974 0.14989 0.71775-0.0257 4.5977-0.53703 5.2057-0.764 0.06-0.0257 1.8632-0.9467 1.885-0.96288 1.1569-0.89531 2.2679-2.0901 3.3496-3.0881 0.0171-0.0171 0.94816-0.32975 1.0331-0.35887 1.18 0.5139 2.4753 0.0771 3.5977 0.53189 1.3003-0.31691 1.5209-1.2741 2.3685-1.9868 0.55244-0.46423 1.3445-0.72803 1.9004-1.19 0.47022-0.39142 1.7964-1.7753 2.1078-2.3692 1.9236-0.48307 2.4451-0.98884 3.7039-2.3896 0.0171-0.0257 2.5343-1.2524 2.6348-1.329 0.0514-0.0428 0.78284-1.0577 0.98541-1.3719 0.50534-0.78028 1.1266-1.7767 1.7303-2.4746 0.63039-0.72803 2.4205-1.3571 3.098-1.9088 0.6972-0.56958 6.3106-5.6472 6.6191-6.1208l0.76058-1.5785c0.87929-1.8224 1.7458-3.6504 2.618-5.477 0.0865-0.18072 0.29893-0.41027 0.42141-0.57472l-0.26895-1.5969c-0.35202-2.0943 0.81368-3.2062 1.5455-5.0103 0.35203-0.86661-0.0599-3.5872-0.11134-4.2113-0.0343-0.45309-0.60213-3.9751-0.68093-5.2409-0.13704-2.1823 0.21841-4.361 0.0171-6.5742 0.41541-1.3522 2.4872-1.9755 3.5352-2.6615 0.43596-0.28522 0.79655-0.74088 1.2236-1.0395 0.80683-0.56358 2.9919-1.8892 3.8571-2.3727" fill="none" stroke-width="4.2825"/>
  <path d="m7.5471 219.84-0.63296 0.87646-1.1202 0.23383-1.0711-0.52675c-0.25181-0.97274 0.22012-2.5716 1.1689-3.039l0.92563 0.35117 0.58499 0.81796c-7.708e-4 0 0.1576 0.29207 0.14561 1.2861z" clip-rule="evenodd" fill="#c60c31" fill-rule="evenodd" stroke-width="1.713"/>
 </g>
</svg>
