<?xml version="1.0" encoding="UTF-8"?>
<!-- Created with Inkscape (http://www.inkscape.org/) -->
<svg width="1920" height="1080" version="1.1" viewBox="0 0 508 285.75" xmlns="http://www.w3.org/2000/svg">
 <g transform="matrix(8.5651 0 0 8.5651 -1014.7 -1157.8)">
  <g fill="#013378">
   <path transform="matrix(.030891 0 0 .030891 118.47 135.17)" d="m1648.5 213.51c0.023 0.0237 0.2022 0.4077 0.2305 0.44335 0.1459-0.0823 0.4492-0.28489 0.5801-0.35742zm0.2305 0.44335c-3.5187 1.984-11.068 6.5635-13.996 8.6113-1.6171 1.1298-2.9657 2.8475-4.627 3.9258-3.9782 2.6012-11.796 4.9557-13.365 10.061 0.7868 8.3646-0.5823 16.598 0 24.846 0.4372 4.7798 2.4554 18.099 2.5938 19.809 0 2.368 1.7559 12.643 0.4394 15.918-2.7762 6.82-7.1769 11.018-5.8437 18.938l0.9687 6.0332c-0.4367 0.65586-1.253 1.4993-1.5742 2.1699-3.2862 6.9003-6.5719 13.813-9.8965 20.701l-2.8711 5.9688c-1.1578 1.7916-22.386 20.983-25.016 23.135-2.5503 2.0849-9.3268 4.4661-11.711 7.2129-2.266 2.6378-4.6282 6.3964-6.5372 9.3496-0.7429 1.1879-3.5178 5.0437-3.707 5.1894-0.4372 0.29065-9.8825 4.94-9.957 5.0274-4.7507 5.2899-6.7255 7.1976-13.998 9.0293-1.2031 2.2444-6.1861 7.4752-7.9707 8.9551-2.0762 1.7486-5.0943 2.7396-7.1855 4.4883-3.1988 2.6888-4.0212 6.3112-8.9473 7.5098-4.2626-1.7119-9.1375-0.0595-13.6-2.0117-0.4372 0.15042-3.8464 1.2973-3.8828 1.3555-4.0734 3.7671-8.2816 8.2851-12.656 11.672 0 0.0593-6.9011 3.5564-7.1269 3.6367-2.2661 0.86646-16.96 2.7681-19.668 2.8848 0 3e-3 -4.7666-0.51022-4.9121-0.58203-2.4047-0.74287-8.5818-3.8113-8.748-3.8477-2.2223-0.36321-4.8158-0.93967-7.0528-1.0195-2.5502-0.059-5.8011 0.86023-8.25 0.51172-4.073-0.65579-9.013-3.9344-13.832-4.0801-2.2224-0.0593-8.3917 2.7383-11.836 2.7383 0 0-6.1718-0.92467-6.3321-0.98242-1.6602-0.58235-3.3293-2.0973-4.9687-2.8047-3.0093-1.2678-23.372-6.4712-27.385-7.6348 0-0.0593-6.0326 1.5471-6.1054 1.627-2.0763 2.6888-3.8477 6.4764-5.5821 9.4316l-5.4219 2.8633c-3.6577 0.86646-8.4005 0.0602-11.938 1.1953-2.8707 0.88861-8.6937 4.524-11.605 6.0469l-2.5489-0.29102c-2.4992-1.1881-3.5202-4.239-5.1523-6.25-2.7762-3.4027-6.3906-7.0532-10.328-9.0976l-4.7578-11.256-4.0723-2.2598-5.0059 1.1738c-3.3737 3.6432-6.5944 6.7244-11.852 7.5879-3.6575 0.58231-21.01-1.0916-24.611-0.86523-0.9252 0.0593-4.9928 0.9909-5.5391 0.96093-2.4994-0.2177-5.7999-1.3252-8.291-1.916-1.8068 1.602-3.7952 3.0952-5.7481 4.5234-5.5303 4.0584-4.9982 4.227-11.562 2.7188-3.9347-0.89643-13.22-3.1182-13.359-3.2129-7.9247 2.4846-16.888 3.9552-25.137 2.5781l-7.6836-7.0449c-2.7252-0.58315-6.8629-1.9388-9.5859-1.9668l-4.6855 1.1875c-8.9521 2.2663-35.527 16.644-36.504 17.305-3.3298 2.2516-8.8082 9.0022-13.512 8.0938-2.128-1.0785-11.948-7.4085-14.744-8.8906-4.2626-2.266-10.077-3.8103-14.728-5.2676-2.3171 0.93971-4.9478 1.4948-7.3887 1.9453-3.6139-0.0586-8.4064-5.7356-11.336-7.6992-4.2626-2.8416-14.452-6.4196-19.812-5.793 0 0-5.9837 0.93341-6.8145 1.2832-3.1985 1.3045-6.695 3.7756-9.7246 5.4805-2.9145 1.6537-13.916 1.836-16.646 0.89649-2.4556 0.7285-5.9457 4.0878-7.5683 5.9238-4.3572 1.0196-7.2793-1.238-11.221-1.8223-2.5938-0.36321-6.7602 2.9155-9.9648 2.5586-4.4885-0.51216-7.1267-5.3774-10.639-7.4824-0.58231-0.36321-7.191-0.65698-11.066-1.1309-3.8473-0.43854-7.7877-1.4515-11.598-2.1719-1.1578 0.51129-2.6881 0.93463-3.752 1.582-5.0351 3.1768-10.549 7.3513-16.09 9.5781-4.6778 1.8866-21.637 7.6158-24.613 8.0274-1.013 0.15042-7.6328-0.65625-7.6328-0.65625-2.9145-0.7505-7.0749-4.1168-10.248-3.4902-5.0859 0.99194-22.799 13.19-24.678 14.783-2.0765 1.7916-3.4676 5.1361-5.5879 6.8848-1.3906 1.1512-9.6476 3.9502-9.832 4.125-3.614 3.2352-7.4569 7.3015-11.369 10.123-2.266 1.6257-5.5957 2.354-7.9746 3.8476l-3.6582 3.0957c-4.401 3.7378-8.753 7.2001-14.002 9.7285l-3.0098 7.3184c-1.5222 3.6652-14.771 12.881-18.1 19.367l-4.582 1.7324c-6.8418 7.4555-7.6015 18.87-8.9668 28.318-0.43718 3.257 4.3576 8.9859 6.2812 11.795 0 0-1.8079 4.9039-2.7773 5.6035-2.6812 2.0182-18.172 9.0137-18.172 9.0137-4.3065 2.9948-8.079 7.0687-12.24 10.27-3.6139 2.7908-15.044 9.6011-16.418 10.648-4.4956 3.4026-8.9488 8.6176-11.281 13.762-1.341 3.0677-2.2654 7.0174-3.293 10.246-0.7429 2.2443-2.5941 13.012-3.5195 15.918-0.43722 1.3691-1.6619 3.3019-2.2656 4.5332-7.5312 15.124-22.063 23.852-33.432 35.855-2.7762 2.9292-5.9017 6.3538-8.3457 9.5606-3.053 3.9857-5.027 9.5661-9.5352 12.277-4.9547 1.9814-9.7437-0.058-14.711-0.21679 0-3e-3 -7.9803 0.88061-8.207 0.93164-7.6566 1.8069-14.208 7.943-22.105 8.5781-1.8498-0.58235-4.1671-1.5954-6.1055-1.9297-1.341-0.2177-6.7676 0.99219-6.7676 0.99219l-1.8086 5.2969c3.6141 8.2925 5.6698 16.897 7.791 25.643 0.43718 1.7702-2.9654 8.045-3.2422 9.8906-0.72851 4.9329 0.65554 12.568 0.58203 17.799 0 2.2295-1.1582 11.715-1.1582 11.715-1.7119 5.778-4.896 15.059-7.0527 20.713 3.0604-1.3562 6.9944-2.4785 10.336-2.084 2.3609 5.5741-3.2851 17.057-5.3398 22.531 3.3809 13.032-2.7269 19.646-1.8516 27.609 0.43809 3.1333 5.8805 10.517 8.4707 12.371 6.7398 15.068-14.557 41.969-8.6543 53.676 1.2528 2.4482 15.501 13.749 18.408 15.242 7.7396 3.9639 24.021 10.424 24.113 20.76l-2.4062 3.0879-3.8457-0.2168c-9.7719-10.458-45.3-16.928-50.988-30.703-4.073-9.9053-8.7e-4 -17.154 2.7754-26.287 0.88203-2.6741 2.6883-16.594 2.5938-19.436 0-3.9638-2.039-7.4695-2.9648-11.266-1.5738-6.587-3.9349-13.01-11.234-15.242-2.9144 6.3903-19.938 9.7101-26.326 9.0566-4.2118-0.43718-8.1974-2.0992-12.141-3.5352-5.0205 2.3533-13.035-2.2508-18.039-3.5332-4.583-1.1794-9.3549-0.883-13.988-0.21875 1.2526 4.8893 1.5731 21.03 0.74218 26.066-0.5105 3.075-1.7582 6.1204-1.1094 9.2754 0.51129 2.594 2.0777 4.824 2.9668 7.2891 2.1714 6.208 4.5826 18.812 2.0391 24.961 5.9677 6.1859 2.2671 15.842 6.0781 22.967 1.8067 3.3737 5.1282 5.5091 7.5488 8.3945 2.2661 2.7398 3.7523 6.1728 6.623 8.3945l0.74414 3.9707 1.8496 1.5449c3.7963-1.2527 7.0748-3.5989 10.859-4.8594l3.7012 1.543c0 2.6379-1.0123 6.0984-2.9648 7.9492 4.7435 3.6578 11.21 2.4566 16.566 1.1094l2.7754 2.8711c1.4358 13.045 9.7088 9.7567 19.143 14.799l1.4785 3.5332-0.92578 3.9707-2.9648 2.6523-0.92578 3.9707c1.9017 1.7421 3.614 3.7463 4.9766 5.9688l-1.1074 4.1972c0.7429 2.3899 1.945 4.6615 3.5195 6.6289-0.58228 5.8802-6.0631 10.43-5.3418 16.568 0.58235 5.1588 10.879 12.01 12.697 22.967-0.78686 0.7505-1.5221 1.56-2.4043 2.209-4.933 3.7232-24.238-4.8756-28.168-0.4395-0.88199 1.0129-1.6168 2.2084-2.4043 3.3086 0.87546 10.732 10.768 16.947 15.457 25.625 5.847 10.807 1.3148 18.363 5.5352 25.844h1400.5v-322.01c-1.1213-1.9468-2.248-3.889-3.6972-5.6133-4.3573-5.1515-11.192-4.0664-15.65-8.6152-3.0601-3.1478-12.375-24.885-14.902-30.26-3.9347-8.3771-12.747-13.153-18.418-19.879-6.4631-7.6796-9.0914-18.064-13.438-26.949-4.8166-9.8679-12.336-19.593-19.691-27.615-4.0219-4.3864-4.8608-8.9364-7.5508-13.252-0.6559-1.0628-1.8069-1.6974-2.5938-2.6602-0.8391-1.0195-1.3907-2.2503-2.2226-3.3066-3.8471-5.1663-9.8909-8.7289-13.617-13.693-3.8471-5.0929-7.2796-10.302-11.416-15.242-4.2115-5.0277-3.7006-12.621-7.5449-17.453-8.5402-10.788-22.206-17.136-28.895-30.039-7.642-14.739-4.911-24.05-7.7343-39.098-6.0261-3.8399-12.545-11.322-12.332-18.996 0-5.0933 1.2969-6.9512-1.2969-12.146-1.6687-3.4102-4.6329-6.0476-6.2578-9.5-5.064-10.801-13.912-22.195-16.564-34.016-1.2978-5.8146-3.5623-17.507-6.2656-22.529-1.1579-2.2006-3.0081-3.8459-4.5821-5.7402-2.4555-2.9875-3.797-6.7342-6.2597-9.7207-3.7964-4.6196-8.095-9.9918-10.303-15.682-2.3608-6.1134-1.714-12.746-4.9785-18.996-0.5113-0.95532-11.562-19.178-11.604-19.215-4.9403-6.0406-9.3195-11.465-12.879-18.555-3.7525-7.451-3.3809-15.049-5.7051-22.748-1.1083-3.6503-4.6344-6.1076-6.2519-9.5-3.2933-6.8493-6.9432-13.477-10.312-20.32-3.3811-6.8855-3.2432-15.121-6.9883-21.863-1.2528-2.2661-3.5194-3.7172-4.7871-5.9687-1.2527-2.2149-2.1716-4.3718-3.5196-6.6309-2.4555-4.2114-2.4992-10.036-4.7871-14.578-2.8708-5.6906-7.9191-10.042-10.488-15.904-1.4545-3.339-11.981-25.621-13.656-27.73z" stroke-width="2.6545"/>
   <g stroke="#fff" stroke-linejoin="round" stroke-width=".2">
    <path d="m127.58 163.92c0.0317 0.0616 0.0302 0.17856 0 0.24018l-0.10232 0.0615h-0.14221c-0.0632-0.10365-0.25117-0.13064-0.35809-0.18414l-0.0683-0.0955 0.0284-0.12284c0.1326-0.0975 0.55157 0.041 0.55157 0.041z"/>
    <path d="m128.44 164.33c3e-3 0.0632 0.012 0.1958 0.0341 0.2525 0.032 0.0818 0.0842 0.1056 0.091 0.21834l-0.0398 0.10914c-0.0867 8e-3 -0.16715-0.0175-0.24264-0.0546-0.0432-0.0212-0.1153-0.0555-0.14976-0.0887-0.0876-0.0841-0.0967-0.2501-0.0738-0.36162 0.0385-0.0574 0.13548-0.12087 0.20474-0.12965 0.0382 7e-3 0.14572 0.0281 0.17617 0.0546z"/>
    <path d="m130.1 166.63c0.0583 0.13007 0.24445 0.27777 0.38099 0.31387 0.14581 0.0384 0.28998-8e-3 0.43785 0.0546l0.0683 0.10233-0.0568 0.0819c-0.0812 0.0203-0.17257 0.0413-0.25586 0.0478-0.0446 4e-3 -0.0921-5e-3 -0.13645 0-0.19554 0.0204-0.31903 0.0878-0.52311 0-0.0895-0.0845-0.054-0.14507-0.0853-0.22515-5e-3 -0.0123-0.0584-0.0777-0.0683-0.0955-0.0519-0.0935-0.11037-0.24141-0.0967-0.348l0.11373-0.0478 0.14786 0.0546z"/>
    <path d="m133.83 164.06c0.0529 0.25289-0.17069 0.30624 0.14786 0.59351l0.0228 0.12284c-0.10635 0.11848-0.32281 0.12226-0.38665 0.27981-0.0575 0.14171-4e-3 0.30049-0.11381 0.42989-0.0867 0.0444-0.20112 0.0689-0.29565 0.05l-0.11373-0.0227c-0.13629-0.0546-0.21893-0.2419-0.39805-0.30024-0.0628 0.0375-0.14351 0.0897-0.19325 0.14327-0.028 0.0301-0.0464 0.0718-0.0739 0.1024-0.0487 0.0543-0.12472 0.10701-0.18766 0.14328-0.10159-9e-3 -0.2323-0.0525-0.32412-0.0546-0.0773-2e-3 -0.16969 0.0515-0.25019 0.0478-0.33881-0.0156-0.90787-0.42858-0.90975-0.79833l0.0625-0.0751c0.15221-0.0715 0.36983-0.0642 0.49472-0.10913 0.0646-0.0233 0.14417-0.0864 0.20473-0.12284 0.0367-0.0663 0.0673-0.20432 0.0512-0.27972-8e-3 -0.0352-0.13236-0.27481-0.15919-0.30698-0.0246-0.0295-0.0614-0.0521-0.0853-0.0819-0.048-0.0598-0.0829-0.13564-0.13081-0.19792 0.0273-0.27194-0.1161-0.24961-0.19898-0.423-0.12177-0.0367-0.31673-0.20678-0.36399-0.32757-6e-3 -0.0143-5e-3 -0.0236-8e-3 -0.0386-0.0625-0.31839 0.0865-0.50285 0.0986-0.80063 5e-3 -0.13178-0.0142-0.27013-0.017-0.40256-2e-3 -0.087 6e-3 -0.17978-6e-3 -0.26611-0.0105-0.0779-0.0472-0.15845-0.0454-0.23878 9e-4 -0.0391 0.0159-0.0905 0.0228-0.12957 0.0855-0.019 0.25405-0.11086 0.31847-0.1706 0.0769-0.0714 0.21531-0.33905 0.24444-0.4435 8e-3 -6e-3 0.0638-0.053 0.0683-0.0546 0.0173-7e-3 0.35735-0.0676 0.38107-0.0683l0.15352 0.0205c0.0365 0.0123 0.17142 0.1166 0.19324 0.15009 0.0192 0.0293 0.0205 0.0799 0.0398 0.10921 0.0199 0.0301 0.0656 0.0613 0.091 0.0887 0.0238 0.0256 0.0264 0.065 0.0456 0.0893 0.0825 0.1042 0.50817 0.37778 0.63667 0.42923 0.0946 0.0378 0.20424 0.0541 0.29573 0.0955 0.0951 0.0432 0.17298 0.14007 0.25971 0.20013 0.0436 0.0304 0.0735 0.0731 0.0985 0.12054 0.0794 0.15026 0.11019 0.62224 0.0683 0.78471-0.0285 0.11028-0.0737 0.14745-0.0683 0.27973 3e-3 0.0644 0.0768 0.28276 0.10806 0.34111 0.01 0.0183 0.0683 0.0819 0.0739 0.0955l0.0114 0.0819c0.0401 0.28859-0.12383 0.69854 0.13645 0.91427z"/>
    <path d="m132.78 167.12c-0.10569 0.12826-0.39805 0.26866-0.56315 0.23854l-0.0626-0.10224c0.0213-0.0276 0.0486-0.0731 0.0739-0.0955 0.058-0.0518 0.34407-0.2058 0.42079-0.22516l0.12497 0.0546c0.0139 0.0326 0.0221 0.0962 6e-3 0.12981z"/>
    <path d="m132.67 168.41-0.10233 0.0614c-0.14252-0.19143-0.13473-0.20825-0.18766-0.4367l0.0456-0.1024c0.10775 6e-3 0.21819 0.0204 0.32405 0.041 0.0282 0.0782 0.0257 0.19357 6e-3 0.273-9e-5 9e-5 -0.0685 0.11045-0.0853 0.16378z"/>
    <path d="m134.88 167.83c-0.0403 0.0657-0.10709 0.13391-0.17051 0.1774h-0.13647l-0.0739 0.10241 0.0228 0.12284-0.0739 0.0955c-0.0606-0.01-0.24124-0.0446-0.28999-0.041-0.0939 7e-3 -0.24444 0.10971-0.32977 0.15016-0.17971 0.0852-0.39412 0.12465-0.55725 0.24559-0.12899 0.0957-0.12941 0.22139-0.24453 0.27982l-0.14204 7e-3 -0.0398-0.10913 0.0626-0.12284c0.18553-0.0734 0.23886-0.23173 0.30139-0.40257 0.0162-0.0443 0.039-0.0913 0.0512-0.13646 0.0416-0.1532 0.0296-0.43818 0.18766-0.5254 0.0332-0.0717 0.0435-0.18225 0.0285-0.2593l-0.0683-0.0954 0.0626-0.11603 0.11939-0.0478c0.14992 9.8e-4 0.37442 0.23165 0.52869 0.26603 0.13605 0.0302 0.1381-0.023 0.2332-0.0409 0.15213-0.0286 0.25028 0.0451 0.35252 0.14319 0.0102 0.01 0.0808 0.0753 0.0852 0.0819 0.0212 0.031 0.0743 0.18135 0.0909 0.22509z"/>
    <path d="m131.71 168.81c0.0382 0.0799 0.0993 0.11464 0.15353 0.17733 0.15582 0.18002 0.28473 0.48511 0.0228 0.64134l-0.13079-0.0273c-0.13605-0.0947-0.1706-0.2652-0.30139-0.36162-0.13745-0.0149-0.21121 0.0919-0.37524 0.041-0.0536-0.0579-0.12087-0.11086-0.1706-0.17059-0.0237-0.0285-0.0384-0.0675-0.0626-0.0955-0.0259-0.0298-0.0659-0.0517-0.091-0.0819-0.0593-0.0711-0.14843-0.22779-0.14786-0.3206l0.0738-0.10232c0.13646 0.0753 0.22508 0.25249 0.3924 0.25249 0.18634 0 0.31369-0.1555 0.51752-0.0478z"/>
    <path d="m132.07 170.82c-0.0944 0.0809-0.2341 0.0836-0.34684 0.12955l-0.13088-0.0273c-0.023-0.0877-0.0186-0.17101-0.0285-0.25922-0.0226-0.20145-0.14105-0.42202-0.0113-0.61411 0.0701-0.0332 0.20317-0.01 0.26726 0.0273 0.0411 0.0729 0.10199 0.11545 0.15352 0.1774 0.0322 0.0386 0.14409 0.26865 0.15353 0.31386 0.0154 0.0734-9e-3 0.19374-0.0568 0.2525z"/>
   </g>
  </g>
  <g stroke="#fff" stroke-linejoin="round">
   <g clip-rule="evenodd" fill="#013378" fill-rule="evenodd" stroke-width=".2">
    <path d="m126.36 163.59-0.0914 0.0814-0.12505-0.0615-0.0626-0.0955 0.0626-0.11603 0.13079 0.0273c0.0266 0.0557 0.0558 0.11028 0.0856 0.16428z"/>
    <path d="m129.17 160.8c0.10026 0.0243 0.21531 0.0498 0.31845 0.0547 0.0954 5e-3 0.17602-0.0249 0.26726-0.0342 0.10939-0.0112 0.32207-8e-3 0.39806 0.0819 0.0416 0.12391 0.0505 0.27752-0.0114 0.39575-0.0717 0.13696-0.50924 0.49579-0.66523 0.51179l-0.0985-9e-3c-0.0687-6e-3 -0.15434-0.0175-0.21983-0.0386-0.16813-0.0543-0.21112-0.13613-0.42078-0.15016-0.032-2e-3 -0.23706 0.0129-0.26726 0.0205-0.0365 9e-3 -0.078 0.0339-0.11373 0.0478-0.19693 0.0769-0.32658 0.1221-0.54017 0.0546l-0.0853-0.0887c0.0276-0.27431 0.17323-0.25544 0.26159-0.423 0.0155-0.13965-6e-3 -0.30352 0.0398-0.4367 0.0267-0.0773 0.0872-0.12316 0.0852-0.21835 0.17207-0.12776 0.43523-0.17273 0.63118-0.0819 0.0935 0.0433 0.12554 0.11144 0.19332 0.15698l0.0833 0.0348c0.0618 0.0259 0.10018 0.0719 0.14409 0.12194z"/>
    <path d="m130.26 164.24c-0.0176-0.081-0.0627-0.13851-0.10807-0.20472-0.0932-0.13621-0.11963-0.15969-0.25585-0.25249-0.0336-0.0229-0.0672-0.0555-0.10233-0.0751-0.0805-0.0447-0.17444-0.0696-0.25584-0.11602-0.0355-0.0202-0.0668-0.048-0.10241-0.0683-0.0803-0.0457-0.15984-0.077-0.23312-0.13646-0.0902-0.0732-0.15509-0.17543-0.21614-0.27291 0.0701-0.0398 0.13868-0.0835 0.20474-0.12966 0.0353-0.0784 0.0644-0.19356 0.0625-0.27981-8.2e-4 -0.0367-0.0186-0.0789-0.0228-0.11602-0.01-0.0888-8e-3 -0.18339-0.0114-0.27292l0.0739-0.0955c0.28515 0.0653 0.40421-0.15123 0.59138-0.0683l0.0284 0.12284c-0.0575 0.0595-0.10602 0.15902-0.12513 0.23878 0.0772 0.11553 0.0605 0.10766 0.1024 0.23878 0.0353 0.11037 0.10421 0.20678 0.1706 0.30025 0.0197 0.0276 0.0445 0.0726 0.0683 0.0955 0.166 0.16067 0.47395 0.11193 0.71643 0.38214 0.11668 0.12998 0.10258 0.26438 0.0323 0.41619l-0.0379 0.082c-0.0438 0.0605-0.13096 0.10478-0.19332 0.14326-0.0118 7e-3 -0.0899 0.059-0.0967 0.0615-0.0791 0.0285-0.20916 0.0229-0.28999 7e-3z"/>
   </g>
   <path transform="translate(1.308e-6)" d="m137 159.97c0.0727 0.17216-0.1011 0.52688-0.16502 0.69592 0.10438 0.40264-0.0842 0.60697-0.0568 0.85297 0.0108 0.0968 0.18175 0.32486 0.26159 0.38213 0.20834 0.46543-0.44958 1.2965-0.26725 1.6581 0.038 0.0754 0.4787 0.42472 0.56856 0.47074 0.23912 0.12268 0.74195 0.32208 0.74491 0.64136l-0.0738 0.0955-0.1194-7e-3c-0.30196-0.32314-1.3995-0.52295-1.5751-0.94849-0.12628-0.30598-6e-3 -0.52992 0.0852-0.81202 0.0267-0.0827 0.0833-0.51261 0.0796-0.60049-5e-3 -0.12235-0.0632-0.23066-0.091-0.34792-0.0484-0.2035-0.12154-0.40191-0.34694-0.47084-0.0903 0.19743-0.61583 0.29992-0.81309 0.27974-0.13039-0.0133-0.25323-0.0647-0.37516-0.10922-0.15484 0.0726-0.40274-0.0696-0.55724-0.10914-0.14147-0.0363-0.28901-0.0272-0.43227-7e-3 0.0384 0.15107 0.0495 0.64964 0.0228 0.80514-0.0164 0.095-0.0538 0.18914-0.0342 0.28662 0.0162 0.08 0.0645 0.14884 0.091 0.22516 0.0665 0.19185 0.1422 0.58104 0.0626 0.771 0.18422 0.19094 0.0695 0.48946 0.18766 0.70954 0.0559 0.10429 0.15862 0.17002 0.23313 0.25929 0.0706 0.0846 0.11569 0.19062 0.20473 0.2593l0.0227 0.12284 0.0568 0.0478c0.11668-0.039 0.21876-0.11118 0.33552-0.15008l0.11373 0.0478c3e-3 0.0814-0.0311 0.1884-0.091 0.2456 0.14655 0.1129 0.34635 0.0758 0.51178 0.0341l0.0851 0.0887c0.0445 0.40289 0.3 0.30139 0.59138 0.45713l0.0456 0.10923-0.0286 0.12283-0.091 0.0819-0.0285 0.12283c0.0595 0.0538 0.11177 0.11571 0.15353 0.18422l-0.0341 0.12966c0.0232 0.0738 0.0598 0.14408 0.10806 0.20472-0.0189 0.18168-0.18725 0.32215-0.16493 0.51171 0.0188 0.15951 0.33594 0.37113 0.39223 0.70961-0.0243 0.0229-0.0472 0.0482-0.0738 0.0683-0.15221 0.11495-0.74868-0.1505-0.87004-0.0137-0.0278 0.0313-0.0495 0.0684-0.0738 0.10233 0.0267 0.33142 0.33258 0.52343 0.47766 0.7915 0.21416 0.39609-0.0267 0.65096 0.27284 0.92806 0.26495 0.24502 0.68582 0.10733 0.8359 0.23887 0.0591 0.0519 0.071 0.1394 0.13079 0.19102 0.22772 0.19669 0.59278 0.0151 0.6823 0.0478 9.9246 17.825 67.713-4.3991 42.424-9.4288-0.15278-0.15287-0.34701-0.46854-0.50037-0.65505-0.0756-0.0919-0.17765-0.15779-0.25019-0.25241-0.0941-0.12259-0.15049-0.27045-0.25019-0.38894-0.13391-0.15911-0.34579-0.12563-0.48339-0.26611-0.0952-0.0972-0.3823-0.76878-0.4605-0.93478-0.12202-0.25881-0.3937-0.40634-0.56873-0.61411-0.19981-0.23722-0.28088-0.55797-0.41512-0.83254-0.14901-0.30476-0.38124-0.60524-0.60845-0.85297-0.12423-0.13547-0.14999-0.27603-0.23321-0.40938-0.0204-0.0328-0.0553-0.0525-0.0797-0.0819-0.0262-0.0316-0.0437-0.0694-0.0683-0.10232-0.1189-0.1596-0.30574-0.26972-0.42078-0.423-0.11808-0.15747-0.22467-0.31821-0.35252-0.47084-0.13013-0.15558-0.11488-0.38985-0.23311-0.53911-0.26389-0.33322-0.68608-0.52934-0.89269-0.92797-0.23599-0.45525-0.15148-0.74302-0.23878-1.2078-0.18619-0.11857-0.38772-0.34972-0.38099-0.58679 5e-3 -0.15729 0.0396-0.21482-0.0398-0.37524-0.0522-0.10544-0.14328-0.18667-0.19325-0.29343-0.15673-0.33364-0.42981-0.68566-0.5117-1.0508-0.0404-0.1797-0.11078-0.54075-0.19333-0.69599-0.036-0.0678-0.0937-0.11874-0.14203-0.17733-0.0764-0.0923-0.11735-0.20793-0.19333-0.30024-0.11783-0.14286-0.25019-0.30877-0.31838-0.48446-0.0733-0.18881-0.0524-0.3937-0.15352-0.58678-0.0155-0.0295-0.35727-0.59245-0.35826-0.5936-0.15254-0.18643-0.28818-0.35415-0.39806-0.57316-0.11536-0.23017-0.10461-0.46492-0.17624-0.70272-0.034-0.11283-0.14328-0.18857-0.19325-0.29344-0.10085-0.21137-0.2145-0.41635-0.31846-0.62773-0.10454-0.21268-0.10076-0.46723-0.21605-0.67539-0.0387-0.0699-0.1093-0.11473-0.14787-0.18422-0.0379-0.0685-0.0673-0.13499-0.10799-0.20473-0.076-0.13015-0.0771-0.31009-0.14794-0.45041-0.0888-0.17585-0.24461-0.31017-0.32404-0.49127-0.0469-0.10684-0.38517-0.83032-0.42825-0.87431l-0.0325-0.0468" fill="none" stroke-width=".19998"/>
   <path transform="translate(1.308e-6)" d="m136.86 160.04c-0.0399-0.20053-8e-3 -0.45859 0.0447-0.63707 0 0 0.0352-0.29293 0.0356-0.36186 9.7e-4 -0.16149-0.0417-0.39748-0.0193-0.54986 9e-3 -0.0568 0.11372-0.25092 0.10052-0.30558-0.0653-0.27013-0.12908-0.5359-0.24059-0.79208l0.0564-0.16354s0.16706-0.0375 0.20899-0.0304c0.0593 0.0101 0.13039 0.0411 0.18849 0.0595 0.24403-0.0197 0.44622-0.20908 0.6827-0.26496 7e-3 -2e-3 0.24707-0.0291 0.25364-0.0291 0.15344 2e-3 0.30139 0.0663 0.45442 5e-3 0.13909-0.0838 0.20038-0.25601 0.2945-0.37926 0.0757-0.0991 0.17207-0.20457 0.25791-0.29532 0.35127-0.37081 0.79996-0.64044 1.0327-1.1077 0.019-0.038 0.0563-0.0977 0.0701-0.13999 0.0291-0.0897 0.0864-0.42243 0.10864-0.49176 0.0322-0.1 0.059-0.22188 0.10176-0.31649 0.0719-0.15903 0.2103-0.31969 0.3484-0.42513 0.0424-0.0323 0.39502-0.24273 0.50728-0.32896 0.12849-0.0989 0.24567-0.22476 0.37794-0.31723 0 0 0.47855-0.21622 0.56151-0.27842 0.0291-0.0218 0.0856-0.17322 0.0856-0.17322-0.0589-0.0869-0.20833-0.26406-0.19389-0.36433 0.0422-0.29187 0.0657-0.64447 0.27694-0.8748l0.14245-0.0537c0.10257-0.20038 0.51236-0.4852 0.55905-0.59827l0.0931-0.22607c0.16222-0.078 0.29663-0.18503 0.43268-0.30049l0.11258-0.0956c0.0736-0.0464 0.17691-0.0687 0.24658-0.1189 0.12062-0.0872 0.23912-0.21293 0.35104-0.31271 6e-3 -5e-3 0.26069-0.0919 0.30377-0.12736 0.0656-0.0538 0.10741-0.15738 0.17232-0.21268 0.0582-0.0493 0.60516-0.42587 0.76238-0.45665 0.0981-0.0192 0.22648 0.0848 0.31657 0.10782 0 0 0.20539 0.0236 0.23591 0.0195 0.0918-0.0128 0.61575-0.18988 0.76025-0.24797 0.17117-0.069 0.34152-0.19792 0.49702-0.29589 0.0322-0.0202 0.08-0.0342 0.1152-0.0491 0.11767 0.0223 0.23968 0.0531 0.35809 0.067 0.11988 0.0141 0.32338 0.0239 0.34193 0.035 0.10848 0.0651 0.19004 0.21573 0.32847 0.23115 0.0992 0.0112 0.2277-0.0906 0.30788-0.0788 0.12185 0.0181 0.2126 0.0879 0.34685 0.0564 0.0499-0.0564 0.15779-0.16058 0.23369-0.1829 0.0841 0.029 0.42357 0.0233 0.51424-0.0277 0.0938-0.0528 0.20203-0.12907 0.30041-0.16928 0.0258-0.0105 0.21039-0.0393 0.21039-0.0393 0.16568-0.0194 0.4811 0.091 0.61222 0.17896 0.0904 0.0606 0.23797 0.23476 0.35005 0.2378 0.0754-0.0137 0.15681-0.0312 0.2282-0.0601 0.14377 0.0453 0.32314 0.0929 0.455 0.1628 0.0863 0.0458 0.38928 0.24108 0.45557 0.27464 0.14517 0.028 0.31469-0.18053 0.41734-0.25003 0.0302-0.0204 0.85101-0.46451 1.1275-0.53451l0.14475-0.0366c0.084 8.9e-4 0.21147 0.0433 0.29615 0.0607l0.23747 0.21769c0.2547 0.0428 0.53155-3e-3 0.77641-0.0794 5e-3 3e-3 0.29056 0.0713 0.41258 0.0992 0.20309 0.0464 0.18651 0.0413 0.35727-0.0841 0.0605-0.0444 0.12111-0.0905 0.17765-0.13982 0.077 0.0176 0.17905 0.0535 0.25626 0.0589 0.0168 9.7e-4 0.14277-0.028 0.17084-0.0297 0.11111-7e-3 0.64767 0.0457 0.76033 0.0271 0.16239-0.0267 0.26168-0.12186 0.36597-0.23444l0.15451-0.0362 0.12596 0.0698 0.14704 0.34768c0.12145 0.0631 0.23386 0.17583 0.31895 0.28103 0.0503 0.0624 0.0818 0.15648 0.1592 0.19325l0.0787 9e-3c0.09-0.0468 0.26915-0.15918 0.35859-0.18667 0.1093-0.0336 0.2556-0.0103 0.36884-0.0369l0.16739-0.0885c0.054-0.0914 0.10832-0.20818 0.17232-0.29139 2e-3 -3e-3 0.18201-0.0522 0.18841-0.0504 0.12415 0.0359 0.75269 0.19652 0.84599 0.23582 0.0511 0.0217 0.10175 0.0694 0.15353 0.0868 5e-3 2e-3 0.18954 0.0302 0.19545 0.0302 0.10643 0 0.29762-0.0866 0.36556-0.0846 0.1491 4e-3 0.30156 0.10701 0.42752 0.12604 0.0754 0.0114 0.17633-0.0177 0.2547-0.015 0.0693 3e-3 0.14885 0.0216 0.21794 0.0317 5e-3 8.2e-4 0.19628 0.0957 0.27029 0.11882 4e-3 9.7e-4 0.1459 0.0177 0.15148 0.0175 0.0838-3e-3 0.5368-0.0627 0.60778-0.0892 7e-3 -3e-3 0.21753-0.11053 0.22008-0.11242 0.13507-0.10453 0.26479-0.24403 0.39108-0.36055 2e-3 -2e-3 0.1107-0.0385 0.12062-0.0419 0.13777 0.06 0.289 9e-3 0.42004 0.0621 0.15181-0.037 0.17757-0.14876 0.27653-0.23196 0.0645-0.0542 0.15698-0.085 0.22188-0.13893 0.0549-0.0457 0.20974-0.20727 0.24609-0.27661 0.22459-0.0564 0.28547-0.11545 0.43244-0.27899 2e-3 -3e-3 0.29589-0.14622 0.30762-0.15517 6e-3 -5e-3 0.0914-0.12349 0.11505-0.16017 0.059-0.0911 0.13153-0.20744 0.20202-0.28892 0.0736-0.085 0.2826-0.15845 0.3617-0.22286 0.0814-0.0665 0.73678-0.65933 0.7728-0.71463l0.0888-0.1843c0.10266-0.21277 0.20383-0.4262 0.30566-0.63946 0.0101-0.0211 0.0349-0.0479 0.0492-0.0671l-0.0314-0.18644c-0.0411-0.24452 0.095-0.37433 0.18044-0.58497 0.0411-0.10118-7e-3 -0.41882-0.013-0.49168-4e-3 -0.0529-0.0703-0.46411-0.0795-0.61189-0.016-0.25479 0.0255-0.50916 2e-3 -0.76756 0.0485-0.15787 0.29039-0.23065 0.41274-0.31074 0.0509-0.0333 0.093-0.0865 0.14286-0.12136 0.0942-0.0658 0.43233-0.26691 0.53335-0.32336" fill="none" stroke-width=".5"/>
  </g>
 </g>
</svg>
